0, 0, Header, 1, 2, 480
1, 0, Start_track
1, 0, Tempo, 500000
1, 0, Time_signature, 4, 2, 24, 8
1, 1, End_track
2, 0, Start_track
2, 0, Program_c, 0, 0
2, 435, Control_c, 0, 64, 13
2, 455, Control_c, 0, 64, 18
2, 492, Control_c, 0, 64, 19
2, 512, Control_c, 0, 64, 21
2, 531, Control_c, 0, 64, 22
2, 550, Control_c, 0, 64, 23
2, 569, Control_c, 0, 64, 24
2, 589, Control_c, 0, 64, 25
2, 607, Control_c, 0, 64, 27
2, 627, Control_c, 0, 64, 29
2, 646, Control_c, 0, 64, 31
2, 666, Control_c, 0, 64, 32
2, 704, Control_c, 0, 64, 32
2, 723, Control_c, 0, 64, 33
2, 742, Control_c, 0, 64, 34
2, 800, Control_c, 0, 64, 34
2, 819, Control_c, 0, 64, 35
2, 858, Control_c, 0, 64, 35
2, 935, Control_c, 0, 64, 36
2, 953, Control_c, 0, 64, 36
2, 968, Note_on_c, 0, 68, 43
2, 972, Control_c, 0, 64, 37
2, 992, Control_c, 0, 64, 37
2, 998, Note_on_c, 0, 56, 42
2, 1011, Control_c, 0, 64, 39
2, 1011, Note_on_c, 0, 59, 39
2, 1030, Control_c, 0, 64, 40
2, 1049, Control_c, 0, 64, 41
2, 1107, Control_c, 0, 64, 41
2, 1126, Control_c, 0, 64, 42
2, 1146, Control_c, 0, 64, 42
2, 1203, Control_c, 0, 64, 43
2, 1222, Control_c, 0, 64, 44
2, 1224, Note_on_c, 0, 70, 54
2, 1241, Control_c, 0, 64, 45
2, 1261, Control_c, 0, 64, 46
2, 1299, Control_c, 0, 64, 46
2, 1338, Control_c, 0, 64, 47
2, 1357, Note_on_c, 0, 68, 0
2, 1448, Note_on_c, 0, 71, 55
2, 1463, Note_on_c, 0, 70, 0
2, 1469, Note_on_c, 0, 63, 40
2, 1530, Control_c, 0, 64, 47
2, 1550, Control_c, 0, 64, 46
2, 1568, Control_c, 0, 64, 45
2, 1588, Control_c, 0, 64, 45
2, 1588, Note_on_c, 0, 59, 0
2, 1607, Control_c, 0, 64, 44
2, 1627, Control_c, 0, 64, 44
2, 1644, Control_c, 0, 64, 43
2, 1664, Control_c, 0, 64, 42
2, 1670, Note_on_c, 0, 68, 54
2, 1683, Control_c, 0, 64, 41
2, 1683, Note_on_c, 0, 71, 0
2, 1702, Control_c, 0, 64, 41
2, 1760, Control_c, 0, 64, 40
2, 1837, Control_c, 0, 64, 38
2, 1856, Control_c, 0, 64, 25
2, 1875, Control_c, 0, 64, 0
2, 1897, Note_on_c, 0, 70, 64
2, 1904, Note_on_c, 0, 61, 42
2, 1993, Note_on_c, 0, 68, 0
2, 2003, Note_on_c, 0, 63, 0
2, 2029, Control_c, 0, 64, 22
2, 2047, Control_c, 0, 64, 27
2, 2067, Control_c, 0, 64, 29
2, 2086, Control_c, 0, 64, 33
2, 2106, Control_c, 0, 64, 44
2, 2121, Note_on_c, 0, 73, 68
2, 2124, Control_c, 0, 64, 49
2, 2144, Control_c, 0, 64, 49
2, 2163, Control_c, 0, 64, 48
2, 2240, Control_c, 0, 64, 48
2, 2259, Control_c, 0, 64, 47
2, 2278, Control_c, 0, 64, 47
2, 2298, Control_c, 0, 64, 46
2, 2317, Control_c, 0, 64, 46
2, 2336, Control_c, 0, 64, 45
2, 2355, Control_c, 0, 64, 44
2, 2375, Control_c, 0, 64, 43
2, 2387, Note_on_c, 0, 55, 40
2, 2393, Control_c, 0, 64, 41
2, 2412, Control_c, 0, 64, 38
2, 2416, Note_on_c, 0, 76, 54
2, 2432, Control_c, 0, 64, 36
2, 2451, Control_c, 0, 64, 36
2, 2453, Note_on_c, 0, 70, 0
2, 2488, Note_on_c, 0, 73, 0
2, 2489, Control_c, 0, 64, 34
2, 2493, Note_on_c, 0, 61, 0
2, 2509, Control_c, 0, 64, 30
2, 2527, Control_c, 0, 64, 22
2, 2527, Note_on_c, 0, 56, 0
2, 2547, Control_c, 0, 64, 0
2, 2899, Note_on_c, 0, 75, 51
2, 2913, Note_on_c, 0, 59, 41
2, 2994, Note_on_c, 0, 76, 0
2, 3392, Note_on_c, 0, 58, 40
2, 3395, Note_on_c, 0, 73, 45
2, 3481, Note_on_c, 0, 59, 0
2, 3507, Note_on_c, 0, 75, 0
2, 3526, Control_c, 0, 64, 17
2, 3546, Control_c, 0, 64, 37
2, 3564, Control_c, 0, 64, 46
2, 3584, Control_c, 0, 64, 48
2, 3680, Control_c, 0, 64, 47
2, 3699, Control_c, 0, 64, 47
2, 3718, Control_c, 0, 64, 46
2, 3738, Control_c, 0, 64, 45
2, 3757, Control_c, 0, 64, 44
2, 3776, Control_c, 0, 64, 44
2, 3795, Control_c, 0, 64, 43
2, 3814, Control_c, 0, 64, 42
2, 3833, Control_c, 0, 64, 41
2, 3852, Control_c, 0, 64, 41
2, 3872, Control_c, 0, 64, 40
2, 3889, Note_on_c, 0, 71, 51
2, 3903, Note_on_c, 0, 56, 27
2, 3910, Control_c, 0, 64, 39
2, 3918, Note_on_c, 0, 58, 0
2, 3929, Control_c, 0, 64, 38
2, 3949, Control_c, 0, 64, 37
2, 3952, Note_on_c, 0, 73, 0
2, 3967, Control_c, 0, 64, 37
2, 4006, Control_c, 0, 64, 36
2, 4026, Control_c, 0, 64, 35
2, 4064, Control_c, 0, 64, 35
2, 4134, Note_on_c, 0, 58, 48
2, 4207, Note_on_c, 0, 56, 0
2, 4227, Note_on_c, 0, 55, 0
2, 4237, Control_c, 0, 64, 34
2, 4313, Control_c, 0, 64, 34
2, 4368, Note_on_c, 0, 58, 0
2, 4380, Note_on_c, 0, 80, 65
2, 4387, Note_on_c, 0, 75, 53
2, 4392, Control_c, 0, 64, 33
2, 4393, Note_on_c, 0, 59, 40
2, 4449, Control_c, 0, 64, 32
2, 4456, Note_on_c, 0, 71, 0
2, 4469, Control_c, 0, 64, 21
2, 4488, Control_c, 0, 64, 0
2, 4597, Note_on_c, 0, 56, 53
2, 4601, Note_on_c, 0, 59, 0
2, 4717, Control_c, 0, 64, 23
2, 4736, Control_c, 0, 64, 35
2, 4755, Control_c, 0, 64, 43
2, 4774, Control_c, 0, 64, 51
2, 4793, Control_c, 0, 64, 55
2, 4812, Control_c, 0, 64, 53
2, 4826, Note_on_c, 0, 58, 53
2, 4829, Note_on_c, 0, 73, 60
2, 4831, Note_on_c, 0, 70, 47
2, 4832, Control_c, 0, 64, 36
2, 4851, Control_c, 0, 64, 0
2, 4877, Note_on_c, 0, 56, 0
2, 4966, Control_c, 0, 64, 36
2, 4986, Control_c, 0, 64, 57
2, 5004, Control_c, 0, 64, 60
2, 5047, Note_on_c, 0, 61, 54
2, 5062, Control_c, 0, 64, 61
2, 5092, Note_on_c, 0, 58, 0
2, 5092, Note_on_c, 0, 75, 0
2, 5120, Control_c, 0, 64, 60
2, 5121, Note_on_c, 0, 80, 0
2, 5158, Control_c, 0, 64, 60
2, 5197, Control_c, 0, 64, 59
2, 5235, Control_c, 0, 64, 59
2, 5254, Control_c, 0, 64, 58
2, 5273, Control_c, 0, 64, 58
2, 5292, Control_c, 0, 64, 57
2, 5312, Control_c, 0, 64, 56
2, 5331, Control_c, 0, 64, 55
2, 5351, Control_c, 0, 64, 54
2, 5370, Control_c, 0, 64, 53
2, 5399, Note_on_c, 0, 79, 50
2, 5408, Control_c, 0, 64, 53
2, 5414, Note_on_c, 0, 64, 43
2, 5467, Control_c, 0, 64, 51
2, 5486, Control_c, 0, 64, 43
2, 5506, Control_c, 0, 64, 0
2, 5507, Note_on_c, 0, 61, 0
2, 5512, Note_on_c, 0, 73, 0
2, 5564, Note_on_c, 0, 70, 0
2, 5678, Control_c, 0, 64, 20
2, 5698, Control_c, 0, 64, 27
2, 5717, Control_c, 0, 64, 38
2, 5737, Control_c, 0, 64, 50
2, 5755, Control_c, 0, 64, 55
2, 5774, Control_c, 0, 64, 54
2, 5832, Control_c, 0, 64, 55
2, 5851, Control_c, 0, 64, 56
2, 5889, Control_c, 0, 64, 55
2, 5902, Note_on_c, 0, 71, 47
2, 5909, Control_c, 0, 64, 51
2, 5916, Note_on_c, 0, 63, 39
2, 5928, Control_c, 0, 64, 43
2, 5947, Control_c, 0, 64, 36
2, 5966, Control_c, 0, 64, 37
2, 5981, Note_on_c, 0, 64, 0
2, 5986, Control_c, 0, 64, 44
2, 6005, Control_c, 0, 64, 51
2, 6024, Control_c, 0, 64, 51
2, 6063, Control_c, 0, 64, 52
2, 6082, Control_c, 0, 64, 53
2, 6101, Control_c, 0, 64, 54
2, 6120, Control_c, 0, 64, 54
2, 6140, Control_c, 0, 64, 53
2, 6178, Control_c, 0, 64, 53
2, 6197, Control_c, 0, 64, 52
2, 6217, Control_c, 0, 64, 52
2, 6235, Control_c, 0, 64, 52
2, 6254, Control_c, 0, 64, 53
2, 6274, Control_c, 0, 64, 54
2, 6331, Control_c, 0, 64, 49
2, 6351, Control_c, 0, 64, 32
2, 6369, Control_c, 0, 64, 0
2, 6381, Note_on_c, 0, 70, 46
2, 6400, Note_on_c, 0, 61, 34
2, 6400, Note_on_c, 0, 71, 0
2, 6443, Control_c, 0, 64, 27
2, 6463, Control_c, 0, 64, 49
2, 6482, Control_c, 0, 64, 59
2, 6502, Control_c, 0, 64, 62
2, 6520, Control_c, 0, 64, 62
2, 6540, Control_c, 0, 64, 63
2, 6559, Control_c, 0, 64, 63
2, 6626, Note_on_c, 0, 70, 0
2, 6677, Note_on_c, 0, 79, 0
2, 6847, Control_c, 0, 64, 63
2, 6894, Note_on_c, 0, 61, 0
2, 6905, Control_c, 0, 64, 62
2, 6913, Note_on_c, 0, 59, 38
2, 6962, Control_c, 0, 64, 62
2, 6976, Note_on_c, 0, 80, 54
2, 6982, Control_c, 0, 64, 61
2, 7000, Control_c, 0, 64, 61
2, 7012, Note_on_c, 0, 75, 24
2, 7020, Control_c, 0, 64, 60
2, 7045, Note_on_c, 0, 63, 0
2, 7077, Control_c, 0, 64, 60
2, 7116, Control_c, 0, 64, 59
2, 7192, Control_c, 0, 64, 59
2, 7229, Note_on_c, 0, 82, 69
2, 7231, Control_c, 0, 64, 58
2, 7310, Control_c, 0, 64, 59
2, 7336, Note_on_c, 0, 80, 0
2, 7380, Note_on_c, 0, 75, 0
2, 7475, Note_on_c, 0, 83, 63
2, 7480, Control_c, 0, 64, 57
2, 7490, Note_on_c, 0, 68, 43
2, 7500, Control_c, 0, 64, 49
2, 7519, Control_c, 0, 64, 36
2, 7533, Note_on_c, 0, 82, 0
2, 7538, Control_c, 0, 64, 31
2, 7557, Control_c, 0, 64, 32
2, 7577, Control_c, 0, 64, 37
2, 7596, Control_c, 0, 64, 42
2, 7614, Control_c, 0, 64, 44
2, 7634, Control_c, 0, 64, 48
2, 7653, Control_c, 0, 64, 53
2, 7672, Control_c, 0, 64, 56
2, 7691, Control_c, 0, 64, 57
2, 7706, Note_on_c, 0, 75, 56
2, 7711, Control_c, 0, 64, 58
2, 7730, Control_c, 0, 64, 59
2, 7865, Control_c, 0, 64, 60
2, 7883, Control_c, 0, 64, 61
2, 7919, Note_on_c, 0, 61, 48
2, 7922, Control_c, 0, 64, 59
2, 7924, Note_on_c, 0, 76, 56
2, 7942, Control_c, 0, 64, 51
2, 7960, Control_c, 0, 64, 39
2, 7980, Control_c, 0, 64, 29
2, 7999, Control_c, 0, 64, 29
2, 8018, Control_c, 0, 64, 41
2, 8037, Control_c, 0, 64, 56
2, 8045, Note_on_c, 0, 75, 0
2, 8057, Control_c, 0, 64, 61
2, 8076, Control_c, 0, 64, 61
2, 8094, Control_c, 0, 64, 62
2, 8114, Control_c, 0, 64, 62
2, 8133, Control_c, 0, 64, 63
2, 8139, Note_on_c, 0, 80, 68
2, 8211, Note_on_c, 0, 76, 0
2, 8227, Note_on_c, 0, 83, 0
2, 8229, Control_c, 0, 64, 62
2, 8248, Control_c, 0, 64, 62
2, 8287, Control_c, 0, 64, 61
2, 8325, Control_c, 0, 64, 61
2, 8345, Control_c, 0, 64, 60
2, 8363, Control_c, 0, 64, 60
2, 8383, Control_c, 0, 64, 59
2, 8390, Note_on_c, 0, 58, 45
2, 8411, Note_on_c, 0, 78, 61
2, 8449, Note_on_c, 0, 68, 0
2, 8452, Note_on_c, 0, 80, 0
2, 8460, Control_c, 0, 64, 60
2, 8479, Control_c, 0, 64, 59
2, 8498, Control_c, 0, 64, 56
2, 8517, Control_c, 0, 64, 50
2, 8531, Note_on_c, 0, 59, 0
2, 8537, Control_c, 0, 64, 45
2, 8556, Control_c, 0, 64, 44
2, 8574, Control_c, 0, 64, 49
2, 8594, Control_c, 0, 64, 54
2, 8613, Control_c, 0, 64, 56
2, 8632, Control_c, 0, 64, 56
2, 8636, Note_on_c, 0, 80, 71
2, 8685, Note_on_c, 0, 61, 0
2, 8748, Control_c, 0, 64, 56
2, 8753, Note_on_c, 0, 78, 0
2, 8805, Control_c, 0, 64, 55
2, 8863, Control_c, 0, 64, 56
2, 8882, Control_c, 0, 64, 57
2, 8884, Note_on_c, 0, 82, 64
2, 8902, Control_c, 0, 64, 54
2, 8910, Note_on_c, 0, 66, 43
2, 8920, Control_c, 0, 64, 46
2, 8940, Control_c, 0, 64, 35
2, 8954, Note_on_c, 0, 80, 0
2, 8959, Control_c, 0, 64, 27
2, 8997, Control_c, 0, 64, 29
2, 9017, Control_c, 0, 64, 32
2, 9036, Control_c, 0, 64, 36
2, 9054, Control_c, 0, 64, 45
2, 9074, Control_c, 0, 64, 55
2, 9093, Control_c, 0, 64, 57
2, 9104, Note_on_c, 0, 73, 52
2, 9112, Control_c, 0, 64, 57
2, 9151, Control_c, 0, 64, 57
2, 9170, Control_c, 0, 64, 59
2, 9228, Control_c, 0, 64, 58
2, 9247, Control_c, 0, 64, 59
2, 9266, Control_c, 0, 64, 60
2, 9285, Control_c, 0, 64, 62
2, 9305, Control_c, 0, 64, 60
2, 9324, Control_c, 0, 64, 53
2, 9342, Note_on_c, 0, 75, 53
2, 9344, Control_c, 0, 64, 39
2, 9344, Note_on_c, 0, 59, 45
2, 9363, Control_c, 0, 64, 29
2, 9382, Control_c, 0, 64, 28
2, 9401, Control_c, 0, 64, 39
2, 9421, Control_c, 0, 64, 56
2, 9440, Control_c, 0, 64, 61
2, 9452, Note_on_c, 0, 58, 0
2, 9459, Control_c, 0, 64, 62
2, 9478, Control_c, 0, 64, 62
2, 9498, Control_c, 0, 64, 63
2, 9517, Control_c, 0, 64, 63
2, 9535, Control_c, 0, 64, 64
2, 9535, Note_on_c, 0, 73, 0
2, 9574, Control_c, 0, 64, 63
2, 9581, Note_on_c, 0, 78, 59
2, 9602, Note_on_c, 0, 75, 0
2, 9612, Control_c, 0, 64, 63
2, 9632, Control_c, 0, 64, 62
2, 9651, Control_c, 0, 64, 62
2, 9670, Control_c, 0, 64, 61
2, 9709, Control_c, 0, 64, 61
2, 9710, Note_on_c, 0, 82, 0
2, 9727, Control_c, 0, 64, 60
2, 9793, Note_on_c, 0, 56, 42
2, 9804, Note_on_c, 0, 76, 55
2, 9825, Note_on_c, 0, 78, 0
2, 9843, Control_c, 0, 64, 61
2, 9862, Control_c, 0, 64, 60
2, 9881, Control_c, 0, 64, 56
2, 9901, Control_c, 0, 64, 47
2, 9920, Control_c, 0, 64, 40
2, 9939, Control_c, 0, 64, 39
2, 9958, Control_c, 0, 64, 45
2, 9978, Control_c, 0, 64, 55
2, 9997, Control_c, 0, 64, 59
2, 10015, Control_c, 0, 64, 60
2, 10026, Note_on_c, 0, 66, 0
2, 10054, Control_c, 0, 64, 60
2, 10063, Note_on_c, 0, 78, 68
2, 10131, Control_c, 0, 64, 61
2, 10131, Note_on_c, 0, 76, 0
2, 10247, Control_c, 0, 64, 61
2, 10267, Control_c, 0, 64, 62
2, 10305, Control_c, 0, 64, 59
2, 10310, Note_on_c, 0, 80, 58
2, 10317, Note_on_c, 0, 64, 54
2, 10324, Control_c, 0, 64, 51
2, 10343, Control_c, 0, 64, 41
2, 10362, Control_c, 0, 64, 31
2, 10379, Note_on_c, 0, 78, 0
2, 10382, Note_on_c, 0, 59, 0
2, 10401, Control_c, 0, 64, 39
2, 10420, Control_c, 0, 64, 53
2, 10439, Control_c, 0, 64, 60
2, 10459, Control_c, 0, 64, 62
2, 10497, Control_c, 0, 64, 62
2, 10500, Note_on_c, 0, 56, 0
2, 10516, Control_c, 0, 64, 63
2, 10535, Control_c, 0, 64, 63
2, 10553, Note_on_c, 0, 71, 57
2, 10631, Control_c, 0, 64, 63
2, 10650, Control_c, 0, 64, 62
2, 10688, Control_c, 0, 64, 63
2, 10708, Control_c, 0, 64, 63
2, 10747, Control_c, 0, 64, 64
2, 10785, Control_c, 0, 64, 61
2, 10785, Note_on_c, 0, 73, 52
2, 10787, Note_on_c, 0, 52, 52
2, 10804, Control_c, 0, 64, 52
2, 10823, Control_c, 0, 64, 41
2, 10836, Note_on_c, 0, 71, 0
2, 10842, Control_c, 0, 64, 37
2, 10862, Control_c, 0, 64, 38
2, 10881, Control_c, 0, 64, 51
2, 10900, Control_c, 0, 64, 62
2, 10919, Control_c, 0, 64, 63
2, 10939, Control_c, 0, 64, 64
2, 10977, Control_c, 0, 64, 64
2, 10996, Control_c, 0, 64, 65
2, 11000, Note_on_c, 0, 76, 59
2, 11019, Note_on_c, 0, 73, 0
2, 11062, Note_on_c, 0, 80, 0
2, 11169, Control_c, 0, 64, 65
2, 11189, Control_c, 0, 64, 66
2, 11208, Control_c, 0, 64, 65
2, 11225, Note_on_c, 0, 54, 41
2, 11227, Control_c, 0, 64, 63
2, 11231, Note_on_c, 0, 70, 52
2, 11243, Control_c, 0, 64, 53
2, 11263, Control_c, 0, 64, 0
2, 11281, Note_on_c, 0, 52, 0
2, 11290, Note_on_c, 0, 64, 0
2, 11300, Note_on_c, 0, 76, 0
2, 11359, Control_c, 0, 64, 50
2, 11378, Control_c, 0, 64, 63
2, 11397, Control_c, 0, 64, 64
2, 11454, Control_c, 0, 64, 65
2, 11467, Note_on_c, 0, 70, 0
2, 11468, Note_on_c, 0, 71, 63
2, 11531, Control_c, 0, 64, 64
2, 11589, Control_c, 0, 64, 65
2, 11647, Control_c, 0, 64, 65
2, 11666, Control_c, 0, 64, 66
2, 11685, Control_c, 0, 64, 67
2, 11695, Note_on_c, 0, 73, 66
2, 11702, Note_on_c, 0, 56, 46
2, 11704, Note_on_c, 0, 63, 42
2, 11705, Control_c, 0, 64, 66
2, 11722, Note_on_c, 0, 71, 0
2, 11723, Control_c, 0, 64, 57
2, 11741, Note_on_c, 0, 54, 0
2, 11743, Control_c, 0, 64, 30
2, 11762, Control_c, 0, 64, 0
2, 11839, Control_c, 0, 64, 56
2, 11858, Control_c, 0, 64, 65
2, 11897, Control_c, 0, 64, 65
2, 11916, Control_c, 0, 64, 65
2, 11926, Note_on_c, 0, 66, 61
2, 11954, Note_on_c, 0, 73, 0
2, 11973, Control_c, 0, 64, 65
2, 12011, Control_c, 0, 64, 64
2, 12051, Control_c, 0, 64, 64
2, 12147, Control_c, 0, 64, 64
2, 12166, Control_c, 0, 64, 65
2, 12180, Note_on_c, 0, 61, 39
2, 12186, Control_c, 0, 64, 64
2, 12193, Note_on_c, 0, 58, 35
2, 12194, Note_on_c, 0, 56, 0
2, 12197, Note_on_c, 0, 63, 0
2, 12203, Control_c, 0, 64, 59
2, 12204, Note_on_c, 0, 73, 60
2, 12223, Control_c, 0, 64, 36
2, 12242, Control_c, 0, 64, 0
2, 12319, Control_c, 0, 64, 38
2, 12338, Control_c, 0, 64, 56
2, 12357, Control_c, 0, 64, 61
2, 12361, Note_on_c, 0, 66, 0
2, 12377, Control_c, 0, 64, 62
2, 12396, Control_c, 0, 64, 62
2, 12434, Control_c, 0, 64, 62
2, 12461, Note_on_c, 0, 76, 59
2, 12503, Note_on_c, 0, 73, 0
2, 12549, Control_c, 0, 64, 62
2, 12618, Note_on_c, 0, 58, 0
2, 12665, Control_c, 0, 64, 61
2, 12722, Control_c, 0, 64, 62
2, 12725, Note_on_c, 0, 59, 47
2, 12730, Note_on_c, 0, 75, 55
2, 12732, Note_on_c, 0, 76, 0
2, 12742, Control_c, 0, 64, 64
2, 12770, Note_on_c, 0, 61, 0
2, 12780, Control_c, 0, 64, 62
2, 12799, Control_c, 0, 64, 56
2, 12818, Control_c, 0, 64, 47
2, 12837, Control_c, 0, 64, 44
2, 12857, Control_c, 0, 64, 45
2, 12876, Control_c, 0, 64, 51
2, 12894, Control_c, 0, 64, 56
2, 12914, Control_c, 0, 64, 58
2, 12933, Control_c, 0, 64, 60
2, 12952, Control_c, 0, 64, 61
2, 12982, Note_on_c, 0, 61, 47
2, 12982, Note_on_c, 0, 76, 60
2, 12991, Control_c, 0, 64, 61
2, 13001, Note_on_c, 0, 59, 0
2, 13010, Control_c, 0, 64, 62
2, 13042, Note_on_c, 0, 75, 0
2, 13145, Control_c, 0, 64, 61
2, 13183, Control_c, 0, 64, 62
2, 13212, Note_on_c, 0, 61, 0
2, 13215, Note_on_c, 0, 78, 60
2, 13225, Note_on_c, 0, 63, 50
2, 13250, Note_on_c, 0, 76, 0
2, 13260, Control_c, 0, 64, 62
2, 13448, Note_on_c, 0, 75, 62
2, 13453, Note_on_c, 0, 59, 54
2, 13509, Control_c, 0, 64, 61
2, 13527, Note_on_c, 0, 78, 0
2, 13528, Control_c, 0, 64, 61
2, 13536, Note_on_c, 0, 63, 0
2, 13548, Control_c, 0, 64, 60
2, 13567, Control_c, 0, 64, 59
2, 13586, Control_c, 0, 64, 58
2, 13605, Control_c, 0, 64, 57
2, 13625, Control_c, 0, 64, 56
2, 13663, Control_c, 0, 64, 55
2, 13679, Note_on_c, 0, 61, 58
2, 13682, Control_c, 0, 64, 53
2, 13689, Note_on_c, 0, 76, 63
2, 13702, Control_c, 0, 64, 52
2, 13720, Control_c, 0, 64, 51
2, 13740, Control_c, 0, 64, 50
2, 13759, Control_c, 0, 64, 49
2, 13778, Control_c, 0, 64, 48
2, 13780, Note_on_c, 0, 59, 0
2, 13797, Control_c, 0, 64, 48
2, 13816, Control_c, 0, 64, 47
2, 13828, Note_on_c, 0, 75, 0
2, 13836, Control_c, 0, 64, 46
2, 13854, Control_c, 0, 64, 46
2, 13874, Control_c, 0, 64, 43
2, 13893, Control_c, 0, 64, 40
2, 13908, Note_on_c, 0, 64, 62
2, 13910, Note_on_c, 0, 80, 59
2, 13912, Control_c, 0, 64, 37
2, 13934, Control_c, 0, 64, 35
2, 13954, Control_c, 0, 64, 32
2, 13963, Note_on_c, 0, 76, 0
2, 13973, Control_c, 0, 64, 26
2, 13992, Control_c, 0, 64, 0
2, 14035, Note_on_c, 0, 61, 0
2, 14190, Note_on_c, 0, 71, 52
2, 14191, Note_on_c, 0, 68, 58
2, 14225, Note_on_c, 0, 80, 0
2, 14246, Note_on_c, 0, 64, 0
2, 14452, Note_on_c, 0, 70, 55
2, 14479, Note_on_c, 0, 71, 0
2, 14568, Control_c, 0, 64, 27
2, 14587, Control_c, 0, 64, 31
2, 14606, Control_c, 0, 64, 0
2, 14674, Note_on_c, 0, 66, 47
2, 14677, Note_on_c, 0, 71, 46
2, 14688, Note_on_c, 0, 70, 0
2, 14736, Note_on_c, 0, 68, 0
2, 14760, Control_c, 0, 64, 29
2, 14779, Control_c, 0, 64, 46
2, 14799, Control_c, 0, 64, 54
2, 14817, Control_c, 0, 64, 56
2, 14837, Control_c, 0, 64, 56
2, 14856, Control_c, 0, 64, 57
2, 14875, Control_c, 0, 64, 57
2, 14915, Note_on_c, 0, 70, 54
2, 14933, Control_c, 0, 64, 57
2, 14950, Note_on_c, 0, 71, 0
2, 14952, Control_c, 0, 64, 56
2, 15048, Control_c, 0, 64, 57
2, 15067, Control_c, 0, 64, 57
2, 15086, Control_c, 0, 64, 59
2, 15105, Control_c, 0, 64, 60
2, 15125, Control_c, 0, 64, 56
2, 15144, Control_c, 0, 64, 35
2, 15150, Note_on_c, 0, 71, 46
2, 15151, Note_on_c, 0, 66, 0
2, 15163, Control_c, 0, 64, 0
2, 15164, Note_on_c, 0, 64, 40
2, 15164, Note_on_c, 0, 70, 0
2, 15240, Control_c, 0, 64, 44
2, 15259, Control_c, 0, 64, 61
2, 15279, Control_c, 0, 64, 63
2, 15317, Control_c, 0, 64, 64
2, 15336, Control_c, 0, 64, 64
2, 15355, Control_c, 0, 64, 65
2, 15369, Note_on_c, 0, 64, 0
2, 15409, Note_on_c, 0, 73, 51
2, 15418, Note_on_c, 0, 71, 0
2, 15547, Control_c, 0, 64, 64
2, 15585, Control_c, 0, 64, 64
2, 15605, Control_c, 0, 64, 63
2, 15624, Control_c, 0, 64, 63
2, 15647, Note_on_c, 0, 47, 41
2, 15662, Control_c, 0, 64, 63
2, 15673, Note_on_c, 0, 63, 45
2, 15682, Control_c, 0, 64, 64
2, 15720, Control_c, 0, 64, 63
2, 15738, Control_c, 0, 64, 55
2, 15758, Control_c, 0, 64, 39
2, 15776, Control_c, 0, 64, 28
2, 15815, Control_c, 0, 64, 38
2, 15819, Note_on_c, 0, 73, 0
2, 15834, Control_c, 0, 64, 55
2, 15853, Control_c, 0, 64, 61
2, 15892, Control_c, 0, 64, 62
2, 15918, Note_on_c, 0, 49, 52
2, 15918, Note_on_c, 0, 64, 49
2, 15930, Control_c, 0, 64, 62
2, 15985, Note_on_c, 0, 47, 0
2, 15987, Control_c, 0, 64, 62
2, 16026, Control_c, 0, 64, 61
2, 16084, Control_c, 0, 64, 62
2, 16103, Control_c, 0, 64, 62
2, 16112, Note_on_c, 0, 63, 0
2, 16134, Note_on_c, 0, 51, 52
2, 16141, Control_c, 0, 64, 59
2, 16143, Note_on_c, 0, 64, 0
2, 16145, Note_on_c, 0, 71, 58
2, 16152, Note_on_c, 0, 66, 30
2, 16156, Note_on_c, 0, 49, 0
2, 16161, Control_c, 0, 64, 50
2, 16179, Control_c, 0, 64, 36
2, 16199, Control_c, 0, 64, 31
2, 16218, Control_c, 0, 64, 32
2, 16238, Control_c, 0, 64, 42
2, 16256, Control_c, 0, 64, 52
2, 16276, Control_c, 0, 64, 53
2, 16314, Control_c, 0, 64, 55
2, 16333, Control_c, 0, 64, 58
2, 16353, Control_c, 0, 64, 60
2, 16370, Note_on_c, 0, 47, 51
2, 16380, Note_on_c, 0, 63, 55
2, 16391, Note_on_c, 0, 66, 0
2, 16394, Note_on_c, 0, 51, 0
2, 16506, Control_c, 0, 64, 61
2, 16525, Control_c, 0, 64, 61
2, 16613, Note_on_c, 0, 64, 55
2, 16614, Note_on_c, 0, 49, 59
2, 16621, Control_c, 0, 64, 61
2, 16659, Control_c, 0, 64, 60
2, 16696, Note_on_c, 0, 47, 0
2, 16736, Control_c, 0, 64, 61
2, 16744, Note_on_c, 0, 63, 0
2, 16794, Control_c, 0, 64, 60
2, 16813, Control_c, 0, 64, 55
2, 16833, Control_c, 0, 64, 44
2, 16839, Note_on_c, 0, 52, 55
2, 16853, Control_c, 0, 64, 34
2, 16858, Note_on_c, 0, 68, 61
2, 16872, Control_c, 0, 64, 33
2, 16891, Control_c, 0, 64, 39
2, 16900, Note_on_c, 0, 71, 0
2, 16903, Note_on_c, 0, 49, 0
2, 16911, Control_c, 0, 64, 51
2, 16929, Control_c, 0, 64, 55
2, 16948, Control_c, 0, 64, 55
2, 16968, Control_c, 0, 64, 56
2, 16969, Note_on_c, 0, 64, 0
2, 16987, Control_c, 0, 64, 57
2, 17139, Control_c, 0, 64, 57
2, 17159, Control_c, 0, 64, 58
2, 17160, Note_on_c, 0, 61, 43
2, 17161, Note_on_c, 0, 56, 54
2, 17178, Control_c, 0, 64, 59
2, 17213, Note_on_c, 0, 52, 0
2, 17216, Control_c, 0, 64, 55
2, 17236, Control_c, 0, 64, 43
2, 17255, Control_c, 0, 64, 31
2, 17274, Control_c, 0, 64, 30
2, 17275, Note_on_c, 0, 68, 0
2, 17293, Control_c, 0, 64, 37
2, 17313, Control_c, 0, 64, 53
2, 17332, Control_c, 0, 64, 59
2, 17390, Control_c, 0, 64, 60
2, 17409, Control_c, 0, 64, 61
2, 17450, Note_on_c, 0, 71, 59
2, 17466, Control_c, 0, 64, 60
2, 17543, Control_c, 0, 64, 60
2, 17562, Control_c, 0, 64, 60
2, 17581, Control_c, 0, 64, 61
2, 17601, Control_c, 0, 64, 62
2, 17619, Control_c, 0, 64, 62
2, 17658, Control_c, 0, 64, 60
2, 17678, Control_c, 0, 64, 54
2, 17686, Note_on_c, 0, 54, 51
2, 17692, Note_on_c, 0, 70, 68
2, 17696, Control_c, 0, 64, 43
2, 17714, Note_on_c, 0, 71, 0
2, 17716, Control_c, 0, 64, 32
2, 17735, Control_c, 0, 64, 31
2, 17754, Control_c, 0, 64, 39
2, 17773, Control_c, 0, 64, 51
2, 17783, Note_on_c, 0, 56, 0
2, 17793, Control_c, 0, 64, 54
2, 17812, Control_c, 0, 64, 55
2, 17831, Control_c, 0, 64, 56
2, 17850, Control_c, 0, 64, 57
2, 17870, Control_c, 0, 64, 57
2, 17927, Control_c, 0, 64, 57
2, 17932, Note_on_c, 0, 71, 71
2, 17982, Note_on_c, 0, 70, 0
2, 17984, Control_c, 0, 64, 57
2, 18042, Control_c, 0, 64, 58
2, 18061, Control_c, 0, 64, 60
2, 18081, Control_c, 0, 64, 60
2, 18099, Control_c, 0, 64, 58
2, 18119, Control_c, 0, 64, 48
2, 18138, Control_c, 0, 64, 28
2, 18141, Note_on_c, 0, 52, 44
2, 18158, Control_c, 0, 64, 0
2, 18160, Note_on_c, 0, 73, 67
2, 18166, Note_on_c, 0, 54, 0
2, 18196, Control_c, 0, 64, 29
2, 18212, Note_on_c, 0, 71, 0
2, 18215, Control_c, 0, 64, 46
2, 18234, Control_c, 0, 64, 53
2, 18253, Control_c, 0, 64, 56
2, 18273, Control_c, 0, 64, 58
2, 18392, Note_on_c, 0, 70, 69
2, 18445, Control_c, 0, 64, 58
2, 18464, Note_on_c, 0, 73, 0
2, 18503, Control_c, 0, 64, 59
2, 18522, Control_c, 0, 64, 59
2, 18561, Control_c, 0, 64, 60
2, 18599, Control_c, 0, 64, 59
2, 18604, Note_on_c, 0, 52, 0
2, 18618, Control_c, 0, 64, 52
2, 18621, Note_on_c, 0, 51, 42
2, 18638, Control_c, 0, 64, 36
2, 18653, Note_on_c, 0, 66, 56
2, 18656, Control_c, 0, 64, 19
2, 18676, Control_c, 0, 64, 18
2, 18695, Control_c, 0, 64, 33
2, 18699, Note_on_c, 0, 70, 0
2, 18714, Control_c, 0, 64, 53
2, 18733, Control_c, 0, 64, 58
2, 18772, Control_c, 0, 64, 59
2, 18791, Control_c, 0, 64, 60
2, 18810, Control_c, 0, 64, 62
2, 18880, Note_on_c, 0, 52, 47
2, 18897, Note_on_c, 0, 51, 0
2, 18906, Control_c, 0, 64, 61
2, 18945, Control_c, 0, 64, 61
2, 19004, Note_on_c, 0, 61, 0
2, 19042, Control_c, 0, 64, 61
2, 19099, Control_c, 0, 64, 60
2, 19119, Control_c, 0, 64, 53
2, 19124, Note_on_c, 0, 52, 0
2, 19130, Note_on_c, 0, 54, 50
2, 19137, Control_c, 0, 64, 35
2, 19146, Note_on_c, 0, 59, 57
2, 19157, Control_c, 0, 64, 0
2, 19214, Control_c, 0, 64, 17
2, 19234, Control_c, 0, 64, 34
2, 19253, Control_c, 0, 64, 42
2, 19272, Control_c, 0, 64, 50
2, 19291, Control_c, 0, 64, 57
2, 19311, Control_c, 0, 64, 60
2, 19329, Control_c, 0, 64, 60
2, 19352, Note_on_c, 0, 57, 62
2, 19357, Note_on_c, 0, 51, 56
2, 19358, Note_on_c, 0, 54, 0
2, 19371, Note_on_c, 0, 59, 0
2, 19387, Control_c, 0, 64, 61
2, 19406, Control_c, 0, 64, 63
2, 19445, Control_c, 0, 64, 56
2, 19463, Control_c, 0, 64, 36
2, 19483, Control_c, 0, 64, 0
2, 19550, Note_on_c, 0, 57, 0
2, 19579, Control_c, 0, 64, 17
2, 19587, Note_on_c, 0, 53, 57
2, 19599, Control_c, 0, 64, 36
2, 19602, Note_on_c, 0, 61, 64
2, 19617, Control_c, 0, 64, 50
2, 19634, Note_on_c, 0, 51, 0
2, 19637, Control_c, 0, 64, 58
2, 19656, Control_c, 0, 64, 57
2, 19675, Control_c, 0, 64, 49
2, 19694, Control_c, 0, 64, 21
2, 19714, Control_c, 0, 64, 0
2, 19773, Control_c, 0, 64, 25
2, 19793, Control_c, 0, 64, 51
2, 19811, Control_c, 0, 64, 58
2, 19815, Note_on_c, 0, 59, 66
2, 19824, Note_on_c, 0, 56, 66
2, 19831, Control_c, 0, 64, 59
2, 19843, Note_on_c, 0, 61, 0
2, 19850, Control_c, 0, 64, 60
2, 19868, Control_c, 0, 64, 60
2, 19878, Note_on_c, 0, 53, 0
2, 19959, Note_on_c, 0, 59, 0
2, 19983, Control_c, 0, 64, 60
2, 20003, Control_c, 0, 64, 60
2, 20021, Control_c, 0, 64, 61
2, 20041, Control_c, 0, 64, 62
2, 20060, Control_c, 0, 64, 63
2, 20077, Note_on_c, 0, 62, 52
2, 20079, Control_c, 0, 64, 64
2, 20090, Note_on_c, 0, 59, 63
2, 20098, Control_c, 0, 64, 64
2, 20117, Note_on_c, 0, 56, 0
2, 20118, Control_c, 0, 64, 56
2, 20137, Control_c, 0, 64, 27
2, 20139, Note_on_c, 0, 66, 0
2, 20156, Control_c, 0, 64, 0
2, 20214, Control_c, 0, 64, 23
2, 20233, Control_c, 0, 64, 55
2, 20252, Control_c, 0, 64, 61
2, 20290, Control_c, 0, 64, 62
2, 20310, Control_c, 0, 64, 63
2, 20329, Control_c, 0, 64, 63
2, 20339, Note_on_c, 0, 65, 60
2, 20341, Note_on_c, 0, 62, 0
2, 20370, Control_c, 0, 64, 63
2, 20389, Control_c, 0, 64, 62
2, 20409, Control_c, 0, 64, 62
2, 20447, Control_c, 0, 64, 61
2, 20466, Control_c, 0, 64, 62
2, 20504, Control_c, 0, 64, 62
2, 20524, Control_c, 0, 64, 63
2, 20543, Control_c, 0, 64, 63
2, 20562, Control_c, 0, 64, 60
2, 20576, Note_on_c, 0, 66, 64
2, 20578, Note_on_c, 0, 57, 50
2, 20580, Note_on_c, 0, 65, 0
2, 20581, Control_c, 0, 64, 48
2, 20595, Note_on_c, 0, 61, 49
2, 20600, Control_c, 0, 64, 35
2, 20620, Control_c, 0, 64, 31
2, 20638, Control_c, 0, 64, 33
2, 20658, Control_c, 0, 64, 43
2, 20677, Control_c, 0, 64, 52
2, 20697, Control_c, 0, 64, 56
2, 20715, Control_c, 0, 64, 59
2, 20735, Control_c, 0, 64, 59
2, 20812, Control_c, 0, 64, 59
2, 20815, Note_on_c, 0, 59, 0
2, 20815, Note_on_c, 0, 65, 60
2, 20848, Control_c, 0, 64, 58
2, 20850, Note_on_c, 0, 66, 0
2, 20944, Control_c, 0, 64, 59
2, 20964, Control_c, 0, 64, 59
2, 20982, Control_c, 0, 64, 60
2, 21002, Control_c, 0, 64, 60
2, 21021, Control_c, 0, 64, 59
2, 21040, Control_c, 0, 64, 51
2, 21051, Note_on_c, 0, 59, 47
2, 21059, Control_c, 0, 64, 30
2, 21060, Note_on_c, 0, 57, 0
2, 21061, Note_on_c, 0, 66, 59
2, 21078, Control_c, 0, 64, 0
2, 21087, Note_on_c, 0, 65, 0
2, 21092, Note_on_c, 0, 56, 39
2, 21136, Control_c, 0, 64, 23
2, 21145, Note_on_c, 0, 61, 0
2, 21155, Control_c, 0, 64, 43
2, 21175, Control_c, 0, 64, 52
2, 21193, Control_c, 0, 64, 57
2, 21213, Control_c, 0, 64, 58
2, 21252, Control_c, 0, 64, 58
2, 21312, Note_on_c, 0, 68, 56
2, 21333, Note_on_c, 0, 66, 0
2, 21347, Control_c, 0, 64, 57
2, 21386, Control_c, 0, 64, 57
2, 21424, Control_c, 0, 64, 56
2, 21444, Control_c, 0, 64, 56
2, 21462, Control_c, 0, 64, 55
2, 21516, Note_on_c, 0, 54, 37
2, 21520, Control_c, 0, 64, 56
2, 21539, Control_c, 0, 64, 56
2, 21558, Control_c, 0, 64, 57
2, 21596, Control_c, 0, 64, 53
2, 21605, Note_on_c, 0, 61, 50
2, 21612, Note_on_c, 0, 68, 0
2, 21616, Control_c, 0, 64, 41
2, 21617, Note_on_c, 0, 56, 0
2, 21635, Control_c, 0, 64, 18
2, 21655, Control_c, 0, 64, 0
2, 21667, Note_on_c, 0, 59, 0
2, 21692, Control_c, 0, 64, 21
2, 21711, Control_c, 0, 64, 30
2, 21731, Control_c, 0, 64, 37
2, 21749, Control_c, 0, 64, 46
2, 21769, Control_c, 0, 64, 51
2, 21788, Control_c, 0, 64, 51
2, 21842, Note_on_c, 0, 63, 51
2, 21942, Control_c, 0, 64, 52
2, 21960, Control_c, 0, 64, 53
2, 21980, Control_c, 0, 64, 54
2, 21986, Note_on_c, 0, 61, 0
2, 21999, Control_c, 0, 64, 56
2, 22018, Control_c, 0, 64, 57
2, 22037, Control_c, 0, 64, 58
2, 22057, Control_c, 0, 64, 56
2, 22066, Note_on_c, 0, 57, 42
2, 22070, Note_on_c, 0, 63, 0
2, 22070, Note_on_c, 0, 64, 56
2, 22076, Control_c, 0, 64, 43
2, 22095, Control_c, 0, 64, 0
2, 22153, Note_on_c, 0, 54, 0
2, 22191, Control_c, 0, 64, 15
2, 22211, Control_c, 0, 64, 33
2, 22229, Control_c, 0, 64, 48
2, 22249, Control_c, 0, 64, 55
2, 22268, Control_c, 0, 64, 55
2, 22296, Note_on_c, 0, 56, 55
2, 22299, Note_on_c, 0, 61, 62
2, 22307, Note_on_c, 0, 64, 0
2, 22326, Control_c, 0, 64, 56
2, 22345, Control_c, 0, 64, 56
2, 22358, Note_on_c, 0, 57, 0
2, 22422, Control_c, 0, 64, 57
2, 22460, Control_c, 0, 64, 57
2, 22479, Control_c, 0, 64, 58
2, 22492, Note_on_c, 0, 56, 0
2, 22498, Control_c, 0, 64, 60
2, 22517, Control_c, 0, 64, 61
2, 22524, Note_on_c, 0, 63, 66
2, 22536, Note_on_c, 0, 57, 50
2, 22537, Control_c, 0, 64, 62
2, 22556, Control_c, 0, 64, 61
2, 22575, Control_c, 0, 64, 53
2, 22594, Control_c, 0, 64, 29
2, 22614, Control_c, 0, 64, 0
2, 22684, Note_on_c, 0, 61, 0
2, 22691, Control_c, 0, 64, 13
2, 22709, Control_c, 0, 64, 24
2, 22729, Control_c, 0, 64, 39
2, 22733, Note_on_c, 0, 57, 0
2, 22748, Control_c, 0, 64, 49
2, 22751, Note_on_c, 0, 66, 68
2, 22754, Note_on_c, 0, 54, 50
2, 22767, Control_c, 0, 64, 53
2, 22786, Control_c, 0, 64, 53
2, 22825, Control_c, 0, 64, 54
2, 22844, Control_c, 0, 64, 55
2, 22857, Note_on_c, 0, 63, 0
2, 22863, Control_c, 0, 64, 56
2, 22940, Control_c, 0, 64, 57
2, 22959, Control_c, 0, 64, 59
2, 22978, Control_c, 0, 64, 59
2, 22997, Control_c, 0, 64, 60
2, 23003, Note_on_c, 0, 54, 0
2, 23015, Note_on_c, 0, 69, 69
2, 23017, Control_c, 0, 64, 61
2, 23036, Control_c, 0, 64, 61
2, 23036, Note_on_c, 0, 60, 44
2, 23055, Control_c, 0, 64, 62
2, 23074, Control_c, 0, 64, 63
2, 23111, Note_on_c, 0, 66, 0
2, 23132, Control_c, 0, 64, 62
2, 23151, Control_c, 0, 64, 57
2, 23171, Control_c, 0, 64, 50
2, 23189, Control_c, 0, 64, 46
2, 23209, Control_c, 0, 64, 47
2, 23228, Control_c, 0, 64, 52
2, 23247, Control_c, 0, 64, 58
2, 23253, Note_on_c, 0, 60, 0
2, 23266, Control_c, 0, 64, 59
2, 23270, Note_on_c, 0, 54, 51
2, 23286, Control_c, 0, 64, 60
2, 23305, Control_c, 0, 64, 60
2, 23324, Control_c, 0, 64, 61
2, 23343, Control_c, 0, 64, 61
2, 23363, Control_c, 0, 64, 62
2, 23420, Control_c, 0, 64, 62
2, 23439, Control_c, 0, 64, 63
2, 23458, Control_c, 0, 64, 64
2, 23477, Control_c, 0, 64, 64
2, 23483, Note_on_c, 0, 68, 66
2, 23490, Note_on_c, 0, 52, 53
2, 23516, Control_c, 0, 64, 63
2, 23518, Note_on_c, 0, 61, 43
2, 23535, Control_c, 0, 64, 59
2, 23554, Control_c, 0, 64, 45
2, 23574, Control_c, 0, 64, 33
2, 23577, Note_on_c, 0, 54, 0
2, 23593, Control_c, 0, 64, 30
2, 23613, Control_c, 0, 64, 31
2, 23632, Control_c, 0, 64, 38
2, 23652, Control_c, 0, 64, 49
2, 23670, Control_c, 0, 64, 58
2, 23672, Note_on_c, 0, 69, 0
2, 23690, Control_c, 0, 64, 61
2, 23728, Note_on_c, 0, 51, 56
2, 23747, Control_c, 0, 64, 62
2, 23766, Note_on_c, 0, 52, 0
2, 23767, Control_c, 0, 64, 62
2, 23805, Control_c, 0, 64, 62
2, 23901, Control_c, 0, 64, 62
2, 23920, Control_c, 0, 64, 63
2, 23939, Control_c, 0, 64, 64
2, 23956, Note_on_c, 0, 66, 66
2, 23958, Control_c, 0, 64, 64
2, 23966, Note_on_c, 0, 49, 49
2, 23973, Note_on_c, 0, 51, 0
2, 23976, Note_on_c, 0, 63, 56
2, 23978, Control_c, 0, 64, 63
2, 23996, Control_c, 0, 64, 54
2, 24016, Control_c, 0, 64, 30
2, 24035, Control_c, 0, 64, 0
2, 24092, Note_on_c, 0, 68, 0
2, 24093, Control_c, 0, 64, 29
2, 24112, Control_c, 0, 64, 63
2, 24132, Control_c, 0, 64, 68
2, 24150, Control_c, 0, 64, 68
2, 24151, Note_on_c, 0, 61, 0
2, 24189, Control_c, 0, 64, 70
2, 24198, Note_on_c, 0, 48, 59
2, 24208, Control_c, 0, 64, 73
2, 24227, Control_c, 0, 64, 77
2, 24247, Control_c, 0, 64, 79
2, 24256, Note_on_c, 0, 49, 0
2, 24260, Note_on_c, 0, 48, 0
2, 24266, Control_c, 0, 64, 79
2, 24285, Control_c, 0, 64, 78
2, 24304, Control_c, 0, 64, 78
2, 24324, Control_c, 0, 64, 77
2, 24342, Control_c, 0, 64, 77
2, 24348, Note_on_c, 0, 63, 0
2, 24362, Control_c, 0, 64, 76
2, 24381, Control_c, 0, 64, 76
2, 24419, Control_c, 0, 64, 75
2, 24438, Control_c, 0, 64, 74
2, 24451, Note_on_c, 0, 64, 60
2, 24458, Control_c, 0, 64, 72
2, 24476, Control_c, 0, 64, 68
2, 24479, Note_on_c, 0, 56, 56
2, 24482, Note_on_c, 0, 49, 50
2, 24496, Control_c, 0, 64, 64
2, 24515, Control_c, 0, 64, 60
2, 24535, Control_c, 0, 64, 56
2, 24553, Control_c, 0, 64, 47
2, 24571, Note_on_c, 0, 66, 0
2, 24573, Control_c, 0, 64, 26
2, 24592, Control_c, 0, 64, 0
2, 24706, Note_on_c, 0, 58, 63
2, 24737, Note_on_c, 0, 56, 0
2, 24745, Control_c, 0, 64, 15
2, 24764, Control_c, 0, 64, 38
2, 24783, Control_c, 0, 64, 46
2, 24803, Control_c, 0, 64, 49
2, 24822, Control_c, 0, 64, 51
2, 24840, Control_c, 0, 64, 54
2, 24860, Control_c, 0, 64, 56
2, 24917, Control_c, 0, 64, 56
2, 24935, Note_on_c, 0, 59, 68
2, 24937, Control_c, 0, 64, 57
2, 24956, Control_c, 0, 64, 57
2, 24975, Control_c, 0, 64, 58
2, 24978, Note_on_c, 0, 58, 0
2, 25148, Control_c, 0, 64, 57
2, 25158, Note_on_c, 0, 56, 66
2, 25225, Control_c, 0, 64, 57
2, 25244, Control_c, 0, 64, 56
2, 25257, Note_on_c, 0, 59, 0
2, 25283, Control_c, 0, 64, 56
2, 25320, Control_c, 0, 64, 56
2, 25340, Control_c, 0, 64, 57
2, 25359, Control_c, 0, 64, 55
2, 25378, Control_c, 0, 64, 35
2, 25397, Control_c, 0, 64, 0
2, 25413, Note_on_c, 0, 58, 56
2, 25413, Note_on_c, 0, 73, 70
2, 25417, Note_on_c, 0, 56, 0
2, 25473, Note_on_c, 0, 64, 0
2, 25494, Control_c, 0, 64, 52
2, 25512, Control_c, 0, 64, 63
2, 25532, Control_c, 0, 64, 63
2, 25551, Control_c, 0, 64, 64
2, 25571, Control_c, 0, 64, 64
2, 25587, Control_c, 0, 64, 66
2, 25601, Note_on_c, 0, 58, 0
2, 25607, Control_c, 0, 64, 67
2, 25626, Control_c, 0, 64, 68
2, 25629, Note_on_c, 0, 49, 0
2, 25645, Control_c, 0, 64, 69
2, 25690, Note_on_c, 0, 61, 64
2, 25780, Control_c, 0, 64, 68
2, 25805, Note_on_c, 0, 73, 0
2, 25837, Control_c, 0, 64, 68
2, 25897, Note_on_c, 0, 43, 49
2, 25914, Control_c, 0, 64, 65
2, 25933, Control_c, 0, 64, 56
2, 25952, Control_c, 0, 64, 15
2, 25972, Control_c, 0, 64, 0
2, 26006, Note_on_c, 0, 70, 65
2, 26013, Note_on_c, 0, 64, 56
2, 26029, Control_c, 0, 64, 36
2, 26049, Control_c, 0, 64, 59
2, 26067, Control_c, 0, 64, 64
2, 26087, Control_c, 0, 64, 65
2, 26095, Note_on_c, 0, 61, 0
2, 26140, Note_on_c, 0, 43, 0
2, 26144, Control_c, 0, 64, 66
2, 26164, Control_c, 0, 64, 66
2, 26183, Control_c, 0, 64, 67
2, 26240, Control_c, 0, 64, 66
2, 26278, Control_c, 0, 64, 66
2, 26318, Note_on_c, 0, 61, 39
2, 26355, Control_c, 0, 64, 65
2, 26471, Control_c, 0, 64, 66
2, 26510, Control_c, 0, 64, 65
2, 26530, Control_c, 0, 64, 62
2, 26540, Note_on_c, 0, 63, 59
2, 26541, Note_on_c, 0, 61, 0
2, 26548, Control_c, 0, 64, 51
2, 26554, Note_on_c, 0, 59, 49
2, 26568, Control_c, 0, 64, 38
2, 26587, Control_c, 0, 64, 36
2, 26592, Note_on_c, 0, 64, 0
2, 26606, Control_c, 0, 64, 42
2, 26625, Control_c, 0, 64, 58
2, 26645, Control_c, 0, 64, 64
2, 26664, Control_c, 0, 64, 67
2, 26683, Control_c, 0, 64, 69
2, 26702, Control_c, 0, 64, 71
2, 26721, Control_c, 0, 64, 74
2, 26740, Control_c, 0, 64, 77
2, 26759, Control_c, 0, 64, 79
2, 26775, Note_on_c, 0, 58, 49
2, 26779, Note_on_c, 0, 59, 0
2, 26834, Note_on_c, 0, 63, 0
2, 26836, Control_c, 0, 64, 78
2, 26856, Control_c, 0, 64, 78
2, 26894, Control_c, 0, 64, 77
2, 26951, Control_c, 0, 64, 78
2, 26971, Control_c, 0, 64, 78
2, 26990, Control_c, 0, 64, 78
2, 27010, Control_c, 0, 64, 73
2, 27013, Note_on_c, 0, 61, 54
2, 27016, Note_on_c, 0, 56, 50
2, 27028, Control_c, 0, 64, 64
2, 27041, Note_on_c, 0, 58, 0
2, 27048, Control_c, 0, 64, 50
2, 27067, Control_c, 0, 64, 44
2, 27086, Control_c, 0, 64, 46
2, 27105, Control_c, 0, 64, 56
2, 27125, Control_c, 0, 64, 64
2, 27144, Control_c, 0, 64, 68
2, 27163, Control_c, 0, 64, 71
2, 27182, Control_c, 0, 64, 74
2, 27201, Control_c, 0, 64, 76
2, 27220, Control_c, 0, 64, 78
2, 27239, Control_c, 0, 64, 78
2, 27243, Note_on_c, 0, 56, 0
2, 27253, Note_on_c, 0, 55, 42
2, 27278, Control_c, 0, 64, 78
2, 27297, Control_c, 0, 64, 77
2, 27336, Control_c, 0, 64, 77
2, 27354, Control_c, 0, 64, 76
2, 27374, Control_c, 0, 64, 76
2, 27393, Control_c, 0, 64, 75
2, 27397, Note_on_c, 0, 61, 0
2, 27413, Control_c, 0, 64, 74
2, 27431, Control_c, 0, 64, 73
2, 27451, Control_c, 0, 64, 71
2, 27470, Control_c, 0, 64, 69
2, 27490, Control_c, 0, 64, 68
2, 27508, Control_c, 0, 64, 67
2, 27525, Note_on_c, 0, 59, 50
2, 27554, Note_on_c, 0, 56, 38
2, 27565, Note_on_c, 0, 55, 0
2, 27582, Control_c, 0, 64, 67
2, 27601, Control_c, 0, 64, 64
2, 27621, Control_c, 0, 64, 58
2, 27639, Control_c, 0, 64, 50
2, 27659, Control_c, 0, 64, 47
2, 27678, Control_c, 0, 64, 48
2, 27698, Control_c, 0, 64, 52
2, 27716, Control_c, 0, 64, 55
2, 27736, Control_c, 0, 64, 57
2, 27755, Control_c, 0, 64, 59
2, 27773, Note_on_c, 0, 68, 52
2, 27775, Control_c, 0, 64, 61
2, 27793, Control_c, 0, 64, 61
2, 27813, Control_c, 0, 64, 62
2, 27845, Note_on_c, 0, 70, 0
2, 27890, Control_c, 0, 64, 61
2, 27928, Control_c, 0, 64, 61
2, 27975, Note_on_c, 0, 68, 0
2, 27981, Note_on_c, 0, 67, 54
2, 28024, Control_c, 0, 64, 61
2, 28081, Control_c, 0, 64, 61
2, 28178, Control_c, 0, 64, 61
2, 28212, Note_on_c, 0, 67, 0
2, 28216, Control_c, 0, 64, 62
2, 28217, Note_on_c, 0, 70, 63
2, 28431, Control_c, 0, 64, 62
2, 28461, Note_on_c, 0, 68, 57
2, 28508, Control_c, 0, 64, 63
2, 28525, Control_c, 0, 64, 63
2, 28544, Control_c, 0, 64, 64
2, 28564, Control_c, 0, 64, 62
2, 28583, Control_c, 0, 64, 58
2, 28601, Control_c, 0, 64, 54
2, 28621, Control_c, 0, 64, 53
2, 28640, Control_c, 0, 64, 55
2, 28660, Control_c, 0, 64, 60
2, 28678, Control_c, 0, 64, 64
2, 28695, Note_on_c, 0, 65, 54
2, 28696, Note_on_c, 0, 59, 0
2, 28698, Control_c, 0, 64, 65
2, 28717, Control_c, 0, 64, 65
2, 28725, Note_on_c, 0, 70, 0
2, 28755, Control_c, 0, 64, 65
2, 28813, Note_on_c, 0, 68, 0
2, 28832, Control_c, 0, 64, 64
2, 28869, Note_on_c, 0, 56, 0
2, 28909, Control_c, 0, 64, 64
2, 28975, Note_on_c, 0, 62, 49
2, 28996, Note_on_c, 0, 58, 36
2, 29024, Control_c, 0, 64, 64
2, 29063, Control_c, 0, 64, 64
2, 29081, Control_c, 0, 64, 62
2, 29091, Note_on_c, 0, 65, 0
2, 29101, Control_c, 0, 64, 58
2, 29120, Control_c, 0, 64, 57
2, 29140, Control_c, 0, 64, 58
2, 29158, Control_c, 0, 64, 61
2, 29178, Control_c, 0, 64, 63
2, 29197, Control_c, 0, 64, 63
2, 29218, Note_on_c, 0, 56, 55
2, 29235, Control_c, 0, 64, 64
2, 29332, Control_c, 0, 64, 63
2, 29427, Control_c, 0, 64, 64
2, 29434, Note_on_c, 0, 63, 57
2, 29455, Note_on_c, 0, 54, 53
2, 29466, Control_c, 0, 64, 65
2, 29485, Control_c, 0, 64, 65
2, 29524, Control_c, 0, 64, 64
2, 29543, Control_c, 0, 64, 58
2, 29550, Note_on_c, 0, 62, 0
2, 29561, Control_c, 0, 64, 48
2, 29577, Note_on_c, 0, 56, 0
2, 29581, Control_c, 0, 64, 42
2, 29620, Control_c, 0, 64, 48
2, 29638, Control_c, 0, 64, 56
2, 29658, Control_c, 0, 64, 57
2, 29664, Note_on_c, 0, 53, 57
2, 29677, Control_c, 0, 64, 58
2, 29696, Control_c, 0, 64, 59
2, 29715, Control_c, 0, 64, 60
2, 29735, Control_c, 0, 64, 61
2, 29754, Control_c, 0, 64, 62
2, 29761, Note_on_c, 0, 54, 0
2, 29792, Control_c, 0, 64, 62
2, 29830, Control_c, 0, 64, 61
2, 29850, Control_c, 0, 64, 58
2, 29869, Control_c, 0, 64, 53
2, 29889, Control_c, 0, 64, 47
2, 29903, Note_on_c, 0, 65, 58
2, 29907, Control_c, 0, 64, 48
2, 29927, Control_c, 0, 64, 54
2, 29928, Note_on_c, 0, 51, 51
2, 29946, Control_c, 0, 64, 60
2, 29965, Control_c, 0, 64, 62
2, 30004, Note_on_c, 0, 53, 0
2, 30016, Note_on_c, 0, 63, 0
2, 30023, Control_c, 0, 64, 62
2, 30041, Control_c, 0, 64, 63
2, 30080, Control_c, 0, 64, 64
2, 30138, Control_c, 0, 64, 63
2, 30148, Note_on_c, 0, 50, 54
2, 30179, Note_on_c, 0, 51, 0
2, 30195, Control_c, 0, 64, 63
2, 30292, Control_c, 0, 64, 62
2, 30310, Control_c, 0, 64, 62
2, 30330, Control_c, 0, 64, 61
2, 30349, Control_c, 0, 64, 60
2, 30369, Control_c, 0, 64, 58
2, 30387, Control_c, 0, 64, 56
2, 30387, Note_on_c, 0, 66, 58
2, 30401, Note_on_c, 0, 51, 39
2, 30407, Control_c, 0, 64, 54
2, 30426, Control_c, 0, 64, 51
2, 30445, Control_c, 0, 64, 51
2, 30472, Note_on_c, 0, 65, 0
2, 30475, Note_on_c, 0, 50, 0
2, 30484, Control_c, 0, 64, 51
2, 30503, Control_c, 0, 64, 52
2, 30521, Control_c, 0, 64, 53
2, 30541, Control_c, 0, 64, 55
2, 30560, Control_c, 0, 64, 57
2, 30580, Control_c, 0, 64, 59
2, 30598, Control_c, 0, 64, 59
2, 30618, Control_c, 0, 64, 60
2, 30637, Control_c, 0, 64, 62
2, 30639, Note_on_c, 0, 53, 52
2, 30656, Control_c, 0, 64, 62
2, 30656, Note_on_c, 0, 51, 0
2, 30675, Control_c, 0, 64, 63
2, 30790, Control_c, 0, 64, 62
2, 30849, Control_c, 0, 64, 63
2, 30873, Note_on_c, 0, 53, 0
2, 30877, Note_on_c, 0, 63, 55
2, 30890, Note_on_c, 0, 54, 50
2, 31072, Note_on_c, 0, 58, 0
2, 31113, Note_on_c, 0, 46, 56
2, 31155, Control_c, 0, 64, 62
2, 31178, Note_on_c, 0, 54, 0
2, 31194, Control_c, 0, 64, 63
2, 31272, Control_c, 0, 64, 62
2, 31292, Control_c, 0, 64, 61
2, 31311, Control_c, 0, 64, 58
2, 31330, Control_c, 0, 64, 54
2, 31345, Note_on_c, 0, 56, 60
2, 31349, Control_c, 0, 64, 51
2, 31358, Note_on_c, 0, 47, 51
2, 31369, Control_c, 0, 64, 52
2, 31388, Control_c, 0, 64, 55
2, 31405, Control_c, 0, 64, 57
2, 31424, Control_c, 0, 64, 59
2, 31444, Control_c, 0, 64, 61
2, 31463, Control_c, 0, 64, 62
2, 31481, Control_c, 0, 64, 62
2, 31520, Control_c, 0, 64, 63
2, 31525, Note_on_c, 0, 46, 0
2, 31527, Note_on_c, 0, 66, 0
2, 31540, Control_c, 0, 64, 63
2, 31583, Note_on_c, 0, 51, 51
2, 31597, Control_c, 0, 64, 63
2, 31646, Note_on_c, 0, 47, 0
2, 31750, Control_c, 0, 64, 62
2, 31770, Control_c, 0, 64, 61
2, 31789, Control_c, 0, 64, 60
2, 31809, Control_c, 0, 64, 56
2, 31815, Note_on_c, 0, 65, 50
2, 31827, Control_c, 0, 64, 53
2, 31847, Control_c, 0, 64, 51
2, 31852, Note_on_c, 0, 49, 55
2, 31866, Control_c, 0, 64, 52
2, 31885, Control_c, 0, 64, 54
2, 31888, Note_on_c, 0, 51, 0
2, 31904, Control_c, 0, 64, 57
2, 31924, Control_c, 0, 64, 59
2, 31927, Note_on_c, 0, 63, 0
2, 31943, Control_c, 0, 64, 60
2, 31961, Control_c, 0, 64, 60
2, 31981, Control_c, 0, 64, 61
2, 32000, Control_c, 0, 64, 62
2, 32020, Control_c, 0, 64, 62
2, 32087, Note_on_c, 0, 51, 51
2, 32129, Note_on_c, 0, 49, 0
2, 32250, Control_c, 0, 64, 62
2, 32269, Control_c, 0, 64, 61
2, 32289, Control_c, 0, 64, 60
2, 32303, Note_on_c, 0, 51, 0
2, 32303, Note_on_c, 0, 61, 58
2, 32307, Control_c, 0, 64, 57
2, 32327, Control_c, 0, 64, 54
2, 32328, Note_on_c, 0, 53, 51
2, 32346, Control_c, 0, 64, 53
2, 32366, Control_c, 0, 64, 54
2, 32385, Control_c, 0, 64, 57
2, 32405, Control_c, 0, 64, 59
2, 32424, Control_c, 0, 64, 59
2, 32442, Control_c, 0, 64, 60
2, 32462, Control_c, 0, 64, 61
2, 32481, Control_c, 0, 64, 61
2, 32485, Note_on_c, 0, 56, 0
2, 32500, Control_c, 0, 64, 62
2, 32533, Note_on_c, 0, 44, 51
2, 32632, Note_on_c, 0, 53, 0
2, 32693, Control_c, 0, 64, 61
2, 32711, Control_c, 0, 64, 61
2, 32731, Control_c, 0, 64, 58
2, 32750, Control_c, 0, 64, 55
2, 32769, Note_on_c, 0, 46, 54
2, 32770, Control_c, 0, 64, 50
2, 32778, Note_on_c, 0, 54, 58
2, 32788, Control_c, 0, 64, 48
2, 32808, Control_c, 0, 64, 49
2, 32827, Control_c, 0, 64, 52
2, 32846, Control_c, 0, 64, 54
2, 32865, Control_c, 0, 64, 54
2, 32885, Control_c, 0, 64, 55
2, 32904, Control_c, 0, 64, 59
2, 32907, Note_on_c, 0, 44, 0
2, 32922, Control_c, 0, 64, 61
2, 32961, Note_on_c, 0, 61, 0
2, 32999, Control_c, 0, 64, 61
2, 33004, Note_on_c, 0, 49, 63
2, 33070, Note_on_c, 0, 46, 0
2, 33173, Control_c, 0, 64, 62
2, 33191, Control_c, 0, 64, 62
2, 33211, Control_c, 0, 64, 63
2, 33250, Control_c, 0, 64, 61
2, 33252, Note_on_c, 0, 63, 62
2, 33268, Control_c, 0, 64, 55
2, 33272, Note_on_c, 0, 47, 54
2, 33286, Note_on_c, 0, 49, 0
2, 33288, Control_c, 0, 64, 48
2, 33307, Control_c, 0, 64, 48
2, 33325, Control_c, 0, 64, 54
2, 33344, Control_c, 0, 64, 61
2, 33364, Control_c, 0, 64, 62
2, 33385, Note_on_c, 0, 65, 0
2, 33401, Control_c, 0, 64, 62
2, 33408, Note_on_c, 0, 54, 0
2, 33421, Control_c, 0, 64, 63
2, 33440, Control_c, 0, 64, 64
2, 33511, Note_on_c, 0, 49, 58
2, 33517, Control_c, 0, 64, 65
2, 33549, Note_on_c, 0, 47, 0
2, 33555, Control_c, 0, 64, 64
2, 33613, Control_c, 0, 64, 65
2, 33652, Control_c, 0, 64, 65
2, 33670, Control_c, 0, 64, 65
2, 33690, Control_c, 0, 64, 64
2, 33709, Control_c, 0, 64, 60
2, 33729, Control_c, 0, 64, 55
2, 33739, Note_on_c, 0, 59, 62
2, 33747, Control_c, 0, 64, 53
2, 33747, Note_on_c, 0, 51, 53
2, 33767, Control_c, 0, 64, 55
2, 33776, Note_on_c, 0, 49, 0
2, 33786, Control_c, 0, 64, 60
2, 33797, Note_on_c, 0, 63, 0
2, 33805, Control_c, 0, 64, 61
2, 33824, Control_c, 0, 64, 61
2, 33844, Control_c, 0, 64, 61
2, 33863, Control_c, 0, 64, 62
2, 33881, Control_c, 0, 64, 63
2, 33920, Control_c, 0, 64, 64
2, 33940, Control_c, 0, 64, 64
2, 33958, Control_c, 0, 64, 65
2, 33969, Note_on_c, 0, 63, 59
2, 33978, Control_c, 0, 64, 65
2, 33982, Note_on_c, 0, 42, 57
2, 33997, Control_c, 0, 64, 60
2, 34016, Control_c, 0, 64, 51
2, 34035, Control_c, 0, 64, 46
2, 34074, Control_c, 0, 64, 51
2, 34093, Control_c, 0, 64, 56
2, 34112, Control_c, 0, 64, 57
2, 34132, Control_c, 0, 64, 57
2, 34134, Note_on_c, 0, 51, 0
2, 34150, Control_c, 0, 64, 60
2, 34170, Control_c, 0, 64, 62
2, 34180, Note_on_c, 0, 44, 54
2, 34189, Control_c, 0, 64, 63
2, 34209, Note_on_c, 0, 65, 68
2, 34253, Note_on_c, 0, 42, 0
2, 34266, Control_c, 0, 64, 64
2, 34285, Control_c, 0, 64, 63
2, 34322, Control_c, 0, 64, 63
2, 34349, Note_on_c, 0, 63, 0
2, 34399, Control_c, 0, 64, 62
2, 34415, Note_on_c, 0, 47, 56
2, 34429, Note_on_c, 0, 44, 0
2, 34475, Note_on_c, 0, 66, 65
2, 34553, Control_c, 0, 64, 62
2, 34574, Note_on_c, 0, 65, 0
2, 34591, Control_c, 0, 64, 61
2, 34641, Note_on_c, 0, 59, 0
2, 34652, Note_on_c, 0, 38, 52
2, 34668, Control_c, 0, 64, 62
2, 34688, Control_c, 0, 64, 62
2, 34688, Note_on_c, 0, 47, 0
2, 34726, Control_c, 0, 64, 63
2, 34753, Note_on_c, 0, 68, 69
2, 34765, Control_c, 0, 64, 61
2, 34783, Control_c, 0, 64, 54
2, 34802, Control_c, 0, 64, 43
2, 34810, Note_on_c, 0, 66, 0
2, 34822, Control_c, 0, 64, 39
2, 34840, Control_c, 0, 64, 41
2, 34860, Control_c, 0, 64, 52
2, 34879, Control_c, 0, 64, 61
2, 34899, Control_c, 0, 64, 63
2, 34937, Control_c, 0, 64, 63
2, 34956, Control_c, 0, 64, 64
2, 34975, Control_c, 0, 64, 66
2, 34994, Control_c, 0, 64, 68
2, 35014, Control_c, 0, 64, 68
2, 35065, Note_on_c, 0, 59, 56
2, 35245, Control_c, 0, 64, 69
2, 35264, Control_c, 0, 64, 69
2, 35268, Note_on_c, 0, 59, 0
2, 35269, Note_on_c, 0, 38, 0
2, 35284, Control_c, 0, 64, 70
2, 35303, Control_c, 0, 64, 67
2, 35307, Note_on_c, 0, 58, 52
2, 35318, Note_on_c, 0, 50, 45
2, 35321, Control_c, 0, 64, 61
2, 35341, Control_c, 0, 64, 52
2, 35360, Control_c, 0, 64, 50
2, 35380, Control_c, 0, 64, 51
2, 35398, Control_c, 0, 64, 59
2, 35418, Control_c, 0, 64, 64
2, 35437, Control_c, 0, 64, 66
2, 35456, Control_c, 0, 64, 67
2, 35514, Control_c, 0, 64, 66
2, 35534, Note_on_c, 0, 68, 0
2, 35552, Note_on_c, 0, 62, 58
2, 35572, Control_c, 0, 64, 66
2, 35590, Control_c, 0, 64, 65
2, 35629, Control_c, 0, 64, 65
2, 35706, Control_c, 0, 64, 65
2, 35744, Control_c, 0, 64, 66
2, 35769, Note_on_c, 0, 46, 49
2, 35775, Note_on_c, 0, 50, 0
2, 35777, Note_on_c, 0, 65, 59
2, 35783, Control_c, 0, 64, 65
2, 35801, Control_c, 0, 64, 62
2, 35821, Control_c, 0, 64, 53
2, 35840, Control_c, 0, 64, 41
2, 35860, Control_c, 0, 64, 35
2, 35877, Note_on_c, 0, 62, 0
2, 35878, Control_c, 0, 64, 34
2, 35898, Control_c, 0, 64, 44
2, 35917, Control_c, 0, 64, 59
2, 35936, Control_c, 0, 64, 64
2, 35955, Control_c, 0, 64, 64
2, 35959, Note_on_c, 0, 58, 0
2, 35993, Note_on_c, 0, 68, 67
2, 36013, Control_c, 0, 64, 65
2, 36024, Note_on_c, 0, 65, 0
2, 36091, Control_c, 0, 64, 64
2, 36148, Control_c, 0, 64, 64
2, 36209, Note_on_c, 0, 51, 42
2, 36268, Note_on_c, 0, 66, 61
2, 36301, Control_c, 0, 64, 64
2, 36314, Note_on_c, 0, 46, 0
2, 36323, Note_on_c, 0, 68, 0
2, 36340, Control_c, 0, 64, 63
2, 36358, Control_c, 0, 64, 55
2, 36378, Control_c, 0, 64, 38
2, 36397, Control_c, 0, 64, 13
2, 36416, Control_c, 0, 64, 0
2, 36455, Control_c, 0, 64, 38
2, 36474, Control_c, 0, 64, 51
2, 36493, Control_c, 0, 64, 56
2, 36499, Note_on_c, 0, 53, 52
2, 36512, Control_c, 0, 64, 59
2, 36527, Note_on_c, 0, 58, 60
2, 36532, Control_c, 0, 64, 60
2, 36550, Control_c, 0, 64, 61
2, 36567, Note_on_c, 0, 51, 0
2, 36589, Control_c, 0, 64, 61
2, 36685, Control_c, 0, 64, 61
2, 36717, Note_on_c, 0, 53, 0
2, 36736, Note_on_c, 0, 66, 0
2, 36745, Note_on_c, 0, 63, 64
2, 36751, Note_on_c, 0, 54, 62
2, 36858, Control_c, 0, 64, 60
2, 36877, Control_c, 0, 64, 59
2, 36896, Control_c, 0, 64, 54
2, 36915, Control_c, 0, 64, 44
2, 36916, Note_on_c, 0, 58, 0
2, 36935, Control_c, 0, 64, 33
2, 36954, Control_c, 0, 64, 30
2, 36965, Note_on_c, 0, 66, 66
2, 36974, Note_on_c, 0, 54, 0
2, 36983, Note_on_c, 0, 51, 59
2, 36992, Control_c, 0, 64, 33
2, 37014, Control_c, 0, 64, 39
2, 37032, Control_c, 0, 64, 43
2, 37052, Control_c, 0, 64, 46
2, 37071, Control_c, 0, 64, 50
2, 37090, Control_c, 0, 64, 53
2, 37095, Note_on_c, 0, 63, 0
2, 37109, Control_c, 0, 64, 54
2, 37148, Control_c, 0, 64, 55
2, 37165, Control_c, 0, 64, 56
2, 37193, Note_on_c, 0, 53, 64
2, 37203, Control_c, 0, 64, 56
2, 37211, Note_on_c, 0, 68, 65
2, 37271, Note_on_c, 0, 51, 0
2, 37285, Note_on_c, 0, 66, 0
2, 37376, Control_c, 0, 64, 56
2, 37430, Note_on_c, 0, 56, 70
2, 37434, Control_c, 0, 64, 55
2, 37446, Note_on_c, 0, 71, 60
2, 37453, Control_c, 0, 64, 55
2, 37472, Control_c, 0, 64, 54
2, 37498, Note_on_c, 0, 68, 0
2, 37523, Note_on_c, 0, 53, 0
2, 37607, Control_c, 0, 64, 54
2, 37626, Control_c, 0, 64, 50
2, 37645, Control_c, 0, 64, 41
2, 37664, Control_c, 0, 64, 28
2, 37683, Control_c, 0, 64, 23
2, 37693, Note_on_c, 0, 71, 0
2, 37703, Control_c, 0, 64, 22
2, 37721, Note_on_c, 0, 59, 58
2, 37735, Note_on_c, 0, 62, 37
2, 37740, Note_on_c, 0, 65, 44
2, 37741, Control_c, 0, 64, 28
2, 37760, Control_c, 0, 64, 38
2, 37780, Control_c, 0, 64, 46
2, 37798, Control_c, 0, 64, 49
2, 37809, Note_on_c, 0, 56, 0
2, 37818, Control_c, 0, 64, 51
2, 37837, Control_c, 0, 64, 54
2, 37856, Control_c, 0, 64, 56
2, 37914, Control_c, 0, 64, 57
2, 37930, Note_on_c, 0, 65, 0
2, 37933, Control_c, 0, 64, 58
2, 37952, Control_c, 0, 64, 59
2, 37957, Note_on_c, 0, 66, 56
2, 37972, Control_c, 0, 64, 59
2, 38029, Control_c, 0, 64, 60
2, 38040, Note_on_c, 0, 66, 0
2, 38076, Note_on_c, 0, 65, 56
2, 38125, Control_c, 0, 64, 60
2, 38143, Control_c, 0, 64, 61
2, 38162, Control_c, 0, 64, 62
2, 38170, Note_on_c, 0, 65, 0
2, 38187, Note_on_c, 0, 66, 56
2, 38200, Control_c, 0, 64, 60
2, 38201, Note_on_c, 0, 58, 46
2, 38220, Control_c, 0, 64, 57
2, 38239, Control_c, 0, 64, 56
2, 38259, Control_c, 0, 64, 57
2, 38277, Control_c, 0, 64, 59
2, 38278, Note_on_c, 0, 66, 0
2, 38297, Control_c, 0, 64, 60
2, 38303, Note_on_c, 0, 65, 50
2, 38335, Control_c, 0, 64, 61
2, 38343, Note_on_c, 0, 59, 0
2, 38373, Note_on_c, 0, 65, 0
2, 38374, Control_c, 0, 64, 62
2, 38389, Note_on_c, 0, 66, 47
2, 38393, Control_c, 0, 64, 62
2, 38451, Control_c, 0, 64, 63
2, 38456, Note_on_c, 0, 66, 0
2, 38470, Control_c, 0, 64, 63
2, 38480, Note_on_c, 0, 65, 46
2, 38489, Control_c, 0, 64, 63
2, 38508, Control_c, 0, 64, 60
2, 38528, Control_c, 0, 64, 54
2, 38541, Note_on_c, 0, 65, 0
2, 38546, Control_c, 0, 64, 52
2, 38566, Control_c, 0, 64, 54
2, 38571, Note_on_c, 0, 66, 43
2, 38585, Control_c, 0, 64, 59
2, 38605, Control_c, 0, 64, 62
2, 38623, Control_c, 0, 64, 63
2, 38629, Note_on_c, 0, 66, 0
2, 38650, Note_on_c, 0, 56, 42
2, 38657, Note_on_c, 0, 65, 43
2, 38662, Control_c, 0, 64, 63
2, 38679, Note_on_c, 0, 58, 0
2, 38680, Control_c, 0, 64, 64
2, 38712, Note_on_c, 0, 65, 0
2, 38719, Control_c, 0, 64, 62
2, 38736, Note_on_c, 0, 66, 53
2, 38739, Control_c, 0, 64, 58
2, 38757, Control_c, 0, 64, 57
2, 38777, Control_c, 0, 64, 58
2, 38792, Note_on_c, 0, 66, 0
2, 38796, Control_c, 0, 64, 61
2, 38815, Control_c, 0, 64, 63
2, 38823, Note_on_c, 0, 65, 55
2, 38834, Control_c, 0, 64, 64
2, 38872, Note_on_c, 0, 65, 0
2, 38904, Note_on_c, 0, 66, 46
2, 38912, Note_on_c, 0, 62, 0
2, 38965, Note_on_c, 0, 66, 0
2, 38982, Note_on_c, 0, 65, 47
2, 39010, Control_c, 0, 64, 63
2, 39111, Note_on_c, 0, 65, 0
2, 39151, Note_on_c, 0, 54, 35
2, 39152, Note_on_c, 0, 63, 42
2, 39159, Note_on_c, 0, 56, 0
2, 39180, Control_c, 0, 64, 62
2, 39199, Control_c, 0, 64, 60
2, 39219, Control_c, 0, 64, 50
2, 39237, Control_c, 0, 64, 20
2, 39257, Control_c, 0, 64, 0
2, 39334, Control_c, 0, 64, 35
2, 39353, Control_c, 0, 64, 48
2, 39372, Control_c, 0, 64, 57
2, 39391, Control_c, 0, 64, 59
2, 39400, Note_on_c, 0, 65, 53
2, 39411, Control_c, 0, 64, 59
2, 39417, Note_on_c, 0, 56, 45
2, 39468, Control_c, 0, 64, 60
2, 39476, Note_on_c, 0, 63, 0
2, 39492, Note_on_c, 0, 54, 0
2, 39640, Control_c, 0, 64, 60
2, 39647, Note_on_c, 0, 66, 63
2, 39648, Note_on_c, 0, 58, 44
2, 39660, Control_c, 0, 64, 61
2, 39673, Note_on_c, 0, 65, 0
2, 39676, Note_on_c, 0, 56, 0
2, 39756, Control_c, 0, 64, 61
2, 39775, Control_c, 0, 64, 62
2, 39833, Control_c, 0, 64, 61
2, 39852, Control_c, 0, 64, 61
2, 39870, Note_on_c, 0, 63, 63
2, 39871, Control_c, 0, 64, 60
2, 39877, Note_on_c, 0, 58, 0
2, 39883, Note_on_c, 0, 54, 49
2, 39891, Control_c, 0, 64, 59
2, 39909, Note_on_c, 0, 66, 0
2, 39929, Control_c, 0, 64, 60
2, 39948, Control_c, 0, 64, 60
2, 40025, Control_c, 0, 64, 61
2, 40045, Control_c, 0, 64, 62
2, 40063, Control_c, 0, 64, 61
2, 40082, Control_c, 0, 64, 57
2, 40096, Note_on_c, 0, 56, 52
2, 40099, Note_on_c, 0, 65, 65
2, 40102, Control_c, 0, 64, 39
2, 40120, Control_c, 0, 64, 0
2, 40197, Control_c, 0, 64, 39
2, 40217, Control_c, 0, 64, 54
2, 40236, Control_c, 0, 64, 59
2, 40255, Control_c, 0, 64, 60
2, 40259, Note_on_c, 0, 54, 0
2, 40294, Control_c, 0, 64, 59
2, 40303, Note_on_c, 0, 56, 0
2, 40313, Control_c, 0, 64, 58
2, 40327, Note_on_c, 0, 68, 69
2, 40329, Note_on_c, 0, 59, 41
2, 40332, Control_c, 0, 64, 58
2, 40347, Note_on_c, 0, 63, 0
2, 40371, Control_c, 0, 64, 57
2, 40390, Control_c, 0, 64, 55
2, 40409, Control_c, 0, 64, 52
2, 40428, Control_c, 0, 64, 51
2, 40448, Control_c, 0, 64, 51
2, 40486, Control_c, 0, 64, 51
2, 40517, Note_on_c, 0, 50, 44
2, 40525, Control_c, 0, 64, 51
2, 40543, Control_c, 0, 64, 50
2, 40562, Control_c, 0, 64, 47
2, 40582, Control_c, 0, 64, 24
2, 40600, Control_c, 0, 64, 0
2, 40603, Note_on_c, 0, 71, 63
2, 40610, Note_on_c, 0, 59, 0
2, 40656, Note_on_c, 0, 68, 0
2, 40667, Note_on_c, 0, 65, 0
2, 40716, Control_c, 0, 64, 36
2, 40735, Control_c, 0, 64, 53
2, 40754, Control_c, 0, 64, 61
2, 40774, Control_c, 0, 64, 61
2, 40839, Note_on_c, 0, 51, 49
2, 40876, Note_on_c, 0, 50, 0
2, 41023, Control_c, 0, 64, 62
2, 41042, Control_c, 0, 64, 62
2, 41062, Control_c, 0, 64, 63
2, 41067, Note_on_c, 0, 70, 68
2, 41079, Note_on_c, 0, 51, 0
2, 41095, Note_on_c, 0, 53, 52
2, 41100, Control_c, 0, 64, 62
2, 41119, Control_c, 0, 64, 56
2, 41139, Control_c, 0, 64, 36
2, 41157, Control_c, 0, 64, 0
2, 41178, Note_on_c, 0, 71, 0
2, 41234, Control_c, 0, 64, 47
2, 41254, Control_c, 0, 64, 57
2, 41273, Control_c, 0, 64, 59
2, 41289, Note_on_c, 0, 46, 51
2, 41292, Control_c, 0, 64, 61
2, 41311, Control_c, 0, 64, 63
2, 41316, Note_on_c, 0, 53, 0
2, 41331, Control_c, 0, 64, 63
2, 41350, Control_c, 0, 64, 64
2, 41465, Control_c, 0, 64, 64
2, 41484, Control_c, 0, 64, 65
2, 41503, Control_c, 0, 64, 66
2, 41514, Note_on_c, 0, 68, 67
2, 41522, Control_c, 0, 64, 67
2, 41526, Note_on_c, 0, 50, 54
2, 41542, Control_c, 0, 64, 68
2, 41559, Note_on_c, 0, 70, 0
2, 41560, Control_c, 0, 64, 65
2, 41580, Control_c, 0, 64, 52
2, 41583, Note_on_c, 0, 46, 0
2, 41599, Control_c, 0, 64, 21
2, 41619, Control_c, 0, 64, 0
2, 41657, Control_c, 0, 64, 34
2, 41676, Control_c, 0, 64, 60
2, 41695, Control_c, 0, 64, 66
2, 41714, Control_c, 0, 64, 70
2, 41734, Control_c, 0, 64, 72
2, 41753, Control_c, 0, 64, 74
2, 41772, Control_c, 0, 64, 77
2, 41776, Note_on_c, 0, 53, 56
2, 41791, Control_c, 0, 64, 81
2, 41792, Note_on_c, 0, 50, 0
2, 41815, Control_c, 0, 64, 83
2, 41832, Note_on_c, 0, 53, 0
2, 41910, Control_c, 0, 64, 82
2, 41930, Control_c, 0, 64, 81
2, 41949, Control_c, 0, 64, 81
2, 41985, Control_c, 0, 64, 80
2, 42004, Control_c, 0, 64, 78
2, 42024, Control_c, 0, 64, 76
2, 42042, Control_c, 0, 64, 73
2, 42062, Control_c, 0, 64, 72
2, 42081, Control_c, 0, 64, 71
2, 42092, Note_on_c, 0, 66, 55
2, 42100, Control_c, 0, 64, 70
2, 42103, Note_on_c, 0, 63, 49
2, 42114, Note_on_c, 0, 51, 30
2, 42139, Control_c, 0, 64, 71
2, 42177, Control_c, 0, 64, 70
2, 42196, Control_c, 0, 64, 70
2, 42204, Note_on_c, 0, 68, 0
2, 42216, Control_c, 0, 64, 68
2, 42234, Control_c, 0, 64, 66
2, 42254, Control_c, 0, 64, 62
2, 42273, Control_c, 0, 64, 60
2, 42293, Control_c, 0, 64, 59
2, 42331, Control_c, 0, 64, 60
2, 42350, Control_c, 0, 64, 61
2, 42367, Note_on_c, 0, 61, 67
2, 42370, Control_c, 0, 64, 62
2, 42372, Note_on_c, 0, 63, 0
2, 42388, Control_c, 0, 64, 62
2, 42408, Control_c, 0, 64, 63
2, 42580, Control_c, 0, 64, 64
2, 42611, Note_on_c, 0, 59, 71
2, 42651, Note_on_c, 0, 61, 0
2, 42714, Control_c, 0, 64, 63
2, 42773, Control_c, 0, 64, 64
2, 42839, Note_on_c, 0, 63, 67
2, 42855, Control_c, 0, 64, 63
2, 42949, Control_c, 0, 64, 64
2, 42987, Control_c, 0, 64, 63
2, 43006, Control_c, 0, 64, 61
2, 43025, Control_c, 0, 64, 58
2, 43045, Control_c, 0, 64, 56
2, 43064, Control_c, 0, 64, 58
2, 43080, Note_on_c, 0, 66, 0
2, 43083, Control_c, 0, 64, 61
2, 43089, Note_on_c, 0, 61, 58
2, 43102, Control_c, 0, 64, 63
2, 43113, Note_on_c, 0, 63, 0
2, 43122, Control_c, 0, 64, 64
2, 43141, Note_on_c, 0, 59, 0
2, 43160, Control_c, 0, 64, 65
2, 43256, Control_c, 0, 64, 64
2, 43299, Note_on_c, 0, 68, 68
2, 43314, Control_c, 0, 64, 64
2, 43314, Note_on_c, 0, 58, 57
2, 43361, Note_on_c, 0, 51, 0
2, 43410, Control_c, 0, 64, 63
2, 43467, Control_c, 0, 64, 63
2, 43544, Control_c, 0, 64, 62
2, 43552, Note_on_c, 0, 55, 52
2, 43561, Note_on_c, 0, 70, 62
2, 43563, Control_c, 0, 64, 59
2, 43582, Control_c, 0, 64, 52
2, 43585, Note_on_c, 0, 49, 56
2, 43602, Control_c, 0, 64, 39
2, 43620, Control_c, 0, 64, 15
2, 43625, Note_on_c, 0, 58, 0
2, 43640, Control_c, 0, 64, 0
2, 43679, Control_c, 0, 64, 13
2, 43697, Control_c, 0, 64, 36
2, 43717, Control_c, 0, 64, 51
2, 43736, Control_c, 0, 64, 59
2, 43756, Control_c, 0, 64, 61
2, 43774, Control_c, 0, 64, 61
2, 43794, Control_c, 0, 64, 62
2, 43808, Note_on_c, 0, 71, 65
2, 43813, Control_c, 0, 64, 62
2, 43874, Note_on_c, 0, 61, 0
2, 43893, Note_on_c, 0, 68, 0
2, 43916, Note_on_c, 0, 70, 0
2, 44043, Control_c, 0, 64, 63
2, 44051, Note_on_c, 0, 56, 66
2, 44056, Note_on_c, 0, 73, 67
2, 44082, Control_c, 0, 64, 62
2, 44091, Note_on_c, 0, 71, 0
2, 44120, Control_c, 0, 64, 61
2, 44139, Control_c, 0, 64, 55
2, 44159, Control_c, 0, 64, 41
2, 44176, Note_on_c, 0, 55, 0
2, 44177, Control_c, 0, 64, 18
2, 44197, Control_c, 0, 64, 0
2, 44236, Control_c, 0, 64, 27
2, 44254, Control_c, 0, 64, 42
2, 44274, Control_c, 0, 64, 48
2, 44289, Note_on_c, 0, 70, 70
2, 44293, Control_c, 0, 64, 53
2, 44312, Control_c, 0, 64, 57
2, 44331, Control_c, 0, 64, 58
2, 44340, Note_on_c, 0, 73, 0
2, 44370, Control_c, 0, 64, 59
2, 44389, Control_c, 0, 64, 60
2, 44408, Control_c, 0, 64, 61
2, 44427, Control_c, 0, 64, 62
2, 44446, Control_c, 0, 64, 63
2, 44465, Control_c, 0, 64, 62
2, 44485, Control_c, 0, 64, 56
2, 44504, Control_c, 0, 64, 36
2, 44505, Note_on_c, 0, 58, 62
2, 44523, Control_c, 0, 64, 0
2, 44526, Note_on_c, 0, 71, 66
2, 44562, Note_on_c, 0, 56, 0
2, 44580, Control_c, 0, 64, 35
2, 44600, Control_c, 0, 64, 58
2, 44619, Control_c, 0, 64, 62
2, 44623, Note_on_c, 0, 70, 0
2, 44639, Control_c, 0, 64, 63
2, 44657, Control_c, 0, 64, 63
2, 44677, Control_c, 0, 64, 64
2, 44716, Control_c, 0, 64, 64
2, 44733, Note_on_c, 0, 49, 0
2, 44761, Note_on_c, 0, 73, 74
2, 44862, Note_on_c, 0, 71, 0
2, 44956, Note_on_c, 0, 47, 43
2, 44965, Control_c, 0, 64, 64
2, 45051, Note_on_c, 0, 75, 69
2, 45060, Control_c, 0, 64, 64
2, 45092, Note_on_c, 0, 73, 0
2, 45099, Control_c, 0, 64, 62
2, 45119, Control_c, 0, 64, 53
2, 45137, Control_c, 0, 64, 29
2, 45157, Control_c, 0, 64, 0
2, 45165, Note_on_c, 0, 58, 0
2, 45196, Control_c, 0, 64, 26
2, 45214, Control_c, 0, 64, 52
2, 45234, Control_c, 0, 64, 59
2, 45253, Control_c, 0, 64, 60
2, 45272, Control_c, 0, 64, 60
2, 45291, Control_c, 0, 64, 62
2, 45311, Control_c, 0, 64, 62
2, 45313, Note_on_c, 0, 73, 69
2, 45349, Control_c, 0, 64, 62
2, 45481, Note_on_c, 0, 75, 0
2, 45483, Control_c, 0, 64, 62
2, 45502, Control_c, 0, 64, 63
2, 45522, Control_c, 0, 64, 64
2, 45523, Note_on_c, 0, 71, 61
2, 45525, Note_on_c, 0, 56, 49
2, 45540, Control_c, 0, 64, 64
2, 45554, Note_on_c, 0, 73, 0
2, 45560, Control_c, 0, 64, 64
2, 45579, Control_c, 0, 64, 63
2, 45599, Control_c, 0, 64, 57
2, 45617, Control_c, 0, 64, 45
2, 45637, Control_c, 0, 64, 34
2, 45656, Control_c, 0, 64, 34
2, 45677, Control_c, 0, 64, 39
2, 45696, Control_c, 0, 64, 54
2, 45716, Control_c, 0, 64, 59
2, 45735, Control_c, 0, 64, 59
2, 45751, Note_on_c, 0, 75, 68
2, 45754, Control_c, 0, 64, 60
2, 45760, Note_on_c, 0, 71, 0
2, 45773, Control_c, 0, 64, 61
2, 45793, Control_c, 0, 64, 62
2, 45886, Control_c, 0, 64, 62
2, 45905, Control_c, 0, 64, 63
2, 45925, Control_c, 0, 64, 64
2, 45944, Control_c, 0, 64, 65
2, 45982, Control_c, 0, 64, 63
2, 45991, Note_on_c, 0, 73, 65
2, 46002, Control_c, 0, 64, 56
2, 46004, Note_on_c, 0, 64, 43
2, 46020, Control_c, 0, 64, 48
2, 46040, Control_c, 0, 64, 47
2, 46059, Control_c, 0, 64, 49
2, 46079, Control_c, 0, 64, 57
2, 46097, Control_c, 0, 64, 61
2, 46117, Control_c, 0, 64, 62
2, 46156, Control_c, 0, 64, 62
2, 46174, Control_c, 0, 64, 63
2, 46213, Note_on_c, 0, 70, 65
2, 46273, Note_on_c, 0, 75, 0
2, 46328, Control_c, 0, 64, 64
2, 46347, Control_c, 0, 64, 64
2, 46366, Control_c, 0, 64, 66
2, 46385, Control_c, 0, 64, 67
2, 46405, Control_c, 0, 64, 66
2, 46405, Note_on_c, 0, 56, 0
2, 46424, Control_c, 0, 64, 61
2, 46443, Control_c, 0, 64, 48
2, 46462, Control_c, 0, 64, 39
2, 46466, Note_on_c, 0, 46, 43
2, 46472, Note_on_c, 0, 67, 50
2, 46482, Control_c, 0, 64, 39
2, 46491, Note_on_c, 0, 47, 0
2, 46500, Control_c, 0, 64, 43
2, 46506, Note_on_c, 0, 73, 0
2, 46520, Control_c, 0, 64, 56
2, 46539, Control_c, 0, 64, 62
2, 46559, Control_c, 0, 64, 63
2, 46566, Note_on_c, 0, 64, 0
2, 46573, Note_on_c, 0, 70, 0
2, 46577, Control_c, 0, 64, 64
2, 46597, Control_c, 0, 64, 64
2, 46616, Control_c, 0, 64, 65
2, 46636, Control_c, 0, 64, 66
2, 46711, Note_on_c, 0, 49, 57
2, 46742, Note_on_c, 0, 46, 0
2, 46789, Control_c, 0, 64, 66
2, 46808, Control_c, 0, 64, 67
2, 46827, Control_c, 0, 64, 68
2, 46846, Control_c, 0, 64, 69
2, 46865, Control_c, 0, 64, 70
2, 46885, Control_c, 0, 64, 69
2, 46904, Control_c, 0, 64, 66
2, 46923, Control_c, 0, 64, 59
2, 46923, Note_on_c, 0, 68, 70
2, 46938, Note_on_c, 0, 47, 51
2, 46941, Note_on_c, 0, 63, 46
2, 46942, Control_c, 0, 64, 42
2, 46962, Control_c, 0, 64, 36
2, 47000, Control_c, 0, 64, 41
2, 47010, Note_on_c, 0, 67, 0
2, 47011, Note_on_c, 0, 49, 0
2, 47019, Control_c, 0, 64, 54
2, 47039, Control_c, 0, 64, 63
2, 47057, Control_c, 0, 64, 65
2, 47077, Control_c, 0, 64, 66
2, 47146, Note_on_c, 0, 63, 0
2, 47150, Note_on_c, 0, 46, 61
2, 47210, Note_on_c, 0, 47, 0
2, 47307, Control_c, 0, 64, 67
2, 47345, Control_c, 0, 64, 66
2, 47365, Control_c, 0, 64, 64
2, 47372, Note_on_c, 0, 70, 74
2, 47378, Note_on_c, 0, 44, 56
2, 47384, Control_c, 0, 64, 56
2, 47387, Note_on_c, 0, 61, 48
2, 47403, Control_c, 0, 64, 37
2, 47417, Control_c, 0, 64, 22
2, 47436, Control_c, 0, 64, 19
2, 47455, Control_c, 0, 64, 20
2, 47470, Note_on_c, 0, 46, 0
2, 47474, Control_c, 0, 64, 42
2, 47494, Control_c, 0, 64, 59
2, 47513, Control_c, 0, 64, 65
2, 47532, Control_c, 0, 64, 67
2, 47551, Control_c, 0, 64, 68
2, 47620, Note_on_c, 0, 43, 58
2, 47634, Note_on_c, 0, 44, 0
2, 47649, Control_c, 0, 64, 67
2, 47667, Control_c, 0, 64, 67
2, 47687, Control_c, 0, 64, 66
2, 47725, Note_on_c, 0, 61, 0
2, 47764, Note_on_c, 0, 68, 0
2, 47805, Note_on_c, 0, 43, 0
2, 47839, Control_c, 0, 64, 67
2, 47850, Note_on_c, 0, 71, 72
2, 47860, Note_on_c, 0, 44, 62
2, 47877, Control_c, 0, 64, 66
2, 47879, Note_on_c, 0, 70, 0
2, 47894, Note_on_c, 0, 59, 48
2, 47897, Control_c, 0, 64, 60
2, 47916, Control_c, 0, 64, 39
2, 47935, Control_c, 0, 64, 0
2, 47993, Control_c, 0, 64, 39
2, 48012, Control_c, 0, 64, 61
2, 48031, Control_c, 0, 64, 66
2, 48051, Control_c, 0, 64, 68
2, 48070, Control_c, 0, 64, 68
2, 48090, Note_on_c, 0, 42, 60
2, 48108, Control_c, 0, 64, 69
2, 48112, Note_on_c, 0, 63, 67
2, 48120, Note_on_c, 0, 59, 0
2, 48128, Control_c, 0, 64, 69
2, 48146, Control_c, 0, 64, 70
2, 48172, Note_on_c, 0, 71, 0
2, 48180, Note_on_c, 0, 44, 0
2, 48204, Control_c, 0, 64, 69
2, 48207, Note_on_c, 0, 63, 0
2, 48223, Control_c, 0, 64, 69
2, 48262, Control_c, 0, 64, 68
2, 48300, Control_c, 0, 64, 68
2, 48317, Note_on_c, 0, 40, 59
2, 48319, Control_c, 0, 64, 67
2, 48329, Note_on_c, 0, 68, 75
2, 48339, Control_c, 0, 64, 67
2, 48357, Control_c, 0, 64, 66
2, 48377, Control_c, 0, 64, 66
2, 48379, Note_on_c, 0, 42, 0
2, 48396, Control_c, 0, 64, 65
2, 48415, Control_c, 0, 64, 65
2, 48434, Control_c, 0, 64, 64
2, 48454, Control_c, 0, 64, 63
2, 48473, Control_c, 0, 64, 63
2, 48511, Control_c, 0, 64, 62
2, 48535, Control_c, 0, 64, 61
2, 48553, Note_on_c, 0, 70, 78
2, 48554, Control_c, 0, 64, 60
2, 48558, Note_on_c, 0, 44, 57
2, 48574, Control_c, 0, 64, 59
2, 48575, Note_on_c, 0, 40, 0
2, 48593, Control_c, 0, 64, 57
2, 48612, Control_c, 0, 64, 56
2, 48631, Control_c, 0, 64, 55
2, 48651, Control_c, 0, 64, 54
2, 48670, Control_c, 0, 64, 53
2, 48773, Note_on_c, 0, 42, 61
2, 48789, Note_on_c, 0, 72, 76
2, 48804, Control_c, 0, 64, 52
2, 48840, Note_on_c, 0, 68, 0
2, 48855, Note_on_c, 0, 44, 0
2, 48946, Note_on_c, 0, 70, 0
2, 48977, Control_c, 0, 64, 53
2, 48983, Note_on_c, 0, 39, 59
2, 48998, Note_on_c, 0, 42, 0
2, 49002, Note_on_c, 0, 73, 78
2, 49015, Control_c, 0, 64, 53
2, 49063, Note_on_c, 0, 72, 0
2, 49169, Control_c, 0, 64, 54
2, 49188, Control_c, 0, 64, 54
2, 49239, Note_on_c, 0, 36, 47
2, 49239, Note_on_c, 0, 39, 0
2, 49245, Control_c, 0, 64, 54
2, 49265, Control_c, 0, 64, 48
2, 49279, Note_on_c, 0, 75, 76
2, 49284, Control_c, 0, 64, 21
2, 49303, Control_c, 0, 64, 0
2, 49306, Note_on_c, 0, 66, 46
2, 49343, Note_on_c, 0, 73, 0
2, 49380, Control_c, 0, 64, 15
2, 49399, Control_c, 0, 64, 37
2, 49419, Control_c, 0, 64, 54
2, 49437, Control_c, 0, 64, 60
2, 49457, Control_c, 0, 64, 61
2, 49476, Control_c, 0, 64, 61
2, 49514, Control_c, 0, 64, 62
2, 49529, Note_on_c, 0, 68, 69
2, 49534, Control_c, 0, 64, 63
2, 49553, Control_c, 0, 64, 63
2, 49591, Control_c, 0, 64, 63
2, 49604, Note_on_c, 0, 66, 0
2, 49611, Control_c, 0, 64, 63
2, 49644, Control_c, 0, 64, 64
2, 49682, Control_c, 0, 64, 64
2, 49702, Control_c, 0, 64, 65
2, 49718, Control_c, 0, 64, 66
2, 49757, Control_c, 0, 64, 65
2, 49760, Note_on_c, 0, 69, 72
2, 49766, Note_on_c, 0, 37, 59
2, 49771, Note_on_c, 0, 68, 0
2, 49776, Control_c, 0, 64, 59
2, 49794, Control_c, 0, 64, 43
2, 49814, Control_c, 0, 64, 19
2, 49833, Control_c, 0, 64, 17
2, 49847, Note_on_c, 0, 36, 0
2, 49852, Control_c, 0, 64, 28
2, 49871, Control_c, 0, 64, 54
2, 49891, Control_c, 0, 64, 64
2, 49910, Control_c, 0, 64, 66
2, 49948, Control_c, 0, 64, 66
2, 49968, Control_c, 0, 64, 67
2, 49987, Control_c, 0, 64, 67
2, 49987, Note_on_c, 0, 69, 0
2, 50006, Control_c, 0, 64, 68
2, 50006, Note_on_c, 0, 66, 66
2, 50063, Control_c, 0, 64, 67
2, 50122, Control_c, 0, 64, 67
2, 50217, Control_c, 0, 64, 67
2, 50232, Note_on_c, 0, 37, 0
2, 50256, Control_c, 0, 64, 67
2, 50264, Note_on_c, 0, 39, 52
2, 50264, Note_on_c, 0, 73, 76
2, 50274, Control_c, 0, 64, 63
2, 50294, Control_c, 0, 64, 42
2, 50313, Control_c, 0, 64, 0
2, 50387, Note_on_c, 0, 75, 0
2, 50390, Control_c, 0, 64, 42
2, 50409, Control_c, 0, 64, 63
2, 50428, Control_c, 0, 64, 66
2, 50448, Control_c, 0, 64, 67
2, 50467, Control_c, 0, 64, 66
2, 50486, Control_c, 0, 64, 67
2, 50505, Control_c, 0, 64, 67
2, 50518, Note_on_c, 0, 72, 77
2, 50525, Control_c, 0, 64, 68
2, 50543, Control_c, 0, 64, 69
2, 50563, Control_c, 0, 64, 71
2, 50579, Note_on_c, 0, 66, 0
2, 50582, Control_c, 0, 64, 72
2, 50602, Control_c, 0, 64, 73
2, 50621, Control_c, 0, 64, 73
2, 50641, Control_c, 0, 64, 74
2, 50657, Note_on_c, 0, 39, 0
2, 50671, Note_on_c, 0, 72, 0
2, 50678, Note_on_c, 0, 73, 0
2, 50718, Control_c, 0, 64, 74
2, 50737, Control_c, 0, 64, 73
2, 50756, Control_c, 0, 64, 72
2, 50775, Control_c, 0, 64, 71
2, 50782, Note_on_c, 0, 40, 49
2, 50794, Control_c, 0, 64, 70
2, 50813, Control_c, 0, 64, 69
2, 50825, Note_on_c, 0, 73, 71
2, 50852, Control_c, 0, 64, 69
2, 50871, Control_c, 0, 64, 68
2, 50890, Control_c, 0, 64, 67
2, 50909, Control_c, 0, 64, 66
2, 50929, Control_c, 0, 64, 65
2, 50947, Control_c, 0, 64, 64
2, 50967, Control_c, 0, 64, 64
2, 50986, Control_c, 0, 64, 63
2, 51006, Control_c, 0, 64, 62
2, 51024, Control_c, 0, 64, 61
2, 51044, Control_c, 0, 64, 60
2, 51082, Control_c, 0, 64, 59
2, 51095, Note_on_c, 0, 75, 76
2, 51121, Control_c, 0, 64, 59
2, 51124, Note_on_c, 0, 42, 54
2, 51140, Control_c, 0, 64, 58
2, 51159, Control_c, 0, 64, 58
2, 51175, Note_on_c, 0, 40, 0
2, 51198, Control_c, 0, 64, 57
2, 51262, Note_on_c, 0, 73, 0
2, 51349, Note_on_c, 0, 44, 54
2, 51349, Note_on_c, 0, 76, 79
2, 51394, Note_on_c, 0, 75, 0
2, 51402, Note_on_c, 0, 42, 0
2, 51565, Note_on_c, 0, 73, 81
2, 51571, Note_on_c, 0, 40, 58
2, 51577, Note_on_c, 0, 76, 0
2, 51600, Control_c, 0, 64, 57
2, 51624, Note_on_c, 0, 44, 0
2, 51799, Note_on_c, 0, 75, 79
2, 51806, Note_on_c, 0, 42, 53
2, 51887, Note_on_c, 0, 73, 0
2, 51893, Note_on_c, 0, 40, 0
2, 51945, Control_c, 0, 64, 56
2, 52042, Note_on_c, 0, 78, 81
2, 52043, Note_on_c, 0, 42, 0
2, 52047, Note_on_c, 0, 45, 48
2, 52118, Control_c, 0, 64, 56
2, 52129, Note_on_c, 0, 75, 0
2, 52241, Note_on_c, 0, 45, 0
2, 52270, Note_on_c, 0, 39, 46
2, 52291, Control_c, 0, 64, 54
2, 52310, Control_c, 0, 64, 47
2, 52311, Note_on_c, 0, 81, 76
2, 52329, Control_c, 0, 64, 27
2, 52329, Note_on_c, 0, 72, 49
2, 52348, Control_c, 0, 64, 0
2, 52351, Note_on_c, 0, 78, 0
2, 52444, Control_c, 0, 64, 49
2, 52462, Control_c, 0, 64, 62
2, 52482, Control_c, 0, 64, 65
2, 52501, Control_c, 0, 64, 66
2, 52521, Control_c, 0, 64, 66
2, 52559, Control_c, 0, 64, 67
2, 52567, Note_on_c, 0, 40, 46
2, 52567, Note_on_c, 0, 72, 0
2, 52578, Control_c, 0, 64, 68
2, 52598, Control_c, 0, 64, 70
2, 52616, Control_c, 0, 64, 71
2, 52636, Control_c, 0, 64, 72
2, 52655, Control_c, 0, 64, 74
2, 52657, Note_on_c, 0, 39, 0
2, 52673, Control_c, 0, 64, 75
2, 52693, Control_c, 0, 64, 77
2, 52712, Control_c, 0, 64, 80
2, 52732, Control_c, 0, 64, 83
2, 52750, Control_c, 0, 64, 88
2, 52770, Control_c, 0, 64, 91
2, 52780, Note_on_c, 0, 80, 84
2, 52797, Note_on_c, 0, 73, 54
2, 52807, Note_on_c, 0, 42, 57
2, 52808, Control_c, 0, 64, 85
2, 52827, Control_c, 0, 64, 72
2, 52839, Note_on_c, 0, 81, 0
2, 52840, Note_on_c, 0, 40, 0
2, 52847, Control_c, 0, 64, 55
2, 52866, Control_c, 0, 64, 31
2, 52885, Control_c, 0, 64, 26
2, 52904, Control_c, 0, 64, 29
2, 52924, Control_c, 0, 64, 52
2, 52942, Control_c, 0, 64, 65
2, 52962, Control_c, 0, 64, 69
2, 52981, Control_c, 0, 64, 72
2, 53019, Control_c, 0, 64, 73
2, 53038, Note_on_c, 0, 44, 59
2, 53039, Control_c, 0, 64, 75
2, 53058, Control_c, 0, 64, 77
2, 53069, Note_on_c, 0, 42, 0
2, 53078, Control_c, 0, 64, 77
2, 53116, Control_c, 0, 64, 76
2, 53118, Note_on_c, 0, 73, 0
2, 53230, Control_c, 0, 64, 77
2, 53239, Note_on_c, 0, 44, 0
2, 53250, Control_c, 0, 64, 76
2, 53269, Control_c, 0, 64, 71
2, 53278, Note_on_c, 0, 78, 77
2, 53287, Note_on_c, 0, 46, 49
2, 53288, Control_c, 0, 64, 59
2, 53307, Control_c, 0, 64, 0
2, 53365, Note_on_c, 0, 80, 0
2, 53404, Control_c, 0, 64, 64
2, 53422, Control_c, 0, 64, 72
2, 53442, Control_c, 0, 64, 78
2, 53461, Control_c, 0, 64, 79
2, 53481, Control_c, 0, 64, 81
2, 53494, Note_on_c, 0, 78, 0
2, 53499, Control_c, 0, 64, 84
2, 53519, Control_c, 0, 64, 87
2, 53526, Note_on_c, 0, 48, 57
2, 53538, Control_c, 0, 64, 88
2, 53558, Control_c, 0, 64, 88
2, 53576, Control_c, 0, 64, 89
2, 53587, Note_on_c, 0, 48, 0
2, 53595, Control_c, 0, 64, 90
2, 53617, Note_on_c, 0, 46, 0
2, 53653, Control_c, 0, 64, 90
2, 53730, Control_c, 0, 64, 90
2, 53768, Control_c, 0, 64, 89
2, 53787, Control_c, 0, 64, 88
2, 53803, Note_on_c, 0, 49, 49
2, 53807, Control_c, 0, 64, 85
2, 53826, Control_c, 0, 64, 83
2, 53845, Control_c, 0, 64, 82
2, 53864, Control_c, 0, 64, 82
2, 53884, Control_c, 0, 64, 81
2, 53887, Note_on_c, 0, 76, 68
2, 53902, Control_c, 0, 64, 80
2, 53922, Control_c, 0, 64, 78
2, 53941, Control_c, 0, 64, 76
2, 53961, Control_c, 0, 64, 73
2, 53979, Control_c, 0, 64, 71
2, 53999, Control_c, 0, 64, 70
2, 54018, Control_c, 0, 64, 69
2, 54038, Control_c, 0, 64, 69
2, 54056, Control_c, 0, 64, 68
2, 54075, Control_c, 0, 64, 67
2, 54095, Control_c, 0, 64, 66
2, 54113, Control_c, 0, 64, 64
2, 54133, Control_c, 0, 64, 63
2, 54152, Control_c, 0, 64, 63
2, 54153, Note_on_c, 0, 51, 42
2, 54172, Control_c, 0, 64, 62
2, 54182, Note_on_c, 0, 49, 0
2, 54190, Control_c, 0, 64, 62
2, 54248, Control_c, 0, 64, 62
2, 54398, Note_on_c, 0, 51, 0
2, 54407, Note_on_c, 0, 73, 64
2, 54422, Control_c, 0, 64, 63
2, 54427, Note_on_c, 0, 52, 41
2, 54479, Control_c, 0, 64, 63
2, 54498, Control_c, 0, 64, 64
2, 54536, Control_c, 0, 64, 64
2, 54555, Control_c, 0, 64, 65
2, 54575, Control_c, 0, 64, 65
2, 54641, Note_on_c, 0, 52, 0
2, 54650, Note_on_c, 0, 49, 45
2, 54747, Control_c, 0, 64, 65
2, 54844, Control_c, 0, 64, 65
2, 54862, Control_c, 0, 64, 66
2, 54882, Control_c, 0, 64, 65
2, 54887, Note_on_c, 0, 71, 59
2, 54901, Control_c, 0, 64, 62
2, 54904, Note_on_c, 0, 52, 43
2, 54921, Control_c, 0, 64, 55
2, 54939, Control_c, 0, 64, 39
2, 54959, Control_c, 0, 64, 30
2, 54978, Control_c, 0, 64, 34
2, 54998, Control_c, 0, 64, 52
2, 55016, Control_c, 0, 64, 63
2, 55035, Control_c, 0, 64, 65
2, 55055, Control_c, 0, 64, 65
2, 55062, Note_on_c, 0, 73, 0
2, 55091, Note_on_c, 0, 52, 0
2, 55093, Control_c, 0, 64, 66
2, 55093, Note_on_c, 0, 49, 0
2, 55122, Note_on_c, 0, 56, 45
2, 55150, Control_c, 0, 64, 65
2, 55208, Control_c, 0, 64, 65
2, 55227, Control_c, 0, 64, 64
2, 55347, Note_on_c, 0, 56, 0
2, 55356, Note_on_c, 0, 54, 42
2, 55359, Control_c, 0, 64, 64
2, 55382, Note_on_c, 0, 70, 61
2, 55399, Control_c, 0, 64, 63
2, 55444, Note_on_c, 0, 71, 0
2, 55540, Note_on_c, 0, 76, 0
2, 55571, Control_c, 0, 64, 62
2, 55591, Control_c, 0, 64, 61
2, 55605, Note_on_c, 0, 56, 53
2, 55609, Control_c, 0, 64, 61
2, 55632, Note_on_c, 0, 54, 0
2, 55648, Control_c, 0, 64, 60
2, 55668, Control_c, 0, 64, 60
2, 55706, Control_c, 0, 64, 60
2, 55725, Control_c, 0, 64, 61
2, 55809, Note_on_c, 0, 78, 71
2, 55841, Note_on_c, 0, 56, 0
2, 55851, Note_on_c, 0, 58, 49
2, 55917, Control_c, 0, 64, 60
2, 55936, Control_c, 0, 64, 57
2, 55955, Control_c, 0, 64, 50
2, 55974, Control_c, 0, 64, 47
2, 55994, Control_c, 0, 64, 47
2, 56013, Control_c, 0, 64, 52
2, 56032, Control_c, 0, 64, 55
2, 56051, Control_c, 0, 64, 57
2, 56071, Control_c, 0, 64, 58
2, 56076, Note_on_c, 0, 54, 59
2, 56078, Note_on_c, 0, 58, 0
2, 56089, Control_c, 0, 64, 60
2, 56109, Control_c, 0, 64, 61
2, 56128, Control_c, 0, 64, 62
2, 56205, Control_c, 0, 64, 62
2, 56262, Control_c, 0, 64, 63
2, 56282, Control_c, 0, 64, 63
2, 56300, Control_c, 0, 64, 64
2, 56320, Control_c, 0, 64, 63
2, 56322, Note_on_c, 0, 76, 70
2, 56337, Note_on_c, 0, 54, 0
2, 56339, Control_c, 0, 64, 60
2, 56344, Note_on_c, 0, 58, 52
2, 56359, Control_c, 0, 64, 50
2, 56377, Control_c, 0, 64, 35
2, 56397, Control_c, 0, 64, 29
2, 56416, Control_c, 0, 64, 32
2, 56435, Control_c, 0, 64, 50
2, 56454, Control_c, 0, 64, 61
2, 56474, Control_c, 0, 64, 63
2, 56490, Note_on_c, 0, 78, 0
2, 56512, Control_c, 0, 64, 63
2, 56531, Control_c, 0, 64, 64
2, 56551, Control_c, 0, 64, 66
2, 56551, Note_on_c, 0, 58, 0
2, 56569, Control_c, 0, 64, 68
2, 56581, Note_on_c, 0, 61, 49
2, 56608, Control_c, 0, 64, 67
2, 56685, Control_c, 0, 64, 67
2, 56763, Note_on_c, 0, 61, 0
2, 56800, Control_c, 0, 64, 67
2, 56819, Control_c, 0, 64, 67
2, 56834, Note_on_c, 0, 75, 66
2, 56837, Note_on_c, 0, 47, 47
2, 56839, Control_c, 0, 64, 63
2, 56857, Control_c, 0, 64, 56
2, 56877, Control_c, 0, 64, 48
2, 56884, Note_on_c, 0, 76, 0
2, 56915, Control_c, 0, 64, 52
2, 56934, Control_c, 0, 64, 59
2, 56954, Control_c, 0, 64, 61
2, 56973, Control_c, 0, 64, 62
2, 56992, Control_c, 0, 64, 63
2, 57063, Note_on_c, 0, 49, 49
2, 57100, Note_on_c, 0, 70, 0
2, 57146, Control_c, 0, 64, 62
2, 57203, Note_on_c, 0, 47, 0
2, 57204, Control_c, 0, 64, 62
2, 57296, Note_on_c, 0, 71, 61
2, 57310, Note_on_c, 0, 49, 0
2, 57318, Note_on_c, 0, 51, 39
2, 57337, Control_c, 0, 64, 61
2, 57357, Control_c, 0, 64, 58
2, 57376, Control_c, 0, 64, 52
2, 57395, Control_c, 0, 64, 50
2, 57434, Control_c, 0, 64, 53
2, 57456, Control_c, 0, 64, 55
2, 57494, Control_c, 0, 64, 56
2, 57513, Control_c, 0, 64, 59
2, 57529, Note_on_c, 0, 51, 0
2, 57532, Control_c, 0, 64, 60
2, 57551, Control_c, 0, 64, 61
2, 57559, Note_on_c, 0, 47, 45
2, 57725, Control_c, 0, 64, 62
2, 57743, Control_c, 0, 64, 63
2, 57764, Note_on_c, 0, 70, 64
2, 57767, Note_on_c, 0, 47, 0
2, 57782, Control_c, 0, 64, 63
2, 57788, Note_on_c, 0, 51, 38
2, 57820, Control_c, 0, 64, 62
2, 57840, Control_c, 0, 64, 57
2, 57859, Control_c, 0, 64, 48
2, 57878, Control_c, 0, 64, 44
2, 57897, Control_c, 0, 64, 44
2, 57917, Control_c, 0, 64, 51
2, 57936, Control_c, 0, 64, 61
2, 57954, Control_c, 0, 64, 63
2, 57972, Note_on_c, 0, 71, 0
2, 57993, Note_on_c, 0, 51, 0
2, 58001, Note_on_c, 0, 54, 49
2, 58089, Control_c, 0, 64, 62
2, 58128, Control_c, 0, 64, 63
2, 58186, Control_c, 0, 64, 63
2, 58205, Note_on_c, 0, 54, 0
2, 58206, Control_c, 0, 64, 64
2, 58214, Note_on_c, 0, 52, 46
2, 58224, Control_c, 0, 64, 64
2, 58244, Control_c, 0, 64, 65
2, 58248, Note_on_c, 0, 68, 65
2, 58263, Control_c, 0, 64, 64
2, 58282, Control_c, 0, 64, 63
2, 58300, Control_c, 0, 64, 57
2, 58320, Control_c, 0, 64, 45
2, 58332, Note_on_c, 0, 70, 0
2, 58339, Control_c, 0, 64, 40
2, 58358, Control_c, 0, 64, 42
2, 58377, Control_c, 0, 64, 52
2, 58397, Control_c, 0, 64, 62
2, 58416, Control_c, 0, 64, 64
2, 58434, Control_c, 0, 64, 64
2, 58439, Note_on_c, 0, 75, 0
2, 58454, Control_c, 0, 64, 64
2, 58479, Note_on_c, 0, 54, 50
2, 58492, Control_c, 0, 64, 64
2, 58507, Note_on_c, 0, 52, 0
2, 58531, Control_c, 0, 64, 64
2, 58731, Note_on_c, 0, 76, 66
2, 58742, Control_c, 0, 64, 63
2, 58747, Note_on_c, 0, 54, 0
2, 58752, Note_on_c, 0, 56, 45
2, 58762, Control_c, 0, 64, 59
2, 58780, Control_c, 0, 64, 54
2, 58800, Control_c, 0, 64, 49
2, 58819, Control_c, 0, 64, 48
2, 58838, Control_c, 0, 64, 51
2, 58857, Control_c, 0, 64, 56
2, 58876, Control_c, 0, 64, 60
2, 58896, Control_c, 0, 64, 61
2, 58914, Control_c, 0, 64, 62
2, 58934, Control_c, 0, 64, 63
2, 58960, Note_on_c, 0, 56, 0
2, 58972, Note_on_c, 0, 52, 53
2, 59030, Control_c, 0, 64, 63
2, 59088, Control_c, 0, 64, 63
2, 59166, Control_c, 0, 64, 63
2, 59187, Note_on_c, 0, 75, 71
2, 59204, Control_c, 0, 64, 63
2, 59226, Control_c, 0, 64, 61
2, 59238, Note_on_c, 0, 56, 51
2, 59243, Control_c, 0, 64, 58
2, 59262, Control_c, 0, 64, 51
2, 59265, Note_on_c, 0, 52, 0
2, 59281, Control_c, 0, 64, 48
2, 59299, Note_on_c, 0, 76, 0
2, 59301, Control_c, 0, 64, 49
2, 59320, Control_c, 0, 64, 56
2, 59339, Control_c, 0, 64, 60
2, 59358, Control_c, 0, 64, 61
2, 59378, Control_c, 0, 64, 62
2, 59396, Control_c, 0, 64, 63
2, 59416, Control_c, 0, 64, 64
2, 59435, Control_c, 0, 64, 64
2, 59435, Note_on_c, 0, 56, 0
2, 59450, Note_on_c, 0, 59, 48
2, 59583, Note_on_c, 0, 68, 0
2, 59680, Note_on_c, 0, 59, 0
2, 59684, Control_c, 0, 64, 64
2, 59687, Note_on_c, 0, 73, 62
2, 59694, Note_on_c, 0, 46, 47
2, 59704, Control_c, 0, 64, 62
2, 59723, Control_c, 0, 64, 55
2, 59742, Control_c, 0, 64, 46
2, 59761, Control_c, 0, 64, 44
2, 59781, Control_c, 0, 64, 46
2, 59791, Note_on_c, 0, 75, 0
2, 59800, Control_c, 0, 64, 56
2, 59819, Control_c, 0, 64, 62
2, 59838, Control_c, 0, 64, 63
2, 59896, Control_c, 0, 64, 64
2, 59945, Note_on_c, 0, 47, 49
2, 59992, Control_c, 0, 64, 63
2, 60028, Note_on_c, 0, 46, 0
2, 60147, Control_c, 0, 64, 63
2, 60166, Control_c, 0, 64, 62
2, 60186, Control_c, 0, 64, 59
2, 60197, Note_on_c, 0, 70, 66
2, 60203, Control_c, 0, 64, 54
2, 60220, Note_on_c, 0, 49, 50
2, 60222, Control_c, 0, 64, 49
2, 60239, Note_on_c, 0, 47, 0
2, 60241, Control_c, 0, 64, 48
2, 60261, Control_c, 0, 64, 50
2, 60280, Control_c, 0, 64, 56
2, 60299, Control_c, 0, 64, 59
2, 60318, Control_c, 0, 64, 61
2, 60338, Control_c, 0, 64, 62
2, 60356, Control_c, 0, 64, 63
2, 60376, Control_c, 0, 64, 63
2, 60395, Control_c, 0, 64, 64
2, 60433, Control_c, 0, 64, 64
2, 60445, Note_on_c, 0, 46, 46
2, 60451, Note_on_c, 0, 49, 0
2, 60472, Control_c, 0, 64, 65
2, 60606, Control_c, 0, 64, 65
2, 60625, Control_c, 0, 64, 66
2, 60664, Control_c, 0, 64, 65
2, 60664, Note_on_c, 0, 49, 45
2, 60669, Note_on_c, 0, 68, 59
2, 60683, Control_c, 0, 64, 61
2, 60702, Control_c, 0, 64, 54
2, 60721, Control_c, 0, 64, 48
2, 60741, Control_c, 0, 64, 47
2, 60760, Control_c, 0, 64, 50
2, 60779, Control_c, 0, 64, 59
2, 60783, Note_on_c, 0, 46, 0
2, 60798, Control_c, 0, 64, 63
2, 60818, Control_c, 0, 64, 64
2, 60856, Control_c, 0, 64, 66
2, 60866, Note_on_c, 0, 49, 0
2, 60875, Control_c, 0, 64, 69
2, 60891, Note_on_c, 0, 52, 47
2, 60895, Control_c, 0, 64, 72
2, 60913, Control_c, 0, 64, 75
2, 60950, Note_on_c, 0, 70, 0
2, 61010, Control_c, 0, 64, 74
2, 61029, Control_c, 0, 64, 74
2, 61067, Control_c, 0, 64, 73
2, 61105, Control_c, 0, 64, 72
2, 61113, Note_on_c, 0, 51, 34
2, 61124, Control_c, 0, 64, 71
2, 61132, Note_on_c, 0, 52, 0
2, 61144, Control_c, 0, 64, 71
2, 61182, Control_c, 0, 64, 70
2, 61186, Note_on_c, 0, 67, 48
2, 61201, Control_c, 0, 64, 70
2, 61215, Note_on_c, 0, 68, 0
2, 61240, Control_c, 0, 64, 68
2, 61259, Control_c, 0, 64, 66
2, 61278, Control_c, 0, 64, 61
2, 61292, Note_on_c, 0, 73, 0
2, 61298, Control_c, 0, 64, 56
2, 61316, Control_c, 0, 64, 54
2, 61336, Control_c, 0, 64, 55
2, 61355, Control_c, 0, 64, 57
2, 61375, Control_c, 0, 64, 59
2, 61393, Control_c, 0, 64, 60
2, 61413, Control_c, 0, 64, 61
2, 61431, Note_on_c, 0, 53, 42
2, 61432, Control_c, 0, 64, 61
2, 61451, Control_c, 0, 64, 62
2, 61470, Control_c, 0, 64, 63
2, 61476, Note_on_c, 0, 51, 0
2, 61490, Control_c, 0, 64, 63
2, 61509, Control_c, 0, 64, 64
2, 61547, Control_c, 0, 64, 63
2, 61653, Note_on_c, 0, 75, 53
2, 61662, Control_c, 0, 64, 64
2, 61664, Note_on_c, 0, 53, 0
2, 61681, Control_c, 0, 64, 64
2, 61695, Note_on_c, 0, 55, 39
2, 61720, Control_c, 0, 64, 63
2, 61739, Control_c, 0, 64, 61
2, 61758, Control_c, 0, 64, 59
2, 61796, Control_c, 0, 64, 61
2, 61816, Control_c, 0, 64, 62
2, 61835, Control_c, 0, 64, 63
2, 61873, Control_c, 0, 64, 64
2, 61893, Control_c, 0, 64, 65
2, 61905, Note_on_c, 0, 51, 44
2, 61906, Note_on_c, 0, 55, 0
2, 61912, Control_c, 0, 64, 65
2, 62084, Control_c, 0, 64, 66
2, 62104, Control_c, 0, 64, 67
2, 62116, Note_on_c, 0, 55, 32
2, 62123, Control_c, 0, 64, 67
2, 62132, Note_on_c, 0, 73, 61
2, 62142, Control_c, 0, 64, 64
2, 62161, Control_c, 0, 64, 58
2, 62179, Note_on_c, 0, 51, 0
2, 62181, Control_c, 0, 64, 55
2, 62200, Control_c, 0, 64, 56
2, 62219, Control_c, 0, 64, 60
2, 62238, Control_c, 0, 64, 64
2, 62250, Note_on_c, 0, 67, 0
2, 62258, Control_c, 0, 64, 66
2, 62276, Control_c, 0, 64, 69
2, 62296, Control_c, 0, 64, 70
2, 62315, Control_c, 0, 64, 71
2, 62317, Note_on_c, 0, 75, 0
2, 62335, Control_c, 0, 64, 71
2, 62344, Note_on_c, 0, 55, 0
2, 62373, Control_c, 0, 64, 71
2, 62387, Note_on_c, 0, 58, 43
2, 62411, Control_c, 0, 64, 70
2, 62430, Control_c, 0, 64, 70
2, 62450, Control_c, 0, 64, 69
2, 62469, Control_c, 0, 64, 69
2, 62507, Control_c, 0, 64, 68
2, 62564, Control_c, 0, 64, 68
2, 62584, Control_c, 0, 64, 67
2, 62622, Note_on_c, 0, 56, 44
2, 62642, Note_on_c, 0, 58, 0
2, 62652, Note_on_c, 0, 71, 53
2, 62666, Note_on_c, 0, 68, 43
2, 62680, Control_c, 0, 64, 65
2, 62699, Control_c, 0, 64, 62
2, 62718, Control_c, 0, 64, 55
2, 62738, Control_c, 0, 64, 49
2, 62756, Control_c, 0, 64, 48
2, 62776, Control_c, 0, 64, 50
2, 62795, Control_c, 0, 64, 57
2, 62815, Control_c, 0, 64, 62
2, 62833, Control_c, 0, 64, 63
2, 62853, Control_c, 0, 64, 63
2, 62872, Control_c, 0, 64, 64
2, 62884, Note_on_c, 0, 68, 0
2, 62891, Control_c, 0, 64, 64
2, 62910, Control_c, 0, 64, 65
2, 62916, Note_on_c, 0, 70, 59
2, 62921, Note_on_c, 0, 58, 44
2, 62955, Note_on_c, 0, 73, 0
2, 62975, Note_on_c, 0, 71, 0
2, 62985, Note_on_c, 0, 56, 0
2, 63010, Control_c, 0, 64, 64
2, 63124, Note_on_c, 0, 58, 0
2, 63143, Note_on_c, 0, 68, 61
2, 63150, Note_on_c, 0, 59, 50
2, 63159, Control_c, 0, 64, 64
2, 63167, Note_on_c, 0, 70, 0
2, 63217, Control_c, 0, 64, 63
2, 63371, Note_on_c, 0, 51, 45
2, 63380, Note_on_c, 0, 71, 63
2, 63428, Control_c, 0, 64, 63
2, 63446, Control_c, 0, 64, 62
2, 63466, Control_c, 0, 64, 61
2, 63485, Control_c, 0, 64, 60
2, 63492, Note_on_c, 0, 68, 0
2, 63518, Note_on_c, 0, 59, 0
2, 63523, Control_c, 0, 64, 60
2, 63562, Control_c, 0, 64, 61
2, 63581, Control_c, 0, 64, 61
2, 63595, Note_on_c, 0, 52, 48
2, 63617, Note_on_c, 0, 73, 65
2, 63620, Control_c, 0, 64, 62
2, 63692, Note_on_c, 0, 51, 0
2, 63713, Note_on_c, 0, 71, 0
2, 63838, Note_on_c, 0, 52, 0
2, 63840, Note_on_c, 0, 56, 52
2, 63850, Note_on_c, 0, 76, 67
2, 63869, Control_c, 0, 64, 61
2, 63885, Note_on_c, 0, 73, 0
2, 63966, Control_c, 0, 64, 62
2, 64075, Note_on_c, 0, 56, 0
2, 64097, Note_on_c, 0, 54, 47
2, 64110, Note_on_c, 0, 70, 55
2, 64167, Note_on_c, 0, 76, 0
2, 64216, Control_c, 0, 64, 61
2, 64235, Control_c, 0, 64, 59
2, 64255, Control_c, 0, 64, 57
2, 64273, Control_c, 0, 64, 55
2, 64350, Control_c, 0, 64, 55
2, 64356, Note_on_c, 0, 56, 55
2, 64360, Note_on_c, 0, 68, 65
2, 64361, Note_on_c, 0, 54, 0
2, 64370, Control_c, 0, 64, 56
2, 64389, Control_c, 0, 64, 58
2, 64407, Control_c, 0, 64, 59
2, 64427, Control_c, 0, 64, 59
2, 64444, Note_on_c, 0, 70, 0
2, 64484, Control_c, 0, 64, 60
2, 64504, Control_c, 0, 64, 61
2, 64523, Control_c, 0, 64, 61
2, 64581, Control_c, 0, 64, 62
2, 64585, Note_on_c, 0, 56, 0
2, 64598, Note_on_c, 0, 66, 59
2, 64602, Note_on_c, 0, 58, 53
2, 64604, Note_on_c, 0, 68, 0
2, 64753, Control_c, 0, 64, 62
2, 64773, Control_c, 0, 64, 63
2, 64803, Note_on_c, 0, 70, 67
2, 64810, Note_on_c, 0, 49, 54
2, 64830, Control_c, 0, 64, 61
2, 64850, Control_c, 0, 64, 57
2, 64860, Note_on_c, 0, 58, 0
2, 64869, Control_c, 0, 64, 52
2, 64887, Control_c, 0, 64, 50
2, 64907, Control_c, 0, 64, 51
2, 64926, Control_c, 0, 64, 56
2, 64945, Control_c, 0, 64, 60
2, 64964, Control_c, 0, 64, 60
2, 64984, Control_c, 0, 64, 61
2, 65003, Control_c, 0, 64, 62
2, 65018, Note_on_c, 0, 66, 0
2, 65022, Control_c, 0, 64, 63
2, 65035, Note_on_c, 0, 51, 53
2, 65041, Control_c, 0, 64, 63
2, 65050, Note_on_c, 0, 71, 68
2, 65084, Note_on_c, 0, 49, 0
2, 65193, Note_on_c, 0, 70, 0
2, 65273, Note_on_c, 0, 54, 58
2, 65281, Note_on_c, 0, 75, 70
2, 65285, Note_on_c, 0, 51, 0
2, 65310, Control_c, 0, 64, 63
2, 65328, Note_on_c, 0, 71, 0
2, 65367, Control_c, 0, 64, 63
2, 65387, Control_c, 0, 64, 64
2, 65425, Control_c, 0, 64, 63
2, 65444, Control_c, 0, 64, 61
2, 65464, Control_c, 0, 64, 56
2, 65483, Control_c, 0, 64, 51
2, 65502, Control_c, 0, 64, 50
2, 65504, Note_on_c, 0, 68, 65
2, 65505, Note_on_c, 0, 52, 57
2, 65520, Note_on_c, 0, 54, 0
2, 65521, Control_c, 0, 64, 51
2, 65541, Control_c, 0, 64, 55
2, 65543, Note_on_c, 0, 75, 0
2, 65560, Control_c, 0, 64, 57
2, 65579, Control_c, 0, 64, 59
2, 65598, Control_c, 0, 64, 61
2, 65618, Control_c, 0, 64, 62
2, 65636, Control_c, 0, 64, 63
2, 65713, Control_c, 0, 64, 63
2, 65738, Note_on_c, 0, 75, 69
2, 65752, Control_c, 0, 64, 63
2, 65771, Note_on_c, 0, 54, 59
2, 65784, Note_on_c, 0, 52, 0
2, 65823, Note_on_c, 0, 68, 0
2, 65986, Note_on_c, 0, 54, 0
2, 65987, Note_on_c, 0, 56, 58
2, 65987, Note_on_c, 0, 73, 73
2, 66048, Note_on_c, 0, 75, 0
2, 66062, Control_c, 0, 64, 62
2, 66158, Control_c, 0, 64, 62
2, 66177, Control_c, 0, 64, 60
2, 66196, Control_c, 0, 64, 58
2, 66208, Note_on_c, 0, 71, 71
2, 66212, Note_on_c, 0, 73, 0
2, 66215, Control_c, 0, 64, 56
2, 66218, Note_on_c, 0, 47, 58
2, 66226, Note_on_c, 0, 56, 0
2, 66235, Control_c, 0, 64, 53
2, 66253, Control_c, 0, 64, 53
2, 66292, Control_c, 0, 64, 55
2, 66312, Control_c, 0, 64, 56
2, 66330, Control_c, 0, 64, 57
2, 66350, Control_c, 0, 64, 59
2, 66369, Control_c, 0, 64, 61
2, 66388, Control_c, 0, 64, 62
2, 66427, Control_c, 0, 64, 62
2, 66440, Note_on_c, 0, 70, 73
2, 66441, Note_on_c, 0, 49, 60
2, 66446, Control_c, 0, 64, 63
2, 66465, Control_c, 0, 64, 64
2, 66484, Control_c, 0, 64, 64
2, 66498, Note_on_c, 0, 71, 0
2, 66525, Note_on_c, 0, 47, 0
2, 66561, Control_c, 0, 64, 64
2, 66580, Control_c, 0, 64, 63
2, 66599, Control_c, 0, 64, 61
2, 66618, Control_c, 0, 64, 60
2, 66638, Control_c, 0, 64, 60
2, 66657, Control_c, 0, 64, 61
2, 66659, Note_on_c, 0, 68, 71
2, 66667, Note_on_c, 0, 52, 60
2, 66676, Control_c, 0, 64, 62
2, 66686, Note_on_c, 0, 49, 0
2, 66748, Note_on_c, 0, 70, 0
2, 66753, Control_c, 0, 64, 62
2, 66772, Control_c, 0, 64, 63
2, 66849, Control_c, 0, 64, 62
2, 66868, Control_c, 0, 64, 61
2, 66887, Control_c, 0, 64, 58
2, 66907, Control_c, 0, 64, 54
2, 66909, Note_on_c, 0, 67, 66
2, 66912, Note_on_c, 0, 51, 59
2, 66926, Control_c, 0, 64, 53
2, 66928, Note_on_c, 0, 52, 0
2, 66939, Note_on_c, 0, 68, 0
2, 66964, Control_c, 0, 64, 54
2, 66984, Control_c, 0, 64, 56
2, 67003, Control_c, 0, 64, 56
2, 67022, Control_c, 0, 64, 58
2, 67041, Control_c, 0, 64, 60
2, 67060, Control_c, 0, 64, 61
2, 67079, Control_c, 0, 64, 61
2, 67137, Control_c, 0, 64, 62
2, 67153, Note_on_c, 0, 53, 59
2, 67153, Note_on_c, 0, 68, 73
2, 67156, Control_c, 0, 64, 62
2, 67194, Note_on_c, 0, 51, 0
2, 67233, Control_c, 0, 64, 63
2, 67267, Note_on_c, 0, 67, 0
2, 67290, Control_c, 0, 64, 61
2, 67310, Control_c, 0, 64, 60
2, 67329, Control_c, 0, 64, 58
2, 67348, Control_c, 0, 64, 57
2, 67406, Control_c, 0, 64, 57
2, 67410, Note_on_c, 0, 55, 47
2, 67417, Note_on_c, 0, 53, 0
2, 67424, Note_on_c, 0, 70, 72
2, 67425, Control_c, 0, 64, 58
2, 67444, Control_c, 0, 64, 59
2, 67464, Control_c, 0, 64, 60
2, 67483, Control_c, 0, 64, 61
2, 67485, Note_on_c, 0, 68, 0
2, 67559, Control_c, 0, 64, 60
2, 67578, Control_c, 0, 64, 60
2, 67598, Control_c, 0, 64, 58
2, 67617, Control_c, 0, 64, 56
2, 67636, Control_c, 0, 64, 55
2, 67665, Note_on_c, 0, 46, 48
2, 67672, Note_on_c, 0, 67, 60
2, 67675, Control_c, 0, 64, 56
2, 67693, Control_c, 0, 64, 57
2, 67699, Note_on_c, 0, 70, 0
2, 67732, Control_c, 0, 64, 58
2, 67753, Control_c, 0, 64, 59
2, 67771, Control_c, 0, 64, 60
2, 67791, Control_c, 0, 64, 61
2, 67810, Control_c, 0, 64, 61
2, 67829, Control_c, 0, 64, 62
2, 67840, Note_on_c, 0, 55, 0
2, 67868, Control_c, 0, 64, 62
2, 67923, Control_c, 0, 64, 62
2, 67923, Note_on_c, 0, 47, 49
2, 67930, Note_on_c, 0, 68, 63
2, 67943, Control_c, 0, 64, 61
2, 67996, Note_on_c, 0, 46, 0
2, 68000, Control_c, 0, 64, 61
2, 68053, Note_on_c, 0, 67, 0
2, 68057, Control_c, 0, 64, 62
2, 68096, Control_c, 0, 64, 62
2, 68158, Note_on_c, 0, 51, 51
2, 68165, Note_on_c, 0, 47, 0
2, 68173, Control_c, 0, 64, 62
2, 68204, Note_on_c, 0, 71, 66
2, 68269, Control_c, 0, 64, 61
2, 68423, Control_c, 0, 64, 62
2, 68431, Note_on_c, 0, 49, 50
2, 68458, Note_on_c, 0, 51, 0
2, 68460, Control_c, 0, 64, 62
2, 68480, Control_c, 0, 64, 58
2, 68499, Control_c, 0, 64, 51
2, 68518, Control_c, 0, 64, 47
2, 68519, Note_on_c, 0, 76, 63
2, 68544, Note_on_c, 0, 71, 0
2, 68557, Control_c, 0, 64, 52
2, 68576, Control_c, 0, 64, 59
2, 68595, Control_c, 0, 64, 63
2, 68614, Control_c, 0, 64, 65
2, 68634, Control_c, 0, 64, 66
2, 68653, Control_c, 0, 64, 69
2, 68672, Control_c, 0, 64, 72
2, 68691, Control_c, 0, 64, 75
2, 68713, Control_c, 0, 64, 78
2, 68731, Control_c, 0, 64, 79
2, 68751, Control_c, 0, 64, 80
2, 68780, Note_on_c, 0, 51, 45
2, 68789, Control_c, 0, 64, 81
2, 68802, Note_on_c, 0, 76, 0
2, 68808, Control_c, 0, 64, 81
2, 68836, Note_on_c, 0, 68, 0
2, 68850, Note_on_c, 0, 49, 0
2, 68865, Control_c, 0, 64, 82
2, 68961, Control_c, 0, 64, 82
2, 68980, Control_c, 0, 64, 83
2, 68999, Control_c, 0, 64, 85
2, 69028, Note_on_c, 0, 51, 0
2, 69038, Control_c, 0, 64, 80
2, 69042, Note_on_c, 0, 76, 72
2, 69057, Control_c, 0, 64, 69
2, 69064, Note_on_c, 0, 52, 46
2, 69068, Note_on_c, 0, 68, 47
2, 69076, Control_c, 0, 64, 57
2, 69095, Control_c, 0, 64, 53
2, 69115, Control_c, 0, 64, 54
2, 69133, Control_c, 0, 64, 61
2, 69153, Control_c, 0, 64, 65
2, 69172, Control_c, 0, 64, 70
2, 69192, Control_c, 0, 64, 75
2, 69210, Control_c, 0, 64, 82
2, 69230, Control_c, 0, 64, 87
2, 69249, Control_c, 0, 64, 90
2, 69268, Control_c, 0, 64, 93
2, 69273, Note_on_c, 0, 47, 58
2, 69287, Control_c, 0, 64, 94
2, 69307, Control_c, 0, 64, 95
2, 69326, Control_c, 0, 64, 96
2, 69357, Note_on_c, 0, 76, 0
2, 69364, Control_c, 0, 64, 96
2, 69371, Note_on_c, 0, 68, 0
2, 69403, Control_c, 0, 64, 97
2, 69422, Control_c, 0, 64, 98
2, 69441, Control_c, 0, 64, 100
2, 69460, Control_c, 0, 64, 108
2, 69479, Control_c, 0, 64, 127
2, 69518, Note_on_c, 0, 76, 74
2, 69526, Note_on_c, 0, 49, 66
2, 69534, Note_on_c, 0, 68, 66
2, 69537, Control_c, 0, 64, 101
2, 69549, Note_on_c, 0, 52, 0
2, 69556, Control_c, 0, 64, 70
2, 69575, Control_c, 0, 64, 51
2, 69595, Control_c, 0, 64, 39
2, 69613, Control_c, 0, 64, 41
2, 69615, Note_on_c, 0, 47, 0
2, 69633, Control_c, 0, 64, 59
2, 69652, Control_c, 0, 64, 67
2, 69670, Control_c, 0, 64, 77
2, 69688, Control_c, 0, 64, 95
2, 69708, Control_c, 0, 64, 127
2, 69760, Note_on_c, 0, 52, 64
2, 69799, Note_on_c, 0, 76, 0
2, 69829, Note_on_c, 0, 49, 0
2, 70003, Note_on_c, 0, 76, 75
2, 70010, Note_on_c, 0, 45, 53
2, 70013, Control_c, 0, 64, 110
2, 70016, Note_on_c, 0, 73, 68
2, 70033, Control_c, 0, 64, 78
2, 70051, Control_c, 0, 64, 63
2, 70071, Control_c, 0, 64, 42
2, 70090, Control_c, 0, 64, 18
2, 70109, Control_c, 0, 64, 9
2, 70128, Control_c, 0, 64, 15
2, 70148, Control_c, 0, 64, 44
2, 70167, Control_c, 0, 64, 61
2, 70176, Note_on_c, 0, 68, 0
2, 70186, Control_c, 0, 64, 65
2, 70205, Control_c, 0, 64, 66
2, 70225, Control_c, 0, 64, 68
2, 70243, Control_c, 0, 64, 70
2, 70259, Note_on_c, 0, 49, 72
2, 70263, Control_c, 0, 64, 74
2, 70282, Control_c, 0, 64, 80
2, 70282, Note_on_c, 0, 76, 0
2, 70302, Control_c, 0, 64, 87
2, 70320, Control_c, 0, 64, 93
2, 70333, Note_on_c, 0, 73, 0
2, 70339, Control_c, 0, 64, 94
2, 70359, Control_c, 0, 64, 95
2, 70362, Note_on_c, 0, 52, 0
2, 70377, Control_c, 0, 64, 96
2, 70391, Note_on_c, 0, 45, 0
2, 70397, Control_c, 0, 64, 96
2, 70416, Control_c, 0, 64, 98
2, 70436, Control_c, 0, 64, 101
2, 70454, Control_c, 0, 64, 106
2, 70474, Control_c, 0, 64, 113
2, 70493, Control_c, 0, 64, 115
2, 70504, Note_on_c, 0, 76, 79
2, 70507, Note_on_c, 0, 73, 70
2, 70509, Note_on_c, 0, 52, 64
2, 70510, Control_c, 0, 64, 97
2, 70528, Control_c, 0, 64, 76
2, 70548, Control_c, 0, 64, 61
2, 70567, Control_c, 0, 64, 17
2, 70586, Control_c, 0, 64, 0
2, 70648, Note_on_c, 0, 49, 0
2, 70658, Control_c, 0, 64, 47
2, 70676, Control_c, 0, 64, 64
2, 70696, Control_c, 0, 64, 67
2, 70735, Control_c, 0, 64, 68
2, 70751, Note_on_c, 0, 44, 75
2, 70753, Control_c, 0, 64, 69
2, 70762, Control_c, 0, 64, 72
2, 70772, Note_on_c, 0, 76, 0
2, 70781, Control_c, 0, 64, 76
2, 70800, Control_c, 0, 64, 79
2, 70818, Note_on_c, 0, 73, 0
2, 70820, Control_c, 0, 64, 80
2, 70897, Control_c, 0, 64, 81
2, 70902, Note_on_c, 0, 52, 0
2, 70954, Control_c, 0, 64, 80
2, 70992, Control_c, 0, 64, 80
2, 71012, Control_c, 0, 64, 79
2, 71018, Note_on_c, 0, 76, 79
2, 71024, Note_on_c, 0, 73, 73
2, 71031, Control_c, 0, 64, 76
2, 71038, Note_on_c, 0, 49, 81
2, 71051, Control_c, 0, 64, 68
2, 71069, Control_c, 0, 64, 56
2, 71088, Control_c, 0, 64, 0
2, 71185, Control_c, 0, 64, 26
2, 71203, Control_c, 0, 64, 61
2, 71223, Control_c, 0, 64, 67
2, 71242, Control_c, 0, 64, 72
2, 71261, Control_c, 0, 64, 76
2, 71263, Note_on_c, 0, 44, 0
2, 71280, Control_c, 0, 64, 78
2, 71286, Note_on_c, 0, 76, 0
2, 71300, Control_c, 0, 64, 79
2, 71319, Control_c, 0, 64, 82
2, 71327, Note_on_c, 0, 52, 80
2, 71338, Control_c, 0, 64, 84
2, 71357, Control_c, 0, 64, 85
2, 71375, Note_on_c, 0, 73, 0
2, 71377, Control_c, 0, 64, 86
2, 71472, Control_c, 0, 64, 85
2, 71531, Control_c, 0, 64, 85
2, 71549, Control_c, 0, 64, 84
2, 71549, Note_on_c, 0, 49, 0
2, 71568, Control_c, 0, 64, 82
2, 71588, Control_c, 0, 64, 81
2, 71606, Control_c, 0, 64, 80
2, 71626, Control_c, 0, 64, 79
2, 71645, Control_c, 0, 64, 77
2, 71665, Control_c, 0, 64, 74
2, 71683, Control_c, 0, 64, 70
2, 71703, Control_c, 0, 64, 67
2, 71722, Control_c, 0, 64, 65
2, 71741, Control_c, 0, 64, 63
2, 71744, Note_on_c, 0, 76, 72
2, 71756, Note_on_c, 0, 73, 66
2, 71760, Control_c, 0, 64, 62
2, 71776, Note_on_c, 0, 43, 56
2, 71780, Control_c, 0, 64, 60
2, 71799, Control_c, 0, 64, 57
2, 71818, Control_c, 0, 64, 51
2, 71837, Control_c, 0, 64, 43
2, 71857, Control_c, 0, 64, 19
2, 71875, Control_c, 0, 64, 0
2, 71882, Note_on_c, 0, 52, 0
2, 72106, Control_c, 0, 64, 13
2, 72125, Control_c, 0, 64, 32
2, 72145, Control_c, 0, 64, 34
2, 72183, Control_c, 0, 64, 35
2, 72189, Note_on_c, 0, 71, 66
2, 72202, Control_c, 0, 64, 40
2, 72221, Control_c, 0, 64, 45
2, 72240, Control_c, 0, 64, 45
2, 72260, Control_c, 0, 64, 46
2, 72279, Control_c, 0, 64, 50
2, 72283, Note_on_c, 0, 73, 0
2, 72298, Control_c, 0, 64, 57
2, 72317, Control_c, 0, 64, 59
2, 72337, Control_c, 0, 64, 58
2, 72375, Control_c, 0, 64, 59
2, 72452, Note_on_c, 0, 70, 68
2, 72474, Note_on_c, 0, 71, 0
2, 72678, Note_on_c, 0, 73, 70
2, 72682, Control_c, 0, 64, 59
2, 72701, Control_c, 0, 64, 60
2, 72720, Control_c, 0, 64, 61
2, 72740, Control_c, 0, 64, 61
2, 72770, Note_on_c, 0, 70, 0
2, 72817, Control_c, 0, 64, 62
2, 72835, Control_c, 0, 64, 61
2, 72894, Control_c, 0, 64, 62
2, 72912, Control_c, 0, 64, 62
2, 72929, Note_on_c, 0, 71, 70
2, 72932, Control_c, 0, 64, 63
2, 72970, Control_c, 0, 64, 61
2, 72989, Control_c, 0, 64, 57
2, 73008, Control_c, 0, 64, 47
2, 73028, Control_c, 0, 64, 35
2, 73034, Note_on_c, 0, 73, 0
2, 73046, Control_c, 0, 64, 32
2, 73066, Control_c, 0, 64, 37
2, 73085, Control_c, 0, 64, 54
2, 73105, Control_c, 0, 64, 62
2, 73123, Control_c, 0, 64, 64
2, 73143, Control_c, 0, 64, 65
2, 73162, Control_c, 0, 64, 67
2, 73181, Control_c, 0, 64, 69
2, 73185, Note_on_c, 0, 68, 69
2, 73200, Control_c, 0, 64, 72
2, 73220, Control_c, 0, 64, 75
2, 73233, Note_on_c, 0, 71, 0
2, 73239, Control_c, 0, 64, 77
2, 73277, Control_c, 0, 64, 78
2, 73315, Control_c, 0, 64, 78
2, 73335, Control_c, 0, 64, 79
2, 73367, Note_on_c, 0, 68, 0
2, 73374, Control_c, 0, 64, 79
2, 73412, Control_c, 0, 64, 78
2, 73431, Control_c, 0, 64, 78
2, 73450, Control_c, 0, 64, 76
2, 73469, Control_c, 0, 64, 74
2, 73488, Control_c, 0, 64, 72
2, 73510, Control_c, 0, 64, 71
2, 73510, Note_on_c, 0, 70, 72
2, 73528, Control_c, 0, 64, 70
2, 73548, Control_c, 0, 64, 69
2, 73567, Control_c, 0, 64, 69
2, 73586, Control_c, 0, 64, 68
2, 73605, Control_c, 0, 64, 68
2, 73625, Control_c, 0, 64, 67
2, 73644, Control_c, 0, 64, 65
2, 73663, Control_c, 0, 64, 61
2, 73682, Control_c, 0, 64, 56
2, 73702, Control_c, 0, 64, 47
2, 73720, Control_c, 0, 64, 36
2, 73740, Control_c, 0, 64, 27
2, 73759, Control_c, 0, 64, 21
2, 73797, Control_c, 0, 64, 24
2, 73817, Control_c, 0, 64, 30
2, 73830, Note_on_c, 0, 75, 66
2, 73836, Control_c, 0, 64, 35
2, 73855, Control_c, 0, 64, 39
2, 73874, Control_c, 0, 64, 45
2, 73886, Note_on_c, 0, 76, 0
2, 73894, Control_c, 0, 64, 53
2, 73913, Control_c, 0, 64, 54
2, 73970, Control_c, 0, 64, 56
2, 73990, Control_c, 0, 64, 59
2, 74008, Control_c, 0, 64, 61
2, 74047, Control_c, 0, 64, 61
2, 74066, Control_c, 0, 64, 62
2, 74077, Note_on_c, 0, 73, 74
2, 74085, Control_c, 0, 64, 63
2, 74105, Control_c, 0, 64, 64
2, 74135, Note_on_c, 0, 75, 0
2, 74182, Control_c, 0, 64, 64
2, 74297, Control_c, 0, 64, 65
2, 74316, Control_c, 0, 64, 65
2, 74335, Control_c, 0, 64, 65
2, 74337, Note_on_c, 0, 82, 78
2, 74339, Note_on_c, 0, 43, 0
2, 74354, Control_c, 0, 64, 62
2, 74360, Note_on_c, 0, 55, 50
2, 74374, Control_c, 0, 64, 54
2, 74393, Control_c, 0, 64, 47
2, 74412, Control_c, 0, 64, 47
2, 74431, Control_c, 0, 64, 52
2, 74450, Control_c, 0, 64, 57
2, 74470, Control_c, 0, 64, 58
2, 74488, Control_c, 0, 64, 59
2, 74508, Control_c, 0, 64, 60
2, 74527, Control_c, 0, 64, 61
2, 74546, Control_c, 0, 64, 62
2, 74565, Control_c, 0, 64, 62
2, 74585, Control_c, 0, 64, 61
2, 74586, Note_on_c, 0, 73, 0
2, 74600, Note_on_c, 0, 55, 0
2, 74601, Note_on_c, 0, 76, 74
2, 74602, Control_c, 0, 64, 58
2, 74617, Note_on_c, 0, 56, 59
2, 74621, Control_c, 0, 64, 51
2, 74640, Control_c, 0, 64, 46
2, 74679, Control_c, 0, 64, 50
2, 74698, Control_c, 0, 64, 54
2, 74713, Note_on_c, 0, 82, 0
2, 74717, Control_c, 0, 64, 57
2, 74737, Control_c, 0, 64, 60
2, 74755, Control_c, 0, 64, 62
2, 74775, Control_c, 0, 64, 64
2, 74794, Control_c, 0, 64, 64
2, 74832, Note_on_c, 0, 58, 58
2, 74842, Note_on_c, 0, 56, 0
2, 74845, Note_on_c, 0, 73, 79
2, 74882, Note_on_c, 0, 76, 0
2, 74928, Control_c, 0, 64, 64
2, 75025, Control_c, 0, 64, 63
2, 75027, Note_on_c, 0, 70, 0
2, 75104, Note_on_c, 0, 47, 48
2, 75130, Note_on_c, 0, 58, 0
2, 75159, Control_c, 0, 64, 62
2, 75175, Note_on_c, 0, 75, 70
2, 75178, Control_c, 0, 64, 57
2, 75192, Note_on_c, 0, 73, 0
2, 75197, Control_c, 0, 64, 46
2, 75217, Control_c, 0, 64, 32
2, 75235, Control_c, 0, 64, 27
2, 75255, Control_c, 0, 64, 27
2, 75274, Control_c, 0, 64, 39
2, 75294, Control_c, 0, 64, 54
2, 75312, Control_c, 0, 64, 59
2, 75332, Control_c, 0, 64, 61
2, 75351, Control_c, 0, 64, 62
2, 75370, Control_c, 0, 64, 63
2, 75389, Control_c, 0, 64, 63
2, 75408, Control_c, 0, 64, 64
2, 75428, Control_c, 0, 64, 64
2, 75435, Note_on_c, 0, 73, 67
2, 75466, Control_c, 0, 64, 64
2, 75620, Control_c, 0, 64, 63
2, 75668, Note_on_c, 0, 75, 0
2, 75673, Note_on_c, 0, 71, 70
2, 75681, Note_on_c, 0, 68, 50
2, 75719, Note_on_c, 0, 73, 0
2, 75792, Control_c, 0, 64, 64
2, 75888, Control_c, 0, 64, 63
2, 75913, Note_on_c, 0, 68, 0
2, 75920, Note_on_c, 0, 75, 67
2, 75944, Note_on_c, 0, 71, 0
2, 76042, Control_c, 0, 64, 63
2, 76080, Control_c, 0, 64, 62
2, 76169, Note_on_c, 0, 52, 60
2, 76173, Note_on_c, 0, 73, 62
2, 76187, Note_on_c, 0, 47, 0
2, 76195, Control_c, 0, 64, 62
2, 76215, Control_c, 0, 64, 58
2, 76234, Control_c, 0, 64, 47
2, 76254, Control_c, 0, 64, 40
2, 76267, Note_on_c, 0, 75, 0
2, 76272, Control_c, 0, 64, 39
2, 76311, Control_c, 0, 64, 44
2, 76330, Control_c, 0, 64, 54
2, 76349, Control_c, 0, 64, 60
2, 76368, Control_c, 0, 64, 63
2, 76389, Control_c, 0, 64, 64
2, 76407, Control_c, 0, 64, 64
2, 76417, Note_on_c, 0, 70, 66
2, 76453, Note_on_c, 0, 73, 0
2, 76465, Control_c, 0, 64, 65
2, 76484, Control_c, 0, 64, 64
2, 76522, Control_c, 0, 64, 64
2, 76657, Control_c, 0, 64, 63
2, 76674, Note_on_c, 0, 71, 61
2, 76675, Control_c, 0, 64, 61
2, 76675, Note_on_c, 0, 49, 61
2, 76689, Note_on_c, 0, 52, 0
2, 76695, Control_c, 0, 64, 51
2, 76708, Note_on_c, 0, 70, 0
2, 76714, Control_c, 0, 64, 24
2, 76734, Control_c, 0, 64, 0
2, 76791, Control_c, 0, 64, 31
2, 76810, Control_c, 0, 64, 57
2, 76829, Control_c, 0, 64, 64
2, 76848, Control_c, 0, 64, 65
2, 76868, Control_c, 0, 64, 66
2, 76944, Note_on_c, 0, 70, 70
2, 77021, Control_c, 0, 64, 65
2, 77023, Note_on_c, 0, 71, 0
2, 77098, Control_c, 0, 64, 65
2, 77137, Control_c, 0, 64, 64
2, 77194, Control_c, 0, 64, 63
2, 77206, Note_on_c, 0, 51, 62
2, 77210, Note_on_c, 0, 68, 70
2, 77214, Control_c, 0, 64, 60
2, 77230, Note_on_c, 0, 49, 0
2, 77232, Control_c, 0, 64, 48
2, 77252, Control_c, 0, 64, 21
2, 77271, Control_c, 0, 64, 0
2, 77294, Note_on_c, 0, 70, 0
2, 77348, Control_c, 0, 64, 34
2, 77366, Control_c, 0, 64, 57
2, 77386, Control_c, 0, 64, 63
2, 77405, Control_c, 0, 64, 64
2, 77463, Control_c, 0, 64, 65
2, 77482, Control_c, 0, 64, 66
2, 77485, Note_on_c, 0, 71, 67
2, 77501, Control_c, 0, 64, 66
2, 77544, Note_on_c, 0, 68, 0
2, 77578, Control_c, 0, 64, 66
2, 77694, Control_c, 0, 64, 65
2, 77712, Control_c, 0, 64, 65
2, 77731, Control_c, 0, 64, 64
2, 77751, Control_c, 0, 64, 64
2, 77758, Note_on_c, 0, 39, 61
2, 77758, Note_on_c, 0, 51, 0
2, 77780, Note_on_c, 0, 70, 68
2, 77808, Control_c, 0, 64, 63
2, 77828, Control_c, 0, 64, 63
2, 77846, Control_c, 0, 64, 59
2, 77863, Note_on_c, 0, 71, 0
2, 77866, Control_c, 0, 64, 46
2, 77885, Control_c, 0, 64, 15
2, 77905, Control_c, 0, 64, 0
2, 77981, Control_c, 0, 64, 51
2, 78000, Control_c, 0, 64, 63
2, 78020, Control_c, 0, 64, 66
2, 78077, Control_c, 0, 64, 66
2, 78097, Note_on_c, 0, 67, 59
2, 78103, Note_on_c, 0, 70, 0
2, 78174, Control_c, 0, 64, 66
2, 78309, Control_c, 0, 64, 65
2, 78327, Control_c, 0, 64, 65
2, 78347, Control_c, 0, 64, 64
2, 78366, Control_c, 0, 64, 64
2, 78385, Control_c, 0, 64, 63
2, 78393, Note_on_c, 0, 44, 45
2, 78424, Control_c, 0, 64, 63
2, 78461, Control_c, 0, 64, 63
2, 78473, Note_on_c, 0, 68, 67
2, 78480, Control_c, 0, 64, 63
2, 78500, Control_c, 0, 64, 62
2, 78519, Control_c, 0, 64, 61
2, 78535, Note_on_c, 0, 67, 0
2, 78538, Control_c, 0, 64, 58
2, 78543, Note_on_c, 0, 39, 0
2, 78557, Control_c, 0, 64, 52
2, 78577, Control_c, 0, 64, 46
2, 78595, Control_c, 0, 64, 43
2, 78615, Control_c, 0, 64, 43
2, 78634, Control_c, 0, 64, 47
2, 78654, Control_c, 0, 64, 52
2, 78672, Control_c, 0, 64, 55
2, 78691, Control_c, 0, 64, 57
2, 78711, Control_c, 0, 64, 59
2, 78730, Control_c, 0, 64, 60
2, 78774, Note_on_c, 0, 46, 51
2, 78867, Note_on_c, 0, 44, 0
2, 79030, Note_on_c, 0, 66, 66
2, 79046, Note_on_c, 0, 46, 0
2, 79056, Note_on_c, 0, 48, 55
2, 79075, Control_c, 0, 64, 60
2, 79095, Control_c, 0, 64, 61
2, 79287, Note_on_c, 0, 44, 51
2, 79328, Note_on_c, 0, 48, 0
2, 79383, Control_c, 0, 64, 60
2, 79440, Control_c, 0, 64, 60
2, 79539, Note_on_c, 0, 48, 52
2, 79555, Control_c, 0, 64, 59
2, 79559, Note_on_c, 0, 63, 59
2, 79594, Control_c, 0, 64, 58
2, 79614, Control_c, 0, 64, 58
2, 79632, Control_c, 0, 64, 57
2, 79674, Note_on_c, 0, 44, 0
2, 79748, Control_c, 0, 64, 57
2, 79808, Note_on_c, 0, 51, 60
2, 79825, Control_c, 0, 64, 56
2, 79997, Control_c, 0, 64, 56
2, 80007, Note_on_c, 0, 48, 0
2, 80105, Note_on_c, 0, 61, 54
2, 80125, Note_on_c, 0, 54, 57
2, 80204, Note_on_c, 0, 51, 0
2, 80259, Note_on_c, 0, 63, 0
2, 80267, Control_c, 0, 64, 55
2, 80356, Note_on_c, 0, 66, 0
2, 80397, Note_on_c, 0, 60, 59
2, 80415, Note_on_c, 0, 61, 0
2, 80611, Control_c, 0, 64, 55
2, 80649, Note_on_c, 0, 52, 61
2, 80657, Note_on_c, 0, 61, 59
2, 80713, Note_on_c, 0, 60, 0
2, 80823, Control_c, 0, 64, 55
2, 80823, Note_on_c, 0, 54, 0
2, 80880, Control_c, 0, 64, 56
2, 80915, Note_on_c, 0, 63, 64
2, 80938, Control_c, 0, 64, 56
2, 81019, Note_on_c, 0, 61, 0
2, 81034, Control_c, 0, 64, 57
2, 81196, Note_on_c, 0, 64, 61
2, 81197, Note_on_c, 0, 51, 58
2, 81206, Control_c, 0, 64, 56
2, 81233, Note_on_c, 0, 63, 0
2, 81327, Note_on_c, 0, 52, 0
2, 81502, Note_on_c, 0, 66, 65
2, 81576, Note_on_c, 0, 64, 0
2, 81869, Note_on_c, 0, 64, 62
2, 81901, Note_on_c, 0, 49, 51
2, 82058, Note_on_c, 0, 51, 0
2, 82186, Note_on_c, 0, 63, 61
2, 82225, Note_on_c, 0, 64, 0
2, 82274, Note_on_c, 0, 66, 0
2, 82469, Note_on_c, 0, 61, 55
2, 82525, Note_on_c, 0, 63, 0
2, 82752, Note_on_c, 0, 64, 56
2, 82808, Note_on_c, 0, 61, 0
2, 83050, Control_c, 0, 64, 57
2, 83059, Note_on_c, 0, 61, 49
2, 83223, Note_on_c, 0, 64, 0
2, 83383, Note_on_c, 0, 58, 55
2, 83454, Control_c, 0, 64, 56
2, 83489, Note_on_c, 0, 61, 0
2, 83665, Control_c, 0, 64, 56
2, 83775, Note_on_c, 0, 55, 50
2, 83818, Control_c, 0, 64, 55
2, 83971, Control_c, 0, 64, 55
2, 84068, Control_c, 0, 64, 54
2, 84086, Control_c, 0, 64, 54
2, 84087, Note_on_c, 0, 58, 0
2, 84106, Control_c, 0, 64, 53
2, 84115, Note_on_c, 0, 64, 55
2, 84145, Control_c, 0, 64, 53
2, 84163, Control_c, 0, 64, 52
2, 84201, Control_c, 0, 64, 52
2, 84220, Control_c, 0, 64, 51
2, 84239, Control_c, 0, 64, 50
2, 84259, Control_c, 0, 64, 50
2, 84278, Control_c, 0, 64, 49
2, 84297, Control_c, 0, 64, 49
2, 84316, Control_c, 0, 64, 48
2, 84336, Control_c, 0, 64, 47
2, 84355, Control_c, 0, 64, 46
2, 84374, Control_c, 0, 64, 45
2, 84393, Control_c, 0, 64, 44
2, 84412, Control_c, 0, 64, 43
2, 84431, Control_c, 0, 64, 41
2, 84450, Control_c, 0, 64, 38
2, 84463, Note_on_c, 0, 63, 58
2, 84470, Control_c, 0, 64, 34
2, 84489, Control_c, 0, 64, 29
2, 84498, Note_on_c, 0, 56, 49
2, 84508, Control_c, 0, 64, 21
2, 84527, Control_c, 0, 64, 0
2, 84635, Note_on_c, 0, 55, 0
2, 84642, Note_on_c, 0, 64, 0
2, 84859, Note_on_c, 0, 61, 58
2, 84957, Note_on_c, 0, 63, 0
2, 85372, Note_on_c, 0, 60, 49
2, 85413, Note_on_c, 0, 58, 32
2, 85448, Note_on_c, 0, 61, 0
2, 85542, Note_on_c, 0, 56, 0
2, 85658, Control_c, 0, 64, 9
2, 85676, Control_c, 0, 64, 18
2, 85696, Control_c, 0, 64, 21
2, 85715, Control_c, 0, 64, 22
2, 85734, Control_c, 0, 64, 24
2, 85753, Control_c, 0, 64, 25
2, 85773, Control_c, 0, 64, 27
2, 85792, Control_c, 0, 64, 27
2, 85888, Control_c, 0, 64, 25
2, 85897, Note_on_c, 0, 61, 55
2, 85907, Control_c, 0, 64, 22
2, 85927, Control_c, 0, 64, 20
2, 85945, Control_c, 0, 64, 18
2, 85965, Control_c, 0, 64, 17
2, 85985, Note_on_c, 0, 60, 0
2, 86024, Control_c, 0, 64, 22
2, 86044, Control_c, 0, 64, 36
2, 86062, Control_c, 0, 64, 49
2, 86081, Control_c, 0, 64, 56
2, 86101, Control_c, 0, 64, 59
2, 86120, Control_c, 0, 64, 62
2, 86139, Control_c, 0, 64, 63
2, 86155, Note_on_c, 0, 49, 0
2, 86158, Control_c, 0, 64, 65
2, 86178, Control_c, 0, 64, 66
2, 86197, Control_c, 0, 64, 67
2, 86216, Control_c, 0, 64, 68
2, 86235, Control_c, 0, 64, 69
2, 86255, Control_c, 0, 64, 71
2, 86273, Control_c, 0, 64, 73
2, 86293, Control_c, 0, 64, 75
2, 86312, Control_c, 0, 64, 76
2, 86363, Note_on_c, 0, 58, 0
2, 86370, Control_c, 0, 64, 76
2, 86389, Control_c, 0, 64, 78
2, 86408, Control_c, 0, 64, 79
2, 86427, Control_c, 0, 64, 79
2, 86581, Control_c, 0, 64, 79
2, 86619, Control_c, 0, 64, 78
2, 86638, Control_c, 0, 64, 78
2, 86677, Control_c, 0, 64, 77
2, 86696, Control_c, 0, 64, 76
2, 86715, Control_c, 0, 64, 74
2, 86735, Control_c, 0, 64, 72
2, 86753, Control_c, 0, 64, 70
2, 86767, Note_on_c, 0, 63, 47
2, 86773, Control_c, 0, 64, 68
2, 86792, Control_c, 0, 64, 66
2, 86803, Note_on_c, 0, 60, 38
2, 86812, Control_c, 0, 64, 64
2, 86821, Note_on_c, 0, 44, 34
2, 86830, Control_c, 0, 64, 64
2, 86850, Control_c, 0, 64, 63
2, 86869, Control_c, 0, 64, 63
2, 86888, Control_c, 0, 64, 62
2, 86907, Control_c, 0, 64, 60
2, 86927, Control_c, 0, 64, 59
2, 86947, Control_c, 0, 64, 59
2, 86966, Control_c, 0, 64, 57
2, 86985, Control_c, 0, 64, 54
2, 86994, Note_on_c, 0, 61, 0
2, 87005, Control_c, 0, 64, 49
2, 87023, Control_c, 0, 64, 41
2, 87043, Control_c, 0, 64, 29
2, 87062, Control_c, 0, 64, 0
2, 87293, Control_c, 0, 64, 15
2, 87311, Control_c, 0, 64, 19
2, 87331, Control_c, 0, 64, 20
2, 87350, Control_c, 0, 64, 21
2, 87369, Control_c, 0, 64, 31
2, 87388, Control_c, 0, 64, 41
2, 87408, Control_c, 0, 64, 43
2, 87465, Control_c, 0, 64, 45
2, 87485, Control_c, 0, 64, 49
2, 87503, Control_c, 0, 64, 50
2, 87561, Control_c, 0, 64, 53
2, 87580, Control_c, 0, 64, 56
2, 87599, Control_c, 0, 64, 56
2, 87619, Control_c, 0, 64, 56
2, 87637, Control_c, 0, 64, 55
2, 87657, Control_c, 0, 64, 56
2, 87676, Control_c, 0, 64, 57
2, 87696, Control_c, 0, 64, 58
2, 87753, Control_c, 0, 64, 58
2, 87773, Control_c, 0, 64, 59
2, 87791, Control_c, 0, 64, 60
2, 87868, Control_c, 0, 64, 61
2, 87888, Control_c, 0, 64, 61
2, 87966, Control_c, 0, 64, 62
2, 87984, Control_c, 0, 64, 62
2, 88041, Control_c, 0, 64, 63
2, 88079, Control_c, 0, 64, 63
2, 88117, Control_c, 0, 64, 64
2, 88176, Control_c, 0, 64, 64
2, 88233, Control_c, 0, 64, 65
2, 88291, Control_c, 0, 64, 65
2, 88310, Control_c, 0, 64, 66
2, 88348, Control_c, 0, 64, 66
2, 88387, Control_c, 0, 64, 67
2, 88406, Control_c, 0, 64, 68
2, 88425, Control_c, 0, 64, 68
2, 88445, Control_c, 0, 64, 69
2, 88463, Control_c, 0, 64, 70
2, 88483, Control_c, 0, 64, 71
2, 88502, Control_c, 0, 64, 72
2, 88521, Control_c, 0, 64, 73
2, 88540, Control_c, 0, 64, 74
2, 88559, Control_c, 0, 64, 75
2, 88579, Control_c, 0, 64, 76
2, 88597, Control_c, 0, 64, 78
2, 88617, Control_c, 0, 64, 79
2, 88636, Control_c, 0, 64, 79
2, 88656, Control_c, 0, 64, 80
2, 88674, Control_c, 0, 64, 80
2, 88694, Control_c, 0, 64, 82
2, 88713, Control_c, 0, 64, 83
2, 88733, Control_c, 0, 64, 84
2, 88751, Control_c, 0, 64, 84
2, 88771, Control_c, 0, 64, 85
2, 88809, Control_c, 0, 64, 85
2, 88848, Control_c, 0, 64, 86
2, 89288, Control_c, 0, 64, 85
2, 89441, Control_c, 0, 64, 85
2, 89749, Control_c, 0, 64, 84
2, 89883, Control_c, 0, 64, 84
2, 89940, Control_c, 0, 64, 83
2, 89997, Control_c, 0, 64, 83
2, 90074, Control_c, 0, 64, 82
2, 90112, Control_c, 0, 64, 82
2, 90151, Control_c, 0, 64, 81
2, 90171, Control_c, 0, 64, 81
2, 90201, Note_on_c, 0, 44, 0
2, 90209, Control_c, 0, 64, 80
2, 90228, Control_c, 0, 64, 80
2, 90248, Control_c, 0, 64, 79
2, 90254, Note_on_c, 0, 60, 0
2, 90266, Control_c, 0, 64, 79
2, 90286, Control_c, 0, 64, 78
2, 90305, Control_c, 0, 64, 78
2, 90324, Control_c, 0, 64, 77
2, 90358, Note_on_c, 0, 68, 0
2, 90362, Control_c, 0, 64, 77
2, 90382, Control_c, 0, 64, 76
2, 90420, Control_c, 0, 64, 76
2, 90458, Control_c, 0, 64, 75
2, 90516, Control_c, 0, 64, 75
2, 90535, Control_c, 0, 64, 74
2, 90554, Control_c, 0, 64, 74
2, 90574, Control_c, 0, 64, 73
2, 90580, Note_on_c, 0, 63, 0
2, 90592, Control_c, 0, 64, 73
2, 90631, Control_c, 0, 64, 72
2, 90651, Control_c, 0, 64, 72
2, 90669, Control_c, 0, 64, 70
2, 90689, Control_c, 0, 64, 69
2, 90708, Control_c, 0, 64, 68
2, 90766, Control_c, 0, 64, 68
2, 90786, Control_c, 0, 64, 67
2, 90805, Control_c, 0, 64, 66
2, 90881, Control_c, 0, 64, 66
2, 90901, Control_c, 0, 64, 65
2, 90957, Control_c, 0, 64, 65
2, 90996, Control_c, 0, 64, 64
2, 91015, Control_c, 0, 64, 64
2, 91054, Control_c, 0, 64, 63
2, 91111, Control_c, 0, 64, 63
2, 91131, Control_c, 0, 64, 62
2, 91149, Control_c, 0, 64, 62
2, 91226, Control_c, 0, 64, 61
2, 91246, Control_c, 0, 64, 61
2, 91322, Control_c, 0, 64, 60
2, 91342, Control_c, 0, 64, 59
2, 91360, Control_c, 0, 64, 59
2, 91437, Control_c, 0, 64, 58
2, 91649, Control_c, 0, 64, 59
2, 91898, Control_c, 0, 64, 59
2, 92242, Control_c, 0, 64, 60
2, 92627, Control_c, 0, 64, 60
2, 93677, Note_on_c, 0, 56, 48
2, 94896, Note_on_c, 0, 55, 41
2, 95037, Note_on_c, 0, 56, 0
2, 95276, Control_c, 0, 64, 60
2, 95373, Control_c, 0, 64, 59
2, 95417, Note_on_c, 0, 56, 50
2, 95465, Note_on_c, 0, 55, 0
2, 95565, Control_c, 0, 64, 59
2, 95681, Control_c, 0, 64, 58
2, 95685, Note_on_c, 0, 58, 59
2, 95720, Control_c, 0, 64, 58
2, 95739, Control_c, 0, 64, 57
2, 95753, Note_on_c, 0, 56, 0
2, 95758, Control_c, 0, 64, 57
2, 95778, Control_c, 0, 64, 56
2, 95797, Control_c, 0, 64, 55
2, 95835, Control_c, 0, 64, 54
2, 95855, Control_c, 0, 64, 53
2, 95873, Control_c, 0, 64, 52
2, 95893, Control_c, 0, 64, 51
2, 95912, Control_c, 0, 64, 51
2, 95932, Control_c, 0, 64, 50
2, 95950, Control_c, 0, 64, 50
2, 95970, Control_c, 0, 64, 48
2, 95989, Control_c, 0, 64, 47
2, 95995, Note_on_c, 0, 59, 53
2, 96008, Control_c, 0, 64, 45
2, 96011, Note_on_c, 0, 58, 0
2, 96027, Control_c, 0, 64, 44
2, 96047, Control_c, 0, 64, 43
2, 96066, Control_c, 0, 64, 41
2, 96085, Control_c, 0, 64, 40
2, 96104, Control_c, 0, 64, 39
2, 96123, Control_c, 0, 64, 38
2, 96143, Control_c, 0, 64, 38
2, 96161, Control_c, 0, 64, 37
2, 96238, Control_c, 0, 64, 37
2, 96277, Control_c, 0, 64, 36
2, 96399, Note_on_c, 0, 59, 0
2, 96488, Control_c, 0, 64, 36
2, 96531, Note_on_c, 0, 58, 46
2, 96717, Control_c, 0, 64, 36
2, 96737, Control_c, 0, 64, 37
2, 96756, Control_c, 0, 64, 37
2, 96775, Control_c, 0, 64, 38
2, 96794, Control_c, 0, 64, 39
2, 96814, Control_c, 0, 64, 40
2, 96832, Control_c, 0, 64, 41
2, 96852, Control_c, 0, 64, 41
2, 96871, Control_c, 0, 64, 42
2, 96929, Control_c, 0, 64, 42
2, 96986, Control_c, 0, 64, 43
2, 97015, Note_on_c, 0, 58, 0
2, 97083, Note_on_c, 0, 56, 47
2, 97120, Control_c, 0, 64, 43
2, 97140, Control_c, 0, 64, 44
2, 97178, Control_c, 0, 64, 44
2, 97217, Control_c, 0, 64, 45
2, 97255, Control_c, 0, 64, 45
2, 97294, Control_c, 0, 64, 46
2, 97332, Control_c, 0, 64, 46
2, 97371, Control_c, 0, 64, 47
2, 97409, Control_c, 0, 64, 47
2, 97428, Control_c, 0, 64, 48
2, 97466, Control_c, 0, 64, 48
2, 97582, Control_c, 0, 64, 49
2, 97584, Note_on_c, 0, 56, 0
2, 97620, Control_c, 0, 64, 49
2, 97638, Control_c, 0, 64, 50
2, 97641, Note_on_c, 0, 62, 51
2, 97658, Control_c, 0, 64, 50
2, 97718, Control_c, 0, 64, 51
2, 97776, Control_c, 0, 64, 51
2, 98005, Control_c, 0, 64, 52
2, 98082, Control_c, 0, 64, 52
2, 98220, Note_on_c, 0, 63, 38
2, 98236, Control_c, 0, 64, 53
2, 98275, Note_on_c, 0, 62, 0
2, 98485, Control_c, 0, 64, 53
2, 98504, Control_c, 0, 64, 54
2, 98543, Control_c, 0, 64, 54
2, 98663, Note_on_c, 0, 63, 0
2, 98677, Control_c, 0, 64, 54
2, 98715, Control_c, 0, 64, 53
2, 98759, Note_on_c, 0, 54, 45
2, 98965, Control_c, 0, 64, 54
2, 99101, Note_on_c, 0, 54, 0
2, 99313, Note_on_c, 0, 56, 53
2, 99349, Control_c, 0, 64, 54
2, 99541, Control_c, 0, 64, 55
2, 99595, Note_on_c, 0, 56, 0
2, 99752, Control_c, 0, 64, 54
2, 99790, Control_c, 0, 64, 54
2, 99829, Control_c, 0, 64, 53
2, 99864, Note_on_c, 0, 56, 43
2, 100040, Control_c, 0, 64, 54
2, 100237, Note_on_c, 0, 56, 0
2, 100251, Control_c, 0, 64, 53
2, 100270, Control_c, 0, 64, 53
2, 100405, Note_on_c, 0, 58, 51
2, 100443, Control_c, 0, 64, 52
2, 100481, Control_c, 0, 64, 52
2, 100520, Control_c, 0, 64, 51
2, 100540, Control_c, 0, 64, 50
2, 100615, Control_c, 0, 64, 50
2, 100702, Note_on_c, 0, 58, 0
2, 100846, Control_c, 0, 64, 50
2, 100969, Note_on_c, 0, 58, 46
2, 101000, Control_c, 0, 64, 51
2, 101077, Control_c, 0, 64, 51
2, 101134, Control_c, 0, 64, 52
2, 101192, Control_c, 0, 64, 52
2, 101249, Control_c, 0, 64, 53
2, 101326, Control_c, 0, 64, 53
2, 101348, Control_c, 0, 64, 54
2, 101403, Note_on_c, 0, 58, 0
2, 101514, Note_on_c, 0, 51, 40
2, 102064, Note_on_c, 0, 53, 42
2, 102149, Note_on_c, 0, 51, 0
2, 102345, Control_c, 0, 64, 54
2, 102384, Control_c, 0, 64, 55
2, 102422, Control_c, 0, 64, 55
2, 102440, Control_c, 0, 64, 56
2, 102498, Control_c, 0, 64, 56
2, 102517, Control_c, 0, 64, 57
2, 102535, Control_c, 0, 64, 57
2, 102701, Note_on_c, 0, 63, 56
2, 102757, Note_on_c, 0, 54, 40
2, 102838, Note_on_c, 0, 53, 0
2, 102863, Control_c, 0, 64, 57
2, 102958, Control_c, 0, 64, 56
2, 103323, Control_c, 0, 64, 57
2, 103420, Control_c, 0, 64, 57
2, 103611, Control_c, 0, 64, 58
2, 103765, Control_c, 0, 64, 57
2, 103846, Note_on_c, 0, 60, 46
2, 103908, Note_on_c, 0, 63, 0
2, 104034, Control_c, 0, 64, 58
2, 104322, Control_c, 0, 64, 57
2, 104333, Note_on_c, 0, 61, 57
2, 104349, Note_on_c, 0, 54, 0
2, 104382, Note_on_c, 0, 52, 30
2, 104421, Note_on_c, 0, 60, 0
2, 104437, Control_c, 0, 64, 57
2, 104589, Note_on_c, 0, 63, 67
2, 104599, Note_on_c, 0, 54, 45
2, 104629, Control_c, 0, 64, 56
2, 104644, Note_on_c, 0, 52, 0
2, 104683, Note_on_c, 0, 61, 0
2, 104686, Control_c, 0, 64, 56
2, 104706, Control_c, 0, 64, 55
2, 104725, Control_c, 0, 64, 55
2, 104763, Control_c, 0, 64, 54
2, 104840, Control_c, 0, 64, 54
2, 104860, Control_c, 0, 64, 53
2, 104870, Note_on_c, 0, 54, 0
2, 104874, Note_on_c, 0, 64, 58
2, 104877, Note_on_c, 0, 63, 0
2, 104878, Control_c, 0, 64, 52
2, 104884, Note_on_c, 0, 56, 50
2, 104898, Control_c, 0, 64, 48
2, 104917, Control_c, 0, 64, 40
2, 104935, Control_c, 0, 64, 24
2, 104955, Control_c, 0, 64, 0
2, 105051, Control_c, 0, 64, 28
2, 105071, Control_c, 0, 64, 46
2, 105089, Control_c, 0, 64, 54
2, 105109, Control_c, 0, 64, 55
2, 105147, Control_c, 0, 64, 55
2, 105166, Control_c, 0, 64, 56
2, 105168, Note_on_c, 0, 64, 0
2, 105380, Control_c, 0, 64, 55
2, 105390, Note_on_c, 0, 63, 58
2, 105399, Control_c, 0, 64, 51
2, 105402, Note_on_c, 0, 55, 39
2, 105414, Note_on_c, 0, 56, 0
2, 105418, Control_c, 0, 64, 41
2, 105437, Control_c, 0, 64, 18
2, 105456, Control_c, 0, 64, 0
2, 105514, Control_c, 0, 64, 13
2, 105533, Control_c, 0, 64, 34
2, 105552, Control_c, 0, 64, 48
2, 105571, Control_c, 0, 64, 57
2, 105591, Control_c, 0, 64, 59
2, 105640, Note_on_c, 0, 56, 51
2, 105648, Control_c, 0, 64, 59
2, 105685, Note_on_c, 0, 63, 0
2, 105692, Note_on_c, 0, 55, 0
2, 105706, Control_c, 0, 64, 59
2, 105763, Control_c, 0, 64, 58
2, 105783, Control_c, 0, 64, 58
2, 105840, Control_c, 0, 64, 57
2, 105879, Control_c, 0, 64, 57
2, 105898, Control_c, 0, 64, 56
2, 105915, Note_on_c, 0, 61, 52
2, 105917, Control_c, 0, 64, 54
2, 105933, Note_on_c, 0, 56, 0
2, 105935, Note_on_c, 0, 58, 43
2, 105936, Control_c, 0, 64, 46
2, 105955, Control_c, 0, 64, 27
2, 105974, Control_c, 0, 64, 0
2, 106071, Control_c, 0, 64, 46
2, 106090, Control_c, 0, 64, 58
2, 106109, Control_c, 0, 64, 60
2, 106149, Control_c, 0, 64, 61
2, 106167, Control_c, 0, 64, 62
2, 106187, Control_c, 0, 64, 62
2, 106226, Control_c, 0, 64, 62
2, 106240, Note_on_c, 0, 61, 0
2, 106301, Control_c, 0, 64, 61
2, 106320, Control_c, 0, 64, 61
2, 106359, Control_c, 0, 64, 60
2, 106378, Control_c, 0, 64, 60
2, 106397, Control_c, 0, 64, 59
2, 106416, Control_c, 0, 64, 59
2, 106431, Note_on_c, 0, 67, 62
2, 106460, Note_on_c, 0, 56, 46
2, 106474, Control_c, 0, 64, 58
2, 106482, Note_on_c, 0, 58, 0
2, 106493, Control_c, 0, 64, 56
2, 106512, Control_c, 0, 64, 55
2, 106531, Control_c, 0, 64, 54
2, 106551, Control_c, 0, 64, 51
2, 106570, Control_c, 0, 64, 47
2, 106589, Control_c, 0, 64, 46
2, 106608, Control_c, 0, 64, 47
2, 106628, Control_c, 0, 64, 51
2, 106646, Control_c, 0, 64, 53
2, 106685, Control_c, 0, 64, 53
2, 106690, Note_on_c, 0, 58, 52
2, 106705, Control_c, 0, 64, 54
2, 106723, Control_c, 0, 64, 55
2, 106728, Note_on_c, 0, 56, 0
2, 106877, Control_c, 0, 64, 55
2, 106896, Control_c, 0, 64, 54
2, 106915, Control_c, 0, 64, 52
2, 106934, Control_c, 0, 64, 48
2, 106954, Control_c, 0, 64, 41
2, 106956, Note_on_c, 0, 58, 0
2, 106971, Note_on_c, 0, 68, 60
2, 106973, Control_c, 0, 64, 32
2, 106992, Control_c, 0, 64, 29
2, 107008, Note_on_c, 0, 59, 42
2, 107025, Note_on_c, 0, 67, 0
2, 107031, Control_c, 0, 64, 35
2, 107050, Control_c, 0, 64, 40
2, 107069, Control_c, 0, 64, 44
2, 107088, Control_c, 0, 64, 49
2, 107109, Control_c, 0, 64, 51
2, 107127, Control_c, 0, 64, 53
2, 107166, Control_c, 0, 64, 54
2, 107186, Control_c, 0, 64, 54
2, 107224, Control_c, 0, 64, 55
2, 107279, Control_c, 0, 64, 55
2, 107318, Control_c, 0, 64, 56
2, 107325, Note_on_c, 0, 68, 0
2, 107336, Control_c, 0, 64, 56
2, 107356, Control_c, 0, 64, 57
2, 107375, Control_c, 0, 64, 57
2, 107384, Note_on_c, 0, 59, 0
2, 107395, Control_c, 0, 64, 58
2, 107413, Control_c, 0, 64, 57
2, 107433, Control_c, 0, 64, 54
2, 107452, Control_c, 0, 64, 47
2, 107471, Control_c, 0, 64, 39
2, 107490, Control_c, 0, 64, 36
2, 107495, Note_on_c, 0, 59, 49
2, 107510, Control_c, 0, 64, 37
2, 107512, Note_on_c, 0, 56, 46
2, 107529, Control_c, 0, 64, 43
2, 107548, Control_c, 0, 64, 47
2, 107567, Control_c, 0, 64, 50
2, 107587, Control_c, 0, 64, 56
2, 107605, Control_c, 0, 64, 60
2, 107625, Control_c, 0, 64, 61
2, 107759, Control_c, 0, 64, 60
2, 107836, Control_c, 0, 64, 60
2, 107887, Note_on_c, 0, 59, 0
2, 107893, Control_c, 0, 64, 59
2, 107913, Control_c, 0, 64, 59
2, 107951, Control_c, 0, 64, 58
2, 107970, Control_c, 0, 64, 58
2, 107988, Note_on_c, 0, 56, 0
2, 107990, Control_c, 0, 64, 57
2, 108009, Control_c, 0, 64, 56
2, 108025, Note_on_c, 0, 61, 53
2, 108028, Control_c, 0, 64, 55
2, 108047, Control_c, 0, 64, 53
2, 108055, Note_on_c, 0, 58, 36
2, 108071, Control_c, 0, 64, 49
2, 108090, Control_c, 0, 64, 45
2, 108110, Control_c, 0, 64, 44
2, 108129, Control_c, 0, 64, 43
2, 108167, Control_c, 0, 64, 42
2, 108201, Control_c, 0, 64, 43
2, 108221, Control_c, 0, 64, 44
2, 108239, Control_c, 0, 64, 46
2, 108259, Control_c, 0, 64, 49
2, 108276, Note_on_c, 0, 61, 0
2, 108278, Control_c, 0, 64, 52
2, 108296, Control_c, 0, 64, 53
2, 108428, Note_on_c, 0, 58, 0
2, 108470, Control_c, 0, 64, 54
2, 108527, Control_c, 0, 64, 54
2, 108546, Note_on_c, 0, 61, 53
2, 108547, Control_c, 0, 64, 55
2, 108565, Control_c, 0, 64, 56
2, 108585, Control_c, 0, 64, 57
2, 108604, Control_c, 0, 64, 58
2, 108642, Control_c, 0, 64, 58
2, 108662, Control_c, 0, 64, 59
2, 108681, Control_c, 0, 64, 59
2, 108758, Control_c, 0, 64, 60
2, 108794, Note_on_c, 0, 61, 0
2, 108796, Control_c, 0, 64, 60
2, 108930, Control_c, 0, 64, 60
2, 108988, Control_c, 0, 64, 59
2, 109026, Control_c, 0, 64, 59
2, 109083, Control_c, 0, 64, 58
2, 109092, Note_on_c, 0, 63, 56
2, 109119, Note_on_c, 0, 55, 41
2, 109141, Control_c, 0, 64, 58
2, 109160, Control_c, 0, 64, 55
2, 109180, Control_c, 0, 64, 50
2, 109198, Control_c, 0, 64, 44
2, 109217, Control_c, 0, 64, 41
2, 109237, Control_c, 0, 64, 41
2, 109275, Control_c, 0, 64, 42
2, 109294, Control_c, 0, 64, 44
2, 109314, Control_c, 0, 64, 46
2, 109332, Control_c, 0, 64, 48
2, 109352, Control_c, 0, 64, 49
2, 109370, Note_on_c, 0, 63, 0
2, 109371, Control_c, 0, 64, 50
2, 109391, Control_c, 0, 64, 50
2, 109409, Control_c, 0, 64, 51
2, 109429, Control_c, 0, 64, 52
2, 109493, Note_on_c, 0, 55, 0
2, 109563, Control_c, 0, 64, 52
2, 109636, Note_on_c, 0, 63, 47
2, 110046, Note_on_c, 0, 63, 0
2, 110177, Note_on_c, 0, 56, 45
2, 110236, Control_c, 0, 64, 52
2, 110409, Control_c, 0, 64, 51
2, 110524, Control_c, 0, 64, 51
2, 110562, Control_c, 0, 64, 50
2, 110687, Note_on_c, 0, 54, 51
2, 110777, Note_on_c, 0, 56, 0
2, 111195, Control_c, 0, 64, 49
2, 111234, Control_c, 0, 64, 49
2, 111252, Control_c, 0, 64, 48
2, 111254, Note_on_c, 0, 68, 67
2, 111272, Control_c, 0, 64, 48
2, 111291, Control_c, 0, 64, 47
2, 111292, Note_on_c, 0, 61, 38
2, 111307, Note_on_c, 0, 52, 35
2, 111311, Control_c, 0, 64, 47
2, 111312, Note_on_c, 0, 54, 0
2, 111329, Control_c, 0, 64, 46
2, 111349, Control_c, 0, 64, 45
2, 111406, Control_c, 0, 64, 44
2, 111426, Control_c, 0, 64, 42
2, 111445, Control_c, 0, 64, 40
2, 111464, Control_c, 0, 64, 39
2, 111483, Control_c, 0, 64, 38
2, 111503, Control_c, 0, 64, 37
2, 111521, Control_c, 0, 64, 36
2, 111541, Control_c, 0, 64, 36
2, 111791, Control_c, 0, 64, 36
2, 111809, Control_c, 0, 64, 40
2, 111829, Control_c, 0, 64, 44
2, 111848, Control_c, 0, 64, 48
2, 111867, Control_c, 0, 64, 51
2, 111886, Control_c, 0, 64, 54
2, 111908, Control_c, 0, 64, 57
2, 111926, Control_c, 0, 64, 60
2, 111946, Control_c, 0, 64, 60
2, 111985, Control_c, 0, 64, 61
2, 112023, Control_c, 0, 64, 61
2, 112042, Control_c, 0, 64, 62
2, 112253, Control_c, 0, 64, 61
2, 112324, Note_on_c, 0, 67, 50
2, 112345, Note_on_c, 0, 51, 37
2, 112368, Control_c, 0, 64, 58
2, 112375, Note_on_c, 0, 68, 0
2, 112388, Control_c, 0, 64, 45
2, 112389, Note_on_c, 0, 52, 0
2, 112406, Control_c, 0, 64, 0
2, 112503, Control_c, 0, 64, 48
2, 112522, Control_c, 0, 64, 62
2, 112541, Control_c, 0, 64, 64
2, 112560, Control_c, 0, 64, 64
2, 112580, Control_c, 0, 64, 64
2, 112593, Note_on_c, 0, 51, 0
2, 112617, Control_c, 0, 64, 65
2, 112826, Note_on_c, 0, 68, 65
2, 112829, Control_c, 0, 64, 65
2, 112848, Control_c, 0, 64, 64
2, 112855, Note_on_c, 0, 59, 28
2, 112869, Control_c, 0, 64, 64
2, 112871, Note_on_c, 0, 56, 41
2, 112887, Control_c, 0, 64, 63
2, 112892, Note_on_c, 0, 61, 0
2, 112907, Control_c, 0, 64, 62
2, 112926, Control_c, 0, 64, 61
2, 112946, Control_c, 0, 64, 61
2, 112984, Control_c, 0, 64, 60
2, 113008, Note_on_c, 0, 67, 0
2, 113021, Control_c, 0, 64, 60
2, 113047, Note_on_c, 0, 70, 71
2, 113077, Note_on_c, 0, 61, 50
2, 113079, Control_c, 0, 64, 59
2, 113097, Control_c, 0, 64, 59
2, 113131, Note_on_c, 0, 59, 0
2, 113148, Note_on_c, 0, 68, 0
2, 113271, Control_c, 0, 64, 58
2, 113290, Control_c, 0, 64, 56
2, 113303, Note_on_c, 0, 70, 0
2, 113309, Control_c, 0, 64, 46
2, 113315, Note_on_c, 0, 61, 0
2, 113319, Note_on_c, 0, 71, 70
2, 113328, Control_c, 0, 64, 13
2, 113336, Note_on_c, 0, 63, 49
2, 113348, Control_c, 0, 64, 0
2, 113425, Control_c, 0, 64, 20
2, 113443, Control_c, 0, 64, 57
2, 113463, Control_c, 0, 64, 63
2, 113482, Control_c, 0, 64, 64
2, 113501, Control_c, 0, 64, 64
2, 113576, Note_on_c, 0, 71, 0
2, 113580, Note_on_c, 0, 56, 0
2, 113616, Control_c, 0, 64, 63
2, 113654, Control_c, 0, 64, 63
2, 113693, Control_c, 0, 64, 62
2, 113712, Control_c, 0, 64, 62
2, 113770, Control_c, 0, 64, 61
2, 113789, Control_c, 0, 64, 60
2, 113808, Control_c, 0, 64, 58
2, 113825, Control_c, 0, 64, 51
2, 113833, Note_on_c, 0, 63, 0
2, 113843, Note_on_c, 0, 70, 68
2, 113844, Control_c, 0, 64, 34
2, 113855, Note_on_c, 0, 62, 39
2, 113859, Note_on_c, 0, 58, 45
2, 113863, Control_c, 0, 64, 0
2, 113959, Control_c, 0, 64, 46
2, 113979, Control_c, 0, 64, 60
2, 113997, Control_c, 0, 64, 62
2, 114036, Control_c, 0, 64, 62
2, 114071, Note_on_c, 0, 70, 0
2, 114074, Control_c, 0, 64, 63
2, 114082, Note_on_c, 0, 63, 57
2, 114113, Control_c, 0, 64, 62
2, 114169, Note_on_c, 0, 62, 0
2, 114170, Control_c, 0, 64, 62
2, 114190, Control_c, 0, 64, 61
2, 114226, Note_on_c, 0, 58, 0
2, 114247, Control_c, 0, 64, 61
2, 114324, Control_c, 0, 64, 60
2, 114329, Note_on_c, 0, 68, 68
2, 114343, Control_c, 0, 64, 53
2, 114359, Note_on_c, 0, 65, 50
2, 114365, Control_c, 0, 64, 31
2, 114374, Note_on_c, 0, 59, 49
2, 114378, Note_on_c, 0, 63, 0
2, 114384, Control_c, 0, 64, 0
2, 114461, Control_c, 0, 64, 37
2, 114480, Control_c, 0, 64, 61
2, 114499, Control_c, 0, 64, 65
2, 114519, Control_c, 0, 64, 65
2, 114538, Control_c, 0, 64, 65
2, 114557, Control_c, 0, 64, 65
2, 114576, Control_c, 0, 64, 66
2, 114609, Note_on_c, 0, 68, 0
2, 114653, Control_c, 0, 64, 65
2, 114691, Control_c, 0, 64, 65
2, 114730, Control_c, 0, 64, 64
2, 114768, Control_c, 0, 64, 64
2, 114807, Control_c, 0, 64, 63
2, 114825, Control_c, 0, 64, 64
2, 114862, Note_on_c, 0, 74, 68
2, 114864, Control_c, 0, 64, 63
2, 114883, Control_c, 0, 64, 60
2, 114902, Control_c, 0, 64, 48
2, 114909, Note_on_c, 0, 63, 50
2, 114923, Control_c, 0, 64, 17
2, 114929, Note_on_c, 0, 65, 0
2, 114942, Control_c, 0, 64, 0
2, 114971, Note_on_c, 0, 59, 0
2, 114980, Control_c, 0, 64, 9
2, 115000, Control_c, 0, 64, 46
2, 115018, Control_c, 0, 64, 57
2, 115038, Control_c, 0, 64, 58
2, 115057, Control_c, 0, 64, 59
2, 115077, Control_c, 0, 64, 61
2, 115095, Control_c, 0, 64, 62
2, 115131, Note_on_c, 0, 65, 55
2, 115153, Note_on_c, 0, 63, 0
2, 115211, Control_c, 0, 64, 62
2, 115306, Control_c, 0, 64, 61
2, 115383, Control_c, 0, 64, 61
2, 115400, Note_on_c, 0, 75, 64
2, 115403, Control_c, 0, 64, 57
2, 115422, Control_c, 0, 64, 40
2, 115432, Note_on_c, 0, 66, 49
2, 115437, Note_on_c, 0, 58, 44
2, 115437, Note_on_c, 0, 65, 0
2, 115441, Control_c, 0, 64, 0
2, 115451, Note_on_c, 0, 74, 0
2, 115518, Control_c, 0, 64, 24
2, 115537, Control_c, 0, 64, 47
2, 115557, Control_c, 0, 64, 55
2, 115575, Control_c, 0, 64, 58
2, 115595, Control_c, 0, 64, 61
2, 115614, Control_c, 0, 64, 62
2, 115652, Control_c, 0, 64, 62
2, 115668, Note_on_c, 0, 75, 0
2, 115748, Control_c, 0, 64, 61
2, 115805, Note_on_c, 0, 66, 0
2, 115806, Control_c, 0, 64, 62
2, 115883, Control_c, 0, 64, 60
2, 115901, Control_c, 0, 64, 54
2, 115919, Note_on_c, 0, 63, 49
2, 115920, Control_c, 0, 64, 36
2, 115920, Note_on_c, 0, 66, 56
2, 115939, Control_c, 0, 64, 0
2, 115952, Note_on_c, 0, 58, 0
2, 115978, Control_c, 0, 64, 24
2, 115997, Control_c, 0, 64, 54
2, 116016, Control_c, 0, 64, 63
2, 116036, Control_c, 0, 64, 64
2, 116140, Note_on_c, 0, 66, 0
2, 116208, Control_c, 0, 64, 64
2, 116285, Control_c, 0, 64, 63
2, 116323, Control_c, 0, 64, 63
2, 116342, Control_c, 0, 64, 62
2, 116362, Control_c, 0, 64, 62
2, 116400, Control_c, 0, 64, 61
2, 116413, Note_on_c, 0, 68, 62
2, 116419, Control_c, 0, 64, 60
2, 116441, Note_on_c, 0, 65, 37
2, 116446, Note_on_c, 0, 56, 35
2, 116477, Control_c, 0, 64, 60
2, 116483, Note_on_c, 0, 63, 0
2, 116496, Control_c, 0, 64, 59
2, 116516, Control_c, 0, 64, 58
2, 116534, Control_c, 0, 64, 58
2, 116554, Control_c, 0, 64, 57
2, 116573, Control_c, 0, 64, 56
2, 116593, Control_c, 0, 64, 54
2, 116611, Control_c, 0, 64, 52
2, 116631, Control_c, 0, 64, 51
2, 116652, Note_on_c, 0, 68, 0
2, 116747, Control_c, 0, 64, 52
2, 116767, Control_c, 0, 64, 52
2, 116773, Note_on_c, 0, 65, 0
2, 116880, Control_c, 0, 64, 53
2, 116919, Control_c, 0, 64, 53
2, 116923, Note_on_c, 0, 68, 58
2, 116938, Control_c, 0, 64, 54
2, 117014, Control_c, 0, 64, 55
2, 117034, Control_c, 0, 64, 55
2, 117053, Control_c, 0, 64, 56
2, 117073, Control_c, 0, 64, 57
2, 117091, Control_c, 0, 64, 58
2, 117111, Control_c, 0, 64, 58
2, 117130, Control_c, 0, 64, 59
2, 117154, Note_on_c, 0, 68, 0
2, 117207, Control_c, 0, 64, 58
2, 117245, Control_c, 0, 64, 58
2, 117322, Control_c, 0, 64, 57
2, 117415, Note_on_c, 0, 70, 63
2, 117467, Note_on_c, 0, 62, 37
2, 117533, Control_c, 0, 64, 57
2, 117591, Control_c, 0, 64, 56
2, 117610, Control_c, 0, 64, 56
2, 117628, Control_c, 0, 64, 55
2, 117648, Control_c, 0, 64, 54
2, 117667, Control_c, 0, 64, 54
2, 117668, Note_on_c, 0, 70, 0
2, 117687, Control_c, 0, 64, 53
2, 117705, Control_c, 0, 64, 52
2, 117725, Control_c, 0, 64, 52
2, 117764, Control_c, 0, 64, 51
2, 117782, Control_c, 0, 64, 51
2, 117802, Control_c, 0, 64, 50
2, 117827, Note_on_c, 0, 62, 0
2, 117916, Note_on_c, 0, 70, 64
2, 117956, Control_c, 0, 64, 51
2, 117994, Control_c, 0, 64, 52
2, 118013, Control_c, 0, 64, 53
2, 118033, Control_c, 0, 64, 53
2, 118051, Control_c, 0, 64, 54
2, 118070, Control_c, 0, 64, 54
2, 118090, Control_c, 0, 64, 55
2, 118108, Control_c, 0, 64, 56
2, 118128, Control_c, 0, 64, 57
2, 118143, Note_on_c, 0, 70, 0
2, 118280, Control_c, 0, 64, 56
2, 118357, Control_c, 0, 64, 57
2, 118376, Control_c, 0, 64, 58
2, 118419, Note_on_c, 0, 63, 51
2, 118452, Control_c, 0, 64, 57
2, 118472, Control_c, 0, 64, 52
2, 118491, Control_c, 0, 64, 46
2, 118510, Control_c, 0, 64, 44
2, 118548, Control_c, 0, 64, 47
2, 118568, Control_c, 0, 64, 51
2, 118586, Control_c, 0, 64, 53
2, 118606, Control_c, 0, 64, 54
2, 118627, Control_c, 0, 64, 55
2, 118646, Control_c, 0, 64, 57
2, 118665, Control_c, 0, 64, 57
2, 118760, Control_c, 0, 64, 58
2, 118817, Control_c, 0, 64, 58
2, 118837, Control_c, 0, 64, 59
2, 118875, Control_c, 0, 64, 57
2, 118894, Control_c, 0, 64, 51
2, 118914, Control_c, 0, 64, 38
2, 118918, Note_on_c, 0, 65, 54
2, 118929, Note_on_c, 0, 54, 46
2, 118932, Control_c, 0, 64, 0
2, 118982, Note_on_c, 0, 63, 0
2, 119007, Note_on_c, 0, 56, 0
2, 119048, Control_c, 0, 64, 41
2, 119066, Control_c, 0, 64, 59
2, 119086, Control_c, 0, 64, 64
2, 119105, Control_c, 0, 64, 64
2, 119144, Note_on_c, 0, 56, 60
2, 119148, Note_on_c, 0, 54, 0
2, 119278, Control_c, 0, 64, 64
2, 119317, Control_c, 0, 64, 63
2, 119355, Control_c, 0, 64, 63
2, 119387, Note_on_c, 0, 56, 0
2, 119434, Note_on_c, 0, 51, 53
2, 119434, Note_on_c, 0, 58, 51
2, 119439, Note_on_c, 0, 66, 65
2, 119451, Control_c, 0, 64, 62
2, 119458, Note_on_c, 0, 65, 0
2, 119470, Control_c, 0, 64, 59
2, 119489, Control_c, 0, 64, 45
2, 119508, Control_c, 0, 64, 0
2, 119605, Control_c, 0, 64, 37
2, 119623, Control_c, 0, 64, 54
2, 119643, Control_c, 0, 64, 61
2, 119662, Control_c, 0, 64, 62
2, 119682, Control_c, 0, 64, 62
2, 119713, Note_on_c, 0, 58, 0
2, 119721, Control_c, 0, 64, 63
2, 119816, Control_c, 0, 64, 63
2, 119836, Control_c, 0, 64, 64
2, 119855, Control_c, 0, 64, 65
2, 119893, Control_c, 0, 64, 63
2, 119913, Control_c, 0, 64, 58
2, 119932, Control_c, 0, 64, 54
2, 119944, Note_on_c, 0, 54, 47
2, 119945, Note_on_c, 0, 58, 56
2, 119952, Control_c, 0, 64, 54
2, 119970, Control_c, 0, 64, 59
2, 119989, Control_c, 0, 64, 63
2, 120009, Control_c, 0, 64, 65
2, 120027, Control_c, 0, 64, 65
2, 120066, Control_c, 0, 64, 66
2, 120086, Control_c, 0, 64, 67
2, 120104, Control_c, 0, 64, 67
2, 120143, Control_c, 0, 64, 67
2, 120148, Note_on_c, 0, 51, 0
2, 120181, Control_c, 0, 64, 66
2, 120220, Control_c, 0, 64, 66
2, 120316, Control_c, 0, 64, 65
2, 120432, Control_c, 0, 64, 64
2, 120433, Note_on_c, 0, 54, 0
2, 120442, Note_on_c, 0, 56, 52
2, 120450, Control_c, 0, 64, 61
2, 120454, Note_on_c, 0, 48, 41
2, 120457, Note_on_c, 0, 51, 39
2, 120469, Control_c, 0, 64, 52
2, 120489, Control_c, 0, 64, 41
2, 120491, Note_on_c, 0, 58, 0
2, 120507, Control_c, 0, 64, 35
2, 120527, Control_c, 0, 64, 36
2, 120547, Control_c, 0, 64, 47
2, 120566, Control_c, 0, 64, 59
2, 120585, Control_c, 0, 64, 62
2, 120643, Control_c, 0, 64, 63
2, 120662, Control_c, 0, 64, 64
2, 120759, Control_c, 0, 64, 63
2, 120797, Control_c, 0, 64, 63
2, 120874, Control_c, 0, 64, 62
2, 120893, Control_c, 0, 64, 61
2, 120912, Control_c, 0, 64, 57
2, 120931, Control_c, 0, 64, 49
2, 120943, Note_on_c, 0, 66, 0
2, 120950, Control_c, 0, 64, 46
2, 120958, Note_on_c, 0, 64, 60
2, 120970, Control_c, 0, 64, 45
2, 120971, Note_on_c, 0, 52, 48
2, 120986, Note_on_c, 0, 49, 56
2, 121008, Control_c, 0, 64, 48
2, 121016, Note_on_c, 0, 51, 0
2, 121027, Control_c, 0, 64, 52
2, 121027, Note_on_c, 0, 48, 0
2, 121046, Control_c, 0, 64, 54
2, 121065, Control_c, 0, 64, 55
2, 121085, Control_c, 0, 64, 56
2, 121104, Control_c, 0, 64, 57
2, 121123, Control_c, 0, 64, 58
2, 121142, Control_c, 0, 64, 58
2, 121160, Note_on_c, 0, 52, 0
2, 121197, Note_on_c, 0, 51, 59
2, 121197, Note_on_c, 0, 66, 67
2, 121200, Control_c, 0, 64, 58
2, 121301, Note_on_c, 0, 49, 0
2, 121316, Control_c, 0, 64, 58
2, 121327, Note_on_c, 0, 56, 0
2, 121373, Control_c, 0, 64, 59
2, 121392, Control_c, 0, 64, 59
2, 121411, Control_c, 0, 64, 60
2, 121430, Control_c, 0, 64, 59
2, 121445, Note_on_c, 0, 52, 65
2, 121450, Control_c, 0, 64, 56
2, 121454, Note_on_c, 0, 68, 68
2, 121457, Note_on_c, 0, 51, 0
2, 121459, Note_on_c, 0, 64, 0
2, 121468, Control_c, 0, 64, 42
2, 121488, Control_c, 0, 64, 0
2, 121525, Note_on_c, 0, 66, 0
2, 121584, Control_c, 0, 64, 41
2, 121603, Control_c, 0, 64, 53
2, 121622, Control_c, 0, 64, 58
2, 121642, Control_c, 0, 64, 60
2, 121660, Control_c, 0, 64, 61
2, 121698, Control_c, 0, 64, 60
2, 121756, Control_c, 0, 64, 60
2, 121775, Control_c, 0, 64, 59
2, 121781, Note_on_c, 0, 52, 0
2, 121795, Control_c, 0, 64, 59
2, 121813, Control_c, 0, 64, 59
2, 121833, Control_c, 0, 64, 60
2, 121872, Control_c, 0, 64, 60
2, 121890, Control_c, 0, 64, 60
2, 121909, Control_c, 0, 64, 58
2, 121929, Control_c, 0, 64, 52
2, 121947, Control_c, 0, 64, 35
2, 121957, Note_on_c, 0, 63, 53
2, 121959, Note_on_c, 0, 67, 57
2, 121964, Note_on_c, 0, 59, 61
2, 121967, Control_c, 0, 64, 0
2, 121987, Note_on_c, 0, 51, 47
2, 121987, Note_on_c, 0, 68, 0
2, 122063, Control_c, 0, 64, 21
2, 122082, Control_c, 0, 64, 52
2, 122101, Control_c, 0, 64, 61
2, 122121, Control_c, 0, 64, 62
2, 122140, Control_c, 0, 64, 61
2, 122178, Control_c, 0, 64, 62
2, 122210, Note_on_c, 0, 68, 73
2, 122216, Control_c, 0, 64, 61
2, 122224, Note_on_c, 0, 59, 0
2, 122289, Note_on_c, 0, 67, 0
2, 122293, Control_c, 0, 64, 62
2, 122354, Note_on_c, 0, 63, 0
2, 122447, Control_c, 0, 64, 61
2, 122468, Control_c, 0, 64, 61
2, 122477, Note_on_c, 0, 70, 67
2, 122480, Note_on_c, 0, 51, 0
2, 122487, Control_c, 0, 64, 58
2, 122487, Note_on_c, 0, 49, 57
2, 122488, Note_on_c, 0, 61, 54
2, 122506, Control_c, 0, 64, 50
2, 122508, Note_on_c, 0, 68, 0
2, 122509, Note_on_c, 0, 64, 48
2, 122526, Control_c, 0, 64, 32
2, 122545, Control_c, 0, 64, 0
2, 122658, Control_c, 0, 64, 34
2, 122678, Control_c, 0, 64, 50
2, 122696, Control_c, 0, 64, 57
2, 122716, Control_c, 0, 64, 60
2, 122724, Note_on_c, 0, 64, 0
2, 122735, Control_c, 0, 64, 60
2, 122869, Control_c, 0, 64, 61
2, 122889, Control_c, 0, 64, 62
2, 122927, Control_c, 0, 64, 60
2, 122932, Note_on_c, 0, 61, 0
2, 122946, Control_c, 0, 64, 52
2, 122966, Control_c, 0, 64, 34
2, 122981, Note_on_c, 0, 68, 63
2, 122984, Control_c, 0, 64, 0
2, 122986, Note_on_c, 0, 55, 59
2, 122996, Note_on_c, 0, 63, 45
2, 123038, Note_on_c, 0, 49, 0
2, 123042, Control_c, 0, 64, 21
2, 123052, Note_on_c, 0, 70, 0
2, 123061, Control_c, 0, 64, 34
2, 123081, Control_c, 0, 64, 41
2, 123100, Control_c, 0, 64, 50
2, 123119, Control_c, 0, 64, 57
2, 123138, Control_c, 0, 64, 57
2, 123215, Control_c, 0, 64, 58
2, 123224, Note_on_c, 0, 70, 77
2, 123253, Control_c, 0, 64, 57
2, 123274, Note_on_c, 0, 69, 72
2, 123409, Note_on_c, 0, 68, 0
2, 123428, Control_c, 0, 64, 56
2, 123447, Control_c, 0, 64, 56
2, 123468, Note_on_c, 0, 70, 0
2, 123492, Note_on_c, 0, 71, 72
2, 123494, Note_on_c, 0, 69, 0
2, 123511, Note_on_c, 0, 63, 0
2, 123514, Note_on_c, 0, 56, 66
2, 123546, Note_on_c, 0, 55, 0
2, 123580, Control_c, 0, 64, 55
2, 123599, Control_c, 0, 64, 53
2, 123618, Control_c, 0, 64, 45
2, 123638, Control_c, 0, 64, 36
2, 123656, Control_c, 0, 64, 34
2, 123695, Control_c, 0, 64, 33
2, 123715, Control_c, 0, 64, 29
2, 123733, Control_c, 0, 64, 25
2, 123753, Control_c, 0, 64, 24
2, 123791, Control_c, 0, 64, 23
2, 123810, Control_c, 0, 64, 22
2, 123829, Control_c, 0, 64, 21
2, 123911, Note_on_c, 0, 56, 0
2, 123926, Control_c, 0, 64, 22
2, 123944, Control_c, 0, 64, 27
2, 123964, Control_c, 0, 64, 30
2, 123983, Control_c, 0, 64, 33
2, 124002, Control_c, 0, 64, 36
2, 124006, Note_on_c, 0, 68, 67
2, 124009, Note_on_c, 0, 63, 49
2, 124021, Control_c, 0, 64, 43
2, 124026, Note_on_c, 0, 59, 43
2, 124041, Control_c, 0, 64, 47
2, 124055, Note_on_c, 0, 47, 49
2, 124060, Control_c, 0, 64, 48
2, 124079, Control_c, 0, 64, 50
2, 124098, Control_c, 0, 64, 53
2, 124115, Note_on_c, 0, 71, 0
2, 124118, Control_c, 0, 64, 55
2, 124136, Control_c, 0, 64, 56
2, 124175, Control_c, 0, 64, 56
2, 124195, Control_c, 0, 64, 57
2, 124233, Control_c, 0, 64, 56
2, 124234, Note_on_c, 0, 59, 0
2, 124246, Note_on_c, 0, 63, 0
2, 124309, Control_c, 0, 64, 55
2, 124385, Control_c, 0, 64, 55
2, 124405, Control_c, 0, 64, 53
2, 124423, Control_c, 0, 64, 50
2, 124443, Control_c, 0, 64, 47
2, 124462, Control_c, 0, 64, 44
2, 124466, Note_on_c, 0, 47, 0
2, 124481, Note_on_c, 0, 68, 0
2, 124481, Note_on_c, 0, 70, 65
2, 124482, Control_c, 0, 64, 43
2, 124499, Note_on_c, 0, 61, 58
2, 124499, Note_on_c, 0, 64, 43
2, 124500, Control_c, 0, 64, 41
2, 124501, Note_on_c, 0, 49, 55
2, 124520, Control_c, 0, 64, 40
2, 124597, Control_c, 0, 64, 40
2, 124616, Control_c, 0, 64, 41
2, 124635, Control_c, 0, 64, 41
2, 124692, Control_c, 0, 64, 42
2, 124731, Control_c, 0, 64, 43
2, 124750, Control_c, 0, 64, 44
2, 124758, Note_on_c, 0, 49, 0
2, 124769, Control_c, 0, 64, 44
2, 124788, Note_on_c, 0, 61, 0
2, 124808, Control_c, 0, 64, 45
2, 124812, Note_on_c, 0, 70, 0
2, 124813, Note_on_c, 0, 64, 0
2, 124826, Control_c, 0, 64, 46
2, 124923, Control_c, 0, 64, 47
2, 124942, Control_c, 0, 64, 47
2, 124977, Note_on_c, 0, 49, 64
2, 124980, Control_c, 0, 64, 44
2, 125000, Control_c, 0, 64, 39
2, 125019, Control_c, 0, 64, 34
2, 125038, Control_c, 0, 64, 32
2, 125057, Control_c, 0, 64, 32
2, 125134, Control_c, 0, 64, 36
2, 125154, Control_c, 0, 64, 42
2, 125172, Control_c, 0, 64, 43
2, 125204, Note_on_c, 0, 49, 0
2, 125211, Control_c, 0, 64, 44
2, 125249, Control_c, 0, 64, 44
2, 125268, Control_c, 0, 64, 45
2, 125347, Control_c, 0, 64, 45
2, 125367, Control_c, 0, 64, 46
2, 125385, Control_c, 0, 64, 46
2, 125405, Control_c, 0, 64, 47
2, 125424, Control_c, 0, 64, 47
2, 125462, Control_c, 0, 64, 47
2, 125480, Control_c, 0, 64, 42
2, 125494, Note_on_c, 0, 67, 55
2, 125499, Control_c, 0, 64, 35
2, 125508, Note_on_c, 0, 51, 44
2, 125510, Note_on_c, 0, 63, 43
2, 125515, Note_on_c, 0, 58, 37
2, 125518, Control_c, 0, 64, 26
2, 125537, Control_c, 0, 64, 23
2, 125595, Control_c, 0, 64, 24
2, 125614, Control_c, 0, 64, 28
2, 125634, Control_c, 0, 64, 38
2, 125652, Control_c, 0, 64, 49
2, 125671, Control_c, 0, 64, 52
2, 125691, Control_c, 0, 64, 52
2, 125710, Control_c, 0, 64, 51
2, 125729, Control_c, 0, 64, 52
2, 125748, Control_c, 0, 64, 52
2, 125768, Control_c, 0, 64, 53
2, 125781, Note_on_c, 0, 51, 0
2, 125807, Note_on_c, 0, 58, 0
2, 125845, Control_c, 0, 64, 54
2, 125875, Note_on_c, 0, 67, 0
2, 125891, Note_on_c, 0, 63, 0
2, 125922, Control_c, 0, 64, 54
2, 125960, Control_c, 0, 64, 51
2, 125979, Control_c, 0, 64, 36
2, 125982, Note_on_c, 0, 51, 52
2, 125998, Control_c, 0, 64, 0
2, 126094, Control_c, 0, 64, 9
2, 126114, Control_c, 0, 64, 37
2, 126132, Control_c, 0, 64, 54
2, 126151, Control_c, 0, 64, 60
2, 126209, Control_c, 0, 64, 59
2, 126238, Note_on_c, 0, 51, 0
2, 126286, Control_c, 0, 64, 59
2, 126306, Control_c, 0, 64, 58
2, 126326, Control_c, 0, 64, 58
2, 126364, Control_c, 0, 64, 57
2, 126383, Control_c, 0, 64, 57
2, 126439, Control_c, 0, 64, 56
2, 126458, Control_c, 0, 64, 56
2, 126477, Control_c, 0, 64, 55
2, 126493, Note_on_c, 0, 68, 56
2, 126496, Control_c, 0, 64, 55
2, 126507, Note_on_c, 0, 63, 39
2, 126515, Note_on_c, 0, 59, 40
2, 126516, Control_c, 0, 64, 53
2, 126521, Note_on_c, 0, 44, 36
2, 126535, Control_c, 0, 64, 48
2, 126554, Control_c, 0, 64, 37
2, 126573, Control_c, 0, 64, 22
2, 126593, Control_c, 0, 64, 0
2, 126688, Control_c, 0, 64, 18
2, 126707, Control_c, 0, 64, 37
2, 126727, Control_c, 0, 64, 49
2, 126746, Control_c, 0, 64, 53
2, 126804, Control_c, 0, 64, 54
2, 126822, Control_c, 0, 64, 55
2, 126842, Control_c, 0, 64, 55
2, 126919, Control_c, 0, 64, 56
2, 126938, Control_c, 0, 64, 57
2, 126957, Control_c, 0, 64, 57
2, 126976, Control_c, 0, 64, 59
2, 126987, Note_on_c, 0, 70, 69
2, 126996, Control_c, 0, 64, 60
2, 127015, Control_c, 0, 64, 61
2, 127034, Control_c, 0, 64, 58
2, 127051, Note_on_c, 0, 63, 0
2, 127053, Control_c, 0, 64, 43
2, 127070, Note_on_c, 0, 68, 0
2, 127073, Control_c, 0, 64, 11
2, 127091, Control_c, 0, 64, 0
2, 127098, Note_on_c, 0, 59, 0
2, 127130, Control_c, 0, 64, 27
2, 127131, Note_on_c, 0, 44, 0
2, 127149, Control_c, 0, 64, 51
2, 127168, Control_c, 0, 64, 57
2, 127187, Control_c, 0, 64, 57
2, 127207, Control_c, 0, 64, 58
2, 127226, Control_c, 0, 64, 58
2, 127245, Control_c, 0, 64, 59
2, 127362, Control_c, 0, 64, 59
2, 127380, Control_c, 0, 64, 60
2, 127400, Control_c, 0, 64, 61
2, 127438, Control_c, 0, 64, 58
2, 127452, Note_on_c, 0, 70, 0
2, 127457, Control_c, 0, 64, 47
2, 127471, Note_on_c, 0, 71, 66
2, 127477, Control_c, 0, 64, 28
2, 127496, Control_c, 0, 64, 17
2, 127515, Control_c, 0, 64, 18
2, 127534, Control_c, 0, 64, 40
2, 127554, Control_c, 0, 64, 56
2, 127572, Control_c, 0, 64, 59
2, 127591, Control_c, 0, 64, 60
2, 127611, Control_c, 0, 64, 60
2, 127630, Control_c, 0, 64, 61
2, 127649, Control_c, 0, 64, 62
2, 127706, Control_c, 0, 64, 61
2, 127745, Control_c, 0, 64, 61
2, 127957, Control_c, 0, 64, 60
2, 127976, Control_c, 0, 64, 58
2, 127985, Note_on_c, 0, 66, 64
2, 127989, Note_on_c, 0, 59, 47
2, 127993, Control_c, 0, 64, 47
2, 127995, Note_on_c, 0, 51, 42
2, 128012, Control_c, 0, 64, 24
2, 128021, Note_on_c, 0, 71, 0
2, 128031, Control_c, 0, 64, 0
2, 128069, Control_c, 0, 64, 25
2, 128089, Control_c, 0, 64, 52
2, 128108, Control_c, 0, 64, 62
2, 128127, Control_c, 0, 64, 62
2, 128146, Control_c, 0, 64, 62
2, 128166, Control_c, 0, 64, 61
2, 128184, Control_c, 0, 64, 62
2, 128204, Control_c, 0, 64, 62
2, 128204, Note_on_c, 0, 59, 0
2, 128245, Control_c, 0, 64, 62
2, 128302, Note_on_c, 0, 51, 0
2, 128303, Control_c, 0, 64, 61
2, 128341, Control_c, 0, 64, 61
2, 128361, Control_c, 0, 64, 60
2, 128400, Control_c, 0, 64, 60
2, 128457, Control_c, 0, 64, 59
2, 128477, Control_c, 0, 64, 59
2, 128496, Control_c, 0, 64, 57
2, 128498, Note_on_c, 0, 73, 70
2, 128515, Control_c, 0, 64, 54
2, 128515, Note_on_c, 0, 64, 45
2, 128521, Note_on_c, 0, 68, 55
2, 128534, Control_c, 0, 64, 46
2, 128534, Note_on_c, 0, 52, 48
2, 128554, Control_c, 0, 64, 37
2, 128570, Note_on_c, 0, 66, 0
2, 128573, Control_c, 0, 64, 30
2, 128591, Control_c, 0, 64, 29
2, 128630, Control_c, 0, 64, 30
2, 128649, Control_c, 0, 64, 33
2, 128668, Control_c, 0, 64, 36
2, 128688, Control_c, 0, 64, 39
2, 128707, Control_c, 0, 64, 44
2, 128726, Control_c, 0, 64, 47
2, 128745, Control_c, 0, 64, 48
2, 128765, Control_c, 0, 64, 48
2, 128784, Control_c, 0, 64, 49
2, 128792, Note_on_c, 0, 68, 0
2, 128796, Note_on_c, 0, 64, 0
2, 128803, Control_c, 0, 64, 52
2, 128809, Note_on_c, 0, 73, 0
2, 128817, Note_on_c, 0, 52, 0
2, 128822, Control_c, 0, 64, 54
2, 128842, Control_c, 0, 64, 54
2, 128880, Control_c, 0, 64, 55
2, 128899, Control_c, 0, 64, 56
2, 128919, Control_c, 0, 64, 56
2, 128976, Control_c, 0, 64, 54
2, 128995, Control_c, 0, 64, 50
2, 129009, Note_on_c, 0, 52, 58
2, 129014, Control_c, 0, 64, 43
2, 129034, Control_c, 0, 64, 30
2, 129053, Control_c, 0, 64, 22
2, 129071, Control_c, 0, 64, 20
2, 129110, Control_c, 0, 64, 21
2, 129129, Control_c, 0, 64, 28
2, 129148, Control_c, 0, 64, 36
2, 129168, Control_c, 0, 64, 40
2, 129183, Control_c, 0, 64, 43
2, 129203, Control_c, 0, 64, 46
2, 129221, Control_c, 0, 64, 50
2, 129241, Control_c, 0, 64, 52
2, 129245, Note_on_c, 0, 52, 0
2, 129298, Control_c, 0, 64, 53
2, 129318, Control_c, 0, 64, 54
2, 129510, Note_on_c, 0, 70, 72
2, 129525, Note_on_c, 0, 66, 50
2, 129528, Control_c, 0, 64, 53
2, 129546, Note_on_c, 0, 61, 47
2, 129547, Control_c, 0, 64, 52
2, 129549, Note_on_c, 0, 54, 50
2, 129566, Control_c, 0, 64, 50
2, 129585, Control_c, 0, 64, 49
2, 129624, Control_c, 0, 64, 51
2, 129643, Control_c, 0, 64, 51
2, 129682, Control_c, 0, 64, 52
2, 129700, Control_c, 0, 64, 55
2, 129720, Control_c, 0, 64, 57
2, 129744, Note_on_c, 0, 66, 0
2, 129749, Note_on_c, 0, 61, 0
2, 129777, Control_c, 0, 64, 57
2, 129797, Control_c, 0, 64, 58
2, 129810, Note_on_c, 0, 54, 0
2, 129854, Control_c, 0, 64, 58
2, 129860, Note_on_c, 0, 70, 0
2, 129911, Control_c, 0, 64, 57
2, 129931, Control_c, 0, 64, 54
2, 129950, Control_c, 0, 64, 46
2, 129969, Control_c, 0, 64, 36
2, 129988, Control_c, 0, 64, 20
2, 130008, Control_c, 0, 64, 11
2, 130016, Note_on_c, 0, 54, 60
2, 130027, Control_c, 0, 64, 0
2, 130085, Control_c, 0, 64, 17
2, 130104, Control_c, 0, 64, 39
2, 130123, Control_c, 0, 64, 55
2, 130143, Control_c, 0, 64, 61
2, 130163, Control_c, 0, 64, 62
2, 130181, Control_c, 0, 64, 63
2, 130201, Control_c, 0, 64, 63
2, 130220, Control_c, 0, 64, 64
2, 130240, Control_c, 0, 64, 65
2, 130255, Note_on_c, 0, 54, 0
2, 130277, Control_c, 0, 64, 64
2, 130296, Control_c, 0, 64, 63
2, 130315, Control_c, 0, 64, 64
2, 130334, Control_c, 0, 64, 63
2, 130373, Control_c, 0, 64, 63
2, 130391, Control_c, 0, 64, 62
2, 130430, Control_c, 0, 64, 62
2, 130449, Control_c, 0, 64, 61
2, 130468, Control_c, 0, 64, 61
2, 130488, Control_c, 0, 64, 60
2, 130507, Control_c, 0, 64, 60
2, 130526, Control_c, 0, 64, 57
2, 130541, Note_on_c, 0, 71, 63
2, 130545, Control_c, 0, 64, 51
2, 130557, Note_on_c, 0, 66, 47
2, 130564, Note_on_c, 0, 63, 42
2, 130565, Control_c, 0, 64, 41
2, 130566, Note_on_c, 0, 47, 45
2, 130570, Note_on_c, 0, 59, 40
2, 130584, Control_c, 0, 64, 31
2, 130603, Control_c, 0, 64, 21
2, 130622, Control_c, 0, 64, 0
2, 130680, Control_c, 0, 64, 20
2, 130699, Control_c, 0, 64, 44
2, 130719, Control_c, 0, 64, 57
2, 130737, Control_c, 0, 64, 60
2, 130757, Control_c, 0, 64, 61
2, 130795, Control_c, 0, 64, 61
2, 130814, Control_c, 0, 64, 62
2, 130834, Control_c, 0, 64, 62
2, 130984, Note_on_c, 0, 59, 0
2, 131020, Note_on_c, 0, 75, 70
2, 131021, Note_on_c, 0, 47, 0
2, 131025, Control_c, 0, 64, 62
2, 131027, Note_on_c, 0, 71, 0
2, 131049, Note_on_c, 0, 66, 0
2, 131083, Control_c, 0, 64, 61
2, 131099, Note_on_c, 0, 63, 0
2, 131141, Control_c, 0, 64, 61
2, 131180, Control_c, 0, 64, 60
2, 131237, Control_c, 0, 64, 60
2, 131247, Note_on_c, 0, 74, 74
2, 131256, Control_c, 0, 64, 59
2, 131275, Control_c, 0, 64, 59
2, 131294, Control_c, 0, 64, 58
2, 131298, Note_on_c, 0, 75, 0
2, 131314, Control_c, 0, 64, 57
2, 131333, Control_c, 0, 64, 57
2, 131390, Control_c, 0, 64, 56
2, 131409, Control_c, 0, 64, 56
2, 131467, Control_c, 0, 64, 56
2, 131486, Control_c, 0, 64, 56
2, 131505, Control_c, 0, 64, 55
2, 131522, Note_on_c, 0, 75, 76
2, 131525, Control_c, 0, 64, 54
2, 131544, Control_c, 0, 64, 50
2, 131560, Note_on_c, 0, 74, 0
2, 131563, Control_c, 0, 64, 38
2, 131582, Control_c, 0, 64, 0
2, 131659, Control_c, 0, 64, 31
2, 131679, Control_c, 0, 64, 53
2, 131697, Control_c, 0, 64, 61
2, 131717, Control_c, 0, 64, 61
2, 131774, Control_c, 0, 64, 62
2, 131889, Control_c, 0, 64, 61
2, 131947, Control_c, 0, 64, 62
2, 131985, Control_c, 0, 64, 62
2, 131989, Note_on_c, 0, 63, 54
2, 131992, Note_on_c, 0, 70, 70
2, 132007, Note_on_c, 0, 54, 47
2, 132024, Control_c, 0, 64, 58
2, 132043, Control_c, 0, 64, 43
2, 132063, Control_c, 0, 64, 15
2, 132080, Note_on_c, 0, 75, 0
2, 132083, Control_c, 0, 64, 0
2, 132101, Control_c, 0, 64, 9
2, 132121, Control_c, 0, 64, 43
2, 132140, Control_c, 0, 64, 59
2, 132160, Control_c, 0, 64, 62
2, 132197, Control_c, 0, 64, 63
2, 132219, Note_on_c, 0, 63, 0
2, 132225, Note_on_c, 0, 54, 0
2, 132254, Control_c, 0, 64, 62
2, 132274, Control_c, 0, 64, 62
2, 132331, Control_c, 0, 64, 61
2, 132446, Control_c, 0, 64, 62
2, 132485, Control_c, 0, 64, 61
2, 132491, Note_on_c, 0, 77, 77
2, 132497, Note_on_c, 0, 68, 53
2, 132498, Note_on_c, 0, 70, 0
2, 132502, Note_on_c, 0, 71, 58
2, 132504, Control_c, 0, 64, 59
2, 132518, Note_on_c, 0, 56, 55
2, 132523, Control_c, 0, 64, 55
2, 132542, Control_c, 0, 64, 47
2, 132562, Control_c, 0, 64, 39
2, 132580, Control_c, 0, 64, 29
2, 132600, Control_c, 0, 64, 21
2, 132639, Control_c, 0, 64, 23
2, 132657, Control_c, 0, 64, 25
2, 132677, Control_c, 0, 64, 31
2, 132696, Control_c, 0, 64, 40
2, 132715, Control_c, 0, 64, 45
2, 132734, Control_c, 0, 64, 45
2, 132754, Control_c, 0, 64, 46
2, 132763, Note_on_c, 0, 77, 0
2, 132768, Note_on_c, 0, 68, 0
2, 132768, Note_on_c, 0, 71, 0
2, 132773, Control_c, 0, 64, 47
2, 132791, Control_c, 0, 64, 51
2, 132811, Control_c, 0, 64, 53
2, 132811, Note_on_c, 0, 56, 0
2, 132888, Control_c, 0, 64, 54
2, 132907, Control_c, 0, 64, 55
2, 132926, Control_c, 0, 64, 56
2, 133003, Control_c, 0, 64, 55
2, 133010, Note_on_c, 0, 56, 65
2, 133022, Control_c, 0, 64, 50
2, 133042, Control_c, 0, 64, 39
2, 133060, Control_c, 0, 64, 23
2, 133080, Control_c, 0, 64, 15
2, 133099, Control_c, 0, 64, 11
2, 133137, Control_c, 0, 64, 15
2, 133157, Control_c, 0, 64, 23
2, 133177, Control_c, 0, 64, 32
2, 133196, Control_c, 0, 64, 45
2, 133215, Control_c, 0, 64, 54
2, 133231, Note_on_c, 0, 56, 0
2, 133235, Control_c, 0, 64, 56
2, 133292, Control_c, 0, 64, 56
2, 133407, Control_c, 0, 64, 57
2, 133426, Control_c, 0, 64, 58
2, 133464, Control_c, 0, 64, 55
2, 133484, Control_c, 0, 64, 46
2, 133497, Note_on_c, 0, 74, 70
2, 133503, Control_c, 0, 64, 32
2, 133517, Note_on_c, 0, 65, 56
2, 133520, Note_on_c, 0, 58, 60
2, 133523, Control_c, 0, 64, 24
2, 133525, Note_on_c, 0, 70, 57
2, 133580, Control_c, 0, 64, 26
2, 133600, Control_c, 0, 64, 34
2, 133618, Control_c, 0, 64, 46
2, 133638, Control_c, 0, 64, 53
2, 133646, Note_on_c, 0, 70, 0
2, 133657, Control_c, 0, 64, 55
2, 133695, Control_c, 0, 64, 55
2, 133715, Control_c, 0, 64, 57
2, 133734, Control_c, 0, 64, 58
2, 133752, Control_c, 0, 64, 59
2, 133772, Control_c, 0, 64, 58
2, 133782, Note_on_c, 0, 58, 0
2, 133795, Note_on_c, 0, 65, 0
2, 133795, Note_on_c, 0, 74, 0
2, 133810, Control_c, 0, 64, 59
2, 133829, Control_c, 0, 64, 59
2, 133849, Control_c, 0, 64, 60
2, 133906, Control_c, 0, 64, 60
2, 133944, Control_c, 0, 64, 59
2, 133964, Control_c, 0, 64, 55
2, 133983, Control_c, 0, 64, 36
2, 134003, Control_c, 0, 64, 0
2, 134022, Note_on_c, 0, 58, 71
2, 134118, Control_c, 0, 64, 37
2, 134137, Control_c, 0, 64, 61
2, 134156, Control_c, 0, 64, 65
2, 134175, Control_c, 0, 64, 66
2, 134195, Control_c, 0, 64, 65
2, 134203, Note_on_c, 0, 58, 0
2, 134232, Control_c, 0, 64, 66
2, 134252, Control_c, 0, 64, 66
2, 134271, Control_c, 0, 64, 67
2, 134309, Control_c, 0, 64, 66
2, 134386, Control_c, 0, 64, 66
2, 134424, Control_c, 0, 64, 65
2, 134463, Control_c, 0, 64, 65
2, 134501, Control_c, 0, 64, 64
2, 134521, Control_c, 0, 64, 64
2, 134534, Note_on_c, 0, 75, 73
2, 134540, Control_c, 0, 64, 62
2, 134551, Note_on_c, 0, 66, 53
2, 134556, Note_on_c, 0, 63, 55
2, 134560, Control_c, 0, 64, 58
2, 134565, Note_on_c, 0, 51, 54
2, 134578, Control_c, 0, 64, 46
2, 134598, Control_c, 0, 64, 31
2, 134617, Control_c, 0, 64, 15
2, 134636, Control_c, 0, 64, 0
2, 134694, Control_c, 0, 64, 9
2, 134712, Control_c, 0, 64, 32
2, 134732, Control_c, 0, 64, 55
2, 134751, Control_c, 0, 64, 64
2, 134770, Control_c, 0, 64, 65
2, 134787, Note_on_c, 0, 66, 0
2, 134789, Control_c, 0, 64, 65
2, 134809, Control_c, 0, 64, 65
2, 134828, Control_c, 0, 64, 66
2, 134847, Control_c, 0, 64, 67
2, 134867, Note_on_c, 0, 63, 0
2, 134886, Control_c, 0, 64, 68
2, 134963, Control_c, 0, 64, 68
2, 134981, Control_c, 0, 64, 69
2, 135001, Control_c, 0, 64, 70
2, 135020, Control_c, 0, 64, 73
2, 135030, Note_on_c, 0, 77, 81
2, 135040, Control_c, 0, 64, 75
2, 135044, Note_on_c, 0, 51, 0
2, 135058, Control_c, 0, 64, 74
2, 135069, Note_on_c, 0, 68, 56
2, 135078, Control_c, 0, 64, 64
2, 135096, Control_c, 0, 64, 48
2, 135099, Note_on_c, 0, 75, 0
2, 135115, Control_c, 0, 64, 36
2, 135153, Control_c, 0, 64, 44
2, 135173, Control_c, 0, 64, 60
2, 135191, Control_c, 0, 64, 66
2, 135211, Control_c, 0, 64, 72
2, 135230, Control_c, 0, 64, 78
2, 135250, Control_c, 0, 64, 82
2, 135268, Control_c, 0, 64, 85
2, 135384, Note_on_c, 0, 68, 0
2, 135422, Control_c, 0, 64, 84
2, 135480, Control_c, 0, 64, 83
2, 135499, Control_c, 0, 64, 81
2, 135519, Control_c, 0, 64, 78
2, 135537, Control_c, 0, 64, 76
2, 135557, Control_c, 0, 64, 73
2, 135576, Control_c, 0, 64, 71
2, 135595, Control_c, 0, 64, 70
2, 135614, Control_c, 0, 64, 68
2, 135629, Note_on_c, 0, 63, 71
2, 135633, Control_c, 0, 64, 67
2, 135638, Note_on_c, 0, 78, 71
2, 135651, Note_on_c, 0, 70, 59
2, 135653, Control_c, 0, 64, 65
2, 135671, Control_c, 0, 64, 64
2, 135691, Control_c, 0, 64, 64
2, 135708, Note_on_c, 0, 77, 0
2, 135710, Control_c, 0, 64, 63
2, 135730, Control_c, 0, 64, 62
2, 135748, Control_c, 0, 64, 60
2, 135768, Control_c, 0, 64, 56
2, 135787, Control_c, 0, 64, 48
2, 135806, Control_c, 0, 64, 35
2, 135825, Control_c, 0, 64, 13
2, 135845, Control_c, 0, 64, 0
2, 135923, Control_c, 0, 64, 22
2, 135941, Control_c, 0, 64, 34
2, 135961, Control_c, 0, 64, 41
2, 135980, Control_c, 0, 64, 48
2, 136000, Control_c, 0, 64, 52
2, 136018, Control_c, 0, 64, 53
2, 136038, Control_c, 0, 64, 55
2, 136057, Control_c, 0, 64, 57
2, 136076, Control_c, 0, 64, 60
2, 136095, Control_c, 0, 64, 61
2, 136136, Note_on_c, 0, 70, 0
2, 136136, Note_on_c, 0, 71, 68
2, 136172, Control_c, 0, 64, 62
2, 136191, Control_c, 0, 64, 63
2, 136210, Control_c, 0, 64, 63
2, 136268, Control_c, 0, 64, 64
2, 136287, Control_c, 0, 64, 65
2, 136306, Control_c, 0, 64, 66
2, 136326, Control_c, 0, 64, 67
2, 136344, Control_c, 0, 64, 67
2, 136373, Note_on_c, 0, 70, 74
2, 136421, Control_c, 0, 64, 68
2, 136449, Note_on_c, 0, 71, 0
2, 136495, Note_on_c, 0, 70, 0
2, 136537, Control_c, 0, 64, 67
2, 136669, Note_on_c, 0, 60, 59
2, 136670, Note_on_c, 0, 68, 62
2, 136671, Control_c, 0, 64, 67
2, 136690, Control_c, 0, 64, 64
2, 136709, Control_c, 0, 64, 56
2, 136729, Control_c, 0, 64, 42
2, 136738, Note_on_c, 0, 63, 0
2, 136748, Control_c, 0, 64, 34
2, 136767, Control_c, 0, 64, 34
2, 136786, Control_c, 0, 64, 41
2, 136806, Control_c, 0, 64, 57
2, 136824, Control_c, 0, 64, 64
2, 136844, Control_c, 0, 64, 66
2, 136865, Control_c, 0, 64, 67
2, 136923, Control_c, 0, 64, 67
2, 136951, Note_on_c, 0, 68, 0
2, 136961, Control_c, 0, 64, 67
2, 136980, Control_c, 0, 64, 66
2, 137017, Control_c, 0, 64, 66
2, 137036, Control_c, 0, 64, 65
2, 137132, Control_c, 0, 64, 65
2, 137166, Note_on_c, 0, 76, 65
2, 137173, Note_on_c, 0, 61, 63
2, 137175, Note_on_c, 0, 73, 59
2, 137182, Note_on_c, 0, 78, 0
2, 137209, Control_c, 0, 64, 64
2, 137214, Note_on_c, 0, 60, 0
2, 137228, Control_c, 0, 64, 63
2, 137247, Control_c, 0, 64, 60
2, 137266, Control_c, 0, 64, 53
2, 137286, Control_c, 0, 64, 44
2, 137304, Control_c, 0, 64, 41
2, 137324, Control_c, 0, 64, 42
2, 137343, Control_c, 0, 64, 47
2, 137363, Control_c, 0, 64, 52
2, 137381, Control_c, 0, 64, 53
2, 137399, Note_on_c, 0, 63, 74
2, 137401, Control_c, 0, 64, 54
2, 137403, Note_on_c, 0, 78, 77
2, 137420, Control_c, 0, 64, 55
2, 137440, Control_c, 0, 64, 57
2, 137449, Note_on_c, 0, 61, 0
2, 137458, Control_c, 0, 64, 58
2, 137478, Control_c, 0, 64, 59
2, 137478, Note_on_c, 0, 76, 0
2, 137516, Control_c, 0, 64, 59
2, 137555, Control_c, 0, 64, 60
2, 137631, Control_c, 0, 64, 60
2, 137650, Control_c, 0, 64, 61
2, 137657, Note_on_c, 0, 63, 0
2, 137662, Note_on_c, 0, 80, 73
2, 137663, Note_on_c, 0, 64, 70
2, 137689, Control_c, 0, 64, 61
2, 137702, Note_on_c, 0, 78, 0
2, 137708, Control_c, 0, 64, 58
2, 137727, Control_c, 0, 64, 52
2, 137746, Control_c, 0, 64, 43
2, 137766, Control_c, 0, 64, 28
2, 137776, Note_on_c, 0, 73, 0
2, 137784, Control_c, 0, 64, 11
2, 137804, Control_c, 0, 64, 0
2, 137843, Control_c, 0, 64, 29
2, 137861, Control_c, 0, 64, 50
2, 137881, Control_c, 0, 64, 60
2, 137900, Control_c, 0, 64, 61
2, 137920, Control_c, 0, 64, 60
2, 137938, Control_c, 0, 64, 61
2, 137997, Control_c, 0, 64, 60
2, 138035, Note_on_c, 0, 64, 0
2, 138054, Control_c, 0, 64, 61
2, 138131, Control_c, 0, 64, 59
2, 138144, Note_on_c, 0, 75, 65
2, 138147, Note_on_c, 0, 79, 69
2, 138150, Control_c, 0, 64, 55
2, 138152, Note_on_c, 0, 63, 66
2, 138159, Note_on_c, 0, 80, 0
2, 138170, Control_c, 0, 64, 46
2, 138189, Control_c, 0, 64, 35
2, 138208, Control_c, 0, 64, 27
2, 138227, Control_c, 0, 64, 26
2, 138265, Control_c, 0, 64, 29
2, 138285, Control_c, 0, 64, 41
2, 138304, Control_c, 0, 64, 54
2, 138324, Control_c, 0, 64, 59
2, 138342, Control_c, 0, 64, 60
2, 138362, Control_c, 0, 64, 61
2, 138381, Control_c, 0, 64, 62
2, 138383, Note_on_c, 0, 80, 79
2, 138492, Note_on_c, 0, 79, 0
2, 138553, Control_c, 0, 64, 62
2, 138573, Control_c, 0, 64, 63
2, 138576, Note_on_c, 0, 75, 0
2, 138592, Control_c, 0, 64, 63
2, 138613, Note_on_c, 0, 63, 0
2, 138630, Control_c, 0, 64, 63
2, 138650, Control_c, 0, 64, 61
2, 138669, Control_c, 0, 64, 56
2, 138669, Note_on_c, 0, 82, 71
2, 138679, Note_on_c, 0, 61, 65
2, 138679, Note_on_c, 0, 76, 51
2, 138688, Control_c, 0, 64, 47
2, 138707, Control_c, 0, 64, 37
2, 138723, Note_on_c, 0, 80, 0
2, 138727, Control_c, 0, 64, 35
2, 138784, Control_c, 0, 64, 37
2, 138804, Control_c, 0, 64, 41
2, 138822, Control_c, 0, 64, 46
2, 138842, Control_c, 0, 64, 50
2, 138861, Control_c, 0, 64, 52
2, 138880, Control_c, 0, 64, 53
2, 138899, Control_c, 0, 64, 53
2, 138919, Control_c, 0, 64, 55
2, 138936, Control_c, 0, 64, 58
2, 138954, Control_c, 0, 64, 59
2, 139031, Control_c, 0, 64, 59
2, 139051, Control_c, 0, 64, 60
2, 139090, Control_c, 0, 64, 60
2, 139116, Note_on_c, 0, 61, 0
2, 139128, Control_c, 0, 64, 59
2, 139147, Control_c, 0, 64, 55
2, 139149, Note_on_c, 0, 67, 68
2, 139159, Note_on_c, 0, 80, 74
2, 139166, Control_c, 0, 64, 47
2, 139184, Note_on_c, 0, 82, 0
2, 139185, Control_c, 0, 64, 37
2, 139205, Control_c, 0, 64, 31
2, 139243, Control_c, 0, 64, 34
2, 139262, Control_c, 0, 64, 45
2, 139282, Control_c, 0, 64, 54
2, 139300, Control_c, 0, 64, 56
2, 139320, Control_c, 0, 64, 56
2, 139339, Control_c, 0, 64, 59
2, 139359, Control_c, 0, 64, 61
2, 139393, Note_on_c, 0, 82, 84
2, 139410, Note_on_c, 0, 76, 0
2, 139434, Control_c, 0, 64, 61
2, 139454, Control_c, 0, 64, 61
2, 139473, Control_c, 0, 64, 60
2, 139531, Control_c, 0, 64, 60
2, 139554, Note_on_c, 0, 80, 0
2, 139588, Control_c, 0, 64, 59
2, 139608, Control_c, 0, 64, 59
2, 139627, Control_c, 0, 64, 58
2, 139646, Control_c, 0, 64, 56
2, 139665, Control_c, 0, 64, 55
2, 139671, Note_on_c, 0, 83, 71
2, 139685, Control_c, 0, 64, 53
2, 139685, Note_on_c, 0, 68, 61
2, 139689, Note_on_c, 0, 75, 56
2, 139704, Control_c, 0, 64, 51
2, 139718, Note_on_c, 0, 82, 0
2, 139723, Control_c, 0, 64, 50
2, 139724, Note_on_c, 0, 67, 0
2, 139780, Control_c, 0, 64, 50
2, 139800, Control_c, 0, 64, 49
2, 139819, Control_c, 0, 64, 48
2, 139839, Control_c, 0, 64, 47
2, 139857, Control_c, 0, 64, 47
2, 139877, Control_c, 0, 64, 46
2, 140056, Note_on_c, 0, 68, 0
2, 140068, Control_c, 0, 64, 43
2, 140088, Control_c, 0, 64, 36
2, 140107, Control_c, 0, 64, 28
2, 140126, Control_c, 0, 64, 23
2, 140145, Control_c, 0, 64, 21
2, 140184, Control_c, 0, 64, 20
2, 140194, Note_on_c, 0, 59, 63
2, 140199, Note_on_c, 0, 80, 73
2, 140203, Control_c, 0, 64, 21
2, 140222, Control_c, 0, 64, 36
2, 140230, Note_on_c, 0, 83, 0
2, 140242, Control_c, 0, 64, 52
2, 140260, Control_c, 0, 64, 57
2, 140280, Control_c, 0, 64, 57
2, 140299, Control_c, 0, 64, 58
2, 140319, Control_c, 0, 64, 59
2, 140337, Control_c, 0, 64, 61
2, 140357, Control_c, 0, 64, 61
2, 140376, Control_c, 0, 64, 61
2, 140378, Note_on_c, 0, 75, 0
2, 140433, Control_c, 0, 64, 60
2, 140453, Control_c, 0, 64, 59
2, 140471, Control_c, 0, 64, 58
2, 140491, Control_c, 0, 64, 58
2, 140510, Control_c, 0, 64, 57
2, 140530, Control_c, 0, 64, 56
2, 140587, Control_c, 0, 64, 55
2, 140606, Control_c, 0, 64, 55
2, 140625, Control_c, 0, 64, 54
2, 140644, Note_on_c, 0, 59, 0
2, 140645, Control_c, 0, 64, 54
2, 140664, Control_c, 0, 64, 52
2, 140683, Control_c, 0, 64, 50
2, 140691, Note_on_c, 0, 73, 52
2, 140691, Note_on_c, 0, 82, 73
2, 140700, Note_on_c, 0, 61, 55
2, 140702, Control_c, 0, 64, 49
2, 140722, Control_c, 0, 64, 48
2, 140739, Note_on_c, 0, 80, 0
2, 140740, Control_c, 0, 64, 47
2, 140760, Control_c, 0, 64, 47
2, 140779, Control_c, 0, 64, 46
2, 140799, Control_c, 0, 64, 46
2, 140817, Control_c, 0, 64, 45
2, 140834, Control_c, 0, 64, 44
2, 140854, Control_c, 0, 64, 44
2, 140873, Control_c, 0, 64, 43
2, 140892, Control_c, 0, 64, 41
2, 140911, Control_c, 0, 64, 40
2, 140931, Control_c, 0, 64, 40
2, 140938, Note_on_c, 0, 61, 0
2, 141190, Note_on_c, 0, 61, 61
2, 141257, Control_c, 0, 64, 40
2, 141277, Control_c, 0, 64, 41
2, 141295, Control_c, 0, 64, 43
2, 141314, Control_c, 0, 64, 47
2, 141328, Note_on_c, 0, 82, 0
2, 141334, Control_c, 0, 64, 49
2, 141372, Control_c, 0, 64, 50
2, 141391, Control_c, 0, 64, 50
2, 141411, Control_c, 0, 64, 51
2, 141429, Control_c, 0, 64, 51
2, 141431, Note_on_c, 0, 61, 0
2, 141682, Control_c, 0, 64, 51
2, 141700, Control_c, 0, 64, 50
2, 141703, Note_on_c, 0, 63, 50
2, 141710, Note_on_c, 0, 79, 65
2, 141720, Control_c, 0, 64, 48
2, 141739, Control_c, 0, 64, 47
2, 141759, Control_c, 0, 64, 47
2, 141854, Control_c, 0, 64, 48
2, 141873, Control_c, 0, 64, 49
2, 141893, Control_c, 0, 64, 49
2, 141911, Control_c, 0, 64, 50
2, 141950, Control_c, 0, 64, 51
2, 141970, Control_c, 0, 64, 52
2, 141988, Control_c, 0, 64, 54
2, 142008, Control_c, 0, 64, 54
2, 142027, Control_c, 0, 64, 55
2, 142032, Note_on_c, 0, 63, 0
2, 142046, Control_c, 0, 64, 56
2, 142065, Control_c, 0, 64, 57
2, 142085, Control_c, 0, 64, 58
2, 142200, Control_c, 0, 64, 58
2, 142208, Note_on_c, 0, 63, 56
2, 142220, Note_on_c, 0, 79, 0
2, 142239, Control_c, 0, 64, 57
2, 142257, Control_c, 0, 64, 57
2, 142373, Control_c, 0, 64, 57
2, 142391, Control_c, 0, 64, 58
2, 142411, Control_c, 0, 64, 59
2, 142430, Control_c, 0, 64, 60
2, 142507, Control_c, 0, 64, 59
2, 142545, Control_c, 0, 64, 59
2, 142571, Note_on_c, 0, 63, 0
2, 142603, Control_c, 0, 64, 58
2, 142623, Control_c, 0, 64, 58
2, 142643, Control_c, 0, 64, 57
2, 142700, Control_c, 0, 64, 57
2, 142720, Note_on_c, 0, 80, 64
2, 142738, Control_c, 0, 64, 56
2, 142771, Note_on_c, 0, 56, 40
2, 142777, Control_c, 0, 64, 56
2, 142988, Control_c, 0, 64, 55
2, 143123, Control_c, 0, 64, 56
2, 143141, Control_c, 0, 64, 56
2, 143180, Control_c, 0, 64, 57
2, 143200, Control_c, 0, 64, 57
2, 143218, Control_c, 0, 64, 58
2, 143238, Control_c, 0, 64, 57
2, 143242, Note_on_c, 0, 78, 65
2, 143257, Control_c, 0, 64, 53
2, 143276, Control_c, 0, 64, 47
2, 143295, Control_c, 0, 64, 45
2, 143314, Control_c, 0, 64, 47
2, 143334, Control_c, 0, 64, 54
2, 143352, Control_c, 0, 64, 59
2, 143372, Control_c, 0, 64, 61
2, 143391, Control_c, 0, 64, 62
2, 143410, Control_c, 0, 64, 62
2, 143429, Control_c, 0, 64, 63
2, 143449, Control_c, 0, 64, 63
2, 143467, Note_on_c, 0, 73, 0
2, 143470, Note_on_c, 0, 76, 72
2, 143526, Control_c, 0, 64, 63
2, 143526, Note_on_c, 0, 80, 0
2, 143594, Note_on_c, 0, 56, 0
2, 143604, Control_c, 0, 64, 62
2, 143642, Control_c, 0, 64, 62
2, 143656, Note_on_c, 0, 78, 0
2, 143680, Control_c, 0, 64, 61
2, 143699, Control_c, 0, 64, 61
2, 143717, Control_c, 0, 64, 60
2, 143736, Control_c, 0, 64, 60
2, 143749, Note_on_c, 0, 75, 66
2, 143761, Note_on_c, 0, 71, 51
2, 143793, Control_c, 0, 64, 59
2, 143813, Control_c, 0, 64, 59
2, 143827, Note_on_c, 0, 76, 0
2, 143831, Control_c, 0, 64, 58
2, 143851, Control_c, 0, 64, 55
2, 143870, Control_c, 0, 64, 50
2, 143890, Control_c, 0, 64, 43
2, 143908, Control_c, 0, 64, 40
2, 143966, Control_c, 0, 64, 41
2, 143985, Control_c, 0, 64, 44
2, 144005, Control_c, 0, 64, 49
2, 144024, Control_c, 0, 64, 54
2, 144082, Control_c, 0, 64, 55
2, 144100, Control_c, 0, 64, 57
2, 144120, Control_c, 0, 64, 59
2, 144177, Control_c, 0, 64, 59
2, 144197, Control_c, 0, 64, 61
2, 144234, Control_c, 0, 64, 58
2, 144248, Note_on_c, 0, 56, 48
2, 144250, Note_on_c, 0, 76, 65
2, 144254, Control_c, 0, 64, 44
2, 144273, Control_c, 0, 64, 20
2, 144293, Control_c, 0, 64, 0
2, 144331, Control_c, 0, 64, 39
2, 144332, Note_on_c, 0, 75, 0
2, 144350, Control_c, 0, 64, 57
2, 144370, Control_c, 0, 64, 61
2, 144388, Control_c, 0, 64, 62
2, 144403, Note_on_c, 0, 71, 0
2, 144427, Control_c, 0, 64, 62
2, 144446, Control_c, 0, 64, 63
2, 144523, Control_c, 0, 64, 62
2, 144561, Control_c, 0, 64, 62
2, 144579, Control_c, 0, 64, 61
2, 144581, Note_on_c, 0, 56, 0
2, 144618, Control_c, 0, 64, 61
2, 144675, Control_c, 0, 64, 60
2, 144695, Control_c, 0, 64, 60
2, 144714, Control_c, 0, 64, 59
2, 144733, Control_c, 0, 64, 58
2, 144740, Note_on_c, 0, 69, 48
2, 144751, Note_on_c, 0, 78, 65
2, 144752, Control_c, 0, 64, 57
2, 144764, Note_on_c, 0, 57, 44
2, 144772, Control_c, 0, 64, 56
2, 144790, Control_c, 0, 64, 56
2, 144819, Note_on_c, 0, 76, 0
2, 144829, Control_c, 0, 64, 55
2, 144849, Control_c, 0, 64, 55
2, 144867, Control_c, 0, 64, 54
2, 144887, Control_c, 0, 64, 52
2, 144906, Control_c, 0, 64, 50
2, 144925, Control_c, 0, 64, 46
2, 144944, Control_c, 0, 64, 41
2, 144964, Control_c, 0, 64, 31
2, 144983, Control_c, 0, 64, 0
2, 144993, Note_on_c, 0, 57, 0
2, 145238, Note_on_c, 0, 57, 54
2, 145252, Control_c, 0, 64, 9
2, 145270, Control_c, 0, 64, 26
2, 145275, Note_on_c, 0, 78, 0
2, 145290, Control_c, 0, 64, 34
2, 145309, Control_c, 0, 64, 38
2, 145329, Control_c, 0, 64, 40
2, 145444, Control_c, 0, 64, 39
2, 145463, Control_c, 0, 64, 39
2, 145472, Note_on_c, 0, 57, 0
2, 145501, Control_c, 0, 64, 38
2, 145521, Control_c, 0, 64, 36
2, 145539, Control_c, 0, 64, 32
2, 145559, Control_c, 0, 64, 30
2, 145578, Control_c, 0, 64, 28
2, 145598, Control_c, 0, 64, 26
2, 145616, Control_c, 0, 64, 23
2, 145635, Control_c, 0, 64, 21
2, 145674, Control_c, 0, 64, 20
2, 145712, Control_c, 0, 64, 19
2, 145724, Note_on_c, 0, 75, 65
2, 145732, Control_c, 0, 64, 18
2, 145744, Note_on_c, 0, 59, 45
2, 145750, Control_c, 0, 64, 17
2, 146025, Note_on_c, 0, 59, 0
2, 146039, Control_c, 0, 64, 19
2, 146058, Control_c, 0, 64, 25
2, 146078, Control_c, 0, 64, 29
2, 146096, Control_c, 0, 64, 31
2, 146115, Control_c, 0, 64, 33
2, 146135, Control_c, 0, 64, 35
2, 146154, Control_c, 0, 64, 36
2, 146173, Control_c, 0, 64, 38
2, 146184, Note_on_c, 0, 75, 0
2, 146192, Control_c, 0, 64, 40
2, 146209, Note_on_c, 0, 59, 60
2, 146212, Control_c, 0, 64, 42
2, 146230, Control_c, 0, 64, 43
2, 146250, Control_c, 0, 64, 44
2, 146269, Control_c, 0, 64, 45
2, 146289, Control_c, 0, 64, 48
2, 146307, Control_c, 0, 64, 51
2, 146327, Control_c, 0, 64, 53
2, 146346, Control_c, 0, 64, 54
2, 146365, Control_c, 0, 64, 54
2, 146384, Control_c, 0, 64, 55
2, 146404, Control_c, 0, 64, 56
2, 146423, Control_c, 0, 64, 57
2, 146462, Control_c, 0, 64, 57
2, 146489, Note_on_c, 0, 59, 0
2, 146520, Control_c, 0, 64, 56
2, 146559, Control_c, 0, 64, 55
2, 146577, Control_c, 0, 64, 55
2, 146595, Control_c, 0, 64, 54
2, 146616, Control_c, 0, 64, 53
2, 146634, Control_c, 0, 64, 53
2, 146673, Control_c, 0, 64, 52
2, 146730, Note_on_c, 0, 76, 60
2, 146731, Control_c, 0, 64, 52
2, 146748, Note_on_c, 0, 52, 39
2, 146770, Control_c, 0, 64, 51
2, 146788, Control_c, 0, 64, 49
2, 146808, Control_c, 0, 64, 44
2, 146827, Control_c, 0, 64, 35
2, 146846, Control_c, 0, 64, 27
2, 146865, Control_c, 0, 64, 21
2, 146885, Control_c, 0, 64, 19
2, 146904, Control_c, 0, 64, 18
2, 147039, Control_c, 0, 64, 21
2, 147057, Control_c, 0, 64, 27
2, 147077, Control_c, 0, 64, 30
2, 147096, Control_c, 0, 64, 32
2, 147114, Control_c, 0, 64, 36
2, 147134, Control_c, 0, 64, 40
2, 147153, Control_c, 0, 64, 46
2, 147173, Control_c, 0, 64, 49
2, 147191, Control_c, 0, 64, 50
2, 147211, Control_c, 0, 64, 51
2, 147214, Note_on_c, 0, 75, 67
2, 147230, Control_c, 0, 64, 52
2, 147250, Control_c, 0, 64, 53
2, 147268, Control_c, 0, 64, 54
2, 147288, Control_c, 0, 64, 54
2, 147334, Note_on_c, 0, 76, 0
2, 147365, Control_c, 0, 64, 54
2, 147403, Control_c, 0, 64, 53
2, 147419, Note_on_c, 0, 69, 0
2, 147422, Control_c, 0, 64, 53
2, 147438, Note_on_c, 0, 73, 66
2, 147442, Control_c, 0, 64, 52
2, 147460, Control_c, 0, 64, 51
2, 147499, Control_c, 0, 64, 50
2, 147537, Control_c, 0, 64, 50
2, 147553, Control_c, 0, 64, 49
2, 147573, Control_c, 0, 64, 48
2, 147588, Note_on_c, 0, 75, 0
2, 147592, Control_c, 0, 64, 47
2, 147611, Control_c, 0, 64, 46
2, 147630, Control_c, 0, 64, 45
2, 147650, Control_c, 0, 64, 42
2, 147651, Note_on_c, 0, 52, 0
2, 147669, Control_c, 0, 64, 37
2, 147688, Control_c, 0, 64, 28
2, 147707, Control_c, 0, 64, 0
2, 147708, Note_on_c, 0, 72, 66
2, 147736, Note_on_c, 0, 68, 47
2, 147778, Note_on_c, 0, 73, 0
2, 148201, Note_on_c, 0, 73, 67
2, 148261, Note_on_c, 0, 52, 8
2, 148302, Control_c, 0, 64, 29
2, 148308, Note_on_c, 0, 72, 0
2, 148322, Control_c, 0, 64, 43
2, 148330, Note_on_c, 0, 68, 0
2, 148341, Control_c, 0, 64, 50
2, 148360, Control_c, 0, 64, 54
2, 148382, Control_c, 0, 64, 55
2, 148420, Control_c, 0, 64, 54
2, 148479, Control_c, 0, 64, 53
2, 148497, Control_c, 0, 64, 52
2, 148518, Control_c, 0, 64, 52
2, 148535, Control_c, 0, 64, 51
2, 148554, Control_c, 0, 64, 51
2, 148573, Control_c, 0, 64, 50
2, 148592, Control_c, 0, 64, 49
2, 148612, Control_c, 0, 64, 48
2, 148630, Control_c, 0, 64, 47
2, 148650, Control_c, 0, 64, 46
2, 148655, Note_on_c, 0, 52, 0
2, 148669, Control_c, 0, 64, 45
2, 148689, Control_c, 0, 64, 43
2, 148692, Note_on_c, 0, 75, 69
2, 148707, Control_c, 0, 64, 41
2, 148717, Note_on_c, 0, 66, 40
2, 148720, Note_on_c, 0, 54, 41
2, 148727, Control_c, 0, 64, 39
2, 148746, Control_c, 0, 64, 36
2, 148763, Note_on_c, 0, 73, 0
2, 148765, Control_c, 0, 64, 35
2, 148784, Control_c, 0, 64, 33
2, 148804, Control_c, 0, 64, 31
2, 148823, Control_c, 0, 64, 30
2, 148842, Control_c, 0, 64, 29
2, 148888, Note_on_c, 0, 54, 0
2, 149015, Control_c, 0, 64, 30
2, 149034, Control_c, 0, 64, 31
2, 149053, Control_c, 0, 64, 32
2, 149072, Control_c, 0, 64, 34
2, 149092, Control_c, 0, 64, 34
2, 149110, Control_c, 0, 64, 35
2, 149130, Control_c, 0, 64, 35
2, 149149, Control_c, 0, 64, 36
2, 149169, Control_c, 0, 64, 36
2, 149182, Note_on_c, 0, 54, 55
2, 149187, Control_c, 0, 64, 37
2, 149207, Control_c, 0, 64, 38
2, 149226, Control_c, 0, 64, 39
2, 149243, Note_on_c, 0, 75, 0
2, 149264, Control_c, 0, 64, 40
2, 149284, Control_c, 0, 64, 40
2, 149303, Control_c, 0, 64, 41
2, 149343, Control_c, 0, 64, 41
2, 149363, Control_c, 0, 64, 42
2, 149381, Control_c, 0, 64, 43
2, 149424, Note_on_c, 0, 54, 0
2, 149440, Control_c, 0, 64, 43
2, 149474, Control_c, 0, 64, 44
2, 149609, Control_c, 0, 64, 44
2, 149680, Note_on_c, 0, 72, 66
2, 149686, Control_c, 0, 64, 42
2, 149705, Control_c, 0, 64, 34
2, 149709, Note_on_c, 0, 56, 38
2, 149725, Control_c, 0, 64, 18
2, 149743, Control_c, 0, 64, 0
2, 149916, Control_c, 0, 64, 9
2, 149935, Control_c, 0, 64, 13
2, 149937, Note_on_c, 0, 56, 0
2, 149954, Control_c, 0, 64, 21
2, 149974, Control_c, 0, 64, 27
2, 149993, Control_c, 0, 64, 29
2, 150031, Control_c, 0, 64, 30
2, 150051, Control_c, 0, 64, 31
2, 150069, Control_c, 0, 64, 32
2, 150089, Control_c, 0, 64, 32
2, 150146, Control_c, 0, 64, 33
2, 150166, Control_c, 0, 64, 34
2, 150170, Note_on_c, 0, 56, 58
2, 150185, Control_c, 0, 64, 35
2, 150191, Note_on_c, 0, 72, 0
2, 150205, Control_c, 0, 64, 38
2, 150223, Control_c, 0, 64, 44
2, 150243, Control_c, 0, 64, 52
2, 150262, Control_c, 0, 64, 56
2, 150321, Control_c, 0, 64, 56
2, 150340, Control_c, 0, 64, 58
2, 150359, Control_c, 0, 64, 58
2, 150398, Control_c, 0, 64, 58
2, 150447, Note_on_c, 0, 56, 0
2, 150493, Control_c, 0, 64, 57
2, 150589, Control_c, 0, 64, 58
2, 150609, Control_c, 0, 64, 58
2, 150647, Control_c, 0, 64, 58
2, 150666, Control_c, 0, 64, 53
2, 150668, Note_on_c, 0, 73, 63
2, 150685, Control_c, 0, 64, 34
2, 150685, Note_on_c, 0, 49, 48
2, 150704, Control_c, 0, 64, 0
2, 150801, Control_c, 0, 64, 33
2, 150820, Control_c, 0, 64, 49
2, 150839, Control_c, 0, 64, 57
2, 150858, Control_c, 0, 64, 59
2, 150878, Control_c, 0, 64, 60
2, 150896, Control_c, 0, 64, 62
2, 150911, Note_on_c, 0, 66, 0
2, 150915, Control_c, 0, 64, 62
2, 150935, Control_c, 0, 64, 63
2, 150954, Control_c, 0, 64, 63
2, 150973, Control_c, 0, 64, 64
2, 150992, Control_c, 0, 64, 64
2, 151050, Control_c, 0, 64, 65
2, 151069, Control_c, 0, 64, 65
2, 151089, Control_c, 0, 64, 66
2, 151107, Control_c, 0, 64, 66
2, 151149, Note_on_c, 0, 51, 53
2, 151156, Note_on_c, 0, 64, 54
2, 151184, Control_c, 0, 64, 67
2, 151262, Note_on_c, 0, 49, 0
2, 151263, Control_c, 0, 64, 67
2, 151283, Control_c, 0, 64, 68
2, 151301, Control_c, 0, 64, 68
2, 151321, Control_c, 0, 64, 69
2, 151360, Control_c, 0, 64, 69
2, 151390, Note_on_c, 0, 51, 0
2, 151411, Note_on_c, 0, 66, 63
2, 151531, Control_c, 0, 64, 69
2, 151536, Note_on_c, 0, 64, 0
2, 151550, Control_c, 0, 64, 68
2, 151570, Control_c, 0, 64, 68
2, 151588, Control_c, 0, 64, 67
2, 151608, Control_c, 0, 64, 67
2, 151627, Control_c, 0, 64, 66
2, 151646, Control_c, 0, 64, 65
2, 151665, Control_c, 0, 64, 65
2, 151685, Control_c, 0, 64, 64
2, 151704, Control_c, 0, 64, 64
2, 151711, Note_on_c, 0, 49, 69
2, 151714, Note_on_c, 0, 68, 67
2, 151726, Note_on_c, 0, 52, 59
2, 151747, Note_on_c, 0, 66, 0
2, 151762, Control_c, 0, 64, 63
2, 151780, Control_c, 0, 64, 61
2, 151800, Control_c, 0, 64, 55
2, 151819, Control_c, 0, 64, 42
2, 151839, Control_c, 0, 64, 19
2, 151857, Control_c, 0, 64, 0
2, 151991, Control_c, 0, 64, 22
2, 152011, Control_c, 0, 64, 35
2, 152030, Control_c, 0, 64, 43
2, 152050, Control_c, 0, 64, 50
2, 152068, Control_c, 0, 64, 57
2, 152088, Control_c, 0, 64, 61
2, 152107, Control_c, 0, 64, 62
2, 152126, Control_c, 0, 64, 63
2, 152145, Control_c, 0, 64, 63
2, 152165, Control_c, 0, 64, 65
2, 152179, Note_on_c, 0, 54, 49
2, 152184, Control_c, 0, 64, 66
2, 152184, Note_on_c, 0, 66, 61
2, 152203, Control_c, 0, 64, 67
2, 152224, Control_c, 0, 64, 68
2, 152244, Control_c, 0, 64, 69
2, 152262, Control_c, 0, 64, 69
2, 152282, Control_c, 0, 64, 70
2, 152301, Control_c, 0, 64, 70
2, 152320, Control_c, 0, 64, 71
2, 152339, Control_c, 0, 64, 71
2, 152340, Note_on_c, 0, 52, 0
2, 152349, Note_on_c, 0, 49, 0
2, 152358, Note_on_c, 0, 68, 0
2, 152415, Control_c, 0, 64, 71
2, 152440, Note_on_c, 0, 64, 60
2, 152448, Note_on_c, 0, 66, 0
2, 152454, Control_c, 0, 64, 70
2, 152472, Control_c, 0, 64, 70
2, 152511, Control_c, 0, 64, 69
2, 152530, Control_c, 0, 64, 69
2, 152549, Control_c, 0, 64, 68
2, 152569, Control_c, 0, 64, 67
2, 152588, Control_c, 0, 64, 66
2, 152664, Control_c, 0, 64, 65
2, 152684, Control_c, 0, 64, 56
2, 152690, Note_on_c, 0, 54, 0
2, 152703, Control_c, 0, 64, 0
2, 152703, Note_on_c, 0, 56, 57
2, 152708, Note_on_c, 0, 63, 61
2, 152709, Note_on_c, 0, 48, 52
2, 152754, Note_on_c, 0, 64, 0
2, 152818, Control_c, 0, 64, 54
2, 152838, Control_c, 0, 64, 64
2, 152844, Note_on_c, 0, 73, 0
2, 152857, Control_c, 0, 64, 66
2, 152914, Control_c, 0, 64, 66
2, 152971, Note_on_c, 0, 56, 0
2, 152972, Control_c, 0, 64, 67
2, 152982, Note_on_c, 0, 48, 0
2, 153068, Control_c, 0, 64, 67
2, 153126, Control_c, 0, 64, 67
2, 153144, Control_c, 0, 64, 66
2, 153164, Control_c, 0, 64, 66
2, 153174, Note_on_c, 0, 63, 0
2, 153179, Note_on_c, 0, 73, 66
2, 153183, Control_c, 0, 64, 65
2, 153194, Note_on_c, 0, 49, 59
2, 153200, Note_on_c, 0, 56, 51
2, 153200, Note_on_c, 0, 64, 51
2, 153203, Control_c, 0, 64, 64
2, 153221, Control_c, 0, 64, 63
2, 153241, Control_c, 0, 64, 62
2, 153260, Control_c, 0, 64, 61
2, 153280, Control_c, 0, 64, 60
2, 153298, Control_c, 0, 64, 59
2, 153318, Control_c, 0, 64, 59
2, 153336, Control_c, 0, 64, 57
2, 153354, Control_c, 0, 64, 56
2, 153374, Control_c, 0, 64, 55
2, 153393, Control_c, 0, 64, 55
2, 153410, Note_on_c, 0, 51, 64
2, 153413, Control_c, 0, 64, 53
2, 153422, Note_on_c, 0, 66, 60
2, 153431, Control_c, 0, 64, 52
2, 153451, Control_c, 0, 64, 51
2, 153458, Note_on_c, 0, 49, 0
2, 153528, Control_c, 0, 64, 51
2, 153547, Control_c, 0, 64, 50
2, 153605, Control_c, 0, 64, 49
2, 153624, Control_c, 0, 64, 44
2, 153640, Note_on_c, 0, 51, 0
2, 153643, Control_c, 0, 64, 0
2, 153655, Note_on_c, 0, 52, 69
2, 153673, Note_on_c, 0, 68, 68
2, 153706, Note_on_c, 0, 64, 0
2, 153764, Note_on_c, 0, 66, 0
2, 153789, Note_on_c, 0, 73, 0
2, 153796, Control_c, 0, 64, 34
2, 153816, Control_c, 0, 64, 60
2, 153834, Control_c, 0, 64, 64
2, 153968, Note_on_c, 0, 56, 0
2, 153988, Control_c, 0, 64, 63
2, 154027, Control_c, 0, 64, 63
2, 154036, Note_on_c, 0, 52, 0
2, 154046, Control_c, 0, 64, 62
2, 154116, Note_on_c, 0, 68, 0
2, 154123, Control_c, 0, 64, 61
2, 154137, Note_on_c, 0, 59, 63
2, 154140, Note_on_c, 0, 75, 68
2, 154143, Control_c, 0, 64, 53
2, 154158, Note_on_c, 0, 51, 50
2, 154161, Note_on_c, 0, 67, 48
2, 154163, Control_c, 0, 64, 21
2, 154181, Control_c, 0, 64, 0
2, 154315, Control_c, 0, 64, 46
2, 154335, Control_c, 0, 64, 62
2, 154354, Control_c, 0, 64, 63
2, 154382, Note_on_c, 0, 68, 67
2, 154393, Note_on_c, 0, 59, 0
2, 154464, Note_on_c, 0, 75, 0
2, 154493, Note_on_c, 0, 51, 0
2, 154509, Note_on_c, 0, 67, 0
2, 154546, Control_c, 0, 64, 62
2, 154635, Note_on_c, 0, 61, 56
2, 154637, Note_on_c, 0, 70, 53
2, 154643, Control_c, 0, 64, 62
2, 154647, Note_on_c, 0, 76, 61
2, 154656, Note_on_c, 0, 49, 55
2, 154661, Control_c, 0, 64, 60
2, 154681, Control_c, 0, 64, 50
2, 154700, Control_c, 0, 64, 0
2, 154704, Note_on_c, 0, 68, 0
2, 154815, Control_c, 0, 64, 35
2, 154834, Control_c, 0, 64, 57
2, 154854, Control_c, 0, 64, 61
2, 154911, Control_c, 0, 64, 62
2, 154914, Note_on_c, 0, 70, 0
2, 154949, Control_c, 0, 64, 62
2, 155046, Control_c, 0, 64, 63
2, 155064, Control_c, 0, 64, 64
2, 155110, Note_on_c, 0, 68, 61
2, 155114, Note_on_c, 0, 55, 67
2, 155122, Control_c, 0, 64, 61
2, 155140, Control_c, 0, 64, 47
2, 155154, Note_on_c, 0, 49, 0
2, 155160, Control_c, 0, 64, 0
2, 155217, Control_c, 0, 64, 11
2, 155236, Control_c, 0, 64, 55
2, 155248, Note_on_c, 0, 61, 0
2, 155255, Control_c, 0, 64, 64
2, 155274, Control_c, 0, 64, 64
2, 155328, Note_on_c, 0, 70, 68
2, 155332, Control_c, 0, 64, 65
2, 155365, Note_on_c, 0, 76, 0
2, 155370, Control_c, 0, 64, 64
2, 155389, Control_c, 0, 64, 64
2, 155423, Note_on_c, 0, 68, 0
2, 155427, Control_c, 0, 64, 63
2, 155447, Control_c, 0, 64, 63
2, 155466, Control_c, 0, 64, 62
2, 155504, Control_c, 0, 64, 62
2, 155524, Control_c, 0, 64, 61
2, 155543, Control_c, 0, 64, 60
2, 155562, Control_c, 0, 64, 59
2, 155581, Control_c, 0, 64, 56
2, 155601, Control_c, 0, 64, 53
2, 155612, Note_on_c, 0, 75, 62
2, 155614, Note_on_c, 0, 56, 61
2, 155616, Note_on_c, 0, 71, 57
2, 155620, Control_c, 0, 64, 49
2, 155621, Note_on_c, 0, 59, 57
2, 155635, Note_on_c, 0, 55, 0
2, 155639, Control_c, 0, 64, 46
2, 155647, Note_on_c, 0, 70, 0
2, 155658, Control_c, 0, 64, 43
2, 155677, Control_c, 0, 64, 43
2, 155696, Control_c, 0, 64, 42
2, 155715, Control_c, 0, 64, 42
2, 155735, Control_c, 0, 64, 41
2, 155792, Control_c, 0, 64, 42
2, 155812, Control_c, 0, 64, 43
2, 155830, Control_c, 0, 64, 44
2, 155850, Control_c, 0, 64, 45
2, 155869, Control_c, 0, 64, 46
2, 155889, Control_c, 0, 64, 47
2, 155907, Control_c, 0, 64, 51
2, 155927, Control_c, 0, 64, 51
2, 155930, Note_on_c, 0, 56, 0
2, 155946, Control_c, 0, 64, 49
2, 155965, Control_c, 0, 64, 44
2, 155984, Control_c, 0, 64, 35
2, 155988, Note_on_c, 0, 59, 0
2, 156004, Control_c, 0, 64, 31
2, 156062, Control_c, 0, 64, 30
2, 156096, Note_on_c, 0, 68, 59
2, 156100, Control_c, 0, 64, 36
2, 156106, Note_on_c, 0, 63, 47
2, 156110, Note_on_c, 0, 47, 58
2, 156120, Control_c, 0, 64, 54
2, 156139, Control_c, 0, 64, 60
2, 156159, Control_c, 0, 64, 60
2, 156177, Control_c, 0, 64, 60
2, 156194, Note_on_c, 0, 71, 0
2, 156254, Control_c, 0, 64, 59
2, 156273, Control_c, 0, 64, 58
2, 156286, Note_on_c, 0, 75, 0
2, 156311, Control_c, 0, 64, 58
2, 156331, Control_c, 0, 64, 57
2, 156388, Control_c, 0, 64, 57
2, 156408, Control_c, 0, 64, 56
2, 156427, Control_c, 0, 64, 55
2, 156446, Control_c, 0, 64, 54
2, 156447, Note_on_c, 0, 47, 0
2, 156465, Control_c, 0, 64, 53
2, 156465, Note_on_c, 0, 63, 0
2, 156485, Control_c, 0, 64, 53
2, 156504, Control_c, 0, 64, 52
2, 156562, Control_c, 0, 64, 51
2, 156580, Control_c, 0, 64, 50
2, 156585, Note_on_c, 0, 73, 64
2, 156594, Note_on_c, 0, 70, 55
2, 156600, Control_c, 0, 64, 47
2, 156608, Note_on_c, 0, 49, 57
2, 156608, Note_on_c, 0, 68, 0
2, 156619, Control_c, 0, 64, 44
2, 156619, Note_on_c, 0, 64, 42
2, 156639, Control_c, 0, 64, 41
2, 156657, Control_c, 0, 64, 39
2, 156676, Control_c, 0, 64, 37
2, 156696, Control_c, 0, 64, 37
2, 156734, Control_c, 0, 64, 36
2, 156791, Control_c, 0, 64, 37
2, 156806, Note_on_c, 0, 64, 0
2, 156811, Control_c, 0, 64, 37
2, 156827, Note_on_c, 0, 49, 0
2, 156830, Control_c, 0, 64, 38
2, 156868, Control_c, 0, 64, 39
2, 156907, Control_c, 0, 64, 40
2, 156926, Control_c, 0, 64, 42
2, 156945, Control_c, 0, 64, 43
2, 156965, Control_c, 0, 64, 43
2, 156984, Control_c, 0, 64, 44
2, 157003, Control_c, 0, 64, 44
2, 157015, Note_on_c, 0, 70, 0
2, 157065, Note_on_c, 0, 49, 63
2, 157213, Control_c, 0, 64, 45
2, 157232, Control_c, 0, 64, 45
2, 157309, Control_c, 0, 64, 46
2, 157309, Note_on_c, 0, 49, 0
2, 157329, Control_c, 0, 64, 46
2, 157367, Control_c, 0, 64, 47
2, 157386, Control_c, 0, 64, 48
2, 157405, Control_c, 0, 64, 49
2, 157540, Control_c, 0, 64, 48
2, 157559, Control_c, 0, 64, 44
2, 157562, Note_on_c, 0, 63, 47
2, 157562, Note_on_c, 0, 67, 48
2, 157570, Note_on_c, 0, 51, 45
2, 157578, Control_c, 0, 64, 35
2, 157597, Control_c, 0, 64, 21
2, 157616, Control_c, 0, 64, 9
2, 157712, Control_c, 0, 64, 22
2, 157732, Control_c, 0, 64, 35
2, 157750, Control_c, 0, 64, 42
2, 157770, Control_c, 0, 64, 48
2, 157789, Control_c, 0, 64, 50
2, 157802, Note_on_c, 0, 51, 0
2, 157809, Control_c, 0, 64, 52
2, 157827, Control_c, 0, 64, 53
2, 157847, Control_c, 0, 64, 55
2, 157866, Control_c, 0, 64, 55
2, 157931, Note_on_c, 0, 63, 0
2, 158001, Control_c, 0, 64, 56
2, 158033, Note_on_c, 0, 67, 0
2, 158051, Note_on_c, 0, 51, 52
2, 158096, Control_c, 0, 64, 55
2, 158115, Control_c, 0, 64, 55
2, 158212, Control_c, 0, 64, 54
2, 158230, Control_c, 0, 64, 54
2, 158269, Control_c, 0, 64, 53
2, 158289, Control_c, 0, 64, 53
2, 158307, Control_c, 0, 64, 52
2, 158327, Control_c, 0, 64, 51
2, 158349, Note_on_c, 0, 51, 0
2, 158365, Control_c, 0, 64, 51
2, 158461, Control_c, 0, 64, 48
2, 158481, Control_c, 0, 64, 32
2, 158500, Control_c, 0, 64, 0
2, 158553, Note_on_c, 0, 68, 54
2, 158557, Note_on_c, 0, 44, 42
2, 158568, Note_on_c, 0, 63, 43
2, 158595, Control_c, 0, 64, 45
2, 158615, Control_c, 0, 64, 61
2, 158634, Control_c, 0, 64, 63
2, 158653, Control_c, 0, 64, 64
2, 158672, Control_c, 0, 64, 65
2, 158692, Control_c, 0, 64, 66
2, 158709, Note_on_c, 0, 63, 0
2, 158710, Control_c, 0, 64, 68
2, 158730, Control_c, 0, 64, 69
2, 158749, Control_c, 0, 64, 70
2, 158763, Note_on_c, 0, 68, 0
2, 158767, Note_on_c, 0, 73, 0
2, 158769, Control_c, 0, 64, 70
2, 158787, Control_c, 0, 64, 71
2, 158903, Control_c, 0, 64, 70
2, 158961, Control_c, 0, 64, 70
2, 158980, Control_c, 0, 64, 69
2, 158981, Note_on_c, 0, 44, 0
2, 159005, Note_on_c, 0, 46, 51
2, 159010, Note_on_c, 0, 79, 69
2, 159018, Control_c, 0, 64, 69
2, 159114, Control_c, 0, 64, 68
2, 159172, Control_c, 0, 64, 68
2, 159249, Control_c, 0, 64, 67
2, 159253, Note_on_c, 0, 46, 0
2, 159306, Control_c, 0, 64, 67
2, 159325, Control_c, 0, 64, 66
2, 159344, Control_c, 0, 64, 66
2, 159364, Control_c, 0, 64, 65
2, 159383, Control_c, 0, 64, 65
2, 159402, Control_c, 0, 64, 64
2, 159492, Note_on_c, 0, 80, 56
2, 159493, Note_on_c, 0, 56, 68
2, 159515, Note_on_c, 0, 47, 50
2, 159542, Note_on_c, 0, 79, 0
2, 159555, Control_c, 0, 64, 62
2, 159575, Control_c, 0, 64, 54
2, 159594, Control_c, 0, 64, 34
2, 159613, Control_c, 0, 64, 15
2, 159632, Control_c, 0, 64, 13
2, 159652, Control_c, 0, 64, 25
2, 159670, Control_c, 0, 64, 42
2, 159690, Control_c, 0, 64, 52
2, 159709, Control_c, 0, 64, 58
2, 159729, Control_c, 0, 64, 61
2, 159747, Control_c, 0, 64, 62
2, 159767, Control_c, 0, 64, 63
2, 159805, Control_c, 0, 64, 63
2, 159934, Note_on_c, 0, 47, 0
2, 159957, Control_c, 0, 64, 64
2, 159965, Note_on_c, 0, 71, 42
2, 159970, Note_on_c, 0, 49, 49
2, 159977, Control_c, 0, 64, 64
2, 159996, Control_c, 0, 64, 65
2, 160073, Control_c, 0, 64, 65
2, 160076, Note_on_c, 0, 49, 0
2, 160317, Note_on_c, 0, 80, 0
2, 160400, Control_c, 0, 64, 66
2, 160432, Note_on_c, 0, 70, 51
2, 160437, Control_c, 0, 64, 64
2, 160441, Note_on_c, 0, 55, 46
2, 160444, Note_on_c, 0, 51, 43
2, 160452, Note_on_c, 0, 56, 0
2, 160457, Control_c, 0, 64, 59
2, 160476, Control_c, 0, 64, 53
2, 160481, Note_on_c, 0, 71, 0
2, 160495, Control_c, 0, 64, 50
2, 160514, Control_c, 0, 64, 51
2, 160534, Control_c, 0, 64, 57
2, 160553, Control_c, 0, 64, 61
2, 160572, Control_c, 0, 64, 63
2, 160591, Control_c, 0, 64, 63
2, 160629, Control_c, 0, 64, 64
2, 160801, Note_on_c, 0, 51, 0
2, 160860, Control_c, 0, 64, 63
2, 160880, Control_c, 0, 64, 61
2, 160899, Control_c, 0, 64, 48
2, 160901, Note_on_c, 0, 79, 60
2, 160907, Note_on_c, 0, 56, 61
2, 160917, Control_c, 0, 64, 0
2, 160973, Note_on_c, 0, 55, 0
2, 161015, Control_c, 0, 64, 34
2, 161034, Control_c, 0, 64, 56
2, 161053, Control_c, 0, 64, 61
2, 161072, Control_c, 0, 64, 63
2, 161092, Control_c, 0, 64, 64
2, 161132, Note_on_c, 0, 58, 75
2, 161169, Control_c, 0, 64, 63
2, 161210, Note_on_c, 0, 56, 0
2, 161245, Control_c, 0, 64, 63
2, 161251, Note_on_c, 0, 70, 0
2, 161303, Control_c, 0, 64, 63
2, 161322, Control_c, 0, 64, 64
2, 161341, Note_on_c, 0, 58, 0
2, 161361, Control_c, 0, 64, 61
2, 161380, Control_c, 0, 64, 43
2, 161397, Note_on_c, 0, 59, 69
2, 161398, Control_c, 0, 64, 0
2, 161403, Note_on_c, 0, 80, 64
2, 161436, Note_on_c, 0, 79, 0
2, 161495, Control_c, 0, 64, 54
2, 161514, Control_c, 0, 64, 58
2, 161533, Control_c, 0, 64, 59
2, 161552, Control_c, 0, 64, 61
2, 161572, Control_c, 0, 64, 63
2, 161590, Control_c, 0, 64, 64
2, 161764, Control_c, 0, 64, 65
2, 161798, Note_on_c, 0, 80, 0
2, 161816, Note_on_c, 0, 59, 0
2, 161822, Control_c, 0, 64, 65
2, 161842, Control_c, 0, 64, 66
2, 161874, Note_on_c, 0, 73, 60
2, 161887, Note_on_c, 0, 58, 52
2, 161899, Control_c, 0, 64, 64
2, 161900, Note_on_c, 0, 67, 33
2, 161902, Note_on_c, 0, 51, 47
2, 161918, Control_c, 0, 64, 57
2, 161937, Control_c, 0, 64, 35
2, 161955, Control_c, 0, 64, 0
2, 162012, Control_c, 0, 64, 44
2, 162031, Control_c, 0, 64, 60
2, 162051, Control_c, 0, 64, 62
2, 162069, Control_c, 0, 64, 63
2, 162071, Note_on_c, 0, 67, 0
2, 162089, Control_c, 0, 64, 63
2, 162108, Control_c, 0, 64, 64
2, 162128, Control_c, 0, 64, 65
2, 162166, Control_c, 0, 64, 65
2, 162219, Note_on_c, 0, 51, 0
2, 162281, Control_c, 0, 64, 66
2, 162300, Control_c, 0, 64, 67
2, 162320, Control_c, 0, 64, 68
2, 162339, Control_c, 0, 64, 63
2, 162356, Note_on_c, 0, 56, 62
2, 162357, Control_c, 0, 64, 47
2, 162362, Note_on_c, 0, 71, 55
2, 162374, Note_on_c, 0, 68, 44
2, 162377, Control_c, 0, 64, 19
2, 162377, Note_on_c, 0, 58, 0
2, 162381, Note_on_c, 0, 53, 53
2, 162388, Note_on_c, 0, 73, 0
2, 162396, Control_c, 0, 64, 0
2, 162415, Control_c, 0, 64, 11
2, 162434, Control_c, 0, 64, 36
2, 162454, Control_c, 0, 64, 52
2, 162473, Control_c, 0, 64, 59
2, 162492, Control_c, 0, 64, 62
2, 162511, Control_c, 0, 64, 64
2, 162531, Control_c, 0, 64, 64
2, 162569, Control_c, 0, 64, 65
2, 162615, Note_on_c, 0, 68, 0
2, 162723, Control_c, 0, 64, 66
2, 162742, Control_c, 0, 64, 67
2, 162745, Note_on_c, 0, 53, 0
2, 162761, Control_c, 0, 64, 70
2, 162782, Control_c, 0, 64, 71
2, 162802, Control_c, 0, 64, 67
2, 162820, Control_c, 0, 64, 55
2, 162840, Control_c, 0, 64, 20
2, 162844, Note_on_c, 0, 62, 64
2, 162859, Control_c, 0, 64, 0
2, 162859, Note_on_c, 0, 80, 66
2, 162871, Note_on_c, 0, 56, 0
2, 162897, Control_c, 0, 64, 43
2, 162906, Note_on_c, 0, 71, 0
2, 162914, Control_c, 0, 64, 62
2, 162934, Control_c, 0, 64, 66
2, 162953, Control_c, 0, 64, 68
2, 162972, Control_c, 0, 64, 70
2, 162991, Control_c, 0, 64, 73
2, 163011, Control_c, 0, 64, 77
2, 163029, Control_c, 0, 64, 80
2, 163049, Control_c, 0, 64, 81
2, 163126, Control_c, 0, 64, 82
2, 163145, Control_c, 0, 64, 83
2, 163157, Note_on_c, 0, 80, 0
2, 163160, Note_on_c, 0, 62, 0
2, 163165, Control_c, 0, 64, 84
2, 163183, Control_c, 0, 64, 85
2, 163241, Control_c, 0, 64, 84
2, 163260, Control_c, 0, 64, 83
2, 163280, Control_c, 0, 64, 82
2, 163299, Control_c, 0, 64, 80
2, 163317, Control_c, 0, 64, 78
2, 163337, Control_c, 0, 64, 77
2, 163356, Control_c, 0, 64, 77
2, 163360, Note_on_c, 0, 63, 61
2, 163375, Control_c, 0, 64, 76
2, 163377, Note_on_c, 0, 78, 53
2, 163394, Control_c, 0, 64, 72
2, 163395, Note_on_c, 0, 51, 41
2, 163414, Control_c, 0, 64, 64
2, 163433, Control_c, 0, 64, 57
2, 163452, Control_c, 0, 64, 48
2, 163471, Control_c, 0, 64, 42
2, 163491, Control_c, 0, 64, 42
2, 163509, Control_c, 0, 64, 44
2, 163529, Control_c, 0, 64, 48
2, 163548, Control_c, 0, 64, 51
2, 163568, Control_c, 0, 64, 54
2, 163586, Control_c, 0, 64, 56
2, 163606, Control_c, 0, 64, 58
2, 163625, Control_c, 0, 64, 59
2, 163761, Control_c, 0, 64, 60
2, 163780, Control_c, 0, 64, 61
2, 163798, Control_c, 0, 64, 62
2, 163818, Control_c, 0, 64, 61
2, 163832, Note_on_c, 0, 63, 0
2, 163837, Control_c, 0, 64, 55
2, 163843, Note_on_c, 0, 54, 49
2, 163845, Note_on_c, 0, 70, 52
2, 163854, Note_on_c, 0, 66, 45
2, 163854, Note_on_c, 0, 78, 0
2, 163856, Control_c, 0, 64, 42
2, 163874, Control_c, 0, 64, 18
2, 163894, Control_c, 0, 64, 0
2, 163913, Control_c, 0, 64, 13
2, 163932, Control_c, 0, 64, 41
2, 163951, Control_c, 0, 64, 54
2, 163971, Control_c, 0, 64, 58
2, 163989, Control_c, 0, 64, 60
2, 164009, Control_c, 0, 64, 62
2, 164028, Control_c, 0, 64, 63
2, 164048, Control_c, 0, 64, 62
2, 164086, Control_c, 0, 64, 62
2, 164115, Note_on_c, 0, 70, 0
2, 164125, Control_c, 0, 64, 61
2, 164170, Note_on_c, 0, 66, 0
2, 164220, Control_c, 0, 64, 62
2, 164227, Note_on_c, 0, 54, 0
2, 164297, Control_c, 0, 64, 59
2, 164316, Control_c, 0, 64, 46
2, 164329, Note_on_c, 0, 68, 54
2, 164335, Control_c, 0, 64, 0
2, 164335, Note_on_c, 0, 56, 59
2, 164340, Note_on_c, 0, 65, 40
2, 164412, Control_c, 0, 64, 44
2, 164431, Control_c, 0, 64, 59
2, 164451, Control_c, 0, 64, 63
2, 164469, Control_c, 0, 64, 64
2, 164515, Note_on_c, 0, 65, 0
2, 164528, Control_c, 0, 64, 64
2, 164568, Note_on_c, 0, 56, 0
2, 164665, Note_on_c, 0, 68, 0
2, 164797, Control_c, 0, 64, 63
2, 164816, Control_c, 0, 64, 59
2, 164818, Note_on_c, 0, 56, 63
2, 164832, Note_on_c, 0, 78, 60
2, 164834, Control_c, 0, 64, 47
2, 164855, Control_c, 0, 64, 33
2, 164874, Control_c, 0, 64, 27
2, 164893, Control_c, 0, 64, 25
2, 164932, Control_c, 0, 64, 30
2, 164950, Control_c, 0, 64, 45
2, 164970, Control_c, 0, 64, 59
2, 164989, Control_c, 0, 64, 63
2, 165009, Control_c, 0, 64, 63
2, 165012, Note_on_c, 0, 51, 0
2, 165042, Note_on_c, 0, 78, 0
2, 165047, Control_c, 0, 64, 64
2, 165066, Control_c, 0, 64, 64
2, 165085, Control_c, 0, 64, 65
2, 165238, Control_c, 0, 64, 65
2, 165258, Control_c, 0, 64, 66
2, 165277, Control_c, 0, 64, 66
2, 165296, Control_c, 0, 64, 65
2, 165302, Note_on_c, 0, 58, 55
2, 165315, Control_c, 0, 64, 60
2, 165316, Note_on_c, 0, 77, 58
2, 165334, Note_on_c, 0, 56, 0
2, 165335, Control_c, 0, 64, 42
2, 165338, Note_on_c, 0, 50, 44
2, 165354, Control_c, 0, 64, 28
2, 165373, Control_c, 0, 64, 25
2, 165392, Control_c, 0, 64, 31
2, 165412, Control_c, 0, 64, 51
2, 165430, Control_c, 0, 64, 62
2, 165450, Control_c, 0, 64, 65
2, 165469, Control_c, 0, 64, 66
2, 165527, Control_c, 0, 64, 66
2, 165584, Control_c, 0, 64, 66
2, 165586, Note_on_c, 0, 58, 0
2, 165591, Note_on_c, 0, 77, 0
2, 165661, Control_c, 0, 64, 66
2, 165681, Control_c, 0, 64, 67
2, 165700, Control_c, 0, 64, 68
2, 165718, Control_c, 0, 64, 70
2, 165738, Control_c, 0, 64, 73
2, 165757, Control_c, 0, 64, 74
2, 165776, Control_c, 0, 64, 71
2, 165795, Control_c, 0, 64, 64
2, 165815, Control_c, 0, 64, 47
2, 165816, Note_on_c, 0, 58, 46
2, 165820, Note_on_c, 0, 68, 50
2, 165834, Control_c, 0, 64, 32
2, 165839, Note_on_c, 0, 65, 38
2, 165853, Control_c, 0, 64, 29
2, 165872, Control_c, 0, 64, 38
2, 165892, Control_c, 0, 64, 61
2, 165910, Control_c, 0, 64, 66
2, 165930, Control_c, 0, 64, 70
2, 165949, Control_c, 0, 64, 73
2, 165968, Note_on_c, 0, 68, 0
2, 165969, Control_c, 0, 64, 77
2, 165987, Control_c, 0, 64, 80
2, 166005, Note_on_c, 0, 65, 0
2, 166007, Control_c, 0, 64, 81
2, 166084, Control_c, 0, 64, 81
2, 166103, Control_c, 0, 64, 80
2, 166141, Control_c, 0, 64, 80
2, 166161, Control_c, 0, 64, 79
2, 166180, Control_c, 0, 64, 78
2, 166198, Control_c, 0, 64, 76
2, 166218, Control_c, 0, 64, 74
2, 166237, Control_c, 0, 64, 72
2, 166256, Control_c, 0, 64, 71
2, 166275, Control_c, 0, 64, 71
2, 166295, Control_c, 0, 64, 70
2, 166319, Note_on_c, 0, 66, 51
2, 166325, Note_on_c, 0, 51, 42
2, 166333, Control_c, 0, 64, 70
2, 166366, Note_on_c, 0, 50, 0
2, 166372, Control_c, 0, 64, 69
2, 166390, Control_c, 0, 64, 69
2, 166429, Control_c, 0, 64, 68
2, 166432, Note_on_c, 0, 58, 0
2, 166449, Control_c, 0, 64, 65
2, 166467, Control_c, 0, 64, 58
2, 166487, Control_c, 0, 64, 39
2, 166506, Control_c, 0, 64, 0
2, 166583, Control_c, 0, 64, 24
2, 166602, Control_c, 0, 64, 42
2, 166622, Control_c, 0, 64, 54
2, 166642, Control_c, 0, 64, 59
2, 166660, Control_c, 0, 64, 60
2, 166699, Control_c, 0, 64, 60
2, 166718, Control_c, 0, 64, 61
2, 166737, Control_c, 0, 64, 62
2, 166774, Control_c, 0, 64, 63
2, 166812, Control_c, 0, 64, 63
2, 166823, Note_on_c, 0, 63, 56
2, 166827, Note_on_c, 0, 53, 39
2, 166831, Control_c, 0, 64, 64
2, 166851, Control_c, 0, 64, 64
2, 166946, Control_c, 0, 64, 65
2, 167030, Note_on_c, 0, 53, 0
2, 167050, Note_on_c, 0, 66, 0
2, 167061, Note_on_c, 0, 62, 69
2, 167078, Note_on_c, 0, 51, 0
2, 167114, Note_on_c, 0, 63, 0
2, 167139, Control_c, 0, 64, 64
2, 167196, Control_c, 0, 64, 64
2, 167234, Control_c, 0, 64, 63
2, 167254, Control_c, 0, 64, 63
2, 167273, Control_c, 0, 64, 62
2, 167292, Control_c, 0, 64, 61
2, 167316, Note_on_c, 0, 63, 67
2, 167350, Control_c, 0, 64, 61
2, 167356, Note_on_c, 0, 54, 41
2, 167371, Note_on_c, 0, 62, 0
2, 167388, Control_c, 0, 64, 60
2, 167465, Control_c, 0, 64, 60
2, 167485, Control_c, 0, 64, 59
2, 167503, Control_c, 0, 64, 59
2, 167523, Control_c, 0, 64, 58
2, 167561, Control_c, 0, 64, 58
2, 167562, Note_on_c, 0, 39, 56
2, 167620, Control_c, 0, 64, 57
2, 167697, Control_c, 0, 64, 57
2, 167796, Note_on_c, 0, 40, 60
2, 167907, Note_on_c, 0, 39, 0
2, 167927, Control_c, 0, 64, 56
2, 167984, Control_c, 0, 64, 55
2, 168004, Control_c, 0, 64, 54
2, 168005, Note_on_c, 0, 42, 61
2, 168023, Control_c, 0, 64, 54
2, 168042, Control_c, 0, 64, 53
2, 168043, Note_on_c, 0, 40, 0
2, 168061, Control_c, 0, 64, 52
2, 168081, Control_c, 0, 64, 51
2, 168100, Control_c, 0, 64, 49
2, 168118, Control_c, 0, 64, 47
2, 168138, Control_c, 0, 64, 45
2, 168157, Control_c, 0, 64, 42
2, 168176, Control_c, 0, 64, 38
2, 168195, Control_c, 0, 64, 27
2, 168215, Control_c, 0, 64, 0
2, 168263, Note_on_c, 0, 60, 62
2, 168276, Note_on_c, 0, 42, 0
2, 168290, Note_on_c, 0, 44, 49
2, 168349, Control_c, 0, 64, 24
2, 168349, Note_on_c, 0, 63, 0
2, 168369, Control_c, 0, 64, 59
2, 168387, Control_c, 0, 64, 63
2, 168395, Note_on_c, 0, 54, 0
2, 168407, Control_c, 0, 64, 66
2, 168426, Control_c, 0, 64, 68
2, 168444, Note_on_c, 0, 44, 0
2, 168445, Control_c, 0, 64, 71
2, 168464, Control_c, 0, 64, 73
2, 168484, Control_c, 0, 64, 75
2, 168503, Control_c, 0, 64, 79
2, 168522, Control_c, 0, 64, 83
2, 168522, Note_on_c, 0, 60, 0
2, 168541, Control_c, 0, 64, 86
2, 168561, Control_c, 0, 64, 87
2, 168580, Control_c, 0, 64, 88
2, 168598, Control_c, 0, 64, 90
2, 168618, Control_c, 0, 64, 91
2, 168714, Control_c, 0, 64, 91
2, 168733, Control_c, 0, 64, 90
2, 168772, Note_on_c, 0, 61, 63
2, 168776, Note_on_c, 0, 52, 41
2, 168783, Note_on_c, 0, 49, 50
2, 168790, Control_c, 0, 64, 89
2, 168810, Control_c, 0, 64, 88
2, 168829, Control_c, 0, 64, 85
2, 168849, Control_c, 0, 64, 83
2, 168867, Control_c, 0, 64, 82
2, 168887, Control_c, 0, 64, 80
2, 168906, Control_c, 0, 64, 78
2, 168925, Control_c, 0, 64, 74
2, 168944, Control_c, 0, 64, 71
2, 168964, Control_c, 0, 64, 69
2, 168983, Control_c, 0, 64, 69
2, 169002, Control_c, 0, 64, 68
2, 169012, Note_on_c, 0, 63, 70
2, 169019, Note_on_c, 0, 54, 55
2, 169021, Control_c, 0, 64, 68
2, 169041, Control_c, 0, 64, 67
2, 169060, Control_c, 0, 64, 66
2, 169117, Control_c, 0, 64, 65
2, 169136, Control_c, 0, 64, 64
2, 169155, Control_c, 0, 64, 64
2, 169156, Note_on_c, 0, 52, 0
2, 169186, Note_on_c, 0, 61, 0
2, 169232, Control_c, 0, 64, 63
2, 169287, Note_on_c, 0, 64, 71
2, 169290, Control_c, 0, 64, 62
2, 169296, Note_on_c, 0, 54, 0
2, 169297, Note_on_c, 0, 56, 56
2, 169309, Control_c, 0, 64, 57
2, 169316, Note_on_c, 0, 63, 0
2, 169329, Control_c, 0, 64, 23
2, 169347, Control_c, 0, 64, 0
2, 169424, Control_c, 0, 64, 42
2, 169434, Note_on_c, 0, 49, 0
2, 169444, Control_c, 0, 64, 62
2, 169463, Control_c, 0, 64, 66
2, 169482, Control_c, 0, 64, 68
2, 169501, Control_c, 0, 64, 68
2, 169570, Note_on_c, 0, 64, 0
2, 169578, Control_c, 0, 64, 68
2, 169597, Control_c, 0, 64, 67
2, 169616, Control_c, 0, 64, 66
2, 169656, Control_c, 0, 64, 66
2, 169694, Control_c, 0, 64, 65
2, 169751, Control_c, 0, 64, 65
2, 169762, Note_on_c, 0, 63, 69
2, 169771, Control_c, 0, 64, 64
2, 169772, Note_on_c, 0, 55, 53
2, 169786, Note_on_c, 0, 56, 0
2, 169790, Control_c, 0, 64, 60
2, 169790, Note_on_c, 0, 51, 44
2, 169810, Control_c, 0, 64, 47
2, 169828, Control_c, 0, 64, 0
2, 169905, Control_c, 0, 64, 49
2, 169925, Control_c, 0, 64, 62
2, 169944, Control_c, 0, 64, 63
2, 169963, Control_c, 0, 64, 63
2, 169982, Control_c, 0, 64, 63
2, 170005, Note_on_c, 0, 56, 64
2, 170039, Control_c, 0, 64, 63
2, 170061, Note_on_c, 0, 63, 0
2, 170116, Control_c, 0, 64, 62
2, 170128, Note_on_c, 0, 55, 0
2, 170135, Note_on_c, 0, 51, 0
2, 170136, Control_c, 0, 64, 62
2, 170251, Control_c, 0, 64, 60
2, 170261, Note_on_c, 0, 61, 66
2, 170270, Control_c, 0, 64, 55
2, 170283, Note_on_c, 0, 58, 54
2, 170290, Control_c, 0, 64, 0
2, 170296, Note_on_c, 0, 56, 0
2, 170298, Note_on_c, 0, 52, 48
2, 170385, Control_c, 0, 64, 25
2, 170405, Control_c, 0, 64, 57
2, 170424, Control_c, 0, 64, 63
2, 170514, Note_on_c, 0, 61, 0
2, 170540, Control_c, 0, 64, 64
2, 170673, Control_c, 0, 64, 63
2, 170748, Note_on_c, 0, 67, 67
2, 170750, Control_c, 0, 64, 63
2, 170784, Note_on_c, 0, 56, 55
2, 170814, Note_on_c, 0, 58, 0
2, 170846, Control_c, 0, 64, 61
2, 170865, Control_c, 0, 64, 54
2, 170885, Control_c, 0, 64, 32
2, 170904, Control_c, 0, 64, 0
2, 170909, Note_on_c, 0, 52, 0
2, 170962, Control_c, 0, 64, 43
2, 170980, Control_c, 0, 64, 60
2, 170994, Note_on_c, 0, 58, 63
2, 170999, Control_c, 0, 64, 62
2, 171038, Control_c, 0, 64, 62
2, 171057, Control_c, 0, 64, 63
2, 171076, Control_c, 0, 64, 63
2, 171098, Note_on_c, 0, 56, 0
2, 171114, Control_c, 0, 64, 63
2, 171162, Note_on_c, 0, 58, 0
2, 171191, Control_c, 0, 64, 62
2, 171268, Control_c, 0, 64, 62
2, 171271, Note_on_c, 0, 68, 68
2, 171283, Note_on_c, 0, 59, 52
2, 171288, Control_c, 0, 64, 58
2, 171297, Note_on_c, 0, 51, 48
2, 171307, Control_c, 0, 64, 44
2, 171326, Control_c, 0, 64, 0
2, 171331, Note_on_c, 0, 67, 0
2, 171403, Control_c, 0, 64, 24
2, 171422, Control_c, 0, 64, 53
2, 171442, Control_c, 0, 64, 63
2, 171460, Control_c, 0, 64, 66
2, 171479, Control_c, 0, 64, 67
2, 171499, Control_c, 0, 64, 68
2, 171518, Control_c, 0, 64, 68
2, 171522, Note_on_c, 0, 68, 0
2, 171537, Control_c, 0, 64, 69
2, 171612, Control_c, 0, 64, 68
2, 171651, Control_c, 0, 64, 68
2, 171689, Control_c, 0, 64, 67
2, 171730, Control_c, 0, 64, 66
2, 171742, Note_on_c, 0, 59, 0
2, 171749, Control_c, 0, 64, 65
2, 171764, Note_on_c, 0, 59, 43
2, 171768, Control_c, 0, 64, 63
2, 171788, Control_c, 0, 64, 61
2, 171791, Note_on_c, 0, 56, 59
2, 171807, Control_c, 0, 64, 52
2, 171809, Note_on_c, 0, 51, 0
2, 171826, Control_c, 0, 64, 36
2, 171845, Control_c, 0, 64, 18
2, 171865, Control_c, 0, 64, 9
2, 171903, Control_c, 0, 64, 36
2, 171922, Control_c, 0, 64, 57
2, 171942, Control_c, 0, 64, 63
2, 171980, Control_c, 0, 64, 63
2, 171988, Note_on_c, 0, 59, 0
2, 172018, Control_c, 0, 64, 63
2, 172095, Control_c, 0, 64, 63
2, 172134, Control_c, 0, 64, 62
2, 172153, Control_c, 0, 64, 62
2, 172191, Control_c, 0, 64, 61
2, 172210, Control_c, 0, 64, 60
2, 172229, Control_c, 0, 64, 60
2, 172248, Control_c, 0, 64, 59
2, 172259, Note_on_c, 0, 61, 63
2, 172268, Control_c, 0, 64, 58
2, 172277, Note_on_c, 0, 58, 49
2, 172299, Note_on_c, 0, 49, 47
2, 172306, Control_c, 0, 64, 58
2, 172325, Control_c, 0, 64, 57
2, 172345, Control_c, 0, 64, 57
2, 172363, Control_c, 0, 64, 56
2, 172369, Note_on_c, 0, 56, 0
2, 172384, Control_c, 0, 64, 55
2, 172403, Control_c, 0, 64, 55
2, 172441, Control_c, 0, 64, 54
2, 172461, Control_c, 0, 64, 53
2, 172473, Note_on_c, 0, 61, 0
2, 172499, Control_c, 0, 64, 53
2, 172594, Control_c, 0, 64, 52
2, 172614, Control_c, 0, 64, 52
2, 172633, Control_c, 0, 64, 51
2, 172651, Control_c, 0, 64, 51
2, 172738, Note_on_c, 0, 58, 0
2, 172738, Note_on_c, 0, 61, 57
2, 172786, Control_c, 0, 64, 51
2, 172843, Control_c, 0, 64, 52
2, 172863, Control_c, 0, 64, 54
2, 172882, Control_c, 0, 64, 57
2, 172902, Control_c, 0, 64, 58
2, 172959, Control_c, 0, 64, 59
2, 172971, Note_on_c, 0, 61, 0
2, 173036, Control_c, 0, 64, 58
2, 173074, Control_c, 0, 64, 58
2, 173113, Control_c, 0, 64, 57
2, 173170, Control_c, 0, 64, 57
2, 173189, Control_c, 0, 64, 56
2, 173208, Control_c, 0, 64, 56
2, 173228, Control_c, 0, 64, 55
2, 173251, Note_on_c, 0, 63, 57
2, 173266, Control_c, 0, 64, 55
2, 173286, Note_on_c, 0, 55, 38
2, 173362, Control_c, 0, 64, 54
2, 173400, Control_c, 0, 64, 54
2, 173420, Control_c, 0, 64, 53
2, 173439, Control_c, 0, 64, 53
2, 173458, Control_c, 0, 64, 52
2, 173477, Note_on_c, 0, 63, 0
2, 173516, Control_c, 0, 64, 52
2, 173688, Control_c, 0, 64, 52
2, 173699, Note_on_c, 0, 55, 0
2, 173727, Control_c, 0, 64, 53
2, 173738, Note_on_c, 0, 63, 60
2, 173765, Control_c, 0, 64, 53
2, 173785, Control_c, 0, 64, 54
2, 173803, Control_c, 0, 64, 56
2, 173823, Control_c, 0, 64, 56
2, 173862, Control_c, 0, 64, 57
2, 173880, Control_c, 0, 64, 58
2, 173900, Control_c, 0, 64, 59
2, 173929, Note_on_c, 0, 63, 0
2, 174073, Control_c, 0, 64, 59
2, 174168, Control_c, 0, 64, 58
2, 174207, Control_c, 0, 64, 58
2, 174226, Control_c, 0, 64, 57
2, 174237, Note_on_c, 0, 56, 53
2, 174245, Control_c, 0, 64, 56
2, 174265, Control_c, 0, 64, 52
2, 174283, Control_c, 0, 64, 45
2, 174303, Control_c, 0, 64, 39
2, 174322, Control_c, 0, 64, 39
2, 174360, Control_c, 0, 64, 42
2, 174380, Control_c, 0, 64, 46
2, 174399, Control_c, 0, 64, 49
2, 174418, Control_c, 0, 64, 54
2, 174437, Control_c, 0, 64, 57
2, 174458, Control_c, 0, 64, 57
2, 174477, Control_c, 0, 64, 58
2, 174496, Control_c, 0, 64, 58
2, 174535, Control_c, 0, 64, 59
2, 174739, Note_on_c, 0, 67, 48
2, 174746, Control_c, 0, 64, 58
2, 174778, Note_on_c, 0, 47, 45
2, 174784, Control_c, 0, 64, 57
2, 174803, Control_c, 0, 64, 55
2, 174823, Control_c, 0, 64, 51
2, 174841, Control_c, 0, 64, 49
2, 174844, Note_on_c, 0, 49, 0
2, 174880, Control_c, 0, 64, 51
2, 174899, Control_c, 0, 64, 53
2, 174918, Control_c, 0, 64, 55
2, 174938, Control_c, 0, 64, 56
2, 174957, Control_c, 0, 64, 57
2, 174959, Note_on_c, 0, 47, 0
2, 174964, Note_on_c, 0, 46, 60
2, 174976, Control_c, 0, 64, 58
2, 174995, Control_c, 0, 64, 59
2, 175110, Control_c, 0, 64, 59
2, 175167, Control_c, 0, 64, 60
2, 175206, Control_c, 0, 64, 57
2, 175212, Note_on_c, 0, 47, 53
2, 175217, Note_on_c, 0, 46, 0
2, 175219, Note_on_c, 0, 68, 67
2, 175226, Control_c, 0, 64, 49
2, 175244, Control_c, 0, 64, 19
2, 175245, Note_on_c, 0, 56, 0
2, 175263, Control_c, 0, 64, 0
2, 175332, Note_on_c, 0, 67, 0
2, 175359, Control_c, 0, 64, 29
2, 175378, Control_c, 0, 64, 48
2, 175397, Control_c, 0, 64, 55
2, 175416, Control_c, 0, 64, 56
2, 175433, Note_on_c, 0, 44, 60
2, 175435, Control_c, 0, 64, 57
2, 175454, Control_c, 0, 64, 58
2, 175467, Note_on_c, 0, 47, 0
2, 175473, Control_c, 0, 64, 59
2, 175492, Control_c, 0, 64, 60
2, 175550, Control_c, 0, 64, 60
2, 175588, Control_c, 0, 64, 61
2, 175646, Control_c, 0, 64, 61
2, 175665, Control_c, 0, 64, 62
2, 175668, Note_on_c, 0, 44, 0
2, 175704, Control_c, 0, 64, 59
2, 175706, Note_on_c, 0, 50, 53
2, 175706, Note_on_c, 0, 59, 60
2, 175722, Control_c, 0, 64, 41
2, 175742, Control_c, 0, 64, 0
2, 175838, Control_c, 0, 64, 57
2, 175858, Control_c, 0, 64, 64
2, 175901, Note_on_c, 0, 50, 0
2, 175915, Control_c, 0, 64, 65
2, 175934, Control_c, 0, 64, 67
2, 175953, Control_c, 0, 64, 68
2, 176145, Control_c, 0, 64, 67
2, 176164, Control_c, 0, 64, 67
2, 176184, Control_c, 0, 64, 66
2, 176187, Note_on_c, 0, 58, 59
2, 176193, Note_on_c, 0, 51, 55
2, 176202, Control_c, 0, 64, 66
2, 176241, Control_c, 0, 64, 65
2, 176261, Control_c, 0, 64, 65
2, 176318, Control_c, 0, 64, 64
2, 176338, Control_c, 0, 64, 63
2, 176351, Note_on_c, 0, 59, 0
2, 176376, Control_c, 0, 64, 63
2, 176395, Control_c, 0, 64, 62
2, 176406, Note_on_c, 0, 68, 0
2, 176414, Control_c, 0, 64, 62
2, 176433, Control_c, 0, 64, 61
2, 176472, Control_c, 0, 64, 60
2, 176529, Control_c, 0, 64, 60
2, 176548, Control_c, 0, 64, 59
2, 176567, Control_c, 0, 64, 58
2, 176587, Control_c, 0, 64, 56
2, 176606, Control_c, 0, 64, 54
2, 176625, Control_c, 0, 64, 50
2, 176644, Control_c, 0, 64, 47
2, 176664, Control_c, 0, 64, 45
2, 176668, Note_on_c, 0, 66, 58
2, 176671, Note_on_c, 0, 56, 45
2, 176682, Control_c, 0, 64, 45
2, 176741, Control_c, 0, 64, 47
2, 176753, Note_on_c, 0, 58, 0
2, 176759, Control_c, 0, 64, 50
2, 176779, Control_c, 0, 64, 52
2, 176798, Control_c, 0, 64, 54
2, 176818, Control_c, 0, 64, 56
2, 176836, Control_c, 0, 64, 58
2, 176856, Control_c, 0, 64, 59
2, 176875, Control_c, 0, 64, 60
2, 176882, Note_on_c, 0, 65, 65
2, 176894, Control_c, 0, 64, 61
2, 176923, Note_on_c, 0, 66, 0
2, 176970, Control_c, 0, 64, 61
2, 177009, Control_c, 0, 64, 61
2, 177026, Note_on_c, 0, 65, 0
2, 177067, Control_c, 0, 64, 61
2, 177105, Control_c, 0, 64, 61
2, 177124, Control_c, 0, 64, 57
2, 177124, Note_on_c, 0, 66, 66
2, 177144, Control_c, 0, 64, 48
2, 177147, Note_on_c, 0, 58, 53
2, 177150, Note_on_c, 0, 56, 0
2, 177162, Control_c, 0, 64, 35
2, 177183, Control_c, 0, 64, 29
2, 177202, Control_c, 0, 64, 28
2, 177240, Control_c, 0, 64, 29
2, 177260, Control_c, 0, 64, 39
2, 177279, Control_c, 0, 64, 50
2, 177298, Control_c, 0, 64, 56
2, 177316, Control_c, 0, 64, 59
2, 177336, Control_c, 0, 64, 60
2, 177339, Note_on_c, 0, 63, 64
2, 177355, Control_c, 0, 64, 62
2, 177363, Note_on_c, 0, 66, 0
2, 177374, Control_c, 0, 64, 62
2, 177527, Control_c, 0, 64, 63
2, 177547, Control_c, 0, 64, 63
2, 177566, Control_c, 0, 64, 64
2, 177585, Control_c, 0, 64, 63
2, 177593, Note_on_c, 0, 69, 75
2, 177604, Control_c, 0, 64, 57
2, 177620, Note_on_c, 0, 60, 48
2, 177624, Control_c, 0, 64, 38
2, 177641, Note_on_c, 0, 58, 0
2, 177642, Control_c, 0, 64, 0
2, 177649, Note_on_c, 0, 63, 0
2, 177739, Control_c, 0, 64, 27
2, 177758, Control_c, 0, 64, 57
2, 177778, Control_c, 0, 64, 65
2, 177796, Control_c, 0, 64, 67
2, 177854, Control_c, 0, 64, 68
2, 177868, Note_on_c, 0, 69, 0
2, 177892, Control_c, 0, 64, 68
2, 177912, Control_c, 0, 64, 69
2, 177930, Control_c, 0, 64, 69
2, 177950, Control_c, 0, 64, 70
2, 177969, Control_c, 0, 64, 71
2, 178114, Note_on_c, 0, 70, 67
2, 178116, Note_on_c, 0, 53, 48
2, 178140, Note_on_c, 0, 60, 0
2, 178143, Control_c, 0, 64, 70
2, 178162, Control_c, 0, 64, 69
2, 178182, Control_c, 0, 64, 67
2, 178200, Control_c, 0, 64, 61
2, 178220, Control_c, 0, 64, 41
2, 178239, Control_c, 0, 64, 0
2, 178296, Control_c, 0, 64, 38
2, 178315, Control_c, 0, 64, 59
2, 178334, Control_c, 0, 64, 64
2, 178394, Note_on_c, 0, 53, 0
2, 178410, Control_c, 0, 64, 64
2, 178430, Control_c, 0, 64, 65
2, 178460, Note_on_c, 0, 51, 0
2, 178468, Control_c, 0, 64, 64
2, 178545, Control_c, 0, 64, 64
2, 178620, Note_on_c, 0, 63, 60
2, 178626, Note_on_c, 0, 49, 52
2, 178679, Control_c, 0, 64, 63
2, 178699, Control_c, 0, 64, 63
2, 178822, Note_on_c, 0, 48, 57
2, 178872, Control_c, 0, 64, 62
2, 178890, Control_c, 0, 64, 62
2, 178890, Note_on_c, 0, 49, 0
2, 178929, Control_c, 0, 64, 61
2, 178987, Control_c, 0, 64, 62
2, 179059, Note_on_c, 0, 65, 68
2, 179064, Control_c, 0, 64, 59
2, 179068, Note_on_c, 0, 48, 0
2, 179072, Note_on_c, 0, 49, 53
2, 179082, Control_c, 0, 64, 45
2, 179102, Control_c, 0, 64, 0
2, 179179, Control_c, 0, 64, 17
2, 179198, Control_c, 0, 64, 41
2, 179218, Control_c, 0, 64, 56
2, 179236, Control_c, 0, 64, 61
2, 179249, Note_on_c, 0, 63, 0
2, 179257, Control_c, 0, 64, 62
2, 179276, Note_on_c, 0, 46, 64
2, 179298, Note_on_c, 0, 49, 0
2, 179429, Control_c, 0, 64, 63
2, 179448, Control_c, 0, 64, 63
2, 179487, Control_c, 0, 64, 63
2, 179500, Note_on_c, 0, 46, 0
2, 179506, Control_c, 0, 64, 59
2, 179517, Note_on_c, 0, 52, 55
2, 179525, Control_c, 0, 64, 43
2, 179526, Note_on_c, 0, 67, 67
2, 179545, Control_c, 0, 64, 0
2, 179615, Note_on_c, 0, 65, 0
2, 179640, Control_c, 0, 64, 47
2, 179660, Control_c, 0, 64, 65
2, 179679, Control_c, 0, 64, 69
2, 179698, Control_c, 0, 64, 72
2, 179700, Note_on_c, 0, 52, 0
2, 179717, Control_c, 0, 64, 73
2, 179737, Control_c, 0, 64, 73
2, 179851, Control_c, 0, 64, 74
2, 179928, Control_c, 0, 64, 73
2, 179948, Control_c, 0, 64, 73
2, 179967, Control_c, 0, 64, 71
2, 179986, Control_c, 0, 64, 70
2, 180005, Control_c, 0, 64, 69
2, 180009, Note_on_c, 0, 53, 59
2, 180019, Note_on_c, 0, 60, 59
2, 180025, Control_c, 0, 64, 68
2, 180040, Note_on_c, 0, 70, 0
2, 180043, Control_c, 0, 64, 68
2, 180063, Control_c, 0, 64, 67
2, 180082, Control_c, 0, 64, 66
2, 180102, Control_c, 0, 64, 66
2, 180114, Note_on_c, 0, 67, 0
2, 180120, Control_c, 0, 64, 65
2, 180140, Control_c, 0, 64, 64
2, 180159, Control_c, 0, 64, 63
2, 180178, Control_c, 0, 64, 62
2, 180197, Control_c, 0, 64, 60
2, 180216, Control_c, 0, 64, 58
2, 180235, Control_c, 0, 64, 56
2, 180253, Control_c, 0, 64, 54
2, 180273, Control_c, 0, 64, 53
2, 180292, Control_c, 0, 64, 53
2, 180369, Control_c, 0, 64, 52
2, 180479, Note_on_c, 0, 69, 66
2, 180484, Control_c, 0, 64, 53
2, 180490, Note_on_c, 0, 58, 48
2, 180504, Control_c, 0, 64, 54
2, 180522, Control_c, 0, 64, 56
2, 180542, Control_c, 0, 64, 57
2, 180599, Control_c, 0, 64, 58
2, 180619, Control_c, 0, 64, 59
2, 180638, Control_c, 0, 64, 61
2, 180645, Note_on_c, 0, 60, 0
2, 180676, Control_c, 0, 64, 60
2, 180692, Note_on_c, 0, 67, 68
2, 180696, Control_c, 0, 64, 61
2, 180726, Note_on_c, 0, 69, 0
2, 180733, Control_c, 0, 64, 61
2, 180753, Control_c, 0, 64, 61
2, 180849, Control_c, 0, 64, 61
2, 180857, Note_on_c, 0, 67, 0
2, 180926, Control_c, 0, 64, 59
2, 180926, Note_on_c, 0, 69, 76
2, 180945, Control_c, 0, 64, 48
2, 180963, Note_on_c, 0, 60, 58
2, 180964, Control_c, 0, 64, 0
2, 181009, Note_on_c, 0, 58, 0
2, 181099, Control_c, 0, 64, 47
2, 181118, Control_c, 0, 64, 62
2, 181136, Note_on_c, 0, 65, 69
2, 181138, Control_c, 0, 64, 63
2, 181140, Note_on_c, 0, 69, 0
2, 181233, Control_c, 0, 64, 63
2, 181348, Control_c, 0, 64, 63
2, 181376, Note_on_c, 0, 65, 0
2, 181381, Note_on_c, 0, 70, 78
2, 181416, Note_on_c, 0, 61, 55
2, 181425, Control_c, 0, 64, 63
2, 181444, Control_c, 0, 64, 61
2, 181446, Note_on_c, 0, 60, 0
2, 181464, Control_c, 0, 64, 50
2, 181482, Control_c, 0, 64, 0
2, 181579, Control_c, 0, 64, 30
2, 181598, Control_c, 0, 64, 60
2, 181601, Note_on_c, 0, 70, 0
2, 181618, Control_c, 0, 64, 65
2, 181636, Control_c, 0, 64, 65
2, 181693, Control_c, 0, 64, 66
2, 181713, Control_c, 0, 64, 67
2, 181732, Control_c, 0, 64, 67
2, 181752, Control_c, 0, 64, 68
2, 181770, Control_c, 0, 64, 68
2, 181809, Control_c, 0, 64, 68
2, 181847, Control_c, 0, 64, 67
2, 181852, Note_on_c, 0, 61, 0
2, 181862, Note_on_c, 0, 53, 0
2, 181867, Control_c, 0, 64, 67
2, 181880, Note_on_c, 0, 72, 74
2, 181886, Control_c, 0, 64, 66
2, 181905, Control_c, 0, 64, 65
2, 181912, Note_on_c, 0, 63, 55
2, 181924, Control_c, 0, 64, 64
2, 181944, Control_c, 0, 64, 64
2, 181962, Control_c, 0, 64, 63
2, 181982, Control_c, 0, 64, 63
2, 182001, Control_c, 0, 64, 62
2, 182021, Control_c, 0, 64, 61
2, 182039, Control_c, 0, 64, 61
2, 182059, Control_c, 0, 64, 60
2, 182116, Control_c, 0, 64, 60
2, 182155, Control_c, 0, 64, 59
2, 182232, Control_c, 0, 64, 59
2, 182368, Note_on_c, 0, 51, 61
2, 182462, Control_c, 0, 64, 59
2, 182593, Note_on_c, 0, 49, 73
2, 182635, Control_c, 0, 64, 60
2, 182678, Note_on_c, 0, 51, 0
2, 182777, Note_on_c, 0, 49, 0
2, 182807, Control_c, 0, 64, 59
2, 182823, Note_on_c, 0, 51, 69
2, 182827, Control_c, 0, 64, 58
2, 182846, Control_c, 0, 64, 49
2, 182865, Control_c, 0, 64, 13
2, 182884, Control_c, 0, 64, 0
2, 183038, Control_c, 0, 64, 30
2, 183044, Note_on_c, 0, 48, 74
2, 183058, Control_c, 0, 64, 49
2, 183076, Control_c, 0, 64, 60
2, 183090, Note_on_c, 0, 51, 0
2, 183097, Control_c, 0, 64, 62
2, 183190, Control_c, 0, 64, 63
2, 183209, Control_c, 0, 64, 63
2, 183266, Control_c, 0, 64, 64
2, 183280, Note_on_c, 0, 48, 0
2, 183305, Control_c, 0, 64, 62
2, 183308, Note_on_c, 0, 53, 77
2, 183325, Control_c, 0, 64, 52
2, 183343, Control_c, 0, 64, 0
2, 183439, Control_c, 0, 64, 37
2, 183459, Control_c, 0, 64, 66
2, 183477, Control_c, 0, 64, 74
2, 183497, Control_c, 0, 64, 85
2, 183516, Control_c, 0, 64, 93
2, 183516, Note_on_c, 0, 53, 0
2, 183535, Control_c, 0, 64, 104
2, 183554, Control_c, 0, 64, 127
2, 183805, Control_c, 0, 64, 107
2, 183823, Control_c, 0, 64, 101
2, 183842, Control_c, 0, 64, 96
2, 183862, Control_c, 0, 64, 92
2, 183880, Control_c, 0, 64, 88
2, 183881, Note_on_c, 0, 54, 77
2, 183901, Control_c, 0, 64, 85
2, 183920, Control_c, 0, 64, 85
2, 183940, Control_c, 0, 64, 85
2, 183958, Control_c, 0, 64, 85
2, 183978, Control_c, 0, 64, 83
2, 183997, Control_c, 0, 64, 79
2, 184016, Control_c, 0, 64, 76
2, 184033, Note_on_c, 0, 63, 0
2, 184035, Control_c, 0, 64, 72
2, 184049, Note_on_c, 0, 72, 0
2, 184055, Control_c, 0, 64, 70
2, 184074, Control_c, 0, 64, 68
2, 184093, Control_c, 0, 64, 67
2, 184112, Control_c, 0, 64, 66
2, 184132, Control_c, 0, 64, 65
2, 184170, Control_c, 0, 64, 64
2, 184189, Control_c, 0, 64, 63
2, 184209, Control_c, 0, 64, 62
2, 184227, Control_c, 0, 64, 62
2, 184247, Control_c, 0, 64, 61
2, 184266, Control_c, 0, 64, 60
2, 184285, Control_c, 0, 64, 59
2, 184304, Control_c, 0, 64, 58
2, 184324, Control_c, 0, 64, 58
2, 184371, Note_on_c, 0, 61, 52
2, 184376, Note_on_c, 0, 70, 70
2, 184438, Control_c, 0, 64, 58
2, 184458, Control_c, 0, 64, 59
2, 184496, Control_c, 0, 64, 59
2, 184515, Control_c, 0, 64, 60
2, 184535, Control_c, 0, 64, 61
2, 184612, Control_c, 0, 64, 61
2, 184613, Note_on_c, 0, 69, 73
2, 184615, Note_on_c, 0, 60, 55
2, 184642, Note_on_c, 0, 70, 0
2, 184668, Note_on_c, 0, 61, 0
2, 184784, Control_c, 0, 64, 62
2, 184823, Control_c, 0, 64, 61
2, 184841, Control_c, 0, 64, 60
2, 184854, Note_on_c, 0, 70, 79
2, 184855, Note_on_c, 0, 60, 0
2, 184861, Control_c, 0, 64, 56
2, 184867, Note_on_c, 0, 61, 58
2, 184880, Control_c, 0, 64, 52
2, 184900, Control_c, 0, 64, 50
2, 184918, Control_c, 0, 64, 51
2, 184938, Control_c, 0, 64, 52
2, 184957, Control_c, 0, 64, 55
2, 184976, Control_c, 0, 64, 58
2, 184994, Note_on_c, 0, 69, 0
2, 184995, Control_c, 0, 64, 61
2, 185015, Control_c, 0, 64, 65
2, 185034, Control_c, 0, 64, 66
2, 185071, Note_on_c, 0, 72, 82
2, 185134, Note_on_c, 0, 70, 0
2, 185226, Control_c, 0, 64, 65
2, 185245, Control_c, 0, 64, 65
2, 185303, Control_c, 0, 64, 64
2, 185315, Note_on_c, 0, 73, 79
2, 185341, Control_c, 0, 64, 64
2, 185362, Note_on_c, 0, 58, 53
2, 185380, Note_on_c, 0, 54, 0
2, 185380, Note_on_c, 0, 72, 0
2, 185456, Control_c, 0, 64, 63
2, 185471, Note_on_c, 0, 61, 0
2, 185495, Control_c, 0, 64, 63
2, 185555, Note_on_c, 0, 53, 62
2, 185572, Control_c, 0, 64, 62
2, 185622, Note_on_c, 0, 58, 0
2, 185764, Control_c, 0, 64, 60
2, 185783, Control_c, 0, 64, 49
2, 185790, Note_on_c, 0, 51, 62
2, 185801, Control_c, 0, 64, 0
2, 185850, Note_on_c, 0, 53, 0
2, 185937, Control_c, 0, 64, 29
2, 185955, Control_c, 0, 64, 54
2, 185974, Control_c, 0, 64, 56
2, 186009, Note_on_c, 0, 58, 51
2, 186012, Control_c, 0, 64, 57
2, 186031, Control_c, 0, 64, 60
2, 186051, Control_c, 0, 64, 61
2, 186070, Control_c, 0, 64, 60
2, 186089, Control_c, 0, 64, 60
2, 186108, Control_c, 0, 64, 59
2, 186128, Control_c, 0, 64, 56
2, 186146, Control_c, 0, 64, 47
2, 186166, Control_c, 0, 64, 37
2, 186185, Control_c, 0, 64, 37
2, 186205, Control_c, 0, 64, 46
2, 186223, Control_c, 0, 64, 60
2, 186235, Note_on_c, 0, 58, 0
2, 186240, Note_on_c, 0, 63, 51
2, 186240, Note_on_c, 0, 72, 77
2, 186242, Control_c, 0, 64, 65
2, 186262, Control_c, 0, 64, 67
2, 186280, Control_c, 0, 64, 69
2, 186289, Note_on_c, 0, 73, 0
2, 186319, Control_c, 0, 64, 69
2, 186339, Control_c, 0, 64, 70
2, 186340, Note_on_c, 0, 51, 0
2, 186357, Control_c, 0, 64, 70
2, 186377, Control_c, 0, 64, 71
2, 186415, Control_c, 0, 64, 71
2, 186460, Note_on_c, 0, 61, 53
2, 186460, Note_on_c, 0, 70, 81
2, 186461, Note_on_c, 0, 63, 0
2, 186473, Control_c, 0, 64, 70
2, 186492, Control_c, 0, 64, 70
2, 186511, Control_c, 0, 64, 69
2, 186531, Control_c, 0, 64, 69
2, 186536, Note_on_c, 0, 72, 0
2, 186550, Control_c, 0, 64, 68
2, 186569, Control_c, 0, 64, 67
2, 186588, Control_c, 0, 64, 66
2, 186626, Control_c, 0, 64, 65
2, 186646, Control_c, 0, 64, 65
2, 186646, Note_on_c, 0, 61, 0
2, 186661, Note_on_c, 0, 53, 40
2, 186670, Note_on_c, 0, 60, 47
2, 186722, Control_c, 0, 64, 64
2, 186742, Control_c, 0, 64, 64
2, 186760, Control_c, 0, 64, 60
2, 186777, Note_on_c, 0, 75, 83
2, 186782, Control_c, 0, 64, 46
2, 186799, Note_on_c, 0, 69, 63
2, 186801, Control_c, 0, 64, 0
2, 186802, Note_on_c, 0, 70, 0
2, 186897, Control_c, 0, 64, 13
2, 186915, Control_c, 0, 64, 52
2, 186935, Control_c, 0, 64, 63
2, 186948, Note_on_c, 0, 69, 0
2, 186954, Control_c, 0, 64, 64
2, 187012, Control_c, 0, 64, 65
2, 187030, Control_c, 0, 64, 65
2, 187037, Note_on_c, 0, 70, 66
2, 187039, Note_on_c, 0, 60, 0
2, 187050, Control_c, 0, 64, 66
2, 187060, Note_on_c, 0, 58, 39
2, 187069, Control_c, 0, 64, 67
2, 187089, Control_c, 0, 64, 68
2, 187107, Control_c, 0, 64, 69
2, 187127, Control_c, 0, 64, 70
2, 187146, Control_c, 0, 64, 71
2, 187165, Control_c, 0, 64, 73
2, 187184, Control_c, 0, 64, 75
2, 187203, Control_c, 0, 64, 76
2, 187223, Control_c, 0, 64, 77
2, 187241, Control_c, 0, 64, 77
2, 187250, Note_on_c, 0, 60, 49
2, 187261, Note_on_c, 0, 67, 48
2, 187281, Note_on_c, 0, 60, 0
2, 187285, Note_on_c, 0, 70, 0
2, 187287, Note_on_c, 0, 58, 0
2, 187306, Note_on_c, 0, 53, 0
2, 187357, Control_c, 0, 64, 78
2, 187450, Note_on_c, 0, 69, 65
2, 187467, Note_on_c, 0, 67, 0
2, 187482, Note_on_c, 0, 69, 0
2, 187510, Control_c, 0, 64, 77
2, 187523, Note_on_c, 0, 75, 0
2, 187569, Control_c, 0, 64, 77
2, 187587, Control_c, 0, 64, 76
2, 187607, Control_c, 0, 64, 76
2, 187626, Control_c, 0, 64, 75
2, 187645, Control_c, 0, 64, 74
2, 187664, Control_c, 0, 64, 74
2, 187669, Note_on_c, 0, 46, 51
2, 187673, Note_on_c, 0, 58, 48
2, 187733, Note_on_c, 0, 74, 70
2, 187751, Note_on_c, 0, 70, 49
2, 187760, Control_c, 0, 64, 72
2, 187780, Control_c, 0, 64, 66
2, 187798, Control_c, 0, 64, 54
2, 187818, Control_c, 0, 64, 29
2, 187837, Control_c, 0, 64, 9
2, 187870, Control_c, 0, 64, 32
2, 187890, Control_c, 0, 64, 58
2, 187909, Control_c, 0, 64, 63
2, 187947, Control_c, 0, 64, 63
2, 187967, Control_c, 0, 64, 64
2, 187986, Control_c, 0, 64, 65
2, 188005, Control_c, 0, 64, 66
2, 188009, Note_on_c, 0, 46, 0
2, 188043, Control_c, 0, 64, 65
2, 188120, Control_c, 0, 64, 65
2, 188181, Note_on_c, 0, 75, 75
2, 188203, Note_on_c, 0, 58, 0
2, 188209, Note_on_c, 0, 60, 51
2, 188255, Control_c, 0, 64, 64
2, 188274, Control_c, 0, 64, 64
2, 188312, Control_c, 0, 64, 63
2, 188390, Note_on_c, 0, 77, 79
2, 188412, Note_on_c, 0, 62, 53
2, 188423, Note_on_c, 0, 60, 0
2, 188447, Control_c, 0, 64, 63
2, 188454, Note_on_c, 0, 74, 0
2, 188466, Control_c, 0, 64, 62
2, 188470, Note_on_c, 0, 75, 0
2, 188485, Control_c, 0, 64, 62
2, 188504, Control_c, 0, 64, 61
2, 188600, Control_c, 0, 64, 59
2, 188620, Control_c, 0, 64, 54
2, 188635, Note_on_c, 0, 62, 0
2, 188638, Control_c, 0, 64, 39
2, 188658, Control_c, 0, 64, 0
2, 188663, Note_on_c, 0, 78, 78
2, 188673, Note_on_c, 0, 63, 56
2, 188708, Note_on_c, 0, 77, 0
2, 188757, Control_c, 0, 64, 11
2, 188777, Control_c, 0, 64, 60
2, 188796, Control_c, 0, 64, 66
2, 188815, Control_c, 0, 64, 66
2, 188834, Control_c, 0, 64, 66
2, 188872, Control_c, 0, 64, 66
2, 188930, Control_c, 0, 64, 66
2, 188937, Note_on_c, 0, 78, 0
2, 189121, Control_c, 0, 64, 65
2, 189141, Control_c, 0, 64, 60
2, 189144, Note_on_c, 0, 77, 72
2, 189159, Note_on_c, 0, 65, 48
2, 189160, Control_c, 0, 64, 41
2, 189179, Control_c, 0, 64, 0
2, 189203, Note_on_c, 0, 63, 0
2, 189256, Control_c, 0, 64, 42
2, 189275, Control_c, 0, 64, 64
2, 189295, Control_c, 0, 64, 66
2, 189447, Note_on_c, 0, 77, 0
2, 189505, Control_c, 0, 64, 66
2, 189563, Control_c, 0, 64, 66
2, 189601, Control_c, 0, 64, 67
2, 189640, Control_c, 0, 64, 64
2, 189647, Note_on_c, 0, 65, 0
2, 189656, Note_on_c, 0, 75, 76
2, 189659, Note_on_c, 0, 66, 52
2, 189661, Control_c, 0, 64, 54
2, 189680, Control_c, 0, 64, 0
2, 189738, Control_c, 0, 64, 36
2, 189757, Control_c, 0, 64, 62
2, 189776, Control_c, 0, 64, 68
2, 189795, Control_c, 0, 64, 72
2, 189815, Control_c, 0, 64, 76
2, 189829, Note_on_c, 0, 70, 0
2, 189834, Control_c, 0, 64, 79
2, 189853, Control_c, 0, 64, 79
2, 189872, Control_c, 0, 64, 80
2, 189907, Note_on_c, 0, 75, 0
2, 189930, Control_c, 0, 64, 79
2, 189949, Control_c, 0, 64, 79
2, 189987, Control_c, 0, 64, 78
2, 190007, Control_c, 0, 64, 77
2, 190045, Control_c, 0, 64, 77
2, 190064, Control_c, 0, 64, 76
2, 190083, Control_c, 0, 64, 76
2, 190141, Control_c, 0, 64, 77
2, 190160, Control_c, 0, 64, 79
2, 190180, Control_c, 0, 64, 81
2, 190180, Note_on_c, 0, 81, 83
2, 190198, Control_c, 0, 64, 79
2, 190212, Note_on_c, 0, 72, 55
2, 190218, Control_c, 0, 64, 68
2, 190237, Control_c, 0, 64, 50
2, 190256, Control_c, 0, 64, 25
2, 190275, Control_c, 0, 64, 19
2, 190295, Control_c, 0, 64, 36
2, 190314, Control_c, 0, 64, 59
2, 190333, Control_c, 0, 64, 66
2, 190352, Control_c, 0, 64, 69
2, 190372, Control_c, 0, 64, 71
2, 190390, Control_c, 0, 64, 72
2, 190405, Note_on_c, 0, 72, 0
2, 190410, Control_c, 0, 64, 73
2, 190429, Control_c, 0, 64, 73
2, 190449, Control_c, 0, 64, 74
2, 190506, Control_c, 0, 64, 73
2, 190619, Control_c, 0, 64, 74
2, 190638, Control_c, 0, 64, 75
2, 190658, Control_c, 0, 64, 77
2, 190666, Note_on_c, 0, 82, 79
2, 190676, Control_c, 0, 64, 78
2, 190694, Note_on_c, 0, 73, 48
2, 190696, Control_c, 0, 64, 71
2, 190715, Control_c, 0, 64, 61
2, 190720, Note_on_c, 0, 81, 0
2, 190735, Control_c, 0, 64, 46
2, 190753, Control_c, 0, 64, 44
2, 190773, Control_c, 0, 64, 51
2, 190792, Control_c, 0, 64, 61
2, 190811, Control_c, 0, 64, 65
2, 190828, Note_on_c, 0, 73, 0
2, 190830, Control_c, 0, 64, 66
2, 190848, Note_on_c, 0, 82, 0
2, 190850, Control_c, 0, 64, 67
2, 190895, Note_on_c, 0, 66, 0
2, 190912, Note_on_c, 0, 68, 62
2, 190945, Control_c, 0, 64, 66
2, 190965, Control_c, 0, 64, 66
2, 191022, Control_c, 0, 64, 66
2, 191061, Control_c, 0, 64, 67
2, 191080, Control_c, 0, 64, 67
2, 191118, Control_c, 0, 64, 66
2, 191138, Control_c, 0, 64, 63
2, 191138, Note_on_c, 0, 73, 74
2, 191156, Control_c, 0, 64, 55
2, 191162, Note_on_c, 0, 66, 54
2, 191170, Note_on_c, 0, 68, 0
2, 191170, Note_on_c, 0, 70, 51
2, 191176, Control_c, 0, 64, 44
2, 191195, Control_c, 0, 64, 43
2, 191215, Control_c, 0, 64, 49
2, 191233, Control_c, 0, 64, 61
2, 191253, Control_c, 0, 64, 65
2, 191272, Control_c, 0, 64, 67
2, 191291, Control_c, 0, 64, 69
2, 191299, Note_on_c, 0, 70, 0
2, 191310, Control_c, 0, 64, 69
2, 191351, Note_on_c, 0, 66, 0
2, 191354, Note_on_c, 0, 73, 0
2, 191356, Note_on_c, 0, 65, 61
2, 191387, Control_c, 0, 64, 68
2, 191407, Control_c, 0, 64, 68
2, 191444, Control_c, 0, 64, 67
2, 191502, Control_c, 0, 64, 67
2, 191541, Control_c, 0, 64, 66
2, 191560, Control_c, 0, 64, 66
2, 191580, Control_c, 0, 64, 65
2, 191599, Control_c, 0, 64, 65
2, 191606, Note_on_c, 0, 75, 67
2, 191615, Note_on_c, 0, 71, 51
2, 191635, Note_on_c, 0, 63, 51
2, 191637, Control_c, 0, 64, 64
2, 191676, Control_c, 0, 64, 64
2, 191709, Note_on_c, 0, 65, 0
2, 191712, Control_c, 0, 64, 63
2, 191732, Control_c, 0, 64, 63
2, 191751, Control_c, 0, 64, 62
2, 191770, Control_c, 0, 64, 61
2, 191789, Control_c, 0, 64, 61
2, 191809, Control_c, 0, 64, 60
2, 191824, Note_on_c, 0, 75, 0
2, 191861, Note_on_c, 0, 61, 61
2, 191866, Control_c, 0, 64, 60
2, 191878, Note_on_c, 0, 63, 0
2, 192000, Control_c, 0, 64, 59
2, 192020, Control_c, 0, 64, 58
2, 192070, Note_on_c, 0, 75, 70
2, 192078, Note_on_c, 0, 61, 0
2, 192097, Control_c, 0, 64, 59
2, 192105, Note_on_c, 0, 59, 58
2, 192250, Control_c, 0, 64, 59
2, 192289, Control_c, 0, 64, 60
2, 192299, Note_on_c, 0, 58, 56
2, 192319, Note_on_c, 0, 75, 0
2, 192327, Control_c, 0, 64, 60
2, 192385, Control_c, 0, 64, 60
2, 192386, Note_on_c, 0, 59, 0
2, 192423, Control_c, 0, 64, 59
2, 192442, Control_c, 0, 64, 59
2, 192545, Note_on_c, 0, 77, 76
2, 192547, Note_on_c, 0, 56, 57
2, 192559, Control_c, 0, 64, 58
2, 192569, Note_on_c, 0, 58, 0
2, 192579, Control_c, 0, 64, 58
2, 192597, Control_c, 0, 64, 57
2, 192617, Control_c, 0, 64, 56
2, 192636, Control_c, 0, 64, 54
2, 192655, Control_c, 0, 64, 52
2, 192672, Control_c, 0, 64, 49
2, 192693, Control_c, 0, 64, 47
2, 192712, Control_c, 0, 64, 45
2, 192760, Note_on_c, 0, 58, 57
2, 192804, Note_on_c, 0, 77, 0
2, 192825, Note_on_c, 0, 56, 0
2, 192884, Control_c, 0, 64, 45
2, 192904, Control_c, 0, 64, 42
2, 192923, Control_c, 0, 64, 39
2, 192942, Control_c, 0, 64, 37
2, 193014, Note_on_c, 0, 77, 70
2, 193019, Control_c, 0, 64, 38
2, 193021, Note_on_c, 0, 58, 0
2, 193029, Note_on_c, 0, 59, 58
2, 193038, Control_c, 0, 64, 44
2, 193058, Control_c, 0, 64, 56
2, 193076, Control_c, 0, 64, 63
2, 193096, Control_c, 0, 64, 65
2, 193135, Control_c, 0, 64, 65
2, 193153, Control_c, 0, 64, 67
2, 193173, Control_c, 0, 64, 68
2, 193173, Note_on_c, 0, 71, 0
2, 193192, Control_c, 0, 64, 68
2, 193229, Note_on_c, 0, 77, 0
2, 193230, Control_c, 0, 64, 69
2, 193234, Note_on_c, 0, 59, 0
2, 193237, Note_on_c, 0, 61, 61
2, 193288, Control_c, 0, 64, 68
2, 193345, Control_c, 0, 64, 68
2, 193364, Control_c, 0, 64, 67
2, 193384, Control_c, 0, 64, 67
2, 193403, Control_c, 0, 64, 66
2, 193422, Control_c, 0, 64, 66
2, 193441, Control_c, 0, 64, 65
2, 193461, Control_c, 0, 64, 65
2, 193480, Control_c, 0, 64, 64
2, 193501, Control_c, 0, 64, 64
2, 193504, Note_on_c, 0, 70, 71
2, 193520, Control_c, 0, 64, 63
2, 193540, Control_c, 0, 64, 62
2, 193542, Note_on_c, 0, 63, 48
2, 193558, Control_c, 0, 64, 61
2, 193558, Note_on_c, 0, 54, 43
2, 193578, Control_c, 0, 64, 57
2, 193589, Note_on_c, 0, 61, 0
2, 193597, Control_c, 0, 64, 48
2, 193616, Control_c, 0, 64, 21
2, 193635, Control_c, 0, 64, 0
2, 193750, Control_c, 0, 64, 29
2, 193769, Control_c, 0, 64, 52
2, 193788, Control_c, 0, 64, 61
2, 193808, Control_c, 0, 64, 63
2, 193846, Control_c, 0, 64, 64
2, 193865, Control_c, 0, 64, 64
2, 193884, Control_c, 0, 64, 65
2, 193903, Control_c, 0, 64, 66
2, 193922, Control_c, 0, 64, 67
2, 193942, Control_c, 0, 64, 68
2, 193960, Control_c, 0, 64, 69
2, 193980, Control_c, 0, 64, 70
2, 193992, Note_on_c, 0, 77, 74
2, 193995, Note_on_c, 0, 56, 49
2, 193999, Control_c, 0, 64, 73
2, 194019, Control_c, 0, 64, 76
2, 194037, Control_c, 0, 64, 78
2, 194057, Control_c, 0, 64, 79
2, 194095, Control_c, 0, 64, 79
2, 194112, Note_on_c, 0, 54, 0
2, 194124, Note_on_c, 0, 63, 0
2, 194153, Control_c, 0, 64, 80
2, 194191, Control_c, 0, 64, 80
2, 194221, Note_on_c, 0, 56, 0
2, 194254, Note_on_c, 0, 77, 0
2, 194326, Control_c, 0, 64, 80
2, 194364, Control_c, 0, 64, 79
2, 194383, Control_c, 0, 64, 78
2, 194402, Control_c, 0, 64, 77
2, 194422, Control_c, 0, 64, 76
2, 194440, Control_c, 0, 64, 74
2, 194461, Control_c, 0, 64, 73
2, 194480, Control_c, 0, 64, 71
2, 194486, Note_on_c, 0, 54, 66
2, 194498, Note_on_c, 0, 78, 70
2, 194500, Control_c, 0, 64, 69
2, 194512, Note_on_c, 0, 61, 47
2, 194515, Note_on_c, 0, 58, 52
2, 194518, Control_c, 0, 64, 69
2, 194538, Control_c, 0, 64, 68
2, 194557, Control_c, 0, 64, 67
2, 194576, Control_c, 0, 64, 66
2, 194595, Control_c, 0, 64, 65
2, 194615, Control_c, 0, 64, 64
2, 194634, Control_c, 0, 64, 60
2, 194653, Control_c, 0, 64, 50
2, 194672, Control_c, 0, 64, 27
2, 194692, Control_c, 0, 64, 0
2, 194703, Note_on_c, 0, 61, 0
2, 194741, Note_on_c, 0, 70, 0
2, 194787, Control_c, 0, 64, 21
2, 194807, Control_c, 0, 64, 48
2, 194826, Control_c, 0, 64, 61
2, 194846, Control_c, 0, 64, 64
2, 194864, Control_c, 0, 64, 65
2, 194921, Control_c, 0, 64, 65
2, 194941, Control_c, 0, 64, 66
2, 194960, Control_c, 0, 64, 67
2, 194980, Control_c, 0, 64, 67
2, 194989, Note_on_c, 0, 61, 59
2, 194998, Control_c, 0, 64, 68
2, 194998, Note_on_c, 0, 70, 65
2, 195018, Control_c, 0, 64, 69
2, 195037, Control_c, 0, 64, 71
2, 195056, Control_c, 0, 64, 73
2, 195075, Control_c, 0, 64, 75
2, 195095, Control_c, 0, 64, 77
2, 195114, Control_c, 0, 64, 78
2, 195133, Control_c, 0, 64, 79
2, 195143, Note_on_c, 0, 54, 0
2, 195152, Control_c, 0, 64, 79
2, 195160, Note_on_c, 0, 58, 0
2, 195167, Note_on_c, 0, 61, 0
2, 195267, Control_c, 0, 64, 79
2, 195287, Control_c, 0, 64, 78
2, 195306, Control_c, 0, 64, 78
2, 195326, Control_c, 0, 64, 77
2, 195344, Control_c, 0, 64, 76
2, 195363, Control_c, 0, 64, 75
2, 195364, Note_on_c, 0, 70, 0
2, 195383, Control_c, 0, 64, 74
2, 195401, Control_c, 0, 64, 73
2, 195453, Note_on_c, 0, 51, 56
2, 195453, Note_on_c, 0, 63, 57
2, 195469, Note_on_c, 0, 71, 58
2, 195479, Control_c, 0, 64, 72
2, 195499, Control_c, 0, 64, 71
2, 195518, Control_c, 0, 64, 67
2, 195537, Control_c, 0, 64, 61
2, 195551, Control_c, 0, 64, 53
2, 195571, Control_c, 0, 64, 51
2, 195590, Control_c, 0, 64, 53
2, 195610, Control_c, 0, 64, 57
2, 195628, Control_c, 0, 64, 60
2, 195648, Control_c, 0, 64, 62
2, 195655, Note_on_c, 0, 78, 0
2, 195667, Control_c, 0, 64, 63
2, 195686, Control_c, 0, 64, 64
2, 195705, Control_c, 0, 64, 64
2, 195724, Control_c, 0, 64, 65
2, 195801, Control_c, 0, 64, 64
2, 195839, Control_c, 0, 64, 65
2, 195878, Control_c, 0, 64, 65
2, 195897, Control_c, 0, 64, 66
2, 195916, Control_c, 0, 64, 67
2, 195924, Note_on_c, 0, 82, 71
2, 195938, Note_on_c, 0, 52, 66
2, 195955, Control_c, 0, 64, 64
2, 195974, Control_c, 0, 64, 55
2, 195993, Control_c, 0, 64, 34
2, 196013, Control_c, 0, 64, 20
2, 196031, Control_c, 0, 64, 19
2, 196043, Note_on_c, 0, 51, 0
2, 196051, Control_c, 0, 64, 32
2, 196070, Control_c, 0, 64, 46
2, 196090, Control_c, 0, 64, 51
2, 196108, Control_c, 0, 64, 56
2, 196128, Control_c, 0, 64, 59
2, 196140, Note_on_c, 0, 54, 79
2, 196147, Control_c, 0, 64, 60
2, 196174, Note_on_c, 0, 52, 0
2, 196204, Control_c, 0, 64, 61
2, 196257, Note_on_c, 0, 82, 0
2, 196281, Control_c, 0, 64, 61
2, 196319, Control_c, 0, 64, 62
2, 196378, Control_c, 0, 64, 59
2, 196391, Note_on_c, 0, 56, 73
2, 196395, Note_on_c, 0, 83, 72
2, 196396, Note_on_c, 0, 54, 0
2, 196397, Control_c, 0, 64, 49
2, 196413, Note_on_c, 0, 71, 0
2, 196417, Control_c, 0, 64, 21
2, 196435, Control_c, 0, 64, 0
2, 196551, Control_c, 0, 64, 32
2, 196570, Control_c, 0, 64, 46
2, 196589, Control_c, 0, 64, 53
2, 196609, Control_c, 0, 64, 55
2, 196628, Control_c, 0, 64, 55
2, 196631, Note_on_c, 0, 56, 0
2, 196647, Control_c, 0, 64, 56
2, 196652, Note_on_c, 0, 75, 73
2, 196666, Control_c, 0, 64, 57
2, 196685, Control_c, 0, 64, 57
2, 196723, Control_c, 0, 64, 58
2, 196743, Control_c, 0, 64, 60
2, 196762, Control_c, 0, 64, 62
2, 196781, Control_c, 0, 64, 62
2, 196839, Control_c, 0, 64, 62
2, 196858, Control_c, 0, 64, 56
2, 196876, Note_on_c, 0, 75, 0
2, 196877, Control_c, 0, 64, 38
2, 196877, Note_on_c, 0, 76, 67
2, 196881, Note_on_c, 0, 54, 64
2, 196897, Control_c, 0, 64, 0
2, 196960, Note_on_c, 0, 83, 0
2, 196974, Control_c, 0, 64, 52
2, 196992, Control_c, 0, 64, 64
2, 197012, Control_c, 0, 64, 65
2, 197031, Control_c, 0, 64, 64
2, 197069, Control_c, 0, 64, 65
2, 197080, Note_on_c, 0, 63, 0
2, 197098, Note_on_c, 0, 78, 77
2, 197127, Control_c, 0, 64, 64
2, 197133, Note_on_c, 0, 76, 0
2, 197223, Control_c, 0, 64, 64
2, 197319, Control_c, 0, 64, 63
2, 197338, Control_c, 0, 64, 62
2, 197357, Control_c, 0, 64, 61
2, 197365, Note_on_c, 0, 80, 69
2, 197371, Note_on_c, 0, 61, 49
2, 197374, Note_on_c, 0, 54, 0
2, 197377, Control_c, 0, 64, 59
2, 197377, Note_on_c, 0, 52, 48
2, 197394, Note_on_c, 0, 78, 0
2, 197395, Control_c, 0, 64, 55
2, 197415, Control_c, 0, 64, 46
2, 197434, Control_c, 0, 64, 36
2, 197454, Control_c, 0, 64, 27
2, 197472, Control_c, 0, 64, 20
2, 197493, Control_c, 0, 64, 19
2, 197512, Control_c, 0, 64, 21
2, 197531, Control_c, 0, 64, 37
2, 197550, Control_c, 0, 64, 53
2, 197570, Control_c, 0, 64, 60
2, 197589, Control_c, 0, 64, 60
2, 197627, Control_c, 0, 64, 61
2, 197647, Control_c, 0, 64, 62
2, 197684, Control_c, 0, 64, 61
2, 197819, Control_c, 0, 64, 62
2, 197838, Control_c, 0, 64, 61
2, 197858, Control_c, 0, 64, 59
2, 197863, Note_on_c, 0, 76, 66
2, 197876, Control_c, 0, 64, 53
2, 197876, Note_on_c, 0, 58, 53
2, 197893, Note_on_c, 0, 61, 0
2, 197896, Control_c, 0, 64, 38
2, 197915, Control_c, 0, 64, 22
2, 197935, Control_c, 0, 64, 18
2, 197953, Control_c, 0, 64, 21
2, 197959, Note_on_c, 0, 52, 0
2, 197973, Control_c, 0, 64, 37
2, 197992, Control_c, 0, 64, 49
2, 198011, Control_c, 0, 64, 52
2, 198030, Control_c, 0, 64, 53
2, 198033, Note_on_c, 0, 80, 0
2, 198050, Control_c, 0, 64, 56
2, 198069, Control_c, 0, 64, 58
2, 198088, Control_c, 0, 64, 58
2, 198145, Control_c, 0, 64, 59
2, 198164, Control_c, 0, 64, 59
2, 198203, Control_c, 0, 64, 59
2, 198222, Control_c, 0, 64, 58
2, 198241, Control_c, 0, 64, 57
2, 198261, Control_c, 0, 64, 54
2, 198280, Control_c, 0, 64, 43
2, 198303, Control_c, 0, 64, 21
2, 198314, Note_on_c, 0, 75, 67
2, 198317, Note_on_c, 0, 59, 45
2, 198322, Control_c, 0, 64, 0
2, 198339, Note_on_c, 0, 76, 0
2, 198352, Note_on_c, 0, 58, 0
2, 198360, Control_c, 0, 64, 20
2, 198380, Control_c, 0, 64, 37
2, 198399, Control_c, 0, 64, 46
2, 198418, Control_c, 0, 64, 54
2, 198433, Control_c, 0, 64, 60
2, 198453, Control_c, 0, 64, 63
2, 198472, Control_c, 0, 64, 63
2, 198568, Control_c, 0, 64, 63
2, 198587, Control_c, 0, 64, 62
2, 198641, Note_on_c, 0, 59, 0
2, 198683, Control_c, 0, 64, 63
2, 198721, Control_c, 0, 64, 63
2, 198760, Control_c, 0, 64, 62
2, 198779, Control_c, 0, 64, 56
2, 198798, Control_c, 0, 64, 38
2, 198798, Note_on_c, 0, 66, 61
2, 198816, Note_on_c, 0, 59, 49
2, 198818, Control_c, 0, 64, 9
2, 198821, Note_on_c, 0, 51, 44
2, 198836, Control_c, 0, 64, 0
2, 198867, Note_on_c, 0, 75, 0
2, 198875, Control_c, 0, 64, 29
2, 198895, Control_c, 0, 64, 54
2, 198913, Control_c, 0, 64, 61
2, 198933, Control_c, 0, 64, 61
2, 198971, Control_c, 0, 64, 62
2, 198990, Control_c, 0, 64, 63
2, 199074, Note_on_c, 0, 59, 0
2, 199080, Note_on_c, 0, 51, 0
2, 199144, Control_c, 0, 64, 62
2, 199163, Control_c, 0, 64, 62
2, 199221, Control_c, 0, 64, 61
2, 199240, Control_c, 0, 64, 60
2, 199261, Control_c, 0, 64, 60
2, 199280, Control_c, 0, 64, 59
2, 199290, Note_on_c, 0, 73, 72
2, 199300, Control_c, 0, 64, 57
2, 199305, Note_on_c, 0, 59, 43
2, 199317, Note_on_c, 0, 68, 54
2, 199318, Control_c, 0, 64, 56
2, 199329, Note_on_c, 0, 52, 43
2, 199331, Note_on_c, 0, 66, 0
2, 199338, Control_c, 0, 64, 55
2, 199357, Control_c, 0, 64, 52
2, 199376, Control_c, 0, 64, 49
2, 199395, Control_c, 0, 64, 47
2, 199510, Control_c, 0, 64, 49
2, 199511, Note_on_c, 0, 52, 0
2, 199529, Control_c, 0, 64, 50
2, 199529, Note_on_c, 0, 59, 0
2, 199702, Control_c, 0, 64, 50
2, 199743, Note_on_c, 0, 70, 67
2, 199779, Control_c, 0, 64, 51
2, 199781, Note_on_c, 0, 52, 50
2, 199817, Control_c, 0, 64, 51
2, 199836, Control_c, 0, 64, 52
2, 199855, Control_c, 0, 64, 53
2, 199874, Control_c, 0, 64, 55
2, 199894, Control_c, 0, 64, 56
2, 199913, Control_c, 0, 64, 57
2, 199951, Control_c, 0, 64, 57
2, 199971, Control_c, 0, 64, 58
2, 199980, Note_on_c, 0, 71, 67
2, 200048, Control_c, 0, 64, 57
2, 200054, Note_on_c, 0, 68, 0
2, 200064, Note_on_c, 0, 52, 0
2, 200066, Control_c, 0, 64, 57
2, 200077, Note_on_c, 0, 70, 0
2, 200085, Control_c, 0, 64, 56
2, 200162, Control_c, 0, 64, 55
2, 200266, Note_on_c, 0, 54, 40
2, 200268, Note_on_c, 0, 64, 55
2, 200281, Note_on_c, 0, 58, 50
2, 200308, Note_on_c, 0, 71, 0
2, 200317, Control_c, 0, 64, 55
2, 200336, Control_c, 0, 64, 52
2, 200353, Control_c, 0, 64, 46
2, 200373, Control_c, 0, 64, 36
2, 200392, Control_c, 0, 64, 25
2, 200411, Control_c, 0, 64, 21
2, 200488, Control_c, 0, 64, 22
2, 200500, Note_on_c, 0, 58, 0
2, 200507, Control_c, 0, 64, 30
2, 200514, Note_on_c, 0, 54, 0
2, 200527, Control_c, 0, 64, 39
2, 200545, Control_c, 0, 64, 43
2, 200564, Control_c, 0, 64, 44
2, 200584, Control_c, 0, 64, 44
2, 200603, Control_c, 0, 64, 45
2, 200622, Control_c, 0, 64, 47
2, 200736, Note_on_c, 0, 54, 54
2, 200776, Control_c, 0, 64, 48
2, 200795, Control_c, 0, 64, 51
2, 200815, Control_c, 0, 64, 56
2, 200833, Control_c, 0, 64, 59
2, 200853, Control_c, 0, 64, 61
2, 200872, Control_c, 0, 64, 62
2, 200891, Control_c, 0, 64, 62
2, 200910, Control_c, 0, 64, 63
2, 200930, Control_c, 0, 64, 64
2, 200941, Note_on_c, 0, 54, 0
2, 200949, Control_c, 0, 64, 64
2, 201025, Control_c, 0, 64, 64
2, 201064, Control_c, 0, 64, 63
2, 201102, Control_c, 0, 64, 62
2, 201141, Control_c, 0, 64, 62
2, 201180, Control_c, 0, 64, 62
2, 201212, Note_on_c, 0, 59, 54
2, 201219, Control_c, 0, 64, 62
2, 201222, Note_on_c, 0, 47, 47
2, 201237, Control_c, 0, 64, 56
2, 201257, Control_c, 0, 64, 37
2, 201276, Control_c, 0, 64, 0
2, 201353, Control_c, 0, 64, 25
2, 201372, Control_c, 0, 64, 54
2, 201391, Control_c, 0, 64, 62
2, 201411, Control_c, 0, 64, 63
2, 201468, Control_c, 0, 64, 63
2, 201525, Control_c, 0, 64, 63
2, 201640, Control_c, 0, 64, 63
2, 201660, Control_c, 0, 64, 64
2, 201674, Note_on_c, 0, 64, 0
2, 201677, Note_on_c, 0, 63, 56
2, 201699, Control_c, 0, 64, 63
2, 201700, Note_on_c, 0, 46, 60
2, 201711, Note_on_c, 0, 59, 0
2, 201717, Control_c, 0, 64, 56
2, 201728, Note_on_c, 0, 73, 0
2, 201730, Note_on_c, 0, 47, 0
2, 201737, Control_c, 0, 64, 39
2, 201756, Control_c, 0, 64, 26
2, 201794, Control_c, 0, 64, 38
2, 201814, Control_c, 0, 64, 56
2, 201833, Control_c, 0, 64, 62
2, 201852, Control_c, 0, 64, 63
2, 201891, Control_c, 0, 64, 64
2, 201909, Note_on_c, 0, 61, 62
2, 201910, Control_c, 0, 64, 64
2, 201913, Note_on_c, 0, 63, 0
2, 202025, Control_c, 0, 64, 64
2, 202063, Control_c, 0, 64, 63
2, 202099, Note_on_c, 0, 61, 0
2, 202102, Control_c, 0, 64, 63
2, 202120, Control_c, 0, 64, 62
2, 202140, Control_c, 0, 64, 61
2, 202159, Control_c, 0, 64, 60
2, 202165, Note_on_c, 0, 44, 51
2, 202168, Note_on_c, 0, 71, 61
2, 202176, Note_on_c, 0, 63, 37
2, 202177, Note_on_c, 0, 46, 0
2, 202179, Control_c, 0, 64, 58
2, 202197, Control_c, 0, 64, 55
2, 202217, Control_c, 0, 64, 53
2, 202236, Control_c, 0, 64, 52
2, 202255, Control_c, 0, 64, 51
2, 202274, Control_c, 0, 64, 50
2, 202293, Control_c, 0, 64, 49
2, 202312, Control_c, 0, 64, 49
2, 202350, Control_c, 0, 64, 48
2, 202389, Control_c, 0, 64, 48
2, 202390, Note_on_c, 0, 63, 0
2, 202398, Note_on_c, 0, 59, 56
2, 202408, Control_c, 0, 64, 47
2, 202484, Control_c, 0, 64, 48
2, 202504, Control_c, 0, 64, 48
2, 202523, Control_c, 0, 64, 49
2, 202542, Control_c, 0, 64, 49
2, 202561, Control_c, 0, 64, 50
2, 202581, Control_c, 0, 64, 51
2, 202600, Control_c, 0, 64, 52
2, 202619, Control_c, 0, 64, 52
2, 202636, Note_on_c, 0, 65, 52
2, 202638, Control_c, 0, 64, 54
2, 202655, Note_on_c, 0, 59, 0
2, 202658, Control_c, 0, 64, 55
2, 202668, Note_on_c, 0, 44, 0
2, 202673, Note_on_c, 0, 49, 53
2, 202676, Control_c, 0, 64, 56
2, 202696, Control_c, 0, 64, 57
2, 202753, Control_c, 0, 64, 57
2, 203080, Control_c, 0, 64, 58
2, 203101, Control_c, 0, 64, 58
2, 203120, Control_c, 0, 64, 58
2, 203122, Note_on_c, 0, 66, 54
2, 203129, Note_on_c, 0, 42, 44
2, 203134, Note_on_c, 0, 65, 0
2, 203140, Control_c, 0, 64, 54
2, 203158, Control_c, 0, 64, 46
2, 203165, Note_on_c, 0, 49, 0
2, 203178, Control_c, 0, 64, 36
2, 203197, Control_c, 0, 64, 34
2, 203234, Control_c, 0, 64, 38
2, 203252, Control_c, 0, 64, 47
2, 203271, Control_c, 0, 64, 54
2, 203291, Control_c, 0, 64, 57
2, 203309, Control_c, 0, 64, 58
2, 203329, Control_c, 0, 64, 59
2, 203425, Control_c, 0, 64, 58
2, 203520, Control_c, 0, 64, 59
2, 203559, Control_c, 0, 64, 59
2, 203587, Note_on_c, 0, 70, 62
2, 203595, Note_on_c, 0, 40, 41
2, 203597, Control_c, 0, 64, 57
2, 203610, Note_on_c, 0, 71, 0
2, 203615, Note_on_c, 0, 42, 0
2, 203617, Control_c, 0, 64, 50
2, 203635, Control_c, 0, 64, 35
2, 203655, Control_c, 0, 64, 19
2, 203674, Control_c, 0, 64, 17
2, 203712, Control_c, 0, 64, 31
2, 203732, Control_c, 0, 64, 46
2, 203751, Control_c, 0, 64, 55
2, 203771, Control_c, 0, 64, 57
2, 203771, Note_on_c, 0, 66, 0
2, 203789, Control_c, 0, 64, 58
2, 203800, Note_on_c, 0, 68, 68
2, 203809, Control_c, 0, 64, 58
2, 203828, Control_c, 0, 64, 59
2, 203846, Control_c, 0, 64, 59
2, 203846, Note_on_c, 0, 70, 0
2, 204046, Note_on_c, 0, 39, 54
2, 204054, Note_on_c, 0, 70, 67
2, 204081, Control_c, 0, 64, 59
2, 204096, Note_on_c, 0, 40, 0
2, 204101, Control_c, 0, 64, 58
2, 204119, Control_c, 0, 64, 55
2, 204139, Control_c, 0, 64, 53
2, 204148, Note_on_c, 0, 68, 0
2, 204158, Control_c, 0, 64, 50
2, 204177, Control_c, 0, 64, 48
2, 204196, Control_c, 0, 64, 48
2, 204253, Control_c, 0, 64, 48
2, 204264, Note_on_c, 0, 66, 68
2, 204273, Control_c, 0, 64, 50
2, 204292, Control_c, 0, 64, 51
2, 204312, Control_c, 0, 64, 52
2, 204323, Note_on_c, 0, 70, 0
2, 204330, Control_c, 0, 64, 53
2, 204350, Control_c, 0, 64, 54
2, 204369, Control_c, 0, 64, 55
2, 204388, Control_c, 0, 64, 56
2, 204407, Control_c, 0, 64, 57
2, 204427, Control_c, 0, 64, 58
2, 204484, Control_c, 0, 64, 57
2, 204504, Control_c, 0, 64, 52
2, 204517, Note_on_c, 0, 72, 75
2, 204521, Note_on_c, 0, 44, 62
2, 204523, Control_c, 0, 64, 43
2, 204539, Note_on_c, 0, 39, 0
2, 204542, Control_c, 0, 64, 22
2, 204561, Control_c, 0, 64, 0
2, 204619, Control_c, 0, 64, 24
2, 204638, Control_c, 0, 64, 46
2, 204657, Control_c, 0, 64, 59
2, 204676, Control_c, 0, 64, 63
2, 204695, Control_c, 0, 64, 64
2, 204753, Control_c, 0, 64, 64
2, 204772, Control_c, 0, 64, 65
2, 204868, Control_c, 0, 64, 64
2, 204907, Control_c, 0, 64, 64
2, 204945, Control_c, 0, 64, 63
2, 204964, Control_c, 0, 64, 63
2, 204984, Control_c, 0, 64, 62
2, 205016, Note_on_c, 0, 44, 0
2, 205020, Note_on_c, 0, 73, 67
2, 205024, Control_c, 0, 64, 62
2, 205043, Control_c, 0, 64, 61
2, 205061, Note_on_c, 0, 49, 48
2, 205063, Control_c, 0, 64, 58
2, 205078, Note_on_c, 0, 72, 0
2, 205081, Control_c, 0, 64, 46
2, 205101, Control_c, 0, 64, 22
2, 205120, Control_c, 0, 64, 0
2, 205213, Control_c, 0, 64, 24
2, 205233, Control_c, 0, 64, 48
2, 205252, Control_c, 0, 64, 58
2, 205272, Control_c, 0, 64, 59
2, 205329, Control_c, 0, 64, 59
2, 205348, Control_c, 0, 64, 60
2, 205430, Note_on_c, 0, 66, 0
2, 205500, Note_on_c, 0, 64, 52
2, 205521, Control_c, 0, 64, 60
2, 205534, Note_on_c, 0, 47, 45
2, 205559, Control_c, 0, 64, 60
2, 205578, Control_c, 0, 64, 57
2, 205598, Control_c, 0, 64, 49
2, 205599, Note_on_c, 0, 49, 0
2, 205617, Control_c, 0, 64, 36
2, 205636, Control_c, 0, 64, 30
2, 205655, Control_c, 0, 64, 31
2, 205675, Control_c, 0, 64, 43
2, 205693, Control_c, 0, 64, 55
2, 205713, Control_c, 0, 64, 58
2, 205730, Note_on_c, 0, 64, 0
2, 205732, Control_c, 0, 64, 59
2, 205738, Note_on_c, 0, 63, 64
2, 205752, Control_c, 0, 64, 60
2, 205770, Control_c, 0, 64, 61
2, 205809, Control_c, 0, 64, 61
2, 205828, Control_c, 0, 64, 61
2, 205944, Control_c, 0, 64, 61
2, 205944, Note_on_c, 0, 63, 0
2, 205950, Note_on_c, 0, 64, 65
2, 205970, Note_on_c, 0, 46, 60
2, 205981, Note_on_c, 0, 47, 0
2, 206000, Control_c, 0, 64, 59
2, 206020, Control_c, 0, 64, 49
2, 206038, Control_c, 0, 64, 29
2, 206057, Control_c, 0, 64, 17
2, 206077, Control_c, 0, 64, 15
2, 206096, Control_c, 0, 64, 32
2, 206115, Control_c, 0, 64, 54
2, 206135, Control_c, 0, 64, 62
2, 206164, Note_on_c, 0, 64, 0
2, 206176, Note_on_c, 0, 61, 70
2, 206193, Control_c, 0, 64, 62
2, 206212, Control_c, 0, 64, 63
2, 206270, Control_c, 0, 64, 62
2, 206327, Control_c, 0, 64, 62
2, 206374, Note_on_c, 0, 46, 0
2, 206385, Control_c, 0, 64, 62
2, 206432, Note_on_c, 0, 67, 61
2, 206443, Control_c, 0, 64, 62
2, 206444, Note_on_c, 0, 51, 51
2, 206462, Control_c, 0, 64, 60
2, 206481, Control_c, 0, 64, 56
2, 206487, Note_on_c, 0, 61, 0
2, 206501, Control_c, 0, 64, 44
2, 206519, Control_c, 0, 64, 20
2, 206538, Control_c, 0, 64, 0
2, 206596, Control_c, 0, 64, 18
2, 206615, Control_c, 0, 64, 46
2, 206635, Control_c, 0, 64, 57
2, 206653, Control_c, 0, 64, 59
2, 206692, Control_c, 0, 64, 60
2, 206712, Control_c, 0, 64, 61
2, 206730, Control_c, 0, 64, 61
2, 206889, Note_on_c, 0, 68, 66
2, 206897, Note_on_c, 0, 67, 0
2, 206908, Note_on_c, 0, 44, 48
2, 206923, Control_c, 0, 64, 61
2, 206947, Note_on_c, 0, 51, 0
2, 206962, Control_c, 0, 64, 59
2, 206982, Control_c, 0, 64, 55
2, 207000, Control_c, 0, 64, 46
2, 207020, Control_c, 0, 64, 32
2, 207039, Control_c, 0, 64, 20
2, 207055, Control_c, 0, 64, 19
2, 207074, Control_c, 0, 64, 25
2, 207093, Control_c, 0, 64, 44
2, 207112, Control_c, 0, 64, 54
2, 207131, Control_c, 0, 64, 57
2, 207150, Control_c, 0, 64, 59
2, 207170, Control_c, 0, 64, 60
2, 207189, Control_c, 0, 64, 61
2, 207361, Control_c, 0, 64, 62
2, 207394, Note_on_c, 0, 71, 66
2, 207400, Control_c, 0, 64, 61
2, 207412, Note_on_c, 0, 42, 55
2, 207419, Control_c, 0, 64, 57
2, 207438, Control_c, 0, 64, 48
2, 207458, Control_c, 0, 64, 37
2, 207476, Control_c, 0, 64, 33
2, 207485, Note_on_c, 0, 73, 0
2, 207486, Note_on_c, 0, 44, 0
2, 207496, Control_c, 0, 64, 34
2, 207515, Control_c, 0, 64, 42
2, 207535, Control_c, 0, 64, 51
2, 207553, Control_c, 0, 64, 54
2, 207573, Control_c, 0, 64, 56
2, 207592, Control_c, 0, 64, 58
2, 207611, Control_c, 0, 64, 59
2, 207613, Note_on_c, 0, 70, 79
2, 207630, Control_c, 0, 64, 60
2, 207637, Note_on_c, 0, 68, 0
2, 207642, Note_on_c, 0, 71, 0
2, 207784, Control_c, 0, 64, 60
2, 207822, Control_c, 0, 64, 59
2, 207841, Control_c, 0, 64, 53
2, 207842, Note_on_c, 0, 42, 0
2, 207851, Note_on_c, 0, 71, 75
2, 207861, Control_c, 0, 64, 39
2, 207870, Note_on_c, 0, 41, 62
2, 207880, Control_c, 0, 64, 0
2, 207956, Control_c, 0, 64, 21
2, 207956, Note_on_c, 0, 70, 0
2, 207976, Control_c, 0, 64, 38
2, 207995, Control_c, 0, 64, 51
2, 208015, Control_c, 0, 64, 60
2, 208033, Control_c, 0, 64, 62
2, 208053, Control_c, 0, 64, 62
2, 208085, Note_on_c, 0, 68, 78
2, 208091, Control_c, 0, 64, 62
2, 208110, Control_c, 0, 64, 63
2, 208115, Note_on_c, 0, 71, 0
2, 208130, Control_c, 0, 64, 64
2, 208206, Control_c, 0, 64, 65
2, 208225, Control_c, 0, 64, 66
2, 208244, Control_c, 0, 64, 66
2, 208264, Control_c, 0, 64, 67
2, 208289, Note_on_c, 0, 46, 51
2, 208316, Note_on_c, 0, 41, 0
2, 208341, Control_c, 0, 64, 66
2, 208360, Control_c, 0, 64, 63
2, 208379, Control_c, 0, 64, 47
2, 208386, Note_on_c, 0, 74, 73
2, 208398, Control_c, 0, 64, 13
2, 208418, Control_c, 0, 64, 0
2, 208456, Control_c, 0, 64, 18
2, 208475, Control_c, 0, 64, 58
2, 208495, Control_c, 0, 64, 66
2, 208513, Control_c, 0, 64, 69
2, 208533, Control_c, 0, 64, 71
2, 208571, Control_c, 0, 64, 71
2, 208590, Control_c, 0, 64, 72
2, 208610, Control_c, 0, 64, 73
2, 208617, Note_on_c, 0, 74, 0
2, 208629, Control_c, 0, 64, 74
2, 208647, Control_c, 0, 64, 75
2, 208801, Control_c, 0, 64, 74
2, 208859, Control_c, 0, 64, 74
2, 208878, Control_c, 0, 64, 73
2, 208898, Control_c, 0, 64, 72
2, 208908, Note_on_c, 0, 75, 77
2, 208916, Control_c, 0, 64, 71
2, 208936, Control_c, 0, 64, 69
2, 208936, Note_on_c, 0, 39, 45
2, 208955, Control_c, 0, 64, 67
2, 208975, Control_c, 0, 64, 66
2, 208993, Control_c, 0, 64, 64
2, 208994, Note_on_c, 0, 46, 0
2, 209013, Control_c, 0, 64, 61
2, 209032, Control_c, 0, 64, 59
2, 209051, Control_c, 0, 64, 56
2, 209070, Control_c, 0, 64, 51
2, 209090, Control_c, 0, 64, 49
2, 209109, Control_c, 0, 64, 49
2, 209127, Control_c, 0, 64, 49
2, 209147, Control_c, 0, 64, 50
2, 209185, Control_c, 0, 64, 51
2, 209204, Control_c, 0, 64, 54
2, 209224, Control_c, 0, 64, 56
2, 209243, Control_c, 0, 64, 56
2, 209301, Control_c, 0, 64, 57
2, 209320, Control_c, 0, 64, 59
2, 209339, Control_c, 0, 64, 60
2, 209374, Note_on_c, 0, 73, 68
2, 209378, Control_c, 0, 64, 61
2, 209396, Control_c, 0, 64, 62
2, 209416, Control_c, 0, 64, 64
2, 209435, Control_c, 0, 64, 64
2, 209444, Note_on_c, 0, 68, 0
2, 209595, Note_on_c, 0, 71, 73
2, 209634, Note_on_c, 0, 75, 0
2, 209665, Control_c, 0, 64, 64
2, 209704, Control_c, 0, 64, 63
2, 209730, Note_on_c, 0, 73, 0
2, 209820, Control_c, 0, 64, 63
2, 209839, Control_c, 0, 64, 61
2, 209859, Control_c, 0, 64, 56
2, 209860, Note_on_c, 0, 70, 72
2, 209877, Control_c, 0, 64, 47
2, 209879, Note_on_c, 0, 39, 0
2, 209893, Note_on_c, 0, 66, 49
2, 209897, Control_c, 0, 64, 42
2, 209916, Note_on_c, 0, 71, 0
2, 209936, Control_c, 0, 64, 44
2, 209954, Control_c, 0, 64, 49
2, 209974, Control_c, 0, 64, 53
2, 209993, Control_c, 0, 64, 55
2, 210012, Control_c, 0, 64, 58
2, 210031, Control_c, 0, 64, 60
2, 210051, Control_c, 0, 64, 61
2, 210108, Control_c, 0, 64, 61
2, 210127, Control_c, 0, 64, 62
2, 210204, Control_c, 0, 64, 62
2, 210223, Control_c, 0, 64, 63
2, 210242, Control_c, 0, 64, 64
2, 210262, Control_c, 0, 64, 63
2, 210280, Control_c, 0, 64, 59
2, 210300, Control_c, 0, 64, 50
2, 210309, Note_on_c, 0, 51, 43
2, 210310, Note_on_c, 0, 71, 61
2, 210319, Control_c, 0, 64, 44
2, 210339, Control_c, 0, 64, 44
2, 210357, Control_c, 0, 64, 52
2, 210377, Control_c, 0, 64, 61
2, 210396, Control_c, 0, 64, 64
2, 210413, Note_on_c, 0, 70, 0
2, 210416, Control_c, 0, 64, 64
2, 210434, Control_c, 0, 64, 65
2, 210473, Control_c, 0, 64, 65
2, 210523, Note_on_c, 0, 66, 0
2, 210569, Control_c, 0, 64, 65
2, 210626, Control_c, 0, 64, 64
2, 210633, Note_on_c, 0, 51, 0
2, 210665, Control_c, 0, 64, 64
2, 210703, Control_c, 0, 64, 63
2, 210722, Control_c, 0, 64, 63
2, 210742, Control_c, 0, 64, 62
2, 210760, Control_c, 0, 64, 62
2, 210780, Control_c, 0, 64, 61
2, 210819, Control_c, 0, 64, 60
2, 210820, Note_on_c, 0, 73, 65
2, 210822, Note_on_c, 0, 52, 47
2, 210824, Note_on_c, 0, 64, 49
2, 210857, Control_c, 0, 64, 60
2, 210885, Note_on_c, 0, 71, 0
2, 210896, Control_c, 0, 64, 59
2, 210914, Control_c, 0, 64, 59
2, 210935, Control_c, 0, 64, 58
2, 210954, Control_c, 0, 64, 56
2, 210973, Control_c, 0, 64, 55
2, 210992, Control_c, 0, 64, 55
2, 211049, Note_on_c, 0, 52, 0
2, 211050, Control_c, 0, 64, 55
2, 211089, Control_c, 0, 64, 56
2, 211107, Control_c, 0, 64, 56
2, 211327, Note_on_c, 0, 52, 55
2, 211335, Note_on_c, 0, 73, 0
2, 211395, Control_c, 0, 64, 56
2, 211434, Control_c, 0, 64, 55
2, 211549, Control_c, 0, 64, 55
2, 211586, Note_on_c, 0, 52, 0
2, 211645, Control_c, 0, 64, 54
2, 211760, Control_c, 0, 64, 54
2, 211780, Control_c, 0, 64, 52
2, 211783, Note_on_c, 0, 70, 68
2, 211798, Control_c, 0, 64, 49
2, 211816, Note_on_c, 0, 54, 46
2, 211818, Control_c, 0, 64, 46
2, 211837, Control_c, 0, 64, 46
2, 211892, Control_c, 0, 64, 47
2, 211911, Control_c, 0, 64, 48
2, 211931, Control_c, 0, 64, 48
2, 211949, Control_c, 0, 64, 49
2, 211969, Control_c, 0, 64, 50
2, 211988, Control_c, 0, 64, 51
2, 212045, Control_c, 0, 64, 52
2, 212047, Note_on_c, 0, 54, 0
2, 212065, Control_c, 0, 64, 53
2, 212083, Control_c, 0, 64, 54
2, 212180, Control_c, 0, 64, 55
2, 212238, Note_on_c, 0, 70, 0
2, 212262, Note_on_c, 0, 54, 49
2, 212275, Control_c, 0, 64, 56
2, 212295, Control_c, 0, 64, 58
2, 212314, Control_c, 0, 64, 60
2, 212334, Control_c, 0, 64, 61
2, 212352, Control_c, 0, 64, 62
2, 212372, Control_c, 0, 64, 62
2, 212411, Control_c, 0, 64, 63
2, 212468, Control_c, 0, 64, 63
2, 212583, Control_c, 0, 64, 63
2, 212593, Note_on_c, 0, 54, 0
2, 212602, Control_c, 0, 64, 62
2, 212621, Control_c, 0, 64, 62
2, 212640, Control_c, 0, 64, 61
2, 212679, Control_c, 0, 64, 61
2, 212737, Control_c, 0, 64, 60
2, 212771, Note_on_c, 0, 71, 59
2, 212775, Control_c, 0, 64, 60
2, 212781, Note_on_c, 0, 47, 37
2, 212794, Control_c, 0, 64, 59
2, 212814, Control_c, 0, 64, 57
2, 212832, Control_c, 0, 64, 56
2, 212851, Control_c, 0, 64, 53
2, 212870, Control_c, 0, 64, 39
2, 212890, Control_c, 0, 64, 0
2, 213042, Control_c, 0, 64, 19
2, 213062, Control_c, 0, 64, 46
2, 213081, Control_c, 0, 64, 55
2, 213100, Control_c, 0, 64, 58
2, 213119, Control_c, 0, 64, 59
2, 213139, Control_c, 0, 64, 59
2, 213158, Control_c, 0, 64, 60
2, 213177, Control_c, 0, 64, 61
2, 213196, Control_c, 0, 64, 62
2, 213211, Note_on_c, 0, 70, 64
2, 213235, Control_c, 0, 64, 62
2, 213273, Control_c, 0, 64, 63
2, 213286, Note_on_c, 0, 71, 0
2, 213293, Control_c, 0, 64, 63
2, 213319, Note_on_c, 0, 64, 0
2, 213331, Control_c, 0, 64, 64
2, 213445, Note_on_c, 0, 68, 65
2, 213514, Note_on_c, 0, 47, 0
2, 213519, Note_on_c, 0, 70, 0
2, 213580, Control_c, 0, 64, 63
2, 213599, Control_c, 0, 64, 63
2, 213619, Control_c, 0, 64, 62
2, 213638, Control_c, 0, 64, 62
2, 213657, Control_c, 0, 64, 61
2, 213676, Control_c, 0, 64, 60
2, 213696, Control_c, 0, 64, 60
2, 213713, Note_on_c, 0, 67, 57
2, 213715, Control_c, 0, 64, 59
2, 213733, Note_on_c, 0, 63, 48
2, 213734, Control_c, 0, 64, 59
2, 213747, Note_on_c, 0, 68, 0
2, 213753, Control_c, 0, 64, 57
2, 213773, Control_c, 0, 64, 56
2, 213791, Control_c, 0, 64, 55
2, 213811, Control_c, 0, 64, 54
2, 213830, Control_c, 0, 64, 53
2, 213850, Control_c, 0, 64, 51
2, 213868, Control_c, 0, 64, 48
2, 213887, Control_c, 0, 64, 47
2, 214060, Control_c, 0, 64, 48
2, 214079, Control_c, 0, 64, 50
2, 214099, Control_c, 0, 64, 50
2, 214118, Control_c, 0, 64, 51
2, 214137, Control_c, 0, 64, 52
2, 214156, Control_c, 0, 64, 53
2, 214176, Control_c, 0, 64, 54
2, 214180, Note_on_c, 0, 68, 59
2, 214195, Control_c, 0, 64, 55
2, 214203, Note_on_c, 0, 47, 42
2, 214233, Control_c, 0, 64, 55
2, 214252, Note_on_c, 0, 67, 0
2, 214253, Control_c, 0, 64, 56
2, 214271, Control_c, 0, 64, 57
2, 214341, Note_on_c, 0, 63, 0
2, 214367, Control_c, 0, 64, 56
2, 214425, Control_c, 0, 64, 56
2, 214444, Control_c, 0, 64, 55
2, 214482, Control_c, 0, 64, 55
2, 214564, Note_on_c, 0, 47, 0
2, 214618, Control_c, 0, 64, 54
2, 214637, Control_c, 0, 64, 53
2, 214657, Control_c, 0, 64, 52
2, 214665, Note_on_c, 0, 70, 61
2, 214669, Note_on_c, 0, 61, 42
2, 214675, Control_c, 0, 64, 50
2, 214695, Control_c, 0, 64, 48
2, 214695, Note_on_c, 0, 49, 42
2, 214714, Control_c, 0, 64, 47
2, 214720, Note_on_c, 0, 68, 0
2, 214734, Control_c, 0, 64, 46
2, 214847, Control_c, 0, 64, 47
2, 214880, Note_on_c, 0, 49, 0
2, 214885, Control_c, 0, 64, 48
2, 214905, Control_c, 0, 64, 48
2, 214924, Control_c, 0, 64, 49
2, 214962, Control_c, 0, 64, 49
2, 215001, Control_c, 0, 64, 50
2, 215020, Control_c, 0, 64, 50
2, 215059, Control_c, 0, 64, 51
2, 215099, Note_on_c, 0, 70, 0
2, 215116, Control_c, 0, 64, 51
2, 215145, Note_on_c, 0, 49, 54
2, 215375, Note_on_c, 0, 49, 0
2, 215629, Note_on_c, 0, 67, 52
2, 215637, Control_c, 0, 64, 49
2, 215652, Note_on_c, 0, 51, 39
2, 215657, Control_c, 0, 64, 47
2, 215676, Control_c, 0, 64, 46
2, 215714, Control_c, 0, 64, 46
2, 215773, Control_c, 0, 64, 46
2, 215792, Control_c, 0, 64, 50
2, 215812, Control_c, 0, 64, 52
2, 215830, Control_c, 0, 64, 52
2, 215850, Control_c, 0, 64, 53
2, 215869, Control_c, 0, 64, 54
2, 215888, Control_c, 0, 64, 57
2, 215896, Note_on_c, 0, 51, 0
2, 215907, Control_c, 0, 64, 58
2, 216113, Note_on_c, 0, 51, 47
2, 216115, Note_on_c, 0, 67, 0
2, 216157, Control_c, 0, 64, 58
2, 216234, Control_c, 0, 64, 58
2, 216272, Control_c, 0, 64, 59
2, 216368, Control_c, 0, 64, 59
2, 216385, Note_on_c, 0, 51, 0
2, 216445, Control_c, 0, 64, 59
2, 216598, Control_c, 0, 64, 57
2, 216611, Note_on_c, 0, 68, 61
2, 216618, Control_c, 0, 64, 46
2, 216636, Note_on_c, 0, 44, 45
2, 216637, Control_c, 0, 64, 0
2, 216731, Control_c, 0, 64, 23
2, 216750, Control_c, 0, 64, 46
2, 216770, Control_c, 0, 64, 60
2, 216789, Control_c, 0, 64, 62
2, 216807, Control_c, 0, 64, 63
2, 216837, Note_on_c, 0, 61, 0
2, 216846, Control_c, 0, 64, 63
2, 216865, Control_c, 0, 64, 64
2, 216884, Control_c, 0, 64, 65
2, 216904, Control_c, 0, 64, 65
2, 216961, Control_c, 0, 64, 66
2, 217000, Control_c, 0, 64, 66
2, 217019, Control_c, 0, 64, 67
2, 217038, Control_c, 0, 64, 67
2, 217058, Control_c, 0, 64, 68
2, 217088, Note_on_c, 0, 46, 48
2, 217090, Note_on_c, 0, 44, 0
2, 217090, Note_on_c, 0, 59, 53
2, 217096, Control_c, 0, 64, 68
2, 217115, Control_c, 0, 64, 69
2, 217135, Control_c, 0, 64, 69
2, 217192, Control_c, 0, 64, 70
2, 217211, Control_c, 0, 64, 70
2, 217250, Control_c, 0, 64, 71
2, 217293, Note_on_c, 0, 46, 0
2, 217313, Note_on_c, 0, 61, 59
2, 217384, Control_c, 0, 64, 70
2, 217384, Note_on_c, 0, 59, 0
2, 217441, Control_c, 0, 64, 70
2, 217461, Control_c, 0, 64, 69
2, 217480, Control_c, 0, 64, 68
2, 217499, Control_c, 0, 64, 68
2, 217518, Control_c, 0, 64, 67
2, 217538, Control_c, 0, 64, 66
2, 217556, Control_c, 0, 64, 66
2, 217595, Note_on_c, 0, 56, 67
2, 217605, Note_on_c, 0, 63, 54
2, 217613, Note_on_c, 0, 61, 0
2, 217626, Note_on_c, 0, 47, 51
2, 217649, Control_c, 0, 64, 64
2, 217669, Control_c, 0, 64, 57
2, 217688, Control_c, 0, 64, 42
2, 217707, Control_c, 0, 64, 22
2, 217726, Control_c, 0, 64, 0
2, 217765, Control_c, 0, 64, 19
2, 217784, Control_c, 0, 64, 39
2, 217801, Control_c, 0, 64, 53
2, 217820, Control_c, 0, 64, 60
2, 217839, Control_c, 0, 64, 62
2, 217858, Control_c, 0, 64, 63
2, 217877, Control_c, 0, 64, 63
2, 217897, Control_c, 0, 64, 64
2, 217915, Control_c, 0, 64, 64
2, 217973, Control_c, 0, 64, 65
2, 218012, Control_c, 0, 64, 66
2, 218031, Control_c, 0, 64, 66
2, 218050, Control_c, 0, 64, 68
2, 218058, Note_on_c, 0, 47, 0
2, 218063, Note_on_c, 0, 61, 49
2, 218069, Control_c, 0, 64, 69
2, 218072, Note_on_c, 0, 49, 57
2, 218089, Control_c, 0, 64, 70
2, 218107, Control_c, 0, 64, 71
2, 218127, Control_c, 0, 64, 72
2, 218152, Note_on_c, 0, 63, 0
2, 218162, Note_on_c, 0, 49, 0
2, 218281, Control_c, 0, 64, 72
2, 218296, Note_on_c, 0, 61, 0
2, 218297, Note_on_c, 0, 59, 59
2, 218319, Control_c, 0, 64, 72
2, 218338, Control_c, 0, 64, 71
2, 218338, Note_on_c, 0, 56, 0
2, 218377, Control_c, 0, 64, 70
2, 218392, Note_on_c, 0, 68, 0
2, 218395, Control_c, 0, 64, 70
2, 218415, Control_c, 0, 64, 69
2, 218494, Control_c, 0, 64, 69
2, 218545, Note_on_c, 0, 55, 64
2, 218564, Note_on_c, 0, 58, 61
2, 218574, Note_on_c, 0, 51, 53
2, 218589, Control_c, 0, 64, 66
2, 218609, Control_c, 0, 64, 57
2, 218619, Note_on_c, 0, 59, 0
2, 218628, Control_c, 0, 64, 19
2, 218648, Control_c, 0, 64, 0
2, 218705, Control_c, 0, 64, 41
2, 218724, Control_c, 0, 64, 62
2, 218743, Control_c, 0, 64, 64
2, 218782, Control_c, 0, 64, 64
2, 218801, Control_c, 0, 64, 65
2, 218823, Note_on_c, 0, 51, 0
2, 218880, Note_on_c, 0, 58, 0
2, 218954, Control_c, 0, 64, 65
2, 218974, Control_c, 0, 64, 66
2, 218992, Control_c, 0, 64, 65
2, 219012, Control_c, 0, 64, 61
2, 219012, Note_on_c, 0, 56, 67
2, 219016, Note_on_c, 0, 55, 0
2, 219025, Note_on_c, 0, 60, 56
2, 219028, Note_on_c, 0, 54, 60
2, 219031, Control_c, 0, 64, 50
2, 219034, Note_on_c, 0, 68, 58
2, 219051, Control_c, 0, 64, 34
2, 219069, Control_c, 0, 64, 28
2, 219108, Control_c, 0, 64, 41
2, 219128, Control_c, 0, 64, 53
2, 219146, Control_c, 0, 64, 60
2, 219166, Control_c, 0, 64, 62
2, 219185, Control_c, 0, 64, 63
2, 219204, Control_c, 0, 64, 63
2, 219223, Control_c, 0, 64, 64
2, 219241, Note_on_c, 0, 58, 69
2, 219243, Control_c, 0, 64, 65
2, 219247, Note_on_c, 0, 61, 65
2, 219272, Note_on_c, 0, 60, 0
2, 219276, Note_on_c, 0, 54, 0
2, 219281, Control_c, 0, 64, 64
2, 219291, Note_on_c, 0, 56, 0
2, 219396, Control_c, 0, 64, 65
2, 219421, Control_c, 0, 64, 66
2, 219438, Note_on_c, 0, 58, 0
2, 219441, Control_c, 0, 64, 67
2, 219459, Control_c, 0, 64, 66
2, 219478, Control_c, 0, 64, 59
2, 219484, Note_on_c, 0, 60, 71
2, 219498, Control_c, 0, 64, 31
2, 219501, Note_on_c, 0, 63, 64
2, 219517, Control_c, 0, 64, 0
2, 219555, Control_c, 0, 64, 27
2, 219567, Control_c, 0, 64, 59
2, 219577, Note_on_c, 0, 61, 0
2, 219586, Control_c, 0, 64, 66
2, 219604, Note_on_c, 0, 68, 0
2, 219606, Control_c, 0, 64, 68
2, 219624, Control_c, 0, 64, 68
2, 219644, Control_c, 0, 64, 69
2, 219663, Control_c, 0, 64, 69
2, 219685, Control_c, 0, 64, 70
2, 219701, Note_on_c, 0, 63, 0
2, 219711, Note_on_c, 0, 56, 62
2, 219743, Control_c, 0, 64, 69
2, 219743, Note_on_c, 0, 60, 0
2, 219781, Control_c, 0, 64, 69
2, 219800, Control_c, 0, 64, 68
2, 219838, Control_c, 0, 64, 69
2, 219858, Control_c, 0, 64, 70
2, 219915, Control_c, 0, 64, 69
2, 219935, Control_c, 0, 64, 63
2, 219938, Note_on_c, 0, 58, 74
2, 219938, Note_on_c, 0, 70, 68
2, 219954, Control_c, 0, 64, 48
2, 219955, Note_on_c, 0, 62, 56
2, 219964, Note_on_c, 0, 56, 0
2, 219972, Note_on_c, 0, 54, 49
2, 219973, Control_c, 0, 64, 9
2, 219992, Control_c, 0, 64, 0
2, 220049, Control_c, 0, 64, 48
2, 220069, Control_c, 0, 64, 64
2, 220088, Control_c, 0, 64, 67
2, 220107, Control_c, 0, 64, 69
2, 220172, Note_on_c, 0, 53, 67
2, 220198, Note_on_c, 0, 62, 0
2, 220204, Note_on_c, 0, 63, 57
2, 220206, Note_on_c, 0, 58, 0
2, 220207, Note_on_c, 0, 54, 0
2, 220216, Note_on_c, 0, 70, 0
2, 220234, Note_on_c, 0, 53, 0
2, 220261, Control_c, 0, 64, 69
2, 220300, Control_c, 0, 64, 70
2, 220318, Control_c, 0, 64, 71
2, 220338, Control_c, 0, 64, 72
2, 220357, Control_c, 0, 64, 75
2, 220379, Control_c, 0, 64, 78
2, 220398, Control_c, 0, 64, 81
2, 220406, Note_on_c, 0, 56, 73
2, 220418, Control_c, 0, 64, 74
2, 220428, Note_on_c, 0, 71, 67
2, 220432, Note_on_c, 0, 65, 66
2, 220436, Control_c, 0, 64, 62
2, 220436, Note_on_c, 0, 51, 49
2, 220456, Control_c, 0, 64, 34
2, 220469, Note_on_c, 0, 63, 0
2, 220475, Control_c, 0, 64, 21
2, 220495, Control_c, 0, 64, 28
2, 220513, Control_c, 0, 64, 55
2, 220531, Control_c, 0, 64, 66
2, 220550, Control_c, 0, 64, 71
2, 220569, Control_c, 0, 64, 75
2, 220588, Control_c, 0, 64, 77
2, 220599, Note_on_c, 0, 71, 0
2, 220607, Control_c, 0, 64, 78
2, 220627, Control_c, 0, 64, 79
2, 220633, Note_on_c, 0, 65, 0
2, 220645, Control_c, 0, 64, 80
2, 220661, Note_on_c, 0, 50, 72
2, 220684, Control_c, 0, 64, 80
2, 220697, Note_on_c, 0, 56, 0
2, 220703, Note_on_c, 0, 51, 0
2, 220746, Note_on_c, 0, 50, 0
2, 220799, Control_c, 0, 64, 81
2, 220819, Control_c, 0, 64, 83
2, 220838, Control_c, 0, 64, 85
2, 220857, Control_c, 0, 64, 86
2, 220876, Control_c, 0, 64, 77
2, 220879, Note_on_c, 0, 62, 72
2, 220881, Note_on_c, 0, 63, 72
2, 220896, Control_c, 0, 64, 61
2, 220896, Note_on_c, 0, 47, 62
2, 220910, Note_on_c, 0, 70, 50
2, 220915, Control_c, 0, 64, 24
2, 220934, Control_c, 0, 64, 0
2, 220959, Note_on_c, 0, 62, 0
2, 220973, Control_c, 0, 64, 45
2, 220991, Control_c, 0, 64, 64
2, 220998, Note_on_c, 0, 70, 0
2, 221011, Control_c, 0, 64, 68
2, 221030, Control_c, 0, 64, 71
2, 221049, Control_c, 0, 64, 72
2, 221068, Control_c, 0, 64, 72
2, 221107, Control_c, 0, 64, 72
2, 221111, Note_on_c, 0, 65, 67
2, 221114, Note_on_c, 0, 46, 60
2, 221125, Control_c, 0, 64, 71
2, 221137, Note_on_c, 0, 47, 0
2, 221164, Control_c, 0, 64, 71
2, 221171, Note_on_c, 0, 63, 0
2, 221222, Control_c, 0, 64, 71
2, 221261, Control_c, 0, 64, 72
2, 221299, Control_c, 0, 64, 73
2, 221318, Control_c, 0, 64, 70
2, 221325, Note_on_c, 0, 63, 69
2, 221335, Note_on_c, 0, 70, 75
2, 221339, Control_c, 0, 64, 60
2, 221354, Note_on_c, 0, 44, 62
2, 221358, Control_c, 0, 64, 0
2, 221391, Note_on_c, 0, 46, 0
2, 221391, Note_on_c, 0, 65, 0
2, 221399, Note_on_c, 0, 66, 42
2, 221422, Note_on_c, 0, 68, 30
2, 221435, Control_c, 0, 64, 34
2, 221438, Note_on_c, 0, 70, 0
2, 221455, Control_c, 0, 64, 62
2, 221456, Note_on_c, 0, 68, 0
2, 221473, Control_c, 0, 64, 64
2, 221486, Note_on_c, 0, 66, 0
2, 221493, Control_c, 0, 64, 63
2, 221543, Note_on_c, 0, 63, 0
2, 221582, Note_on_c, 0, 42, 63
2, 221589, Control_c, 0, 64, 63
2, 221594, Note_on_c, 0, 44, 0
2, 221607, Control_c, 0, 64, 62
2, 221665, Control_c, 0, 64, 63
2, 221684, Control_c, 0, 64, 63
2, 221704, Control_c, 0, 64, 64
2, 221742, Control_c, 0, 64, 62
2, 221761, Control_c, 0, 64, 46
2, 221781, Control_c, 0, 64, 0
2, 221792, Note_on_c, 0, 63, 76
2, 221797, Note_on_c, 0, 54, 70
2, 221809, Note_on_c, 0, 44, 66
2, 221823, Note_on_c, 0, 42, 0
2, 221858, Control_c, 0, 64, 44
2, 221876, Control_c, 0, 64, 62
2, 221896, Control_c, 0, 64, 65
2, 221915, Control_c, 0, 64, 65
2, 221935, Control_c, 0, 64, 65
2, 221999, Note_on_c, 0, 54, 0
2, 222011, Control_c, 0, 64, 64
2, 222030, Control_c, 0, 64, 64
2, 222033, Note_on_c, 0, 46, 74
2, 222042, Note_on_c, 0, 63, 0
2, 222049, Control_c, 0, 64, 63
2, 222076, Note_on_c, 0, 44, 0
2, 222145, Control_c, 0, 64, 63
2, 222203, Control_c, 0, 64, 62
2, 222222, Control_c, 0, 64, 61
2, 222241, Control_c, 0, 64, 60
2, 222261, Control_c, 0, 64, 59
2, 222279, Note_on_c, 0, 68, 76
2, 222280, Control_c, 0, 64, 59
2, 222289, Note_on_c, 0, 56, 71
2, 222299, Note_on_c, 0, 65, 55
2, 222303, Note_on_c, 0, 47, 64
2, 222310, Note_on_c, 0, 46, 0
2, 222317, Control_c, 0, 64, 58
2, 222337, Control_c, 0, 64, 58
2, 222375, Control_c, 0, 64, 57
2, 222394, Control_c, 0, 64, 57
2, 222414, Control_c, 0, 64, 56
2, 222432, Control_c, 0, 64, 55
2, 222452, Control_c, 0, 64, 55
2, 222487, Note_on_c, 0, 56, 0
2, 222491, Control_c, 0, 64, 54
2, 222528, Note_on_c, 0, 65, 0
2, 222566, Control_c, 0, 64, 54
2, 222586, Control_c, 0, 64, 53
2, 222605, Control_c, 0, 64, 51
2, 222625, Control_c, 0, 64, 48
2, 222643, Control_c, 0, 64, 45
2, 222663, Control_c, 0, 64, 43
2, 222682, Control_c, 0, 64, 42
2, 222720, Control_c, 0, 64, 41
2, 222740, Control_c, 0, 64, 40
2, 222759, Control_c, 0, 64, 39
2, 222760, Note_on_c, 0, 56, 73
2, 222778, Control_c, 0, 64, 38
2, 222797, Control_c, 0, 64, 36
2, 222817, Control_c, 0, 64, 33
2, 222835, Control_c, 0, 64, 30
2, 222855, Control_c, 0, 64, 27
2, 222874, Control_c, 0, 64, 23
2, 222894, Control_c, 0, 64, 19
2, 222912, Control_c, 0, 64, 13
2, 222932, Control_c, 0, 64, 0
2, 222937, Note_on_c, 0, 56, 0
2, 223213, Note_on_c, 0, 58, 60
2, 223219, Note_on_c, 0, 62, 57
2, 223237, Note_on_c, 0, 46, 55
2, 223320, Note_on_c, 0, 47, 0
2, 223391, Note_on_c, 0, 58, 0
2, 223449, Note_on_c, 0, 62, 0
2, 223664, Note_on_c, 0, 58, 65
2, 223687, Note_on_c, 0, 44, 58
2, 223793, Note_on_c, 0, 46, 0
2, 223850, Note_on_c, 0, 58, 0
2, 224161, Note_on_c, 0, 51, 60
2, 224170, Note_on_c, 0, 63, 56
2, 224184, Note_on_c, 0, 42, 53
2, 224240, Note_on_c, 0, 44, 0
2, 224601, Control_c, 0, 64, 24
2, 224621, Control_c, 0, 64, 32
2, 224624, Note_on_c, 0, 42, 0
2, 224624, Note_on_c, 0, 61, 63
2, 224627, Note_on_c, 0, 46, 49
2, 224639, Control_c, 0, 64, 36
2, 224659, Control_c, 0, 64, 40
2, 224678, Control_c, 0, 64, 43
2, 224697, Control_c, 0, 64, 45
2, 224702, Note_on_c, 0, 63, 0
2, 224706, Note_on_c, 0, 68, 0
2, 224716, Control_c, 0, 64, 46
2, 224736, Control_c, 0, 64, 47
2, 224755, Control_c, 0, 64, 48
2, 224774, Control_c, 0, 64, 51
2, 224793, Control_c, 0, 64, 53
2, 224813, Control_c, 0, 64, 54
2, 224845, Note_on_c, 0, 59, 71
2, 224850, Control_c, 0, 64, 55
2, 224855, Note_on_c, 0, 61, 0
2, 224889, Control_c, 0, 64, 54
2, 224927, Control_c, 0, 64, 54
2, 224947, Control_c, 0, 64, 53
2, 224965, Control_c, 0, 64, 53
2, 224985, Control_c, 0, 64, 52
2, 224997, Note_on_c, 0, 51, 0
2, 225004, Control_c, 0, 64, 52
2, 225024, Control_c, 0, 64, 51
2, 225042, Control_c, 0, 64, 50
2, 225062, Control_c, 0, 64, 50
2, 225081, Control_c, 0, 64, 48
2, 225101, Control_c, 0, 64, 47
2, 225117, Note_on_c, 0, 66, 56
2, 225119, Control_c, 0, 64, 46
2, 225126, Note_on_c, 0, 39, 44
2, 225130, Note_on_c, 0, 46, 0
2, 225133, Note_on_c, 0, 58, 59
2, 225139, Control_c, 0, 64, 46
2, 225158, Control_c, 0, 64, 45
2, 225195, Note_on_c, 0, 59, 0
2, 225317, Control_c, 0, 64, 43
2, 225330, Control_c, 0, 64, 27
2, 225350, Control_c, 0, 64, 0
2, 225504, Control_c, 0, 64, 18
2, 225522, Control_c, 0, 64, 47
2, 225542, Control_c, 0, 64, 56
2, 225561, Control_c, 0, 64, 58
2, 225581, Control_c, 0, 64, 59
2, 225593, Note_on_c, 0, 59, 66
2, 225599, Control_c, 0, 64, 60
2, 225610, Note_on_c, 0, 51, 48
2, 225619, Control_c, 0, 64, 61
2, 225619, Note_on_c, 0, 39, 0
2, 225631, Note_on_c, 0, 58, 0
2, 225638, Control_c, 0, 64, 63
2, 225657, Control_c, 0, 64, 63
2, 225682, Note_on_c, 0, 66, 0
2, 225849, Control_c, 0, 64, 63
2, 225887, Control_c, 0, 64, 62
2, 225925, Control_c, 0, 64, 62
2, 225945, Control_c, 0, 64, 61
2, 225964, Control_c, 0, 64, 61
2, 225984, Control_c, 0, 64, 60
2, 226002, Control_c, 0, 64, 60
2, 226041, Control_c, 0, 64, 59
2, 226061, Control_c, 0, 64, 58
2, 226075, Note_on_c, 0, 64, 56
2, 226077, Note_on_c, 0, 61, 54
2, 226079, Control_c, 0, 64, 57
2, 226079, Note_on_c, 0, 52, 46
2, 226099, Control_c, 0, 64, 56
2, 226102, Note_on_c, 0, 51, 0
2, 226118, Control_c, 0, 64, 54
2, 226137, Control_c, 0, 64, 53
2, 226156, Control_c, 0, 64, 51
2, 226168, Note_on_c, 0, 59, 0
2, 226176, Control_c, 0, 64, 49
2, 226195, Control_c, 0, 64, 46
2, 226214, Control_c, 0, 64, 45
2, 226233, Control_c, 0, 64, 45
2, 226267, Note_on_c, 0, 52, 0
2, 226271, Control_c, 0, 64, 44
2, 226289, Control_c, 0, 64, 43
2, 226309, Control_c, 0, 64, 43
2, 226405, Control_c, 0, 64, 43
2, 226424, Control_c, 0, 64, 44
2, 226443, Note_on_c, 0, 61, 0
2, 226520, Control_c, 0, 64, 44
2, 226540, Control_c, 0, 64, 45
2, 226551, Note_on_c, 0, 52, 53
2, 226578, Control_c, 0, 64, 45
2, 226616, Control_c, 0, 64, 46
2, 226726, Note_on_c, 0, 52, 0
2, 226923, Control_c, 0, 64, 46
2, 227024, Note_on_c, 0, 58, 55
2, 227035, Note_on_c, 0, 54, 42
2, 227058, Control_c, 0, 64, 47
2, 227116, Control_c, 0, 64, 47
2, 227136, Control_c, 0, 64, 48
2, 227155, Control_c, 0, 64, 49
2, 227174, Control_c, 0, 64, 49
2, 227193, Control_c, 0, 64, 50
2, 227213, Control_c, 0, 64, 50
2, 227221, Note_on_c, 0, 54, 0
2, 227231, Control_c, 0, 64, 51
2, 227249, Control_c, 0, 64, 52
2, 227269, Control_c, 0, 64, 52
2, 227288, Control_c, 0, 64, 53
2, 227326, Control_c, 0, 64, 53
2, 227403, Control_c, 0, 64, 54
2, 227481, Note_on_c, 0, 58, 0
2, 227497, Note_on_c, 0, 54, 48
2, 227500, Control_c, 0, 64, 54
2, 227538, Control_c, 0, 64, 55
2, 227557, Control_c, 0, 64, 55
2, 227576, Control_c, 0, 64, 56
2, 227595, Control_c, 0, 64, 58
2, 227615, Control_c, 0, 64, 59
2, 227634, Control_c, 0, 64, 60
2, 227653, Control_c, 0, 64, 61
2, 227692, Control_c, 0, 64, 61
2, 227729, Control_c, 0, 64, 61
2, 227765, Note_on_c, 0, 54, 0
2, 227787, Control_c, 0, 64, 60
2, 227826, Control_c, 0, 64, 60
2, 227903, Control_c, 0, 64, 60
2, 227941, Control_c, 0, 64, 60
2, 227960, Control_c, 0, 64, 57
2, 227965, Note_on_c, 0, 47, 39
2, 227971, Note_on_c, 0, 59, 55
2, 227980, Control_c, 0, 64, 49
2, 227998, Control_c, 0, 64, 42
2, 228018, Control_c, 0, 64, 40
2, 228037, Control_c, 0, 64, 41
2, 228057, Control_c, 0, 64, 48
2, 228076, Control_c, 0, 64, 56
2, 228087, Note_on_c, 0, 64, 0
2, 228096, Control_c, 0, 64, 60
2, 228115, Control_c, 0, 64, 61
2, 228134, Control_c, 0, 64, 62
2, 228153, Control_c, 0, 64, 63
2, 228173, Control_c, 0, 64, 63
2, 228191, Control_c, 0, 64, 64
2, 228191, Note_on_c, 0, 51, 40
2, 228296, Note_on_c, 0, 47, 0
2, 228345, Control_c, 0, 64, 64
2, 228384, Control_c, 0, 64, 65
2, 228402, Control_c, 0, 64, 65
2, 228422, Control_c, 0, 64, 65
2, 228424, Note_on_c, 0, 63, 63
2, 228441, Control_c, 0, 64, 63
2, 228451, Note_on_c, 0, 51, 0
2, 228453, Note_on_c, 0, 52, 43
2, 228461, Control_c, 0, 64, 57
2, 228479, Control_c, 0, 64, 44
2, 228499, Control_c, 0, 64, 39
2, 228518, Control_c, 0, 64, 40
2, 228537, Control_c, 0, 64, 47
2, 228556, Control_c, 0, 64, 58
2, 228576, Control_c, 0, 64, 61
2, 228595, Control_c, 0, 64, 62
2, 228646, Note_on_c, 0, 54, 58
2, 228663, Note_on_c, 0, 52, 0
2, 228710, Control_c, 0, 64, 61
2, 228737, Note_on_c, 0, 54, 0
2, 228825, Control_c, 0, 64, 62
2, 228864, Control_c, 0, 64, 62
2, 228878, Note_on_c, 0, 59, 0
2, 228902, Control_c, 0, 64, 61
2, 228902, Note_on_c, 0, 71, 65
2, 228906, Note_on_c, 0, 56, 53
2, 228921, Control_c, 0, 64, 58
2, 228941, Control_c, 0, 64, 50
2, 228959, Control_c, 0, 64, 38
2, 228979, Control_c, 0, 64, 35
2, 228997, Note_on_c, 0, 63, 0
2, 228998, Control_c, 0, 64, 36
2, 229019, Control_c, 0, 64, 48
2, 229038, Control_c, 0, 64, 55
2, 229058, Control_c, 0, 64, 57
2, 229076, Control_c, 0, 64, 58
2, 229096, Control_c, 0, 64, 59
2, 229115, Control_c, 0, 64, 60
2, 229153, Control_c, 0, 64, 60
2, 229228, Control_c, 0, 64, 61
2, 229267, Control_c, 0, 64, 62
2, 229285, Control_c, 0, 64, 62
2, 229305, Control_c, 0, 64, 63
2, 229344, Control_c, 0, 64, 61
2, 229344, Note_on_c, 0, 59, 57
2, 229361, Note_on_c, 0, 44, 49
2, 229362, Control_c, 0, 64, 56
2, 229382, Control_c, 0, 64, 44
2, 229401, Control_c, 0, 64, 34
2, 229421, Control_c, 0, 64, 33
2, 229439, Control_c, 0, 64, 38
2, 229459, Control_c, 0, 64, 46
2, 229478, Control_c, 0, 64, 49
2, 229497, Control_c, 0, 64, 53
2, 229516, Control_c, 0, 64, 57
2, 229536, Control_c, 0, 64, 59
2, 229537, Note_on_c, 0, 59, 0
2, 229545, Note_on_c, 0, 44, 0
2, 229593, Control_c, 0, 64, 60
2, 229613, Control_c, 0, 64, 60
2, 229631, Control_c, 0, 64, 61
2, 229670, Control_c, 0, 64, 61
2, 229765, Control_c, 0, 64, 59
2, 229785, Control_c, 0, 64, 54
2, 229802, Control_c, 0, 64, 41
2, 229802, Note_on_c, 0, 61, 63
2, 229812, Note_on_c, 0, 45, 54
2, 229821, Control_c, 0, 64, 22
2, 229839, Control_c, 0, 64, 0
2, 229916, Control_c, 0, 64, 27
2, 229936, Control_c, 0, 64, 40
2, 229955, Control_c, 0, 64, 51
2, 229974, Control_c, 0, 64, 56
2, 229974, Note_on_c, 0, 45, 0
2, 229993, Control_c, 0, 64, 56
2, 230013, Control_c, 0, 64, 57
2, 230030, Note_on_c, 0, 61, 0
2, 230032, Control_c, 0, 64, 58
2, 230051, Control_c, 0, 64, 60
2, 230070, Control_c, 0, 64, 60
2, 230128, Control_c, 0, 64, 61
2, 230147, Control_c, 0, 64, 62
2, 230167, Control_c, 0, 64, 63
2, 230185, Control_c, 0, 64, 63
2, 230243, Control_c, 0, 64, 62
2, 230262, Control_c, 0, 64, 55
2, 230263, Note_on_c, 0, 61, 68
2, 230272, Note_on_c, 0, 45, 57
2, 230282, Control_c, 0, 64, 41
2, 230301, Control_c, 0, 64, 32
2, 230319, Control_c, 0, 64, 33
2, 230339, Control_c, 0, 64, 48
2, 230358, Control_c, 0, 64, 62
2, 230378, Control_c, 0, 64, 66
2, 230396, Control_c, 0, 64, 67
2, 230416, Control_c, 0, 64, 66
2, 230425, Note_on_c, 0, 45, 0
2, 230430, Note_on_c, 0, 71, 0
2, 230445, Note_on_c, 0, 61, 0
2, 230493, Control_c, 0, 64, 66
2, 230512, Control_c, 0, 64, 65
2, 230527, Note_on_c, 0, 56, 0
2, 230550, Control_c, 0, 64, 65
2, 230685, Control_c, 0, 64, 64
2, 230704, Control_c, 0, 64, 63
2, 230723, Control_c, 0, 64, 57
2, 230724, Note_on_c, 0, 69, 80
2, 230742, Control_c, 0, 64, 46
2, 230747, Note_on_c, 0, 63, 62
2, 230749, Note_on_c, 0, 54, 57
2, 230755, Note_on_c, 0, 47, 57
2, 230762, Control_c, 0, 64, 38
2, 230781, Control_c, 0, 64, 35
2, 230838, Control_c, 0, 64, 37
2, 230858, Control_c, 0, 64, 39
2, 230876, Control_c, 0, 64, 41
2, 230896, Control_c, 0, 64, 44
2, 230915, Control_c, 0, 64, 48
2, 230936, Control_c, 0, 64, 51
2, 230941, Note_on_c, 0, 63, 0
2, 230989, Note_on_c, 0, 47, 0
2, 231052, Control_c, 0, 64, 51
2, 231070, Control_c, 0, 64, 50
2, 231088, Control_c, 0, 64, 49
2, 231107, Control_c, 0, 64, 47
2, 231127, Control_c, 0, 64, 44
2, 231145, Control_c, 0, 64, 42
2, 231197, Note_on_c, 0, 63, 67
2, 231203, Control_c, 0, 64, 44
2, 231203, Note_on_c, 0, 47, 59
2, 231222, Control_c, 0, 64, 50
2, 231242, Control_c, 0, 64, 58
2, 231261, Control_c, 0, 64, 63
2, 231279, Control_c, 0, 64, 66
2, 231299, Control_c, 0, 64, 69
2, 231318, Control_c, 0, 64, 71
2, 231338, Control_c, 0, 64, 73
2, 231352, Note_on_c, 0, 54, 0
2, 231356, Control_c, 0, 64, 74
2, 231385, Note_on_c, 0, 47, 0
2, 231395, Control_c, 0, 64, 74
2, 231395, Note_on_c, 0, 63, 0
2, 231433, Control_c, 0, 64, 73
2, 231453, Control_c, 0, 64, 73
2, 231472, Control_c, 0, 64, 72
2, 231491, Control_c, 0, 64, 71
2, 231510, Control_c, 0, 64, 70
2, 231530, Control_c, 0, 64, 69
2, 231548, Control_c, 0, 64, 68
2, 231568, Control_c, 0, 64, 67
2, 231587, Control_c, 0, 64, 66
2, 231607, Control_c, 0, 64, 66
2, 231625, Control_c, 0, 64, 65
2, 231645, Control_c, 0, 64, 65
2, 231683, Control_c, 0, 64, 64
2, 231687, Note_on_c, 0, 64, 63
2, 231688, Note_on_c, 0, 52, 43
2, 231690, Note_on_c, 0, 40, 47
2, 231702, Control_c, 0, 64, 63
2, 231722, Control_c, 0, 64, 61
2, 231741, Control_c, 0, 64, 56
2, 231759, Control_c, 0, 64, 44
2, 231779, Control_c, 0, 64, 21
2, 231798, Control_c, 0, 64, 0
2, 231875, Control_c, 0, 64, 9
2, 231896, Control_c, 0, 64, 50
2, 231914, Note_on_c, 0, 59, 69
2, 231915, Control_c, 0, 64, 61
2, 231935, Control_c, 0, 64, 63
2, 231952, Note_on_c, 0, 64, 0
2, 232012, Control_c, 0, 64, 63
2, 232024, Note_on_c, 0, 52, 0
2, 232030, Note_on_c, 0, 40, 0
2, 232143, Note_on_c, 0, 61, 70
2, 232200, Control_c, 0, 64, 63
2, 232220, Control_c, 0, 64, 62
2, 232221, Note_on_c, 0, 69, 0
2, 232227, Note_on_c, 0, 59, 0
2, 232258, Control_c, 0, 64, 62
2, 232315, Control_c, 0, 64, 61
2, 232335, Control_c, 0, 64, 61
2, 232347, Note_on_c, 0, 63, 76
2, 232392, Control_c, 0, 64, 60
2, 232412, Control_c, 0, 64, 60
2, 232416, Note_on_c, 0, 61, 0
2, 232431, Control_c, 0, 64, 59
2, 232450, Control_c, 0, 64, 59
2, 232489, Control_c, 0, 64, 58
2, 232508, Control_c, 0, 64, 58
2, 232527, Control_c, 0, 64, 57
2, 232546, Control_c, 0, 64, 55
2, 232566, Control_c, 0, 64, 51
2, 232584, Control_c, 0, 64, 47
2, 232604, Control_c, 0, 64, 46
2, 232604, Note_on_c, 0, 52, 60
2, 232613, Note_on_c, 0, 64, 71
2, 232621, Note_on_c, 0, 63, 0
2, 232623, Control_c, 0, 64, 45
2, 232680, Control_c, 0, 64, 45
2, 232700, Control_c, 0, 64, 47
2, 232718, Control_c, 0, 64, 49
2, 232738, Control_c, 0, 64, 52
2, 232757, Control_c, 0, 64, 54
2, 232777, Control_c, 0, 64, 55
2, 232795, Control_c, 0, 64, 56
2, 232815, Control_c, 0, 64, 56
2, 232834, Control_c, 0, 64, 57
2, 232854, Control_c, 0, 64, 57
2, 232873, Control_c, 0, 64, 58
2, 232893, Control_c, 0, 64, 58
2, 232912, Control_c, 0, 64, 59
2, 232931, Control_c, 0, 64, 59
2, 232950, Control_c, 0, 64, 60
2, 232970, Control_c, 0, 64, 60
2, 232988, Control_c, 0, 64, 61
2, 233008, Control_c, 0, 64, 61
2, 233065, Control_c, 0, 64, 59
2, 233065, Note_on_c, 0, 59, 66
2, 233071, Note_on_c, 0, 68, 78
2, 233085, Control_c, 0, 64, 52
2, 233104, Control_c, 0, 64, 39
2, 233123, Control_c, 0, 64, 29
2, 233142, Control_c, 0, 64, 27
2, 233169, Note_on_c, 0, 64, 0
2, 233181, Control_c, 0, 64, 36
2, 233199, Control_c, 0, 64, 49
2, 233222, Control_c, 0, 64, 59
2, 233241, Control_c, 0, 64, 62
2, 233257, Note_on_c, 0, 68, 0
2, 233279, Control_c, 0, 64, 62
2, 233299, Control_c, 0, 64, 62
2, 233452, Control_c, 0, 64, 62
2, 233471, Control_c, 0, 64, 60
2, 233490, Control_c, 0, 64, 56
2, 233510, Control_c, 0, 64, 53
2, 233515, Note_on_c, 0, 70, 80
2, 233522, Note_on_c, 0, 66, 68
2, 233529, Control_c, 0, 64, 52
2, 233539, Note_on_c, 0, 61, 65
2, 233548, Control_c, 0, 64, 51
2, 233553, Note_on_c, 0, 59, 0
2, 233682, Control_c, 0, 64, 52
2, 233702, Control_c, 0, 64, 52
2, 233741, Control_c, 0, 64, 53
2, 233756, Note_on_c, 0, 70, 0
2, 233759, Control_c, 0, 64, 53
2, 233779, Control_c, 0, 64, 54
2, 233783, Note_on_c, 0, 61, 0
2, 233819, Control_c, 0, 64, 53
2, 233858, Control_c, 0, 64, 53
2, 233876, Control_c, 0, 64, 51
2, 233896, Control_c, 0, 64, 50
2, 233915, Control_c, 0, 64, 48
2, 233935, Control_c, 0, 64, 46
2, 233953, Control_c, 0, 64, 42
2, 233971, Control_c, 0, 64, 37
2, 233991, Control_c, 0, 64, 37
2, 234001, Note_on_c, 0, 70, 78
2, 234008, Note_on_c, 0, 61, 57
2, 234010, Control_c, 0, 64, 40
2, 234029, Control_c, 0, 64, 53
2, 234048, Control_c, 0, 64, 62
2, 234068, Control_c, 0, 64, 64
2, 234086, Control_c, 0, 64, 63
2, 234145, Control_c, 0, 64, 64
2, 234214, Note_on_c, 0, 70, 0
2, 234215, Note_on_c, 0, 52, 0
2, 234240, Control_c, 0, 64, 63
2, 234276, Note_on_c, 0, 61, 0
2, 234279, Control_c, 0, 64, 63
2, 234337, Control_c, 0, 64, 62
2, 234375, Control_c, 0, 64, 61
2, 234394, Control_c, 0, 64, 62
2, 234451, Control_c, 0, 64, 58
2, 234470, Note_on_c, 0, 72, 81
2, 234471, Control_c, 0, 64, 43
2, 234476, Note_on_c, 0, 63, 55
2, 234480, Note_on_c, 0, 51, 61
2, 234490, Control_c, 0, 64, 0
2, 234663, Control_c, 0, 64, 15
2, 234678, Note_on_c, 0, 72, 0
2, 234682, Control_c, 0, 64, 32
2, 234701, Control_c, 0, 64, 45
2, 234703, Note_on_c, 0, 63, 0
2, 234720, Control_c, 0, 64, 53
2, 234740, Control_c, 0, 64, 54
2, 234759, Control_c, 0, 64, 54
2, 234822, Control_c, 0, 64, 55
2, 234841, Control_c, 0, 64, 55
2, 234861, Control_c, 0, 64, 56
2, 234880, Control_c, 0, 64, 56
2, 234899, Control_c, 0, 64, 57
2, 234918, Control_c, 0, 64, 59
2, 234930, Note_on_c, 0, 72, 85
2, 234931, Control_c, 0, 64, 61
2, 234951, Control_c, 0, 64, 62
2, 234955, Note_on_c, 0, 63, 64
2, 234970, Control_c, 0, 64, 62
2, 234989, Control_c, 0, 64, 63
2, 235008, Control_c, 0, 64, 63
2, 235028, Control_c, 0, 64, 64
2, 235039, Note_on_c, 0, 63, 0
2, 235065, Note_on_c, 0, 51, 0
2, 235066, Control_c, 0, 64, 64
2, 235085, Control_c, 0, 64, 65
2, 235124, Note_on_c, 0, 72, 0
2, 235220, Control_c, 0, 64, 64
2, 235335, Control_c, 0, 64, 64
2, 235411, Control_c, 0, 64, 63
2, 235417, Note_on_c, 0, 73, 80
2, 235420, Note_on_c, 0, 56, 59
2, 235423, Note_on_c, 0, 49, 60
2, 235431, Control_c, 0, 64, 58
2, 235450, Control_c, 0, 64, 42
2, 235469, Control_c, 0, 64, 15
2, 235488, Control_c, 0, 64, 0
2, 235491, Note_on_c, 0, 66, 0
2, 235508, Control_c, 0, 64, 11
2, 235526, Control_c, 0, 64, 40
2, 235546, Control_c, 0, 64, 57
2, 235565, Control_c, 0, 64, 61
2, 235585, Control_c, 0, 64, 62
2, 235603, Control_c, 0, 64, 62
2, 235623, Control_c, 0, 64, 63
2, 235665, Note_on_c, 0, 63, 65
2, 235799, Control_c, 0, 64, 63
2, 235810, Note_on_c, 0, 63, 0
2, 235838, Control_c, 0, 64, 64
2, 235876, Control_c, 0, 64, 63
2, 235886, Note_on_c, 0, 51, 57
2, 235893, Control_c, 0, 64, 57
2, 235896, Note_on_c, 0, 64, 68
2, 235913, Control_c, 0, 64, 41
2, 235932, Control_c, 0, 64, 27
2, 235951, Control_c, 0, 64, 25
2, 235970, Control_c, 0, 64, 33
2, 235990, Control_c, 0, 64, 50
2, 236008, Control_c, 0, 64, 57
2, 236028, Control_c, 0, 64, 58
2, 236047, Control_c, 0, 64, 58
2, 236052, Note_on_c, 0, 56, 0
2, 236067, Control_c, 0, 64, 59
2, 236085, Control_c, 0, 64, 60
2, 236103, Note_on_c, 0, 49, 0
2, 236105, Control_c, 0, 64, 60
2, 236114, Note_on_c, 0, 66, 69
2, 236143, Control_c, 0, 64, 60
2, 236193, Note_on_c, 0, 64, 0
2, 236239, Control_c, 0, 64, 60
2, 236258, Control_c, 0, 64, 61
2, 236296, Control_c, 0, 64, 59
2, 236316, Control_c, 0, 64, 40
2, 236335, Control_c, 0, 64, 0
2, 236341, Note_on_c, 0, 52, 60
2, 236349, Note_on_c, 0, 68, 74
2, 236381, Note_on_c, 0, 51, 0
2, 236394, Note_on_c, 0, 73, 0
2, 236416, Note_on_c, 0, 66, 0
2, 236431, Control_c, 0, 64, 56
2, 236450, Control_c, 0, 64, 66
2, 236470, Control_c, 0, 64, 68
2, 236488, Control_c, 0, 64, 70
2, 236508, Control_c, 0, 64, 71
2, 236527, Control_c, 0, 64, 71
2, 236547, Control_c, 0, 64, 72
2, 236565, Control_c, 0, 64, 73
2, 236568, Note_on_c, 0, 68, 0
2, 236584, Control_c, 0, 64, 73
2, 236814, Control_c, 0, 64, 70
2, 236821, Note_on_c, 0, 73, 78
2, 236834, Control_c, 0, 64, 62
2, 236840, Note_on_c, 0, 54, 56
2, 236851, Control_c, 0, 64, 19
2, 236855, Note_on_c, 0, 66, 53
2, 236871, Control_c, 0, 64, 0
2, 236909, Control_c, 0, 64, 21
2, 236928, Control_c, 0, 64, 59
2, 236931, Note_on_c, 0, 52, 0
2, 236948, Control_c, 0, 64, 67
2, 236967, Control_c, 0, 64, 72
2, 236986, Control_c, 0, 64, 77
2, 237005, Control_c, 0, 64, 78
2, 237040, Note_on_c, 0, 64, 64
2, 237043, Control_c, 0, 64, 78
2, 237062, Control_c, 0, 64, 79
2, 237082, Control_c, 0, 64, 80
2, 237098, Note_on_c, 0, 64, 0
2, 237099, Note_on_c, 0, 73, 0
2, 237109, Note_on_c, 0, 66, 0
2, 237178, Control_c, 0, 64, 79
2, 237216, Control_c, 0, 64, 80
2, 237254, Control_c, 0, 64, 78
2, 237274, Control_c, 0, 64, 70
2, 237280, Note_on_c, 0, 72, 79
2, 237293, Control_c, 0, 64, 56
2, 237311, Note_on_c, 0, 63, 51
2, 237313, Control_c, 0, 64, 0
2, 237314, Note_on_c, 0, 56, 51
2, 237316, Note_on_c, 0, 54, 0
2, 237389, Control_c, 0, 64, 52
2, 237408, Control_c, 0, 64, 67
2, 237428, Control_c, 0, 64, 71
2, 237447, Control_c, 0, 64, 74
2, 237459, Note_on_c, 0, 63, 0
2, 237466, Control_c, 0, 64, 75
2, 237496, Note_on_c, 0, 72, 0
2, 237581, Control_c, 0, 64, 74
2, 237619, Control_c, 0, 64, 74
2, 237639, Control_c, 0, 64, 73
2, 237699, Control_c, 0, 64, 72
2, 237718, Control_c, 0, 64, 71
2, 237737, Control_c, 0, 64, 69
2, 237749, Note_on_c, 0, 73, 77
2, 237757, Control_c, 0, 64, 68
2, 237758, Note_on_c, 0, 68, 65
2, 237768, Note_on_c, 0, 58, 56
2, 237776, Control_c, 0, 64, 66
2, 237795, Control_c, 0, 64, 66
2, 237811, Control_c, 0, 64, 65
2, 237831, Control_c, 0, 64, 65
2, 237850, Control_c, 0, 64, 64
2, 237888, Control_c, 0, 64, 64
2, 237927, Control_c, 0, 64, 63
2, 237946, Control_c, 0, 64, 63
2, 237962, Note_on_c, 0, 75, 82
2, 237965, Control_c, 0, 64, 62
2, 237981, Note_on_c, 0, 60, 65
2, 237984, Control_c, 0, 64, 62
2, 238003, Control_c, 0, 64, 61
2, 238018, Note_on_c, 0, 58, 0
2, 238051, Note_on_c, 0, 73, 0
2, 238196, Control_c, 0, 64, 61
2, 238214, Control_c, 0, 64, 59
2, 238234, Control_c, 0, 64, 50
2, 238243, Note_on_c, 0, 76, 79
2, 238253, Control_c, 0, 64, 20
2, 238260, Note_on_c, 0, 61, 65
2, 238273, Control_c, 0, 64, 0
2, 238310, Note_on_c, 0, 60, 0
2, 238368, Control_c, 0, 64, 9
2, 238388, Control_c, 0, 64, 55
2, 238407, Control_c, 0, 64, 63
2, 238426, Control_c, 0, 64, 64
2, 238454, Note_on_c, 0, 68, 0
2, 238458, Note_on_c, 0, 75, 0
2, 238483, Control_c, 0, 64, 65
2, 238494, Note_on_c, 0, 76, 0
2, 238677, Control_c, 0, 64, 65
2, 238695, Control_c, 0, 64, 66
2, 238700, Note_on_c, 0, 75, 80
2, 238720, Note_on_c, 0, 67, 52
2, 238729, Note_on_c, 0, 63, 53
2, 238734, Control_c, 0, 64, 62
2, 238754, Control_c, 0, 64, 50
2, 238771, Note_on_c, 0, 67, 0
2, 238772, Control_c, 0, 64, 25
2, 238792, Control_c, 0, 64, 20
2, 238796, Note_on_c, 0, 61, 0
2, 238811, Control_c, 0, 64, 28
2, 238830, Control_c, 0, 64, 53
2, 238849, Control_c, 0, 64, 63
2, 238869, Control_c, 0, 64, 66
2, 238888, Control_c, 0, 64, 66
2, 238926, Control_c, 0, 64, 67
2, 238940, Note_on_c, 0, 68, 68
2, 238983, Control_c, 0, 64, 66
2, 239098, Control_c, 0, 64, 67
2, 239118, Control_c, 0, 64, 67
2, 239125, Note_on_c, 0, 63, 0
2, 239157, Control_c, 0, 64, 66
2, 239175, Control_c, 0, 64, 61
2, 239180, Note_on_c, 0, 64, 56
2, 239180, Note_on_c, 0, 73, 74
2, 239194, Note_on_c, 0, 70, 51
2, 239195, Control_c, 0, 64, 18
2, 239197, Note_on_c, 0, 68, 0
2, 239214, Control_c, 0, 64, 0
2, 239240, Note_on_c, 0, 75, 0
2, 239256, Note_on_c, 0, 70, 0
2, 239291, Control_c, 0, 64, 51
2, 239310, Control_c, 0, 64, 66
2, 239329, Control_c, 0, 64, 71
2, 239349, Control_c, 0, 64, 74
2, 239368, Control_c, 0, 64, 76
2, 239387, Control_c, 0, 64, 78
2, 239406, Control_c, 0, 64, 81
2, 239426, Control_c, 0, 64, 84
2, 239426, Note_on_c, 0, 73, 0
2, 239444, Control_c, 0, 64, 87
2, 239463, Control_c, 0, 64, 91
2, 239483, Control_c, 0, 64, 95
2, 239502, Control_c, 0, 64, 100
2, 239521, Control_c, 0, 64, 106
2, 239540, Control_c, 0, 64, 116
2, 239560, Control_c, 0, 64, 127
2, 239686, Note_on_c, 0, 79, 83
2, 239701, Note_on_c, 0, 68, 64
2, 239715, Control_c, 0, 64, 95
2, 239731, Control_c, 0, 64, 70
2, 239748, Note_on_c, 0, 68, 0
2, 239751, Control_c, 0, 64, 60
2, 239770, Control_c, 0, 64, 59
2, 239789, Control_c, 0, 64, 63
2, 239808, Control_c, 0, 64, 69
2, 239828, Control_c, 0, 64, 79
2, 239847, Control_c, 0, 64, 95
2, 239866, Control_c, 0, 64, 108
2, 239885, Control_c, 0, 64, 108
2, 239904, Control_c, 0, 64, 109
2, 239923, Control_c, 0, 64, 110
2, 239926, Note_on_c, 0, 70, 76
2, 239942, Control_c, 0, 64, 113
2, 239962, Control_c, 0, 64, 115
2, 239993, Note_on_c, 0, 79, 0
2, 240000, Control_c, 0, 64, 114
2, 240019, Control_c, 0, 64, 110
2, 240039, Control_c, 0, 64, 107
2, 240058, Control_c, 0, 64, 104
2, 240077, Control_c, 0, 64, 101
2, 240096, Control_c, 0, 64, 98
2, 240116, Control_c, 0, 64, 97
2, 240134, Control_c, 0, 64, 95
2, 240154, Control_c, 0, 64, 89
2, 240173, Control_c, 0, 64, 83
2, 240193, Control_c, 0, 64, 77
2, 240197, Note_on_c, 0, 70, 0
2, 240208, Note_on_c, 0, 80, 83
2, 240211, Control_c, 0, 64, 72
2, 240213, Note_on_c, 0, 71, 51
2, 240231, Control_c, 0, 64, 68
2, 240234, Note_on_c, 0, 63, 53
2, 240250, Control_c, 0, 64, 66
2, 240269, Control_c, 0, 64, 64
2, 240269, Note_on_c, 0, 64, 0
2, 240288, Control_c, 0, 64, 63
2, 240308, Control_c, 0, 64, 62
2, 240327, Control_c, 0, 64, 61
2, 240346, Control_c, 0, 64, 59
2, 240365, Control_c, 0, 64, 58
2, 240403, Control_c, 0, 64, 58
2, 240422, Control_c, 0, 64, 59
2, 240442, Control_c, 0, 64, 59
2, 240457, Note_on_c, 0, 71, 0
2, 240461, Control_c, 0, 64, 61
2, 240480, Control_c, 0, 64, 61
2, 240495, Note_on_c, 0, 80, 0
2, 240499, Control_c, 0, 64, 62
2, 240519, Control_c, 0, 64, 63
2, 240538, Control_c, 0, 64, 63
2, 240557, Control_c, 0, 64, 64
2, 240576, Control_c, 0, 64, 65
2, 240634, Control_c, 0, 64, 64
2, 240653, Control_c, 0, 64, 61
2, 240673, Control_c, 0, 64, 54
2, 240691, Control_c, 0, 64, 41
2, 240692, Note_on_c, 0, 71, 72
2, 240696, Note_on_c, 0, 68, 63
2, 240711, Control_c, 0, 64, 36
2, 240730, Control_c, 0, 64, 42
2, 240749, Control_c, 0, 64, 57
2, 240768, Control_c, 0, 64, 64
2, 240788, Control_c, 0, 64, 67
2, 240807, Control_c, 0, 64, 70
2, 240826, Control_c, 0, 64, 72
2, 240845, Control_c, 0, 64, 73
2, 240922, Control_c, 0, 64, 73
2, 240929, Note_on_c, 0, 71, 0
2, 240941, Control_c, 0, 64, 72
2, 240943, Note_on_c, 0, 68, 0
2, 240960, Control_c, 0, 64, 72
2, 240979, Control_c, 0, 64, 71
2, 241018, Control_c, 0, 64, 70
2, 241037, Control_c, 0, 64, 70
2, 241056, Control_c, 0, 64, 69
2, 241076, Control_c, 0, 64, 69
2, 241094, Control_c, 0, 64, 68
2, 241114, Control_c, 0, 64, 68
2, 241153, Control_c, 0, 64, 67
2, 241171, Control_c, 0, 64, 65
2, 241174, Note_on_c, 0, 63, 0
2, 241183, Note_on_c, 0, 73, 77
2, 241191, Control_c, 0, 64, 61
2, 241199, Note_on_c, 0, 69, 60
2, 241205, Note_on_c, 0, 64, 56
2, 241210, Control_c, 0, 64, 51
2, 241229, Control_c, 0, 64, 30
2, 241248, Control_c, 0, 64, 0
2, 241301, Note_on_c, 0, 69, 0
2, 241325, Control_c, 0, 64, 9
2, 241344, Control_c, 0, 64, 45
2, 241363, Control_c, 0, 64, 57
2, 241382, Control_c, 0, 64, 61
2, 241402, Control_c, 0, 64, 62
2, 241421, Control_c, 0, 64, 62
2, 241423, Note_on_c, 0, 73, 0
2, 241523, Control_c, 0, 64, 63
2, 241542, Control_c, 0, 64, 63
2, 241561, Control_c, 0, 64, 64
2, 241580, Control_c, 0, 64, 63
2, 241600, Control_c, 0, 64, 59
2, 241618, Control_c, 0, 64, 43
2, 241638, Control_c, 0, 64, 15
2, 241651, Control_c, 0, 64, 0
2, 241671, Note_on_c, 0, 73, 80
2, 241687, Control_c, 0, 64, 35
2, 241706, Control_c, 0, 64, 57
2, 241725, Control_c, 0, 64, 64
2, 241745, Control_c, 0, 64, 66
2, 241764, Control_c, 0, 64, 67
2, 241783, Control_c, 0, 64, 67
2, 241802, Control_c, 0, 64, 68
2, 241822, Control_c, 0, 64, 70
2, 241840, Control_c, 0, 64, 71
2, 241850, Note_on_c, 0, 64, 0
2, 241871, Note_on_c, 0, 73, 0
2, 241892, Note_on_c, 0, 56, 0
2, 241899, Control_c, 0, 64, 70
2, 241917, Control_c, 0, 64, 70
2, 241937, Control_c, 0, 64, 69
2, 241956, Control_c, 0, 64, 69
2, 241976, Control_c, 0, 64, 68
2, 242013, Control_c, 0, 64, 68
2, 242033, Control_c, 0, 64, 67
2, 242051, Control_c, 0, 64, 66
2, 242071, Control_c, 0, 64, 65
2, 242128, Control_c, 0, 64, 64
2, 242148, Control_c, 0, 64, 59
2, 242149, Note_on_c, 0, 75, 86
2, 242167, Control_c, 0, 64, 27
2, 242167, Note_on_c, 0, 66, 55
2, 242179, Note_on_c, 0, 69, 56
2, 242186, Control_c, 0, 64, 0
2, 242186, Note_on_c, 0, 54, 54
2, 242263, Control_c, 0, 64, 35
2, 242282, Control_c, 0, 64, 56
2, 242300, Note_on_c, 0, 69, 0
2, 242302, Control_c, 0, 64, 62
2, 242367, Note_on_c, 0, 75, 0
2, 242456, Control_c, 0, 64, 61
2, 242493, Control_c, 0, 64, 61
2, 242531, Control_c, 0, 64, 60
2, 242590, Control_c, 0, 64, 60
2, 242609, Control_c, 0, 64, 53
2, 242629, Control_c, 0, 64, 0
2, 242663, Note_on_c, 0, 75, 84
2, 242725, Control_c, 0, 64, 39
2, 242740, Note_on_c, 0, 66, 0
2, 242744, Control_c, 0, 64, 62
2, 242763, Control_c, 0, 64, 65
2, 242783, Control_c, 0, 64, 66
2, 242821, Control_c, 0, 64, 66
2, 242840, Control_c, 0, 64, 67
2, 242859, Note_on_c, 0, 75, 0
2, 242860, Control_c, 0, 64, 67
2, 242878, Control_c, 0, 64, 68
2, 243032, Control_c, 0, 64, 67
2, 243071, Control_c, 0, 64, 67
2, 243089, Control_c, 0, 64, 66
2, 243109, Control_c, 0, 64, 65
2, 243128, Control_c, 0, 64, 65
2, 243187, Note_on_c, 0, 68, 71
2, 243220, Note_on_c, 0, 63, 51
2, 243224, Control_c, 0, 64, 64
2, 243229, Note_on_c, 0, 60, 42
2, 243243, Control_c, 0, 64, 64
2, 243263, Control_c, 0, 64, 62
2, 243281, Control_c, 0, 64, 52
2, 243301, Control_c, 0, 64, 22
2, 243320, Control_c, 0, 64, 0
2, 243397, Control_c, 0, 64, 35
2, 243417, Control_c, 0, 64, 58
2, 243436, Control_c, 0, 64, 64
2, 243456, Control_c, 0, 64, 65
2, 243589, Control_c, 0, 64, 65
2, 243627, Control_c, 0, 64, 66
2, 243646, Control_c, 0, 64, 66
2, 243673, Note_on_c, 0, 60, 0
2, 243698, Note_on_c, 0, 72, 76
2, 243723, Control_c, 0, 64, 66
2, 243761, Control_c, 0, 64, 65
2, 243800, Note_on_c, 0, 54, 0
2, 243860, Note_on_c, 0, 68, 0
2, 243915, Control_c, 0, 64, 65
2, 243954, Control_c, 0, 64, 64
2, 243972, Control_c, 0, 64, 64
2, 244088, Control_c, 0, 64, 63
2, 244201, Note_on_c, 0, 73, 77
2, 244203, Control_c, 0, 64, 63
2, 244223, Control_c, 0, 64, 61
2, 244241, Control_c, 0, 64, 54
2, 244261, Control_c, 0, 64, 42
2, 244280, Control_c, 0, 64, 32
2, 244300, Control_c, 0, 64, 29
2, 244307, Note_on_c, 0, 72, 0
2, 244338, Control_c, 0, 64, 39
2, 244357, Control_c, 0, 64, 55
2, 244376, Control_c, 0, 64, 62
2, 244395, Control_c, 0, 64, 63
2, 244397, Note_on_c, 0, 63, 0
2, 244452, Control_c, 0, 64, 63
2, 244682, Control_c, 0, 64, 64
2, 244702, Control_c, 0, 64, 63
2, 244711, Note_on_c, 0, 68, 71
2, 244720, Control_c, 0, 64, 61
2, 244720, Note_on_c, 0, 52, 62
2, 244720, Note_on_c, 0, 64, 56
2, 244740, Control_c, 0, 64, 50
2, 244759, Control_c, 0, 64, 21
2, 244779, Control_c, 0, 64, 0
2, 244817, Control_c, 0, 64, 21
2, 244836, Control_c, 0, 64, 55
2, 244856, Control_c, 0, 64, 63
2, 244874, Control_c, 0, 64, 63
2, 244893, Control_c, 0, 64, 64
2, 244918, Note_on_c, 0, 64, 0
2, 244931, Control_c, 0, 64, 64
2, 245028, Control_c, 0, 64, 65
2, 245124, Control_c, 0, 64, 65
2, 245162, Control_c, 0, 64, 65
2, 245220, Control_c, 0, 64, 65
2, 245237, Note_on_c, 0, 52, 0
2, 245239, Control_c, 0, 64, 65
2, 245259, Control_c, 0, 64, 61
2, 245260, Note_on_c, 0, 43, 69
2, 245261, Note_on_c, 0, 70, 72
2, 245262, Note_on_c, 0, 68, 0
2, 245268, Note_on_c, 0, 63, 54
2, 245277, Control_c, 0, 64, 42
2, 245297, Control_c, 0, 64, 0
2, 245354, Control_c, 0, 64, 17
2, 245373, Control_c, 0, 64, 42
2, 245393, Control_c, 0, 64, 50
2, 245411, Control_c, 0, 64, 58
2, 245431, Control_c, 0, 64, 63
2, 245450, Control_c, 0, 64, 64
2, 245470, Control_c, 0, 64, 65
2, 245527, Control_c, 0, 64, 65
2, 245546, Control_c, 0, 64, 66
2, 245620, Note_on_c, 0, 43, 0
2, 245642, Control_c, 0, 64, 67
2, 245650, Note_on_c, 0, 63, 0
2, 245662, Control_c, 0, 64, 69
2, 245680, Control_c, 0, 64, 72
2, 245700, Control_c, 0, 64, 72
2, 245719, Control_c, 0, 64, 66
2, 245739, Control_c, 0, 64, 50
2, 245757, Control_c, 0, 64, 0
2, 245761, Note_on_c, 0, 43, 75
2, 245796, Control_c, 0, 64, 26
2, 245816, Control_c, 0, 64, 56
2, 245834, Control_c, 0, 64, 66
2, 245853, Control_c, 0, 64, 70
2, 245871, Note_on_c, 0, 73, 0
2, 245873, Control_c, 0, 64, 76
2, 245891, Control_c, 0, 64, 80
2, 245908, Note_on_c, 0, 70, 0
2, 245911, Control_c, 0, 64, 84
2, 245930, Control_c, 0, 64, 86
2, 246026, Control_c, 0, 64, 86
2, 246065, Control_c, 0, 64, 85
2, 246122, Control_c, 0, 64, 85
2, 246142, Control_c, 0, 64, 84
2, 246160, Control_c, 0, 64, 83
2, 246180, Control_c, 0, 64, 81
2, 246199, Control_c, 0, 64, 79
2, 246219, Control_c, 0, 64, 77
2, 246226, Note_on_c, 0, 43, 0
2, 246237, Control_c, 0, 64, 75
2, 246257, Control_c, 0, 64, 75
2, 246296, Control_c, 0, 64, 75
2, 246298, Note_on_c, 0, 68, 60
2, 246300, Note_on_c, 0, 71, 78
2, 246314, Note_on_c, 0, 63, 62
2, 246317, Note_on_c, 0, 44, 67
2, 246334, Control_c, 0, 64, 76
2, 246354, Control_c, 0, 64, 75
2, 246372, Control_c, 0, 64, 73
2, 246392, Control_c, 0, 64, 69
2, 246411, Control_c, 0, 64, 61
2, 246431, Control_c, 0, 64, 38
2, 246448, Control_c, 0, 64, 0
2, 246506, Control_c, 0, 64, 31
2, 246525, Control_c, 0, 64, 55
2, 246545, Control_c, 0, 64, 63
2, 246564, Control_c, 0, 64, 64
2, 246737, Control_c, 0, 64, 65
2, 246749, Note_on_c, 0, 44, 0
2, 246756, Control_c, 0, 64, 65
2, 246813, Control_c, 0, 64, 66
2, 246824, Note_on_c, 0, 66, 74
2, 246833, Control_c, 0, 64, 66
2, 246840, Note_on_c, 0, 44, 65
2, 246851, Control_c, 0, 64, 66
2, 246871, Control_c, 0, 64, 64
2, 246890, Control_c, 0, 64, 51
2, 246910, Control_c, 0, 64, 32
2, 246928, Control_c, 0, 64, 24
2, 246948, Control_c, 0, 64, 25
2, 246967, Control_c, 0, 64, 44
2, 246986, Control_c, 0, 64, 61
2, 247005, Control_c, 0, 64, 66
2, 247025, Control_c, 0, 64, 69
2, 247044, Control_c, 0, 64, 70
2, 247102, Control_c, 0, 64, 70
2, 247120, Control_c, 0, 64, 71
2, 247167, Note_on_c, 0, 63, 0
2, 247211, Note_on_c, 0, 68, 0
2, 247257, Control_c, 0, 64, 70
2, 247342, Note_on_c, 0, 64, 69
2, 247353, Control_c, 0, 64, 70
2, 247361, Note_on_c, 0, 37, 65
2, 247363, Note_on_c, 0, 61, 53
2, 247372, Control_c, 0, 64, 69
2, 247389, Note_on_c, 0, 66, 0
2, 247391, Control_c, 0, 64, 67
2, 247410, Control_c, 0, 64, 60
2, 247430, Control_c, 0, 64, 37
2, 247449, Control_c, 0, 64, 0
2, 247519, Note_on_c, 0, 44, 0
2, 247525, Control_c, 0, 64, 27
2, 247545, Control_c, 0, 64, 54
2, 247564, Control_c, 0, 64, 63
2, 247584, Control_c, 0, 64, 67
2, 247602, Control_c, 0, 64, 68
2, 247622, Control_c, 0, 64, 69
2, 247641, Control_c, 0, 64, 69
2, 247661, Control_c, 0, 64, 70
2, 247679, Control_c, 0, 64, 71
2, 247699, Control_c, 0, 64, 72
2, 247718, Control_c, 0, 64, 73
2, 247748, Note_on_c, 0, 61, 0
2, 247776, Control_c, 0, 64, 73
2, 247795, Control_c, 0, 64, 75
2, 247813, Control_c, 0, 64, 78
2, 247833, Control_c, 0, 64, 82
2, 247852, Control_c, 0, 64, 83
2, 247871, Control_c, 0, 64, 74
2, 247871, Note_on_c, 0, 39, 76
2, 247884, Note_on_c, 0, 63, 66
2, 247890, Control_c, 0, 64, 61
2, 247910, Control_c, 0, 64, 18
2, 247929, Control_c, 0, 64, 0
2, 247955, Note_on_c, 0, 64, 0
2, 247967, Control_c, 0, 64, 27
2, 247987, Control_c, 0, 64, 58
2, 248005, Control_c, 0, 64, 64
2, 248012, Note_on_c, 0, 37, 0
2, 248025, Control_c, 0, 64, 67
2, 248044, Control_c, 0, 64, 69
2, 248064, Control_c, 0, 64, 73
2, 248082, Control_c, 0, 64, 77
2, 248102, Control_c, 0, 64, 81
2, 248121, Control_c, 0, 64, 85
2, 248141, Control_c, 0, 64, 85
2, 248143, Note_on_c, 0, 71, 0
2, 248159, Control_c, 0, 64, 86
2, 248179, Control_c, 0, 64, 86
2, 248198, Control_c, 0, 64, 87
2, 248220, Control_c, 0, 64, 88
2, 248239, Control_c, 0, 64, 89
2, 248259, Control_c, 0, 64, 90
2, 248261, Note_on_c, 0, 63, 0
2, 248277, Control_c, 0, 64, 91
2, 248354, Control_c, 0, 64, 90
2, 248370, Control_c, 0, 64, 89
2, 248390, Control_c, 0, 64, 88
2, 248409, Control_c, 0, 64, 86
2, 248428, Control_c, 0, 64, 84
2, 248447, Control_c, 0, 64, 83
2, 248467, Control_c, 0, 64, 81
2, 248469, Note_on_c, 0, 70, 72
2, 248472, Note_on_c, 0, 61, 60
2, 248484, Note_on_c, 0, 40, 72
2, 248485, Control_c, 0, 64, 79
2, 248505, Control_c, 0, 64, 77
2, 248524, Control_c, 0, 64, 75
2, 248544, Control_c, 0, 64, 72
2, 248562, Control_c, 0, 64, 68
2, 248582, Control_c, 0, 64, 64
2, 248585, Note_on_c, 0, 39, 0
2, 248601, Control_c, 0, 64, 59
2, 248621, Control_c, 0, 64, 52
2, 248639, Control_c, 0, 64, 42
2, 248659, Control_c, 0, 64, 17
2, 248678, Control_c, 0, 64, 0
2, 248755, Control_c, 0, 64, 17
2, 248773, Control_c, 0, 64, 38
2, 248793, Control_c, 0, 64, 54
2, 248812, Control_c, 0, 64, 61
2, 248831, Control_c, 0, 64, 60
2, 248870, Control_c, 0, 64, 61
2, 248889, Control_c, 0, 64, 63
2, 248908, Control_c, 0, 64, 65
2, 248927, Control_c, 0, 64, 66
2, 248965, Control_c, 0, 64, 66
2, 249004, Control_c, 0, 64, 66
2, 249024, Control_c, 0, 64, 63
2, 249042, Control_c, 0, 64, 50
2, 249044, Note_on_c, 0, 68, 80
2, 249062, Control_c, 0, 64, 11
2, 249066, Note_on_c, 0, 49, 60
2, 249081, Control_c, 0, 64, 0
2, 249177, Control_c, 0, 64, 23
2, 249196, Control_c, 0, 64, 58
2, 249215, Control_c, 0, 64, 66
2, 249235, Control_c, 0, 64, 69
2, 249253, Control_c, 0, 64, 72
2, 249273, Control_c, 0, 64, 74
2, 249290, Note_on_c, 0, 70, 0
2, 249292, Control_c, 0, 64, 77
2, 249311, Control_c, 0, 64, 81
2, 249328, Control_c, 0, 64, 85
2, 249332, Note_on_c, 0, 40, 0
2, 249348, Control_c, 0, 64, 88
2, 249367, Control_c, 0, 64, 88
2, 249386, Control_c, 0, 64, 89
2, 249468, Note_on_c, 0, 49, 0
2, 249521, Control_c, 0, 64, 88
2, 249540, Control_c, 0, 64, 86
2, 249559, Control_c, 0, 64, 85
2, 249579, Control_c, 0, 64, 84
2, 249597, Control_c, 0, 64, 82
2, 249617, Control_c, 0, 64, 80
2, 249636, Control_c, 0, 64, 79
2, 249655, Control_c, 0, 64, 78
2, 249673, Note_on_c, 0, 67, 78
2, 249674, Control_c, 0, 64, 72
2, 249689, Note_on_c, 0, 51, 51
2, 249693, Control_c, 0, 64, 62
2, 249713, Control_c, 0, 64, 0
2, 249721, Note_on_c, 0, 39, 49
2, 249730, Note_on_c, 0, 68, 0
2, 249828, Control_c, 0, 64, 41
2, 249847, Control_c, 0, 64, 63
2, 249866, Control_c, 0, 64, 68
2, 249885, Control_c, 0, 64, 74
2, 249905, Control_c, 0, 64, 80
2, 249919, Note_on_c, 0, 61, 0
2, 249924, Control_c, 0, 64, 86
2, 249943, Control_c, 0, 64, 90
2, 249962, Control_c, 0, 64, 92
2, 249964, Note_on_c, 0, 67, 0
2, 249982, Control_c, 0, 64, 93
2, 250001, Control_c, 0, 64, 94
2, 250020, Control_c, 0, 64, 95
2, 250039, Control_c, 0, 64, 95
2, 250059, Control_c, 0, 64, 96
2, 250077, Control_c, 0, 64, 98
2, 250097, Control_c, 0, 64, 100
2, 250116, Control_c, 0, 64, 103
2, 250135, Control_c, 0, 64, 105
2, 250154, Control_c, 0, 64, 105
2, 250193, Control_c, 0, 64, 105
2, 250211, Control_c, 0, 64, 104
2, 250231, Control_c, 0, 64, 104
2, 250250, Control_c, 0, 64, 102
2, 250270, Control_c, 0, 64, 101
2, 250287, Control_c, 0, 64, 99
2, 250307, Control_c, 0, 64, 96
2, 250326, Control_c, 0, 64, 94
2, 250346, Control_c, 0, 64, 90
2, 250364, Control_c, 0, 64, 85
2, 250384, Control_c, 0, 64, 80
2, 250403, Control_c, 0, 64, 75
2, 250404, Note_on_c, 0, 68, 75
2, 250405, Note_on_c, 0, 59, 72
2, 250422, Control_c, 0, 64, 71
2, 250441, Control_c, 0, 64, 68
2, 250461, Control_c, 0, 64, 65
2, 250480, Control_c, 0, 64, 61
2, 250499, Control_c, 0, 64, 43
2, 250518, Control_c, 0, 64, 0
2, 250633, Control_c, 0, 64, 36
2, 250652, Control_c, 0, 64, 61
2, 250672, Control_c, 0, 64, 67
2, 250690, Control_c, 0, 64, 70
2, 250710, Control_c, 0, 64, 73
2, 250729, Control_c, 0, 64, 78
2, 250749, Control_c, 0, 64, 82
2, 250767, Control_c, 0, 64, 85
2, 250787, Control_c, 0, 64, 86
2, 250826, Control_c, 0, 64, 86
2, 250844, Control_c, 0, 64, 87
2, 250845, Note_on_c, 0, 59, 0
2, 250864, Control_c, 0, 64, 88
2, 250883, Control_c, 0, 64, 89
2, 250902, Control_c, 0, 64, 89
2, 250921, Control_c, 0, 64, 90
2, 250941, Control_c, 0, 64, 90
2, 251018, Control_c, 0, 64, 90
2, 251036, Control_c, 0, 64, 89
2, 251055, Control_c, 0, 64, 89
2, 251095, Control_c, 0, 64, 88
2, 251134, Control_c, 0, 64, 88
2, 251154, Control_c, 0, 64, 86
2, 251170, Note_on_c, 0, 58, 70
2, 251172, Control_c, 0, 64, 85
2, 251192, Control_c, 0, 64, 82
2, 251211, Control_c, 0, 64, 79
2, 251231, Control_c, 0, 64, 77
2, 251249, Control_c, 0, 64, 74
2, 251269, Control_c, 0, 64, 72
2, 251288, Control_c, 0, 64, 70
2, 251307, Control_c, 0, 64, 69
2, 251326, Control_c, 0, 64, 68
2, 251365, Control_c, 0, 64, 67
2, 251384, Control_c, 0, 64, 65
2, 251403, Control_c, 0, 64, 60
2, 251423, Control_c, 0, 64, 49
2, 251441, Control_c, 0, 64, 36
2, 251461, Control_c, 0, 64, 32
2, 251634, Control_c, 0, 64, 32
2, 251672, Control_c, 0, 64, 31
2, 251691, Control_c, 0, 64, 31
2, 251845, Control_c, 0, 64, 29
2, 251864, Control_c, 0, 64, 28
2, 251883, Control_c, 0, 64, 27
2, 251903, Control_c, 0, 64, 23
2, 251921, Control_c, 0, 64, 21
2, 252055, Control_c, 0, 64, 20
2, 252074, Control_c, 0, 64, 15
2, 252093, Control_c, 0, 64, 0
2, 252123, Note_on_c, 0, 67, 62
2, 252237, Note_on_c, 0, 68, 0
2, 252324, Control_c, 0, 64, 13
2, 252343, Control_c, 0, 64, 47
2, 252362, Control_c, 0, 64, 61
2, 252382, Control_c, 0, 64, 66
2, 252401, Control_c, 0, 64, 68
2, 252420, Control_c, 0, 64, 71
2, 252439, Control_c, 0, 64, 74
2, 252459, Control_c, 0, 64, 80
2, 252477, Control_c, 0, 64, 86
2, 252497, Control_c, 0, 64, 93
2, 252516, Control_c, 0, 64, 102
2, 252535, Control_c, 0, 64, 127
2, 252586, Note_on_c, 0, 58, 0
2, 252710, Note_on_c, 0, 67, 0
2, 252796, Note_on_c, 0, 39, 0
2, 252941, Note_on_c, 0, 51, 0
2, 253491, Note_on_c, 0, 68, 69
2, 253513, Control_c, 0, 64, 123
2, 253525, Note_on_c, 0, 60, 52
2, 253532, Control_c, 0, 64, 106
2, 253543, Note_on_c, 0, 51, 37
2, 253552, Control_c, 0, 64, 98
2, 253565, Note_on_c, 0, 44, 42
2, 253568, Control_c, 0, 64, 91
2, 253587, Control_c, 0, 64, 83
2, 253607, Control_c, 0, 64, 76
2, 253626, Control_c, 0, 64, 71
2, 253644, Control_c, 0, 64, 69
2, 253703, Control_c, 0, 64, 68
2, 253721, Control_c, 0, 64, 68
2, 253741, Control_c, 0, 64, 66
2, 253760, Control_c, 0, 64, 65
2, 253798, Control_c, 0, 64, 64
2, 253818, Control_c, 0, 64, 64
2, 253837, Control_c, 0, 64, 63
2, 253856, Control_c, 0, 64, 61
2, 253875, Control_c, 0, 64, 58
2, 253895, Control_c, 0, 64, 51
2, 253913, Control_c, 0, 64, 45
2, 253933, Control_c, 0, 64, 39
2, 253952, Control_c, 0, 64, 36
2, 253972, Control_c, 0, 64, 34
2, 253990, Control_c, 0, 64, 32
2, 254087, Control_c, 0, 64, 35
2, 254106, Control_c, 0, 64, 39
2, 254124, Control_c, 0, 64, 40
2, 254144, Control_c, 0, 64, 40
2, 254163, Control_c, 0, 64, 41
2, 254183, Control_c, 0, 64, 42
2, 254201, Control_c, 0, 64, 46
2, 254221, Control_c, 0, 64, 50
2, 254240, Control_c, 0, 64, 51
2, 254298, Control_c, 0, 64, 52
2, 254317, Control_c, 0, 64, 53
2, 254393, Control_c, 0, 64, 53
2, 254413, Control_c, 0, 64, 54
2, 254432, Control_c, 0, 64, 55
2, 254509, Control_c, 0, 64, 55
2, 254528, Control_c, 0, 64, 56
2, 254547, Control_c, 0, 64, 57
2, 254604, Control_c, 0, 64, 58
2, 254624, Control_c, 0, 64, 59
2, 254643, Control_c, 0, 64, 59
2, 254701, Control_c, 0, 64, 60
2, 254720, Control_c, 0, 64, 60
2, 254739, Control_c, 0, 64, 61
2, 254816, Control_c, 0, 64, 61
2, 254835, Control_c, 0, 64, 62
2, 254855, Control_c, 0, 64, 62
2, 254932, Control_c, 0, 64, 63
2, 254970, Control_c, 0, 64, 63
2, 255027, Control_c, 0, 64, 64
2, 255066, Control_c, 0, 64, 64
2, 255104, Control_c, 0, 64, 65
2, 255181, Control_c, 0, 64, 65
2, 255200, Control_c, 0, 64, 66
2, 255219, Control_c, 0, 64, 66
2, 255238, Control_c, 0, 64, 67
2, 255277, Control_c, 0, 64, 68
2, 255296, Control_c, 0, 64, 69
2, 255315, Control_c, 0, 64, 70
2, 255335, Control_c, 0, 64, 70
2, 255353, Control_c, 0, 64, 71
2, 255373, Control_c, 0, 64, 72
2, 255392, Control_c, 0, 64, 73
2, 255412, Control_c, 0, 64, 74
2, 255430, Control_c, 0, 64, 75
2, 255450, Control_c, 0, 64, 76
2, 255466, Control_c, 0, 64, 79
2, 255485, Control_c, 0, 64, 81
2, 255504, Control_c, 0, 64, 82
2, 255521, Control_c, 0, 64, 83
2, 255540, Control_c, 0, 64, 84
2, 255559, Control_c, 0, 64, 84
2, 255578, Control_c, 0, 64, 85
2, 255598, Control_c, 0, 64, 86
2, 255617, Control_c, 0, 64, 88
2, 255636, Control_c, 0, 64, 88
2, 255655, Control_c, 0, 64, 89
2, 255675, Control_c, 0, 64, 89
2, 255713, Control_c, 0, 64, 90
2, 255732, Control_c, 0, 64, 90
2, 255752, Control_c, 0, 64, 91
2, 255770, Control_c, 0, 64, 92
2, 255809, Control_c, 0, 64, 92
2, 255828, Control_c, 0, 64, 93
2, 255867, Control_c, 0, 64, 93
2, 255884, Control_c, 0, 64, 94
2, 255903, Control_c, 0, 64, 94
2, 255922, Control_c, 0, 64, 95
2, 256035, Control_c, 0, 64, 95
2, 256967, Note_on_c, 0, 51, 0
2, 256991, Control_c, 0, 64, 95
2, 257049, Control_c, 0, 64, 94
2, 257183, Control_c, 0, 64, 94
2, 257279, Control_c, 0, 64, 93
2, 257336, Control_c, 0, 64, 93
2, 257351, Note_on_c, 0, 60, 0
2, 257362, Note_on_c, 0, 44, 0
2, 257375, Control_c, 0, 64, 92
2, 257394, Control_c, 0, 64, 92
2, 257433, Control_c, 0, 64, 91
2, 257452, Control_c, 0, 64, 91
2, 257567, Control_c, 0, 64, 90
2, 257586, Control_c, 0, 64, 90
2, 257624, Control_c, 0, 64, 89
2, 257663, Control_c, 0, 64, 89
2, 257668, Note_on_c, 0, 68, 0
2, 257701, Control_c, 0, 64, 88
2, 257721, Control_c, 0, 64, 88
2, 257778, Control_c, 0, 64, 87
2, 257798, Control_c, 0, 64, 87
2, 257874, Control_c, 0, 64, 86
2, 257893, Control_c, 0, 64, 86
2, 257913, Control_c, 0, 64, 85
2, 257932, Control_c, 0, 64, 84
2, 257950, Control_c, 0, 64, 84
2, 257969, Control_c, 0, 64, 83
2, 257988, Control_c, 0, 64, 83
2, 258008, Control_c, 0, 64, 81
2, 258026, Control_c, 0, 64, 79
2, 258046, Control_c, 0, 64, 78
2, 258103, Control_c, 0, 64, 77
2, 258123, Control_c, 0, 64, 76
2, 258142, Control_c, 0, 64, 74
2, 258161, Control_c, 0, 64, 74
2, 258257, Control_c, 0, 64, 73
2, 258277, Control_c, 0, 64, 72
2, 258295, Control_c, 0, 64, 72
2, 258392, Control_c, 0, 64, 71
2, 258411, Control_c, 0, 64, 71
2, 258488, Control_c, 0, 64, 70
2, 258545, Control_c, 0, 64, 70
2, 258564, Control_c, 0, 64, 69
2, 258583, Control_c, 0, 64, 69
2, 258641, Control_c, 0, 64, 68
2, 258660, Control_c, 0, 64, 67
2, 258680, Control_c, 0, 64, 67
2, 258699, Control_c, 0, 64, 66
2, 258758, Control_c, 0, 64, 66
2, 258776, Control_c, 0, 64, 65
2, 258796, Control_c, 0, 64, 64
2, 258873, Control_c, 0, 64, 64
2, 258892, Control_c, 0, 64, 63
2, 258910, Control_c, 0, 64, 62
2, 258986, Control_c, 0, 64, 62
2, 259006, Control_c, 0, 64, 61
2, 259025, Control_c, 0, 64, 60
2, 259102, Control_c, 0, 64, 60
2, 259121, Control_c, 0, 64, 59
2, 259140, Control_c, 0, 64, 59
2, 259198, Control_c, 0, 64, 58
2, 259217, Control_c, 0, 64, 57
2, 259237, Control_c, 0, 64, 57
2, 259352, Control_c, 0, 64, 56
2, 259428, Control_c, 0, 64, 56
2, 259466, Control_c, 0, 64, 55
2, 259505, Control_c, 0, 64, 55
2, 259813, Control_c, 0, 64, 55
2, 259814, End_track
0, 0, End_of_file
