0, 0, Header, 1, 2, 480
1, 0, Start_track
1, 0, Tempo, 500000
1, 0, Time_signature, 4, 2, 24, 8
1, 1, End_track
2, 0, Start_track
2, 0, Program_c, 0, 0
2, 435, Control_c, 0, 64, 13
2, 455, Control_c, 0, 64, 18
2, 492, Control_c, 0, 64, 19
2, 512, Control_c, 0, 64, 21
2, 531, Control_c, 0, 64, 22
2, 550, Control_c, 0, 64, 23
2, 569, Control_c, 0, 64, 24
2, 589, Control_c, 0, 64, 25
2, 607, Control_c, 0, 64, 27
2, 627, Control_c, 0, 64, 29
2, 646, Control_c, 0, 64, 31
2, 666, Control_c, 0, 64, 32
2, 704, Control_c, 0, 64, 32
2, 723, Control_c, 0, 64, 33
2, 742, Control_c, 0, 64, 34
2, 800, Control_c, 0, 64, 34
2, 819, Control_c, 0, 64, 35
2, 858, Control_c, 0, 64, 35
2, 935, Control_c, 0, 64, 36
2, 953, Control_c, 0, 64, 36
2, 968, Note_on_c, 0, 68, 43
2, 972, Control_c, 0, 64, 37
2, 992, Control_c, 0, 64, 37
2, 998, Note_on_c, 0, 56, 42
2, 1011, Control_c, 0, 64, 39
2, 1011, Note_on_c, 0, 59, 39
2, 1030, Control_c, 0, 64, 40
2, 1049, Control_c, 0, 64, 41
2, 1107, Control_c, 0, 64, 41
2, 1126, Control_c, 0, 64, 42
2, 1146, Control_c, 0, 64, 42
2, 1203, Control_c, 0, 64, 43
2, 1222, Control_c, 0, 64, 44
2, 1224, Note_on_c, 0, 70, 54
2, 1241, Control_c, 0, 64, 45
2, 1261, Control_c, 0, 64, 46
2, 1299, Control_c, 0, 64, 46
2, 1338, Control_c, 0, 64, 47
2, 1357, Note_on_c, 0, 68, 0
2, 1448, Note_on_c, 0, 71, 55
2, 1463, Note_on_c, 0, 70, 0
2, 1469, Note_on_c, 0, 63, 40
2, 1530, Control_c, 0, 64, 47
2, 1550, Control_c, 0, 64, 46
2, 1568, Control_c, 0, 64, 45
2, 1588, Control_c, 0, 64, 45
2, 1588, Note_on_c, 0, 59, 0
2, 1607, Control_c, 0, 64, 44
2, 1627, Control_c, 0, 64, 44
2, 1644, Control_c, 0, 64, 43
2, 1664, Control_c, 0, 64, 42
2, 1670, Note_on_c, 0, 68, 54
2, 1683, Control_c, 0, 64, 41
2, 1683, Note_on_c, 0, 71, 0
2, 1702, Control_c, 0, 64, 41
2, 1760, Control_c, 0, 64, 40
2, 1837, Control_c, 0, 64, 38
2, 1856, Control_c, 0, 64, 25
2, 1875, Control_c, 0, 64, 0
2, 1897, Note_on_c, 0, 70, 64
2, 1904, Note_on_c, 0, 61, 42
2, 1993, Note_on_c, 0, 68, 0
2, 2003, Note_on_c, 0, 63, 0
2, 2029, Control_c, 0, 64, 22
2, 2047, Control_c, 0, 64, 27
2, 2067, Control_c, 0, 64, 29
2, 2086, Control_c, 0, 64, 33
2, 2106, Control_c, 0, 64, 44
2, 2121, Note_on_c, 0, 73, 68
2, 2124, Control_c, 0, 64, 49
2, 2144, Control_c, 0, 64, 49
2, 2163, Control_c, 0, 64, 48
2, 2240, Control_c, 0, 64, 48
2, 2259, Control_c, 0, 64, 47
2, 2278, Control_c, 0, 64, 47
2, 2298, Control_c, 0, 64, 46
2, 2317, Control_c, 0, 64, 46
2, 2336, Control_c, 0, 64, 45
2, 2355, Control_c, 0, 64, 44
2, 2375, Control_c, 0, 64, 43
2, 2387, Note_on_c, 0, 55, 40
2, 2393, Control_c, 0, 64, 41
2, 2412, Control_c, 0, 64, 38
2, 2416, Note_on_c, 0, 76, 54
2, 2432, Control_c, 0, 64, 36
2, 2451, Control_c, 0, 64, 36
2, 2453, Note_on_c, 0, 70, 0
2, 2488, Note_on_c, 0, 73, 0
2, 2489, Control_c, 0, 64, 34
2, 2493, Note_on_c, 0, 61, 0
2, 2509, Control_c, 0, 64, 30
2, 2527, Control_c, 0, 64, 22
2, 2527, Note_on_c, 0, 56, 0
2, 2547, Control_c, 0, 64, 0
2, 2899, Note_on_c, 0, 75, 51
2, 2913, Note_on_c, 0, 59, 41
2, 2994, Note_on_c, 0, 76, 0
2, 3392, Note_on_c, 0, 58, 40
2, 3395, Note_on_c, 0, 73, 45
2, 3481, Note_on_c, 0, 59, 0
2, 3507, Note_on_c, 0, 75, 0
2, 3526, Control_c, 0, 64, 17
2, 3546, Control_c, 0, 64, 37
2, 3564, Control_c, 0, 64, 46
2, 3584, Control_c, 0, 64, 48
2, 3680, Control_c, 0, 64, 47
2, 3699, Control_c, 0, 64, 47
2, 3718, Control_c, 0, 64, 46
2, 3738, Control_c, 0, 64, 45
2, 3757, Control_c, 0, 64, 44
2, 3776, Control_c, 0, 64, 44
2, 3795, Control_c, 0, 64, 43
2, 3814, Control_c, 0, 64, 42
2, 3833, Control_c, 0, 64, 41
2, 3852, Control_c, 0, 64, 41
2, 3872, Control_c, 0, 64, 40
2, 3889, Note_on_c, 0, 71, 51
2, 3903, Note_on_c, 0, 56, 27
2, 3910, Control_c, 0, 64, 39
2, 3918, Note_on_c, 0, 58, 0
2, 3929, Control_c, 0, 64, 38
2, 3949, Control_c, 0, 64, 37
2, 3952, Note_on_c, 0, 73, 0
2, 3967, Control_c, 0, 64, 37
2, 4006, Control_c, 0, 64, 36
2, 4026, Control_c, 0, 64, 35
2, 4064, Control_c, 0, 64, 35
2, 4134, Note_on_c, 0, 58, 48
2, 4207, Note_on_c, 0, 56, 0
2, 4227, Note_on_c, 0, 55, 0
2, 4237, Control_c, 0, 64, 34
2, 4313, Control_c, 0, 64, 34
2, 4368, Note_on_c, 0, 58, 0
2, 4380, Note_on_c, 0, 80, 65
2, 4387, Note_on_c, 0, 75, 53
2, 4392, Control_c, 0, 64, 33
2, 4393, Note_on_c, 0, 59, 40
2, 4449, Control_c, 0, 64, 32
2, 4456, Note_on_c, 0, 71, 0
2, 4469, Control_c, 0, 64, 21
2, 4488, Control_c, 0, 64, 0
2, 4597, Note_on_c, 0, 56, 53
2, 4601, Note_on_c, 0, 59, 0
2, 4717, Control_c, 0, 64, 23
2, 4736, Control_c, 0, 64, 35
2, 4755, Control_c, 0, 64, 43
2, 4774, Control_c, 0, 64, 51
2, 4793, Control_c, 0, 64, 55
2, 4812, Control_c, 0, 64, 53
2, 4826, Note_on_c, 0, 58, 53
2, 4829, Note_on_c, 0, 73, 60
2, 4831, Note_on_c, 0, 70, 47
2, 4832, Control_c, 0, 64, 36
2, 4851, Control_c, 0, 64, 0
2, 4877, Note_on_c, 0, 56, 0
2, 4966, Control_c, 0, 64, 36
2, 4986, Control_c, 0, 64, 57
2, 5004, Control_c, 0, 64, 60
2, 5047, Note_on_c, 0, 61, 54
2, 5062, Control_c, 0, 64, 61
2, 5092, Note_on_c, 0, 58, 0
2, 5092, Note_on_c, 0, 75, 0
2, 5120, Control_c, 0, 64, 60
2, 5121, Note_on_c, 0, 80, 0
2, 5158, Control_c, 0, 64, 60
2, 5197, Control_c, 0, 64, 59
2, 5235, Control_c, 0, 64, 59
2, 5254, Control_c, 0, 64, 58
2, 5273, Control_c, 0, 64, 58
2, 5292, Control_c, 0, 64, 57
2, 5312, Control_c, 0, 64, 56
2, 5331, Control_c, 0, 64, 55
2, 5351, Control_c, 0, 64, 54
2, 5370, Control_c, 0, 64, 53
2, 5399, Note_on_c, 0, 79, 50
2, 5408, Control_c, 0, 64, 53
2, 5414, Note_on_c, 0, 64, 43
2, 5467, Control_c, 0, 64, 51
2, 5486, Control_c, 0, 64, 43
2, 5506, Control_c, 0, 64, 0
2, 5507, Note_on_c, 0, 61, 0
2, 5512, Note_on_c, 0, 73, 0
2, 5564, Note_on_c, 0, 70, 0
2, 5678, Control_c, 0, 64, 20
2, 5698, Control_c, 0, 64, 27
2, 5717, Control_c, 0, 64, 38
2, 5737, Control_c, 0, 64, 50
2, 5755, Control_c, 0, 64, 55
2, 5774, Control_c, 0, 64, 54
2, 5832, Control_c, 0, 64, 55
2, 5851, Control_c, 0, 64, 56
2, 5889, Control_c, 0, 64, 55
2, 5902, Note_on_c, 0, 71, 47
2, 5909, Control_c, 0, 64, 51
2, 5916, Note_on_c, 0, 63, 39
2, 5928, Control_c, 0, 64, 43
2, 5947, Control_c, 0, 64, 36
2, 5966, Control_c, 0, 64, 37
2, 5981, Note_on_c, 0, 64, 0
2, 5986, Control_c, 0, 64, 44
2, 6005, Control_c, 0, 64, 51
2, 6024, Control_c, 0, 64, 51
2, 6063, Control_c, 0, 64, 52
2, 6082, Control_c, 0, 64, 53
2, 6101, Control_c, 0, 64, 54
2, 6120, Control_c, 0, 64, 54
2, 6140, Control_c, 0, 64, 53
2, 6178, Control_c, 0, 64, 53
2, 6197, Control_c, 0, 64, 52
2, 6217, Control_c, 0, 64, 52
2, 6235, Control_c, 0, 64, 52
2, 6254, Control_c, 0, 64, 53
2, 6274, Control_c, 0, 64, 54
2, 6331, Control_c, 0, 64, 49
2, 6351, Control_c, 0, 64, 32
2, 6369, Control_c, 0, 64, 0
2, 6381, Note_on_c, 0, 70, 46
2, 6400, Note_on_c, 0, 61, 34
2, 6400, Note_on_c, 0, 71, 0
2, 6443, Control_c, 0, 64, 27
2, 6463, Control_c, 0, 64, 49
2, 6482, Control_c, 0, 64, 59
2, 6502, Control_c, 0, 64, 62
2, 6520, Control_c, 0, 64, 62
2, 6540, Control_c, 0, 64, 63
2, 6559, Control_c, 0, 64, 63
2, 6626, Note_on_c, 0, 70, 0
2, 6677, Note_on_c, 0, 79, 0
2, 6847, Control_c, 0, 64, 63
2, 6894, Note_on_c, 0, 61, 0
2, 6905, Control_c, 0, 64, 62
2, 6913, Note_on_c, 0, 59, 38
2, 6962, Control_c, 0, 64, 62
2, 6976, Note_on_c, 0, 80, 54
2, 6982, Control_c, 0, 64, 61
2, 7000, Control_c, 0, 64, 61
2, 7012, Note_on_c, 0, 75, 24
2, 7020, Control_c, 0, 64, 60
2, 7045, Note_on_c, 0, 63, 0
2, 7077, Control_c, 0, 64, 60
2, 7116, Control_c, 0, 64, 59
2, 7192, Control_c, 0, 64, 59
2, 7229, Note_on_c, 0, 82, 69
2, 7231, Control_c, 0, 64, 58
2, 7310, Control_c, 0, 64, 59
2, 7336, Note_on_c, 0, 80, 0
2, 7380, Note_on_c, 0, 75, 0
2, 7475, Note_on_c, 0, 83, 63
2, 7480, Control_c, 0, 64, 57
2, 7490, Note_on_c, 0, 68, 43
2, 7500, Control_c, 0, 64, 49
2, 7519, Control_c, 0, 64, 36
2, 7533, Note_on_c, 0, 82, 0
2, 7538, Control_c, 0, 64, 31
2, 7557, Control_c, 0, 64, 32
2, 7577, Control_c, 0, 64, 37
2, 7596, Control_c, 0, 64, 42
2, 7614, Control_c, 0, 64, 44
2, 7634, Control_c, 0, 64, 48
2, 7653, Control_c, 0, 64, 53
2, 7672, Control_c, 0, 64, 56
2, 7691, Control_c, 0, 64, 57
2, 7706, Note_on_c, 0, 75, 56
2, 7711, Control_c, 0, 64, 58
2, 7730, Control_c, 0, 64, 59
2, 7865, Control_c, 0, 64, 60
2, 7883, Control_c, 0, 64, 61
2, 7919, Note_on_c, 0, 61, 48
2, 7922, Control_c, 0, 64, 59
2, 7924, Note_on_c, 0, 76, 56
2, 7942, Control_c, 0, 64, 51
2, 7960, Control_c, 0, 64, 39
2, 7980, Control_c, 0, 64, 29
2, 7999, Control_c, 0, 64, 29
2, 8018, Control_c, 0, 64, 41
2, 8037, Control_c, 0, 64, 56
2, 8045, Note_on_c, 0, 75, 0
2, 8057, Control_c, 0, 64, 61
2, 8076, Control_c, 0, 64, 61
2, 8094, Control_c, 0, 64, 62
2, 8114, Control_c, 0, 64, 62
2, 8133, Control_c, 0, 64, 63
2, 8139, Note_on_c, 0, 80, 68
2, 8211, Note_on_c, 0, 76, 0
2, 8227, Note_on_c, 0, 83, 0
2, 8229, Control_c, 0, 64, 62
2, 8248, Control_c, 0, 64, 62
2, 8287, Control_c, 0, 64, 61
2, 8325, Control_c, 0, 64, 61
2, 8345, Control_c, 0, 64, 60
2, 8363, Control_c, 0, 64, 60
2, 8383, Control_c, 0, 64, 59
2, 8390, Note_on_c, 0, 58, 45
2, 8411, Note_on_c, 0, 78, 61
2, 8449, Note_on_c, 0, 68, 0
2, 8452, Note_on_c, 0, 80, 0
2, 8460, Control_c, 0, 64, 60
2, 8479, Control_c, 0, 64, 59
2, 8498, Control_c, 0, 64, 56
2, 8517, Control_c, 0, 64, 50
2, 8531, Note_on_c, 0, 59, 0
2, 8537, Control_c, 0, 64, 45
2, 8556, Control_c, 0, 64, 44
2, 8574, Control_c, 0, 64, 49
2, 8594, Control_c, 0, 64, 54
2, 8613, Control_c, 0, 64, 56
2, 8632, Control_c, 0, 64, 56
2, 8636, Note_on_c, 0, 80, 71
2, 8685, Note_on_c, 0, 61, 0
2, 8748, Control_c, 0, 64, 56
2, 8753, Note_on_c, 0, 78, 0
2, 8805, Control_c, 0, 64, 55
2, 8863, Control_c, 0, 64, 56
2, 8882, Control_c, 0, 64, 57
2, 8884, Note_on_c, 0, 82, 64
2, 8902, Control_c, 0, 64, 54
2, 8910, Note_on_c, 0, 66, 43
2, 8920, Control_c, 0, 64, 46
2, 8940, Control_c, 0, 64, 35
2, 8954, Note_on_c, 0, 80, 0
2, 8959, Control_c, 0, 64, 27
2, 8997, Control_c, 0, 64, 29
2, 9017, Control_c, 0, 64, 32
2, 9036, Control_c, 0, 64, 36
2, 9054, Control_c, 0, 64, 45
2, 9074, Control_c, 0, 64, 55
2, 9093, Control_c, 0, 64, 57
2, 9104, Note_on_c, 0, 73, 52
2, 9112, Control_c, 0, 64, 57
2, 9151, Control_c, 0, 64, 57
2, 9170, Control_c, 0, 64, 59
2, 9228, Control_c, 0, 64, 58
2, 9247, Control_c, 0, 64, 59
2, 9266, Control_c, 0, 64, 60
2, 9285, Control_c, 0, 64, 62
2, 9305, Control_c, 0, 64, 60
2, 9324, Control_c, 0, 64, 53
2, 9342, Note_on_c, 0, 75, 53
2, 9344, Control_c, 0, 64, 39
2, 9344, Note_on_c, 0, 59, 45
2, 9363, Control_c, 0, 64, 29
2, 9382, Control_c, 0, 64, 28
2, 9401, Control_c, 0, 64, 39
2, 9421, Control_c, 0, 64, 56
2, 9440, Control_c, 0, 64, 61
2, 9452, Note_on_c, 0, 58, 0
2, 9459, Control_c, 0, 64, 62
2, 9478, Control_c, 0, 64, 62
2, 9498, Control_c, 0, 64, 63
2, 9517, Control_c, 0, 64, 63
2, 9535, Control_c, 0, 64, 64
2, 9535, Note_on_c, 0, 73, 0
2, 9574, Control_c, 0, 64, 63
2, 9581, Note_on_c, 0, 78, 59
2, 9602, Note_on_c, 0, 75, 0
2, 9612, Control_c, 0, 64, 63
2, 9632, Control_c, 0, 64, 62
2, 9651, Control_c, 0, 64, 62
2, 9670, Control_c, 0, 64, 61
2, 9709, Control_c, 0, 64, 61
2, 9710, Note_on_c, 0, 82, 0
2, 9727, Control_c, 0, 64, 60
2, 9793, Note_on_c, 0, 56, 42
2, 9804, Note_on_c, 0, 76, 55
2, 9825, Note_on_c, 0, 78, 0
2, 9843, Control_c, 0, 64, 61
2, 9862, Control_c, 0, 64, 60
2, 9881, Control_c, 0, 64, 56
2, 9901, Control_c, 0, 64, 47
2, 9920, Control_c, 0, 64, 40
2, 9939, Control_c, 0, 64, 39
2, 9958, Control_c, 0, 64, 45
2, 9978, Control_c, 0, 64, 55
2, 9997, Control_c, 0, 64, 59
2, 10015, Control_c, 0, 64, 60
2, 10026, Note_on_c, 0, 66, 0
2, 10054, Control_c, 0, 64, 60
2, 10063, Note_on_c, 0, 78, 68
2, 10131, Control_c, 0, 64, 61
2, 10131, Note_on_c, 0, 76, 0
2, 10247, Control_c, 0, 64, 61
2, 10267, Control_c, 0, 64, 62
2, 10305, Control_c, 0, 64, 59
2, 10310, Note_on_c, 0, 80, 58
2, 10317, Note_on_c, 0, 64, 54
2, 10324, Control_c, 0, 64, 51
2, 10343, Control_c, 0, 64, 41
2, 10362, Control_c, 0, 64, 31
2, 10379, Note_on_c, 0, 78, 0
2, 10382, Note_on_c, 0, 59, 0
2, 10401, Control_c, 0, 64, 39
2, 10420, Control_c, 0, 64, 53
2, 10439, Control_c, 0, 64, 60
2, 10459, Control_c, 0, 64, 62
2, 10497, Control_c, 0, 64, 62
2, 10500, Note_on_c, 0, 56, 0
2, 10516, Control_c, 0, 64, 63
2, 10535, Control_c, 0, 64, 63
2, 10553, Note_on_c, 0, 71, 57
2, 10631, Control_c, 0, 64, 63
2, 10650, Control_c, 0, 64, 62
2, 10688, Control_c, 0, 64, 63
2, 10708, Control_c, 0, 64, 63
2, 10747, Control_c, 0, 64, 64
2, 10785, Control_c, 0, 64, 61
2, 10785, Note_on_c, 0, 73, 52
2, 10787, Note_on_c, 0, 52, 52
2, 10804, Control_c, 0, 64, 52
2, 10823, Control_c, 0, 64, 41
2, 10836, Note_on_c, 0, 71, 0
2, 10842, Control_c, 0, 64, 37
2, 10862, Control_c, 0, 64, 38
2, 10881, Control_c, 0, 64, 51
2, 10900, Control_c, 0, 64, 62
2, 10919, Control_c, 0, 64, 63
2, 10939, Control_c, 0, 64, 64
2, 10977, Control_c, 0, 64, 64
2, 10996, Control_c, 0, 64, 65
2, 11000, Note_on_c, 0, 76, 59
2, 11019, Note_on_c, 0, 73, 0
2, 11062, Note_on_c, 0, 80, 0
2, 11169, Control_c, 0, 64, 65
2, 11189, Control_c, 0, 64, 66
2, 11208, Control_c, 0, 64, 65
2, 11225, Note_on_c, 0, 54, 41
2, 11227, Control_c, 0, 64, 63
2, 11231, Note_on_c, 0, 70, 52
2, 11243, Control_c, 0, 64, 53
2, 11263, Control_c, 0, 64, 0
2, 11281, Note_on_c, 0, 52, 0
2, 11290, Note_on_c, 0, 64, 0
2, 11300, Note_on_c, 0, 76, 0
2, 11359, Control_c, 0, 64, 50
2, 11378, Control_c, 0, 64, 63
2, 11397, Control_c, 0, 64, 64
2, 11454, Control_c, 0, 64, 65
2, 11467, Note_on_c, 0, 70, 0
2, 11468, Note_on_c, 0, 71, 63
2, 11531, Control_c, 0, 64, 64
2, 11589, Control_c, 0, 64, 65
2, 11647, Control_c, 0, 64, 65
2, 11666, Control_c, 0, 64, 66
2, 11685, Control_c, 0, 64, 67
2, 11695, Note_on_c, 0, 73, 66
2, 11702, Note_on_c, 0, 56, 46
2, 11704, Note_on_c, 0, 63, 42
2, 11705, Control_c, 0, 64, 66
2, 11722, Note_on_c, 0, 71, 0
2, 11723, Control_c, 0, 64, 57
2, 11741, Note_on_c, 0, 54, 0
2, 11743, Control_c, 0, 64, 30
2, 11762, Control_c, 0, 64, 0
2, 11839, Control_c, 0, 64, 56
2, 11858, Control_c, 0, 64, 65
2, 11897, Control_c, 0, 64, 65
2, 11916, Control_c, 0, 64, 65
2, 11926, Note_on_c, 0, 66, 61
2, 11954, Note_on_c, 0, 73, 0
2, 11973, Control_c, 0, 64, 65
2, 12011, Control_c, 0, 64, 64
2, 12051, Control_c, 0, 64, 64
2, 12147, Control_c, 0, 64, 64
2, 12166, Control_c, 0, 64, 65
2, 12180, Note_on_c, 0, 61, 39
2, 12186, Control_c, 0, 64, 64
2, 12193, Note_on_c, 0, 58, 35
2, 12194, Note_on_c, 0, 56, 0
2, 12197, Note_on_c, 0, 63, 0
2, 12203, Control_c, 0, 64, 59
2, 12204, Note_on_c, 0, 73, 60
2, 12223, Control_c, 0, 64, 36
2, 12242, Control_c, 0, 64, 0
2, 12319, Control_c, 0, 64, 38
2, 12338, Control_c, 0, 64, 56
2, 12357, Control_c, 0, 64, 61
2, 12361, Note_on_c, 0, 66, 0
2, 12377, Control_c, 0, 64, 62
2, 12396, Control_c, 0, 64, 62
2, 12434, Control_c, 0, 64, 62
2, 12461, Note_on_c, 0, 76, 59
2, 12503, Note_on_c, 0, 73, 0
2, 12549, Control_c, 0, 64, 62
2, 12618, Note_on_c, 0, 58, 0
2, 12665, Control_c, 0, 64, 61
2, 12722, Control_c, 0, 64, 62
2, 12725, Note_on_c, 0, 59, 47
2, 12730, Note_on_c, 0, 75, 55
2, 12732, Note_on_c, 0, 76, 0
2, 12742, Control_c, 0, 64, 64
2, 12770, Note_on_c, 0, 61, 0
2, 12780, Control_c, 0, 64, 62
2, 12799, Control_c, 0, 64, 56
2, 12818, Control_c, 0, 64, 47
2, 12837, Control_c, 0, 64, 44
2, 12857, Control_c, 0, 64, 45
2, 12876, Control_c, 0, 64, 51
2, 12894, Control_c, 0, 64, 56
2, 12914, Control_c, 0, 64, 58
2, 12933, Control_c, 0, 64, 60
2, 12952, Control_c, 0, 64, 61
2, 12982, Note_on_c, 0, 61, 47
2, 12982, Note_on_c, 0, 76, 60
2, 12991, Control_c, 0, 64, 61
2, 13001, Note_on_c, 0, 59, 0
2, 13010, Control_c, 0, 64, 62
2, 13042, Note_on_c, 0, 75, 0
2, 13145, Control_c, 0, 64, 61
2, 13183, Control_c, 0, 64, 62
2, 13212, Note_on_c, 0, 61, 0
2, 13215, Note_on_c, 0, 78, 60
2, 13225, Note_on_c, 0, 63, 50
2, 13250, Note_on_c, 0, 76, 0
2, 13260, Control_c, 0, 64, 62
2, 13448, Note_on_c, 0, 75, 62
2, 13453, Note_on_c, 0, 59, 54
2, 13509, Control_c, 0, 64, 61
2, 13527, Note_on_c, 0, 78, 0
2, 13528, Control_c, 0, 64, 61
2, 13536, Note_on_c, 0, 63, 0
2, 13548, Control_c, 0, 64, 60
2, 13567, Control_c, 0, 64, 59
2, 13586, Control_c, 0, 64, 58
2, 13605, Control_c, 0, 64, 57
2, 13625, Control_c, 0, 64, 56
2, 13663, Control_c, 0, 64, 55
2, 13679, Note_on_c, 0, 61, 58
2, 13682, Control_c, 0, 64, 53
2, 13689, Note_on_c, 0, 76, 63
2, 13702, Control_c, 0, 64, 52
2, 13720, Control_c, 0, 64, 51
2, 13740, Control_c, 0, 64, 50
2, 13759, Control_c, 0, 64, 49
2, 13778, Control_c, 0, 64, 48
2, 13780, Note_on_c, 0, 59, 0
2, 13797, Control_c, 0, 64, 48
2, 13816, Control_c, 0, 64, 47
2, 13828, Note_on_c, 0, 75, 0
2, 13836, Control_c, 0, 64, 46
2, 13854, Control_c, 0, 64, 46
2, 13874, Control_c, 0, 64, 43
2, 13893, Control_c, 0, 64, 40
2, 13908, Note_on_c, 0, 64, 62
2, 13910, Note_on_c, 0, 80, 59
2, 13912, Control_c, 0, 64, 37
2, 13934, Control_c, 0, 64, 35
2, 13954, Control_c, 0, 64, 32
2, 13963, Note_on_c, 0, 76, 0
2, 13973, Control_c, 0, 64, 26
2, 13992, Control_c, 0, 64, 0
2, 14035, Note_on_c, 0, 61, 0
2, 14190, Note_on_c, 0, 71, 52
2, 14191, Note_on_c, 0, 68, 58
2, 14225, Note_on_c, 0, 80, 0
2, 14246, Note_on_c, 0, 64, 0
2, 14452, Note_on_c, 0, 70, 55
2, 14479, Note_on_c, 0, 71, 0
2, 14568, Control_c, 0, 64, 27
2, 14587, Control_c, 0, 64, 31
2, 14606, Control_c, 0, 64, 0
2, 14674, Note_on_c, 0, 66, 47
2, 14677, Note_on_c, 0, 71, 46
2, 14688, Note_on_c, 0, 70, 0
2, 14736, Note_on_c, 0, 68, 0
2, 14760, Control_c, 0, 64, 29
2, 14779, Control_c, 0, 64, 46
2, 14799, Control_c, 0, 64, 54
2, 14817, Control_c, 0, 64, 56
2, 14837, Control_c, 0, 64, 56
2, 14856, Control_c, 0, 64, 57
2, 14875, Control_c, 0, 64, 57
2, 14915, Note_on_c, 0, 70, 54
2, 14933, Control_c, 0, 64, 57
2, 14950, Note_on_c, 0, 71, 0
2, 14952, Control_c, 0, 64, 56
2, 15048, Control_c, 0, 64, 57
2, 15067, Control_c, 0, 64, 57
2, 15086, Control_c, 0, 64, 59
2, 15105, Control_c, 0, 64, 60
2, 15125, Control_c, 0, 64, 56
2, 15144, Control_c, 0, 64, 35
2, 15150, Note_on_c, 0, 71, 46
2, 15151, Note_on_c, 0, 66, 0
2, 15163, Control_c, 0, 64, 0
2, 15164, Note_on_c, 0, 64, 40
2, 15164, Note_on_c, 0, 70, 0
2, 15240, Control_c, 0, 64, 44
2, 15259, Control_c, 0, 64, 61
2, 15279, Control_c, 0, 64, 63
2, 15317, Control_c, 0, 64, 64
2, 15336, Control_c, 0, 64, 64
2, 15355, Control_c, 0, 64, 65
2, 15369, Note_on_c, 0, 64, 0
2, 15409, Note_on_c, 0, 73, 51
2, 15418, Note_on_c, 0, 71, 0
2, 15547, Control_c, 0, 64, 64
2, 15585, Control_c, 0, 64, 64
2, 15605, Control_c, 0, 64, 63
2, 15624, Control_c, 0, 64, 63
2, 15647, Note_on_c, 0, 47, 41
2, 15662, Control_c, 0, 64, 63
2, 15673, Note_on_c, 0, 63, 45
2, 15682, Control_c, 0, 64, 64
2, 15720, Control_c, 0, 64, 63
2, 15738, Control_c, 0, 64, 55
2, 15758, Control_c, 0, 64, 39
2, 15776, Control_c, 0, 64, 28
2, 15815, Control_c, 0, 64, 38
2, 15819, Note_on_c, 0, 73, 0
2, 15834, Control_c, 0, 64, 55
2, 15853, Control_c, 0, 64, 61
2, 15892, Control_c, 0, 64, 62
2, 15918, Note_on_c, 0, 49, 52
2, 15918, Note_on_c, 0, 64, 49
2, 15930, Control_c, 0, 64, 62
2, 15985, Note_on_c, 0, 47, 0
2, 15987, Control_c, 0, 64, 62
2, 16026, Control_c, 0, 64, 61
2, 16084, Control_c, 0, 64, 62
2, 16103, Control_c, 0, 64, 62
2, 16112, Note_on_c, 0, 63, 0
2, 16134, Note_on_c, 0, 51, 52
2, 16141, Control_c, 0, 64, 59
2, 16143, Note_on_c, 0, 64, 0
2, 16145, Note_on_c, 0, 71, 58
2, 16152, Note_on_c, 0, 66, 30
2, 16156, Note_on_c, 0, 49, 0
2, 16161, Control_c, 0, 64, 50
2, 16179, Control_c, 0, 64, 36
2, 16199, Control_c, 0, 64, 31
2, 16218, Control_c, 0, 64, 32
2, 16238, Control_c, 0, 64, 42
2, 16256, Control_c, 0, 64, 52
2, 16276, Control_c, 0, 64, 53
2, 16314, Control_c, 0, 64, 55
2, 16333, Control_c, 0, 64, 58
2, 16353, Control_c, 0, 64, 60
2, 16370, Note_on_c, 0, 47, 51
2, 16380, Note_on_c, 0, 63, 55
2, 16391, Note_on_c, 0, 66, 0
2, 16394, Note_on_c, 0, 51, 0
2, 16506, Control_c, 0, 64, 61
2, 16525, Control_c, 0, 64, 61
2, 16613, Note_on_c, 0, 64, 55
2, 16614, Note_on_c, 0, 49, 59
2, 16621, Control_c, 0, 64, 61
2, 16659, Control_c, 0, 64, 60
2, 16696, Note_on_c, 0, 47, 0
2, 16736, Control_c, 0, 64, 61
2, 16744, Note_on_c, 0, 63, 0
2, 16794, Control_c, 0, 64, 60
2, 16813, Control_c, 0, 64, 55
2, 16833, Control_c, 0, 64, 44
2, 16839, Note_on_c, 0, 52, 55
2, 16853, Control_c, 0, 64, 34
2, 16858, Note_on_c, 0, 68, 61
2, 16872, Control_c, 0, 64, 33
2, 16891, Control_c, 0, 64, 39
2, 16900, Note_on_c, 0, 71, 0
2, 16903, Note_on_c, 0, 49, 0
2, 16911, Control_c, 0, 64, 51
2, 16929, Control_c, 0, 64, 55
2, 16948, Control_c, 0, 64, 55
2, 16968, Control_c, 0, 64, 56
2, 16969, Note_on_c, 0, 64, 0
2, 16987, Control_c, 0, 64, 57
2, 17139, Control_c, 0, 64, 57
2, 17159, Control_c, 0, 64, 58
2, 17160, Note_on_c, 0, 61, 43
2, 17161, Note_on_c, 0, 56, 54
2, 17178, Control_c, 0, 64, 59
2, 17213, Note_on_c, 0, 52, 0
2, 17216, Control_c, 0, 64, 55
2, 17236, Control_c, 0, 64, 43
2, 17255, Control_c, 0, 64, 31
2, 17274, Control_c, 0, 64, 30
2, 17275, Note_on_c, 0, 68, 0
2, 17293, Control_c, 0, 64, 37
2, 17313, Control_c, 0, 64, 53
2, 17332, Control_c, 0, 64, 59
2, 17390, Control_c, 0, 64, 60
2, 17409, Control_c, 0, 64, 61
2, 17450, Note_on_c, 0, 71, 59
2, 17466, Control_c, 0, 64, 60
2, 17543, Control_c, 0, 64, 60
2, 17562, Control_c, 0, 64, 60
2, 17581, Control_c, 0, 64, 61
2, 17601, Control_c, 0, 64, 62
2, 17619, Control_c, 0, 64, 62
2, 17658, Control_c, 0, 64, 60
2, 17678, Control_c, 0, 64, 54
2, 17686, Note_on_c, 0, 54, 51
2, 17692, Note_on_c, 0, 70, 68
2, 17696, Control_c, 0, 64, 43
2, 17714, Note_on_c, 0, 71, 0
2, 17716, Control_c, 0, 64, 32
2, 17735, Control_c, 0, 64, 31
2, 17754, Control_c, 0, 64, 39
2, 17773, Control_c, 0, 64, 51
2, 17783, Note_on_c, 0, 56, 0
2, 17793, Control_c, 0, 64, 54
2, 17812, Control_c, 0, 64, 55
2, 17831, Control_c, 0, 64, 56
2, 17850, Control_c, 0, 64, 57
2, 17870, Control_c, 0, 64, 57
2, 17927, Control_c, 0, 64, 57
2, 17932, Note_on_c, 0, 71, 71
2, 17982, Note_on_c, 0, 70, 0
2, 17984, Control_c, 0, 64, 57
2, 18042, Control_c, 0, 64, 58
2, 18061, Control_c, 0, 64, 60
2, 18081, Control_c, 0, 64, 60
2, 18099, Control_c, 0, 64, 58
2, 18119, Control_c, 0, 64, 48
2, 18138, Control_c, 0, 64, 28
2, 18141, Note_on_c, 0, 52, 44
2, 18158, Control_c, 0, 64, 0
2, 18160, Note_on_c, 0, 73, 67
2, 18166, Note_on_c, 0, 54, 0
2, 18196, Control_c, 0, 64, 29
2, 18212, Note_on_c, 0, 71, 0
2, 18215, Control_c, 0, 64, 46
2, 18234, Control_c, 0, 64, 53
2, 18253, Control_c, 0, 64, 56
2, 18273, Control_c, 0, 64, 58
2, 18392, Note_on_c, 0, 70, 69
2, 18445, Control_c, 0, 64, 58
2, 18464, Note_on_c, 0, 73, 0
2, 18503, Control_c, 0, 64, 59
2, 18522, Control_c, 0, 64, 59
2, 18561, Control_c, 0, 64, 60
2, 18599, Control_c, 0, 64, 59
2, 18604, Note_on_c, 0, 52, 0
2, 18618, Control_c, 0, 64, 52
2, 18621, Note_on_c, 0, 51, 42
2, 18638, Control_c, 0, 64, 36
2, 18653, Note_on_c, 0, 66, 56
2, 18656, Control_c, 0, 64, 19
2, 18676, Control_c, 0, 64, 18
2, 18695, Control_c, 0, 64, 33
2, 18699, Note_on_c, 0, 70, 0
2, 18714, Control_c, 0, 64, 53
2, 18733, Control_c, 0, 64, 58
2, 18772, Control_c, 0, 64, 59
2, 18791, Control_c, 0, 64, 60
2, 18810, Control_c, 0, 64, 62
2, 18880, Note_on_c, 0, 52, 47
2, 18897, Note_on_c, 0, 51, 0
2, 18906, Control_c, 0, 64, 61
2, 18945, Control_c, 0, 64, 61
2, 19004, Note_on_c, 0, 61, 0
2, 19042, Control_c, 0, 64, 61
2, 19099, Control_c, 0, 64, 60
2, 19119, Control_c, 0, 64, 53
2, 19124, Note_on_c, 0, 52, 0
2, 19130, Note_on_c, 0, 54, 50
2, 19137, Control_c, 0, 64, 35
2, 19146, Note_on_c, 0, 59, 57
2, 19157, Control_c, 0, 64, 0
2, 19214, Control_c, 0, 64, 17
2, 19234, Control_c, 0, 64, 34
2, 19253, Control_c, 0, 64, 42
2, 19272, Control_c, 0, 64, 50
2, 19291, Control_c, 0, 64, 57
2, 19311, Control_c, 0, 64, 60
2, 19329, Control_c, 0, 64, 60
2, 19352, Note_on_c, 0, 57, 62
2, 19357, Note_on_c, 0, 51, 56
2, 19358, Note_on_c, 0, 54, 0
2, 19371, Note_on_c, 0, 59, 0
2, 19387, Control_c, 0, 64, 61
2, 19406, Control_c, 0, 64, 63
2, 19445, Control_c, 0, 64, 56
2, 19463, Control_c, 0, 64, 36
2, 19483, Control_c, 0, 64, 0
2, 19550, Note_on_c, 0, 57, 0
2, 19579, Control_c, 0, 64, 17
2, 19587, Note_on_c, 0, 53, 57
2, 19599, Control_c, 0, 64, 36
2, 19602, Note_on_c, 0, 61, 64
2, 19617, Control_c, 0, 64, 50
2, 19634, Note_on_c, 0, 51, 0
2, 19637, Control_c, 0, 64, 58
2, 19656, Control_c, 0, 64, 57
2, 19675, Control_c, 0, 64, 49
2, 19694, Control_c, 0, 64, 21
2, 19714, Control_c, 0, 64, 0
2, 19773, Control_c, 0, 64, 25
2, 19793, Control_c, 0, 64, 51
2, 19811, Control_c, 0, 64, 58
2, 19815, Note_on_c, 0, 59, 66
2, 19824, Note_on_c, 0, 56, 66
2, 19831, Control_c, 0, 64, 59
2, 19843, Note_on_c, 0, 61, 0
2, 19850, Control_c, 0, 64, 60
2, 19868, Control_c, 0, 64, 60
2, 19878, Note_on_c, 0, 53, 0
2, 19959, Note_on_c, 0, 59, 0
2, 19983, Control_c, 0, 64, 60
2, 20003, Control_c, 0, 64, 60
2, 20021, Control_c, 0, 64, 61
2, 20041, Control_c, 0, 64, 62
2, 20060, Control_c, 0, 64, 63
2, 20077, Note_on_c, 0, 62, 52
2, 20079, Control_c, 0, 64, 64
2, 20090, Note_on_c, 0, 59, 63
2, 20098, Control_c, 0, 64, 64
2, 20117, Note_on_c, 0, 56, 0
2, 20118, Control_c, 0, 64, 56
2, 20137, Control_c, 0, 64, 27
2, 20139, Note_on_c, 0, 66, 0
2, 20156, Control_c, 0, 64, 0
2, 20214, Control_c, 0, 64, 23
2, 20233, Control_c, 0, 64, 55
2, 20252, Control_c, 0, 64, 61
2, 20290, Control_c, 0, 64, 62
2, 20310, Control_c, 0, 64, 63
2, 20329, Control_c, 0, 64, 63
2, 20339, Note_on_c, 0, 65, 60
2, 20341, Note_on_c, 0, 62, 0
2, 20370, Control_c, 0, 64, 63
2, 20389, Control_c, 0, 64, 62
2, 20409, Control_c, 0, 64, 62
2, 20447, Control_c, 0, 64, 61
2, 20466, Control_c, 0, 64, 62
2, 20504, Control_c, 0, 64, 62
2, 20524, Control_c, 0, 64, 63
2, 20543, Control_c, 0, 64, 63
2, 20562, Control_c, 0, 64, 60
2, 20576, Note_on_c, 0, 66, 64
2, 20578, Note_on_c, 0, 57, 50
2, 20580, Note_on_c, 0, 65, 0
2, 20581, Control_c, 0, 64, 48
2, 20595, Note_on_c, 0, 61, 49
2, 20600, Control_c, 0, 64, 35
2, 20620, Control_c, 0, 64, 31
2, 20638, Control_c, 0, 64, 33
2, 20658, Control_c, 0, 64, 43
2, 20677, Control_c, 0, 64, 52
2, 20697, Control_c, 0, 64, 56
2, 20715, Control_c, 0, 64, 59
2, 20735, Control_c, 0, 64, 59
2, 20812, Control_c, 0, 64, 59
2, 20815, Note_on_c, 0, 59, 0
2, 20815, Note_on_c, 0, 65, 60
2, 20848, Control_c, 0, 64, 58
2, 20850, Note_on_c, 0, 66, 0
2, 20944, Control_c, 0, 64, 59
2, 20964, Control_c, 0, 64, 59
2, 20982, Control_c, 0, 64, 60
2, 21002, Control_c, 0, 64, 60
2, 21021, Control_c, 0, 64, 59
2, 21040, Control_c, 0, 64, 51
2, 21051, Note_on_c, 0, 59, 47
2, 21059, Control_c, 0, 64, 30
2, 21060, Note_on_c, 0, 57, 0
2, 21061, Note_on_c, 0, 66, 59
2, 21078, Control_c, 0, 64, 0
2, 21087, Note_on_c, 0, 65, 0
2, 21092, Note_on_c, 0, 56, 39
2, 21136, Control_c, 0, 64, 23
2, 21145, Note_on_c, 0, 61, 0
2, 21155, Control_c, 0, 64, 43
2, 21175, Control_c, 0, 64, 52
2, 21193, Control_c, 0, 64, 57
2, 21213, Control_c, 0, 64, 58
2, 21252, Control_c, 0, 64, 58
2, 21312, Note_on_c, 0, 68, 56
2, 21333, Note_on_c, 0, 66, 0
2, 21347, Control_c, 0, 64, 57
2, 21386, Control_c, 0, 64, 57
2, 21424, Control_c, 0, 64, 56
2, 21444, Control_c, 0, 64, 56
2, 21462, Control_c, 0, 64, 55
2, 21516, Note_on_c, 0, 54, 37
2, 21520, Control_c, 0, 64, 56
2, 21539, Control_c, 0, 64, 56
2, 21558, Control_c, 0, 64, 57
2, 21596, Control_c, 0, 64, 53
2, 21605, Note_on_c, 0, 61, 50
2, 21612, Note_on_c, 0, 68, 0
2, 21616, Control_c, 0, 64, 41
2, 21617, Note_on_c, 0, 56, 0
2, 21635, Control_c, 0, 64, 18
2, 21655, Control_c, 0, 64, 0
2, 21667, Note_on_c, 0, 59, 0
2, 21692, Control_c, 0, 64, 21
2, 21711, Control_c, 0, 64, 30
2, 21731, Control_c, 0, 64, 37
2, 21749, Control_c, 0, 64, 46
2, 21769, Control_c, 0, 64, 51
2, 21788, Control_c, 0, 64, 51
2, 21842, Note_on_c, 0, 63, 51
2, 21942, Control_c, 0, 64, 52
2, 21960, Control_c, 0, 64, 53
2, 21980, Control_c, 0, 64, 54
2, 21986, Note_on_c, 0, 61, 0
2, 21999, Control_c, 0, 64, 56
2, 22018, Control_c, 0, 64, 57
2, 22037, Control_c, 0, 64, 58
2, 22057, Control_c, 0, 64, 56
2, 22066, Note_on_c, 0, 57, 42
2, 22070, Note_on_c, 0, 63, 0
2, 22070, Note_on_c, 0, 64, 56
2, 22076, Control_c, 0, 64, 43
2, 22095, Control_c, 0, 64, 0
2, 22153, Note_on_c, 0, 54, 0
2, 22191, Control_c, 0, 64, 15
2, 22211, Control_c, 0, 64, 33
2, 22229, Control_c, 0, 64, 48
2, 22249, Control_c, 0, 64, 55
2, 22268, Control_c, 0, 64, 55
2, 22296, Note_on_c, 0, 56, 55
2, 22299, Note_on_c, 0, 61, 62
2, 22307, Note_on_c, 0, 64, 0
2, 22326, Control_c, 0, 64, 56
2, 22345, Control_c, 0, 64, 56
2, 22358, Note_on_c, 0, 57, 0
2, 22422, Control_c, 0, 64, 57
2, 22460, Control_c, 0, 64, 57
2, 22479, Control_c, 0, 64, 58
2, 22492, Note_on_c, 0, 56, 0
2, 22498, Control_c, 0, 64, 60
2, 22517, Control_c, 0, 64, 61
2, 22524, Note_on_c, 0, 63, 66
2, 22536, Note_on_c, 0, 57, 50
2, 22537, Control_c, 0, 64, 62
2, 22556, Control_c, 0, 64, 61
2, 22575, Control_c, 0, 64, 53
2, 22594, Control_c, 0, 64, 29
2, 22614, Control_c, 0, 64, 0
2, 22684, Note_on_c, 0, 61, 0
2, 22691, Control_c, 0, 64, 13
2, 22709, Control_c, 0, 64, 24
2, 22729, Control_c, 0, 64, 39
2, 22733, Note_on_c, 0, 57, 0
2, 22748, Control_c, 0, 64, 49
2, 22751, Note_on_c, 0, 66, 68
2, 22754, Note_on_c, 0, 54, 50
2, 22767, Control_c, 0, 64, 53
2, 22786, Control_c, 0, 64, 53
2, 22825, Control_c, 0, 64, 54
2, 22844, Control_c, 0, 64, 55
2, 22857, Note_on_c, 0, 63, 0
2, 22863, Control_c, 0, 64, 56
2, 22940, Control_c, 0, 64, 57
2, 22959, Control_c, 0, 64, 59
2, 22978, Control_c, 0, 64, 59
2, 22997, Control_c, 0, 64, 60
2, 23003, Note_on_c, 0, 54, 0
2, 23015, Note_on_c, 0, 69, 69
2, 23017, Control_c, 0, 64, 61
2, 23036, Control_c, 0, 64, 61
2, 23036, Note_on_c, 0, 60, 44
2, 23055, Control_c, 0, 64, 62
2, 23074, Control_c, 0, 64, 63
2, 23111, Note_on_c, 0, 66, 0
2, 23132, Control_c, 0, 64, 62
2, 23151, Control_c, 0, 64, 57
2, 23171, Control_c, 0, 64, 50
2, 23189, Control_c, 0, 64, 46
2, 23209, Control_c, 0, 64, 47
2, 23228, Control_c, 0, 64, 52
2, 23247, Control_c, 0, 64, 58
2, 23253, Note_on_c, 0, 60, 0
2, 23266, Control_c, 0, 64, 59
2, 23270, Note_on_c, 0, 54, 51
2, 23286, Control_c, 0, 64, 60
2, 23305, Control_c, 0, 64, 60
2, 23324, Control_c, 0, 64, 61
2, 23343, Control_c, 0, 64, 61
2, 23363, Control_c, 0, 64, 62
2, 23420, Control_c, 0, 64, 62
2, 23439, Control_c, 0, 64, 63
2, 23458, Control_c, 0, 64, 64
2, 23477, Control_c, 0, 64, 64
2, 23483, Note_on_c, 0, 68, 66
2, 23490, Note_on_c, 0, 52, 53
2, 23516, Control_c, 0, 64, 63
2, 23518, Note_on_c, 0, 61, 43
2, 23535, Control_c, 0, 64, 59
2, 23554, Control_c, 0, 64, 45
2, 23574, Control_c, 0, 64, 33
2, 23577, Note_on_c, 0, 54, 0
2, 23593, Control_c, 0, 64, 30
2, 23613, Control_c, 0, 64, 31
2, 23632, Control_c, 0, 64, 38
2, 23652, Control_c, 0, 64, 49
2, 23670, Control_c, 0, 64, 58
2, 23672, Note_on_c, 0, 69, 0
2, 23690, Control_c, 0, 64, 61
2, 23728, Note_on_c, 0, 51, 56
2, 23747, Control_c, 0, 64, 62
2, 23766, Note_on_c, 0, 52, 0
2, 23767, Control_c, 0, 64, 62
2, 23805, Control_c, 0, 64, 62
2, 23901, Control_c, 0, 64, 62
2, 23920, Control_c, 0, 64, 63
2, 23939, Control_c, 0, 64, 64
2, 23956, Note_on_c, 0, 66, 66
2, 23958, Control_c, 0, 64, 64
2, 23966, Note_on_c, 0, 49, 49
2, 23973, Note_on_c, 0, 51, 0
2, 23976, Note_on_c, 0, 63, 56
2, 23978, Control_c, 0, 64, 63
2, 23996, Control_c, 0, 64, 54
2, 24016, Control_c, 0, 64, 30
2, 24035, Control_c, 0, 64, 0
2, 24092, Note_on_c, 0, 68, 0
2, 24093, Control_c, 0, 64, 29
2, 24112, Control_c, 0, 64, 63
2, 24132, Control_c, 0, 64, 68
2, 24150, Control_c, 0, 64, 68
2, 24151, Note_on_c, 0, 61, 0
2, 24189, Control_c, 0, 64, 70
2, 24198, Note_on_c, 0, 48, 59
2, 24208, Control_c, 0, 64, 73
2, 24227, Control_c, 0, 64, 77
2, 24247, Control_c, 0, 64, 79
2, 24256, Note_on_c, 0, 49, 0
2, 24260, Note_on_c, 0, 48, 0
2, 24266, Control_c, 0, 64, 79
2, 24285, Control_c, 0, 64, 78
2, 24304, Control_c, 0, 64, 78
2, 24324, Control_c, 0, 64, 77
2, 24342, Control_c, 0, 64, 77
2, 24348, Note_on_c, 0, 63, 0
2, 24362, Control_c, 0, 64, 76
2, 24381, Control_c, 0, 64, 76
2, 24419, Control_c, 0, 64, 75
2, 24438, Control_c, 0, 64, 74
2, 24451, Note_on_c, 0, 64, 60
2, 24458, Control_c, 0, 64, 72
2, 24476, Control_c, 0, 64, 68
2, 24479, Note_on_c, 0, 56, 56
2, 24482, Note_on_c, 0, 49, 50
2, 24496, Control_c, 0, 64, 64
2, 24515, Control_c, 0, 64, 60
2, 24535, Control_c, 0, 64, 56
2, 24553, Control_c, 0, 64, 47
2, 24571, Note_on_c, 0, 66, 0
2, 24573, Control_c, 0, 64, 26
2, 24592, Control_c, 0, 64, 0
2, 24706, Note_on_c, 0, 58, 63
2, 24737, Note_on_c, 0, 56, 0
2, 24745, Control_c, 0, 64, 15
2, 24764, Control_c, 0, 64, 38
2, 24783, Control_c, 0, 64, 46
2, 24803, Control_c, 0, 64, 49
2, 24822, Control_c, 0, 64, 51
2, 24840, Control_c, 0, 64, 54
2, 24860, Control_c, 0, 64, 56
2, 24917, Control_c, 0, 64, 56
2, 24935, Note_on_c, 0, 59, 68
2, 24937, Control_c, 0, 64, 57
2, 24956, Control_c, 0, 64, 57
2, 24975, Control_c, 0, 64, 58
2, 24978, Note_on_c, 0, 58, 0
2, 25148, Control_c, 0, 64, 57
2, 25158, Note_on_c, 0, 56, 66
2, 25225, Control_c, 0, 64, 57
2, 25244, Control_c, 0, 64, 56
2, 25257, Note_on_c, 0, 59, 0
2, 25283, Control_c, 0, 64, 56
2, 25320, Control_c, 0, 64, 56
2, 25340, Control_c, 0, 64, 57
2, 25359, Control_c, 0, 64, 55
2, 25378, Control_c, 0, 64, 35
2, 25397, Control_c, 0, 64, 0
2, 25413, Note_on_c, 0, 58, 56
2, 25413, Note_on_c, 0, 73, 70
2, 25417, Note_on_c, 0, 56, 0
2, 25473, Note_on_c, 0, 64, 0
2, 25494, Control_c, 0, 64, 52
2, 25512, Control_c, 0, 64, 63
2, 25532, Control_c, 0, 64, 63
2, 25551, Control_c, 0, 64, 64
2, 25571, Control_c, 0, 64, 64
2, 25587, Control_c, 0, 64, 66
2, 25601, Note_on_c, 0, 58, 0
2, 25607, Control_c, 0, 64, 67
2, 25626, Control_c, 0, 64, 68
2, 25629, Note_on_c, 0, 49, 0
2, 25645, Control_c, 0, 64, 69
2, 25690, Note_on_c, 0, 61, 64
2, 25780, Control_c, 0, 64, 68
2, 25805, Note_on_c, 0, 73, 0
2, 25837, Control_c, 0, 64, 68
2, 25897, Note_on_c, 0, 43, 49
2, 25914, Control_c, 0, 64, 65
2, 25933, Control_c, 0, 64, 56
2, 25952, Control_c, 0, 64, 15
2, 25972, Control_c, 0, 64, 0
2, 26006, Note_on_c, 0, 70, 65
2, 26013, Note_on_c, 0, 64, 56
2, 26029, Control_c, 0, 64, 36
2, 26049, Control_c, 0, 64, 59
2, 26067, Control_c, 0, 64, 64
2, 26087, Control_c, 0, 64, 65
2, 26095, Note_on_c, 0, 61, 0
2, 26140, Note_on_c, 0, 43, 0
2, 26144, Control_c, 0, 64, 66
2, 26164, Control_c, 0, 64, 66
2, 26183, Control_c, 0, 64, 67
2, 26240, Control_c, 0, 64, 66
2, 26278, Control_c, 0, 64, 66
2, 26318, Note_on_c, 0, 61, 39
2, 26355, Control_c, 0, 64, 65
2, 26471, Control_c, 0, 64, 66
2, 26510, Control_c, 0, 64, 65
2, 26530, Control_c, 0, 64, 62
2, 26540, Note_on_c, 0, 63, 59
2, 26541, Note_on_c, 0, 61, 0
2, 26548, Control_c, 0, 64, 51
2, 26554, Note_on_c, 0, 59, 49
2, 26568, Control_c, 0, 64, 38
2, 26587, Control_c, 0, 64, 36
2, 26592, Note_on_c, 0, 64, 0
2, 26606, Control_c, 0, 64, 42
2, 26625, Control_c, 0, 64, 58
2, 26645, Control_c, 0, 64, 64
2, 26664, Control_c, 0, 64, 67
2, 26683, Control_c, 0, 64, 69
2, 26702, Control_c, 0, 64, 71
2, 26721, Control_c, 0, 64, 74
2, 26740, Control_c, 0, 64, 77
2, 26759, Control_c, 0, 64, 79
2, 26775, Note_on_c, 0, 58, 49
2, 26779, Note_on_c, 0, 59, 0
2, 26834, Note_on_c, 0, 63, 0
2, 26836, Control_c, 0, 64, 78
2, 26856, Control_c, 0, 64, 78
2, 26894, Control_c, 0, 64, 77
2, 26951, Control_c, 0, 64, 78
2, 26971, Control_c, 0, 64, 78
2, 26990, Control_c, 0, 64, 78
2, 27010, Control_c, 0, 64, 73
2, 27013, Note_on_c, 0, 61, 54
2, 27016, Note_on_c, 0, 56, 50
2, 27028, Control_c, 0, 64, 64
2, 27041, Note_on_c, 0, 58, 0
2, 27048, Control_c, 0, 64, 50
2, 27067, Control_c, 0, 64, 44
2, 27086, Control_c, 0, 64, 46
2, 27105, Control_c, 0, 64, 56
2, 27125, Control_c, 0, 64, 64
2, 27144, Control_c, 0, 64, 68
2, 27163, Control_c, 0, 64, 71
2, 27182, Control_c, 0, 64, 74
2, 27201, Control_c, 0, 64, 76
2, 27220, Control_c, 0, 64, 78
2, 27239, Control_c, 0, 64, 78
2, 27243, Note_on_c, 0, 56, 0
2, 27253, Note_on_c, 0, 55, 42
2, 27278, Control_c, 0, 64, 78
2, 27297, Control_c, 0, 64, 77
2, 27336, Control_c, 0, 64, 77
2, 27354, Control_c, 0, 64, 76
2, 27374, Control_c, 0, 64, 76
2, 27393, Control_c, 0, 64, 75
2, 27397, Note_on_c, 0, 61, 0
2, 27413, Control_c, 0, 64, 74
2, 27431, Control_c, 0, 64, 73
2, 27451, Control_c, 0, 64, 71
2, 27470, Control_c, 0, 64, 69
2, 27490, Control_c, 0, 64, 68
2, 27508, Control_c, 0, 64, 67
2, 27525, Note_on_c, 0, 59, 50
2, 27554, Note_on_c, 0, 56, 38
2, 27565, Note_on_c, 0, 55, 0
2, 27582, Control_c, 0, 64, 67
2, 27601, Control_c, 0, 64, 64
2, 27621, Control_c, 0, 64, 58
2, 27639, Control_c, 0, 64, 50
2, 27659, Control_c, 0, 64, 47
2, 27678, Control_c, 0, 64, 48
2, 27698, Control_c, 0, 64, 52
2, 27716, Control_c, 0, 64, 55
2, 27736, Control_c, 0, 64, 57
2, 27755, Control_c, 0, 64, 59
2, 27773, Note_on_c, 0, 68, 52
2, 27775, Control_c, 0, 64, 61
2, 27793, Control_c, 0, 64, 61
2, 27813, Control_c, 0, 64, 62
2, 27845, Note_on_c, 0, 70, 0
2, 27890, Control_c, 0, 64, 61
2, 27928, Control_c, 0, 64, 61
2, 27975, Note_on_c, 0, 68, 0
2, 27981, Note_on_c, 0, 67, 54
2, 28024, Control_c, 0, 64, 61
2, 28081, Control_c, 0, 64, 61
2, 28178, Control_c, 0, 64, 61
2, 28212, Note_on_c, 0, 67, 0
2, 28216, Control_c, 0, 64, 62
2, 28217, Note_on_c, 0, 70, 63
2, 28431, Control_c, 0, 64, 62
2, 28461, Note_on_c, 0, 68, 57
2, 28508, Control_c, 0, 64, 63
2, 28525, Control_c, 0, 64, 63
2, 28544, Control_c, 0, 64, 64
2, 28564, Control_c, 0, 64, 62
2, 28583, Control_c, 0, 64, 58
2, 28601, Control_c, 0, 64, 54
2, 28621, Control_c, 0, 64, 53
2, 28640, Control_c, 0, 64, 55
2, 28660, Control_c, 0, 64, 60
2, 28678, Control_c, 0, 64, 64
2, 28695, Note_on_c, 0, 65, 54
2, 28696, Note_on_c, 0, 59, 0
2, 28698, Control_c, 0, 64, 65
2, 28717, Control_c, 0, 64, 65
2, 28725, Note_on_c, 0, 70, 0
2, 28755, Control_c, 0, 64, 65
2, 28813, Note_on_c, 0, 68, 0
2, 28832, Control_c, 0, 64, 64
2, 28869, Note_on_c, 0, 56, 0
2, 28909, Control_c, 0, 64, 64
2, 28975, Note_on_c, 0, 62, 49
2, 28996, Note_on_c, 0, 58, 36
2, 29024, Control_c, 0, 64, 64
2, 29063, Control_c, 0, 64, 64
2, 29081, Control_c, 0, 64, 62
2, 29091, Note_on_c, 0, 65, 0
2, 29101, Control_c, 0, 64, 58
2, 29120, Control_c, 0, 64, 57
2, 29140, Control_c, 0, 64, 58
2, 29158, Control_c, 0, 64, 61
2, 29178, Control_c, 0, 64, 63
2, 29197, Control_c, 0, 64, 63
2, 29218, Note_on_c, 0, 56, 55
2, 29235, Control_c, 0, 64, 64
2, 29332, Control_c, 0, 64, 63
2, 29427, Control_c, 0, 64, 64
2, 29434, Note_on_c, 0, 63, 57
2, 29455, Note_on_c, 0, 54, 53
2, 29466, Control_c, 0, 64, 65
2, 29485, Control_c, 0, 64, 65
2, 29524, Control_c, 0, 64, 64
2, 29543, Control_c, 0, 64, 58
2, 29550, Note_on_c, 0, 62, 0
2, 29561, Control_c, 0, 64, 48
2, 29577, Note_on_c, 0, 56, 0
2, 29581, Control_c, 0, 64, 42
2, 29620, Control_c, 0, 64, 48
2, 29638, Control_c, 0, 64, 56
2, 29658, Control_c, 0, 64, 57
2, 29664, Note_on_c, 0, 53, 57
2, 29677, Control_c, 0, 64, 58
2, 29696, Control_c, 0, 64, 59
2, 29715, Control_c, 0, 64, 60
2, 29735, Control_c, 0, 64, 61
2, 29754, Control_c, 0, 64, 62
2, 29761, Note_on_c, 0, 54, 0
2, 29792, Control_c, 0, 64, 62
2, 29830, Control_c, 0, 64, 61
2, 29850, Control_c, 0, 64, 58
2, 29869, Control_c, 0, 64, 53
2, 29889, Control_c, 0, 64, 47
2, 29903, Note_on_c, 0, 65, 58
2, 29907, Control_c, 0, 64, 48
2, 29927, Control_c, 0, 64, 54
2, 29928, Note_on_c, 0, 51, 51
2, 29946, Control_c, 0, 64, 60
2, 29965, Control_c, 0, 64, 62
2, 30004, Note_on_c, 0, 53, 0
2, 30016, Note_on_c, 0, 63, 0
2, 30023, Control_c, 0, 64, 62
2, 30041, Control_c, 0, 64, 63
2, 30080, Control_c, 0, 64, 64
2, 30138, Control_c, 0, 64, 63
2, 30148, Note_on_c, 0, 50, 54
2, 30179, Note_on_c, 0, 51, 0
2, 30195, Control_c, 0, 64, 63
2, 30292, Control_c, 0, 64, 62
2, 30310, Control_c, 0, 64, 62
2, 30330, Control_c, 0, 64, 61
2, 30349, Control_c, 0, 64, 60
2, 30369, Control_c, 0, 64, 58
2, 30387, Control_c, 0, 64, 56
2, 30387, Note_on_c, 0, 66, 58
2, 30401, Note_on_c, 0, 51, 39
2, 30407, Control_c, 0, 64, 54
2, 30426, Control_c, 0, 64, 51
2, 30445, Control_c, 0, 64, 51
2, 30472, Note_on_c, 0, 65, 0
2, 30475, Note_on_c, 0, 50, 0
2, 30484, Control_c, 0, 64, 51
2, 30503, Control_c, 0, 64, 52
2, 30521, Control_c, 0, 64, 53
2, 30541, Control_c, 0, 64, 55
2, 30560, Control_c, 0, 64, 57
2, 30580, Control_c, 0, 64, 59
2, 30598, Control_c, 0, 64, 59
2, 30618, Control_c, 0, 64, 60
2, 30637, Control_c, 0, 64, 62
2, 30639, Note_on_c, 0, 53, 52
2, 30656, Control_c, 0, 64, 62
2, 30656, Note_on_c, 0, 51, 0
2, 30675, Control_c, 0, 64, 63
2, 30790, Control_c, 0, 64, 62
2, 30849, Control_c, 0, 64, 63
2, 30873, Note_on_c, 0, 53, 0
2, 30877, Note_on_c, 0, 63, 55
2, 30890, Note_on_c, 0, 54, 50
2, 31072, Note_on_c, 0, 58, 0
2, 31113, Note_on_c, 0, 46, 56
2, 31155, Control_c, 0, 64, 62
2, 31178, Note_on_c, 0, 54, 0
2, 31194, Control_c, 0, 64, 63
2, 31272, Control_c, 0, 64, 62
2, 31292, Control_c, 0, 64, 61
2, 31311, Control_c, 0, 64, 58
2, 31330, Control_c, 0, 64, 54
2, 31345, Note_on_c, 0, 56, 60
2, 31349, Control_c, 0, 64, 51
2, 31358, Note_on_c, 0, 47, 51
2, 31369, Control_c, 0, 64, 52
2, 31388, Control_c, 0, 64, 55
2, 31405, Control_c, 0, 64, 57
2, 31424, Control_c, 0, 64, 59
2, 31444, Control_c, 0, 64, 61
2, 31463, Control_c, 0, 64, 62
2, 31481, Control_c, 0, 64, 62
2, 31520, Control_c, 0, 64, 63
2, 31525, Note_on_c, 0, 46, 0
2, 31527, Note_on_c, 0, 66, 0
2, 31540, Control_c, 0, 64, 63
2, 31583, Note_on_c, 0, 51, 51
2, 31597, Control_c, 0, 64, 63
2, 31646, Note_on_c, 0, 47, 0
2, 31750, Control_c, 0, 64, 62
2, 31770, Control_c, 0, 64, 61
2, 31789, Control_c, 0, 64, 60
2, 31809, Control_c, 0, 64, 56
2, 31815, Note_on_c, 0, 65, 50
2, 31827, Control_c, 0, 64, 53
2, 31847, Control_c, 0, 64, 51
2, 31852, Note_on_c, 0, 49, 55
2, 31866, Control_c, 0, 64, 52
2, 31885, Control_c, 0, 64, 54
2, 31888, Note_on_c, 0, 51, 0
2, 31904, Control_c, 0, 64, 57
2, 31924, Control_c, 0, 64, 59
2, 31927, Note_on_c, 0, 63, 0
2, 31943, Control_c, 0, 64, 60
2, 31961, Control_c, 0, 64, 60
2, 31981, Control_c, 0, 64, 61
2, 32000, Control_c, 0, 64, 62
2, 32020, Control_c, 0, 64, 62
2, 32087, Note_on_c, 0, 51, 51
2, 32129, Note_on_c, 0, 49, 0
2, 32250, Control_c, 0, 64, 62
2, 32269, Control_c, 0, 64, 61
2, 32289, Control_c, 0, 64, 60
2, 32303, Note_on_c, 0, 51, 0
2, 32303, Note_on_c, 0, 61, 58
2, 32307, Control_c, 0, 64, 57
2, 32327, Control_c, 0, 64, 54
2, 32328, Note_on_c, 0, 53, 51
2, 32346, Control_c, 0, 64, 53
2, 32366, Control_c, 0, 64, 54
2, 32385, Control_c, 0, 64, 57
2, 32405, Control_c, 0, 64, 59
2, 32424, Control_c, 0, 64, 59
2, 32442, Control_c, 0, 64, 60
2, 32462, Control_c, 0, 64, 61
2, 32481, Control_c, 0, 64, 61
2, 32485, Note_on_c, 0, 56, 0
2, 32500, Control_c, 0, 64, 62
2, 32533, Note_on_c, 0, 44, 51
2, 32632, Note_on_c, 0, 53, 0
2, 32693, Control_c, 0, 64, 61
2, 32711, Control_c, 0, 64, 61
2, 32731, Control_c, 0, 64, 58
2, 32750, Control_c, 0, 64, 55
2, 32769, Note_on_c, 0, 46, 54
2, 32770, Control_c, 0, 64, 50
2, 32778, Note_on_c, 0, 54, 58
2, 32788, Control_c, 0, 64, 48
2, 32808, Control_c, 0, 64, 49
2, 32827, Control_c, 0, 64, 52
2, 32846, Control_c, 0, 64, 54
2, 32865, Control_c, 0, 64, 54
2, 32885, Control_c, 0, 64, 55
2, 32904, Control_c, 0, 64, 59
2, 32907, Note_on_c, 0, 44, 0
2, 32922, Control_c, 0, 64, 61
2, 32961, Note_on_c, 0, 61, 0
2, 32999, Control_c, 0, 64, 61
2, 33004, Note_on_c, 0, 49, 63
2, 33070, Note_on_c, 0, 46, 0
2, 33173, Control_c, 0, 64, 62
2, 33191, Control_c, 0, 64, 62
2, 33211, Control_c, 0, 64, 63
2, 33250, Control_c, 0, 64, 61
2, 33252, Note_on_c, 0, 63, 62
2, 33268, Control_c, 0, 64, 55
2, 33272, Note_on_c, 0, 47, 54
2, 33286, Note_on_c, 0, 49, 0
2, 33288, Control_c, 0, 64, 48
2, 33307, Control_c, 0, 64, 48
2, 33325, Control_c, 0, 64, 54
2, 33344, Control_c, 0, 64, 61
2, 33364, Control_c, 0, 64, 62
2, 33385, Note_on_c, 0, 65, 0
2, 33401, Control_c, 0, 64, 62
2, 33408, Note_on_c, 0, 54, 0
2, 33421, Control_c, 0, 64, 63
2, 33440, Control_c, 0, 64, 64
2, 33511, Note_on_c, 0, 49, 58
2, 33517, Control_c, 0, 64, 65
2, 33549, Note_on_c, 0, 47, 0
2, 33555, Control_c, 0, 64, 64
2, 33613, Control_c, 0, 64, 65
2, 33652, Control_c, 0, 64, 65
2, 33670, Control_c, 0, 64, 65
2, 33690, Control_c, 0, 64, 64
2, 33709, Control_c, 0, 64, 60
2, 33729, Control_c, 0, 64, 55
2, 33739, Note_on_c, 0, 59, 62
2, 33747, Control_c, 0, 64, 53
2, 33747, Note_on_c, 0, 51, 53
2, 33767, Control_c, 0, 64, 55
2, 33776, Note_on_c, 0, 49, 0
2, 33786, Control_c, 0, 64, 60
2, 33797, Note_on_c, 0, 63, 0
2, 33805, Control_c, 0, 64, 61
2, 33824, Control_c, 0, 64, 61
2, 33844, Control_c, 0, 64, 61
2, 33863, Control_c, 0, 64, 62
2, 33881, Control_c, 0, 64, 63
2, 33920, Control_c, 0, 64, 64
2, 33940, Control_c, 0, 64, 64
2, 33958, Control_c, 0, 64, 65
2, 33969, Note_on_c, 0, 63, 59
2, 33978, Control_c, 0, 64, 65
2, 33982, Note_on_c, 0, 42, 57
2, 33997, Control_c, 0, 64, 60
2, 34016, Control_c, 0, 64, 51
2, 34035, Control_c, 0, 64, 46
2, 34074, Control_c, 0, 64, 51
2, 34093, Control_c, 0, 64, 56
2, 34112, Control_c, 0, 64, 57
2, 34132, Control_c, 0, 64, 57
2, 34134, Note_on_c, 0, 51, 0
2, 34150, Control_c, 0, 64, 60
2, 34170, Control_c, 0, 64, 62
2, 34180, Note_on_c, 0, 44, 54
2, 34189, Control_c, 0, 64, 63
2, 34209, Note_on_c, 0, 65, 68
2, 34253, Note_on_c, 0, 42, 0
2, 34266, Control_c, 0, 64, 64
2, 34285, Control_c, 0, 64, 63
2, 34322, Control_c, 0, 64, 63
2, 34349, Note_on_c, 0, 63, 0
2, 34399, Control_c, 0, 64, 62
2, 34415, Note_on_c, 0, 47, 56
2, 34429, Note_on_c, 0, 44, 0
2, 34475, Note_on_c, 0, 66, 65
2, 34553, Control_c, 0, 64, 62
2, 34574, Note_on_c, 0, 65, 0
2, 34591, Control_c, 0, 64, 61
2, 34641, Note_on_c, 0, 59, 0
2, 34652, Note_on_c, 0, 38, 52
2, 34668, Control_c, 0, 64, 62
2, 34688, Control_c, 0, 64, 62
2, 34688, Note_on_c, 0, 47, 0
2, 34726, Control_c, 0, 64, 63
2, 34753, Note_on_c, 0, 68, 69
2, 34765, Control_c, 0, 64, 61
2, 34783, Control_c, 0, 64, 54
2, 34802, Control_c, 0, 64, 43
2, 34810, Note_on_c, 0, 66, 0
2, 34822, Control_c, 0, 64, 39
2, 34840, Control_c, 0, 64, 41
2, 34860, Control_c, 0, 64, 52
2, 34879, Control_c, 0, 64, 61
2, 34899, Control_c, 0, 64, 63
2, 34937, Control_c, 0, 64, 63
2, 34956, Control_c, 0, 64, 64
2, 34975, Control_c, 0, 64, 66
2, 34994, Control_c, 0, 64, 68
2, 35014, Control_c, 0, 64, 68
2, 35065, Note_on_c, 0, 59, 56
2, 35245, Control_c, 0, 64, 69
2, 35264, Control_c, 0, 64, 69
2, 35268, Note_on_c, 0, 59, 0
2, 35269, Note_on_c, 0, 38, 0
2, 35284, Control_c, 0, 64, 70
2, 35303, Control_c, 0, 64, 67
2, 35307, Note_on_c, 0, 58, 52
2, 35318, Note_on_c, 0, 50, 45
2, 35321, Control_c, 0, 64, 61
2, 35341, Control_c, 0, 64, 52
2, 35360, Control_c, 0, 64, 50
2, 35380, Control_c, 0, 64, 51
2, 35398, Control_c, 0, 64, 59
2, 35418, Control_c, 0, 64, 64
2, 35437, Control_c, 0, 64, 66
2, 35456, Control_c, 0, 64, 67
2, 35514, Control_c, 0, 64, 66
2, 35534, Note_on_c, 0, 68, 0
2, 35552, Note_on_c, 0, 62, 58
2, 35572, Control_c, 0, 64, 66
2, 35590, Control_c, 0, 64, 65
2, 35629, Control_c, 0, 64, 65
2, 35706, Control_c, 0, 64, 65
2, 35744, Control_c, 0, 64, 66
2, 35769, Note_on_c, 0, 46, 49
2, 35775, Note_on_c, 0, 50, 0
2, 35777, Note_on_c, 0, 65, 59
2, 35783, Control_c, 0, 64, 65
2, 35801, Control_c, 0, 64, 62
2, 35821, Control_c, 0, 64, 53
2, 35840, Control_c, 0, 64, 41
2, 35860, Control_c, 0, 64, 35
2, 35877, Note_on_c, 0, 62, 0
2, 35878, Control_c, 0, 64, 34
2, 35898, Control_c, 0, 64, 44
2, 35917, Control_c, 0, 64, 59
2, 35936, Control_c, 0, 64, 64
2, 35955, Control_c, 0, 64, 64
2, 35959, Note_on_c, 0, 58, 0
2, 35993, Note_on_c, 0, 68, 67
2, 36013, Control_c, 0, 64, 65
2, 36024, Note_on_c, 0, 65, 0
2, 36091, Control_c, 0, 64, 64
2, 36148, Control_c, 0, 64, 64
2, 36209, Note_on_c, 0, 51, 42
2, 36268, Note_on_c, 0, 66, 61
2, 36301, Control_c, 0, 64, 64
2, 36314, Note_on_c, 0, 46, 0
2, 36323, Note_on_c, 0, 68, 0
2, 36340, Control_c, 0, 64, 63
2, 36358, Control_c, 0, 64, 55
2, 36378, Control_c, 0, 64, 38
2, 36397, Control_c, 0, 64, 13
2, 36416, Control_c, 0, 64, 0
2, 36455, Control_c, 0, 64, 38
2, 36474, Control_c, 0, 64, 51
2, 36493, Control_c, 0, 64, 56
2, 36499, Note_on_c, 0, 53, 52
2, 36512, Control_c, 0, 64, 59
2, 36527, Note_on_c, 0, 58, 60
2, 36532, Control_c, 0, 64, 60
2, 36550, Control_c, 0, 64, 61
2, 36567, Note_on_c, 0, 51, 0
2, 36589, Control_c, 0, 64, 61
2, 36685, Control_c, 0, 64, 61
2, 36717, Note_on_c, 0, 53, 0
2, 36736, Note_on_c, 0, 66, 0
2, 36745, Note_on_c, 0, 63, 64
2, 36751, Note_on_c, 0, 54, 62
2, 36858, Control_c, 0, 64, 60
2, 36877, Control_c, 0, 64, 59
2, 36896, Control_c, 0, 64, 54
2, 36915, Control_c, 0, 64, 44
2, 36916, Note_on_c, 0, 58, 0
2, 36935, Control_c, 0, 64, 33
2, 36954, Control_c, 0, 64, 30
2, 36965, Note_on_c, 0, 66, 66
2, 36974, Note_on_c, 0, 54, 0
2, 36983, Note_on_c, 0, 51, 59
2, 36992, Control_c, 0, 64, 33
2, 37014, Control_c, 0, 64, 39
2, 37032, Control_c, 0, 64, 43
2, 37052, Control_c, 0, 64, 46
2, 37071, Control_c, 0, 64, 50
2, 37090, Control_c, 0, 64, 53
2, 37095, Note_on_c, 0, 63, 0
2, 37109, Control_c, 0, 64, 54
2, 37148, Control_c, 0, 64, 55
2, 37165, Control_c, 0, 64, 56
2, 37193, Note_on_c, 0, 53, 64
2, 37203, Control_c, 0, 64, 56
2, 37211, Note_on_c, 0, 68, 65
2, 37271, Note_on_c, 0, 51, 0
2, 37285, Note_on_c, 0, 66, 0
2, 37376, Control_c, 0, 64, 56
2, 37430, Note_on_c, 0, 56, 70
2, 37434, Control_c, 0, 64, 55
2, 37446, Note_on_c, 0, 71, 60
2, 37453, Control_c, 0, 64, 55
2, 37472, Control_c, 0, 64, 54
2, 37498, Note_on_c, 0, 68, 0
2, 37523, Note_on_c, 0, 53, 0
2, 37607, Control_c, 0, 64, 54
2, 37626, Control_c, 0, 64, 50
2, 37645, Control_c, 0, 64, 41
2, 37664, Control_c, 0, 64, 28
2, 37683, Control_c, 0, 64, 23
2, 37693, Note_on_c, 0, 71, 0
2, 37703, Control_c, 0, 64, 22
2, 37721, Note_on_c, 0, 59, 58
2, 37735, Note_on_c, 0, 62, 37
2, 37740, Note_on_c, 0, 65, 44
2, 37741, Control_c, 0, 64, 28
2, 37760, Control_c, 0, 64, 38
2, 37780, Control_c, 0, 64, 46
2, 37798, Control_c, 0, 64, 49
2, 37809, Note_on_c, 0, 56, 0
2, 37818, Control_c, 0, 64, 51
2, 37837, Control_c, 0, 64, 54
2, 37856, Control_c, 0, 64, 56
2, 37914, Control_c, 0, 64, 57
2, 37930, Note_on_c, 0, 65, 0
2, 37933, Control_c, 0, 64, 58
2, 37952, Control_c, 0, 64, 59
2, 37957, Note_on_c, 0, 66, 56
2, 37972, Control_c, 0, 64, 59
2, 38029, Control_c, 0, 64, 60
2, 38040, Note_on_c, 0, 66, 0
2, 38076, Note_on_c, 0, 65, 56
2, 38125, Control_c, 0, 64, 60
2, 38143, Control_c, 0, 64, 61
2, 38162, Control_c, 0, 64, 62
2, 38170, Note_on_c, 0, 65, 0
2, 38187, Note_on_c, 0, 66, 56
2, 38200, Control_c, 0, 64, 60
2, 38201, Note_on_c, 0, 58, 46
2, 38220, Control_c, 0, 64, 57
2, 38239, Control_c, 0, 64, 56
2, 38259, Control_c, 0, 64, 57
2, 38277, Control_c, 0, 64, 59
2, 38278, Note_on_c, 0, 66, 0
2, 38297, Control_c, 0, 64, 60
2, 38303, Note_on_c, 0, 65, 50
2, 38335, Control_c, 0, 64, 61
2, 38343, Note_on_c, 0, 59, 0
2, 38373, Note_on_c, 0, 65, 0
2, 38374, Control_c, 0, 64, 62
2, 38389, Note_on_c, 0, 66, 47
2, 38393, Control_c, 0, 64, 62
2, 38451, Control_c, 0, 64, 63
2, 38456, Note_on_c, 0, 66, 0
2, 38470, Control_c, 0, 64, 63
2, 38480, Note_on_c, 0, 65, 46
2, 38489, Control_c, 0, 64, 63
2, 38508, Control_c, 0, 64, 60
2, 38528, Control_c, 0, 64, 54
2, 38541, Note_on_c, 0, 65, 0
2, 38546, Control_c, 0, 64, 52
2, 38566, Control_c, 0, 64, 54
2, 38571, Note_on_c, 0, 66, 43
2, 38585, Control_c, 0, 64, 59
2, 38605, Control_c, 0, 64, 62
2, 38623, Control_c, 0, 64, 63
2, 38629, Note_on_c, 0, 66, 0
2, 38650, Note_on_c, 0, 56, 42
2, 38657, Note_on_c, 0, 65, 43
2, 38662, Control_c, 0, 64, 63
2, 38679, Note_on_c, 0, 58, 0
2, 38680, Control_c, 0, 64, 64
2, 38712, Note_on_c, 0, 65, 0
2, 38719, Control_c, 0, 64, 62
2, 38736, Note_on_c, 0, 66, 53
2, 38739, Control_c, 0, 64, 58
2, 38757, Control_c, 0, 64, 57
2, 38777, Control_c, 0, 64, 58
2, 38792, Note_on_c, 0, 66, 0
2, 38796, Control_c, 0, 64, 61
2, 38815, Control_c, 0, 64, 63
2, 38823, Note_on_c, 0, 65, 55
2, 38834, Control_c, 0, 64, 64
2, 38872, Note_on_c, 0, 65, 0
2, 38904, Note_on_c, 0, 66, 46
2, 38912, Note_on_c, 0, 62, 0
2, 38965, Note_on_c, 0, 66, 0
2, 38982, Note_on_c, 0, 65, 47
2, 39010, Control_c, 0, 64, 63
2, 39111, Note_on_c, 0, 65, 0
2, 39151, Note_on_c, 0, 54, 35
2, 39152, Note_on_c, 0, 63, 42
2, 39159, Note_on_c, 0, 56, 0
2, 39180, Control_c, 0, 64, 62
2, 39199, Control_c, 0, 64, 60
2, 39219, Control_c, 0, 64, 50
2, 39237, Control_c, 0, 64, 20
2, 39257, Control_c, 0, 64, 0
2, 39334, Control_c, 0, 64, 35
2, 39353, Control_c, 0, 64, 48
2, 39372, Control_c, 0, 64, 57
2, 39391, Control_c, 0, 64, 59
2, 39400, Note_on_c, 0, 65, 53
2, 39411, Control_c, 0, 64, 59
2, 39417, Note_on_c, 0, 56, 45
2, 39468, Control_c, 0, 64, 60
2, 39476, Note_on_c, 0, 63, 0
2, 39492, Note_on_c, 0, 54, 0
2, 39640, Control_c, 0, 64, 60
2, 39647, Note_on_c, 0, 66, 63
2, 39648, Note_on_c, 0, 58, 44
2, 39660, Control_c, 0, 64, 61
2, 39673, Note_on_c, 0, 65, 0
2, 39676, Note_on_c, 0, 56, 0
2, 39756, Control_c, 0, 64, 61
2, 39775, Control_c, 0, 64, 62
2, 39833, Control_c, 0, 64, 61
2, 39852, Control_c, 0, 64, 61
2, 39870, Note_on_c, 0, 63, 63
2, 39871, Control_c, 0, 64, 60
2, 39877, Note_on_c, 0, 58, 0
2, 39883, Note_on_c, 0, 54, 49
2, 39891, Control_c, 0, 64, 59
2, 39909, Note_on_c, 0, 66, 0
2, 39929, Control_c, 0, 64, 60
2, 39948, Control_c, 0, 64, 60
2, 40025, Control_c, 0, 64, 61
2, 40045, Control_c, 0, 64, 62
2, 40063, Control_c, 0, 64, 61
2, 40082, Control_c, 0, 64, 57
2, 40096, Note_on_c, 0, 56, 52
2, 40099, Note_on_c, 0, 65, 65
2, 40102, Control_c, 0, 64, 39
2, 40120, Control_c, 0, 64, 0
2, 40197, Control_c, 0, 64, 39
2, 40217, Control_c, 0, 64, 54
2, 40236, Control_c, 0, 64, 59
2, 40255, Control_c, 0, 64, 60
2, 40259, Note_on_c, 0, 54, 0
2, 40294, Control_c, 0, 64, 59
2, 40303, Note_on_c, 0, 56, 0
2, 40313, Control_c, 0, 64, 58
2, 40327, Note_on_c, 0, 68, 69
2, 40329, Note_on_c, 0, 59, 41
2, 40332, Control_c, 0, 64, 58
2, 40347, Note_on_c, 0, 63, 0
2, 40371, Control_c, 0, 64, 57
2, 40390, Control_c, 0, 64, 55
2, 40409, Control_c, 0, 64, 52
2, 40428, Control_c, 0, 64, 51
2, 40448, Control_c, 0, 64, 51
2, 40486, Control_c, 0, 64, 51
2, 40517, Note_on_c, 0, 50, 44
2, 40525, Control_c, 0, 64, 51
2, 40543, Control_c, 0, 64, 50
2, 40562, Control_c, 0, 64, 47
2, 40582, Control_c, 0, 64, 24
2, 40600, Control_c, 0, 64, 0
2, 40603, Note_on_c, 0, 71, 63
2, 40610, Note_on_c, 0, 59, 0
2, 40656, Note_on_c, 0, 68, 0
2, 40667, Note_on_c, 0, 65, 0
2, 40716, Control_c, 0, 64, 36
2, 40735, Control_c, 0, 64, 53
2, 40754, Control_c, 0, 64, 61
2, 40774, Control_c, 0, 64, 61
2, 40839, Note_on_c, 0, 51, 49
2, 40876, Note_on_c, 0, 50, 0
2, 41023, Control_c, 0, 64, 62
2, 41042, Control_c, 0, 64, 62
2, 41062, Control_c, 0, 64, 63
2, 41067, Note_on_c, 0, 70, 68
2, 41079, Note_on_c, 0, 51, 0
2, 41095, Note_on_c, 0, 53, 52
2, 41100, Control_c, 0, 64, 62
2, 41119, Control_c, 0, 64, 56
2, 41139, Control_c, 0, 64, 36
2, 41157, Control_c, 0, 64, 0
2, 41178, Note_on_c, 0, 71, 0
2, 41234, Control_c, 0, 64, 47
2, 41254, Control_c, 0, 64, 57
2, 41273, Control_c, 0, 64, 59
2, 41289, Note_on_c, 0, 46, 51
2, 41292, Control_c, 0, 64, 61
2, 41311, Control_c, 0, 64, 63
2, 41316, Note_on_c, 0, 53, 0
2, 41331, Control_c, 0, 64, 63
2, 41350, Control_c, 0, 64, 64
2, 41465, Control_c, 0, 64, 64
2, 41484, Control_c, 0, 64, 65
2, 41503, Control_c, 0, 64, 66
2, 41514, Note_on_c, 0, 68, 67
2, 41522, Control_c, 0, 64, 67
2, 41526, Note_on_c, 0, 50, 54
2, 41542, Control_c, 0, 64, 68
2, 41559, Note_on_c, 0, 70, 0
2, 41560, Control_c, 0, 64, 65
2, 41580, Control_c, 0, 64, 52
2, 41583, Note_on_c, 0, 46, 0
2, 41599, Control_c, 0, 64, 21
2, 41619, Control_c, 0, 64, 0
2, 41657, Control_c, 0, 64, 34
2, 41676, Control_c, 0, 64, 60
2, 41695, Control_c, 0, 64, 66
2, 41714, Control_c, 0, 64, 70
2, 41734, Control_c, 0, 64, 72
2, 41753, Control_c, 0, 64, 74
2, 41772, Control_c, 0, 64, 77
2, 41776, Note_on_c, 0, 53, 56
2, 41791, Control_c, 0, 64, 81
2, 41792, Note_on_c, 0, 50, 0
2, 41815, Control_c, 0, 64, 83
2, 41832, Note_on_c, 0, 53, 0
2, 41910, Control_c, 0, 64, 82
2, 41930, Control_c, 0, 64, 81
2, 41949, Control_c, 0, 64, 81
2, 41985, Control_c, 0, 64, 80
2, 42004, Control_c, 0, 64, 78
2, 42024, Control_c, 0, 64, 76
2, 42042, Control_c, 0, 64, 73
2, 42062, Control_c, 0, 64, 72
2, 42081, Control_c, 0, 64, 71
2, 42092, Note_on_c, 0, 66, 55
2, 42100, Control_c, 0, 64, 70
2, 42103, Note_on_c, 0, 63, 49
2, 42114, Note_on_c, 0, 51, 30
2, 42139, Control_c, 0, 64, 71
2, 42177, Control_c, 0, 64, 70
2, 42196, Control_c, 0, 64, 70
2, 42204, Note_on_c, 0, 68, 0
2, 42216, Control_c, 0, 64, 68
2, 42234, Control_c, 0, 64, 66
2, 42254, Control_c, 0, 64, 62
2, 42273, Control_c, 0, 64, 60
2, 42293, Control_c, 0, 64, 59
2, 42331, Control_c, 0, 64, 60
2, 42350, Control_c, 0, 64, 61
2, 42367, Note_on_c, 0, 61, 67
2, 42370, Control_c, 0, 64, 62
2, 42372, Note_on_c, 0, 63, 0
2, 42388, Control_c, 0, 64, 62
2, 42408, Control_c, 0, 64, 63
2, 42580, Control_c, 0, 64, 64
2, 42611, Note_on_c, 0, 59, 71
2, 42651, Note_on_c, 0, 61, 0
2, 42714, Control_c, 0, 64, 63
2, 42773, Control_c, 0, 64, 64
2, 42839, Note_on_c, 0, 63, 67
2, 42855, Control_c, 0, 64, 63
2, 42949, Control_c, 0, 64, 64
2, 42987, Control_c, 0, 64, 63
2, 43006, Control_c, 0, 64, 61
2, 43025, Control_c, 0, 64, 58
2, 43045, Control_c, 0, 64, 56
2, 43064, Control_c, 0, 64, 58
2, 43080, Note_on_c, 0, 66, 0
2, 43083, Control_c, 0, 64, 61
2, 43089, Note_on_c, 0, 61, 58
2, 43102, Control_c, 0, 64, 63
2, 43113, Note_on_c, 0, 63, 0
2, 43122, Control_c, 0, 64, 64
2, 43141, Note_on_c, 0, 59, 0
2, 43160, Control_c, 0, 64, 65
2, 43256, Control_c, 0, 64, 64
2, 43299, Note_on_c, 0, 68, 68
2, 43314, Control_c, 0, 64, 64
2, 43314, Note_on_c, 0, 58, 57
2, 43361, Note_on_c, 0, 51, 0
2, 43410, Control_c, 0, 64, 63
2, 43467, Control_c, 0, 64, 63
2, 43544, Control_c, 0, 64, 62
2, 43552, Note_on_c, 0, 55, 52
2, 43561, Note_on_c, 0, 70, 62
2, 43563, Control_c, 0, 64, 59
2, 43582, Control_c, 0, 64, 52
2, 43585, Note_on_c, 0, 49, 56
2, 43602, Control_c, 0, 64, 39
2, 43620, Control_c, 0, 64, 15
2, 43625, Note_on_c, 0, 58, 0
2, 43640, Control_c, 0, 64, 0
2, 43679, Control_c, 0, 64, 13
2, 43697, Control_c, 0, 64, 36
2, 43717, Control_c, 0, 64, 51
2, 43736, Control_c, 0, 64, 59
2, 43756, Control_c, 0, 64, 61
2, 43774, Control_c, 0, 64, 61
2, 43794, Control_c, 0, 64, 62
2, 43808, Note_on_c, 0, 71, 65
2, 43813, Control_c, 0, 64, 62
2, 43874, Note_on_c, 0, 61, 0
2, 43893, Note_on_c, 0, 68, 0
2, 43916, Note_on_c, 0, 70, 0
2, 44043, Control_c, 0, 64, 63
2, 44051, Note_on_c, 0, 56, 66
2, 44056, Note_on_c, 0, 73, 67
2, 44082, Control_c, 0, 64, 62
2, 44091, Note_on_c, 0, 71, 0
2, 44120, Control_c, 0, 64, 61
2, 44139, Control_c, 0, 64, 55
2, 44159, Control_c, 0, 64, 41
2, 44176, Note_on_c, 0, 55, 0
2, 44177, Control_c, 0, 64, 18
2, 44197, Control_c, 0, 64, 0
2, 44236, Control_c, 0, 64, 27
2, 44254, Control_c, 0, 64, 42
2, 44274, Control_c, 0, 64, 48
2, 44289, Note_on_c, 0, 70, 70
2, 44293, Control_c, 0, 64, 53
2, 44312, Control_c, 0, 64, 57
2, 44331, Control_c, 0, 64, 58
2, 44340, Note_on_c, 0, 73, 0
2, 44370, Control_c, 0, 64, 59
2, 44389, Control_c, 0, 64, 60
2, 44408, Control_c, 0, 64, 61
2, 44427, Control_c, 0, 64, 62
2, 44446, Control_c, 0, 64, 63
2, 44465, Control_c, 0, 64, 62
2, 44485, Control_c, 0, 64, 56
2, 44504, Control_c, 0, 64, 36
2, 44505, Note_on_c, 0, 58, 62
2, 44523, Control_c, 0, 64, 0
2, 44526, Note_on_c, 0, 71, 66
2, 44562, Note_on_c, 0, 56, 0
2, 44580, Control_c, 0, 64, 35
2, 44600, Control_c, 0, 64, 58
2, 44619, Control_c, 0, 64, 62
2, 44623, Note_on_c, 0, 70, 0
2, 44639, Control_c, 0, 64, 63
2, 44657, Control_c, 0, 64, 63
2, 44677, Control_c, 0, 64, 64
2, 44716, Control_c, 0, 64, 64
2, 44733, Note_on_c, 0, 49, 0
2, 44761, Note_on_c, 0, 73, 74
2, 44862, Note_on_c, 0, 71, 0
2, 44956, Note_on_c, 0, 47, 43
2, 44965, Control_c, 0, 64, 64
2, 45051, Note_on_c, 0, 75, 69
2, 45060, Control_c, 0, 64, 64
2, 45092, Note_on_c, 0, 73, 0
2, 45099, Control_c, 0, 64, 62
2, 45119, Control_c, 0, 64, 53
2, 45137, Control_c, 0, 64, 29
2, 45157, Control_c, 0, 64, 0
2, 45165, Note_on_c, 0, 58, 0
2, 45196, Control_c, 0, 64, 26
2, 45214, Control_c, 0, 64, 52
2, 45234, Control_c, 0, 64, 59
2, 45253, Control_c, 0, 64, 60
2, 45272, Control_c, 0, 64, 60
2, 45291, Control_c, 0, 64, 62
2, 45311, Control_c, 0, 64, 62
2, 45313, Note_on_c, 0, 73, 69
2, 45349, Control_c, 0, 64, 62
2, 45481, Note_on_c, 0, 75, 0
2, 45483, Control_c, 0, 64, 62
2, 45502, Control_c, 0, 64, 63
2, 45522, Control_c, 0, 64, 64
2, 45523, Note_on_c, 0, 71, 61
2, 45525, Note_on_c, 0, 56, 49
2, 45540, Control_c, 0, 64, 64
2, 45554, Note_on_c, 0, 73, 0
2, 45560, Control_c, 0, 64, 64
2, 45579, Control_c, 0, 64, 63
2, 45599, Control_c, 0, 64, 57
2, 45617, Control_c, 0, 64, 45
2, 45637, Control_c, 0, 64, 34
2, 45656, Control_c, 0, 64, 34
2, 45677, Control_c, 0, 64, 39
2, 45696, Control_c, 0, 64, 54
2, 45716, Control_c, 0, 64, 59
2, 45735, Control_c, 0, 64, 59
2, 45751, Note_on_c, 0, 75, 68
2, 45754, Control_c, 0, 64, 60
2, 45760, Note_on_c, 0, 71, 0
2, 45773, Control_c, 0, 64, 61
2, 45793, Control_c, 0, 64, 62
2, 45886, Control_c, 0, 64, 62
2, 45905, Control_c, 0, 64, 63
2, 45925, Control_c, 0, 64, 64
2, 45944, Control_c, 0, 64, 65
2, 45982, Control_c, 0, 64, 63
2, 45991, Note_on_c, 0, 73, 65
2, 46002, Control_c, 0, 64, 56
2, 46004, Note_on_c, 0, 64, 43
2, 46020, Control_c, 0, 64, 48
2, 46040, Control_c, 0, 64, 47
2, 46059, Control_c, 0, 64, 49
2, 46079, Control_c, 0, 64, 57
2, 46097, Control_c, 0, 64, 61
2, 46117, Control_c, 0, 64, 62
2, 46156, Control_c, 0, 64, 62
2, 46174, Control_c, 0, 64, 63
2, 46213, Note_on_c, 0, 70, 65
2, 46273, Note_on_c, 0, 75, 0
2, 46328, Control_c, 0, 64, 64
2, 46347, Control_c, 0, 64, 64
2, 46366, Control_c, 0, 64, 66
2, 46385, Control_c, 0, 64, 67
2, 46405, Control_c, 0, 64, 66
2, 46405, Note_on_c, 0, 56, 0
2, 46424, Control_c, 0, 64, 61
2, 46443, Control_c, 0, 64, 48
2, 46462, Control_c, 0, 64, 39
2, 46466, Note_on_c, 0, 46, 43
2, 46472, Note_on_c, 0, 67, 50
2, 46482, Control_c, 0, 64, 39
2, 46491, Note_on_c, 0, 47, 0
2, 46500, Control_c, 0, 64, 43
2, 46506, Note_on_c, 0, 73, 0
2, 46520, Control_c, 0, 64, 56
2, 46539, Control_c, 0, 64, 62
2, 46559, Control_c, 0, 64, 63
2, 46566, Note_on_c, 0, 64, 0
2, 46573, Note_on_c, 0, 70, 0
2, 46577, Control_c, 0, 64, 64
2, 46597, Control_c, 0, 64, 64
2, 46616, Control_c, 0, 64, 65
2, 46636, Control_c, 0, 64, 66
2, 46711, Note_on_c, 0, 49, 57
2, 46742, Note_on_c, 0, 46, 0
2, 46789, Control_c, 0, 64, 66
2, 46808, Control_c, 0, 64, 67
2, 46827, Control_c, 0, 64, 68
2, 46846, Control_c, 0, 64, 69
2, 46865, Control_c, 0, 64, 70
2, 46885, Control_c, 0, 64, 69
2, 46904, Control_c, 0, 64, 66
2, 46923, Control_c, 0, 64, 59
2, 46923, Note_on_c, 0, 68, 70
2, 46938, Note_on_c, 0, 47, 51
2, 46941, Note_on_c, 0, 63, 46
2, 46942, Control_c, 0, 64, 42
2, 46962, Control_c, 0, 64, 36
2, 47000, Control_c, 0, 64, 41
2, 47010, Note_on_c, 0, 67, 0
2, 47011, Note_on_c, 0, 49, 0
2, 47019, Control_c, 0, 64, 54
2, 47039, Control_c, 0, 64, 63
2, 47057, Control_c, 0, 64, 65
2, 47077, Control_c, 0, 64, 66
2, 47146, Note_on_c, 0, 63, 0
2, 47150, Note_on_c, 0, 46, 61
2, 47210, Note_on_c, 0, 47, 0
2, 47307, Control_c, 0, 64, 67
2, 47345, Control_c, 0, 64, 66
2, 47365, Control_c, 0, 64, 64
2, 47372, Note_on_c, 0, 70, 74
2, 47378, Note_on_c, 0, 44, 56
2, 47384, Control_c, 0, 64, 56
2, 47387, Note_on_c, 0, 61, 48
2, 47403, Control_c, 0, 64, 37
2, 47417, Control_c, 0, 64, 22
2, 47436, Control_c, 0, 64, 19
2, 47455, Control_c, 0, 64, 20
2, 47470, Note_on_c, 0, 46, 0
2, 47474, Control_c, 0, 64, 42
2, 47494, Control_c, 0, 64, 59
2, 47513, Control_c, 0, 64, 65
2, 47532, Control_c, 0, 64, 67
2, 47551, Control_c, 0, 64, 68
2, 47620, Note_on_c, 0, 43, 58
2, 47634, Note_on_c, 0, 44, 0
2, 47649, Control_c, 0, 64, 67
2, 47667, Control_c, 0, 64, 67
2, 47687, Control_c, 0, 64, 66
2, 47725, Note_on_c, 0, 61, 0
2, 47764, Note_on_c, 0, 68, 0
2, 47805, Note_on_c, 0, 43, 0
2, 47839, Control_c, 0, 64, 67
2, 47850, Note_on_c, 0, 71, 72
2, 47860, Note_on_c, 0, 44, 62
2, 47877, Control_c, 0, 64, 66
2, 47879, Note_on_c, 0, 70, 0
2, 47894, Note_on_c, 0, 59, 48
2, 47897, Control_c, 0, 64, 60
2, 47916, Control_c, 0, 64, 39
2, 47935, Control_c, 0, 64, 0
2, 47993, Control_c, 0, 64, 39
2, 48012, Control_c, 0, 64, 61
2, 48031, Control_c, 0, 64, 66
2, 48051, Control_c, 0, 64, 68
2, 48070, Control_c, 0, 64, 68
2, 48090, Note_on_c, 0, 42, 60
2, 48108, Control_c, 0, 64, 69
2, 48112, Note_on_c, 0, 63, 67
2, 48120, Note_on_c, 0, 59, 0
2, 48128, Control_c, 0, 64, 69
2, 48146, Control_c, 0, 64, 70
2, 48172, Note_on_c, 0, 71, 0
2, 48180, Note_on_c, 0, 44, 0
2, 48204, Control_c, 0, 64, 69
2, 48207, Note_on_c, 0, 63, 0
2, 48223, Control_c, 0, 64, 69
2, 48262, Control_c, 0, 64, 68
2, 48300, Control_c, 0, 64, 68
2, 48317, Note_on_c, 0, 40, 59
2, 48319, Control_c, 0, 64, 67
2, 48329, Note_on_c, 0, 68, 75
2, 48339, Control_c, 0, 64, 67
2, 48357, Control_c, 0, 64, 66
2, 48377, Control_c, 0, 64, 66
2, 48379, Note_on_c, 0, 42, 0
2, 48396, Control_c, 0, 64, 65
2, 48415, Control_c, 0, 64, 65
2, 48434, Control_c, 0, 64, 64
2, 48454, Control_c, 0, 64, 63
2, 48473, Control_c, 0, 64, 63
2, 48511, Control_c, 0, 64, 62
2, 48535, Control_c, 0, 64, 61
2, 48553, Note_on_c, 0, 70, 78
2, 48554, Control_c, 0, 64, 60
2, 48558, Note_on_c, 0, 44, 57
2, 48574, Control_c, 0, 64, 59
2, 48575, Note_on_c, 0, 40, 0
2, 48593, Control_c, 0, 64, 57
2, 48612, Control_c, 0, 64, 56
2, 48631, Control_c, 0, 64, 55
2, 48651, Control_c, 0, 64, 54
2, 48670, Control_c, 0, 64, 53
2, 48773, Note_on_c, 0, 42, 61
2, 48789, Note_on_c, 0, 72, 76
2, 48804, Control_c, 0, 64, 52
2, 48840, Note_on_c, 0, 68, 0
2, 48855, Note_on_c, 0, 44, 0
2, 48946, Note_on_c, 0, 70, 0
2, 48977, Control_c, 0, 64, 53
2, 48983, Note_on_c, 0, 39, 59
2, 48998, Note_on_c, 0, 42, 0
2, 49002, Note_on_c, 0, 73, 78
2, 49015, Control_c, 0, 64, 53
2, 49063, Note_on_c, 0, 72, 0
2, 49169, Control_c, 0, 64, 54
2, 49188, Control_c, 0, 64, 54
2, 49239, Note_on_c, 0, 36, 47
2, 49239, Note_on_c, 0, 39, 0
2, 49245, Control_c, 0, 64, 54
2, 49265, Control_c, 0, 64, 48
2, 49279, Note_on_c, 0, 75, 76
2, 49284, Control_c, 0, 64, 21
2, 49303, Control_c, 0, 64, 0
2, 49306, Note_on_c, 0, 66, 46
2, 49343, Note_on_c, 0, 73, 0
2, 49380, Control_c, 0, 64, 15
2, 49399, Control_c, 0, 64, 37
2, 49419, Control_c, 0, 64, 54
2, 49437, Control_c, 0, 64, 60
2, 49457, Control_c, 0, 64, 61
2, 49476, Control_c, 0, 64, 61
2, 49514, Control_c, 0, 64, 62
2, 49529, Note_on_c, 0, 68, 69
2, 49534, Control_c, 0, 64, 63
2, 49553, Control_c, 0, 64, 63
2, 49591, Control_c, 0, 64, 63
2, 49604, Note_on_c, 0, 66, 0
2, 49611, Control_c, 0, 64, 63
2, 49644, Control_c, 0, 64, 64
2, 49682, Control_c, 0, 64, 64
2, 49702, Control_c, 0, 64, 65
2, 49718, Control_c, 0, 64, 66
2, 49757, Control_c, 0, 64, 65
2, 49760, Note_on_c, 0, 69, 72
2, 49766, Note_on_c, 0, 37, 59
2, 49771, Note_on_c, 0, 68, 0
2, 49776, Control_c, 0, 64, 59
2, 49794, Control_c, 0, 64, 43
2, 49814, Control_c, 0, 64, 19
2, 49833, Control_c, 0, 64, 17
2, 49847, Note_on_c, 0, 36, 0
2, 49852, Control_c, 0, 64, 28
2, 49871, Control_c, 0, 64, 54
2, 49891, Control_c, 0, 64, 64
2, 49910, Control_c, 0, 64, 66
2, 49948, Control_c, 0, 64, 66
2, 49968, Control_c, 0, 64, 67
2, 49987, Control_c, 0, 64, 67
2, 49987, Note_on_c, 0, 69, 0
2, 50006, Control_c, 0, 64, 68
2, 50006, Note_on_c, 0, 66, 66
2, 50063, Control_c, 0, 64, 67
2, 50122, Control_c, 0, 64, 67
2, 50217, Control_c, 0, 64, 67
2, 50232, Note_on_c, 0, 37, 0
2, 50256, Control_c, 0, 64, 67
2, 50264, Note_on_c, 0, 39, 52
2, 50264, Note_on_c, 0, 73, 76
2, 50274, Control_c, 0, 64, 63
2, 50294, Control_c, 0, 64, 42
2, 50313, Control_c, 0, 64, 0
2, 50387, Note_on_c, 0, 75, 0
2, 50390, Control_c, 0, 64, 42
2, 50409, Control_c, 0, 64, 63
2, 50428, Control_c, 0, 64, 66
2, 50448, Control_c, 0, 64, 67
2, 50467, Control_c, 0, 64, 66
2, 50486, Control_c, 0, 64, 67
2, 50505, Control_c, 0, 64, 67
2, 50518, Note_on_c, 0, 72, 77
2, 50525, Control_c, 0, 64, 68
2, 50543, Control_c, 0, 64, 69
2, 50563, Control_c, 0, 64, 71
2, 50579, Note_on_c, 0, 66, 0
2, 50582, Control_c, 0, 64, 72
2, 50602, Control_c, 0, 64, 73
2, 50621, Control_c, 0, 64, 73
2, 50641, Control_c, 0, 64, 74
2, 50657, Note_on_c, 0, 39, 0
2, 50671, Note_on_c, 0, 72, 0
2, 50678, Note_on_c, 0, 73, 0
2, 50718, Control_c, 0, 64, 74
2, 50737, Control_c, 0, 64, 73
2, 50756, Control_c, 0, 64, 72
2, 50775, Control_c, 0, 64, 71
2, 50782, Note_on_c, 0, 40, 49
2, 50794, Control_c, 0, 64, 70
2, 50813, Control_c, 0, 64, 69
2, 50825, Note_on_c, 0, 73, 71
2, 50852, Control_c, 0, 64, 69
2, 50871, Control_c, 0, 64, 68
2, 50890, Control_c, 0, 64, 67
2, 50909, Control_c, 0, 64, 66
2, 50929, Control_c, 0, 64, 65
2, 50947, Control_c, 0, 64, 64
2, 50967, Control_c, 0, 64, 64
2, 50986, Control_c, 0, 64, 63
2, 51006, Control_c, 0, 64, 62
2, 51024, Control_c, 0, 64, 61
2, 51044, Control_c, 0, 64, 60
2, 51082, Control_c, 0, 64, 59
2, 51095, Note_on_c, 0, 75, 76
2, 51121, Control_c, 0, 64, 59
2, 51124, Note_on_c, 0, 42, 54
2, 51140, Control_c, 0, 64, 58
2, 51159, Control_c, 0, 64, 58
2, 51175, Note_on_c, 0, 40, 0
2, 51198, Control_c, 0, 64, 57
2, 51262, Note_on_c, 0, 73, 0
2, 51349, Note_on_c, 0, 44, 54
2, 51349, Note_on_c, 0, 76, 79
2, 51394, Note_on_c, 0, 75, 0
2, 51402, Note_on_c, 0, 42, 0
2, 51565, Note_on_c, 0, 73, 81
2, 51571, Note_on_c, 0, 40, 58
2, 51577, Note_on_c, 0, 76, 0
2, 51600, Control_c, 0, 64, 57
2, 51624, Note_on_c, 0, 44, 0
2, 51799, Note_on_c, 0, 75, 79
2, 51806, Note_on_c, 0, 42, 53
2, 51887, Note_on_c, 0, 73, 0
2, 51893, Note_on_c, 0, 40, 0
2, 51945, Control_c, 0, 64, 56
2, 52042, Note_on_c, 0, 78, 81
2, 52043, Note_on_c, 0, 42, 0
2, 52047, Note_on_c, 0, 45, 48
2, 52118, Control_c, 0, 64, 56
2, 52129, Note_on_c, 0, 75, 0
2, 52241, Note_on_c, 0, 45, 0
2, 52270, Note_on_c, 0, 39, 46
2, 52291, Control_c, 0, 64, 54
2, 52310, Control_c, 0, 64, 47
2, 52311, Note_on_c, 0, 81, 76
2, 52329, Control_c, 0, 64, 27
2, 52329, Note_on_c, 0, 72, 49
2, 52348, Control_c, 0, 64, 0
2, 52351, Note_on_c, 0, 78, 0
2, 52444, Control_c, 0, 64, 49
2, 52462, Control_c, 0, 64, 62
2, 52482, Control_c, 0, 64, 65
2, 52501, Control_c, 0, 64, 66
2, 52521, Control_c, 0, 64, 66
2, 52559, Control_c, 0, 64, 67
2, 52567, Note_on_c, 0, 40, 46
2, 52567, Note_on_c, 0, 72, 0
2, 52578, Control_c, 0, 64, 68
2, 52598, Control_c, 0, 64, 70
2, 52616, Control_c, 0, 64, 71
2, 52636, Control_c, 0, 64, 72
2, 52655, Control_c, 0, 64, 74
2, 52657, Note_on_c, 0, 39, 0
2, 52673, Control_c, 0, 64, 75
2, 52693, Control_c, 0, 64, 77
2, 52712, Control_c, 0, 64, 80
2, 52732, Control_c, 0, 64, 83
2, 52750, Control_c, 0, 64, 88
2, 52770, Control_c, 0, 64, 91
2, 52780, Note_on_c, 0, 80, 84
2, 52797, Note_on_c, 0, 73, 54
2, 52807, Note_on_c, 0, 42, 57
2, 52808, Control_c, 0, 64, 85
2, 52827, Control_c, 0, 64, 72
2, 52839, Note_on_c, 0, 81, 0
2, 52840, Note_on_c, 0, 40, 0
2, 52847, Control_c, 0, 64, 55
2, 52866, Control_c, 0, 64, 31
2, 52885, Control_c, 0, 64, 26
2, 52904, Control_c, 0, 64, 29
2, 52924, Control_c, 0, 64, 52
2, 52942, Control_c, 0, 64, 65
2, 52962, Control_c, 0, 64, 69
2, 52981, Control_c, 0, 64, 72
2, 53019, Control_c, 0, 64, 73
2, 53038, Note_on_c, 0, 44, 59
2, 53039, Control_c, 0, 64, 75
2, 53058, Control_c, 0, 64, 77
2, 53069, Note_on_c, 0, 42, 0
2, 53078, Control_c, 0, 64, 77
2, 53116, Control_c, 0, 64, 76
2, 53118, Note_on_c, 0, 73, 0
2, 53230, Control_c, 0, 64, 77
2, 53239, Note_on_c, 0, 44, 0
2, 53250, Control_c, 0, 64, 76
2, 53269, Control_c, 0, 64, 71
2, 53278, Note_on_c, 0, 78, 77
2, 53287, Note_on_c, 0, 46, 49
2, 53288, Control_c, 0, 64, 59
2, 53307, Control_c, 0, 64, 0
2, 53365, Note_on_c, 0, 80, 0
2, 53404, Control_c, 0, 64, 64
2, 53422, Control_c, 0, 64, 72
2, 53442, Control_c, 0, 64, 78
2, 53461, Control_c, 0, 64, 79
2, 53481, Control_c, 0, 64, 81
2, 53494, Note_on_c, 0, 78, 0
2, 53499, Control_c, 0, 64, 84
2, 53519, Control_c, 0, 64, 87
2, 53526, Note_on_c, 0, 48, 57
2, 53538, Control_c, 0, 64, 88
2, 53558, Control_c, 0, 64, 88
2, 53576, Control_c, 0, 64, 89
2, 53587, Note_on_c, 0, 48, 0
2, 53595, Control_c, 0, 64, 90
2, 53617, Note_on_c, 0, 46, 0
2, 53653, Control_c, 0, 64, 90
2, 53730, Control_c, 0, 64, 90
2, 53768, Control_c, 0, 64, 89
2, 53787, Control_c, 0, 64, 88
2, 53803, Note_on_c, 0, 49, 49
2, 53807, Control_c, 0, 64, 85
2, 53826, Control_c, 0, 64, 83
2, 53845, Control_c, 0, 64, 82
2, 53864, Control_c, 0, 64, 82
2, 53884, Control_c, 0, 64, 81
2, 53887, Note_on_c, 0, 76, 68
2, 53902, Control_c, 0, 64, 80
2, 53922, Control_c, 0, 64, 78
2, 53941, Control_c, 0, 64, 76
2, 53961, Control_c, 0, 64, 73
2, 53979, Control_c, 0, 64, 71
2, 53999, Control_c, 0, 64, 70
2, 54018, Control_c, 0, 64, 69
2, 54038, Control_c, 0, 64, 69
2, 54056, Control_c, 0, 64, 68
2, 54075, Control_c, 0, 64, 67
2, 54095, Control_c, 0, 64, 66
2, 54113, Control_c, 0, 64, 64
2, 54133, Control_c, 0, 64, 63
2, 54152, Control_c, 0, 64, 63
2, 54153, Note_on_c, 0, 51, 42
2, 54172, Control_c, 0, 64, 62
2, 54182, Note_on_c, 0, 49, 0
2, 54190, Control_c, 0, 64, 62
2, 54248, Control_c, 0, 64, 62
2, 54398, Note_on_c, 0, 51, 0
2, 54407, Note_on_c, 0, 73, 64
2, 54422, Control_c, 0, 64, 63
2, 54427, Note_on_c, 0, 52, 41
2, 54479, Control_c, 0, 64, 63
2, 54498, Control_c, 0, 64, 64
2, 54536, Control_c, 0, 64, 64
2, 54555, Control_c, 0, 64, 65
2, 54575, Control_c, 0, 64, 65
2, 54641, Note_on_c, 0, 52, 0
2, 54650, Note_on_c, 0, 49, 45
2, 54747, Control_c, 0, 64, 65
2, 54844, Control_c, 0, 64, 65
2, 54862, Control_c, 0, 64, 66
2, 54882, Control_c, 0, 64, 65
2, 54887, Note_on_c, 0, 71, 59
2, 54901, Control_c, 0, 64, 62
2, 54904, Note_on_c, 0, 52, 43
2, 54921, Control_c, 0, 64, 55
2, 54939, Control_c, 0, 64, 39
2, 54959, Control_c, 0, 64, 30
2, 54978, Control_c, 0, 64, 34
2, 54998, Control_c, 0, 64, 52
2, 55016, Control_c, 0, 64, 63
2, 55035, Control_c, 0, 64, 65
2, 55055, Control_c, 0, 64, 65
2, 55062, Note_on_c, 0, 73, 0
2, 55091, Note_on_c, 0, 52, 0
2, 55093, Control_c, 0, 64, 66
2, 55093, Note_on_c, 0, 49, 0
2, 55122, Note_on_c, 0, 56, 45
2, 55150, Control_c, 0, 64, 65
2, 55208, Control_c, 0, 64, 65
2, 55227, Control_c, 0, 64, 64
2, 55347, Note_on_c, 0, 56, 0
2, 55356, Note_on_c, 0, 54, 42
2, 55359, Control_c, 0, 64, 64
2, 55382, Note_on_c, 0, 70, 61
2, 55399, Control_c, 0, 64, 63
2, 55444, Note_on_c, 0, 71, 0
2, 55540, Note_on_c, 0, 76, 0
2, 55571, Control_c, 0, 64, 62
2, 55591, Control_c, 0, 64, 61
2, 55605, Note_on_c, 0, 56, 53
2, 55609, Control_c, 0, 64, 61
2, 55632, Note_on_c, 0, 54, 0
2, 55648, Control_c, 0, 64, 60
2, 55668, Control_c, 0, 64, 60
2, 55706, Control_c, 0, 64, 60
2, 55725, Control_c, 0, 64, 61
2, 55809, Note_on_c, 0, 78, 71
2, 55841, Note_on_c, 0, 56, 0
2, 55851, Note_on_c, 0, 58, 49
2, 55917, Control_c, 0, 64, 60
2, 55936, Control_c, 0, 64, 57
2, 55955, Control_c, 0, 64, 50
2, 55974, Control_c, 0, 64, 47
2, 55994, Control_c, 0, 64, 47
2, 56013, Control_c, 0, 64, 52
2, 56032, Control_c, 0, 64, 55
2, 56051, Control_c, 0, 64, 57
2, 56071, Control_c, 0, 64, 58
2, 56076, Note_on_c, 0, 54, 59
2, 56078, Note_on_c, 0, 58, 0
2, 56089, Control_c, 0, 64, 60
2, 56109, Control_c, 0, 64, 61
2, 56128, Control_c, 0, 64, 62
2, 56205, Control_c, 0, 64, 62
2, 56262, Control_c, 0, 64, 63
2, 56282, Control_c, 0, 64, 63
2, 56300, Control_c, 0, 64, 64
2, 56320, Control_c, 0, 64, 63
2, 56322, Note_on_c, 0, 76, 70
2, 56337, Note_on_c, 0, 54, 0
2, 56339, Control_c, 0, 64, 60
2, 56344, Note_on_c, 0, 58, 52
2, 56359, Control_c, 0, 64, 50
2, 56377, Control_c, 0, 64, 35
2, 56397, Control_c, 0, 64, 29
2, 56416, Control_c, 0, 64, 32
2, 56435, Control_c, 0, 64, 50
2, 56454, Control_c, 0, 64, 61
2, 56474, Control_c, 0, 64, 63
2, 56490, Note_on_c, 0, 78, 0
2, 56512, Control_c, 0, 64, 63
2, 56531, Control_c, 0, 64, 64
2, 56551, Control_c, 0, 64, 66
2, 56551, Note_on_c, 0, 58, 0
2, 56569, Control_c, 0, 64, 68
2, 56581, Note_on_c, 0, 61, 49
2, 56608, Control_c, 0, 64, 67
2, 56685, Control_c, 0, 64, 67
2, 56763, Note_on_c, 0, 61, 0
2, 56800, Control_c, 0, 64, 67
2, 56819, Control_c, 0, 64, 67
2, 56834, Note_on_c, 0, 75, 66
2, 56837, Note_on_c, 0, 47, 47
2, 56839, Control_c, 0, 64, 63
2, 56857, Control_c, 0, 64, 56
2, 56877, Control_c, 0, 64, 48
2, 56884, Note_on_c, 0, 76, 0
2, 56915, Control_c, 0, 64, 52
2, 56934, Control_c, 0, 64, 59
2, 56954, Control_c, 0, 64, 61
2, 56973, Control_c, 0, 64, 62
2, 56992, Control_c, 0, 64, 63
2, 57063, Note_on_c, 0, 49, 49
2, 57100, Note_on_c, 0, 70, 0
2, 57146, Control_c, 0, 64, 62
2, 57203, Note_on_c, 0, 47, 0
2, 57204, Control_c, 0, 64, 62
2, 57296, Note_on_c, 0, 71, 61
2, 57310, Note_on_c, 0, 49, 0
2, 57318, Note_on_c, 0, 51, 39
2, 57337, Control_c, 0, 64, 61
2, 57357, Control_c, 0, 64, 58
2, 57376, Control_c, 0, 64, 52
2, 57395, Control_c, 0, 64, 50
2, 57434, Control_c, 0, 64, 53
2, 57456, Control_c, 0, 64, 55
2, 57494, Control_c, 0, 64, 56
2, 57513, Control_c, 0, 64, 59
2, 57529, Note_on_c, 0, 51, 0
2, 57532, Control_c, 0, 64, 60
2, 57551, Control_c, 0, 64, 61
2, 57559, Note_on_c, 0, 47, 45
2, 57725, Control_c, 0, 64, 62
2, 57743, Control_c, 0, 64, 63
2, 57764, Note_on_c, 0, 70, 64
2, 57767, Note_on_c, 0, 47, 0
2, 57782, Control_c, 0, 64, 63
2, 57788, Note_on_c, 0, 51, 38
2, 57820, Control_c, 0, 64, 62
2, 57840, Control_c, 0, 64, 57
2, 57859, Control_c, 0, 64, 48
2, 57878, Control_c, 0, 64, 44
2, 57897, Control_c, 0, 64, 44
2, 57917, Control_c, 0, 64, 51
2, 57936, Control_c, 0, 64, 61
2, 57954, Control_c, 0, 64, 63
2, 57972, Note_on_c, 0, 71, 0
2, 57993, Note_on_c, 0, 51, 0
2, 58001, Note_on_c, 0, 54, 49
2, 58089, Control_c, 0, 64, 62
2, 58128, Control_c, 0, 64, 63
2, 58186, Control_c, 0, 64, 63
2, 58205, Note_on_c, 0, 54, 0
2, 58206, Control_c, 0, 64, 64
2, 58214, Note_on_c, 0, 52, 46
2, 58224, Control_c, 0, 64, 64
2, 58244, Control_c, 0, 64, 65
2, 58248, Note_on_c, 0, 68, 65
2, 58263, Control_c, 0, 64, 64
2, 58282, Control_c, 0, 64, 63
2, 58300, Control_c, 0, 64, 57
2, 58320, Control_c, 0, 64, 45
2, 58332, Note_on_c, 0, 70, 0
2, 58339, Control_c, 0, 64, 40
2, 58358, Control_c, 0, 64, 42
2, 58377, Control_c, 0, 64, 52
2, 58397, Control_c, 0, 64, 62
2, 58416, Control_c, 0, 64, 64
2, 58434, Control_c, 0, 64, 64
2, 58439, Note_on_c, 0, 75, 0
2, 58454, Control_c, 0, 64, 64
2, 58479, Note_on_c, 0, 54, 50
2, 58492, Control_c, 0, 64, 64
2, 58507, Note_on_c, 0, 52, 0
2, 58531, Control_c, 0, 64, 64
2, 58731, Note_on_c, 0, 76, 66
2, 58742, Control_c, 0, 64, 63
2, 58747, Note_on_c, 0, 54, 0
2, 58752, Note_on_c, 0, 56, 45
2, 58762, Control_c, 0, 64, 59
2, 58780, Control_c, 0, 64, 54
2, 58800, Control_c, 0, 64, 49
2, 58819, Control_c, 0, 64, 48
2, 58838, Control_c, 0, 64, 51
2, 58857, Control_c, 0, 64, 56
2, 58876, Control_c, 0, 64, 60
2, 58896, Control_c, 0, 64, 61
2, 58914, Control_c, 0, 64, 62
2, 58934, Control_c, 0, 64, 63
2, 58960, Note_on_c, 0, 56, 0
2, 58972, Note_on_c, 0, 52, 53
2, 59030, Control_c, 0, 64, 63
2, 59088, Control_c, 0, 64, 63
2, 59166, Control_c, 0, 64, 63
2, 59187, Note_on_c, 0, 75, 71
2, 59204, Control_c, 0, 64, 63
2, 59226, Control_c, 0, 64, 61
2, 59238, Note_on_c, 0, 56, 51
2, 59243, Control_c, 0, 64, 58
2, 59262, Control_c, 0, 64, 51
2, 59265, Note_on_c, 0, 52, 0
2, 59281, Control_c, 0, 64, 48
2, 59299, Note_on_c, 0, 76, 0
2, 59301, Control_c, 0, 64, 49
2, 59320, Control_c, 0, 64, 56
2, 59339, Control_c, 0, 64, 60
2, 59358, Control_c, 0, 64, 61
2, 59378, Control_c, 0, 64, 62
2, 59396, Control_c, 0, 64, 63
2, 59416, Control_c, 0, 64, 64
2, 59435, Control_c, 0, 64, 64
2, 59435, Note_on_c, 0, 56, 0
2, 59450, Note_on_c, 0, 59, 48
2, 59583, Note_on_c, 0, 68, 0
2, 59680, Note_on_c, 0, 59, 0
2, 59684, Control_c, 0, 64, 64
2, 59687, Note_on_c, 0, 73, 62
2, 59694, Note_on_c, 0, 46, 47
2, 59704, Control_c, 0, 64, 62
2, 59723, Control_c, 0, 64, 55
2, 59742, Control_c, 0, 64, 46
2, 59761, Control_c, 0, 64, 44
2, 59781, Control_c, 0, 64, 46
2, 59791, Note_on_c, 0, 75, 0
2, 59800, Control_c, 0, 64, 56
2, 59819, Control_c, 0, 64, 62
2, 59838, Control_c, 0, 64, 63
2, 59896, Control_c, 0, 64, 64
2, 59945, Note_on_c, 0, 47, 49
2, 59992, Control_c, 0, 64, 63
2, 60028, Note_on_c, 0, 46, 0
2, 60147, Control_c, 0, 64, 63
2, 60166, Control_c, 0, 64, 62
2, 60186, Control_c, 0, 64, 59
2, 60197, Note_on_c, 0, 70, 66
2, 60203, Control_c, 0, 64, 54
2, 60220, Note_on_c, 0, 49, 50
2, 60222, Control_c, 0, 64, 49
2, 60239, Note_on_c, 0, 47, 0
2, 60241, Control_c, 0, 64, 48
2, 60261, Control_c, 0, 64, 50
2, 60280, Control_c, 0, 64, 56
2, 60299, Control_c, 0, 64, 59
2, 60318, Control_c, 0, 64, 61
2, 60338, Control_c, 0, 64, 62
2, 60356, Control_c, 0, 64, 63
2, 60376, Control_c, 0, 64, 63
2, 60395, Control_c, 0, 64, 64
2, 60433, Control_c, 0, 64, 64
2, 60445, Note_on_c, 0, 46, 46
2, 60451, Note_on_c, 0, 49, 0
2, 60472, Control_c, 0, 64, 65
2, 60606, Control_c, 0, 64, 65
2, 60625, Control_c, 0, 64, 66
2, 60664, Control_c, 0, 64, 65
2, 60664, Note_on_c, 0, 49, 45
2, 60669, Note_on_c, 0, 68, 59
2, 60683, Control_c, 0, 64, 61
2, 60702, Control_c, 0, 64, 54
2, 60721, Control_c, 0, 64, 48
2, 60741, Control_c, 0, 64, 47
2, 60760, Control_c, 0, 64, 50
2, 60779, Control_c, 0, 64, 59
2, 60783, Note_on_c, 0, 46, 0
2, 60798, Control_c, 0, 64, 63
2, 60818, Control_c, 0, 64, 64
2, 60856, Control_c, 0, 64, 66
2, 60866, Note_on_c, 0, 49, 0
2, 60875, Control_c, 0, 64, 69
2, 60891, Note_on_c, 0, 52, 47
2, 60895, Control_c, 0, 64, 72
2, 60913, Control_c, 0, 64, 75
2, 60950, Note_on_c, 0, 70, 0
2, 61010, Control_c, 0, 64, 74
2, 61029, Control_c, 0, 64, 74
2, 61067, Control_c, 0, 64, 73
2, 61105, Control_c, 0, 64, 72
2, 61113, Note_on_c, 0, 51, 34
2, 61124, Control_c, 0, 64, 71
2, 61132, Note_on_c, 0, 52, 0
2, 61144, Control_c, 0, 64, 71
2, 61182, Control_c, 0, 64, 70
2, 61186, Note_on_c, 0, 67, 48
2, 61201, Control_c, 0, 64, 70
2, 61215, Note_on_c, 0, 68, 0
2, 61240, Control_c, 0, 64, 68
2, 61259, Control_c, 0, 64, 66
2, 61278, Control_c, 0, 64, 61
2, 61292, Note_on_c, 0, 73, 0
2, 61298, Control_c, 0, 64, 56
2, 61316, Control_c, 0, 64, 54
2, 61336, Control_c, 0, 64, 55
2, 61355, Control_c, 0, 64, 57
2, 61375, Control_c, 0, 64, 59
2, 61393, Control_c, 0, 64, 60
2, 61413, Control_c, 0, 64, 61
2, 61431, Note_on_c, 0, 53, 42
2, 61432, Control_c, 0, 64, 61
2, 61451, Control_c, 0, 64, 62
2, 61470, Control_c, 0, 64, 63
2, 61476, Note_on_c, 0, 51, 0
2, 61490, Control_c, 0, 64, 63
2, 61509, Control_c, 0, 64, 64
2, 61547, Control_c, 0, 64, 63
2, 61653, Note_on_c, 0, 75, 53
2, 61662, Control_c, 0, 64, 64
2, 61664, Note_on_c, 0, 53, 0
2, 61681, Control_c, 0, 64, 64
2, 61695, Note_on_c, 0, 55, 39
2, 61720, Control_c, 0, 64, 63
2, 61739, Control_c, 0, 64, 61
2, 61758, Control_c, 0, 64, 59
2, 61796, Control_c, 0, 64, 61
2, 61816, Control_c, 0, 64, 62
2, 61835, Control_c, 0, 64, 63
2, 61873, Control_c, 0, 64, 64
2, 61893, Control_c, 0, 64, 65
2, 61905, Note_on_c, 0, 51, 44
2, 61906, Note_on_c, 0, 55, 0
2, 61912, Control_c, 0, 64, 65
2, 62084, Control_c, 0, 64, 66
2, 62104, Control_c, 0, 64, 67
2, 62116, Note_on_c, 0, 55, 32
2, 62123, Control_c, 0, 64, 67
2, 62132, Note_on_c, 0, 73, 61
2, 62142, Control_c, 0, 64, 64
2, 62161, Control_c, 0, 64, 58
2, 62179, Note_on_c, 0, 51, 0
2, 62181, Control_c, 0, 64, 55
2, 62200, Control_c, 0, 64, 56
2, 62219, Control_c, 0, 64, 60
2, 62238, Control_c, 0, 64, 64
2, 62250, Note_on_c, 0, 67, 0
2, 62258, Control_c, 0, 64, 66
2, 62276, Control_c, 0, 64, 69
2, 62296, Control_c, 0, 64, 70
2, 62315, Control_c, 0, 64, 71
2, 62317, Note_on_c, 0, 75, 0
2, 62335, Control_c, 0, 64, 71
2, 62344, Note_on_c, 0, 55, 0
2, 62373, Control_c, 0, 64, 71
2, 62387, Note_on_c, 0, 58, 43
2, 62411, Control_c, 0, 64, 70
2, 62430, Control_c, 0, 64, 70
2, 62450, Control_c, 0, 64, 69
2, 62469, Control_c, 0, 64, 69
2, 62507, Control_c, 0, 64, 68
2, 62564, Control_c, 0, 64, 68
2, 62584, Control_c, 0, 64, 67
2, 62622, Note_on_c, 0, 56, 44
2, 62642, Note_on_c, 0, 58, 0
2, 62652, Note_on_c, 0, 71, 53
2, 62666, Note_on_c, 0, 68, 43
2, 62680, Control_c, 0, 64, 65
2, 62699, Control_c, 0, 64, 62
2, 62718, Control_c, 0, 64, 55
2, 62738, Control_c, 0, 64, 49
2, 62756, Control_c, 0, 64, 48
2, 62776, Control_c, 0, 64, 50
2, 62795, Control_c, 0, 64, 57
2, 62815, Control_c, 0, 64, 62
2, 62833, Control_c, 0, 64, 63
2, 62853, Control_c, 0, 64, 63
2, 62872, Control_c, 0, 64, 64
2, 62884, Note_on_c, 0, 68, 0
2, 62891, Control_c, 0, 64, 64
2, 62910, Control_c, 0, 64, 65
2, 62916, Note_on_c, 0, 70, 59
2, 62921, Note_on_c, 0, 58, 44
2, 62955, Note_on_c, 0, 73, 0
2, 62975, Note_on_c, 0, 71, 0
2, 62985, Note_on_c, 0, 56, 0
2, 63010, Control_c, 0, 64, 64
2, 63124, Note_on_c, 0, 58, 0
2, 63143, Note_on_c, 0, 68, 61
2, 63150, Note_on_c, 0, 59, 50
2, 63159, Control_c, 0, 64, 64
2, 63167, Note_on_c, 0, 70, 0
2, 63217, Control_c, 0, 64, 63
2, 63371, Note_on_c, 0, 51, 45
2, 63380, Note_on_c, 0, 71, 63
2, 63428, Control_c, 0, 64, 63
2, 63446, Control_c, 0, 64, 62
2, 63466, Control_c, 0, 64, 61
2, 63485, Control_c, 0, 64, 60
2, 63492, Note_on_c, 0, 68, 0
2, 63518, Note_on_c, 0, 59, 0
2, 63523, Control_c, 0, 64, 60
2, 63562, Control_c, 0, 64, 61
2, 63581, Control_c, 0, 64, 61
2, 63595, Note_on_c, 0, 52, 48
2, 63617, Note_on_c, 0, 73, 65
2, 63620, Control_c, 0, 64, 62
2, 63692, Note_on_c, 0, 51, 0
2, 63713, Note_on_c, 0, 71, 0
2, 63838, Note_on_c, 0, 52, 0
2, 63840, Note_on_c, 0, 56, 52
2, 63850, Note_on_c, 0, 76, 67
2, 63869, Control_c, 0, 64, 61
2, 63885, Note_on_c, 0, 73, 0
2, 63966, Control_c, 0, 64, 62
2, 64075, Note_on_c, 0, 56, 0
2, 64097, Note_on_c, 0, 54, 47
2, 64110, Note_on_c, 0, 70, 55
2, 64167, Note_on_c, 0, 76, 0
2, 64216, Control_c, 0, 64, 61
2, 64235, Control_c, 0, 64, 59
2, 64255, Control_c, 0, 64, 57
2, 64273, Control_c, 0, 64, 55
2, 64350, Control_c, 0, 64, 55
2, 64356, Note_on_c, 0, 56, 55
2, 64360, Note_on_c, 0, 68, 65
2, 64361, Note_on_c, 0, 54, 0
2, 64370, Control_c, 0, 64, 56
2, 64389, Control_c, 0, 64, 58
2, 64407, Control_c, 0, 64, 59
2, 64427, Control_c, 0, 64, 59
2, 64444, Note_on_c, 0, 70, 0
2, 64484, Control_c, 0, 64, 60
2, 64504, Control_c, 0, 64, 61
2, 64523, Control_c, 0, 64, 61
2, 64581, Control_c, 0, 64, 62
2, 64585, Note_on_c, 0, 56, 0
2, 64598, Note_on_c, 0, 66, 59
2, 64602, Note_on_c, 0, 58, 53
2, 64604, Note_on_c, 0, 68, 0
2, 64753, Control_c, 0, 64, 62
2, 64773, Control_c, 0, 64, 63
2, 64803, Note_on_c, 0, 70, 67
2, 64810, Note_on_c, 0, 49, 54
2, 64830, Control_c, 0, 64, 61
2, 64850, Control_c, 0, 64, 57
2, 64860, Note_on_c, 0, 58, 0
2, 64869, Control_c, 0, 64, 52
2, 64887, Control_c, 0, 64, 50
2, 64907, Control_c, 0, 64, 51
2, 64926, Control_c, 0, 64, 56
2, 64945, Control_c, 0, 64, 60
2, 64964, Control_c, 0, 64, 60
2, 64984, Control_c, 0, 64, 61
2, 65003, Control_c, 0, 64, 62
2, 65018, Note_on_c, 0, 66, 0
2, 65022, Control_c, 0, 64, 63
2, 65035, Note_on_c, 0, 51, 53
2, 65041, Control_c, 0, 64, 63
2, 65050, Note_on_c, 0, 71, 68
2, 65084, Note_on_c, 0, 49, 0
2, 65193, Note_on_c, 0, 70, 0
2, 65273, Note_on_c, 0, 54, 58
2, 65281, Note_on_c, 0, 75, 70
2, 65285, Note_on_c, 0, 51, 0
2, 65310, Control_c, 0, 64, 63
2, 65328, Note_on_c, 0, 71, 0
2, 65367, Control_c, 0, 64, 63
2, 65387, Control_c, 0, 64, 64
2, 65425, Control_c, 0, 64, 63
2, 65444, Control_c, 0, 64, 61
2, 65464, Control_c, 0, 64, 56
2, 65483, Control_c, 0, 64, 51
2, 65502, Control_c, 0, 64, 50
2, 65504, Note_on_c, 0, 68, 65
2, 65505, Note_on_c, 0, 52, 57
2, 65520, Note_on_c, 0, 54, 0
2, 65521, Control_c, 0, 64, 51
2, 65541, Control_c, 0, 64, 55
2, 65543, Note_on_c, 0, 75, 0
2, 65560, Control_c, 0, 64, 57
2, 65579, Control_c, 0, 64, 59
2, 65598, Control_c, 0, 64, 61
2, 65618, Control_c, 0, 64, 62
2, 65636, Control_c, 0, 64, 63
2, 65713, Control_c, 0, 64, 63
2, 65738, Note_on_c, 0, 75, 69
2, 65752, Control_c, 0, 64, 63
2, 65771, Note_on_c, 0, 54, 59
2, 65784, Note_on_c, 0, 52, 0
2, 65823, Note_on_c, 0, 68, 0
2, 65986, Note_on_c, 0, 54, 0
2, 65987, Note_on_c, 0, 56, 58
2, 65987, Note_on_c, 0, 73, 73
2, 66048, Note_on_c, 0, 75, 0
2, 66062, Control_c, 0, 64, 62
2, 66158, Control_c, 0, 64, 62
2, 66177, Control_c, 0, 64, 60
2, 66196, Control_c, 0, 64, 58
2, 66208, Note_on_c, 0, 71, 71
2, 66212, Note_on_c, 0, 73, 0
2, 66215, Control_c, 0, 64, 56
2, 66218, Note_on_c, 0, 47, 58
2, 66226, Note_on_c, 0, 56, 0
2, 66235, Control_c, 0, 64, 53
2, 66253, Control_c, 0, 64, 53
2, 66292, Control_c, 0, 64, 55
2, 66312, Control_c, 0, 64, 56
2, 66330, Control_c, 0, 64, 57
2, 66350, Control_c, 0, 64, 59
2, 66369, Control_c, 0, 64, 61
2, 66388, Control_c, 0, 64, 62
2, 66427, Control_c, 0, 64, 62
2, 66440, Note_on_c, 0, 70, 73
2, 66441, Note_on_c, 0, 49, 60
2, 66446, Control_c, 0, 64, 63
2, 66465, Control_c, 0, 64, 64
2, 66484, Control_c, 0, 64, 64
2, 66498, Note_on_c, 0, 71, 0
2, 66525, Note_on_c, 0, 47, 0
2, 66561, Control_c, 0, 64, 64
2, 66580, Control_c, 0, 64, 63
2, 66599, Control_c, 0, 64, 61
2, 66618, Control_c, 0, 64, 60
2, 66638, Control_c, 0, 64, 60
2, 66657, Control_c, 0, 64, 61
2, 66659, Note_on_c, 0, 68, 71
2, 66667, Note_on_c, 0, 52, 60
2, 66676, Control_c, 0, 64, 62
2, 66686, Note_on_c, 0, 49, 0
2, 66748, Note_on_c, 0, 70, 0
2, 66753, Control_c, 0, 64, 62
2, 66772, Control_c, 0, 64, 63
2, 66849, Control_c, 0, 64, 62
2, 66868, Control_c, 0, 64, 61
2, 66887, Control_c, 0, 64, 58
2, 66907, Control_c, 0, 64, 54
2, 66909, Note_on_c, 0, 67, 66
2, 66912, Note_on_c, 0, 51, 59
2, 66926, Control_c, 0, 64, 53
2, 66928, Note_on_c, 0, 52, 0
2, 66939, Note_on_c, 0, 68, 0
2, 66964, Control_c, 0, 64, 54
2, 66984, Control_c, 0, 64, 56
2, 67003, Control_c, 0, 64, 56
2, 67022, Control_c, 0, 64, 58
2, 67041, Control_c, 0, 64, 60
2, 67060, Control_c, 0, 64, 61
2, 67079, Control_c, 0, 64, 61
2, 67137, Control_c, 0, 64, 62
2, 67153, Note_on_c, 0, 53, 59
2, 67153, Note_on_c, 0, 68, 73
2, 67156, Control_c, 0, 64, 62
2, 67194, Note_on_c, 0, 51, 0
2, 67233, Control_c, 0, 64, 63
2, 67267, Note_on_c, 0, 67, 0
2, 67290, Control_c, 0, 64, 61
2, 67310, Control_c, 0, 64, 60
2, 67329, Control_c, 0, 64, 58
2, 67348, Control_c, 0, 64, 57
2, 67406, Control_c, 0, 64, 57
2, 67410, Note_on_c, 0, 55, 47
2, 67417, Note_on_c, 0, 53, 0
2, 67424, Note_on_c, 0, 70, 72
2, 67425, Control_c, 0, 64, 58
2, 67444, Control_c, 0, 64, 59
2, 67464, Control_c, 0, 64, 60
2, 67483, Control_c, 0, 64, 61
2, 67485, Note_on_c, 0, 68, 0
2, 67559, Control_c, 0, 64, 60
2, 67578, Control_c, 0, 64, 60
2, 67598, Control_c, 0, 64, 58
2, 67617, Control_c, 0, 64, 56
2, 67636, Control_c, 0, 64, 55
2, 67665, Note_on_c, 0, 46, 48
2, 67672, Note_on_c, 0, 67, 60
2, 67675, Control_c, 0, 64, 56
2, 67693, Control_c, 0, 64, 57
2, 67699, Note_on_c, 0, 70, 0
2, 67732, Control_c, 0, 64, 58
2, 67753, Control_c, 0, 64, 59
2, 67771, Control_c, 0, 64, 60
2, 67791, Control_c, 0, 64, 61
2, 67810, Control_c, 0, 64, 61
2, 67829, Control_c, 0, 64, 62
2, 67840, Note_on_c, 0, 55, 0
2, 67868, Control_c, 0, 64, 62
2, 67923, Control_c, 0, 64, 62
2, 67923, Note_on_c, 0, 47, 49
2, 67930, Note_on_c, 0, 68, 63
2, 67943, Control_c, 0, 64, 61
2, 67996, Note_on_c, 0, 46, 0
2, 68000, Control_c, 0, 64, 61
2, 68053, Note_on_c, 0, 67, 0
2, 68057, Control_c, 0, 64, 62
2, 68096, Control_c, 0, 64, 62
2, 68158, Note_on_c, 0, 51, 51
2, 68165, Note_on_c, 0, 47, 0
2, 68173, Control_c, 0, 64, 62
2, 68204, Note_on_c, 0, 71, 66
2, 68269, Control_c, 0, 64, 61
2, 68423, Control_c, 0, 64, 62
2, 68431, Note_on_c, 0, 49, 50
2, 68458, Note_on_c, 0, 51, 0
2, 68460, Control_c, 0, 64, 62
2, 68480, Control_c, 0, 64, 58
2, 68499, Control_c, 0, 64, 51
2, 68518, Control_c, 0, 64, 47
2, 68519, Note_on_c, 0, 76, 63
2, 68544, Note_on_c, 0, 71, 0
2, 68557, Control_c, 0, 64, 52
2, 68576, Control_c, 0, 64, 59
2, 68595, Control_c, 0, 64, 63
2, 68614, Control_c, 0, 64, 65
2, 68634, Control_c, 0, 64, 66
2, 68653, Control_c, 0, 64, 69
2, 68672, Control_c, 0, 64, 72
2, 68691, Control_c, 0, 64, 75
2, 68713, Control_c, 0, 64, 78
2, 68731, Control_c, 0, 64, 79
2, 68751, Control_c, 0, 64, 80
2, 68780, Note_on_c, 0, 51, 45
2, 68789, Control_c, 0, 64, 81
2, 68802, Note_on_c, 0, 76, 0
2, 68808, Control_c, 0, 64, 81
2, 68836, Note_on_c, 0, 68, 0
2, 68850, Note_on_c, 0, 49, 0
2, 68865, Control_c, 0, 64, 82
2, 68961, Control_c, 0, 64, 82
2, 68980, Control_c, 0, 64, 83
2, 68999, Control_c, 0, 64, 85
2, 69028, Note_on_c, 0, 51, 0
2, 69038, Control_c, 0, 64, 80
2, 69042, Note_on_c, 0, 76, 72
2, 69057, Control_c, 0, 64, 69
2, 69064, Note_on_c, 0, 52, 46
2, 69068, Note_on_c, 0, 68, 47
2, 69076, Control_c, 0, 64, 57
2, 69095, Control_c, 0, 64, 53
2, 69115, Control_c, 0, 64, 54
2, 69133, Control_c, 0, 64, 61
2, 69153, Control_c, 0, 64, 65
2, 69172, Control_c, 0, 64, 70
2, 69192, Control_c, 0, 64, 75
2, 69210, Control_c, 0, 64, 82
2, 69230, Control_c, 0, 64, 87
2, 69249, Control_c, 0, 64, 90
2, 69268, Control_c, 0, 64, 93
2, 69273, Note_on_c, 0, 47, 58
2, 69287, Control_c, 0, 64, 94
2, 69307, Control_c, 0, 64, 95
2, 69326, Control_c, 0, 64, 96
2, 69357, Note_on_c, 0, 76, 0
2, 69364, Control_c, 0, 64, 96
2, 69371, Note_on_c, 0, 68, 0
2, 69403, Control_c, 0, 64, 97
2, 69422, Control_c, 0, 64, 98
2, 69441, Control_c, 0, 64, 100
2, 69460, Control_c, 0, 64, 108
2, 69479, Control_c, 0, 64, 127
2, 69518, Note_on_c, 0, 76, 74
2, 69526, Note_on_c, 0, 49, 66
2, 69534, Note_on_c, 0, 68, 66
2, 69537, Control_c, 0, 64, 101
2, 69549, Note_on_c, 0, 52, 0
2, 69556, Control_c, 0, 64, 70
2, 69575, Control_c, 0, 64, 51
2, 69595, Control_c, 0, 64, 39
2, 69613, Control_c, 0, 64, 41
2, 69615, Note_on_c, 0, 47, 0
2, 69633, Control_c, 0, 64, 59
2, 69652, Control_c, 0, 64, 67
2, 69670, Control_c, 0, 64, 77
2, 69688, Control_c, 0, 64, 95
2, 69708, Control_c, 0, 64, 127
2, 69760, Note_on_c, 0, 52, 64
2, 69799, Note_on_c, 0, 76, 0
2, 69829, Note_on_c, 0, 49, 0
2, 70003, Note_on_c, 0, 76, 75
2, 70010, Note_on_c, 0, 45, 53
2, 70013, Control_c, 0, 64, 110
2, 70016, Note_on_c, 0, 73, 68
2, 70033, Control_c, 0, 64, 78
2, 70051, Control_c, 0, 64, 63
2, 70071, Control_c, 0, 64, 42
2, 70090, Control_c, 0, 64, 18
2, 70109, Control_c, 0, 64, 9
2, 70128, Control_c, 0, 64, 15
2, 70148, Control_c, 0, 64, 44
2, 70167, Control_c, 0, 64, 61
2, 70176, Note_on_c, 0, 68, 0
2, 70186, Control_c, 0, 64, 65
2, 70205, Control_c, 0, 64, 66
2, 70225, Control_c, 0, 64, 68
2, 70243, Control_c, 0, 64, 70
2, 70259, Note_on_c, 0, 49, 72
2, 70263, Control_c, 0, 64, 74
2, 70282, Control_c, 0, 64, 80
2, 70282, Note_on_c, 0, 76, 0
2, 70302, Control_c, 0, 64, 87
2, 70320, Control_c, 0, 64, 93
2, 70333, Note_on_c, 0, 73, 0
2, 70339, Control_c, 0, 64, 94
2, 70359, Control_c, 0, 64, 95
2, 70362, Note_on_c, 0, 52, 0
2, 70377, Control_c, 0, 64, 96
2, 70391, Note_on_c, 0, 45, 0
2, 70397, Control_c, 0, 64, 96
2, 70416, Control_c, 0, 64, 98
2, 70436, Control_c, 0, 64, 101
2, 70454, Control_c, 0, 64, 106
2, 70474, Control_c, 0, 64, 113
2, 70493, Control_c, 0, 64, 115
2, 70504, Note_on_c, 0, 76, 79
2, 70507, Note_on_c, 0, 73, 70
2, 70509, Note_on_c, 0, 52, 64
2, 70510, Control_c, 0, 64, 97
2, 70528, Control_c, 0, 64, 76
2, 70548, Control_c, 0, 64, 61
2, 70567, Control_c, 0, 64, 17
2, 70586, Control_c, 0, 64, 0
2, 70648, Note_on_c, 0, 49, 0
2, 70658, Control_c, 0, 64, 47
2, 70676, Control_c, 0, 64, 64
2, 70696, Control_c, 0, 64, 67
2, 70735, Control_c, 0, 64, 68
2, 70751, Note_on_c, 0, 44, 75
2, 70753, Control_c, 0, 64, 69
2, 70762, Control_c, 0, 64, 72
2, 70772, Note_on_c, 0, 76, 0
2, 70781, Control_c, 0, 64, 76
2, 70800, Control_c, 0, 64, 79
2, 70818, Note_on_c, 0, 73, 0
2, 70820, Control_c, 0, 64, 80
2, 70897, Control_c, 0, 64, 81
2, 70902, Note_on_c, 0, 52, 0
2, 70954, Control_c, 0, 64, 80
2, 70992, Control_c, 0, 64, 80
2, 71012, Control_c, 0, 64, 79
2, 71018, Note_on_c, 0, 76, 79
2, 71024, Note_on_c, 0, 73, 73
2, 71031, Control_c, 0, 64, 76
2, 71038, Note_on_c, 0, 49, 81
2, 71051, Control_c, 0, 64, 68
2, 71069, Control_c, 0, 64, 56
2, 71088, Control_c, 0, 64, 0
2, 71185, Control_c, 0, 64, 26
2, 71203, Control_c, 0, 64, 61
2, 71223, Control_c, 0, 64, 67
2, 71242, Control_c, 0, 64, 72
2, 71261, Control_c, 0, 64, 76
2, 71263, Note_on_c, 0, 44, 0
2, 71280, Control_c, 0, 64, 78
2, 71286, Note_on_c, 0, 76, 0
2, 71300, Control_c, 0, 64, 79
2, 71319, Control_c, 0, 64, 82
2, 71327, Note_on_c, 0, 52, 80
2, 71338, Control_c, 0, 64, 84
2, 71357, Control_c, 0, 64, 85
2, 71375, Note_on_c, 0, 73, 0
2, 71377, Control_c, 0, 64, 86
2, 71472, Control_c, 0, 64, 85
2, 71531, Control_c, 0, 64, 85
2, 71549, Control_c, 0, 64, 84
2, 71549, Note_on_c, 0, 49, 0
2, 71568, Control_c, 0, 64, 82
2, 71588, Control_c, 0, 64, 81
2, 71606, Control_c, 0, 64, 80
2, 71626, Control_c, 0, 64, 79
2, 71645, Control_c, 0, 64, 77
2, 71665, Control_c, 0, 64, 74
2, 71683, Control_c, 0, 64, 70
2, 71703, Control_c, 0, 64, 67
2, 71722, Control_c, 0, 64, 65
2, 71741, Control_c, 0, 64, 63
2, 71744, Note_on_c, 0, 76, 72
2, 71756, Note_on_c, 0, 73, 66
2, 71760, Control_c, 0, 64, 62
2, 71776, Note_on_c, 0, 43, 56
2, 71780, Control_c, 0, 64, 60
2, 71799, Control_c, 0, 64, 57
2, 71818, Control_c, 0, 64, 51
2, 71837, Control_c, 0, 64, 43
2, 71857, Control_c, 0, 64, 19
2, 71875, Control_c, 0, 64, 0
2, 71882, Note_on_c, 0, 52, 0
2, 72106, Control_c, 0, 64, 13
2, 72125, Control_c, 0, 64, 32
2, 72145, Control_c, 0, 64, 34
2, 72183, Control_c, 0, 64, 35
2, 72189, Note_on_c, 0, 71, 66
2, 72202, Control_c, 0, 64, 40
2, 72221, Control_c, 0, 64, 45
2, 72240, Control_c, 0, 64, 45
2, 72260, Control_c, 0, 64, 46
2, 72279, Control_c, 0, 64, 50
2, 72283, Note_on_c, 0, 73, 0
2, 72298, Control_c, 0, 64, 57
2, 72317, Control_c, 0, 64, 59
2, 72337, Control_c, 0, 64, 58
2, 72375, Control_c, 0, 64, 59
2, 72452, Note_on_c, 0, 70, 68
2, 72474, Note_on_c, 0, 71, 0
2, 72678, Note_on_c, 0, 73, 70
2, 72682, Control_c, 0, 64, 59
2, 72701, Control_c, 0, 64, 60
2, 72720, Control_c, 0, 64, 61
2, 72740, Control_c, 0, 64, 61
2, 72770, Note_on_c, 0, 70, 0
2, 72817, Control_c, 0, 64, 62
2, 72835, Control_c, 0, 64, 61
2, 72894, Control_c, 0, 64, 62
2, 72912, Control_c, 0, 64, 62
2, 72929, Note_on_c, 0, 71, 70
2, 72932, Control_c, 0, 64, 63
2, 72970, Control_c, 0, 64, 61
2, 72989, Control_c, 0, 64, 57
2, 73008, Control_c, 0, 64, 47
2, 73028, Control_c, 0, 64, 35
2, 73034, Note_on_c, 0, 73, 0
2, 73046, Control_c, 0, 64, 32
2, 73066, Control_c, 0, 64, 37
2, 73085, Control_c, 0, 64, 54
2, 73105, Control_c, 0, 64, 62
2, 73123, Control_c, 0, 64, 64
2, 73143, Control_c, 0, 64, 65
2, 73162, Control_c, 0, 64, 67
2, 73181, Control_c, 0, 64, 69
2, 73185, Note_on_c, 0, 68, 69
2, 73200, Control_c, 0, 64, 72
2, 73220, Control_c, 0, 64, 75
2, 73233, Note_on_c, 0, 71, 0
2, 73239, Control_c, 0, 64, 77
2, 73277, Control_c, 0, 64, 78
2, 73315, Control_c, 0, 64, 78
2, 73335, Control_c, 0, 64, 79
2, 73367, Note_on_c, 0, 68, 0
2, 73374, Control_c, 0, 64, 79
2, 73412, Control_c, 0, 64, 78
2, 73431, Control_c, 0, 64, 78
2, 73450, Control_c, 0, 64, 76
2, 73469, Control_c, 0, 64, 74
2, 73488, Control_c, 0, 64, 72
2, 73510, Control_c, 0, 64, 71
2, 73510, Note_on_c, 0, 70, 72
2, 73528, Control_c, 0, 64, 70
2, 73548, Control_c, 0, 64, 69
2, 73567, Control_c, 0, 64, 69
2, 73586, Control_c, 0, 64, 68
2, 73605, Control_c, 0, 64, 68
2, 73625, Control_c, 0, 64, 67
2, 73644, Control_c, 0, 64, 65
2, 73663, Control_c, 0, 64, 61
2, 73682, Control_c, 0, 64, 56
2, 73702, Control_c, 0, 64, 47
2, 73720, Control_c, 0, 64, 36
2, 73740, Control_c, 0, 64, 27
2, 73759, Control_c, 0, 64, 21
2, 73797, Control_c, 0, 64, 24
2, 73817, Control_c, 0, 64, 30
2, 73830, Note_on_c, 0, 75, 66
2, 73836, Control_c, 0, 64, 35
2, 73855, Control_c, 0, 64, 39
2, 73874, Control_c, 0, 64, 45
2, 73886, Note_on_c, 0, 76, 0
2, 73894, Control_c, 0, 64, 53
2, 73913, Control_c, 0, 64, 54
2, 73970, Control_c, 0, 64, 56
2, 73990, Control_c, 0, 64, 59
2, 74008, Control_c, 0, 64, 61
2, 74047, Control_c, 0, 64, 61
2, 74066, Control_c, 0, 64, 62
2, 74077, Note_on_c, 0, 73, 74
2, 74085, Control_c, 0, 64, 63
2, 74105, Control_c, 0, 64, 64
2, 74135, Note_on_c, 0, 75, 0
2, 74182, Control_c, 0, 64, 64
2, 74297, Control_c, 0, 64, 65
2, 74316, Control_c, 0, 64, 65
2, 74335, Control_c, 0, 64, 65
2, 74337, Note_on_c, 0, 82, 78
2, 74339, Note_on_c, 0, 43, 0
2, 74354, Control_c, 0, 64, 62
2, 74360, Note_on_c, 0, 55, 50
2, 74374, Control_c, 0, 64, 54
2, 74393, Control_c, 0, 64, 47
2, 74412, Control_c, 0, 64, 47
2, 74431, Control_c, 0, 64, 52
2, 74450, Control_c, 0, 64, 57
2, 74470, Control_c, 0, 64, 58
2, 74488, Control_c, 0, 64, 59
2, 74508, Control_c, 0, 64, 60
2, 74527, Control_c, 0, 64, 61
2, 74546, Control_c, 0, 64, 62
2, 74565, Control_c, 0, 64, 62
2, 74585, Control_c, 0, 64, 61
2, 74586, Note_on_c, 0, 73, 0
2, 74600, Note_on_c, 0, 55, 0
2, 74601, Note_on_c, 0, 76, 74
2, 74602, Control_c, 0, 64, 58
2, 74617, Note_on_c, 0, 56, 59
2, 74621, Control_c, 0, 64, 51
2, 74640, Control_c, 0, 64, 46
2, 74679, Control_c, 0, 64, 50
2, 74698, Control_c, 0, 64, 54
2, 74713, Note_on_c, 0, 82, 0
2, 74717, Control_c, 0, 64, 57
2, 74737, Control_c, 0, 64, 60
2, 74755, Control_c, 0, 64, 62
2, 74775, Control_c, 0, 64, 64
2, 74794, Control_c, 0, 64, 64
2, 74832, Note_on_c, 0, 58, 58
2, 74842, Note_on_c, 0, 56, 0
2, 74845, Note_on_c, 0, 73, 79
2, 74882, Note_on_c, 0, 76, 0
2, 74928, Control_c, 0, 64, 64
2, 75025, Control_c, 0, 64, 63
2, 75027, Note_on_c, 0, 70, 0
2, 75104, Note_on_c, 0, 47, 48
2, 75130, Note_on_c, 0, 58, 0
2, 75159, Control_c, 0, 64, 62
2, 75175, Note_on_c, 0, 75, 70
2, 75178, Control_c, 0, 64, 57
2, 75192, Note_on_c, 0, 73, 0
2, 75197, Control_c, 0, 64, 46
2, 75217, Control_c, 0, 64, 32
2, 75235, Control_c, 0, 64, 27
2, 75255, Control_c, 0, 64, 27
2, 75274, Control_c, 0, 64, 39
2, 75294, Control_c, 0, 64, 54
2, 75312, Control_c, 0, 64, 59
2, 75332, Control_c, 0, 64, 61
2, 75351, Control_c, 0, 64, 62
2, 75370, Control_c, 0, 64, 63
2, 75389, Control_c, 0, 64, 63
2, 75408, Control_c, 0, 64, 64
2, 75428, Control_c, 0, 64, 64
2, 75435, Note_on_c, 0, 73, 67
2, 75466, Control_c, 0, 64, 64
2, 75620, Control_c, 0, 64, 63
2, 75668, Note_on_c, 0, 75, 0
2, 75673, Note_on_c, 0, 71, 70
2, 75681, Note_on_c, 0, 68, 50
2, 75719, Note_on_c, 0, 73, 0
2, 75792, Control_c, 0, 64, 64
2, 75888, Control_c, 0, 64, 63
2, 75913, Note_on_c, 0, 68, 0
2, 75920, Note_on_c, 0, 75, 67
2, 75944, Note_on_c, 0, 71, 0
2, 76042, Control_c, 0, 64, 63
2, 76080, Control_c, 0, 64, 62
2, 76169, Note_on_c, 0, 52, 60
2, 76173, Note_on_c, 0, 73, 62
2, 76187, Note_on_c, 0, 47, 0
2, 76195, Control_c, 0, 64, 62
2, 76215, Control_c, 0, 64, 58
2, 76234, Control_c, 0, 64, 47
2, 76254, Control_c, 0, 64, 40
2, 76267, Note_on_c, 0, 75, 0
2, 76272, Control_c, 0, 64, 39
2, 76311, Control_c, 0, 64, 44
2, 76330, Control_c, 0, 64, 54
2, 76349, Control_c, 0, 64, 60
2, 76368, Control_c, 0, 64, 63
2, 76389, Control_c, 0, 64, 64
2, 76407, Control_c, 0, 64, 64
2, 76417, Note_on_c, 0, 70, 66
2, 76453, Note_on_c, 0, 73, 0
2, 76465, Control_c, 0, 64, 65
2, 76484, Control_c, 0, 64, 64
2, 76522, Control_c, 0, 64, 64
2, 76657, Control_c, 0, 64, 63
2, 76674, Note_on_c, 0, 71, 61
2, 76675, Control_c, 0, 64, 61
2, 76675, Note_on_c, 0, 49, 61
2, 76689, Note_on_c, 0, 52, 0
2, 76695, Control_c, 0, 64, 51
2, 76708, Note_on_c, 0, 70, 0
2, 76714, Control_c, 0, 64, 24
2, 76734, Control_c, 0, 64, 0
2, 76791, Control_c, 0, 64, 31
2, 76810, Control_c, 0, 64, 57
2, 76829, Control_c, 0, 64, 64
2, 76848, Control_c, 0, 64, 65
2, 76868, Control_c, 0, 64, 66
2, 76944, Note_on_c, 0, 70, 70
2, 77021, Control_c, 0, 64, 65
2, 77023, Note_on_c, 0, 71, 0
2, 77098, Control_c, 0, 64, 65
2, 77137, Control_c, 0, 64, 64
2, 77194, Control_c, 0, 64, 63
2, 77206, Note_on_c, 0, 51, 62
2, 77210, Note_on_c, 0, 68, 70
2, 77214, Control_c, 0, 64, 60
2, 77230, Note_on_c, 0, 49, 0
2, 77232, Control_c, 0, 64, 48
2, 77252, Control_c, 0, 64, 21
2, 77271, Control_c, 0, 64, 0
2, 77294, Note_on_c, 0, 70, 0
2, 77348, Control_c, 0, 64, 34
2, 77366, Control_c, 0, 64, 57
2, 77386, Control_c, 0, 64, 63
2, 77405, Control_c, 0, 64, 64
2, 77463, Control_c, 0, 64, 65
2, 77482, Control_c, 0, 64, 66
2, 77485, Note_on_c, 0, 71, 67
2, 77501, Control_c, 0, 64, 66
2, 77544, Note_on_c, 0, 68, 0
2, 77578, Control_c, 0, 64, 66
2, 77694, Control_c, 0, 64, 65
2, 77712, Control_c, 0, 64, 65
2, 77731, Control_c, 0, 64, 64
2, 77751, Control_c, 0, 64, 64
2, 77758, Note_on_c, 0, 39, 61
2, 77758, Note_on_c, 0, 51, 0
2, 77780, Note_on_c, 0, 70, 68
2, 77808, Control_c, 0, 64, 63
2, 77828, Control_c, 0, 64, 63
2, 77846, Control_c, 0, 64, 59
2, 77863, Note_on_c, 0, 71, 0
2, 77866, Control_c, 0, 64, 46
2, 77885, Control_c, 0, 64, 15
2, 77905, Control_c, 0, 64, 0
2, 77981, Control_c, 0, 64, 51
2, 78000, Control_c, 0, 64, 63
2, 78020, Control_c, 0, 64, 66
2, 78077, Control_c, 0, 64, 66
2, 78097, Note_on_c, 0, 67, 59
2, 78103, Note_on_c, 0, 70, 0
2, 78174, Control_c, 0, 64, 66
2, 78309, Control_c, 0, 64, 65
2, 78327, Control_c, 0, 64, 65
2, 78347, Control_c, 0, 64, 64
2, 78366, Control_c, 0, 64, 64
2, 78385, Control_c, 0, 64, 63
2, 78393, Note_on_c, 0, 44, 45
2, 78424, Control_c, 0, 64, 63
2, 78461, Control_c, 0, 64, 63
2, 78473, Note_on_c, 0, 68, 67
2, 78480, Control_c, 0, 64, 63
2, 78500, Control_c, 0, 64, 62
2, 78519, Control_c, 0, 64, 61
2, 78535, Note_on_c, 0, 67, 0
2, 78538, Control_c, 0, 64, 58
2, 78543, Note_on_c, 0, 39, 0
2, 78557, Control_c, 0, 64, 52
2, 78577, Control_c, 0, 64, 46
2, 78595, Control_c, 0, 64, 43
2, 78615, Control_c, 0, 64, 43
2, 78634, Control_c, 0, 64, 47
2, 78654, Control_c, 0, 64, 52
2, 78672, Control_c, 0, 64, 55
2, 78691, Control_c, 0, 64, 57
2, 78711, Control_c, 0, 64, 59
2, 78730, Control_c, 0, 64, 60
2, 78774, Note_on_c, 0, 46, 51
2, 78867, Note_on_c, 0, 44, 0
2, 79030, Note_on_c, 0, 66, 66
2, 79046, Note_on_c, 0, 46, 0
2, 79056, Note_on_c, 0, 48, 55
2, 79075, Control_c, 0, 64, 60
2, 79095, Control_c, 0, 64, 61
2, 79287, Note_on_c, 0, 44, 51
2, 79328, Note_on_c, 0, 48, 0
2, 79383, Control_c, 0, 64, 60
2, 79440, Control_c, 0, 64, 60
2, 79539, Note_on_c, 0, 48, 52
2, 79555, Control_c, 0, 64, 59
2, 79559, Note_on_c, 0, 63, 59
2, 79594, Control_c, 0, 64, 58
2, 79614, Control_c, 0, 64, 58
2, 79632, Control_c, 0, 64, 57
2, 79674, Note_on_c, 0, 44, 0
2, 79748, Control_c, 0, 64, 57
2, 79808, Note_on_c, 0, 51, 60
2, 79825, Control_c, 0, 64, 56
2, 79997, Control_c, 0, 64, 56
2, 80007, Note_on_c, 0, 48, 0
2, 80105, Note_on_c, 0, 61, 54
2, 80125, Note_on_c, 0, 54, 57
2, 80204, Note_on_c, 0, 51, 0
2, 80259, Note_on_c, 0, 63, 0
2, 80267, Control_c, 0, 64, 55
2, 80356, Note_on_c, 0, 66, 0
2, 80397, Note_on_c, 0, 60, 59
2, 80415, Note_on_c, 0, 61, 0
2, 80611, Control_c, 0, 64, 55
2, 80649, Note_on_c, 0, 52, 61
2, 80657, Note_on_c, 0, 61, 59
2, 80713, Note_on_c, 0, 60, 0
2, 80823, Control_c, 0, 64, 55
2, 80823, Note_on_c, 0, 54, 0
2, 80880, Control_c, 0, 64, 56
2, 80915, Note_on_c, 0, 63, 64
2, 80938, Control_c, 0, 64, 56
2, 81019, Note_on_c, 0, 61, 0
2, 81034, Control_c, 0, 64, 57
2, 81196, Note_on_c, 0, 64, 61
2, 81197, Note_on_c, 0, 51, 58
2, 81206, Control_c, 0, 64, 56
2, 81233, Note_on_c, 0, 63, 0
2, 81327, Note_on_c, 0, 52, 0
2, 81502, Note_on_c, 0, 66, 65
2, 81576, Note_on_c, 0, 64, 0
2, 81869, Note_on_c, 0, 64, 62
2, 81901, Note_on_c, 0, 49, 51
2, 82058, Note_on_c, 0, 51, 0
2, 82186, Note_on_c, 0, 63, 61
2, 82225, Note_on_c, 0, 64, 0
2, 82274, Note_on_c, 0, 66, 0
2, 82469, Note_on_c, 0, 61, 55
2, 82525, Note_on_c, 0, 63, 0
2, 82752, Note_on_c, 0, 64, 56
2, 82808, Note_on_c, 0, 61, 0
2, 83050, Control_c, 0, 64, 57
2, 83059, Note_on_c, 0, 61, 49
2, 83223, Note_on_c, 0, 64, 0
2, 83383, Note_on_c, 0, 58, 55
2, 83454, Control_c, 0, 64, 56
2, 83489, Note_on_c, 0, 61, 0
2, 83665, Control_c, 0, 64, 56
2, 83775, Note_on_c, 0, 55, 50
2, 83818, Control_c, 0, 64, 55
2, 83971, Control_c, 0, 64, 55
2, 84068, Control_c, 0, 64, 54
2, 84086, Control_c, 0, 64, 54
2, 84087, Note_on_c, 0, 58, 0
2, 84106, Control_c, 0, 64, 53
2, 84115, Note_on_c, 0, 64, 55
2, 84145, Control_c, 0, 64, 53
2, 84163, Control_c, 0, 64, 52
2, 84201, Control_c, 0, 64, 52
2, 84220, Control_c, 0, 64, 51
2, 84239, Control_c, 0, 64, 50
2, 84259, Control_c, 0, 64, 50
2, 84278, Control_c, 0, 64, 49
2, 84297, Control_c, 0, 64, 49
2, 84316, Control_c, 0, 64, 48
2, 84336, Control_c, 0, 64, 47
2, 84355, Control_c, 0, 64, 46
2, 84374, Control_c, 0, 64, 45
2, 84393, Control_c, 0, 64, 44
2, 84412, Control_c, 0, 64, 43
2, 84431, Control_c, 0, 64, 41
2, 84450, Control_c, 0, 64, 38
2, 84463, Note_on_c, 0, 63, 58
2, 84470, Control_c, 0, 64, 34
2, 84489, Control_c, 0, 64, 29
2, 84498, Note_on_c, 0, 56, 49
2, 84508, Control_c, 0, 64, 21
2, 84527, Control_c, 0, 64, 0
2, 84635, Note_on_c, 0, 55, 0
2, 84642, Note_on_c, 0, 64, 0
2, 84859, Note_on_c, 0, 61, 58
2, 84957, Note_on_c, 0, 63, 0
2, 85372, Note_on_c, 0, 60, 49
2, 85413, Note_on_c, 0, 58, 32
2, 85448, Note_on_c, 0, 61, 0
2, 85542, Note_on_c, 0, 56, 0
2, 85658, Control_c, 0, 64, 9
2, 85676, Control_c, 0, 64, 18
2, 85696, Control_c, 0, 64, 21
2, 85715, Control_c, 0, 64, 22
2, 85734, Control_c, 0, 64, 24
2, 85753, Control_c, 0, 64, 25
2, 85773, Control_c, 0, 64, 27
2, 85792, Control_c, 0, 64, 27
2, 85888, Control_c, 0, 64, 25
2, 85897, Note_on_c, 0, 61, 55
2, 85907, Control_c, 0, 64, 22
2, 85927, Control_c, 0, 64, 20
2, 85945, Control_c, 0, 64, 18
2, 85965, Control_c, 0, 64, 17
2, 85985, Note_on_c, 0, 60, 0
2, 86024, Control_c, 0, 64, 22
2, 86044, Control_c, 0, 64, 36
2, 86062, Control_c, 0, 64, 49
2, 86081, Control_c, 0, 64, 56
2, 86101, Control_c, 0, 64, 59
2, 86120, Control_c, 0, 64, 62
2, 86139, Control_c, 0, 64, 63
2, 86155, Note_on_c, 0, 49, 0
2, 86158, Control_c, 0, 64, 65
2, 86178, Control_c, 0, 64, 66
2, 86197, Control_c, 0, 64, 67
2, 86216, Control_c, 0, 64, 68
2, 86235, Control_c, 0, 64, 69
2, 86255, Control_c, 0, 64, 71
2, 86273, Control_c, 0, 64, 73
2, 86293, Control_c, 0, 64, 75
2, 86312, Control_c, 0, 64, 76
2, 86363, Note_on_c, 0, 58, 0
2, 86370, Control_c, 0, 64, 76
2, 86389, Control_c, 0, 64, 78
2, 86408, Control_c, 0, 64, 79
2, 86427, Control_c, 0, 64, 79
2, 86581, Control_c, 0, 64, 79
2, 86619, Control_c, 0, 64, 78
2, 86638, Control_c, 0, 64, 78
2, 86677, Control_c, 0, 64, 77
2, 86696, Control_c, 0, 64, 76
2, 86715, Control_c, 0, 64, 74
2, 86735, Control_c, 0, 64, 72
2, 86753, Control_c, 0, 64, 70
2, 86767, Note_on_c, 0, 63, 47
2, 86773, Control_c, 0, 64, 68
2, 86792, Control_c, 0, 64, 66
2, 86803, Note_on_c, 0, 60, 38
2, 86812, Control_c, 0, 64, 64
2, 86821, Note_on_c, 0, 44, 34
2, 86830, Control_c, 0, 64, 64
2, 86850, Control_c, 0, 64, 63
2, 86869, Control_c, 0, 64, 63
2, 86888, Control_c, 0, 64, 62
2, 86907, Control_c, 0, 64, 60
2, 86927, Control_c, 0, 64, 59
2, 86947, Control_c, 0, 64, 59
2, 86966, Control_c, 0, 64, 57
2, 86985, Control_c, 0, 64, 54
2, 86994, Note_on_c, 0, 61, 0
2, 87005, Control_c, 0, 64, 49
2, 87023, Control_c, 0, 64, 41
2, 87043, Control_c, 0, 64, 29
2, 87062, Control_c, 0, 64, 0
2, 87293, Control_c, 0, 64, 15
2, 87311, Control_c, 0, 64, 19
2, 87331, Control_c, 0, 64, 20
2, 87350, Control_c, 0, 64, 21
2, 87369, Control_c, 0, 64, 31
2, 87388, Control_c, 0, 64, 41
2, 87408, Control_c, 0, 64, 43
2, 87465, Control_c, 0, 64, 45
2, 87485, Control_c, 0, 64, 49
2, 87503, Control_c, 0, 64, 50
2, 87561, Control_c, 0, 64, 53
2, 87580, Control_c, 0, 64, 56
2, 87599, Control_c, 0, 64, 56
2, 87619, Control_c, 0, 64, 56
2, 87637, Control_c, 0, 64, 55
2, 87657, Control_c, 0, 64, 56
2, 87676, Control_c, 0, 64, 57
2, 87696, Control_c, 0, 64, 58
2, 87753, Control_c, 0, 64, 58
2, 87773, Control_c, 0, 64, 59
2, 87791, Control_c, 0, 64, 60
2, 87868, Control_c, 0, 64, 61
2, 87888, Control_c, 0, 64, 61
2, 87966, Control_c, 0, 64, 62
2, 87984, Control_c, 0, 64, 62
2, 88041, Control_c, 0, 64, 63
2, 88079, Control_c, 0, 64, 63
2, 88117, Control_c, 0, 64, 64
2, 88176, Control_c, 0, 64, 64
2, 88233, Control_c, 0, 64, 65
2, 88291, Control_c, 0, 64, 65
2, 88310, Control_c, 0, 64, 66
2, 88348, Control_c, 0, 64, 66
2, 88387, Control_c, 0, 64, 67
2, 88406, Control_c, 0, 64, 68
2, 88425, Control_c, 0, 64, 68
2, 88445, Control_c, 0, 64, 69
2, 88463, Control_c, 0, 64, 70
2, 88483, Control_c, 0, 64, 71
2, 88502, Control_c, 0, 64, 72
2, 88521, Control_c, 0, 64, 73
2, 88540, Control_c, 0, 64, 74
2, 88559, Control_c, 0, 64, 75
2, 88579, Control_c, 0, 64, 76
2, 88597, Control_c, 0, 64, 78
2, 88617, Control_c, 0, 64, 79
2, 88636, Control_c, 0, 64, 79
2, 88656, Control_c, 0, 64, 80
2, 88674, Control_c, 0, 64, 80
2, 88694, Control_c, 0, 64, 82
2, 88713, Control_c, 0, 64, 83
2, 88733, Control_c, 0, 64, 84
2, 88751, Control_c, 0, 64, 84
2, 88771, Control_c, 0, 64, 85
2, 88809, Control_c, 0, 64, 85
2, 88848, Control_c, 0, 64, 86
2, 89288, Control_c, 0, 64, 85
2, 89441, Control_c, 0, 64, 85
2, 89749, Control_c, 0, 64, 84
2, 89883, Control_c, 0, 64, 84
2, 89940, Control_c, 0, 64, 83
2, 89997, Control_c, 0, 64, 83
2, 90074, Control_c, 0, 64, 82
2, 90112, Control_c, 0, 64, 82
2, 90151, Control_c, 0, 64, 81
2, 90171, Control_c, 0, 64, 81
2, 90201, Note_on_c, 0, 44, 0
2, 90209, Control_c, 0, 64, 80
2, 90228, Control_c, 0, 64, 80
2, 90248, Control_c, 0, 64, 79
2, 90254, Note_on_c, 0, 60, 0
2, 90266, Control_c, 0, 64, 79
2, 90286, Control_c, 0, 64, 78
2, 90305, Control_c, 0, 64, 78
2, 90324, Control_c, 0, 64, 77
2, 90358, Note_on_c, 0, 68, 0
2, 90362, Control_c, 0, 64, 77
2, 90382, Control_c, 0, 64, 76
2, 90420, Control_c, 0, 64, 76
2, 90458, Control_c, 0, 64, 75
2, 90516, Control_c, 0, 64, 75
2, 90535, Control_c, 0, 64, 74
2, 90554, Control_c, 0, 64, 74
2, 90574, Control_c, 0, 64, 73
2, 90580, Note_on_c, 0, 63, 0
2, 90592, Control_c, 0, 64, 73
2, 90631, Control_c, 0, 64, 72
2, 90651, Control_c, 0, 64, 72
2, 90669, Control_c, 0, 64, 70
2, 90689, Control_c, 0, 64, 69
2, 90708, Control_c, 0, 64, 68
2, 90766, Control_c, 0, 64, 68
2, 90786, Control_c, 0, 64, 67
2, 90805, Control_c, 0, 64, 66
2, 90881, Control_c, 0, 64, 66
2, 90901, Control_c, 0, 64, 65
2, 90957, Control_c, 0, 64, 65
2, 90996, Control_c, 0, 64, 64
2, 91015, Control_c, 0, 64, 64
2, 91054, Control_c, 0, 64, 63
2, 91111, Control_c, 0, 64, 63
2, 91131, Control_c, 0, 64, 62
2, 91149, Control_c, 0, 64, 62
2, 91226, Control_c, 0, 64, 61
2, 91246, Control_c, 0, 64, 61
2, 91322, Control_c, 0, 64, 60
2, 91342, Control_c, 0, 64, 59
2, 91360, Control_c, 0, 64, 59
2, 91437, Control_c, 0, 64, 58
2, 91649, Control_c, 0, 64, 59
2, 91898, Control_c, 0, 64, 59
2, 92242, Control_c, 0, 64, 60
2, 92627, Control_c, 0, 64, 60
2, 93677,End_track
0, 0, End_of_file
