0, 0, Header, 1, 2, 480
1, 0, Start_track
1, 0, Tempo, 500000
1, 0, Time_signature, 4, 2, 24, 8
1, 1, End_track
2,0,Start_track
2,0, Note_on_c, 0, 56, 48
2,1219, Note_on_c, 0, 55, 41
2,1360, Note_on_c, 0, 56, 0
2,1599, Control_c, 0, 64, 60
2,1696, Control_c, 0, 64, 59
2,1740, Note_on_c, 0, 56, 50
2,1788, Note_on_c, 0, 55, 0
2,1888, Control_c, 0, 64, 59
2,2004, Control_c, 0, 64, 58
2,2008, Note_on_c, 0, 58, 59
2,2043, Control_c, 0, 64, 58
2,2062, Control_c, 0, 64, 57
2,2076, Note_on_c, 0, 56, 0
2,2081, Control_c, 0, 64, 57
2,2101, Control_c, 0, 64, 56
2,2120, Control_c, 0, 64, 55
2,2158, Control_c, 0, 64, 54
2,2178, Control_c, 0, 64, 53
2,2196, Control_c, 0, 64, 52
2,2216, Control_c, 0, 64, 51
2,2235, Control_c, 0, 64, 51
2,2255, Control_c, 0, 64, 50
2,2273, Control_c, 0, 64, 50
2,2293, Control_c, 0, 64, 48
2,2312, Control_c, 0, 64, 47
2,2318, Note_on_c, 0, 59, 53
2,2331, Control_c, 0, 64, 45
2,2334, Note_on_c, 0, 58, 0
2,2350, Control_c, 0, 64, 44
2,2370, Control_c, 0, 64, 43
2,2389, Control_c, 0, 64, 41
2,2408, Control_c, 0, 64, 40
2,2427, Control_c, 0, 64, 39
2,2446, Control_c, 0, 64, 38
2,2466, Control_c, 0, 64, 38
2,2484, Control_c, 0, 64, 37
2,2561, Control_c, 0, 64, 37
2,2600, Control_c, 0, 64, 36
2,2722, Note_on_c, 0, 59, 0
2,2811, Control_c, 0, 64, 36
2,2854, Note_on_c, 0, 58, 46
2,3040, Control_c, 0, 64, 36
2,3060, Control_c, 0, 64, 37
2,3079, Control_c, 0, 64, 37
2,3098, Control_c, 0, 64, 38
2,3117, Control_c, 0, 64, 39
2,3137, Control_c, 0, 64, 40
2,3155, Control_c, 0, 64, 41
2,3175, Control_c, 0, 64, 41
2,3194, Control_c, 0, 64, 42
2,3252, Control_c, 0, 64, 42
2,3309, Control_c, 0, 64, 43
2,3338, Note_on_c, 0, 58, 0
2,3406, Note_on_c, 0, 56, 47
2,3443, Control_c, 0, 64, 43
2,3463, Control_c, 0, 64, 44
2,3501, Control_c, 0, 64, 44
2,3540, Control_c, 0, 64, 45
2,3578, Control_c, 0, 64, 45
2,3617, Control_c, 0, 64, 46
2,3655, Control_c, 0, 64, 46
2,3694, Control_c, 0, 64, 47
2,3732, Control_c, 0, 64, 47
2,3751, Control_c, 0, 64, 48
2,3789, Control_c, 0, 64, 48
2,3905, Control_c, 0, 64, 49
2,3907, Note_on_c, 0, 56, 0
2,3943, Control_c, 0, 64, 49
2,3961, Control_c, 0, 64, 50
2,3964, Note_on_c, 0, 62, 51
2,3981, Control_c, 0, 64, 50
2,4041, Control_c, 0, 64, 51
2,4099, Control_c, 0, 64, 51
2,4328, Control_c, 0, 64, 52
2,4405, Control_c, 0, 64, 52
2,4543, Note_on_c, 0, 63, 38
2,4559, Control_c, 0, 64, 53
2,4598, Note_on_c, 0, 62, 0
2,4808, Control_c, 0, 64, 53
2,4827, Control_c, 0, 64, 54
2,4866, Control_c, 0, 64, 54
2,4986, Note_on_c, 0, 63, 0
2,5000, Control_c, 0, 64, 54
2,5038, Control_c, 0, 64, 53
2,5082, Note_on_c, 0, 54, 45
2,5288, Control_c, 0, 64, 54
2,5424, Note_on_c, 0, 54, 0
2,5636, Note_on_c, 0, 56, 53
2,5672, Control_c, 0, 64, 54
2,5864, Control_c, 0, 64, 55
2,5918, Note_on_c, 0, 56, 0
2,6075, Control_c, 0, 64, 54
2,6113, Control_c, 0, 64, 54
2,6152, Control_c, 0, 64, 53
2,6187, Note_on_c, 0, 56, 43
2,6363, Control_c, 0, 64, 54
2,6560, Note_on_c, 0, 56, 0
2,6574, Control_c, 0, 64, 53
2,6593, Control_c, 0, 64, 53
2,6728, Note_on_c, 0, 58, 51
2,6766, Control_c, 0, 64, 52
2,6804, Control_c, 0, 64, 52
2,6843, Control_c, 0, 64, 51
2,6863, Control_c, 0, 64, 50
2,6938, Control_c, 0, 64, 50
2,7025, Note_on_c, 0, 58, 0
2,7169, Control_c, 0, 64, 50
2,7292, Note_on_c, 0, 58, 46
2,7323, Control_c, 0, 64, 51
2,7400, Control_c, 0, 64, 51
2,7457, Control_c, 0, 64, 52
2,7515, Control_c, 0, 64, 52
2,7572, Control_c, 0, 64, 53
2,7649, Control_c, 0, 64, 53
2,7671, Control_c, 0, 64, 54
2,7726, Note_on_c, 0, 58, 0
2,7837, Note_on_c, 0, 51, 40
2,8387, Note_on_c, 0, 53, 42
2,8472, Note_on_c, 0, 51, 0
2,8668, Control_c, 0, 64, 54
2,8707, Control_c, 0, 64, 55
2,8745, Control_c, 0, 64, 55
2,8763, Control_c, 0, 64, 56
2,8821, Control_c, 0, 64, 56
2,8840, Control_c, 0, 64, 57
2,8858, Control_c, 0, 64, 57
2,9024, Note_on_c, 0, 63, 56
2,9080, Note_on_c, 0, 54, 40
2,9161, Note_on_c, 0, 53, 0
2,9186, Control_c, 0, 64, 57
2,9281, Control_c, 0, 64, 56
2,9646, Control_c, 0, 64, 57
2,9743, Control_c, 0, 64, 57
2,9934, Control_c, 0, 64, 58
2,10088, Control_c, 0, 64, 57
2,10169, Note_on_c, 0, 60, 46
2,10231, Note_on_c, 0, 63, 0
2,10357, Control_c, 0, 64, 58
2,10645, Control_c, 0, 64, 57
2,10656, Note_on_c, 0, 61, 57
2,10672, Note_on_c, 0, 54, 0
2,10705, Note_on_c, 0, 52, 30
2,10744, Note_on_c, 0, 60, 0
2,10760, Control_c, 0, 64, 57
2,10912, Note_on_c, 0, 63, 67
2,10922, Note_on_c, 0, 54, 45
2,10952, Control_c, 0, 64, 56
2,10967, Note_on_c, 0, 52, 0
2,11006, Note_on_c, 0, 61, 0
2,11009, Control_c, 0, 64, 56
2,11029, Control_c, 0, 64, 55
2,11048, Control_c, 0, 64, 55
2,11086, Control_c, 0, 64, 54
2,11163, Control_c, 0, 64, 54
2,11183, Control_c, 0, 64, 53
2,11193, Note_on_c, 0, 54, 0
2,11197, Note_on_c, 0, 64, 58
2,11200, Note_on_c, 0, 63, 0
2,11201, Control_c, 0, 64, 52
2,11207, Note_on_c, 0, 56, 50
2,11221, Control_c, 0, 64, 48
2,11240, Control_c, 0, 64, 40
2,11258, Control_c, 0, 64, 24
2,11278, Control_c, 0, 64, 0
2,11374, Control_c, 0, 64, 28
2,11394, Control_c, 0, 64, 46
2,11412, Control_c, 0, 64, 54
2,11432, Control_c, 0, 64, 55
2,11470, Control_c, 0, 64, 55
2,11489, Control_c, 0, 64, 56
2,11491, Note_on_c, 0, 64, 0
2,11703, Control_c, 0, 64, 55
2,11713, Note_on_c, 0, 63, 58
2,11722, Control_c, 0, 64, 51
2,11725, Note_on_c, 0, 55, 39
2,11737, Note_on_c, 0, 56, 0
2,11741, Control_c, 0, 64, 41
2,11760, Control_c, 0, 64, 18
2,11779, Control_c, 0, 64, 0
2,11837, Control_c, 0, 64, 13
2,11856, Control_c, 0, 64, 34
2,11875, Control_c, 0, 64, 48
2,11894, Control_c, 0, 64, 57
2,11914, Control_c, 0, 64, 59
2,11963, Note_on_c, 0, 56, 51
2,11971, Control_c, 0, 64, 59
2,12008, Note_on_c, 0, 63, 0
2,12015, Note_on_c, 0, 55, 0
2,12029, Control_c, 0, 64, 59
2,12086, Control_c, 0, 64, 58
2,12106, Control_c, 0, 64, 58
2,12163, Control_c, 0, 64, 57
2,12202, Control_c, 0, 64, 57
2,12221, Control_c, 0, 64, 56
2,12238, Note_on_c, 0, 61, 52
2,12240, Control_c, 0, 64, 54
2,12256, Note_on_c, 0, 56, 0
2,12258, Note_on_c, 0, 58, 43
2,12259, Control_c, 0, 64, 46
2,12278, Control_c, 0, 64, 27
2,12297, Control_c, 0, 64, 0
2,12394, Control_c, 0, 64, 46
2,12413, Control_c, 0, 64, 58
2,12432, Control_c, 0, 64, 60
2,12472, Control_c, 0, 64, 61
2,12490, Control_c, 0, 64, 62
2,12510, Control_c, 0, 64, 62
2,12549, Control_c, 0, 64, 62
2,12563, Note_on_c, 0, 61, 0
2,12624, Control_c, 0, 64, 61
2,12643, Control_c, 0, 64, 61
2,12682, Control_c, 0, 64, 60
2,12701, Control_c, 0, 64, 60
2,12720, Control_c, 0, 64, 59
2,12739, Control_c, 0, 64, 59
2,12754, Note_on_c, 0, 67, 62
2,12783, Note_on_c, 0, 56, 46
2,12797, Control_c, 0, 64, 58
2,12805, Note_on_c, 0, 58, 0
2,12816, Control_c, 0, 64, 56
2,12835, Control_c, 0, 64, 55
2,12854, Control_c, 0, 64, 54
2,12874, Control_c, 0, 64, 51
2,12893, Control_c, 0, 64, 47
2,12912, Control_c, 0, 64, 46
2,12931, Control_c, 0, 64, 47
2,12951, Control_c, 0, 64, 51
2,12969, Control_c, 0, 64, 53
2,13008, Control_c, 0, 64, 53
2,13013, Note_on_c, 0, 58, 52
2,13028, Control_c, 0, 64, 54
2,13046, Control_c, 0, 64, 55
2,13051, Note_on_c, 0, 56, 0
2,13200, Control_c, 0, 64, 55
2,13219, Control_c, 0, 64, 54
2,13238, Control_c, 0, 64, 52
2,13257, Control_c, 0, 64, 48
2,13277, Control_c, 0, 64, 41
2,13279, Note_on_c, 0, 58, 0
2,13294, Note_on_c, 0, 68, 60
2,13296, Control_c, 0, 64, 32
2,13315, Control_c, 0, 64, 29
2,13331, Note_on_c, 0, 59, 42
2,13348, Note_on_c, 0, 67, 0
2,13354, Control_c, 0, 64, 35
2,13373, Control_c, 0, 64, 40
2,13392, Control_c, 0, 64, 44
2,13411, Control_c, 0, 64, 49
2,13432, Control_c, 0, 64, 51
2,13450, Control_c, 0, 64, 53
2,13489, Control_c, 0, 64, 54
2,13509, Control_c, 0, 64, 54
2,13547, Control_c, 0, 64, 55
2,13602, Control_c, 0, 64, 55
2,13641, Control_c, 0, 64, 56
2,13648, Note_on_c, 0, 68, 0
2,13659, Control_c, 0, 64, 56
2,13679, Control_c, 0, 64, 57
2,13698, Control_c, 0, 64, 57
2,13707, Note_on_c, 0, 59, 0
2,13718, Control_c, 0, 64, 58
2,13736, Control_c, 0, 64, 57
2,13756, Control_c, 0, 64, 54
2,13775, Control_c, 0, 64, 47
2,13794, Control_c, 0, 64, 39
2,13813, Control_c, 0, 64, 36
2,13818, Note_on_c, 0, 59, 49
2,13833, Control_c, 0, 64, 37
2,13835, Note_on_c, 0, 56, 46
2,13852, Control_c, 0, 64, 43
2,13871, Control_c, 0, 64, 47
2,13890, Control_c, 0, 64, 50
2,13910, Control_c, 0, 64, 56
2,13928, Control_c, 0, 64, 60
2,13948, Control_c, 0, 64, 61
2,14082, Control_c, 0, 64, 60
2,14159, Control_c, 0, 64, 60
2,14210, Note_on_c, 0, 59, 0
2,14216, Control_c, 0, 64, 59
2,14236, Control_c, 0, 64, 59
2,14274, Control_c, 0, 64, 58
2,14293, Control_c, 0, 64, 58
2,14311, Note_on_c, 0, 56, 0
2,14313, Control_c, 0, 64, 57
2,14332, Control_c, 0, 64, 56
2,14348, Note_on_c, 0, 61, 53
2,14351, Control_c, 0, 64, 55
2,14370, Control_c, 0, 64, 53
2,14378, Note_on_c, 0, 58, 36
2,14394, Control_c, 0, 64, 49
2,14413, Control_c, 0, 64, 45
2,14433, Control_c, 0, 64, 44
2,14452, Control_c, 0, 64, 43
2,14490, Control_c, 0, 64, 42
2,14524, Control_c, 0, 64, 43
2,14544, Control_c, 0, 64, 44
2,14562, Control_c, 0, 64, 46
2,14582, Control_c, 0, 64, 49
2,14599, Note_on_c, 0, 61, 0
2,14601, Control_c, 0, 64, 52
2,14619, Control_c, 0, 64, 53
2,14751, Note_on_c, 0, 58, 0
2,14793, Control_c, 0, 64, 54
2,14850, Control_c, 0, 64, 54
2,14869, Note_on_c, 0, 61, 53
2,14870, Control_c, 0, 64, 55
2,14888, Control_c, 0, 64, 56
2,14908, Control_c, 0, 64, 57
2,14927, Control_c, 0, 64, 58
2,14965, Control_c, 0, 64, 58
2,14985, Control_c, 0, 64, 59
2,15004, Control_c, 0, 64, 59
2,15081, Control_c, 0, 64, 60
2,15117, Note_on_c, 0, 61, 0
2,15119, Control_c, 0, 64, 60
2,15253, Control_c, 0, 64, 60
2,15311, Control_c, 0, 64, 59
2,15349, Control_c, 0, 64, 59
2,15406, Control_c, 0, 64, 58
2,15415, Note_on_c, 0, 63, 56
2,15442, Note_on_c, 0, 55, 41
2,15464, Control_c, 0, 64, 58
2,15483, Control_c, 0, 64, 55
2,15503, Control_c, 0, 64, 50
2,15521, Control_c, 0, 64, 44
2,15540, Control_c, 0, 64, 41
2,15560, Control_c, 0, 64, 41
2,15598, Control_c, 0, 64, 42
2,15617, Control_c, 0, 64, 44
2,15637, Control_c, 0, 64, 46
2,15655, Control_c, 0, 64, 48
2,15675, Control_c, 0, 64, 49
2,15693, Note_on_c, 0, 63, 0
2,15694, Control_c, 0, 64, 50
2,15714, Control_c, 0, 64, 50
2,15732, Control_c, 0, 64, 51
2,15752, Control_c, 0, 64, 52
2,15816, Note_on_c, 0, 55, 0
2,15886, Control_c, 0, 64, 52
2,15959, Note_on_c, 0, 63, 47
2,16369, Note_on_c, 0, 63, 0
2,16500, Note_on_c, 0, 56, 45
2,16559, Control_c, 0, 64, 52
2,16732, Control_c, 0, 64, 51
2,16847, Control_c, 0, 64, 51
2,16885, Control_c, 0, 64, 50
2,17010, Note_on_c, 0, 54, 51
2,17100, Note_on_c, 0, 56, 0
2,17518, Control_c, 0, 64, 49
2,17557, Control_c, 0, 64, 49
2,17575, Control_c, 0, 64, 48
2,17577, Note_on_c, 0, 68, 67
2,17595, Control_c, 0, 64, 48
2,17614, Control_c, 0, 64, 47
2,17615, Note_on_c, 0, 61, 38
2,17630, Note_on_c, 0, 52, 35
2,17634, Control_c, 0, 64, 47
2,17635, Note_on_c, 0, 54, 0
2,17652, Control_c, 0, 64, 46
2,17672, Control_c, 0, 64, 45
2,17729, Control_c, 0, 64, 44
2,17749, Control_c, 0, 64, 42
2,17768, Control_c, 0, 64, 40
2,17787, Control_c, 0, 64, 39
2,17806, Control_c, 0, 64, 38
2,17826, Control_c, 0, 64, 37
2,17844, Control_c, 0, 64, 36
2,17864, Control_c, 0, 64, 36
2,18114, Control_c, 0, 64, 36
2,18132, Control_c, 0, 64, 40
2,18152, Control_c, 0, 64, 44
2,18171, Control_c, 0, 64, 48
2,18190, Control_c, 0, 64, 51
2,18209, Control_c, 0, 64, 54
2,18231, Control_c, 0, 64, 57
2,18249, Control_c, 0, 64, 60
2,18269, Control_c, 0, 64, 60
2,18308, Control_c, 0, 64, 61
2,18346, Control_c, 0, 64, 61
2,18365, Control_c, 0, 64, 62
2,18576, Control_c, 0, 64, 61
2,18647, Note_on_c, 0, 67, 50
2,18668, Note_on_c, 0, 51, 37
2,18691, Control_c, 0, 64, 58
2,18698, Note_on_c, 0, 68, 0
2,18711, Control_c, 0, 64, 45
2,18712, Note_on_c, 0, 52, 0
2,18729, Control_c, 0, 64, 0
2,18826, Control_c, 0, 64, 48
2,18845, Control_c, 0, 64, 62
2,18864, Control_c, 0, 64, 64
2,18883, Control_c, 0, 64, 64
2,18903, Control_c, 0, 64, 64
2,18916, Note_on_c, 0, 51, 0
2,18940, Control_c, 0, 64, 65
2,19149, Note_on_c, 0, 68, 65
2,19152, Control_c, 0, 64, 65
2,19171, Control_c, 0, 64, 64
2,19178, Note_on_c, 0, 59, 28
2,19192, Control_c, 0, 64, 64
2,19194, Note_on_c, 0, 56, 41
2,19210, Control_c, 0, 64, 63
2,19215, Note_on_c, 0, 61, 0
2,19230, Control_c, 0, 64, 62
2,19249, Control_c, 0, 64, 61
2,19269, Control_c, 0, 64, 61
2,19307, Control_c, 0, 64, 60
2,19331, Note_on_c, 0, 67, 0
2,19344, Control_c, 0, 64, 60
2,19370, Note_on_c, 0, 70, 71
2,19400, Note_on_c, 0, 61, 50
2,19402, Control_c, 0, 64, 59
2,19420, Control_c, 0, 64, 59
2,19454, Note_on_c, 0, 59, 0
2,19471, Note_on_c, 0, 68, 0
2,19594, Control_c, 0, 64, 58
2,19613, Control_c, 0, 64, 56
2,19626, Note_on_c, 0, 70, 0
2,19632, Control_c, 0, 64, 46
2,19638, Note_on_c, 0, 61, 0
2,19642, Note_on_c, 0, 71, 70
2,19651, Control_c, 0, 64, 13
2,19659, Note_on_c, 0, 63, 49
2,19671, Control_c, 0, 64, 0
2,19748, Control_c, 0, 64, 20
2,19766, Control_c, 0, 64, 57
2,19786, Control_c, 0, 64, 63
2,19805, Control_c, 0, 64, 64
2,19824, Control_c, 0, 64, 64
2,19899, Note_on_c, 0, 71, 0
2,19903, Note_on_c, 0, 56, 0
2,19939, Control_c, 0, 64, 63
2,19977, Control_c, 0, 64, 63
2,20016, Control_c, 0, 64, 62
2,20035, Control_c, 0, 64, 62
2,20093, Control_c, 0, 64, 61
2,20112, Control_c, 0, 64, 60
2,20131, Control_c, 0, 64, 58
2,20148, Control_c, 0, 64, 51
2,20156, Note_on_c, 0, 63, 0
2,20166, Note_on_c, 0, 70, 68
2,20167, Control_c, 0, 64, 34
2,20178, Note_on_c, 0, 62, 39
2,20182, Note_on_c, 0, 58, 45
2,20186, Control_c, 0, 64, 0
2,20282, Control_c, 0, 64, 46
2,20302, Control_c, 0, 64, 60
2,20320, Control_c, 0, 64, 62
2,20359, Control_c, 0, 64, 62
2,20394, Note_on_c, 0, 70, 0
2,20397, Control_c, 0, 64, 63
2,20405, Note_on_c, 0, 63, 57
2,20436, Control_c, 0, 64, 62
2,20492, Note_on_c, 0, 62, 0
2,20493, Control_c, 0, 64, 62
2,20513, Control_c, 0, 64, 61
2,20549, Note_on_c, 0, 58, 0
2,20570, Control_c, 0, 64, 61
2,20647, Control_c, 0, 64, 60
2,20652, Note_on_c, 0, 68, 68
2,20666, Control_c, 0, 64, 53
2,20682, Note_on_c, 0, 65, 50
2,20688, Control_c, 0, 64, 31
2,20697, Note_on_c, 0, 59, 49
2,20701, Note_on_c, 0, 63, 0
2,20707, Control_c, 0, 64, 0
2,20784, Control_c, 0, 64, 37
2,20803, Control_c, 0, 64, 61
2,20822, Control_c, 0, 64, 65
2,20842, Control_c, 0, 64, 65
2,20861, Control_c, 0, 64, 65
2,20880, Control_c, 0, 64, 65
2,20899, Control_c, 0, 64, 66
2,20932, Note_on_c, 0, 68, 0
2,20976, Control_c, 0, 64, 65
2,21014, Control_c, 0, 64, 65
2,21053, Control_c, 0, 64, 64
2,21091, Control_c, 0, 64, 64
2,21130, Control_c, 0, 64, 63
2,21148, Control_c, 0, 64, 64
2,21185, Note_on_c, 0, 74, 68
2,21187, Control_c, 0, 64, 63
2,21206, Control_c, 0, 64, 60
2,21225, Control_c, 0, 64, 48
2,21232, Note_on_c, 0, 63, 50
2,21246, Control_c, 0, 64, 17
2,21252, Note_on_c, 0, 65, 0
2,21265, Control_c, 0, 64, 0
2,21294, Note_on_c, 0, 59, 0
2,21303, Control_c, 0, 64, 9
2,21323, Control_c, 0, 64, 46
2,21341, Control_c, 0, 64, 57
2,21361, Control_c, 0, 64, 58
2,21380, Control_c, 0, 64, 59
2,21400, Control_c, 0, 64, 61
2,21418, Control_c, 0, 64, 62
2,21454, Note_on_c, 0, 65, 55
2,21476, Note_on_c, 0, 63, 0
2,21534, Control_c, 0, 64, 62
2,21629, Control_c, 0, 64, 61
2,21706, Control_c, 0, 64, 61
2,21723, Note_on_c, 0, 75, 64
2,21726, Control_c, 0, 64, 57
2,21745, Control_c, 0, 64, 40
2,21755, Note_on_c, 0, 66, 49
2,21760, Note_on_c, 0, 58, 44
2,21760, Note_on_c, 0, 65, 0
2,21764, Control_c, 0, 64, 0
2,21774, Note_on_c, 0, 74, 0
2,21841, Control_c, 0, 64, 24
2,21860, Control_c, 0, 64, 47
2,21880, Control_c, 0, 64, 55
2,21898, Control_c, 0, 64, 58
2,21918, Control_c, 0, 64, 61
2,21937, Control_c, 0, 64, 62
2,21975, Control_c, 0, 64, 62
2,21991, Note_on_c, 0, 75, 0
2,22071, Control_c, 0, 64, 61
2,22128, Note_on_c, 0, 66, 0
2,22129, Control_c, 0, 64, 62
2,22206, Control_c, 0, 64, 60
2,22224, Control_c, 0, 64, 54
2,22242, Note_on_c, 0, 63, 49
2,22243, Control_c, 0, 64, 36
2,22243, Note_on_c, 0, 66, 56
2,22262, Control_c, 0, 64, 0
2,22275, Note_on_c, 0, 58, 0
2,22301, Control_c, 0, 64, 24
2,22320, Control_c, 0, 64, 54
2,22339, Control_c, 0, 64, 63
2,22359, Control_c, 0, 64, 64
2,22463, Note_on_c, 0, 66, 0
2,22531, Control_c, 0, 64, 64
2,22608, Control_c, 0, 64, 63
2,22646, Control_c, 0, 64, 63
2,22665, Control_c, 0, 64, 62
2,22685, Control_c, 0, 64, 62
2,22723, Control_c, 0, 64, 61
2,22736, Note_on_c, 0, 68, 62
2,22742, Control_c, 0, 64, 60
2,22764, Note_on_c, 0, 65, 37
2,22769, Note_on_c, 0, 56, 35
2,22800, Control_c, 0, 64, 60
2,22806, Note_on_c, 0, 63, 0
2,22819, Control_c, 0, 64, 59
2,22839, Control_c, 0, 64, 58
2,22857, Control_c, 0, 64, 58
2,22877, Control_c, 0, 64, 57
2,22896, Control_c, 0, 64, 56
2,22916, Control_c, 0, 64, 54
2,22934, Control_c, 0, 64, 52
2,22954, Control_c, 0, 64, 51
2,22975, Note_on_c, 0, 68, 0
2,23070, Control_c, 0, 64, 52
2,23090, Control_c, 0, 64, 52
2,23096, Note_on_c, 0, 65, 0
2,23203, Control_c, 0, 64, 53
2,23242, Control_c, 0, 64, 53
2,23246, Note_on_c, 0, 68, 58
2,23261, Control_c, 0, 64, 54
2,23337, Control_c, 0, 64, 55
2,23357, Control_c, 0, 64, 55
2,23376, Control_c, 0, 64, 56
2,23396, Control_c, 0, 64, 57
2,23414, Control_c, 0, 64, 58
2,23434, Control_c, 0, 64, 58
2,23453, Control_c, 0, 64, 59
2,23477, Note_on_c, 0, 68, 0
2,23530, Control_c, 0, 64, 58
2,23568, Control_c, 0, 64, 58
2,23645, Control_c, 0, 64, 57
2,23738, Note_on_c, 0, 70, 63
2,23790, Note_on_c, 0, 62, 37
2,23856, Control_c, 0, 64, 57
2,23914, Control_c, 0, 64, 56
2,23933, Control_c, 0, 64, 56
2,23951, Control_c, 0, 64, 55
2,23971, Control_c, 0, 64, 54
2,23990, Control_c, 0, 64, 54
2,23991, Note_on_c, 0, 70, 0
2,24010, Control_c, 0, 64, 53
2,24028, Control_c, 0, 64, 52
2,24048, Control_c, 0, 64, 52
2,24087, Control_c, 0, 64, 51
2,24105, Control_c, 0, 64, 51
2,24125, Control_c, 0, 64, 50
2,24150, Note_on_c, 0, 62, 0
2,24239, Note_on_c, 0, 70, 64
2,24279, Control_c, 0, 64, 51
2,24317, Control_c, 0, 64, 52
2,24336, Control_c, 0, 64, 53
2,24356, Control_c, 0, 64, 53
2,24374, Control_c, 0, 64, 54
2,24393, Control_c, 0, 64, 54
2,24413, Control_c, 0, 64, 55
2,24431, Control_c, 0, 64, 56
2,24451, Control_c, 0, 64, 57
2,24466, Note_on_c, 0, 70, 0
2,24603, Control_c, 0, 64, 56
2,24680, Control_c, 0, 64, 57
2,24699, Control_c, 0, 64, 58
2,24742, Note_on_c, 0, 63, 51
2,24775, Control_c, 0, 64, 57
2,24795, Control_c, 0, 64, 52
2,24814, Control_c, 0, 64, 46
2,24833, Control_c, 0, 64, 44
2,24871, Control_c, 0, 64, 47
2,24891, Control_c, 0, 64, 51
2,24909, Control_c, 0, 64, 53
2,24929, Control_c, 0, 64, 54
2,24950, Control_c, 0, 64, 55
2,24969, Control_c, 0, 64, 57
2,24988, Control_c, 0, 64, 57
2,25083, Control_c, 0, 64, 58
2,25140, Control_c, 0, 64, 58
2,25160, Control_c, 0, 64, 59
2,25198, Control_c, 0, 64, 57
2,25217, Control_c, 0, 64, 51
2,25237, Control_c, 0, 64, 38
2,25241, Note_on_c, 0, 65, 54
2,25252, Note_on_c, 0, 54, 46
2,25255, Control_c, 0, 64, 0
2,25305, Note_on_c, 0, 63, 0
2,25330, Note_on_c, 0, 56, 0
2,25371, Control_c, 0, 64, 41
2,25389, Control_c, 0, 64, 59
2,25409, Control_c, 0, 64, 64
2,25428, Control_c, 0, 64, 64
2,25467, Note_on_c, 0, 56, 60
2,25471, Note_on_c, 0, 54, 0
2,25601, Control_c, 0, 64, 64
2,25640, Control_c, 0, 64, 63
2,25678, Control_c, 0, 64, 63
2,25710, Note_on_c, 0, 56, 0
2,25757, Note_on_c, 0, 51, 53
2,25757, Note_on_c, 0, 58, 51
2,25762, Note_on_c, 0, 66, 65
2,25774, Control_c, 0, 64, 62
2,25781, Note_on_c, 0, 65, 0
2,25793, Control_c, 0, 64, 59
2,25812, Control_c, 0, 64, 45
2,25831, Control_c, 0, 64, 0
2,25928, Control_c, 0, 64, 37
2,25946, Control_c, 0, 64, 54
2,25966, Control_c, 0, 64, 61
2,25985, Control_c, 0, 64, 62
2,26005, Control_c, 0, 64, 62
2,26036, Note_on_c, 0, 58, 0
2,26044, Control_c, 0, 64, 63
2,26139, Control_c, 0, 64, 63
2,26159, Control_c, 0, 64, 64
2,26178, Control_c, 0, 64, 65
2,26216, Control_c, 0, 64, 63
2,26236, Control_c, 0, 64, 58
2,26255, Control_c, 0, 64, 54
2,26267, Note_on_c, 0, 54, 47
2,26268, Note_on_c, 0, 58, 56
2,26275, Control_c, 0, 64, 54
2,26293, Control_c, 0, 64, 59
2,26312, Control_c, 0, 64, 63
2,26332, Control_c, 0, 64, 65
2,26350, Control_c, 0, 64, 65
2,26389, Control_c, 0, 64, 66
2,26409, Control_c, 0, 64, 67
2,26427, Control_c, 0, 64, 67
2,26466, Control_c, 0, 64, 67
2,26471, Note_on_c, 0, 51, 0
2,26504, Control_c, 0, 64, 66
2,26543, Control_c, 0, 64, 66
2,26639, Control_c, 0, 64, 65
2,26755, Control_c, 0, 64, 64
2,26756, Note_on_c, 0, 54, 0
2,26765, Note_on_c, 0, 56, 52
2,26773, Control_c, 0, 64, 61
2,26777, Note_on_c, 0, 48, 41
2,26780, Note_on_c, 0, 51, 39
2,26792, Control_c, 0, 64, 52
2,26812, Control_c, 0, 64, 41
2,26814, Note_on_c, 0, 58, 0
2,26830, Control_c, 0, 64, 35
2,26850, Control_c, 0, 64, 36
2,26870, Control_c, 0, 64, 47
2,26889, Control_c, 0, 64, 59
2,26908, Control_c, 0, 64, 62
2,26966, Control_c, 0, 64, 63
2,26985, Control_c, 0, 64, 64
2,27082, Control_c, 0, 64, 63
2,27120, Control_c, 0, 64, 63
2,27197, Control_c, 0, 64, 62
2,27216, Control_c, 0, 64, 61
2,27235, Control_c, 0, 64, 57
2,27254, Control_c, 0, 64, 49
2,27266, Note_on_c, 0, 66, 0
2,27273, Control_c, 0, 64, 46
2,27281, Note_on_c, 0, 64, 60
2,27293, Control_c, 0, 64, 45
2,27294, Note_on_c, 0, 52, 48
2,27309, Note_on_c, 0, 49, 56
2,27331, Control_c, 0, 64, 48
2,27339, Note_on_c, 0, 51, 0
2,27350, Control_c, 0, 64, 52
2,27350, Note_on_c, 0, 48, 0
2,27369, Control_c, 0, 64, 54
2,27388, Control_c, 0, 64, 55
2,27408, Control_c, 0, 64, 56
2,27427, Control_c, 0, 64, 57
2,27446, Control_c, 0, 64, 58
2,27465, Control_c, 0, 64, 58
2,27483, Note_on_c, 0, 52, 0
2,27520, Note_on_c, 0, 51, 59
2,27520, Note_on_c, 0, 66, 67
2,27523, Control_c, 0, 64, 58
2,27624, Note_on_c, 0, 49, 0
2,27639, Control_c, 0, 64, 58
2,27650, Note_on_c, 0, 56, 0
2,27696, Control_c, 0, 64, 59
2,27715, Control_c, 0, 64, 59
2,27734, Control_c, 0, 64, 60
2,27753, Control_c, 0, 64, 59
2,27768, Note_on_c, 0, 52, 65
2,27773, Control_c, 0, 64, 56
2,27777, Note_on_c, 0, 68, 68
2,27780, Note_on_c, 0, 51, 0
2,27782, Note_on_c, 0, 64, 0
2,27791, Control_c, 0, 64, 42
2,27811, Control_c, 0, 64, 0
2,27848, Note_on_c, 0, 66, 0
2,27907, Control_c, 0, 64, 41
2,27926, Control_c, 0, 64, 53
2,27945, Control_c, 0, 64, 58
2,27965, Control_c, 0, 64, 60
2,27983, Control_c, 0, 64, 61
2,28021, Control_c, 0, 64, 60
2,28079, Control_c, 0, 64, 60
2,28098, Control_c, 0, 64, 59
2,28104, Note_on_c, 0, 52, 0
2,28118, Control_c, 0, 64, 59
2,28136, Control_c, 0, 64, 59
2,28156, Control_c, 0, 64, 60
2,28195, Control_c, 0, 64, 60
2,28213, Control_c, 0, 64, 60
2,28232, Control_c, 0, 64, 58
2,28252, Control_c, 0, 64, 52
2,28270, Control_c, 0, 64, 35
2,28280, Note_on_c, 0, 63, 53
2,28282, Note_on_c, 0, 67, 57
2,28287, Note_on_c, 0, 59, 61
2,28290, Control_c, 0, 64, 0
2,28310, Note_on_c, 0, 51, 47
2,28310, Note_on_c, 0, 68, 0
2,28386, Control_c, 0, 64, 21
2,28405, Control_c, 0, 64, 52
2,28424, Control_c, 0, 64, 61
2,28444, Control_c, 0, 64, 62
2,28463, Control_c, 0, 64, 61
2,28501, Control_c, 0, 64, 62
2,28533, Note_on_c, 0, 68, 73
2,28539, Control_c, 0, 64, 61
2,28547, Note_on_c, 0, 59, 0
2,28612, Note_on_c, 0, 67, 0
2,28616, Control_c, 0, 64, 62
2,28677, Note_on_c, 0, 63, 0
2,28770, Control_c, 0, 64, 61
2,28791, Control_c, 0, 64, 61
2,28800, Note_on_c, 0, 70, 67
2,28803, Note_on_c, 0, 51, 0
2,28810, Control_c, 0, 64, 58
2,28810, Note_on_c, 0, 49, 57
2,28811, Note_on_c, 0, 61, 54
2,28829, Control_c, 0, 64, 50
2,28831, Note_on_c, 0, 68, 0
2,28832, Note_on_c, 0, 64, 48
2,28849, Control_c, 0, 64, 32
2,28868, Control_c, 0, 64, 0
2,28981, Control_c, 0, 64, 34
2,29001, Control_c, 0, 64, 50
2,29019, Control_c, 0, 64, 57
2,29039, Control_c, 0, 64, 60
2,29047, Note_on_c, 0, 64, 0
2,29058, Control_c, 0, 64, 60
2,29192, Control_c, 0, 64, 61
2,29212, Control_c, 0, 64, 62
2,29250, Control_c, 0, 64, 60
2,29255, Note_on_c, 0, 61, 0
2,29269, Control_c, 0, 64, 52
2,29289, Control_c, 0, 64, 34
2,29304, Note_on_c, 0, 68, 63
2,29307, Control_c, 0, 64, 0
2,29309, Note_on_c, 0, 55, 59
2,29319, Note_on_c, 0, 63, 45
2,29361, Note_on_c, 0, 49, 0
2,29365, Control_c, 0, 64, 21
2,29375, Note_on_c, 0, 70, 0
2,29384, Control_c, 0, 64, 34
2,29404, Control_c, 0, 64, 41
2,29423, Control_c, 0, 64, 50
2,29442, Control_c, 0, 64, 57
2,29461, Control_c, 0, 64, 57
2,29538, Control_c, 0, 64, 58
2,29547, Note_on_c, 0, 70, 77
2,29576, Control_c, 0, 64, 57
2,29597, Note_on_c, 0, 69, 72
2,29732, Note_on_c, 0, 68, 0
2,29751, Control_c, 0, 64, 56
2,29770, Control_c, 0, 64, 56
2,29791, Note_on_c, 0, 70, 0
2,29815, Note_on_c, 0, 71, 72
2,29817, Note_on_c, 0, 69, 0
2,29834, Note_on_c, 0, 63, 0
2,29837, Note_on_c, 0, 56, 66
2,29869, Note_on_c, 0, 55, 0
2,29903, Control_c, 0, 64, 55
2,29922, Control_c, 0, 64, 53
2,29941, Control_c, 0, 64, 45
2,29961, Control_c, 0, 64, 36
2,29979, Control_c, 0, 64, 34
2,30018, Control_c, 0, 64, 33
2,30038, Control_c, 0, 64, 29
2,30056, Control_c, 0, 64, 25
2,30076, Control_c, 0, 64, 24
2,30114, Control_c, 0, 64, 23
2,30133, Control_c, 0, 64, 22
2,30152, Control_c, 0, 64, 21
2,30234, Note_on_c, 0, 56, 0
2,30249, Control_c, 0, 64, 22
2,30267, Control_c, 0, 64, 27
2,30287, Control_c, 0, 64, 30
2,30306, Control_c, 0, 64, 33
2,30325, Control_c, 0, 64, 36
2,30329, Note_on_c, 0, 68, 67
2,30332, Note_on_c, 0, 63, 49
2,30344, Control_c, 0, 64, 43
2,30349, Note_on_c, 0, 59, 43
2,30364, Control_c, 0, 64, 47
2,30378, Note_on_c, 0, 47, 49
2,30383, Control_c, 0, 64, 48
2,30402, Control_c, 0, 64, 50
2,30421, Control_c, 0, 64, 53
2,30438, Note_on_c, 0, 71, 0
2,30441, Control_c, 0, 64, 55
2,30459, Control_c, 0, 64, 56
2,30498, Control_c, 0, 64, 56
2,30518, Control_c, 0, 64, 57
2,30556, Control_c, 0, 64, 56
2,30557, Note_on_c, 0, 59, 0
2,30569, Note_on_c, 0, 63, 0
2,30632, Control_c, 0, 64, 55
2,30708, Control_c, 0, 64, 55
2,30728, Control_c, 0, 64, 53
2,30746, Control_c, 0, 64, 50
2,30766, Control_c, 0, 64, 47
2,30785, Control_c, 0, 64, 44
2,30789, Note_on_c, 0, 47, 0
2,30804, Note_on_c, 0, 68, 0
2,30804, Note_on_c, 0, 70, 65
2,30805, Control_c, 0, 64, 43
2,30822, Note_on_c, 0, 61, 58
2,30822, Note_on_c, 0, 64, 43
2,30823, Control_c, 0, 64, 41
2,30824, Note_on_c, 0, 49, 55
2,30843, Control_c, 0, 64, 40
2,30920, Control_c, 0, 64, 40
2,30939, Control_c, 0, 64, 41
2,30958, Control_c, 0, 64, 41
2,31015, Control_c, 0, 64, 42
2,31054, Control_c, 0, 64, 43
2,31073, Control_c, 0, 64, 44
2,31081, Note_on_c, 0, 49, 0
2,31092, Control_c, 0, 64, 44
2,31111, Note_on_c, 0, 61, 0
2,31131, Control_c, 0, 64, 45
2,31135, Note_on_c, 0, 70, 0
2,31136, Note_on_c, 0, 64, 0
2,31149, Control_c, 0, 64, 46
2,31246, Control_c, 0, 64, 47
2,31265, Control_c, 0, 64, 47
2,31300, Note_on_c, 0, 49, 64
2,31303, Control_c, 0, 64, 44
2,31323, Control_c, 0, 64, 39
2,31342, Control_c, 0, 64, 34
2,31361, Control_c, 0, 64, 32
2,31380, Control_c, 0, 64, 32
2,31457, Control_c, 0, 64, 36
2,31477, Control_c, 0, 64, 42
2,31495, Control_c, 0, 64, 43
2,31527, Note_on_c, 0, 49, 0
2,31534, Control_c, 0, 64, 44
2,31572, Control_c, 0, 64, 44
2,31591, Control_c, 0, 64, 45
2,31670, Control_c, 0, 64, 45
2,31690, Control_c, 0, 64, 46
2,31708, Control_c, 0, 64, 46
2,31728, Control_c, 0, 64, 47
2,31747, Control_c, 0, 64, 47
2,31785, Control_c, 0, 64, 47
2,31803, Control_c, 0, 64, 42
2,31817, Note_on_c, 0, 67, 55
2,31822, Control_c, 0, 64, 35
2,31831, Note_on_c, 0, 51, 44
2,31833, Note_on_c, 0, 63, 43
2,31838, Note_on_c, 0, 58, 37
2,31841, Control_c, 0, 64, 26
2,31860, Control_c, 0, 64, 23
2,31918, Control_c, 0, 64, 24
2,31937, Control_c, 0, 64, 28
2,31957, Control_c, 0, 64, 38
2,31975, Control_c, 0, 64, 49
2,31994, Control_c, 0, 64, 52
2,32014, Control_c, 0, 64, 52
2,32033, Control_c, 0, 64, 51
2,32052, Control_c, 0, 64, 52
2,32071, Control_c, 0, 64, 52
2,32091, Control_c, 0, 64, 53
2,32104, Note_on_c, 0, 51, 0
2,32130, Note_on_c, 0, 58, 0
2,32168, Control_c, 0, 64, 54
2,32198, Note_on_c, 0, 67, 0
2,32214, Note_on_c, 0, 63, 0
2,32245, Control_c, 0, 64, 54
2,32283, Control_c, 0, 64, 51
2,32302, Control_c, 0, 64, 36
2,32305, Note_on_c, 0, 51, 52
2,32321, Control_c, 0, 64, 0
2,32417, Control_c, 0, 64, 9
2,32437, Control_c, 0, 64, 37
2,32455, Control_c, 0, 64, 54
2,32474, Control_c, 0, 64, 60
2,32532, Control_c, 0, 64, 59
2,32561, Note_on_c, 0, 51, 0
2,32609, Control_c, 0, 64, 59
2,32629, Control_c, 0, 64, 58
2,32649, Control_c, 0, 64, 58
2,32687, Control_c, 0, 64, 57
2,32706, Control_c, 0, 64, 57
2,32762, Control_c, 0, 64, 56
2,32781, Control_c, 0, 64, 56
2,32800, Control_c, 0, 64, 55
2,32816, Note_on_c, 0, 68, 56
2,32819, Control_c, 0, 64, 55
2,32830, Note_on_c, 0, 63, 39
2,32838, Note_on_c, 0, 59, 40
2,32839, Control_c, 0, 64, 53
2,32844, Note_on_c, 0, 44, 36
2,32858, Control_c, 0, 64, 48
2,32877, Control_c, 0, 64, 37
2,32896, Control_c, 0, 64, 22
2,32916, Control_c, 0, 64, 0
2,33011, Control_c, 0, 64, 18
2,33030, Control_c, 0, 64, 37
2,33050, Control_c, 0, 64, 49
2,33069, Control_c, 0, 64, 53
2,33127, Control_c, 0, 64, 54
2,33145, Control_c, 0, 64, 55
2,33165, Control_c, 0, 64, 55
2,33242, Control_c, 0, 64, 56
2,33261, Control_c, 0, 64, 57
2,33280, Control_c, 0, 64, 57
2,33299, Control_c, 0, 64, 59
2,33310, Note_on_c, 0, 70, 69
2,33319, Control_c, 0, 64, 60
2,33338, Control_c, 0, 64, 61
2,33357, Control_c, 0, 64, 58
2,33374, Note_on_c, 0, 63, 0
2,33376, Control_c, 0, 64, 43
2,33393, Note_on_c, 0, 68, 0
2,33396, Control_c, 0, 64, 11
2,33414, Control_c, 0, 64, 0
2,33421, Note_on_c, 0, 59, 0
2,33453, Control_c, 0, 64, 27
2,33454, Note_on_c, 0, 44, 0
2,33472, Control_c, 0, 64, 51
2,33491, Control_c, 0, 64, 57
2,33510, Control_c, 0, 64, 57
2,33530, Control_c, 0, 64, 58
2,33549, Control_c, 0, 64, 58
2,33568, Control_c, 0, 64, 59
2,33685, Control_c, 0, 64, 59
2,33703, Control_c, 0, 64, 60
2,33723, Control_c, 0, 64, 61
2,33761, Control_c, 0, 64, 58
2,33775, Note_on_c, 0, 70, 0
2,33780, Control_c, 0, 64, 47
2,33794, Note_on_c, 0, 71, 66
2,33800, Control_c, 0, 64, 28
2,33819, Control_c, 0, 64, 17
2,33838, Control_c, 0, 64, 18
2,33857, Control_c, 0, 64, 40
2,33877, Control_c, 0, 64, 56
2,33895, Control_c, 0, 64, 59
2,33914, Control_c, 0, 64, 60
2,33934, Control_c, 0, 64, 60
2,33953, Control_c, 0, 64, 61
2,33972, Control_c, 0, 64, 62
2,34029, Control_c, 0, 64, 61
2,34068, Control_c, 0, 64, 61
2,34280, Control_c, 0, 64, 60
2,34299, Control_c, 0, 64, 58
2,34308, Note_on_c, 0, 66, 64
2,34312, Note_on_c, 0, 59, 47
2,34316, Control_c, 0, 64, 47
2,34318, Note_on_c, 0, 51, 42
2,34335, Control_c, 0, 64, 24
2,34344, Note_on_c, 0, 71, 0
2,34354, Control_c, 0, 64, 0
2,34392, Control_c, 0, 64, 25
2,34412, Control_c, 0, 64, 52
2,34431, Control_c, 0, 64, 62
2,34450, Control_c, 0, 64, 62
2,34469, Control_c, 0, 64, 62
2,34489, Control_c, 0, 64, 61
2,34507, Control_c, 0, 64, 62
2,34527, Control_c, 0, 64, 62
2,34527, Note_on_c, 0, 59, 0
2,34568, Control_c, 0, 64, 62
2,34625, Note_on_c, 0, 51, 0
2,34626, Control_c, 0, 64, 61
2,34664, Control_c, 0, 64, 61
2,34684, Control_c, 0, 64, 60
2,34723, Control_c, 0, 64, 60
2,34780, Control_c, 0, 64, 59
2,34800, Control_c, 0, 64, 59
2,34819, Control_c, 0, 64, 57
2,34821, Note_on_c, 0, 73, 70
2,34838, Control_c, 0, 64, 54
2,34838, Note_on_c, 0, 64, 45
2,34844, Note_on_c, 0, 68, 55
2,34857, Control_c, 0, 64, 46
2,34857, Note_on_c, 0, 52, 48
2,34877, Control_c, 0, 64, 37
2,34893, Note_on_c, 0, 66, 0
2,34896, Control_c, 0, 64, 30
2,34914, Control_c, 0, 64, 29
2,34953, Control_c, 0, 64, 30
2,34972, Control_c, 0, 64, 33
2,34991, Control_c, 0, 64, 36
2,35011, Control_c, 0, 64, 39
2,35030, Control_c, 0, 64, 44
2,35049, Control_c, 0, 64, 47
2,35068, Control_c, 0, 64, 48
2,35088, Control_c, 0, 64, 48
2,35107, Control_c, 0, 64, 49
2,35115, Note_on_c, 0, 68, 0
2,35119, Note_on_c, 0, 64, 0
2,35126, Control_c, 0, 64, 52
2,35132, Note_on_c, 0, 73, 0
2,35140, Note_on_c, 0, 52, 0
2,35145, Control_c, 0, 64, 54
2,35165, Control_c, 0, 64, 54
2,35203, Control_c, 0, 64, 55
2,35222, Control_c, 0, 64, 56
2,35242, Control_c, 0, 64, 56
2,35299, Control_c, 0, 64, 54
2,35318, Control_c, 0, 64, 50
2,35332, Note_on_c, 0, 52, 58
2,35337, Control_c, 0, 64, 43
2,35357, Control_c, 0, 64, 30
2,35376, Control_c, 0, 64, 22
2,35394, Control_c, 0, 64, 20
2,35433, Control_c, 0, 64, 21
2,35452, Control_c, 0, 64, 28
2,35471, Control_c, 0, 64, 36
2,35491, Control_c, 0, 64, 40
2,35506, Control_c, 0, 64, 43
2,35526, Control_c, 0, 64, 46
2,35544, Control_c, 0, 64, 50
2,35564, Control_c, 0, 64, 52
2,35568, Note_on_c, 0, 52, 0
2,35621, Control_c, 0, 64, 53
2,35641, Control_c, 0, 64, 54
2,35833, Note_on_c, 0, 70, 72
2,35848, Note_on_c, 0, 66, 50
2,35851, Control_c, 0, 64, 53
2,35869, Note_on_c, 0, 61, 47
2,35870, Control_c, 0, 64, 52
2,35872, Note_on_c, 0, 54, 50
2,35889, Control_c, 0, 64, 50
2,35908, Control_c, 0, 64, 49
2,35947, Control_c, 0, 64, 51
2,35966, Control_c, 0, 64, 51
2,36005, Control_c, 0, 64, 52
2,36023, Control_c, 0, 64, 55
2,36043, Control_c, 0, 64, 57
2,36067, Note_on_c, 0, 66, 0
2,36072, Note_on_c, 0, 61, 0
2,36100, Control_c, 0, 64, 57
2,36120, Control_c, 0, 64, 58
2,36133, Note_on_c, 0, 54, 0
2,36177, Control_c, 0, 64, 58
2,36183, Note_on_c, 0, 70, 0
2,36234, Control_c, 0, 64, 57
2,36254, Control_c, 0, 64, 54
2,36273, Control_c, 0, 64, 46
2,36292, Control_c, 0, 64, 36
2,36311, Control_c, 0, 64, 20
2,36331, Control_c, 0, 64, 11
2,36339, Note_on_c, 0, 54, 60
2,36350, Control_c, 0, 64, 0
2,36408, Control_c, 0, 64, 17
2,36427, Control_c, 0, 64, 39
2,36446, Control_c, 0, 64, 55
2,36466, Control_c, 0, 64, 61
2,36486, Control_c, 0, 64, 62
2,36504, Control_c, 0, 64, 63
2,36524, Control_c, 0, 64, 63
2,36543, Control_c, 0, 64, 64
2,36563, Control_c, 0, 64, 65
2,36578, Note_on_c, 0, 54, 0
2,36600, Control_c, 0, 64, 64
2,36619, Control_c, 0, 64, 63
2,36638, Control_c, 0, 64, 64
2,36657, Control_c, 0, 64, 63
2,36696, Control_c, 0, 64, 63
2,36714, Control_c, 0, 64, 62
2,36753, Control_c, 0, 64, 62
2,36772, Control_c, 0, 64, 61
2,36791, Control_c, 0, 64, 61
2,36811, Control_c, 0, 64, 60
2,36830, Control_c, 0, 64, 60
2,36849, Control_c, 0, 64, 57
2,36864, Note_on_c, 0, 71, 63
2,36868, Control_c, 0, 64, 51
2,36880, Note_on_c, 0, 66, 47
2,36887, Note_on_c, 0, 63, 42
2,36888, Control_c, 0, 64, 41
2,36889, Note_on_c, 0, 47, 45
2,36893, Note_on_c, 0, 59, 40
2,36907, Control_c, 0, 64, 31
2,36926, Control_c, 0, 64, 21
2,36945, Control_c, 0, 64, 0
2,37003, Control_c, 0, 64, 20
2,37022, Control_c, 0, 64, 44
2,37042, Control_c, 0, 64, 57
2,37060, Control_c, 0, 64, 60
2,37080, Control_c, 0, 64, 61
2,37118, Control_c, 0, 64, 61
2,37137, Control_c, 0, 64, 62
2,37157, Control_c, 0, 64, 62
2,37307, Note_on_c, 0, 59, 0
2,37343, Note_on_c, 0, 75, 70
2,37344, Note_on_c, 0, 47, 0
2,37348, Control_c, 0, 64, 62
2,37350, Note_on_c, 0, 71, 0
2,37372, Note_on_c, 0, 66, 0
2,37406, Control_c, 0, 64, 61
2,37422, Note_on_c, 0, 63, 0
2,37464, Control_c, 0, 64, 61
2,37503, Control_c, 0, 64, 60
2,37560, Control_c, 0, 64, 60
2,37570, Note_on_c, 0, 74, 74
2,37579, Control_c, 0, 64, 59
2,37598, Control_c, 0, 64, 59
2,37617, Control_c, 0, 64, 58
2,37621, Note_on_c, 0, 75, 0
2,37637, Control_c, 0, 64, 57
2,37656, Control_c, 0, 64, 57
2,37713, Control_c, 0, 64, 56
2,37732, Control_c, 0, 64, 56
2,37790, Control_c, 0, 64, 56
2,37809, Control_c, 0, 64, 56
2,37828, Control_c, 0, 64, 55
2,37845, Note_on_c, 0, 75, 76
2,37848, Control_c, 0, 64, 54
2,37867, Control_c, 0, 64, 50
2,37883, Note_on_c, 0, 74, 0
2,37886, Control_c, 0, 64, 38
2,37905, Control_c, 0, 64, 0
2,37982, Control_c, 0, 64, 31
2,38002, Control_c, 0, 64, 53
2,38020, Control_c, 0, 64, 61
2,38040, Control_c, 0, 64, 61
2,38097, Control_c, 0, 64, 62
2,38212, Control_c, 0, 64, 61
2,38270, Control_c, 0, 64, 62
2,38308, Control_c, 0, 64, 62
2,38312, Note_on_c, 0, 63, 54
2,38315, Note_on_c, 0, 70, 70
2,38330, Note_on_c, 0, 54, 47
2,38347, Control_c, 0, 64, 58
2,38366, Control_c, 0, 64, 43
2,38386, Control_c, 0, 64, 15
2,38403, Note_on_c, 0, 75, 0
2,38406, Control_c, 0, 64, 0
2,38424, Control_c, 0, 64, 9
2,38444, Control_c, 0, 64, 43
2,38463, Control_c, 0, 64, 59
2,38483, Control_c, 0, 64, 62
2,38520, Control_c, 0, 64, 63
2,38542, Note_on_c, 0, 63, 0
2,38548, Note_on_c, 0, 54, 0
2,38577, Control_c, 0, 64, 62
2,38597, Control_c, 0, 64, 62
2,38654, Control_c, 0, 64, 61
2,38769, Control_c, 0, 64, 62
2,38808, Control_c, 0, 64, 61
2,38814, Note_on_c, 0, 77, 77
2,38820, Note_on_c, 0, 68, 53
2,38821, Note_on_c, 0, 70, 0
2,38825, Note_on_c, 0, 71, 58
2,38827, Control_c, 0, 64, 59
2,38841, Note_on_c, 0, 56, 55
2,38846, Control_c, 0, 64, 55
2,38865, Control_c, 0, 64, 47
2,38885, Control_c, 0, 64, 39
2,38903, Control_c, 0, 64, 29
2,38923, Control_c, 0, 64, 21
2,38962, Control_c, 0, 64, 23
2,38980, Control_c, 0, 64, 25
2,39000, Control_c, 0, 64, 31
2,39019, Control_c, 0, 64, 40
2,39038, Control_c, 0, 64, 45
2,39057, Control_c, 0, 64, 45
2,39077, Control_c, 0, 64, 46
2,39086, Note_on_c, 0, 77, 0
2,39091, Note_on_c, 0, 68, 0
2,39091, Note_on_c, 0, 71, 0
2,39096, Control_c, 0, 64, 47
2,39114, Control_c, 0, 64, 51
2,39134, Control_c, 0, 64, 53
2,39134, Note_on_c, 0, 56, 0
2,39211, Control_c, 0, 64, 54
2,39230, Control_c, 0, 64, 55
2,39249, Control_c, 0, 64, 56
2,39326, Control_c, 0, 64, 55
2,39333, Note_on_c, 0, 56, 65
2,39345, Control_c, 0, 64, 50
2,39365, Control_c, 0, 64, 39
2,39383, Control_c, 0, 64, 23
2,39403, Control_c, 0, 64, 15
2,39422, Control_c, 0, 64, 11
2,39460, Control_c, 0, 64, 15
2,39480, Control_c, 0, 64, 23
2,39500, Control_c, 0, 64, 32
2,39519, Control_c, 0, 64, 45
2,39538, Control_c, 0, 64, 54
2,39554, Note_on_c, 0, 56, 0
2,39558, Control_c, 0, 64, 56
2,39615, Control_c, 0, 64, 56
2,39730, Control_c, 0, 64, 57
2,39749, Control_c, 0, 64, 58
2,39787, Control_c, 0, 64, 55
2,39807, Control_c, 0, 64, 46
2,39820, Note_on_c, 0, 74, 70
2,39826, Control_c, 0, 64, 32
2,39840, Note_on_c, 0, 65, 56
2,39843, Note_on_c, 0, 58, 60
2,39846, Control_c, 0, 64, 24
2,39848, Note_on_c, 0, 70, 57
2,39903, Control_c, 0, 64, 26
2,39923, Control_c, 0, 64, 34
2,39941, Control_c, 0, 64, 46
2,39961, Control_c, 0, 64, 53
2,39969, Note_on_c, 0, 70, 0
2,39980, Control_c, 0, 64, 55
2,40018, Control_c, 0, 64, 55
2,40038, Control_c, 0, 64, 57
2,40057, Control_c, 0, 64, 58
2,40075, Control_c, 0, 64, 59
2,40095, Control_c, 0, 64, 58
2,40105, Note_on_c, 0, 58, 0
2,40118, Note_on_c, 0, 65, 0
2,40118, Note_on_c, 0, 74, 0
2,40133, Control_c, 0, 64, 59
2,40152, Control_c, 0, 64, 59
2,40172, Control_c, 0, 64, 60
2,40229, Control_c, 0, 64, 60
2,40267, Control_c, 0, 64, 59
2,40287, Control_c, 0, 64, 55
2,40306, Control_c, 0, 64, 36
2,40326, Control_c, 0, 64, 0
2,40345, Note_on_c, 0, 58, 71
2,40441, Control_c, 0, 64, 37
2,40460, Control_c, 0, 64, 61
2,40479, Control_c, 0, 64, 65
2,40498, Control_c, 0, 64, 66
2,40518, Control_c, 0, 64, 65
2,40526, Note_on_c, 0, 58, 0
2,40555, Control_c, 0, 64, 66
2,40575, Control_c, 0, 64, 66
2,40594, Control_c, 0, 64, 67
2,40632, Control_c, 0, 64, 66
2,40709, Control_c, 0, 64, 66
2,40747, Control_c, 0, 64, 65
2,40786, Control_c, 0, 64, 65
2,40824, Control_c, 0, 64, 64
2,40844, Control_c, 0, 64, 64
2,40857, Note_on_c, 0, 75, 73
2,40863, Control_c, 0, 64, 62
2,40874, Note_on_c, 0, 66, 53
2,40879, Note_on_c, 0, 63, 55
2,40883, Control_c, 0, 64, 58
2,40888, Note_on_c, 0, 51, 54
2,40901, Control_c, 0, 64, 46
2,40921, Control_c, 0, 64, 31
2,40940, Control_c, 0, 64, 15
2,40959, Control_c, 0, 64, 0
2,41017, Control_c, 0, 64, 9
2,41035, Control_c, 0, 64, 32
2,41055, Control_c, 0, 64, 55
2,41074, Control_c, 0, 64, 64
2,41093, Control_c, 0, 64, 65
2,41110, Note_on_c, 0, 66, 0
2,41112, Control_c, 0, 64, 65
2,41132, Control_c, 0, 64, 65
2,41151, Control_c, 0, 64, 66
2,41170, Control_c, 0, 64, 67
2,41190, Note_on_c, 0, 63, 0
2,41209, Control_c, 0, 64, 68
2,41286, Control_c, 0, 64, 68
2,41304, Control_c, 0, 64, 69
2,41324, Control_c, 0, 64, 70
2,41343, Control_c, 0, 64, 73
2,41353, Note_on_c, 0, 77, 81
2,41363, Control_c, 0, 64, 75
2,41367, Note_on_c, 0, 51, 0
2,41381, Control_c, 0, 64, 74
2,41392, Note_on_c, 0, 68, 56
2,41401, Control_c, 0, 64, 64
2,41419, Control_c, 0, 64, 48
2,41422, Note_on_c, 0, 75, 0
2,41438, Control_c, 0, 64, 36
2,41476, Control_c, 0, 64, 44
2,41496, Control_c, 0, 64, 60
2,41514, Control_c, 0, 64, 66
2,41534, Control_c, 0, 64, 72
2,41553, Control_c, 0, 64, 78
2,41573, Control_c, 0, 64, 82
2,41591, Control_c, 0, 64, 85
2,41707, Note_on_c, 0, 68, 0
2,41745, Control_c, 0, 64, 84
2,41803, Control_c, 0, 64, 83
2,41822, Control_c, 0, 64, 81
2,41842, Control_c, 0, 64, 78
2,41860, Control_c, 0, 64, 76
2,41880, Control_c, 0, 64, 73
2,41899, Control_c, 0, 64, 71
2,41918, Control_c, 0, 64, 70
2,41937, Control_c, 0, 64, 68
2,41952, Note_on_c, 0, 63, 71
2,41956, Control_c, 0, 64, 67
2,41961, Note_on_c, 0, 78, 71
2,41974, Note_on_c, 0, 70, 59
2,41976, Control_c, 0, 64, 65
2,41994, Control_c, 0, 64, 64
2,42014, Control_c, 0, 64, 64
2,42031, Note_on_c, 0, 77, 0
2,42033, Control_c, 0, 64, 63
2,42053, Control_c, 0, 64, 62
2,42071, Control_c, 0, 64, 60
2,42091, Control_c, 0, 64, 56
2,42110, Control_c, 0, 64, 48
2,42129, Control_c, 0, 64, 35
2,42148, Control_c, 0, 64, 13
2,42168, Control_c, 0, 64, 0
2,42246, Control_c, 0, 64, 22
2,42264, Control_c, 0, 64, 34
2,42284, Control_c, 0, 64, 41
2,42303, Control_c, 0, 64, 48
2,42323, Control_c, 0, 64, 52
2,42341, Control_c, 0, 64, 53
2,42361, Control_c, 0, 64, 55
2,42380, Control_c, 0, 64, 57
2,42399, Control_c, 0, 64, 60
2,42418, Control_c, 0, 64, 61
2,42459, Note_on_c, 0, 70, 0
2,42459, Note_on_c, 0, 71, 68
2,42495, Control_c, 0, 64, 62
2,42514, Control_c, 0, 64, 63
2,42533, Control_c, 0, 64, 63
2,42591, Control_c, 0, 64, 64
2,42610, Control_c, 0, 64, 65
2,42629, Control_c, 0, 64, 66
2,42649, Control_c, 0, 64, 67
2,42667, Control_c, 0, 64, 67
2,42696, Note_on_c, 0, 70, 74
2,42744, Control_c, 0, 64, 68
2,42772, Note_on_c, 0, 71, 0
2,42818, Note_on_c, 0, 70, 0
2,42860, Control_c, 0, 64, 67
2,42992, Note_on_c, 0, 60, 59
2,42993, Note_on_c, 0, 68, 62
2,42994, Control_c, 0, 64, 67
2,43013, Control_c, 0, 64, 64
2,43032, Control_c, 0, 64, 56
2,43052, Control_c, 0, 64, 42
2,43061, Note_on_c, 0, 63, 0
2,43071, Control_c, 0, 64, 34
2,43090, Control_c, 0, 64, 34
2,43109, Control_c, 0, 64, 41
2,43129, Control_c, 0, 64, 57
2,43147, Control_c, 0, 64, 64
2,43167, Control_c, 0, 64, 66
2,43188, Control_c, 0, 64, 67
2,43246, Control_c, 0, 64, 67
2,43274, Note_on_c, 0, 68, 0
2,43284, Control_c, 0, 64, 67
2,43303, Control_c, 0, 64, 66
2,43340, Control_c, 0, 64, 66
2,43359, Control_c, 0, 64, 65
2,43455, Control_c, 0, 64, 65
2,43489, Note_on_c, 0, 76, 65
2,43496, Note_on_c, 0, 61, 63
2,43498, Note_on_c, 0, 73, 59
2,43505, Note_on_c, 0, 78, 0
2,43532, Control_c, 0, 64, 64
2,43537, Note_on_c, 0, 60, 0
2,43551, Control_c, 0, 64, 63
2,43570, Control_c, 0, 64, 60
2,43589, Control_c, 0, 64, 53
2,43609, Control_c, 0, 64, 44
2,43627, Control_c, 0, 64, 41
2,43647, Control_c, 0, 64, 42
2,43666, Control_c, 0, 64, 47
2,43686, Control_c, 0, 64, 52
2,43704, Control_c, 0, 64, 53
2,43722, Note_on_c, 0, 63, 74
2,43724, Control_c, 0, 64, 54
2,43726, Note_on_c, 0, 78, 77
2,43743, Control_c, 0, 64, 55
2,43763, Control_c, 0, 64, 57
2,43772, Note_on_c, 0, 61, 0
2,43781, Control_c, 0, 64, 58
2,43801, Control_c, 0, 64, 59
2,43801, Note_on_c, 0, 76, 0
2,43839, Control_c, 0, 64, 59
2,43878, Control_c, 0, 64, 60
2,43954, Control_c, 0, 64, 60
2,43973, Control_c, 0, 64, 61
2,43980, Note_on_c, 0, 63, 0
2,43985, Note_on_c, 0, 80, 73
2,43986, Note_on_c, 0, 64, 70
2,44012, Control_c, 0, 64, 61
2,44025, Note_on_c, 0, 78, 0
2,44031, Control_c, 0, 64, 58
2,44050, Control_c, 0, 64, 52
2,44069, Control_c, 0, 64, 43
2,44089, Control_c, 0, 64, 28
2,44099, Note_on_c, 0, 73, 0
2,44107, Control_c, 0, 64, 11
2,44127, Control_c, 0, 64, 0
2,44166, Control_c, 0, 64, 29
2,44184, Control_c, 0, 64, 50
2,44204, Control_c, 0, 64, 60
2,44223, Control_c, 0, 64, 61
2,44243, Control_c, 0, 64, 60
2,44261, Control_c, 0, 64, 61
2,44320, Control_c, 0, 64, 60
2,44358, Note_on_c, 0, 64, 0
2,44377, Control_c, 0, 64, 61
2,44454, Control_c, 0, 64, 59
2,44467, Note_on_c, 0, 75, 65
2,44470, Note_on_c, 0, 79, 69
2,44473, Control_c, 0, 64, 55
2,44475, Note_on_c, 0, 63, 66
2,44482, Note_on_c, 0, 80, 0
2,44493, Control_c, 0, 64, 46
2,44512, Control_c, 0, 64, 35
2,44531, Control_c, 0, 64, 27
2,44550, Control_c, 0, 64, 26
2,44588, Control_c, 0, 64, 29
2,44608, Control_c, 0, 64, 41
2,44627, Control_c, 0, 64, 54
2,44647, Control_c, 0, 64, 59
2,44665, Control_c, 0, 64, 60
2,44685, Control_c, 0, 64, 61
2,44704, Control_c, 0, 64, 62
2,44706, Note_on_c, 0, 80, 79
2,44815, Note_on_c, 0, 79, 0
2,44876, Control_c, 0, 64, 62
2,44896, Control_c, 0, 64, 63
2,44899, Note_on_c, 0, 75, 0
2,44915, Control_c, 0, 64, 63
2,44936, Note_on_c, 0, 63, 0
2,44953, Control_c, 0, 64, 63
2,44973, Control_c, 0, 64, 61
2,44992, Control_c, 0, 64, 56
2,44992, Note_on_c, 0, 82, 71
2,45002, Note_on_c, 0, 61, 65
2,45002, Note_on_c, 0, 76, 51
2,45011, Control_c, 0, 64, 47
2,45030, Control_c, 0, 64, 37
2,45046, Note_on_c, 0, 80, 0
2,45050, Control_c, 0, 64, 35
2,45107, Control_c, 0, 64, 37
2,45127, Control_c, 0, 64, 41
2,45145, Control_c, 0, 64, 46
2,45165, Control_c, 0, 64, 50
2,45184, Control_c, 0, 64, 52
2,45203, Control_c, 0, 64, 53
2,45222, Control_c, 0, 64, 53
2,45242, Control_c, 0, 64, 55
2,45259, Control_c, 0, 64, 58
2,45277, Control_c, 0, 64, 59
2,45354, Control_c, 0, 64, 59
2,45374, Control_c, 0, 64, 60
2,45413, Control_c, 0, 64, 60
2,45439, Note_on_c, 0, 61, 0
2,45451, Control_c, 0, 64, 59
2,45470, Control_c, 0, 64, 55
2,45472, Note_on_c, 0, 67, 68
2,45482, Note_on_c, 0, 80, 74
2,45489, Control_c, 0, 64, 47
2,45507, Note_on_c, 0, 82, 0
2,45508, Control_c, 0, 64, 37
2,45528, Control_c, 0, 64, 31
2,45566, Control_c, 0, 64, 34
2,45585, Control_c, 0, 64, 45
2,45605, Control_c, 0, 64, 54
2,45623, Control_c, 0, 64, 56
2,45643, Control_c, 0, 64, 56
2,45662, Control_c, 0, 64, 59
2,45682, Control_c, 0, 64, 61
2,45716, Note_on_c, 0, 82, 84
2,45733, Note_on_c, 0, 76, 0
2,45757, Control_c, 0, 64, 61
2,45777, Control_c, 0, 64, 61
2,45796, Control_c, 0, 64, 60
2,45854, Control_c, 0, 64, 60
2,45877, Note_on_c, 0, 80, 0
2,45911, Control_c, 0, 64, 59
2,45931, Control_c, 0, 64, 59
2,45950, Control_c, 0, 64, 58
2,45969, Control_c, 0, 64, 56
2,45988, Control_c, 0, 64, 55
2,45994, Note_on_c, 0, 83, 71
2,46008, Control_c, 0, 64, 53
2,46008, Note_on_c, 0, 68, 61
2,46012, Note_on_c, 0, 75, 56
2,46027, Control_c, 0, 64, 51
2,46041, Note_on_c, 0, 82, 0
2,46046, Control_c, 0, 64, 50
2,46047, Note_on_c, 0, 67, 0
2,46103, Control_c, 0, 64, 50
2,46123, Control_c, 0, 64, 49
2,46142, Control_c, 0, 64, 48
2,46162, Control_c, 0, 64, 47
2,46180, Control_c, 0, 64, 47
2,46200, Control_c, 0, 64, 46
2,46379, Note_on_c, 0, 68, 0
2,46391, Control_c, 0, 64, 43
2,46411, Control_c, 0, 64, 36
2,46430, Control_c, 0, 64, 28
2,46449, Control_c, 0, 64, 23
2,46468, Control_c, 0, 64, 21
2,46507, Control_c, 0, 64, 20
2,46517, Note_on_c, 0, 59, 63
2,46522, Note_on_c, 0, 80, 73
2,46526, Control_c, 0, 64, 21
2,46545, Control_c, 0, 64, 36
2,46553, Note_on_c, 0, 83, 0
2,46565, Control_c, 0, 64, 52
2,46583, Control_c, 0, 64, 57
2,46603, Control_c, 0, 64, 57
2,46622, Control_c, 0, 64, 58
2,46642, Control_c, 0, 64, 59
2,46660, Control_c, 0, 64, 61
2,46680, Control_c, 0, 64, 61
2,46699, Control_c, 0, 64, 61
2,46701, Note_on_c, 0, 75, 0
2,46756, Control_c, 0, 64, 60
2,46776, Control_c, 0, 64, 59
2,46794, Control_c, 0, 64, 58
2,46814, Control_c, 0, 64, 58
2,46833, Control_c, 0, 64, 57
2,46853, Control_c, 0, 64, 56
2,46910, Control_c, 0, 64, 55
2,46929, Control_c, 0, 64, 55
2,46948, Control_c, 0, 64, 54
2,46967, Note_on_c, 0, 59, 0
2,46968, Control_c, 0, 64, 54
2,46987, Control_c, 0, 64, 52
2,47006, Control_c, 0, 64, 50
2,47014, Note_on_c, 0, 73, 52
2,47014, Note_on_c, 0, 82, 73
2,47023, Note_on_c, 0, 61, 55
2,47025, Control_c, 0, 64, 49
2,47045, Control_c, 0, 64, 48
2,47062, Note_on_c, 0, 80, 0
2,47063, Control_c, 0, 64, 47
2,47083, Control_c, 0, 64, 47
2,47102, Control_c, 0, 64, 46
2,47122, Control_c, 0, 64, 46
2,47140, Control_c, 0, 64, 45
2,47157, Control_c, 0, 64, 44
2,47177, Control_c, 0, 64, 44
2,47196, Control_c, 0, 64, 43
2,47215, Control_c, 0, 64, 41
2,47234, Control_c, 0, 64, 40
2,47254, Control_c, 0, 64, 40
2,47261, Note_on_c, 0, 61, 0
2,47513, Note_on_c, 0, 61, 61
2,47580, Control_c, 0, 64, 40
2,47600, Control_c, 0, 64, 41
2,47618, Control_c, 0, 64, 43
2,47637, Control_c, 0, 64, 47
2,47651, Note_on_c, 0, 82, 0
2,47657, Control_c, 0, 64, 49
2,47695, Control_c, 0, 64, 50
2,47714, Control_c, 0, 64, 50
2,47734, Control_c, 0, 64, 51
2,47752, Control_c, 0, 64, 51
2,47754, Note_on_c, 0, 61, 0
2,48005, Control_c, 0, 64, 51
2,48023, Control_c, 0, 64, 50
2,48026, Note_on_c, 0, 63, 50
2,48033, Note_on_c, 0, 79, 65
2,48043, Control_c, 0, 64, 48
2,48062, Control_c, 0, 64, 47
2,48082, Control_c, 0, 64, 47
2,48177, Control_c, 0, 64, 48
2,48196, Control_c, 0, 64, 49
2,48216, Control_c, 0, 64, 49
2,48234, Control_c, 0, 64, 50
2,48273, Control_c, 0, 64, 51
2,48293, Control_c, 0, 64, 52
2,48311, Control_c, 0, 64, 54
2,48331, Control_c, 0, 64, 54
2,48350, Control_c, 0, 64, 55
2,48355, Note_on_c, 0, 63, 0
2,48369, Control_c, 0, 64, 56
2,48388, Control_c, 0, 64, 57
2,48408, Control_c, 0, 64, 58
2,48523, Control_c, 0, 64, 58
2,48531, Note_on_c, 0, 63, 56
2,48543, Note_on_c, 0, 79, 0
2,48562, Control_c, 0, 64, 57
2,48580, Control_c, 0, 64, 57
2,48696, Control_c, 0, 64, 57
2,48714, Control_c, 0, 64, 58
2,48734, Control_c, 0, 64, 59
2,48753, Control_c, 0, 64, 60
2,48830, Control_c, 0, 64, 59
2,48868, Control_c, 0, 64, 59
2,48894, Note_on_c, 0, 63, 0
2,48926, Control_c, 0, 64, 58
2,48946, Control_c, 0, 64, 58
2,48966, Control_c, 0, 64, 57
2,49023, Control_c, 0, 64, 57
2,49043, Note_on_c, 0, 80, 64
2,49061, Control_c, 0, 64, 56
2,49094, Note_on_c, 0, 56, 40
2,49100, Control_c, 0, 64, 56
2,49311, Control_c, 0, 64, 55
2,49446, Control_c, 0, 64, 56
2,49464, Control_c, 0, 64, 56
2,49503, Control_c, 0, 64, 57
2,49523, Control_c, 0, 64, 57
2,49541, Control_c, 0, 64, 58
2,49561, Control_c, 0, 64, 57
2,49565, Note_on_c, 0, 78, 65
2,49580, Control_c, 0, 64, 53
2,49599, Control_c, 0, 64, 47
2,49618, Control_c, 0, 64, 45
2,49637, Control_c, 0, 64, 47
2,49657, Control_c, 0, 64, 54
2,49675, Control_c, 0, 64, 59
2,49695, Control_c, 0, 64, 61
2,49714, Control_c, 0, 64, 62
2,49733, Control_c, 0, 64, 62
2,49752, Control_c, 0, 64, 63
2,49772, Control_c, 0, 64, 63
2,49790, Note_on_c, 0, 73, 0
2,49793, Note_on_c, 0, 76, 72
2,49849, Control_c, 0, 64, 63
2,49849, Note_on_c, 0, 80, 0
2,49917, Note_on_c, 0, 56, 0
2,49927, Control_c, 0, 64, 62
2,49965, Control_c, 0, 64, 62
2,49979, Note_on_c, 0, 78, 0
2,50003, Control_c, 0, 64, 61
2,50022, Control_c, 0, 64, 61
2,50040, Control_c, 0, 64, 60
2,50059, Control_c, 0, 64, 60
2,50072, Note_on_c, 0, 75, 66
2,50084, Note_on_c, 0, 71, 51
2,50116, Control_c, 0, 64, 59
2,50136, Control_c, 0, 64, 59
2,50150, Note_on_c, 0, 76, 0
2,50154, Control_c, 0, 64, 58
2,50174, Control_c, 0, 64, 55
2,50193, Control_c, 0, 64, 50
2,50213, Control_c, 0, 64, 43
2,50231, Control_c, 0, 64, 40
2,50289, Control_c, 0, 64, 41
2,50308, Control_c, 0, 64, 44
2,50328, Control_c, 0, 64, 49
2,50347, Control_c, 0, 64, 54
2,50405, Control_c, 0, 64, 55
2,50423, Control_c, 0, 64, 57
2,50443, Control_c, 0, 64, 59
2,50500, Control_c, 0, 64, 59
2,50520, Control_c, 0, 64, 61
2,50557, Control_c, 0, 64, 58
2,50571, Note_on_c, 0, 56, 48
2,50573, Note_on_c, 0, 76, 65
2,50577, Control_c, 0, 64, 44
2,50596, Control_c, 0, 64, 20
2,50616, Control_c, 0, 64, 0
2,50654, Control_c, 0, 64, 39
2,50655, Note_on_c, 0, 75, 0
2,50673, Control_c, 0, 64, 57
2,50693, Control_c, 0, 64, 61
2,50711, Control_c, 0, 64, 62
2,50726, Note_on_c, 0, 71, 0
2,50750, Control_c, 0, 64, 62
2,50769, Control_c, 0, 64, 63
2,50846, Control_c, 0, 64, 62
2,50884, Control_c, 0, 64, 62
2,50902, Control_c, 0, 64, 61
2,50904, Note_on_c, 0, 56, 0
2,50941, Control_c, 0, 64, 61
2,50998, Control_c, 0, 64, 60
2,51018, Control_c, 0, 64, 60
2,51037, Control_c, 0, 64, 59
2,51056, Control_c, 0, 64, 58
2,51063, Note_on_c, 0, 69, 48
2,51074, Note_on_c, 0, 78, 65
2,51075, Control_c, 0, 64, 57
2,51087, Note_on_c, 0, 57, 44
2,51095, Control_c, 0, 64, 56
2,51113, Control_c, 0, 64, 56
2,51142, Note_on_c, 0, 76, 0
2,51152, Control_c, 0, 64, 55
2,51172, Control_c, 0, 64, 55
2,51190, Control_c, 0, 64, 54
2,51210, Control_c, 0, 64, 52
2,51229, Control_c, 0, 64, 50
2,51248, Control_c, 0, 64, 46
2,51267, Control_c, 0, 64, 41
2,51287, Control_c, 0, 64, 31
2,51306, Control_c, 0, 64, 0
2,51316, Note_on_c, 0, 57, 0
2,51561, Note_on_c, 0, 57, 54
2,51575, Control_c, 0, 64, 9
2,51593, Control_c, 0, 64, 26
2,51598, Note_on_c, 0, 78, 0
2,51613, Control_c, 0, 64, 34
2,51632, Control_c, 0, 64, 38
2,51652, Control_c, 0, 64, 40
2,51767, Control_c, 0, 64, 39
2,51786, Control_c, 0, 64, 39
2,51795, Note_on_c, 0, 57, 0
2,51824, Control_c, 0, 64, 38
2,51844, Control_c, 0, 64, 36
2,51862, Control_c, 0, 64, 32
2,51882, Control_c, 0, 64, 30
2,51901, Control_c, 0, 64, 28
2,51921, Control_c, 0, 64, 26
2,51939, Control_c, 0, 64, 23
2,51958, Control_c, 0, 64, 21
2,51997, Control_c, 0, 64, 20
2,52035, Control_c, 0, 64, 19
2,52047, Note_on_c, 0, 75, 65
2,52055, Control_c, 0, 64, 18
2,52067, Note_on_c, 0, 59, 45
2,52073, Control_c, 0, 64, 17
2,52348, Note_on_c, 0, 59, 0
2,52362, Control_c, 0, 64, 19
2,52381, Control_c, 0, 64, 25
2,52401, Control_c, 0, 64, 29
2,52419, Control_c, 0, 64, 31
2,52438, Control_c, 0, 64, 33
2,52458, Control_c, 0, 64, 35
2,52477, Control_c, 0, 64, 36
2,52496, Control_c, 0, 64, 38
2,52507, Note_on_c, 0, 75, 0
2,52515, Control_c, 0, 64, 40
2,52532, Note_on_c, 0, 59, 60
2,52535, Control_c, 0, 64, 42
2,52553, Control_c, 0, 64, 43
2,52573, Control_c, 0, 64, 44
2,52592, Control_c, 0, 64, 45
2,52612, Control_c, 0, 64, 48
2,52630, Control_c, 0, 64, 51
2,52650, Control_c, 0, 64, 53
2,52669, Control_c, 0, 64, 54
2,52688, Control_c, 0, 64, 54
2,52707, Control_c, 0, 64, 55
2,52727, Control_c, 0, 64, 56
2,52746, Control_c, 0, 64, 57
2,52785, Control_c, 0, 64, 57
2,52812, Note_on_c, 0, 59, 0
2,52843, Control_c, 0, 64, 56
2,52882, Control_c, 0, 64, 55
2,52900, Control_c, 0, 64, 55
2,52918, Control_c, 0, 64, 54
2,52939, Control_c, 0, 64, 53
2,52957, Control_c, 0, 64, 53
2,52996, Control_c, 0, 64, 52
2,53053, Note_on_c, 0, 76, 60
2,53054, Control_c, 0, 64, 52
2,53071, Note_on_c, 0, 52, 39
2,53093, Control_c, 0, 64, 51
2,53111, Control_c, 0, 64, 49
2,53131, Control_c, 0, 64, 44
2,53150, Control_c, 0, 64, 35
2,53169, Control_c, 0, 64, 27
2,53188, Control_c, 0, 64, 21
2,53208, Control_c, 0, 64, 19
2,53227, Control_c, 0, 64, 18
2,53362, Control_c, 0, 64, 21
2,53380, Control_c, 0, 64, 27
2,53400, Control_c, 0, 64, 30
2,53419, Control_c, 0, 64, 32
2,53437, Control_c, 0, 64, 36
2,53457, Control_c, 0, 64, 40
2,53476, Control_c, 0, 64, 46
2,53496, Control_c, 0, 64, 49
2,53514, Control_c, 0, 64, 50
2,53534, Control_c, 0, 64, 51
2,53537, Note_on_c, 0, 75, 67
2,53553, Control_c, 0, 64, 52
2,53573, Control_c, 0, 64, 53
2,53591, Control_c, 0, 64, 54
2,53611, Control_c, 0, 64, 54
2,53657, Note_on_c, 0, 76, 0
2,53688, Control_c, 0, 64, 54
2,53726, Control_c, 0, 64, 53
2,53742, Note_on_c, 0, 69, 0
2,53745, Control_c, 0, 64, 53
2,53761, Note_on_c, 0, 73, 66
2,53765, Control_c, 0, 64, 52
2,53783, Control_c, 0, 64, 51
2,53822, Control_c, 0, 64, 50
2,53860, Control_c, 0, 64, 50
2,53876, Control_c, 0, 64, 49
2,53896, Control_c, 0, 64, 48
2,53911, Note_on_c, 0, 75, 0
2,53915, Control_c, 0, 64, 47
2,53934, Control_c, 0, 64, 46
2,53953, Control_c, 0, 64, 45
2,53973, Control_c, 0, 64, 42
2,53974, Note_on_c, 0, 52, 0
2,53992, Control_c, 0, 64, 37
2,54011, Control_c, 0, 64, 28
2,54030, Control_c, 0, 64, 0
2,54031, Note_on_c, 0, 72, 66
2,54059, Note_on_c, 0, 68, 47
2,54101, Note_on_c, 0, 73, 0
2,54524, Note_on_c, 0, 73, 67
2,54584, Note_on_c, 0, 52, 8
2,54625, Control_c, 0, 64, 29
2,54631, Note_on_c, 0, 72, 0
2,54645, Control_c, 0, 64, 43
2,54653, Note_on_c, 0, 68, 0
2,54664, Control_c, 0, 64, 50
2,54683, Control_c, 0, 64, 54
2,54705, Control_c, 0, 64, 55
2,54743, Control_c, 0, 64, 54
2,54802, Control_c, 0, 64, 53
2,54820, Control_c, 0, 64, 52
2,54841, Control_c, 0, 64, 52
2,54858, Control_c, 0, 64, 51
2,54877, Control_c, 0, 64, 51
2,54896, Control_c, 0, 64, 50
2,54915, Control_c, 0, 64, 49
2,54935, Control_c, 0, 64, 48
2,54953, Control_c, 0, 64, 47
2,54973, Control_c, 0, 64, 46
2,54978, Note_on_c, 0, 52, 0
2,54992, Control_c, 0, 64, 45
2,55012, Control_c, 0, 64, 43
2,55015, Note_on_c, 0, 75, 69
2,55030, Control_c, 0, 64, 41
2,55040, Note_on_c, 0, 66, 40
2,55043, Note_on_c, 0, 54, 41
2,55050, Control_c, 0, 64, 39
2,55069, Control_c, 0, 64, 36
2,55086, Note_on_c, 0, 73, 0
2,55088, Control_c, 0, 64, 35
2,55107, Control_c, 0, 64, 33
2,55127, Control_c, 0, 64, 31
2,55146, Control_c, 0, 64, 30
2,55165, Control_c, 0, 64, 29
2,55211, Note_on_c, 0, 54, 0
2,55338, Control_c, 0, 64, 30
2,55357, Control_c, 0, 64, 31
2,55376, Control_c, 0, 64, 32
2,55395, Control_c, 0, 64, 34
2,55415, Control_c, 0, 64, 34
2,55433, Control_c, 0, 64, 35
2,55453, Control_c, 0, 64, 35
2,55472, Control_c, 0, 64, 36
2,55492, Control_c, 0, 64, 36
2,55505, Note_on_c, 0, 54, 55
2,55510, Control_c, 0, 64, 37
2,55530, Control_c, 0, 64, 38
2,55549, Control_c, 0, 64, 39
2,55566, Note_on_c, 0, 75, 0
2,55587, Control_c, 0, 64, 40
2,55607, Control_c, 0, 64, 40
2,55626, Control_c, 0, 64, 41
2,55666, Control_c, 0, 64, 41
2,55686, Control_c, 0, 64, 42
2,55704, Control_c, 0, 64, 43
2,55747, Note_on_c, 0, 54, 0
2,55763, Control_c, 0, 64, 43
2,55797, Control_c, 0, 64, 44
2,55932, Control_c, 0, 64, 44
2,56003, Note_on_c, 0, 72, 66
2,56009, Control_c, 0, 64, 42
2,56028, Control_c, 0, 64, 34
2,56032, Note_on_c, 0, 56, 38
2,56048, Control_c, 0, 64, 18
2,56066, Control_c, 0, 64, 0
2,56239, Control_c, 0, 64, 9
2,56258, Control_c, 0, 64, 13
2,56260, Note_on_c, 0, 56, 0
2,56277, Control_c, 0, 64, 21
2,56297, Control_c, 0, 64, 27
2,56316, Control_c, 0, 64, 29
2,56354, Control_c, 0, 64, 30
2,56374, Control_c, 0, 64, 31
2,56392, Control_c, 0, 64, 32
2,56412, Control_c, 0, 64, 32
2,56469, Control_c, 0, 64, 33
2,56489, Control_c, 0, 64, 34
2,56493, Note_on_c, 0, 56, 58
2,56508, Control_c, 0, 64, 35
2,56514, Note_on_c, 0, 72, 0
2,56528, Control_c, 0, 64, 38
2,56546, Control_c, 0, 64, 44
2,56566, Control_c, 0, 64, 52
2,56585, Control_c, 0, 64, 56
2,56644, Control_c, 0, 64, 56
2,56663, Control_c, 0, 64, 58
2,56682, Control_c, 0, 64, 58
2,56721, Control_c, 0, 64, 58
2,56770, Note_on_c, 0, 56, 0
2,56816, Control_c, 0, 64, 57
2,56912, Control_c, 0, 64, 58
2,56932, Control_c, 0, 64, 58
2,56970, Control_c, 0, 64, 58
2,56989, Control_c, 0, 64, 53
2,56991, Note_on_c, 0, 73, 63
2,57008, Control_c, 0, 64, 34
2,57008, Note_on_c, 0, 49, 48
2,57027, Control_c, 0, 64, 0
2,57124, Control_c, 0, 64, 33
2,57143, Control_c, 0, 64, 49
2,57162, Control_c, 0, 64, 57
2,57181, Control_c, 0, 64, 59
2,57201, Control_c, 0, 64, 60
2,57219, Control_c, 0, 64, 62
2,57234, Note_on_c, 0, 66, 0
2,57238, Control_c, 0, 64, 62
2,57258, Control_c, 0, 64, 63
2,57277, Control_c, 0, 64, 63
2,57296, Control_c, 0, 64, 64
2,57315, Control_c, 0, 64, 64
2,57373, Control_c, 0, 64, 65
2,57392, Control_c, 0, 64, 65
2,57412, Control_c, 0, 64, 66
2,57430, Control_c, 0, 64, 66
2,57472, Note_on_c, 0, 51, 53
2,57479, Note_on_c, 0, 64, 54
2,57507, Control_c, 0, 64, 67
2,57585, Note_on_c, 0, 49, 0
2,57586, Control_c, 0, 64, 67
2,57606, Control_c, 0, 64, 68
2,57624, Control_c, 0, 64, 68
2,57644, Control_c, 0, 64, 69
2,57683, Control_c, 0, 64, 69
2,57713, Note_on_c, 0, 51, 0
2,57734, Note_on_c, 0, 66, 63
2,57854, Control_c, 0, 64, 69
2,57859, Note_on_c, 0, 64, 0
2,57873, Control_c, 0, 64, 68
2,57893, Control_c, 0, 64, 68
2,57911, Control_c, 0, 64, 67
2,57931, Control_c, 0, 64, 67
2,57950, Control_c, 0, 64, 66
2,57969, Control_c, 0, 64, 65
2,57988, Control_c, 0, 64, 65
2,58008, Control_c, 0, 64, 64
2,58027, Control_c, 0, 64, 64
2,58034, Note_on_c, 0, 49, 69
2,58037, Note_on_c, 0, 68, 67
2,58049, Note_on_c, 0, 52, 59
2,58070, Note_on_c, 0, 66, 0
2,58085, Control_c, 0, 64, 63
2,58103, Control_c, 0, 64, 61
2,58123, Control_c, 0, 64, 55
2,58142, Control_c, 0, 64, 42
2,58162, Control_c, 0, 64, 19
2,58180, Control_c, 0, 64, 0
2,58314, Control_c, 0, 64, 22
2,58334, Control_c, 0, 64, 35
2,58353, Control_c, 0, 64, 43
2,58373, Control_c, 0, 64, 50
2,58391, Control_c, 0, 64, 57
2,58411, Control_c, 0, 64, 61
2,58430, Control_c, 0, 64, 62
2,58449, Control_c, 0, 64, 63
2,58468, Control_c, 0, 64, 63
2,58488, Control_c, 0, 64, 65
2,58502, Note_on_c, 0, 54, 49
2,58507, Control_c, 0, 64, 66
2,58507, Note_on_c, 0, 66, 61
2,58526, Control_c, 0, 64, 67
2,58547, Control_c, 0, 64, 68
2,58567, Control_c, 0, 64, 69
2,58585, Control_c, 0, 64, 69
2,58605, Control_c, 0, 64, 70
2,58624, Control_c, 0, 64, 70
2,58643, Control_c, 0, 64, 71
2,58662, Control_c, 0, 64, 71
2,58663, Note_on_c, 0, 52, 0
2,58672, Note_on_c, 0, 49, 0
2,58681, Note_on_c, 0, 68, 0
2,58738, Control_c, 0, 64, 71
2,58763, Note_on_c, 0, 64, 60
2,58771, Note_on_c, 0, 66, 0
2,58777, Control_c, 0, 64, 70
2,58795, Control_c, 0, 64, 70
2,58834, Control_c, 0, 64, 69
2,58853, Control_c, 0, 64, 69
2,58872, Control_c, 0, 64, 68
2,58892, Control_c, 0, 64, 67
2,58911, Control_c, 0, 64, 66
2,58987, Control_c, 0, 64, 65
2,59007, Control_c, 0, 64, 56
2,59013, Note_on_c, 0, 54, 0
2,59026, Control_c, 0, 64, 0
2,59026, Note_on_c, 0, 56, 57
2,59031, Note_on_c, 0, 63, 61
2,59032, Note_on_c, 0, 48, 52
2,59077, Note_on_c, 0, 64, 0
2,59141, Control_c, 0, 64, 54
2,59161, Control_c, 0, 64, 64
2,59167, Note_on_c, 0, 73, 0
2,59180, Control_c, 0, 64, 66
2,59237, Control_c, 0, 64, 66
2,59294, Note_on_c, 0, 56, 0
2,59295, Control_c, 0, 64, 67
2,59305, Note_on_c, 0, 48, 0
2,59391, Control_c, 0, 64, 67
2,59449, Control_c, 0, 64, 67
2,59467, Control_c, 0, 64, 66
2,59487, Control_c, 0, 64, 66
2,59497, Note_on_c, 0, 63, 0
2,59502, Note_on_c, 0, 73, 66
2,59506, Control_c, 0, 64, 65
2,59517, Note_on_c, 0, 49, 59
2,59523, Note_on_c, 0, 56, 51
2,59523, Note_on_c, 0, 64, 51
2,59526, Control_c, 0, 64, 64
2,59544, Control_c, 0, 64, 63
2,59564, Control_c, 0, 64, 62
2,59583, Control_c, 0, 64, 61
2,59603, Control_c, 0, 64, 60
2,59621, Control_c, 0, 64, 59
2,59641, Control_c, 0, 64, 59
2,59659, Control_c, 0, 64, 57
2,59677, Control_c, 0, 64, 56
2,59697, Control_c, 0, 64, 55
2,59716, Control_c, 0, 64, 55
2,59733, Note_on_c, 0, 51, 64
2,59736, Control_c, 0, 64, 53
2,59745, Note_on_c, 0, 66, 60
2,59754, Control_c, 0, 64, 52
2,59774, Control_c, 0, 64, 51
2,59781, Note_on_c, 0, 49, 0
2,59851, Control_c, 0, 64, 51
2,59870, Control_c, 0, 64, 50
2,59928, Control_c, 0, 64, 49
2,59947, Control_c, 0, 64, 44
2,59963, Note_on_c, 0, 51, 0
2,59966, Control_c, 0, 64, 0
2,59978, Note_on_c, 0, 52, 69
2,59996, Note_on_c, 0, 68, 68
2,60029, Note_on_c, 0, 64, 0
2,60087, Note_on_c, 0, 66, 0
2,60112, Note_on_c, 0, 73, 0
2,60119, Control_c, 0, 64, 34
2,60139, Control_c, 0, 64, 60
2,60157, Control_c, 0, 64, 64
2,60291, Note_on_c, 0, 56, 0
2,60311, Control_c, 0, 64, 63
2,60350, Control_c, 0, 64, 63
2,60359, Note_on_c, 0, 52, 0
2,60369, Control_c, 0, 64, 62
2,60439, Note_on_c, 0, 68, 0
2,60446, Control_c, 0, 64, 61
2,60460, Note_on_c, 0, 59, 63
2,60463, Note_on_c, 0, 75, 68
2,60466, Control_c, 0, 64, 53
2,60481, Note_on_c, 0, 51, 50
2,60484, Note_on_c, 0, 67, 48
2,60486, Control_c, 0, 64, 21
2,60504, Control_c, 0, 64, 0
2,60638, Control_c, 0, 64, 46
2,60658, Control_c, 0, 64, 62
2,60677, Control_c, 0, 64, 63
2,60705, Note_on_c, 0, 68, 67
2,60716, Note_on_c, 0, 59, 0
2,60787, Note_on_c, 0, 75, 0
2,60816, Note_on_c, 0, 51, 0
2,60832, Note_on_c, 0, 67, 0
2,60869, Control_c, 0, 64, 62
2,60958, Note_on_c, 0, 61, 56
2,60960, Note_on_c, 0, 70, 53
2,60966, Control_c, 0, 64, 62
2,60970, Note_on_c, 0, 76, 61
2,60979, Note_on_c, 0, 49, 55
2,60984, Control_c, 0, 64, 60
2,61004, Control_c, 0, 64, 50
2,61023, Control_c, 0, 64, 0
2,61027, Note_on_c, 0, 68, 0
2,61138, Control_c, 0, 64, 35
2,61157, Control_c, 0, 64, 57
2,61177, Control_c, 0, 64, 61
2,61234, Control_c, 0, 64, 62
2,61237, Note_on_c, 0, 70, 0
2,61272, Control_c, 0, 64, 62
2,61369, Control_c, 0, 64, 63
2,61387, Control_c, 0, 64, 64
2,61433, Note_on_c, 0, 68, 61
2,61437, Note_on_c, 0, 55, 67
2,61445, Control_c, 0, 64, 61
2,61463, Control_c, 0, 64, 47
2,61477, Note_on_c, 0, 49, 0
2,61483, Control_c, 0, 64, 0
2,61540, Control_c, 0, 64, 11
2,61559, Control_c, 0, 64, 55
2,61571, Note_on_c, 0, 61, 0
2,61578, Control_c, 0, 64, 64
2,61597, Control_c, 0, 64, 64
2,61651, Note_on_c, 0, 70, 68
2,61655, Control_c, 0, 64, 65
2,61688, Note_on_c, 0, 76, 0
2,61693, Control_c, 0, 64, 64
2,61712, Control_c, 0, 64, 64
2,61746, Note_on_c, 0, 68, 0
2,61750, Control_c, 0, 64, 63
2,61770, Control_c, 0, 64, 63
2,61789, Control_c, 0, 64, 62
2,61827, Control_c, 0, 64, 62
2,61847, Control_c, 0, 64, 61
2,61866, Control_c, 0, 64, 60
2,61885, Control_c, 0, 64, 59
2,61904, Control_c, 0, 64, 56
2,61924, Control_c, 0, 64, 53
2,61935, Note_on_c, 0, 75, 62
2,61937, Note_on_c, 0, 56, 61
2,61939, Note_on_c, 0, 71, 57
2,61943, Control_c, 0, 64, 49
2,61944, Note_on_c, 0, 59, 57
2,61958, Note_on_c, 0, 55, 0
2,61962, Control_c, 0, 64, 46
2,61970, Note_on_c, 0, 70, 0
2,61981, Control_c, 0, 64, 43
2,62000, Control_c, 0, 64, 43
2,62019, Control_c, 0, 64, 42
2,62038, Control_c, 0, 64, 42
2,62058, Control_c, 0, 64, 41
2,62115, Control_c, 0, 64, 42
2,62135, Control_c, 0, 64, 43
2,62153, Control_c, 0, 64, 44
2,62173, Control_c, 0, 64, 45
2,62192, Control_c, 0, 64, 46
2,62212, Control_c, 0, 64, 47
2,62230, Control_c, 0, 64, 51
2,62250, Control_c, 0, 64, 51
2,62253, Note_on_c, 0, 56, 0
2,62269, Control_c, 0, 64, 49
2,62288, Control_c, 0, 64, 44
2,62307, Control_c, 0, 64, 35
2,62311, Note_on_c, 0, 59, 0
2,62327, Control_c, 0, 64, 31
2,62385, Control_c, 0, 64, 30
2,62419, Note_on_c, 0, 68, 59
2,62423, Control_c, 0, 64, 36
2,62429, Note_on_c, 0, 63, 47
2,62433, Note_on_c, 0, 47, 58
2,62443, Control_c, 0, 64, 54
2,62462, Control_c, 0, 64, 60
2,62482, Control_c, 0, 64, 60
2,62500, Control_c, 0, 64, 60
2,62517, Note_on_c, 0, 71, 0
2,62577, Control_c, 0, 64, 59
2,62596, Control_c, 0, 64, 58
2,62609, Note_on_c, 0, 75, 0
2,62634, Control_c, 0, 64, 58
2,62654, Control_c, 0, 64, 57
2,62711, Control_c, 0, 64, 57
2,62731, Control_c, 0, 64, 56
2,62750, Control_c, 0, 64, 55
2,62769, Control_c, 0, 64, 54
2,62770, Note_on_c, 0, 47, 0
2,62788, Control_c, 0, 64, 53
2,62788, Note_on_c, 0, 63, 0
2,62808, Control_c, 0, 64, 53
2,62827, Control_c, 0, 64, 52
2,62885, Control_c, 0, 64, 51
2,62903, Control_c, 0, 64, 50
2,62908, Note_on_c, 0, 73, 64
2,62917, Note_on_c, 0, 70, 55
2,62923, Control_c, 0, 64, 47
2,62931, Note_on_c, 0, 49, 57
2,62931, Note_on_c, 0, 68, 0
2,62942, Control_c, 0, 64, 44
2,62942, Note_on_c, 0, 64, 42
2,62962, Control_c, 0, 64, 41
2,62980, Control_c, 0, 64, 39
2,62999, Control_c, 0, 64, 37
2,63019, Control_c, 0, 64, 37
2,63057, Control_c, 0, 64, 36
2,63114, Control_c, 0, 64, 37
2,63129, Note_on_c, 0, 64, 0
2,63134, Control_c, 0, 64, 37
2,63150, Note_on_c, 0, 49, 0
2,63153, Control_c, 0, 64, 38
2,63191, Control_c, 0, 64, 39
2,63230, Control_c, 0, 64, 40
2,63249, Control_c, 0, 64, 42
2,63268, Control_c, 0, 64, 43
2,63288, Control_c, 0, 64, 43
2,63307, Control_c, 0, 64, 44
2,63326, Control_c, 0, 64, 44
2,63338, Note_on_c, 0, 70, 0
2,63388, Note_on_c, 0, 49, 63
2,63536, Control_c, 0, 64, 45
2,63555, Control_c, 0, 64, 45
2,63632, Control_c, 0, 64, 46
2,63632, Note_on_c, 0, 49, 0
2,63652, Control_c, 0, 64, 46
2,63690, Control_c, 0, 64, 47
2,63709, Control_c, 0, 64, 48
2,63728, Control_c, 0, 64, 49
2,63863, Control_c, 0, 64, 48
2,63882, Control_c, 0, 64, 44
2,63885, Note_on_c, 0, 63, 47
2,63885, Note_on_c, 0, 67, 48
2,63893, Note_on_c, 0, 51, 45
2,63901, Control_c, 0, 64, 35
2,63920, Control_c, 0, 64, 21
2,63939, Control_c, 0, 64, 9
2,64035, Control_c, 0, 64, 22
2,64055, Control_c, 0, 64, 35
2,64073, Control_c, 0, 64, 42
2,64093, Control_c, 0, 64, 48
2,64112, Control_c, 0, 64, 50
2,64125, Note_on_c, 0, 51, 0
2,64132, Control_c, 0, 64, 52
2,64150, Control_c, 0, 64, 53
2,64170, Control_c, 0, 64, 55
2,64189, Control_c, 0, 64, 55
2,64254, Note_on_c, 0, 63, 0
2,64324, Control_c, 0, 64, 56
2,64356, Note_on_c, 0, 67, 0
2,64374, Note_on_c, 0, 51, 52
2,64419, Control_c, 0, 64, 55
2,64438, Control_c, 0, 64, 55
2,64535, Control_c, 0, 64, 54
2,64553, Control_c, 0, 64, 54
2,64592, Control_c, 0, 64, 53
2,64612, Control_c, 0, 64, 53
2,64630, Control_c, 0, 64, 52
2,64650, Control_c, 0, 64, 51
2,64672, Note_on_c, 0, 51, 0
2,64688, Control_c, 0, 64, 51
2,64784, Control_c, 0, 64, 48
2,64804, Control_c, 0, 64, 32
2,64823, Control_c, 0, 64, 0
2,64876, Note_on_c, 0, 68, 54
2,64880, Note_on_c, 0, 44, 42
2,64891, Note_on_c, 0, 63, 43
2,64918, Control_c, 0, 64, 45
2,64938, Control_c, 0, 64, 61
2,64957, Control_c, 0, 64, 63
2,64976, Control_c, 0, 64, 64
2,64995, Control_c, 0, 64, 65
2,65015, Control_c, 0, 64, 66
2,65032, Note_on_c, 0, 63, 0
2,65033, Control_c, 0, 64, 68
2,65053, Control_c, 0, 64, 69
2,65072, Control_c, 0, 64, 70
2,65086, Note_on_c, 0, 68, 0
2,65090, Note_on_c, 0, 73, 0
2,65092, Control_c, 0, 64, 70
2,65110, Control_c, 0, 64, 71
2,65226, Control_c, 0, 64, 70
2,65284, Control_c, 0, 64, 70
2,65303, Control_c, 0, 64, 69
2,65304, Note_on_c, 0, 44, 0
2,65328, Note_on_c, 0, 46, 51
2,65333, Note_on_c, 0, 79, 69
2,65341, Control_c, 0, 64, 69
2,65437, Control_c, 0, 64, 68
2,65495, Control_c, 0, 64, 68
2,65572, Control_c, 0, 64, 67
2,65576, Note_on_c, 0, 46, 0
2,65629, Control_c, 0, 64, 67
2,65648, Control_c, 0, 64, 66
2,65667, Control_c, 0, 64, 66
2,65687, Control_c, 0, 64, 65
2,65706, Control_c, 0, 64, 65
2,65725, Control_c, 0, 64, 64
2,65815, Note_on_c, 0, 80, 56
2,65816, Note_on_c, 0, 56, 68
2,65838, Note_on_c, 0, 47, 50
2,65865, Note_on_c, 0, 79, 0
2,65878, Control_c, 0, 64, 62
2,65898, Control_c, 0, 64, 54
2,65917, Control_c, 0, 64, 34
2,65936, Control_c, 0, 64, 15
2,65955, Control_c, 0, 64, 13
2,65975, Control_c, 0, 64, 25
2,65993, Control_c, 0, 64, 42
2,66013, Control_c, 0, 64, 52
2,66032, Control_c, 0, 64, 58
2,66052, Control_c, 0, 64, 61
2,66070, Control_c, 0, 64, 62
2,66090, Control_c, 0, 64, 63
2,66128, Control_c, 0, 64, 63
2,66257, Note_on_c, 0, 47, 0
2,66280, Control_c, 0, 64, 64
2,66288, Note_on_c, 0, 71, 42
2,66293, Note_on_c, 0, 49, 49
2,66300, Control_c, 0, 64, 64
2,66319, Control_c, 0, 64, 65
2,66396, Control_c, 0, 64, 65
2,66399, Note_on_c, 0, 49, 0
2,66640, Note_on_c, 0, 80, 0
2,66723, Control_c, 0, 64, 66
2,66755, Note_on_c, 0, 70, 51
2,66760, Control_c, 0, 64, 64
2,66764, Note_on_c, 0, 55, 46
2,66767, Note_on_c, 0, 51, 43
2,66775, Note_on_c, 0, 56, 0
2,66780, Control_c, 0, 64, 59
2,66799, Control_c, 0, 64, 53
2,66804, Note_on_c, 0, 71, 0
2,66818, Control_c, 0, 64, 50
2,66837, Control_c, 0, 64, 51
2,66857, Control_c, 0, 64, 57
2,66876, Control_c, 0, 64, 61
2,66895, Control_c, 0, 64, 63
2,66914, Control_c, 0, 64, 63
2,66952, Control_c, 0, 64, 64
2,67124, Note_on_c, 0, 51, 0
2,67183, Control_c, 0, 64, 63
2,67203, Control_c, 0, 64, 61
2,67222, Control_c, 0, 64, 48
2,67224, Note_on_c, 0, 79, 60
2,67230, Note_on_c, 0, 56, 61
2,67240, Control_c, 0, 64, 0
2,67296, Note_on_c, 0, 55, 0
2,67338, Control_c, 0, 64, 34
2,67357, Control_c, 0, 64, 56
2,67376, Control_c, 0, 64, 61
2,67395, Control_c, 0, 64, 63
2,67415, Control_c, 0, 64, 64
2,67455, Note_on_c, 0, 58, 75
2,67492, Control_c, 0, 64, 63
2,67533, Note_on_c, 0, 56, 0
2,67568, Control_c, 0, 64, 63
2,67574, Note_on_c, 0, 70, 0
2,67626, Control_c, 0, 64, 63
2,67645, Control_c, 0, 64, 64
2,67664, Note_on_c, 0, 58, 0
2,67684, Control_c, 0, 64, 61
2,67703, Control_c, 0, 64, 43
2,67720, Note_on_c, 0, 59, 69
2,67721, Control_c, 0, 64, 0
2,67726, Note_on_c, 0, 80, 64
2,67759, Note_on_c, 0, 79, 0
2,67818, Control_c, 0, 64, 54
2,67837, Control_c, 0, 64, 58
2,67856, Control_c, 0, 64, 59
2,67875, Control_c, 0, 64, 61
2,67895, Control_c, 0, 64, 63
2,67913, Control_c, 0, 64, 64
2,68087, Control_c, 0, 64, 65
2,68121, Note_on_c, 0, 80, 0
2,68139, Note_on_c, 0, 59, 0
2,68145, Control_c, 0, 64, 65
2,68165, Control_c, 0, 64, 66
2,68197, Note_on_c, 0, 73, 60
2,68210, Note_on_c, 0, 58, 52
2,68222, Control_c, 0, 64, 64
2,68223, Note_on_c, 0, 67, 33
2,68225, Note_on_c, 0, 51, 47
2,68241, Control_c, 0, 64, 57
2,68260, Control_c, 0, 64, 35
2,68278, Control_c, 0, 64, 0
2,68335, Control_c, 0, 64, 44
2,68354, Control_c, 0, 64, 60
2,68374, Control_c, 0, 64, 62
2,68392, Control_c, 0, 64, 63
2,68394, Note_on_c, 0, 67, 0
2,68412, Control_c, 0, 64, 63
2,68431, Control_c, 0, 64, 64
2,68451, Control_c, 0, 64, 65
2,68489, Control_c, 0, 64, 65
2,68542, Note_on_c, 0, 51, 0
2,68604, Control_c, 0, 64, 66
2,68623, Control_c, 0, 64, 67
2,68643, Control_c, 0, 64, 68
2,68662, Control_c, 0, 64, 63
2,68679, Note_on_c, 0, 56, 62
2,68680, Control_c, 0, 64, 47
2,68685, Note_on_c, 0, 71, 55
2,68697, Note_on_c, 0, 68, 44
2,68700, Control_c, 0, 64, 19
2,68700, Note_on_c, 0, 58, 0
2,68704, Note_on_c, 0, 53, 53
2,68711, Note_on_c, 0, 73, 0
2,68719, Control_c, 0, 64, 0
2,68738, Control_c, 0, 64, 11
2,68757, Control_c, 0, 64, 36
2,68777, Control_c, 0, 64, 52
2,68796, Control_c, 0, 64, 59
2,68815, Control_c, 0, 64, 62
2,68834, Control_c, 0, 64, 64
2,68854, Control_c, 0, 64, 64
2,68892, Control_c, 0, 64, 65
2,68938, Note_on_c, 0, 68, 0
2,69046, Control_c, 0, 64, 66
2,69065, Control_c, 0, 64, 67
2,69068, Note_on_c, 0, 53, 0
2,69084, Control_c, 0, 64, 70
2,69105, Control_c, 0, 64, 71
2,69125, Control_c, 0, 64, 67
2,69143, Control_c, 0, 64, 55
2,69163, Control_c, 0, 64, 20
2,69167, Note_on_c, 0, 62, 64
2,69182, Control_c, 0, 64, 0
2,69182, Note_on_c, 0, 80, 66
2,69194, Note_on_c, 0, 56, 0
2,69220, Control_c, 0, 64, 43
2,69229, Note_on_c, 0, 71, 0
2,69237, Control_c, 0, 64, 62
2,69257, Control_c, 0, 64, 66
2,69276, Control_c, 0, 64, 68
2,69295, Control_c, 0, 64, 70
2,69314, Control_c, 0, 64, 73
2,69334, Control_c, 0, 64, 77
2,69352, Control_c, 0, 64, 80
2,69372, Control_c, 0, 64, 81
2,69449, Control_c, 0, 64, 82
2,69468, Control_c, 0, 64, 83
2,69480, Note_on_c, 0, 80, 0
2,69483, Note_on_c, 0, 62, 0
2,69488, Control_c, 0, 64, 84
2,69506, Control_c, 0, 64, 85
2,69564, Control_c, 0, 64, 84
2,69583, Control_c, 0, 64, 83
2,69603, Control_c, 0, 64, 82
2,69622, Control_c, 0, 64, 80
2,69640, Control_c, 0, 64, 78
2,69660, Control_c, 0, 64, 77
2,69679, Control_c, 0, 64, 77
2,69683, Note_on_c, 0, 63, 61
2,69698, Control_c, 0, 64, 76
2,69700, Note_on_c, 0, 78, 53
2,69717, Control_c, 0, 64, 72
2,69718, Note_on_c, 0, 51, 41
2,69737, Control_c, 0, 64, 64
2,69756, Control_c, 0, 64, 57
2,69775, Control_c, 0, 64, 48
2,69794, Control_c, 0, 64, 42
2,69814, Control_c, 0, 64, 42
2,69832, Control_c, 0, 64, 44
2,69852, Control_c, 0, 64, 48
2,69871, Control_c, 0, 64, 51
2,69891, Control_c, 0, 64, 54
2,69909, Control_c, 0, 64, 56
2,69929, Control_c, 0, 64, 58
2,69948, Control_c, 0, 64, 59
2,70084, Control_c, 0, 64, 60
2,70103, Control_c, 0, 64, 61
2,70121, Control_c, 0, 64, 62
2,70141, Control_c, 0, 64, 61
2,70155, Note_on_c, 0, 63, 0
2,70160, Control_c, 0, 64, 55
2,70166, Note_on_c, 0, 54, 49
2,70168, Note_on_c, 0, 70, 52
2,70177, Note_on_c, 0, 66, 45
2,70177, Note_on_c, 0, 78, 0
2,70179, Control_c, 0, 64, 42
2,70197, Control_c, 0, 64, 18
2,70217, Control_c, 0, 64, 0
2,70236, Control_c, 0, 64, 13
2,70255, Control_c, 0, 64, 41
2,70274, Control_c, 0, 64, 54
2,70294, Control_c, 0, 64, 58
2,70312, Control_c, 0, 64, 60
2,70332, Control_c, 0, 64, 62
2,70351, Control_c, 0, 64, 63
2,70371, Control_c, 0, 64, 62
2,70409, Control_c, 0, 64, 62
2,70438, Note_on_c, 0, 70, 0
2,70448, Control_c, 0, 64, 61
2,70493, Note_on_c, 0, 66, 0
2,70543, Control_c, 0, 64, 62
2,70550, Note_on_c, 0, 54, 0
2,70620, Control_c, 0, 64, 59
2,70639, Control_c, 0, 64, 46
2,70652, Note_on_c, 0, 68, 54
2,70658, Control_c, 0, 64, 0
2,70658, Note_on_c, 0, 56, 59
2,70663, Note_on_c, 0, 65, 40
2,70735, Control_c, 0, 64, 44
2,70754, Control_c, 0, 64, 59
2,70774, Control_c, 0, 64, 63
2,70792, Control_c, 0, 64, 64
2,70838, Note_on_c, 0, 65, 0
2,70851, Control_c, 0, 64, 64
2,70891, Note_on_c, 0, 56, 0
2,70988, Note_on_c, 0, 68, 0
2,71120, Control_c, 0, 64, 63
2,71139, Control_c, 0, 64, 59
2,71141, Note_on_c, 0, 56, 63
2,71155, Note_on_c, 0, 78, 60
2,71157, Control_c, 0, 64, 47
2,71178, Control_c, 0, 64, 33
2,71197, Control_c, 0, 64, 27
2,71216, Control_c, 0, 64, 25
2,71255, Control_c, 0, 64, 30
2,71273, Control_c, 0, 64, 45
2,71293, Control_c, 0, 64, 59
2,71312, Control_c, 0, 64, 63
2,71332, Control_c, 0, 64, 63
2,71335, Note_on_c, 0, 51, 0
2,71365, Note_on_c, 0, 78, 0
2,71370, Control_c, 0, 64, 64
2,71389, Control_c, 0, 64, 64
2,71408, Control_c, 0, 64, 65
2,71561, Control_c, 0, 64, 65
2,71581, Control_c, 0, 64, 66
2,71600, Control_c, 0, 64, 66
2,71619, Control_c, 0, 64, 65
2,71625, Note_on_c, 0, 58, 55
2,71638, Control_c, 0, 64, 60
2,71639, Note_on_c, 0, 77, 58
2,71657, Note_on_c, 0, 56, 0
2,71658, Control_c, 0, 64, 42
2,71661, Note_on_c, 0, 50, 44
2,71677, Control_c, 0, 64, 28
2,71696, Control_c, 0, 64, 25
2,71715, Control_c, 0, 64, 31
2,71735, Control_c, 0, 64, 51
2,71753, Control_c, 0, 64, 62
2,71773, Control_c, 0, 64, 65
2,71792, Control_c, 0, 64, 66
2,71850, Control_c, 0, 64, 66
2,71907, Control_c, 0, 64, 66
2,71909, Note_on_c, 0, 58, 0
2,71914, Note_on_c, 0, 77, 0
2,71984, Control_c, 0, 64, 66
2,72004, Control_c, 0, 64, 67
2,72023, Control_c, 0, 64, 68
2,72041, Control_c, 0, 64, 70
2,72061, Control_c, 0, 64, 73
2,72080, Control_c, 0, 64, 74
2,72099, Control_c, 0, 64, 71
2,72118, Control_c, 0, 64, 64
2,72138, Control_c, 0, 64, 47
2,72139, Note_on_c, 0, 58, 46
2,72143, Note_on_c, 0, 68, 50
2,72157, Control_c, 0, 64, 32
2,72162, Note_on_c, 0, 65, 38
2,72176, Control_c, 0, 64, 29
2,72195, Control_c, 0, 64, 38
2,72215, Control_c, 0, 64, 61
2,72233, Control_c, 0, 64, 66
2,72253, Control_c, 0, 64, 70
2,72272, Control_c, 0, 64, 73
2,72291, Note_on_c, 0, 68, 0
2,72292, Control_c, 0, 64, 77
2,72310, Control_c, 0, 64, 80
2,72328, Note_on_c, 0, 65, 0
2,72330, Control_c, 0, 64, 81
2,72407, Control_c, 0, 64, 81
2,72426, Control_c, 0, 64, 80
2,72464, Control_c, 0, 64, 80
2,72484, Control_c, 0, 64, 79
2,72503, Control_c, 0, 64, 78
2,72521, Control_c, 0, 64, 76
2,72541, Control_c, 0, 64, 74
2,72560, Control_c, 0, 64, 72
2,72579, Control_c, 0, 64, 71
2,72598, Control_c, 0, 64, 71
2,72618, Control_c, 0, 64, 70
2,72642, Note_on_c, 0, 66, 51
2,72648, Note_on_c, 0, 51, 42
2,72656, Control_c, 0, 64, 70
2,72689, Note_on_c, 0, 50, 0
2,72695, Control_c, 0, 64, 69
2,72713, Control_c, 0, 64, 69
2,72752, Control_c, 0, 64, 68
2,72755, Note_on_c, 0, 58, 0
2,72772, Control_c, 0, 64, 65
2,72790, Control_c, 0, 64, 58
2,72810, Control_c, 0, 64, 39
2,72829, Control_c, 0, 64, 0
2,72906, Control_c, 0, 64, 24
2,72925, Control_c, 0, 64, 42
2,72945, Control_c, 0, 64, 54
2,72965, Control_c, 0, 64, 59
2,72983, Control_c, 0, 64, 60
2,73022, Control_c, 0, 64, 60
2,73041, Control_c, 0, 64, 61
2,73060, Control_c, 0, 64, 62
2,73097, Control_c, 0, 64, 63
2,73135, Control_c, 0, 64, 63
2,73146, Note_on_c, 0, 63, 56
2,73150, Note_on_c, 0, 53, 39
2,73154, Control_c, 0, 64, 64
2,73174, Control_c, 0, 64, 64
2,73269, Control_c, 0, 64, 65
2,73353, Note_on_c, 0, 53, 0
2,73373, Note_on_c, 0, 66, 0
2,73384, Note_on_c, 0, 62, 69
2,73401, Note_on_c, 0, 51, 0
2,73437, Note_on_c, 0, 63, 0
2,73462, Control_c, 0, 64, 64
2,73519, Control_c, 0, 64, 64
2,73557, Control_c, 0, 64, 63
2,73577, Control_c, 0, 64, 63
2,73596, Control_c, 0, 64, 62
2,73615, Control_c, 0, 64, 61
2,73639, Note_on_c, 0, 63, 67
2,73673, Control_c, 0, 64, 61
2,73679, Note_on_c, 0, 54, 41
2,73694, Note_on_c, 0, 62, 0
2,73711, Control_c, 0, 64, 60
2,73788, Control_c, 0, 64, 60
2,73808, Control_c, 0, 64, 59
2,73826, Control_c, 0, 64, 59
2,73846, Control_c, 0, 64, 58
2,73884, Control_c, 0, 64, 58
2,73885, Note_on_c, 0, 39, 56
2,73943, Control_c, 0, 64, 57
2,74020, Control_c, 0, 64, 57
2,74119, Note_on_c, 0, 40, 60
2,74230, Note_on_c, 0, 39, 0
2,74250, Control_c, 0, 64, 56
2,74307, Control_c, 0, 64, 55
2,74327, Control_c, 0, 64, 54
2,74328, Note_on_c, 0, 42, 61
2,74346, Control_c, 0, 64, 54
2,74365, Control_c, 0, 64, 53
2,74366, Note_on_c, 0, 40, 0
2,74384, Control_c, 0, 64, 52
2,74404, Control_c, 0, 64, 51
2,74423, Control_c, 0, 64, 49
2,74441, Control_c, 0, 64, 47
2,74461, Control_c, 0, 64, 45
2,74480, Control_c, 0, 64, 42
2,74499, Control_c, 0, 64, 38
2,74518, Control_c, 0, 64, 27
2,74538, Control_c, 0, 64, 0
2,74586, Note_on_c, 0, 60, 62
2,74599, Note_on_c, 0, 42, 0
2,74613, Note_on_c, 0, 44, 49
2,74672, Control_c, 0, 64, 24
2,74672, Note_on_c, 0, 63, 0
2,74692, Control_c, 0, 64, 59
2,74710, Control_c, 0, 64, 63
2,74718, Note_on_c, 0, 54, 0
2,74730, Control_c, 0, 64, 66
2,74749, Control_c, 0, 64, 68
2,74767, Note_on_c, 0, 44, 0
2,74768, Control_c, 0, 64, 71
2,74787, Control_c, 0, 64, 73
2,74807, Control_c, 0, 64, 75
2,74826, Control_c, 0, 64, 79
2,74845, Control_c, 0, 64, 83
2,74845, Note_on_c, 0, 60, 0
2,74864, Control_c, 0, 64, 86
2,74884, Control_c, 0, 64, 87
2,74903, Control_c, 0, 64, 88
2,74921, Control_c, 0, 64, 90
2,74941, Control_c, 0, 64, 91
2,75037, Control_c, 0, 64, 91
2,75056, Control_c, 0, 64, 90
2,75095, Note_on_c, 0, 61, 63
2,75099, Note_on_c, 0, 52, 41
2,75106, Note_on_c, 0, 49, 50
2,75113, Control_c, 0, 64, 89
2,75133, Control_c, 0, 64, 88
2,75152, Control_c, 0, 64, 85
2,75172, Control_c, 0, 64, 83
2,75190, Control_c, 0, 64, 82
2,75210, Control_c, 0, 64, 80
2,75229, Control_c, 0, 64, 78
2,75248, Control_c, 0, 64, 74
2,75267, Control_c, 0, 64, 71
2,75287, Control_c, 0, 64, 69
2,75306, Control_c, 0, 64, 69
2,75325, Control_c, 0, 64, 68
2,75335, Note_on_c, 0, 63, 70
2,75342, Note_on_c, 0, 54, 55
2,75344, Control_c, 0, 64, 68
2,75364, Control_c, 0, 64, 67
2,75383, Control_c, 0, 64, 66
2,75440, Control_c, 0, 64, 65
2,75459, Control_c, 0, 64, 64
2,75478, Control_c, 0, 64, 64
2,75479, Note_on_c, 0, 52, 0
2,75509, Note_on_c, 0, 61, 0
2,75555, Control_c, 0, 64, 63
2,75610, Note_on_c, 0, 64, 71
2,75613, Control_c, 0, 64, 62
2,75619, Note_on_c, 0, 54, 0
2,75620, Note_on_c, 0, 56, 56
2,75632, Control_c, 0, 64, 57
2,75639, Note_on_c, 0, 63, 0
2,75652, Control_c, 0, 64, 23
2,75670, Control_c, 0, 64, 0
2,75747, Control_c, 0, 64, 42
2,75757, Note_on_c, 0, 49, 0
2,75767, Control_c, 0, 64, 62
2,75786, Control_c, 0, 64, 66
2,75805, Control_c, 0, 64, 68
2,75824, Control_c, 0, 64, 68
2,75893, Note_on_c, 0, 64, 0
2,75901, Control_c, 0, 64, 68
2,75920, Control_c, 0, 64, 67
2,75939, Control_c, 0, 64, 66
2,75979, Control_c, 0, 64, 66
2,76017, Control_c, 0, 64, 65
2,76074, Control_c, 0, 64, 65
2,76085, Note_on_c, 0, 63, 69
2,76094, Control_c, 0, 64, 64
2,76095, Note_on_c, 0, 55, 53
2,76109, Note_on_c, 0, 56, 0
2,76113, Control_c, 0, 64, 60
2,76113, Note_on_c, 0, 51, 44
2,76133, Control_c, 0, 64, 47
2,76151, Control_c, 0, 64, 0
2,76228, Control_c, 0, 64, 49
2,76248, Control_c, 0, 64, 62
2,76267, Control_c, 0, 64, 63
2,76286, Control_c, 0, 64, 63
2,76305, Control_c, 0, 64, 63
2,76328, Note_on_c, 0, 56, 64
2,76362, Control_c, 0, 64, 63
2,76384, Note_on_c, 0, 63, 0
2,76439, Control_c, 0, 64, 62
2,76451, Note_on_c, 0, 55, 0
2,76458, Note_on_c, 0, 51, 0
2,76459, Control_c, 0, 64, 62
2,76574, Control_c, 0, 64, 60
2,76584, Note_on_c, 0, 61, 66
2,76593, Control_c, 0, 64, 55
2,76606, Note_on_c, 0, 58, 54
2,76613, Control_c, 0, 64, 0
2,76619, Note_on_c, 0, 56, 0
2,76621, Note_on_c, 0, 52, 48
2,76708, Control_c, 0, 64, 25
2,76728, Control_c, 0, 64, 57
2,76747, Control_c, 0, 64, 63
2,76837, Note_on_c, 0, 61, 0
2,76863, Control_c, 0, 64, 64
2,76996, Control_c, 0, 64, 63
2,77071, Note_on_c, 0, 67, 67
2,77073, Control_c, 0, 64, 63
2,77107, Note_on_c, 0, 56, 55
2,77137, Note_on_c, 0, 58, 0
2,77169, Control_c, 0, 64, 61
2,77188, Control_c, 0, 64, 54
2,77208, Control_c, 0, 64, 32
2,77227, Control_c, 0, 64, 0
2,77232, Note_on_c, 0, 52, 0
2,77285, Control_c, 0, 64, 43
2,77303, Control_c, 0, 64, 60
2,77317, Note_on_c, 0, 58, 63
2,77322, Control_c, 0, 64, 62
2,77361, Control_c, 0, 64, 62
2,77380, Control_c, 0, 64, 63
2,77399, Control_c, 0, 64, 63
2,77421, Note_on_c, 0, 56, 0
2,77437, Control_c, 0, 64, 63
2,77485, Note_on_c, 0, 58, 0
2,77514, Control_c, 0, 64, 62
2,77591, Control_c, 0, 64, 62
2,77594, Note_on_c, 0, 68, 68
2,77606, Note_on_c, 0, 59, 52
2,77611, Control_c, 0, 64, 58
2,77620, Note_on_c, 0, 51, 48
2,77630, Control_c, 0, 64, 44
2,77649, Control_c, 0, 64, 0
2,77654, Note_on_c, 0, 67, 0
2,77726, Control_c, 0, 64, 24
2,77745, Control_c, 0, 64, 53
2,77765, Control_c, 0, 64, 63
2,77783, Control_c, 0, 64, 66
2,77802, Control_c, 0, 64, 67
2,77822, Control_c, 0, 64, 68
2,77841, Control_c, 0, 64, 68
2,77845, Note_on_c, 0, 68, 0
2,77860, Control_c, 0, 64, 69
2,77935, Control_c, 0, 64, 68
2,77974, Control_c, 0, 64, 68
2,78012, Control_c, 0, 64, 67
2,78053, Control_c, 0, 64, 66
2,78065, Note_on_c, 0, 59, 0
2,78072, Control_c, 0, 64, 65
2,78087, Note_on_c, 0, 59, 43
2,78091, Control_c, 0, 64, 63
2,78111, Control_c, 0, 64, 61
2,78114, Note_on_c, 0, 56, 59
2,78130, Control_c, 0, 64, 52
2,78132, Note_on_c, 0, 51, 0
2,78149, Control_c, 0, 64, 36
2,78168, Control_c, 0, 64, 18
2,78188, Control_c, 0, 64, 9
2,78226, Control_c, 0, 64, 36
2,78245, Control_c, 0, 64, 57
2,78265, Control_c, 0, 64, 63
2,78303, Control_c, 0, 64, 63
2,78311, Note_on_c, 0, 59, 0
2,78341, Control_c, 0, 64, 63
2,78418, Control_c, 0, 64, 63
2,78457, Control_c, 0, 64, 62
2,78476, Control_c, 0, 64, 62
2,78514, Control_c, 0, 64, 61
2,78533, Control_c, 0, 64, 60
2,78552, Control_c, 0, 64, 60
2,78571, Control_c, 0, 64, 59
2,78582, Note_on_c, 0, 61, 63
2,78591, Control_c, 0, 64, 58
2,78600, Note_on_c, 0, 58, 49
2,78622, Note_on_c, 0, 49, 47
2,78629, Control_c, 0, 64, 58
2,78648, Control_c, 0, 64, 57
2,78668, Control_c, 0, 64, 57
2,78686, Control_c, 0, 64, 56
2,78692, Note_on_c, 0, 56, 0
2,78707, Control_c, 0, 64, 55
2,78726, Control_c, 0, 64, 55
2,78764, Control_c, 0, 64, 54
2,78784, Control_c, 0, 64, 53
2,78796, Note_on_c, 0, 61, 0
2,78822, Control_c, 0, 64, 53
2,78917, Control_c, 0, 64, 52
2,78937, Control_c, 0, 64, 52
2,78956, Control_c, 0, 64, 51
2,78974, Control_c, 0, 64, 51
2,79061, Note_on_c, 0, 58, 0
2,79061, Note_on_c, 0, 61, 57
2,79109, Control_c, 0, 64, 51
2,79166, Control_c, 0, 64, 52
2,79186, Control_c, 0, 64, 54
2,79205, Control_c, 0, 64, 57
2,79225, Control_c, 0, 64, 58
2,79282, Control_c, 0, 64, 59
2,79294, Note_on_c, 0, 61, 0
2,79359, Control_c, 0, 64, 58
2,79397, Control_c, 0, 64, 58
2,79436, Control_c, 0, 64, 57
2,79493, Control_c, 0, 64, 57
2,79512, Control_c, 0, 64, 56
2,79531, Control_c, 0, 64, 56
2,79551, Control_c, 0, 64, 55
2,79574, Note_on_c, 0, 63, 57
2,79589, Control_c, 0, 64, 55
2,79609, Note_on_c, 0, 55, 38
2,79685, Control_c, 0, 64, 54
2,79723, Control_c, 0, 64, 54
2,79743, Control_c, 0, 64, 53
2,79762, Control_c, 0, 64, 53
2,79781, Control_c, 0, 64, 52
2,79800, Note_on_c, 0, 63, 0
2,79839, Control_c, 0, 64, 52
2,80011, Control_c, 0, 64, 52
2,80022, Note_on_c, 0, 55, 0
2,80050, Control_c, 0, 64, 53
2,80061, Note_on_c, 0, 63, 60
2,80088, Control_c, 0, 64, 53
2,80108, Control_c, 0, 64, 54
2,80126, Control_c, 0, 64, 56
2,80146, Control_c, 0, 64, 56
2,80185, Control_c, 0, 64, 57
2,80203, Control_c, 0, 64, 58
2,80223, Control_c, 0, 64, 59
2,80252, Note_on_c, 0, 63, 0
2,80396, Control_c, 0, 64, 59
2,80491, Control_c, 0, 64, 58
2,80530, Control_c, 0, 64, 58
2,80549, Control_c, 0, 64, 57
2,80560, Note_on_c, 0, 56, 53
2,80568, Control_c, 0, 64, 56
2,80588, Control_c, 0, 64, 52
2,80606, Control_c, 0, 64, 45
2,80626, Control_c, 0, 64, 39
2,80645, Control_c, 0, 64, 39
2,80683, Control_c, 0, 64, 42
2,80703, Control_c, 0, 64, 46
2,80722, Control_c, 0, 64, 49
2,80741, Control_c, 0, 64, 54
2,80760, Control_c, 0, 64, 57
2,80781, Control_c, 0, 64, 57
2,80800, Control_c, 0, 64, 58
2,80819, Control_c, 0, 64, 58
2,80858, Control_c, 0, 64, 59
2,81062, Note_on_c, 0, 67, 48
2,81069, Control_c, 0, 64, 58
2,81101, Note_on_c, 0, 47, 45
2,81107, Control_c, 0, 64, 57
2,81126, Control_c, 0, 64, 55
2,81146, Control_c, 0, 64, 51
2,81164, Control_c, 0, 64, 49
2,81167, Note_on_c, 0, 49, 0
2,81203, Control_c, 0, 64, 51
2,81222, Control_c, 0, 64, 53
2,81241, Control_c, 0, 64, 55
2,81261, Control_c, 0, 64, 56
2,81280, Control_c, 0, 64, 57
2,81282, Note_on_c, 0, 47, 0
2,81287, Note_on_c, 0, 46, 60
2,81299, Control_c, 0, 64, 58
2,81318, Control_c, 0, 64, 59
2,81433, Control_c, 0, 64, 59
2,81490, Control_c, 0, 64, 60
2,81529, Control_c, 0, 64, 57
2,81535, Note_on_c, 0, 47, 53
2,81540, Note_on_c, 0, 46, 0
2,81542, Note_on_c, 0, 68, 67
2,81549, Control_c, 0, 64, 49
2,81567, Control_c, 0, 64, 19
2,81568, Note_on_c, 0, 56, 0
2,81586, Control_c, 0, 64, 0
2,81655, Note_on_c, 0, 67, 0
2,81682, Control_c, 0, 64, 29
2,81701, Control_c, 0, 64, 48
2,81720, Control_c, 0, 64, 55
2,81739, Control_c, 0, 64, 56
2,81756, Note_on_c, 0, 44, 60
2,81758, Control_c, 0, 64, 57
2,81777, Control_c, 0, 64, 58
2,81790, Note_on_c, 0, 47, 0
2,81796, Control_c, 0, 64, 59
2,81815, Control_c, 0, 64, 60
2,81873, Control_c, 0, 64, 60
2,81911, Control_c, 0, 64, 61
2,81969, Control_c, 0, 64, 61
2,81988, Control_c, 0, 64, 62
2,81991, Note_on_c, 0, 44, 0
2,82027, Control_c, 0, 64, 59
2,82029, Note_on_c, 0, 50, 53
2,82029, Note_on_c, 0, 59, 60
2,82045, Control_c, 0, 64, 41
2,82065, Control_c, 0, 64, 0
2,82161, Control_c, 0, 64, 57
2,82181, Control_c, 0, 64, 64
2,82224, Note_on_c, 0, 50, 0
2,82238, Control_c, 0, 64, 65
2,82257, Control_c, 0, 64, 67
2,82276, Control_c, 0, 64, 68
2,82468, Control_c, 0, 64, 67
2,82487, Control_c, 0, 64, 67
2,82507, Control_c, 0, 64, 66
2,82510, Note_on_c, 0, 58, 59
2,82516, Note_on_c, 0, 51, 55
2,82525, Control_c, 0, 64, 66
2,82564, Control_c, 0, 64, 65
2,82584, Control_c, 0, 64, 65
2,82641, Control_c, 0, 64, 64
2,82661, Control_c, 0, 64, 63
2,82674, Note_on_c, 0, 59, 0
2,82699, Control_c, 0, 64, 63
2,82718, Control_c, 0, 64, 62
2,82729, Note_on_c, 0, 68, 0
2,82737, Control_c, 0, 64, 62
2,82756, Control_c, 0, 64, 61
2,82795, Control_c, 0, 64, 60
2,82852, Control_c, 0, 64, 60
2,82871, Control_c, 0, 64, 59
2,82890, Control_c, 0, 64, 58
2,82910, Control_c, 0, 64, 56
2,82929, Control_c, 0, 64, 54
2,82948, Control_c, 0, 64, 50
2,82967, Control_c, 0, 64, 47
2,82987, Control_c, 0, 64, 45
2,82991, Note_on_c, 0, 66, 58
2,82994, Note_on_c, 0, 56, 45
2,83005, Control_c, 0, 64, 45
2,83064, Control_c, 0, 64, 47
2,83076, Note_on_c, 0, 58, 0
2,83082, Control_c, 0, 64, 50
2,83102, Control_c, 0, 64, 52
2,83121, Control_c, 0, 64, 54
2,83141, Control_c, 0, 64, 56
2,83159, Control_c, 0, 64, 58
2,83179, Control_c, 0, 64, 59
2,83198, Control_c, 0, 64, 60
2,83205, Note_on_c, 0, 65, 65
2,83217, Control_c, 0, 64, 61
2,83246, Note_on_c, 0, 66, 0
2,83293, Control_c, 0, 64, 61
2,83332, Control_c, 0, 64, 61
2,83349, Note_on_c, 0, 65, 0
2,83390, Control_c, 0, 64, 61
2,83428, Control_c, 0, 64, 61
2,83447, Control_c, 0, 64, 57
2,83447, Note_on_c, 0, 66, 66
2,83467, Control_c, 0, 64, 48
2,83470, Note_on_c, 0, 58, 53
2,83473, Note_on_c, 0, 56, 0
2,83485, Control_c, 0, 64, 35
2,83506, Control_c, 0, 64, 29
2,83525, Control_c, 0, 64, 28
2,83563, Control_c, 0, 64, 29
2,83583, Control_c, 0, 64, 39
2,83602, Control_c, 0, 64, 50
2,83621, Control_c, 0, 64, 56
2,83639, Control_c, 0, 64, 59
2,83659, Control_c, 0, 64, 60
2,83662, Note_on_c, 0, 63, 64
2,83678, Control_c, 0, 64, 62
2,83686, Note_on_c, 0, 66, 0
2,83697, Control_c, 0, 64, 62
2,83850, Control_c, 0, 64, 63
2,83870, Control_c, 0, 64, 63
2,83889, Control_c, 0, 64, 64
2,83908, Control_c, 0, 64, 63
2,83916, Note_on_c, 0, 69, 75
2,83927, Control_c, 0, 64, 57
2,83943, Note_on_c, 0, 60, 48
2,83947, Control_c, 0, 64, 38
2,83964, Note_on_c, 0, 58, 0
2,83965, Control_c, 0, 64, 0
2,83972, Note_on_c, 0, 63, 0
2,84062, Control_c, 0, 64, 27
2,84081, Control_c, 0, 64, 57
2,84101, Control_c, 0, 64, 65
2,84119, Control_c, 0, 64, 67
2,84177, Control_c, 0, 64, 68
2,84191, Note_on_c, 0, 69, 0
2,84215, Control_c, 0, 64, 68
2,84235, Control_c, 0, 64, 69
2,84253, Control_c, 0, 64, 69
2,84273, Control_c, 0, 64, 70
2,84292, Control_c, 0, 64, 71
2,84437, Note_on_c, 0, 70, 67
2,84439, Note_on_c, 0, 53, 48
2,84463, Note_on_c, 0, 60, 0
2,84466, Control_c, 0, 64, 70
2,84485, Control_c, 0, 64, 69
2,84505, Control_c, 0, 64, 67
2,84523, Control_c, 0, 64, 61
2,84543, Control_c, 0, 64, 41
2,84562, Control_c, 0, 64, 0
2,84619, Control_c, 0, 64, 38
2,84638, Control_c, 0, 64, 59
2,84657, Control_c, 0, 64, 64
2,84717, Note_on_c, 0, 53, 0
2,84733, Control_c, 0, 64, 64
2,84753, Control_c, 0, 64, 65
2,84783, Note_on_c, 0, 51, 0
2,84791, Control_c, 0, 64, 64
2,84868, Control_c, 0, 64, 64
2,84943, Note_on_c, 0, 63, 60
2,84949, Note_on_c, 0, 49, 52
2,85002, Control_c, 0, 64, 63
2,85022, Control_c, 0, 64, 63
2,85145, Note_on_c, 0, 48, 57
2,85195, Control_c, 0, 64, 62
2,85213, Control_c, 0, 64, 62
2,85213, Note_on_c, 0, 49, 0
2,85252, Control_c, 0, 64, 61
2,85310, Control_c, 0, 64, 62
2,85382, Note_on_c, 0, 65, 68
2,85387, Control_c, 0, 64, 59
2,85391, Note_on_c, 0, 48, 0
2,85395, Note_on_c, 0, 49, 53
2,85405, Control_c, 0, 64, 45
2,85425, Control_c, 0, 64, 0
2,85502, Control_c, 0, 64, 17
2,85521, Control_c, 0, 64, 41
2,85541, Control_c, 0, 64, 56
2,85559, Control_c, 0, 64, 61
2,85572, Note_on_c, 0, 63, 0
2,85580, Control_c, 0, 64, 62
2,85599, Note_on_c, 0, 46, 64
2,85621, Note_on_c, 0, 49, 0
2,85752, Control_c, 0, 64, 63
2,85771, Control_c, 0, 64, 63
2,85810, Control_c, 0, 64, 63
2,85823, Note_on_c, 0, 46, 0
2,85829, Control_c, 0, 64, 59
2,85840, Note_on_c, 0, 52, 55
2,85848, Control_c, 0, 64, 43
2,85849, Note_on_c, 0, 67, 67
2,85868, Control_c, 0, 64, 0
2,85938, Note_on_c, 0, 65, 0
2,85963, Control_c, 0, 64, 47
2,85983, Control_c, 0, 64, 65
2,86002, Control_c, 0, 64, 69
2,86021, Control_c, 0, 64, 72
2,86023, Note_on_c, 0, 52, 0
2,86040, Control_c, 0, 64, 73
2,86060, Control_c, 0, 64, 73
2,86174, Control_c, 0, 64, 74
2,86251, Control_c, 0, 64, 73
2,86271, Control_c, 0, 64, 73
2,86290, Control_c, 0, 64, 71
2,86309, Control_c, 0, 64, 70
2,86328, Control_c, 0, 64, 69
2,86332, Note_on_c, 0, 53, 59
2,86342, Note_on_c, 0, 60, 59
2,86348, Control_c, 0, 64, 68
2,86363, Note_on_c, 0, 70, 0
2,86366, Control_c, 0, 64, 68
2,86386, Control_c, 0, 64, 67
2,86405, Control_c, 0, 64, 66
2,86425, Control_c, 0, 64, 66
2,86437, Note_on_c, 0, 67, 0
2,86443, Control_c, 0, 64, 65
2,86463, Control_c, 0, 64, 64
2,86482, Control_c, 0, 64, 63
2,86501, Control_c, 0, 64, 62
2,86520, Control_c, 0, 64, 60
2,86539, Control_c, 0, 64, 58
2,86558, Control_c, 0, 64, 56
2,86576, Control_c, 0, 64, 54
2,86596, Control_c, 0, 64, 53
2,86615, Control_c, 0, 64, 53
2,86692, Control_c, 0, 64, 52
2,86802, Note_on_c, 0, 69, 66
2,86807, Control_c, 0, 64, 53
2,86813, Note_on_c, 0, 58, 48
2,86827, Control_c, 0, 64, 54
2,86845, Control_c, 0, 64, 56
2,86865, Control_c, 0, 64, 57
2,86922, Control_c, 0, 64, 58
2,86942, Control_c, 0, 64, 59
2,86961, Control_c, 0, 64, 61
2,86968, Note_on_c, 0, 60, 0
2,86999, Control_c, 0, 64, 60
2,87015, Note_on_c, 0, 67, 68
2,87019, Control_c, 0, 64, 61
2,87049, Note_on_c, 0, 69, 0
2,87056, Control_c, 0, 64, 61
2,87076, Control_c, 0, 64, 61
2,87172, Control_c, 0, 64, 61
2,87180, Note_on_c, 0, 67, 0
2,87249, Control_c, 0, 64, 59
2,87249, Note_on_c, 0, 69, 76
2,87268, Control_c, 0, 64, 48
2,87286, Note_on_c, 0, 60, 58
2,87287, Control_c, 0, 64, 0
2,87332, Note_on_c, 0, 58, 0
2,87422, Control_c, 0, 64, 47
2,87441, Control_c, 0, 64, 62
2,87459, Note_on_c, 0, 65, 69
2,87461, Control_c, 0, 64, 63
2,87463, Note_on_c, 0, 69, 0
2,87556, Control_c, 0, 64, 63
2,87671, Control_c, 0, 64, 63
2,87699, Note_on_c, 0, 65, 0
2,87704, Note_on_c, 0, 70, 78
2,87739, Note_on_c, 0, 61, 55
2,87748, Control_c, 0, 64, 63
2,87767, Control_c, 0, 64, 61
2,87769, Note_on_c, 0, 60, 0
2,87787, Control_c, 0, 64, 50
2,87805, Control_c, 0, 64, 0
2,87902, Control_c, 0, 64, 30
2,87921, Control_c, 0, 64, 60
2,87924, Note_on_c, 0, 70, 0
2,87941, Control_c, 0, 64, 65
2,87959, Control_c, 0, 64, 65
2,88016, Control_c, 0, 64, 66
2,88036, Control_c, 0, 64, 67
2,88055, Control_c, 0, 64, 67
2,88075, Control_c, 0, 64, 68
2,88093, Control_c, 0, 64, 68
2,88132, Control_c, 0, 64, 68
2,88170, Control_c, 0, 64, 67
2,88175, Note_on_c, 0, 61, 0
2,88185, Note_on_c, 0, 53, 0
2,88190, Control_c, 0, 64, 67
2,88203, Note_on_c, 0, 72, 74
2,88209, Control_c, 0, 64, 66
2,88228, Control_c, 0, 64, 65
2,88235, Note_on_c, 0, 63, 55
2,88247, Control_c, 0, 64, 64
2,88267, Control_c, 0, 64, 64
2,88285, Control_c, 0, 64, 63
2,88305, Control_c, 0, 64, 63
2,88324, Control_c, 0, 64, 62
2,88344, Control_c, 0, 64, 61
2,88362, Control_c, 0, 64, 61
2,88382, Control_c, 0, 64, 60
2,88439, Control_c, 0, 64, 60
2,88478, Control_c, 0, 64, 59
2,88555, Control_c, 0, 64, 59
2,88691, Note_on_c, 0, 51, 61
2,88785, Control_c, 0, 64, 59
2,88916, Note_on_c, 0, 49, 73
2,88958, Control_c, 0, 64, 60
2,89001, Note_on_c, 0, 51, 0
2,89100, Note_on_c, 0, 49, 0
2,89130, Control_c, 0, 64, 59
2,89146, Note_on_c, 0, 51, 69
2,89150, Control_c, 0, 64, 58
2,89169, Control_c, 0, 64, 49
2,89188, Control_c, 0, 64, 13
2,89207, Control_c, 0, 64, 0
2,89361, Control_c, 0, 64, 30
2,89367, Note_on_c, 0, 48, 74
2,89381, Control_c, 0, 64, 49
2,89399, Control_c, 0, 64, 60
2,89413, Note_on_c, 0, 51, 0
2,89420, Control_c, 0, 64, 62
2,89513, Control_c, 0, 64, 63
2,89532, Control_c, 0, 64, 63
2,89589, Control_c, 0, 64, 64
2,89603, Note_on_c, 0, 48, 0
2,89628, Control_c, 0, 64, 62
2,89631, Note_on_c, 0, 53, 77
2,89648, Control_c, 0, 64, 52
2,89666, Control_c, 0, 64, 0
2,89762, Control_c, 0, 64, 37
2,89782, Control_c, 0, 64, 66
2,89800, Control_c, 0, 64, 74
2,89820, Control_c, 0, 64, 85
2,89839, Control_c, 0, 64, 93
2,89839, Note_on_c, 0, 53, 0
2,89858, Control_c, 0, 64, 104
2,89877, Control_c, 0, 64, 127
2,90128, Control_c, 0, 64, 107
2,90146, Control_c, 0, 64, 101
2,90165, Control_c, 0, 64, 96
2,90185, Control_c, 0, 64, 92
2,90203, Control_c, 0, 64, 88
2,90204, Note_on_c, 0, 54, 77
2,90224, Control_c, 0, 64, 85
2,90243, Control_c, 0, 64, 85
2,90263, Control_c, 0, 64, 85
2,90281, Control_c, 0, 64, 85
2,90301, Control_c, 0, 64, 83
2,90320, Control_c, 0, 64, 79
2,90339, Control_c, 0, 64, 76
2,90356, Note_on_c, 0, 63, 0
2,90358, Control_c, 0, 64, 72
2,90372, Note_on_c, 0, 72, 0
2,90378, Control_c, 0, 64, 70
2,90397, Control_c, 0, 64, 68
2,90416, Control_c, 0, 64, 67
2,90435, Control_c, 0, 64, 66
2,90455, Control_c, 0, 64, 65
2,90493, Control_c, 0, 64, 64
2,90512, Control_c, 0, 64, 63
2,90532, Control_c, 0, 64, 62
2,90550, Control_c, 0, 64, 62
2,90570, Control_c, 0, 64, 61
2,90589, Control_c, 0, 64, 60
2,90608, Control_c, 0, 64, 59
2,90627, Control_c, 0, 64, 58
2,90647, Control_c, 0, 64, 58
2,90694, Note_on_c, 0, 61, 52
2,90699, Note_on_c, 0, 70, 70
2,90761, Control_c, 0, 64, 58
2,90781, Control_c, 0, 64, 59
2,90819, Control_c, 0, 64, 59
2,90838, Control_c, 0, 64, 60
2,90858, Control_c, 0, 64, 61
2,90935, Control_c, 0, 64, 61
2,90936, Note_on_c, 0, 69, 73
2,90938, Note_on_c, 0, 60, 55
2,90965, Note_on_c, 0, 70, 0
2,90991, Note_on_c, 0, 61, 0
2,91107, Control_c, 0, 64, 62
2,91146, Control_c, 0, 64, 61
2,91164, Control_c, 0, 64, 60
2,91177, Note_on_c, 0, 70, 79
2,91178, Note_on_c, 0, 60, 0
2,91184, Control_c, 0, 64, 56
2,91190, Note_on_c, 0, 61, 58
2,91203, Control_c, 0, 64, 52
2,91223, Control_c, 0, 64, 50
2,91241, Control_c, 0, 64, 51
2,91261, Control_c, 0, 64, 52
2,91280, Control_c, 0, 64, 55
2,91299, Control_c, 0, 64, 58
2,91317, Note_on_c, 0, 69, 0
2,91318, Control_c, 0, 64, 61
2,91338, Control_c, 0, 64, 65
2,91357, Control_c, 0, 64, 66
2,91394, Note_on_c, 0, 72, 82
2,91457, Note_on_c, 0, 70, 0
2,91549, Control_c, 0, 64, 65
2,91568, Control_c, 0, 64, 65
2,91626, Control_c, 0, 64, 64
2,91638, Note_on_c, 0, 73, 79
2,91664, Control_c, 0, 64, 64
2,91685, Note_on_c, 0, 58, 53
2,91703, Note_on_c, 0, 54, 0
2,91703, Note_on_c, 0, 72, 0
2,91779, Control_c, 0, 64, 63
2,91794, Note_on_c, 0, 61, 0
2,91818, Control_c, 0, 64, 63
2,91878, Note_on_c, 0, 53, 62
2,91895, Control_c, 0, 64, 62
2,91945, Note_on_c, 0, 58, 0
2,92087, Control_c, 0, 64, 60
2,92106, Control_c, 0, 64, 49
2,92113, Note_on_c, 0, 51, 62
2,92124, Control_c, 0, 64, 0
2,92173, Note_on_c, 0, 53, 0
2,92260, Control_c, 0, 64, 29
2,92278, Control_c, 0, 64, 54
2,92297, Control_c, 0, 64, 56
2,92332, Note_on_c, 0, 58, 51
2,92335, Control_c, 0, 64, 57
2,92354, Control_c, 0, 64, 60
2,92374, Control_c, 0, 64, 61
2,92393, Control_c, 0, 64, 60
2,92412, Control_c, 0, 64, 60
2,92431, Control_c, 0, 64, 59
2,92451, Control_c, 0, 64, 56
2,92469, Control_c, 0, 64, 47
2,92489, Control_c, 0, 64, 37
2,92508, Control_c, 0, 64, 37
2,92528, Control_c, 0, 64, 46
2,92546, Control_c, 0, 64, 60
2,92558, Note_on_c, 0, 58, 0
2,92563, Note_on_c, 0, 63, 51
2,92563, Note_on_c, 0, 72, 77
2,92565, Control_c, 0, 64, 65
2,92585, Control_c, 0, 64, 67
2,92603, Control_c, 0, 64, 69
2,92612, Note_on_c, 0, 73, 0
2,92642, Control_c, 0, 64, 69
2,92662, Control_c, 0, 64, 70
2,92663, Note_on_c, 0, 51, 0
2,92680, Control_c, 0, 64, 70
2,92700, Control_c, 0, 64, 71
2,92738, Control_c, 0, 64, 71
2,92783, Note_on_c, 0, 61, 53
2,92783, Note_on_c, 0, 70, 81
2,92784, Note_on_c, 0, 63, 0
2,92796, Control_c, 0, 64, 70
2,92815, Control_c, 0, 64, 70
2,92834, Control_c, 0, 64, 69
2,92854, Control_c, 0, 64, 69
2,92859, Note_on_c, 0, 72, 0
2,92873, Control_c, 0, 64, 68
2,92892, Control_c, 0, 64, 67
2,92911, Control_c, 0, 64, 66
2,92949, Control_c, 0, 64, 65
2,92969, Control_c, 0, 64, 65
2,92969, Note_on_c, 0, 61, 0
2,92984, Note_on_c, 0, 53, 40
2,92993, Note_on_c, 0, 60, 47
2,93045, Control_c, 0, 64, 64
2,93065, Control_c, 0, 64, 64
2,93083, Control_c, 0, 64, 60
2,93100, Note_on_c, 0, 75, 83
2,93105, Control_c, 0, 64, 46
2,93122, Note_on_c, 0, 69, 63
2,93124, Control_c, 0, 64, 0
2,93125, Note_on_c, 0, 70, 0
2,93220, Control_c, 0, 64, 13
2,93238, Control_c, 0, 64, 52
2,93258, Control_c, 0, 64, 63
2,93271, Note_on_c, 0, 69, 0
2,93277, Control_c, 0, 64, 64
2,93335, Control_c, 0, 64, 65
2,93353, Control_c, 0, 64, 65
2,93360, Note_on_c, 0, 70, 66
2,93362, Note_on_c, 0, 60, 0
2,93373, Control_c, 0, 64, 66
2,93383, Note_on_c, 0, 58, 39
2,93392, Control_c, 0, 64, 67
2,93412, Control_c, 0, 64, 68
2,93430, Control_c, 0, 64, 69
2,93450, Control_c, 0, 64, 70
2,93469, Control_c, 0, 64, 71
2,93488, Control_c, 0, 64, 73
2,93507, Control_c, 0, 64, 75
2,93526, Control_c, 0, 64, 76
2,93546, Control_c, 0, 64, 77
2,93564, Control_c, 0, 64, 77
2,93573, Note_on_c, 0, 60, 49
2,93584, Note_on_c, 0, 67, 48
2,93604, Note_on_c, 0, 60, 0
2,93608, Note_on_c, 0, 70, 0
2,93610, Note_on_c, 0, 58, 0
2,93629, Note_on_c, 0, 53, 0
2,93680, Control_c, 0, 64, 78
2,93773, Note_on_c, 0, 69, 65
2,93790, Note_on_c, 0, 67, 0
2,93805, Note_on_c, 0, 69, 0
2,93833, Control_c, 0, 64, 77
2,93846, Note_on_c, 0, 75, 0
2,93892, Control_c, 0, 64, 77
2,93910, Control_c, 0, 64, 76
2,93930, Control_c, 0, 64, 76
2,93949, Control_c, 0, 64, 75
2,93968, Control_c, 0, 64, 74
2,93987, Control_c, 0, 64, 74
2,93992, Note_on_c, 0, 46, 51
2,93996, Note_on_c, 0, 58, 48
2,94056, Note_on_c, 0, 74, 70
2,94074, Note_on_c, 0, 70, 49
2,94083, Control_c, 0, 64, 72
2,94103, Control_c, 0, 64, 66
2,94121, Control_c, 0, 64, 54
2,94141, Control_c, 0, 64, 29
2,94160, Control_c, 0, 64, 9
2,94193, Control_c, 0, 64, 32
2,94213, Control_c, 0, 64, 58
2,94232, Control_c, 0, 64, 63
2,94270, Control_c, 0, 64, 63
2,94290, Control_c, 0, 64, 64
2,94309, Control_c, 0, 64, 65
2,94328, Control_c, 0, 64, 66
2,94332, Note_on_c, 0, 46, 0
2,94366, Control_c, 0, 64, 65
2,94443, Control_c, 0, 64, 65
2,94504, Note_on_c, 0, 75, 75
2,94526, Note_on_c, 0, 58, 0
2,94532, Note_on_c, 0, 60, 51
2,94578, Control_c, 0, 64, 64
2,94597, Control_c, 0, 64, 64
2,94635, Control_c, 0, 64, 63
2,94713, Note_on_c, 0, 77, 79
2,94735, Note_on_c, 0, 62, 53
2,94746, Note_on_c, 0, 60, 0
2,94770, Control_c, 0, 64, 63
2,94777, Note_on_c, 0, 74, 0
2,94789, Control_c, 0, 64, 62
2,94793, Note_on_c, 0, 75, 0
2,94808, Control_c, 0, 64, 62
2,94827, Control_c, 0, 64, 61
2,94923, Control_c, 0, 64, 59
2,94943, Control_c, 0, 64, 54
2,94958, Note_on_c, 0, 62, 0
2,94961, Control_c, 0, 64, 39
2,94981, Control_c, 0, 64, 0
2,94986, Note_on_c, 0, 78, 78
2,94996, Note_on_c, 0, 63, 56
2,95031, Note_on_c, 0, 77, 0
2,95080, Control_c, 0, 64, 11
2,95100, Control_c, 0, 64, 60
2,95119, Control_c, 0, 64, 66
2,95138, Control_c, 0, 64, 66
2,95157, Control_c, 0, 64, 66
2,95195, Control_c, 0, 64, 66
2,95253, Control_c, 0, 64, 66
2,95260, Note_on_c, 0, 78, 0
2,95444, Control_c, 0, 64, 65
2,95464, Control_c, 0, 64, 60
2,95467, Note_on_c, 0, 77, 72
2,95482, Note_on_c, 0, 65, 48
2,95483, Control_c, 0, 64, 41
2,95502, Control_c, 0, 64, 0
2,95526, Note_on_c, 0, 63, 0
2,95579, Control_c, 0, 64, 42
2,95598, Control_c, 0, 64, 64
2,95618, Control_c, 0, 64, 66
2,95770, Note_on_c, 0, 77, 0
2,95828, Control_c, 0, 64, 66
2,95886, Control_c, 0, 64, 66
2,95924, Control_c, 0, 64, 67
2,95963, Control_c, 0, 64, 64
2,95970, Note_on_c, 0, 65, 0
2,95979, Note_on_c, 0, 75, 76
2,95982, Note_on_c, 0, 66, 52
2,95984, Control_c, 0, 64, 54
2,96003, Control_c, 0, 64, 0
2,96061, Control_c, 0, 64, 36
2,96080, Control_c, 0, 64, 62
2,96099, Control_c, 0, 64, 68
2,96118, Control_c, 0, 64, 72
2,96138, Control_c, 0, 64, 76
2,96152, Note_on_c, 0, 70, 0
2,96157, Control_c, 0, 64, 79
2,96176, Control_c, 0, 64, 79
2,96195, Control_c, 0, 64, 80
2,96230, Note_on_c, 0, 75, 0
2,96253, Control_c, 0, 64, 79
2,96272, Control_c, 0, 64, 79
2,96310, Control_c, 0, 64, 78
2,96330, Control_c, 0, 64, 77
2,96368, Control_c, 0, 64, 77
2,96387, Control_c, 0, 64, 76
2,96406, Control_c, 0, 64, 76
2,96464, Control_c, 0, 64, 77
2,96483, Control_c, 0, 64, 79
2,96503, Control_c, 0, 64, 81
2,96503, Note_on_c, 0, 81, 83
2,96521, Control_c, 0, 64, 79
2,96535, Note_on_c, 0, 72, 55
2,96541, Control_c, 0, 64, 68
2,96560, Control_c, 0, 64, 50
2,96579, Control_c, 0, 64, 25
2,96598, Control_c, 0, 64, 19
2,96618, Control_c, 0, 64, 36
2,96637, Control_c, 0, 64, 59
2,96656, Control_c, 0, 64, 66
2,96675, Control_c, 0, 64, 69
2,96695, Control_c, 0, 64, 71
2,96713, Control_c, 0, 64, 72
2,96728, Note_on_c, 0, 72, 0
2,96733, Control_c, 0, 64, 73
2,96752, Control_c, 0, 64, 73
2,96772, Control_c, 0, 64, 74
2,96829, Control_c, 0, 64, 73
2,96942, Control_c, 0, 64, 74
2,96961, Control_c, 0, 64, 75
2,96981, Control_c, 0, 64, 77
2,96989, Note_on_c, 0, 82, 79
2,96999, Control_c, 0, 64, 78
2,97017, Note_on_c, 0, 73, 48
2,97019, Control_c, 0, 64, 71
2,97038, Control_c, 0, 64, 61
2,97043, Note_on_c, 0, 81, 0
2,97058, Control_c, 0, 64, 46
2,97076, Control_c, 0, 64, 44
2,97096, Control_c, 0, 64, 51
2,97115, Control_c, 0, 64, 61
2,97134, Control_c, 0, 64, 65
2,97151, Note_on_c, 0, 73, 0
2,97153, Control_c, 0, 64, 66
2,97171, Note_on_c, 0, 82, 0
2,97173, Control_c, 0, 64, 67
2,97218, Note_on_c, 0, 66, 0
2,97235, Note_on_c, 0, 68, 62
2,97268, Control_c, 0, 64, 66
2,97288, Control_c, 0, 64, 66
2,97345, Control_c, 0, 64, 66
2,97384, Control_c, 0, 64, 67
2,97403, Control_c, 0, 64, 67
2,97441, Control_c, 0, 64, 66
2,97461, Control_c, 0, 64, 63
2,97461, Note_on_c, 0, 73, 74
2,97479, Control_c, 0, 64, 55
2,97485, Note_on_c, 0, 66, 54
2,97493, Note_on_c, 0, 68, 0
2,97493, Note_on_c, 0, 70, 51
2,97499, Control_c, 0, 64, 44
2,97518, Control_c, 0, 64, 43
2,97538, Control_c, 0, 64, 49
2,97556, Control_c, 0, 64, 61
2,97576, Control_c, 0, 64, 65
2,97595, Control_c, 0, 64, 67
2,97614, Control_c, 0, 64, 69
2,97622, Note_on_c, 0, 70, 0
2,97633, Control_c, 0, 64, 69
2,97674, Note_on_c, 0, 66, 0
2,97677, Note_on_c, 0, 73, 0
2,97679, Note_on_c, 0, 65, 61
2,97710, Control_c, 0, 64, 68
2,97730, Control_c, 0, 64, 68
2,97767, Control_c, 0, 64, 67
2,97825, Control_c, 0, 64, 67
2,97864, Control_c, 0, 64, 66
2,97883, Control_c, 0, 64, 66
2,97903, Control_c, 0, 64, 65
2,97922, Control_c, 0, 64, 65
2,97929, Note_on_c, 0, 75, 67
2,97938, Note_on_c, 0, 71, 51
2,97958, Note_on_c, 0, 63, 51
2,97960, Control_c, 0, 64, 64
2,97999, Control_c, 0, 64, 64
2,98032, Note_on_c, 0, 65, 0
2,98035, Control_c, 0, 64, 63
2,98055, Control_c, 0, 64, 63
2,98074, Control_c, 0, 64, 62
2,98093, Control_c, 0, 64, 61
2,98112, Control_c, 0, 64, 61
2,98132, Control_c, 0, 64, 60
2,98147, Note_on_c, 0, 75, 0
2,98184, Note_on_c, 0, 61, 61
2,98189, Control_c, 0, 64, 60
2,98201, Note_on_c, 0, 63, 0
2,98323, Control_c, 0, 64, 59
2,98343, Control_c, 0, 64, 58
2,98393, Note_on_c, 0, 75, 70
2,98401, Note_on_c, 0, 61, 0
2,98420, Control_c, 0, 64, 59
2,98428, Note_on_c, 0, 59, 58
2,98573, Control_c, 0, 64, 59
2,98612, Control_c, 0, 64, 60
2,98622, Note_on_c, 0, 58, 56
2,98642, Note_on_c, 0, 75, 0
2,98650, Control_c, 0, 64, 60
2,98708, Control_c, 0, 64, 60
2,98709, Note_on_c, 0, 59, 0
2,98746, Control_c, 0, 64, 59
2,98765, Control_c, 0, 64, 59
2,98868, Note_on_c, 0, 77, 76
2,98870, Note_on_c, 0, 56, 57
2,98882, Control_c, 0, 64, 58
2,98892, Note_on_c, 0, 58, 0
2,98902, Control_c, 0, 64, 58
2,98920, Control_c, 0, 64, 57
2,98940, Control_c, 0, 64, 56
2,98959, Control_c, 0, 64, 54
2,98978, Control_c, 0, 64, 52
2,98995, Control_c, 0, 64, 49
2,99016, Control_c, 0, 64, 47
2,99035, Control_c, 0, 64, 45
2,99083, Note_on_c, 0, 58, 57
2,99127, Note_on_c, 0, 77, 0
2,99148, Note_on_c, 0, 56, 0
2,99207, Control_c, 0, 64, 45
2,99227, Control_c, 0, 64, 42
2,99246, Control_c, 0, 64, 39
2,99265, Control_c, 0, 64, 37
2,99337, Note_on_c, 0, 77, 70
2,99342, Control_c, 0, 64, 38
2,99344, Note_on_c, 0, 58, 0
2,99352, Note_on_c, 0, 59, 58
2,99361, Control_c, 0, 64, 44
2,99381, Control_c, 0, 64, 56
2,99399, Control_c, 0, 64, 63
2,99419, Control_c, 0, 64, 65
2,99458, Control_c, 0, 64, 65
2,99476, Control_c, 0, 64, 67
2,99496, Control_c, 0, 64, 68
2,99496, Note_on_c, 0, 71, 0
2,99515, Control_c, 0, 64, 68
2,99552, Note_on_c, 0, 77, 0
2,99553, Control_c, 0, 64, 69
2,99557, Note_on_c, 0, 59, 0
2,99560, Note_on_c, 0, 61, 61
2,99611, Control_c, 0, 64, 68
2,99668, Control_c, 0, 64, 68
2,99687, Control_c, 0, 64, 67
2,99707, Control_c, 0, 64, 67
2,99726, Control_c, 0, 64, 66
2,99745, Control_c, 0, 64, 66
2,99764, Control_c, 0, 64, 65
2,99784, Control_c, 0, 64, 65
2,99803, Control_c, 0, 64, 64
2,99824, Control_c, 0, 64, 64
2,99827, Note_on_c, 0, 70, 71
2,99843, Control_c, 0, 64, 63
2,99863, Control_c, 0, 64, 62
2,99865, Note_on_c, 0, 63, 48
2,99881, Control_c, 0, 64, 61
2,99881, Note_on_c, 0, 54, 43
2,99901, Control_c, 0, 64, 57
2,99912, Note_on_c, 0, 61, 0
2,99920, Control_c, 0, 64, 48
2,99939, Control_c, 0, 64, 21
2,99958, Control_c, 0, 64, 0
2,100073, Control_c, 0, 64, 29
2,100092, Control_c, 0, 64, 52
2,100111, Control_c, 0, 64, 61
2,100131, Control_c, 0, 64, 63
2,100169, Control_c, 0, 64, 64
2,100188, Control_c, 0, 64, 64
2,100207, Control_c, 0, 64, 65
2,100226, Control_c, 0, 64, 66
2,100245, Control_c, 0, 64, 67
2,100265, Control_c, 0, 64, 68
2,100283, Control_c, 0, 64, 69
2,100303, Control_c, 0, 64, 70
2,100315, Note_on_c, 0, 77, 74
2,100318, Note_on_c, 0, 56, 49
2,100322, Control_c, 0, 64, 73
2,100342, Control_c, 0, 64, 76
2,100360, Control_c, 0, 64, 78
2,100380, Control_c, 0, 64, 79
2,100418, Control_c, 0, 64, 79
2,100435, Note_on_c, 0, 54, 0
2,100447, Note_on_c, 0, 63, 0
2,100476, Control_c, 0, 64, 80
2,100514, Control_c, 0, 64, 80
2,100544, Note_on_c, 0, 56, 0
2,100577, Note_on_c, 0, 77, 0
2,100649, Control_c, 0, 64, 80
2,100687, Control_c, 0, 64, 79
2,100706, Control_c, 0, 64, 78
2,100725, Control_c, 0, 64, 77
2,100745, Control_c, 0, 64, 76
2,100763, Control_c, 0, 64, 74
2,100784, Control_c, 0, 64, 73
2,100803, Control_c, 0, 64, 71
2,100809, Note_on_c, 0, 54, 66
2,100821, Note_on_c, 0, 78, 70
2,100823, Control_c, 0, 64, 69
2,100835, Note_on_c, 0, 61, 47
2,100838, Note_on_c, 0, 58, 52
2,100841, Control_c, 0, 64, 69
2,100861, Control_c, 0, 64, 68
2,100880, Control_c, 0, 64, 67
2,100899, Control_c, 0, 64, 66
2,100918, Control_c, 0, 64, 65
2,100938, Control_c, 0, 64, 64
2,100957, Control_c, 0, 64, 60
2,100976, Control_c, 0, 64, 50
2,100995, Control_c, 0, 64, 27
2,101015, Control_c, 0, 64, 0
2,101026, Note_on_c, 0, 61, 0
2,101064, Note_on_c, 0, 70, 0
2,101110, Control_c, 0, 64, 21
2,101130, Control_c, 0, 64, 48
2,101149, Control_c, 0, 64, 61
2,101169, Control_c, 0, 64, 64
2,101187, Control_c, 0, 64, 65
2,101244, Control_c, 0, 64, 65
2,101264, Control_c, 0, 64, 66
2,101283, Control_c, 0, 64, 67
2,101303, Control_c, 0, 64, 67
2,101312, Note_on_c, 0, 61, 59
2,101321, Control_c, 0, 64, 68
2,101321, Note_on_c, 0, 70, 65
2,101341, Control_c, 0, 64, 69
2,101360, Control_c, 0, 64, 71
2,101379, Control_c, 0, 64, 73
2,101398, Control_c, 0, 64, 75
2,101418, Control_c, 0, 64, 77
2,101437, Control_c, 0, 64, 78
2,101456, Control_c, 0, 64, 79
2,101466, Note_on_c, 0, 54, 0
2,101475, Control_c, 0, 64, 79
2,101483, Note_on_c, 0, 58, 0
2,101490, Note_on_c, 0, 61, 0
2,101590, Control_c, 0, 64, 79
2,101610, Control_c, 0, 64, 78
2,101629, Control_c, 0, 64, 78
2,101649, Control_c, 0, 64, 77
2,101667, Control_c, 0, 64, 76
2,101686, Control_c, 0, 64, 75
2,101687, Note_on_c, 0, 70, 0
2,101706, Control_c, 0, 64, 74
2,101724, Control_c, 0, 64, 73
2,101776, Note_on_c, 0, 51, 56
2,101776, Note_on_c, 0, 63, 57
2,101792, Note_on_c, 0, 71, 58
2,101802, Control_c, 0, 64, 72
2,101822, Control_c, 0, 64, 71
2,101841, Control_c, 0, 64, 67
2,101860, Control_c, 0, 64, 61
2,101874, Control_c, 0, 64, 53
2,101894, Control_c, 0, 64, 51
2,101913, Control_c, 0, 64, 53
2,101933, Control_c, 0, 64, 57
2,101951, Control_c, 0, 64, 60
2,101971, Control_c, 0, 64, 62
2,101978, Note_on_c, 0, 78, 0
2,101990, Control_c, 0, 64, 63
2,102009, Control_c, 0, 64, 64
2,102028, Control_c, 0, 64, 64
2,102047, Control_c, 0, 64, 65
2,102124, Control_c, 0, 64, 64
2,102162, Control_c, 0, 64, 65
2,102201, Control_c, 0, 64, 65
2,102220, Control_c, 0, 64, 66
2,102239, Control_c, 0, 64, 67
2,102247, Note_on_c, 0, 82, 71
2,102261, Note_on_c, 0, 52, 66
2,102278, Control_c, 0, 64, 64
2,102297, Control_c, 0, 64, 55
2,102316, Control_c, 0, 64, 34
2,102336, Control_c, 0, 64, 20
2,102354, Control_c, 0, 64, 19
2,102366, Note_on_c, 0, 51, 0
2,102374, Control_c, 0, 64, 32
2,102393, Control_c, 0, 64, 46
2,102413, Control_c, 0, 64, 51
2,102431, Control_c, 0, 64, 56
2,102451, Control_c, 0, 64, 59
2,102463, Note_on_c, 0, 54, 79
2,102470, Control_c, 0, 64, 60
2,102497, Note_on_c, 0, 52, 0
2,102527, Control_c, 0, 64, 61
2,102580, Note_on_c, 0, 82, 0
2,102604, Control_c, 0, 64, 61
2,102642, Control_c, 0, 64, 62
2,102701, Control_c, 0, 64, 59
2,102714, Note_on_c, 0, 56, 73
2,102718, Note_on_c, 0, 83, 72
2,102719, Note_on_c, 0, 54, 0
2,102720, Control_c, 0, 64, 49
2,102736, Note_on_c, 0, 71, 0
2,102740, Control_c, 0, 64, 21
2,102758, Control_c, 0, 64, 0
2,102874, Control_c, 0, 64, 32
2,102893, Control_c, 0, 64, 46
2,102912, Control_c, 0, 64, 53
2,102932, Control_c, 0, 64, 55
2,102951, Control_c, 0, 64, 55
2,102954, Note_on_c, 0, 56, 0
2,102970, Control_c, 0, 64, 56
2,102975, Note_on_c, 0, 75, 73
2,102989, Control_c, 0, 64, 57
2,103008, Control_c, 0, 64, 57
2,103046, Control_c, 0, 64, 58
2,103066, Control_c, 0, 64, 60
2,103085, Control_c, 0, 64, 62
2,103104, Control_c, 0, 64, 62
2,103162, Control_c, 0, 64, 62
2,103181, Control_c, 0, 64, 56
2,103199, Note_on_c, 0, 75, 0
2,103200, Control_c, 0, 64, 38
2,103200, Note_on_c, 0, 76, 67
2,103204, Note_on_c, 0, 54, 64
2,103220, Control_c, 0, 64, 0
2,103283, Note_on_c, 0, 83, 0
2,103297, Control_c, 0, 64, 52
2,103315, Control_c, 0, 64, 64
2,103335, Control_c, 0, 64, 65
2,103354, Control_c, 0, 64, 64
2,103392, Control_c, 0, 64, 65
2,103403, Note_on_c, 0, 63, 0
2,103421, Note_on_c, 0, 78, 77
2,103450, Control_c, 0, 64, 64
2,103456, Note_on_c, 0, 76, 0
2,103546, Control_c, 0, 64, 64
2,103642, Control_c, 0, 64, 63
2,103661, Control_c, 0, 64, 62
2,103680, Control_c, 0, 64, 61
2,103688, Note_on_c, 0, 80, 69
2,103694, Note_on_c, 0, 61, 49
2,103697, Note_on_c, 0, 54, 0
2,103700, Control_c, 0, 64, 59
2,103700, Note_on_c, 0, 52, 48
2,103717, Note_on_c, 0, 78, 0
2,103718, Control_c, 0, 64, 55
2,103738, Control_c, 0, 64, 46
2,103757, Control_c, 0, 64, 36
2,103777, Control_c, 0, 64, 27
2,103795, Control_c, 0, 64, 20
2,103816, Control_c, 0, 64, 19
2,103835, Control_c, 0, 64, 21
2,103854, Control_c, 0, 64, 37
2,103873, Control_c, 0, 64, 53
2,103893, Control_c, 0, 64, 60
2,103912, Control_c, 0, 64, 60
2,103950, Control_c, 0, 64, 61
2,103970, Control_c, 0, 64, 62
2,104007, Control_c, 0, 64, 61
2,104142, Control_c, 0, 64, 62
2,104161, Control_c, 0, 64, 61
2,104181, Control_c, 0, 64, 59
2,104186, Note_on_c, 0, 76, 66
2,104199, Control_c, 0, 64, 53
2,104199, Note_on_c, 0, 58, 53
2,104216, Note_on_c, 0, 61, 0
2,104219, Control_c, 0, 64, 38
2,104238, Control_c, 0, 64, 22
2,104258, Control_c, 0, 64, 18
2,104276, Control_c, 0, 64, 21
2,104282, Note_on_c, 0, 52, 0
2,104296, Control_c, 0, 64, 37
2,104315, Control_c, 0, 64, 49
2,104334, Control_c, 0, 64, 52
2,104353, Control_c, 0, 64, 53
2,104356, Note_on_c, 0, 80, 0
2,104373, Control_c, 0, 64, 56
2,104392, Control_c, 0, 64, 58
2,104411, Control_c, 0, 64, 58
2,104468, Control_c, 0, 64, 59
2,104487, Control_c, 0, 64, 59
2,104526, Control_c, 0, 64, 59
2,104545, Control_c, 0, 64, 58
2,104564, Control_c, 0, 64, 57
2,104584, Control_c, 0, 64, 54
2,104603, Control_c, 0, 64, 43
2,104626, Control_c, 0, 64, 21
2,104637, Note_on_c, 0, 75, 67
2,104640, Note_on_c, 0, 59, 45
2,104645, Control_c, 0, 64, 0
2,104662, Note_on_c, 0, 76, 0
2,104675, Note_on_c, 0, 58, 0
2,104683, Control_c, 0, 64, 20
2,104703, Control_c, 0, 64, 37
2,104722, Control_c, 0, 64, 46
2,104741, Control_c, 0, 64, 54
2,104756, Control_c, 0, 64, 60
2,104776, Control_c, 0, 64, 63
2,104795, Control_c, 0, 64, 63
2,104891, Control_c, 0, 64, 63
2,104910, Control_c, 0, 64, 62
2,104964, Note_on_c, 0, 59, 0
2,105006, Control_c, 0, 64, 63
2,105044, Control_c, 0, 64, 63
2,105083, Control_c, 0, 64, 62
2,105102, Control_c, 0, 64, 56
2,105121, Control_c, 0, 64, 38
2,105121, Note_on_c, 0, 66, 61
2,105139, Note_on_c, 0, 59, 49
2,105141, Control_c, 0, 64, 9
2,105144, Note_on_c, 0, 51, 44
2,105159, Control_c, 0, 64, 0
2,105190, Note_on_c, 0, 75, 0
2,105198, Control_c, 0, 64, 29
2,105218, Control_c, 0, 64, 54
2,105236, Control_c, 0, 64, 61
2,105256, Control_c, 0, 64, 61
2,105294, Control_c, 0, 64, 62
2,105313, Control_c, 0, 64, 63
2,105397, Note_on_c, 0, 59, 0
2,105403, Note_on_c, 0, 51, 0
2,105467, Control_c, 0, 64, 62
2,105486, Control_c, 0, 64, 62
2,105544, Control_c, 0, 64, 61
2,105563, Control_c, 0, 64, 60
2,105584, Control_c, 0, 64, 60
2,105603, Control_c, 0, 64, 59
2,105613, Note_on_c, 0, 73, 72
2,105623, Control_c, 0, 64, 57
2,105628, Note_on_c, 0, 59, 43
2,105640, Note_on_c, 0, 68, 54
2,105641, Control_c, 0, 64, 56
2,105652, Note_on_c, 0, 52, 43
2,105654, Note_on_c, 0, 66, 0
2,105661, Control_c, 0, 64, 55
2,105680, Control_c, 0, 64, 52
2,105699, Control_c, 0, 64, 49
2,105718, Control_c, 0, 64, 47
2,105833, Control_c, 0, 64, 49
2,105834, Note_on_c, 0, 52, 0
2,105852, Control_c, 0, 64, 50
2,105852, Note_on_c, 0, 59, 0
2,106025, Control_c, 0, 64, 50
2,106066, Note_on_c, 0, 70, 67
2,106102, Control_c, 0, 64, 51
2,106104, Note_on_c, 0, 52, 50
2,106140, Control_c, 0, 64, 51
2,106159, Control_c, 0, 64, 52
2,106178, Control_c, 0, 64, 53
2,106197, Control_c, 0, 64, 55
2,106217, Control_c, 0, 64, 56
2,106236, Control_c, 0, 64, 57
2,106274, Control_c, 0, 64, 57
2,106294, Control_c, 0, 64, 58
2,106303, Note_on_c, 0, 71, 67
2,106371, Control_c, 0, 64, 57
2,106377, Note_on_c, 0, 68, 0
2,106387, Note_on_c, 0, 52, 0
2,106389, Control_c, 0, 64, 57
2,106400, Note_on_c, 0, 70, 0
2,106408, Control_c, 0, 64, 56
2,106485, Control_c, 0, 64, 55
2,106589, Note_on_c, 0, 54, 40
2,106591, Note_on_c, 0, 64, 55
2,106604, Note_on_c, 0, 58, 50
2,106631, Note_on_c, 0, 71, 0
2,106640, Control_c, 0, 64, 55
2,106659, Control_c, 0, 64, 52
2,106676, Control_c, 0, 64, 46
2,106696, Control_c, 0, 64, 36
2,106715, Control_c, 0, 64, 25
2,106734, Control_c, 0, 64, 21
2,106811, Control_c, 0, 64, 22
2,106823, Note_on_c, 0, 58, 0
2,106830, Control_c, 0, 64, 30
2,106837, Note_on_c, 0, 54, 0
2,106850, Control_c, 0, 64, 39
2,106868, Control_c, 0, 64, 43
2,106887, Control_c, 0, 64, 44
2,106907, Control_c, 0, 64, 44
2,106926, Control_c, 0, 64, 45
2,106945, Control_c, 0, 64, 47
2,107059, Note_on_c, 0, 54, 54
2,107099, Control_c, 0, 64, 48
2,107118, Control_c, 0, 64, 51
2,107138, Control_c, 0, 64, 56
2,107156, Control_c, 0, 64, 59
2,107176, Control_c, 0, 64, 61
2,107195, Control_c, 0, 64, 62
2,107214, Control_c, 0, 64, 62
2,107233, Control_c, 0, 64, 63
2,107253, Control_c, 0, 64, 64
2,107264, Note_on_c, 0, 54, 0
2,107272, Control_c, 0, 64, 64
2,107348, Control_c, 0, 64, 64
2,107387, Control_c, 0, 64, 63
2,107425, Control_c, 0, 64, 62
2,107464, Control_c, 0, 64, 62
2,107503, Control_c, 0, 64, 62
2,107535, Note_on_c, 0, 59, 54
2,107542, Control_c, 0, 64, 62
2,107545, Note_on_c, 0, 47, 47
2,107560, Control_c, 0, 64, 56
2,107580, Control_c, 0, 64, 37
2,107599, Control_c, 0, 64, 0
2,107676, Control_c, 0, 64, 25
2,107695, Control_c, 0, 64, 54
2,107714, Control_c, 0, 64, 62
2,107734, Control_c, 0, 64, 63
2,107791, Control_c, 0, 64, 63
2,107848, Control_c, 0, 64, 63
2,107963, Control_c, 0, 64, 63
2,107983, Control_c, 0, 64, 64
2,107997, Note_on_c, 0, 64, 0
2,108000, Note_on_c, 0, 63, 56
2,108022, Control_c, 0, 64, 63
2,108023, Note_on_c, 0, 46, 60
2,108034, Note_on_c, 0, 59, 0
2,108040, Control_c, 0, 64, 56
2,108051, Note_on_c, 0, 73, 0
2,108053, Note_on_c, 0, 47, 0
2,108060, Control_c, 0, 64, 39
2,108079, Control_c, 0, 64, 26
2,108117, Control_c, 0, 64, 38
2,108137, Control_c, 0, 64, 56
2,108156, Control_c, 0, 64, 62
2,108175, Control_c, 0, 64, 63
2,108214, Control_c, 0, 64, 64
2,108232, Note_on_c, 0, 61, 62
2,108233, Control_c, 0, 64, 64
2,108236, Note_on_c, 0, 63, 0
2,108348, Control_c, 0, 64, 64
2,108386, Control_c, 0, 64, 63
2,108422, Note_on_c, 0, 61, 0
2,108425, Control_c, 0, 64, 63
2,108443, Control_c, 0, 64, 62
2,108463, Control_c, 0, 64, 61
2,108482, Control_c, 0, 64, 60
2,108488, Note_on_c, 0, 44, 51
2,108491, Note_on_c, 0, 71, 61
2,108499, Note_on_c, 0, 63, 37
2,108500, Note_on_c, 0, 46, 0
2,108502, Control_c, 0, 64, 58
2,108520, Control_c, 0, 64, 55
2,108540, Control_c, 0, 64, 53
2,108559, Control_c, 0, 64, 52
2,108578, Control_c, 0, 64, 51
2,108597, Control_c, 0, 64, 50
2,108616, Control_c, 0, 64, 49
2,108635, Control_c, 0, 64, 49
2,108673, Control_c, 0, 64, 48
2,108712, Control_c, 0, 64, 48
2,108713, Note_on_c, 0, 63, 0
2,108721, Note_on_c, 0, 59, 56
2,108731, Control_c, 0, 64, 47
2,108807, Control_c, 0, 64, 48
2,108827, Control_c, 0, 64, 48
2,108846, Control_c, 0, 64, 49
2,108865, Control_c, 0, 64, 49
2,108884, Control_c, 0, 64, 50
2,108904, Control_c, 0, 64, 51
2,108923, Control_c, 0, 64, 52
2,108942, Control_c, 0, 64, 52
2,108959, Note_on_c, 0, 65, 52
2,108961, Control_c, 0, 64, 54
2,108978, Note_on_c, 0, 59, 0
2,108981, Control_c, 0, 64, 55
2,108991, Note_on_c, 0, 44, 0
2,108996, Note_on_c, 0, 49, 53
2,108999, Control_c, 0, 64, 56
2,109019, Control_c, 0, 64, 57
2,109076, Control_c, 0, 64, 57
2,109403, Control_c, 0, 64, 58
2,109424, Control_c, 0, 64, 58
2,109443, Control_c, 0, 64, 58
2,109445, Note_on_c, 0, 66, 54
2,109452, Note_on_c, 0, 42, 44
2,109457, Note_on_c, 0, 65, 0
2,109463, Control_c, 0, 64, 54
2,109481, Control_c, 0, 64, 46
2,109488, Note_on_c, 0, 49, 0
2,109501, Control_c, 0, 64, 36
2,109520, Control_c, 0, 64, 34
2,109557, Control_c, 0, 64, 38
2,109575, Control_c, 0, 64, 47
2,109594, Control_c, 0, 64, 54
2,109614, Control_c, 0, 64, 57
2,109632, Control_c, 0, 64, 58
2,109652, Control_c, 0, 64, 59
2,109748, Control_c, 0, 64, 58
2,109843, Control_c, 0, 64, 59
2,109882, Control_c, 0, 64, 59
2,109910, Note_on_c, 0, 70, 62
2,109918, Note_on_c, 0, 40, 41
2,109920, Control_c, 0, 64, 57
2,109933, Note_on_c, 0, 71, 0
2,109938, Note_on_c, 0, 42, 0
2,109940, Control_c, 0, 64, 50
2,109958, Control_c, 0, 64, 35
2,109978, Control_c, 0, 64, 19
2,109997, Control_c, 0, 64, 17
2,110035, Control_c, 0, 64, 31
2,110055, Control_c, 0, 64, 46
2,110074, Control_c, 0, 64, 55
2,110094, Control_c, 0, 64, 57
2,110094, Note_on_c, 0, 66, 0
2,110112, Control_c, 0, 64, 58
2,110123, Note_on_c, 0, 68, 68
2,110132, Control_c, 0, 64, 58
2,110151, Control_c, 0, 64, 59
2,110169, Control_c, 0, 64, 59
2,110169, Note_on_c, 0, 70, 0
2,110369, Note_on_c, 0, 39, 54
2,110377, Note_on_c, 0, 70, 67
2,110404, Control_c, 0, 64, 59
2,110419, Note_on_c, 0, 40, 0
2,110424, Control_c, 0, 64, 58
2,110442, Control_c, 0, 64, 55
2,110462, Control_c, 0, 64, 53
2,110471, Note_on_c, 0, 68, 0
2,110481, Control_c, 0, 64, 50
2,110500, Control_c, 0, 64, 48
2,110519, Control_c, 0, 64, 48
2,110576, Control_c, 0, 64, 48
2,110587, Note_on_c, 0, 66, 68
2,110596, Control_c, 0, 64, 50
2,110615, Control_c, 0, 64, 51
2,110635, Control_c, 0, 64, 52
2,110646, Note_on_c, 0, 70, 0
2,110653, Control_c, 0, 64, 53
2,110673, Control_c, 0, 64, 54
2,110692, Control_c, 0, 64, 55
2,110711, Control_c, 0, 64, 56
2,110730, Control_c, 0, 64, 57
2,110750, Control_c, 0, 64, 58
2,110807, Control_c, 0, 64, 57
2,110827, Control_c, 0, 64, 52
2,110840, Note_on_c, 0, 72, 75
2,110844, Note_on_c, 0, 44, 62
2,110846, Control_c, 0, 64, 43
2,110862, Note_on_c, 0, 39, 0
2,110865, Control_c, 0, 64, 22
2,110884, Control_c, 0, 64, 0
2,110942, Control_c, 0, 64, 24
2,110961, Control_c, 0, 64, 46
2,110980, Control_c, 0, 64, 59
2,110999, Control_c, 0, 64, 63
2,111018, Control_c, 0, 64, 64
2,111076, Control_c, 0, 64, 64
2,111095, Control_c, 0, 64, 65
2,111191, Control_c, 0, 64, 64
2,111230, Control_c, 0, 64, 64
2,111268, Control_c, 0, 64, 63
2,111287, Control_c, 0, 64, 63
2,111307, Control_c, 0, 64, 62
2,111339, Note_on_c, 0, 44, 0
2,111343, Note_on_c, 0, 73, 67
2,111347, Control_c, 0, 64, 62
2,111366, Control_c, 0, 64, 61
2,111384, Note_on_c, 0, 49, 48
2,111386, Control_c, 0, 64, 58
2,111401, Note_on_c, 0, 72, 0
2,111404, Control_c, 0, 64, 46
2,111424, Control_c, 0, 64, 22
2,111443, Control_c, 0, 64, 0
2,111536, Control_c, 0, 64, 24
2,111556, Control_c, 0, 64, 48
2,111575, Control_c, 0, 64, 58
2,111595, Control_c, 0, 64, 59
2,111652, Control_c, 0, 64, 59
2,111671, Control_c, 0, 64, 60
2,111753, Note_on_c, 0, 66, 0
2,111823, Note_on_c, 0, 64, 52
2,111844, Control_c, 0, 64, 60
2,111857, Note_on_c, 0, 47, 45
2,111882, Control_c, 0, 64, 60
2,111901, Control_c, 0, 64, 57
2,111921, Control_c, 0, 64, 49
2,111922, Note_on_c, 0, 49, 0
2,111940, Control_c, 0, 64, 36
2,111959, Control_c, 0, 64, 30
2,111978, Control_c, 0, 64, 31
2,111998, Control_c, 0, 64, 43
2,112016, Control_c, 0, 64, 55
2,112036, Control_c, 0, 64, 58
2,112053, Note_on_c, 0, 64, 0
2,112055, Control_c, 0, 64, 59
2,112061, Note_on_c, 0, 63, 64
2,112075, Control_c, 0, 64, 60
2,112093, Control_c, 0, 64, 61
2,112132, Control_c, 0, 64, 61
2,112151, Control_c, 0, 64, 61
2,112267, Control_c, 0, 64, 61
2,112267, Note_on_c, 0, 63, 0
2,112273, Note_on_c, 0, 64, 65
2,112293, Note_on_c, 0, 46, 60
2,112304, Note_on_c, 0, 47, 0
2,112323, Control_c, 0, 64, 59
2,112343, Control_c, 0, 64, 49
2,112361, Control_c, 0, 64, 29
2,112380, Control_c, 0, 64, 17
2,112400, Control_c, 0, 64, 15
2,112419, Control_c, 0, 64, 32
2,112438, Control_c, 0, 64, 54
2,112458, Control_c, 0, 64, 62
2,112487, Note_on_c, 0, 64, 0
2,112499, Note_on_c, 0, 61, 70
2,112516, Control_c, 0, 64, 62
2,112535, Control_c, 0, 64, 63
2,112593, Control_c, 0, 64, 62
2,112650, Control_c, 0, 64, 62
2,112697, Note_on_c, 0, 46, 0
2,112708, Control_c, 0, 64, 62
2,112755, Note_on_c, 0, 67, 61
2,112766, Control_c, 0, 64, 62
2,112767, Note_on_c, 0, 51, 51
2,112785, Control_c, 0, 64, 60
2,112804, Control_c, 0, 64, 56
2,112810, Note_on_c, 0, 61, 0
2,112824, Control_c, 0, 64, 44
2,112842, Control_c, 0, 64, 20
2,112861, Control_c, 0, 64, 0
2,112919, Control_c, 0, 64, 18
2,112938, Control_c, 0, 64, 46
2,112958, Control_c, 0, 64, 57
2,112976, Control_c, 0, 64, 59
2,113015, Control_c, 0, 64, 60
2,113035, Control_c, 0, 64, 61
2,113053, Control_c, 0, 64, 61
2,113212, Note_on_c, 0, 68, 66
2,113220, Note_on_c, 0, 67, 0
2,113231, Note_on_c, 0, 44, 48
2,113246, Control_c, 0, 64, 61
2,113270, Note_on_c, 0, 51, 0
2,113285, Control_c, 0, 64, 59
2,113305, Control_c, 0, 64, 55
2,113323, Control_c, 0, 64, 46
2,113343, Control_c, 0, 64, 32
2,113362, Control_c, 0, 64, 20
2,113378, Control_c, 0, 64, 19
2,113397, Control_c, 0, 64, 25
2,113416, Control_c, 0, 64, 44
2,113435, Control_c, 0, 64, 54
2,113454, Control_c, 0, 64, 57
2,113473, Control_c, 0, 64, 59
2,113493, Control_c, 0, 64, 60
2,113512, Control_c, 0, 64, 61
2,113684, Control_c, 0, 64, 62
2,113717, Note_on_c, 0, 71, 66
2,113723, Control_c, 0, 64, 61
2,113735, Note_on_c, 0, 42, 55
2,113742, Control_c, 0, 64, 57
2,113761, Control_c, 0, 64, 48
2,113781, Control_c, 0, 64, 37
2,113799, Control_c, 0, 64, 33
2,113808, Note_on_c, 0, 73, 0
2,113809, Note_on_c, 0, 44, 0
2,113819, Control_c, 0, 64, 34
2,113838, Control_c, 0, 64, 42
2,113858, Control_c, 0, 64, 51
2,113876, Control_c, 0, 64, 54
2,113896, Control_c, 0, 64, 56
2,113915, Control_c, 0, 64, 58
2,113934, Control_c, 0, 64, 59
2,113936, Note_on_c, 0, 70, 79
2,113953, Control_c, 0, 64, 60
2,113960, Note_on_c, 0, 68, 0
2,113965, Note_on_c, 0, 71, 0
2,114107, Control_c, 0, 64, 60
2,114145, Control_c, 0, 64, 59
2,114164, Control_c, 0, 64, 53
2,114165, Note_on_c, 0, 42, 0
2,114174, Note_on_c, 0, 71, 75
2,114184, Control_c, 0, 64, 39
2,114193, Note_on_c, 0, 41, 62
2,114203, Control_c, 0, 64, 0
2,114279, Control_c, 0, 64, 21
2,114279, Note_on_c, 0, 70, 0
2,114299, Control_c, 0, 64, 38
2,114318, Control_c, 0, 64, 51
2,114338, Control_c, 0, 64, 60
2,114356, Control_c, 0, 64, 62
2,114376, Control_c, 0, 64, 62
2,114408, Note_on_c, 0, 68, 78
2,114414, Control_c, 0, 64, 62
2,114433, Control_c, 0, 64, 63
2,114438, Note_on_c, 0, 71, 0
2,114453, Control_c, 0, 64, 64
2,114529, Control_c, 0, 64, 65
2,114548, Control_c, 0, 64, 66
2,114567, Control_c, 0, 64, 66
2,114587, Control_c, 0, 64, 67
2,114612, Note_on_c, 0, 46, 51
2,114639, Note_on_c, 0, 41, 0
2,114664, Control_c, 0, 64, 66
2,114683, Control_c, 0, 64, 63
2,114702, Control_c, 0, 64, 47
2,114709, Note_on_c, 0, 74, 73
2,114721, Control_c, 0, 64, 13
2,114741, Control_c, 0, 64, 0
2,114779, Control_c, 0, 64, 18
2,114798, Control_c, 0, 64, 58
2,114818, Control_c, 0, 64, 66
2,114836, Control_c, 0, 64, 69
2,114856, Control_c, 0, 64, 71
2,114894, Control_c, 0, 64, 71
2,114913, Control_c, 0, 64, 72
2,114933, Control_c, 0, 64, 73
2,114940, Note_on_c, 0, 74, 0
2,114952, Control_c, 0, 64, 74
2,114970, Control_c, 0, 64, 75
2,115124, Control_c, 0, 64, 74
2,115182, Control_c, 0, 64, 74
2,115201, Control_c, 0, 64, 73
2,115221, Control_c, 0, 64, 72
2,115231, Note_on_c, 0, 75, 77
2,115239, Control_c, 0, 64, 71
2,115259, Control_c, 0, 64, 69
2,115259, Note_on_c, 0, 39, 45
2,115278, Control_c, 0, 64, 67
2,115298, Control_c, 0, 64, 66
2,115316, Control_c, 0, 64, 64
2,115317, Note_on_c, 0, 46, 0
2,115336, Control_c, 0, 64, 61
2,115355, Control_c, 0, 64, 59
2,115374, Control_c, 0, 64, 56
2,115393, Control_c, 0, 64, 51
2,115413, Control_c, 0, 64, 49
2,115432, Control_c, 0, 64, 49
2,115450, Control_c, 0, 64, 49
2,115470, Control_c, 0, 64, 50
2,115508, Control_c, 0, 64, 51
2,115527, Control_c, 0, 64, 54
2,115547, Control_c, 0, 64, 56
2,115566, Control_c, 0, 64, 56
2,115624, Control_c, 0, 64, 57
2,115643, Control_c, 0, 64, 59
2,115662, Control_c, 0, 64, 60
2,115697, Note_on_c, 0, 73, 68
2,115701, Control_c, 0, 64, 61
2,115719, Control_c, 0, 64, 62
2,115739, Control_c, 0, 64, 64
2,115758, Control_c, 0, 64, 64
2,115767, Note_on_c, 0, 68, 0
2,115918, Note_on_c, 0, 71, 73
2,115957, Note_on_c, 0, 75, 0
2,115988, Control_c, 0, 64, 64
2,116027, Control_c, 0, 64, 63
2,116053, Note_on_c, 0, 73, 0
2,116143, Control_c, 0, 64, 63
2,116162, Control_c, 0, 64, 61
2,116182, Control_c, 0, 64, 56
2,116183, Note_on_c, 0, 70, 72
2,116200, Control_c, 0, 64, 47
2,116202, Note_on_c, 0, 39, 0
2,116216, Note_on_c, 0, 66, 49
2,116220, Control_c, 0, 64, 42
2,116239, Note_on_c, 0, 71, 0
2,116259, Control_c, 0, 64, 44
2,116277, Control_c, 0, 64, 49
2,116297, Control_c, 0, 64, 53
2,116316, Control_c, 0, 64, 55
2,116335, Control_c, 0, 64, 58
2,116354, Control_c, 0, 64, 60
2,116374, Control_c, 0, 64, 61
2,116431, Control_c, 0, 64, 61
2,116450, Control_c, 0, 64, 62
2,116527, Control_c, 0, 64, 62
2,116546, Control_c, 0, 64, 63
2,116565, Control_c, 0, 64, 64
2,116585, Control_c, 0, 64, 63
2,116603, Control_c, 0, 64, 59
2,116623, Control_c, 0, 64, 50
2,116632, Note_on_c, 0, 51, 43
2,116633, Note_on_c, 0, 71, 61
2,116642, Control_c, 0, 64, 44
2,116662, Control_c, 0, 64, 44
2,116680, Control_c, 0, 64, 52
2,116700, Control_c, 0, 64, 61
2,116719, Control_c, 0, 64, 64
2,116736, Note_on_c, 0, 70, 0
2,116739, Control_c, 0, 64, 64
2,116757, Control_c, 0, 64, 65
2,116796, Control_c, 0, 64, 65
2,116846, Note_on_c, 0, 66, 0
2,116892, Control_c, 0, 64, 65
2,116949, Control_c, 0, 64, 64
2,116956, Note_on_c, 0, 51, 0
2,116988, Control_c, 0, 64, 64
2,117026, Control_c, 0, 64, 63
2,117045, Control_c, 0, 64, 63
2,117065, Control_c, 0, 64, 62
2,117083, Control_c, 0, 64, 62
2,117103, Control_c, 0, 64, 61
2,117142, Control_c, 0, 64, 60
2,117143, Note_on_c, 0, 73, 65
2,117145, Note_on_c, 0, 52, 47
2,117147, Note_on_c, 0, 64, 49
2,117180, Control_c, 0, 64, 60
2,117208, Note_on_c, 0, 71, 0
2,117219, Control_c, 0, 64, 59
2,117237, Control_c, 0, 64, 59
2,117258, Control_c, 0, 64, 58
2,117277, Control_c, 0, 64, 56
2,117296, Control_c, 0, 64, 55
2,117315, Control_c, 0, 64, 55
2,117372, Note_on_c, 0, 52, 0
2,117373, Control_c, 0, 64, 55
2,117412, Control_c, 0, 64, 56
2,117430, Control_c, 0, 64, 56
2,117650, Note_on_c, 0, 52, 55
2,117658, Note_on_c, 0, 73, 0
2,117718, Control_c, 0, 64, 56
2,117757, Control_c, 0, 64, 55
2,117872, Control_c, 0, 64, 55
2,117909, Note_on_c, 0, 52, 0
2,117968, Control_c, 0, 64, 54
2,118083, Control_c, 0, 64, 54
2,118103, Control_c, 0, 64, 52
2,118106, Note_on_c, 0, 70, 68
2,118121, Control_c, 0, 64, 49
2,118139, Note_on_c, 0, 54, 46
2,118141, Control_c, 0, 64, 46
2,118160, Control_c, 0, 64, 46
2,118215, Control_c, 0, 64, 47
2,118234, Control_c, 0, 64, 48
2,118254, Control_c, 0, 64, 48
2,118272, Control_c, 0, 64, 49
2,118292, Control_c, 0, 64, 50
2,118311, Control_c, 0, 64, 51
2,118368, Control_c, 0, 64, 52
2,118370, Note_on_c, 0, 54, 0
2,118388, Control_c, 0, 64, 53
2,118406, Control_c, 0, 64, 54
2,118503, Control_c, 0, 64, 55
2,118561, Note_on_c, 0, 70, 0
2,118585, Note_on_c, 0, 54, 49
2,118598, Control_c, 0, 64, 56
2,118618, Control_c, 0, 64, 58
2,118637, Control_c, 0, 64, 60
2,118657, Control_c, 0, 64, 61
2,118675, Control_c, 0, 64, 62
2,118695, Control_c, 0, 64, 62
2,118734, Control_c, 0, 64, 63
2,118791, Control_c, 0, 64, 63
2,118906, Control_c, 0, 64, 63
2,118916, Note_on_c, 0, 54, 0
2,118925, Control_c, 0, 64, 62
2,118944, Control_c, 0, 64, 62
2,118963, Control_c, 0, 64, 61
2,119002, Control_c, 0, 64, 61
2,119060, Control_c, 0, 64, 60
2,119094, Note_on_c, 0, 71, 59
2,119098, Control_c, 0, 64, 60
2,119104, Note_on_c, 0, 47, 37
2,119117, Control_c, 0, 64, 59
2,119137, Control_c, 0, 64, 57
2,119155, Control_c, 0, 64, 56
2,119174, Control_c, 0, 64, 53
2,119193, Control_c, 0, 64, 39
2,119213, Control_c, 0, 64, 0
2,119365, Control_c, 0, 64, 19
2,119385, Control_c, 0, 64, 46
2,119404, Control_c, 0, 64, 55
2,119423, Control_c, 0, 64, 58
2,119442, Control_c, 0, 64, 59
2,119462, Control_c, 0, 64, 59
2,119481, Control_c, 0, 64, 60
2,119500, Control_c, 0, 64, 61
2,119519, Control_c, 0, 64, 62
2,119534, Note_on_c, 0, 70, 64
2,119558, Control_c, 0, 64, 62
2,119596, Control_c, 0, 64, 63
2,119609, Note_on_c, 0, 71, 0
2,119616, Control_c, 0, 64, 63
2,119642, Note_on_c, 0, 64, 0
2,119654, Control_c, 0, 64, 64
2,119768, Note_on_c, 0, 68, 65
2,119837, Note_on_c, 0, 47, 0
2,119842, Note_on_c, 0, 70, 0
2,119903, Control_c, 0, 64, 63
2,119922, Control_c, 0, 64, 63
2,119942, Control_c, 0, 64, 62
2,119961, Control_c, 0, 64, 62
2,119980, Control_c, 0, 64, 61
2,119999, Control_c, 0, 64, 60
2,120019, Control_c, 0, 64, 60
2,120036, Note_on_c, 0, 67, 57
2,120038, Control_c, 0, 64, 59
2,120056, Note_on_c, 0, 63, 48
2,120057, Control_c, 0, 64, 59
2,120070, Note_on_c, 0, 68, 0
2,120076, Control_c, 0, 64, 57
2,120096, Control_c, 0, 64, 56
2,120114, Control_c, 0, 64, 55
2,120134, Control_c, 0, 64, 54
2,120153, Control_c, 0, 64, 53
2,120173, Control_c, 0, 64, 51
2,120191, Control_c, 0, 64, 48
2,120210, Control_c, 0, 64, 47
2,120383, Control_c, 0, 64, 48
2,120402, Control_c, 0, 64, 50
2,120422, Control_c, 0, 64, 50
2,120441, Control_c, 0, 64, 51
2,120460, Control_c, 0, 64, 52
2,120479, Control_c, 0, 64, 53
2,120499, Control_c, 0, 64, 54
2,120503, Note_on_c, 0, 68, 59
2,120518, Control_c, 0, 64, 55
2,120526, Note_on_c, 0, 47, 42
2,120556, Control_c, 0, 64, 55
2,120575, Note_on_c, 0, 67, 0
2,120576, Control_c, 0, 64, 56
2,120594, Control_c, 0, 64, 57
2,120664, Note_on_c, 0, 63, 0
2,120690, Control_c, 0, 64, 56
2,120748, Control_c, 0, 64, 56
2,120767, Control_c, 0, 64, 55
2,120805, Control_c, 0, 64, 55
2,120887, Note_on_c, 0, 47, 0
2,120941, Control_c, 0, 64, 54
2,120960, Control_c, 0, 64, 53
2,120980, Control_c, 0, 64, 52
2,120988, Note_on_c, 0, 70, 61
2,120992, Note_on_c, 0, 61, 42
2,120998, Control_c, 0, 64, 50
2,121018, Control_c, 0, 64, 48
2,121018, Note_on_c, 0, 49, 42
2,121037, Control_c, 0, 64, 47
2,121043, Note_on_c, 0, 68, 0
2,121057, Control_c, 0, 64, 46
2,121170, Control_c, 0, 64, 47
2,121203, Note_on_c, 0, 49, 0
2,121208, Control_c, 0, 64, 48
2,121228, Control_c, 0, 64, 48
2,121247, Control_c, 0, 64, 49
2,121285, Control_c, 0, 64, 49
2,121324, Control_c, 0, 64, 50
2,121343, Control_c, 0, 64, 50
2,121382, Control_c, 0, 64, 51
2,121422, Note_on_c, 0, 70, 0
2,121439, Control_c, 0, 64, 51
2,121468, Note_on_c, 0, 49, 54
2,121698, Note_on_c, 0, 49, 0
2,121952, Note_on_c, 0, 67, 52
2,121960, Control_c, 0, 64, 49
2,121975, Note_on_c, 0, 51, 39
2,121980, Control_c, 0, 64, 47
2,121999, Control_c, 0, 64, 46
2,122037, Control_c, 0, 64, 46
2,122096, Control_c, 0, 64, 46
2,122115, Control_c, 0, 64, 50
2,122135, Control_c, 0, 64, 52
2,122153, Control_c, 0, 64, 52
2,122173, Control_c, 0, 64, 53
2,122192, Control_c, 0, 64, 54
2,122211, Control_c, 0, 64, 57
2,122219, Note_on_c, 0, 51, 0
2,122230, Control_c, 0, 64, 58
2,122436, Note_on_c, 0, 51, 47
2,122438, Note_on_c, 0, 67, 0
2,122480, Control_c, 0, 64, 58
2,122557, Control_c, 0, 64, 58
2,122595, Control_c, 0, 64, 59
2,122691, Control_c, 0, 64, 59
2,122708, Note_on_c, 0, 51, 0
2,122768, Control_c, 0, 64, 59
2,122921, Control_c, 0, 64, 57
2,122934, Note_on_c, 0, 68, 61
2,122941, Control_c, 0, 64, 46
2,122959, Note_on_c, 0, 44, 45
2,122960, Control_c, 0, 64, 0
2,123054, Control_c, 0, 64, 23
2,123073, Control_c, 0, 64, 46
2,123093, Control_c, 0, 64, 60
2,123112, Control_c, 0, 64, 62
2,123130, Control_c, 0, 64, 63
2,123160, Note_on_c, 0, 61, 0
2,123169, Control_c, 0, 64, 63
2,123188, Control_c, 0, 64, 64
2,123207, Control_c, 0, 64, 65
2,123227, Control_c, 0, 64, 65
2,123284, Control_c, 0, 64, 66
2,123323, Control_c, 0, 64, 66
2,123342, Control_c, 0, 64, 67
2,123361, Control_c, 0, 64, 67
2,123381, Control_c, 0, 64, 68
2,123411, Note_on_c, 0, 46, 48
2,123413, Note_on_c, 0, 44, 0
2,123413, Note_on_c, 0, 59, 53
2,123419, Control_c, 0, 64, 68
2,123438, Control_c, 0, 64, 69
2,123458, Control_c, 0, 64, 69
2,123515, Control_c, 0, 64, 70
2,123534, Control_c, 0, 64, 70
2,123573, Control_c, 0, 64, 71
2,123616, Note_on_c, 0, 46, 0
2,123636, Note_on_c, 0, 61, 59
2,123707, Control_c, 0, 64, 70
2,123707, Note_on_c, 0, 59, 0
2,123764, Control_c, 0, 64, 70
2,123784, Control_c, 0, 64, 69
2,123803, Control_c, 0, 64, 68
2,123822, Control_c, 0, 64, 68
2,123841, Control_c, 0, 64, 67
2,123861, Control_c, 0, 64, 66
2,123879, Control_c, 0, 64, 66
2,123918, Note_on_c, 0, 56, 67
2,123928, Note_on_c, 0, 63, 54
2,123936, Note_on_c, 0, 61, 0
2,123949, Note_on_c, 0, 47, 51
2,123972, Control_c, 0, 64, 64
2,123992, Control_c, 0, 64, 57
2,124011, Control_c, 0, 64, 42
2,124030, Control_c, 0, 64, 22
2,124049, Control_c, 0, 64, 0
2,124088, Control_c, 0, 64, 19
2,124107, Control_c, 0, 64, 39
2,124124, Control_c, 0, 64, 53
2,124143, Control_c, 0, 64, 60
2,124162, Control_c, 0, 64, 62
2,124181, Control_c, 0, 64, 63
2,124200, Control_c, 0, 64, 63
2,124220, Control_c, 0, 64, 64
2,124238, Control_c, 0, 64, 64
2,124296, Control_c, 0, 64, 65
2,124335, Control_c, 0, 64, 66
2,124354, Control_c, 0, 64, 66
2,124373, Control_c, 0, 64, 68
2,124381, Note_on_c, 0, 47, 0
2,124386, Note_on_c, 0, 61, 49
2,124392, Control_c, 0, 64, 69
2,124395, Note_on_c, 0, 49, 57
2,124412, Control_c, 0, 64, 70
2,124430, Control_c, 0, 64, 71
2,124450, Control_c, 0, 64, 72
2,124475, Note_on_c, 0, 63, 0
2,124485, Note_on_c, 0, 49, 0
2,124604, Control_c, 0, 64, 72
2,124619, Note_on_c, 0, 61, 0
2,124620, Note_on_c, 0, 59, 59
2,124642, Control_c, 0, 64, 72
2,124661, Control_c, 0, 64, 71
2,124661, Note_on_c, 0, 56, 0
2,124700, Control_c, 0, 64, 70
2,124715, Note_on_c, 0, 68, 0
2,124718, Control_c, 0, 64, 70
2,124738, Control_c, 0, 64, 69
2,124817, Control_c, 0, 64, 69
2,124868, Note_on_c, 0, 55, 64
2,124887, Note_on_c, 0, 58, 61
2,124897, Note_on_c, 0, 51, 53
2,124912, Control_c, 0, 64, 66
2,124932, Control_c, 0, 64, 57
2,124942, Note_on_c, 0, 59, 0
2,124951, Control_c, 0, 64, 19
2,124971, Control_c, 0, 64, 0
2,125028, Control_c, 0, 64, 41
2,125047, Control_c, 0, 64, 62
2,125066, Control_c, 0, 64, 64
2,125105, Control_c, 0, 64, 64
2,125124, Control_c, 0, 64, 65
2,125146, Note_on_c, 0, 51, 0
2,125203, Note_on_c, 0, 58, 0
2,125277, Control_c, 0, 64, 65
2,125297, Control_c, 0, 64, 66
2,125315, Control_c, 0, 64, 65
2,125335, Control_c, 0, 64, 61
2,125335, Note_on_c, 0, 56, 67
2,125339, Note_on_c, 0, 55, 0
2,125348, Note_on_c, 0, 60, 56
2,125351, Note_on_c, 0, 54, 60
2,125354, Control_c, 0, 64, 50
2,125357, Note_on_c, 0, 68, 58
2,125374, Control_c, 0, 64, 34
2,125392, Control_c, 0, 64, 28
2,125431, Control_c, 0, 64, 41
2,125451, Control_c, 0, 64, 53
2,125469, Control_c, 0, 64, 60
2,125489, Control_c, 0, 64, 62
2,125508, Control_c, 0, 64, 63
2,125527, Control_c, 0, 64, 63
2,125546, Control_c, 0, 64, 64
2,125564, Note_on_c, 0, 58, 69
2,125566, Control_c, 0, 64, 65
2,125570, Note_on_c, 0, 61, 65
2,125595, Note_on_c, 0, 60, 0
2,125599, Note_on_c, 0, 54, 0
2,125604, Control_c, 0, 64, 64
2,125614, Note_on_c, 0, 56, 0
2,125719, Control_c, 0, 64, 65
2,125744, Control_c, 0, 64, 66
2,125761, Note_on_c, 0, 58, 0
2,125764, Control_c, 0, 64, 67
2,125782, Control_c, 0, 64, 66
2,125801, Control_c, 0, 64, 59
2,125807, Note_on_c, 0, 60, 71
2,125821, Control_c, 0, 64, 31
2,125824, Note_on_c, 0, 63, 64
2,125840, Control_c, 0, 64, 0
2,125878, Control_c, 0, 64, 27
2,125890, Control_c, 0, 64, 59
2,125900, Note_on_c, 0, 61, 0
2,125909, Control_c, 0, 64, 66
2,125927, Note_on_c, 0, 68, 0
2,125929, Control_c, 0, 64, 68
2,125947, Control_c, 0, 64, 68
2,125967, Control_c, 0, 64, 69
2,125986, Control_c, 0, 64, 69
2,126008, Control_c, 0, 64, 70
2,126024, Note_on_c, 0, 63, 0
2,126034, Note_on_c, 0, 56, 62
2,126066, Control_c, 0, 64, 69
2,126066, Note_on_c, 0, 60, 0
2,126104, Control_c, 0, 64, 69
2,126123, Control_c, 0, 64, 68
2,126161, Control_c, 0, 64, 69
2,126181, Control_c, 0, 64, 70
2,126238, Control_c, 0, 64, 69
2,126258, Control_c, 0, 64, 63
2,126261, Note_on_c, 0, 58, 74
2,126261, Note_on_c, 0, 70, 68
2,126277, Control_c, 0, 64, 48
2,126278, Note_on_c, 0, 62, 56
2,126287, Note_on_c, 0, 56, 0
2,126295, Note_on_c, 0, 54, 49
2,126296, Control_c, 0, 64, 9
2,126315, Control_c, 0, 64, 0
2,126372, Control_c, 0, 64, 48
2,126392, Control_c, 0, 64, 64
2,126411, Control_c, 0, 64, 67
2,126430, Control_c, 0, 64, 69
2,126495, Note_on_c, 0, 53, 67
2,126521, Note_on_c, 0, 62, 0
2,126527, Note_on_c, 0, 63, 57
2,126529, Note_on_c, 0, 58, 0
2,126530, Note_on_c, 0, 54, 0
2,126539, Note_on_c, 0, 70, 0
2,126557, Note_on_c, 0, 53, 0
2,126584, Control_c, 0, 64, 69
2,126623, Control_c, 0, 64, 70
2,126641, Control_c, 0, 64, 71
2,126661, Control_c, 0, 64, 72
2,126680, Control_c, 0, 64, 75
2,126702, Control_c, 0, 64, 78
2,126721, Control_c, 0, 64, 81
2,126729, Note_on_c, 0, 56, 73
2,126741, Control_c, 0, 64, 74
2,126751, Note_on_c, 0, 71, 67
2,126755, Note_on_c, 0, 65, 66
2,126759, Control_c, 0, 64, 62
2,126759, Note_on_c, 0, 51, 49
2,126779, Control_c, 0, 64, 34
2,126792, Note_on_c, 0, 63, 0
2,126798, Control_c, 0, 64, 21
2,126818, Control_c, 0, 64, 28
2,126836, Control_c, 0, 64, 55
2,126854, Control_c, 0, 64, 66
2,126873, Control_c, 0, 64, 71
2,126892, Control_c, 0, 64, 75
2,126911, Control_c, 0, 64, 77
2,126922, Note_on_c, 0, 71, 0
2,126930, Control_c, 0, 64, 78
2,126950, Control_c, 0, 64, 79
2,126956, Note_on_c, 0, 65, 0
2,126968, Control_c, 0, 64, 80
2,126984, Note_on_c, 0, 50, 72
2,127007, Control_c, 0, 64, 80
2,127020, Note_on_c, 0, 56, 0
2,127026, Note_on_c, 0, 51, 0
2,127069, Note_on_c, 0, 50, 0
2,127122, Control_c, 0, 64, 81
2,127142, Control_c, 0, 64, 83
2,127161, Control_c, 0, 64, 85
2,127180, Control_c, 0, 64, 86
2,127199, Control_c, 0, 64, 77
2,127202, Note_on_c, 0, 62, 72
2,127204, Note_on_c, 0, 63, 72
2,127219, Control_c, 0, 64, 61
2,127219, Note_on_c, 0, 47, 62
2,127233, Note_on_c, 0, 70, 50
2,127238, Control_c, 0, 64, 24
2,127257, Control_c, 0, 64, 0
2,127282, Note_on_c, 0, 62, 0
2,127296, Control_c, 0, 64, 45
2,127314, Control_c, 0, 64, 64
2,127321, Note_on_c, 0, 70, 0
2,127334, Control_c, 0, 64, 68
2,127353, Control_c, 0, 64, 71
2,127372, Control_c, 0, 64, 72
2,127391, Control_c, 0, 64, 72
2,127430, Control_c, 0, 64, 72
2,127434, Note_on_c, 0, 65, 67
2,127437, Note_on_c, 0, 46, 60
2,127448, Control_c, 0, 64, 71
2,127460, Note_on_c, 0, 47, 0
2,127487, Control_c, 0, 64, 71
2,127494, Note_on_c, 0, 63, 0
2,127545, Control_c, 0, 64, 71
2,127584, Control_c, 0, 64, 72
2,127622, Control_c, 0, 64, 73
2,127641, Control_c, 0, 64, 70
2,127648, Note_on_c, 0, 63, 69
2,127658, Note_on_c, 0, 70, 75
2,127662, Control_c, 0, 64, 60
2,127677, Note_on_c, 0, 44, 62
2,127681, Control_c, 0, 64, 0
2,127714, Note_on_c, 0, 46, 0
2,127714, Note_on_c, 0, 65, 0
2,127722, Note_on_c, 0, 66, 42
2,127745, Note_on_c, 0, 68, 30
2,127758, Control_c, 0, 64, 34
2,127761, Note_on_c, 0, 70, 0
2,127778, Control_c, 0, 64, 62
2,127779, Note_on_c, 0, 68, 0
2,127796, Control_c, 0, 64, 64
2,127809, Note_on_c, 0, 66, 0
2,127816, Control_c, 0, 64, 63
2,127866, Note_on_c, 0, 63, 0
2,127905, Note_on_c, 0, 42, 63
2,127912, Control_c, 0, 64, 63
2,127917, Note_on_c, 0, 44, 0
2,127930, Control_c, 0, 64, 62
2,127988, Control_c, 0, 64, 63
2,128007, Control_c, 0, 64, 63
2,128027, Control_c, 0, 64, 64
2,128065, Control_c, 0, 64, 62
2,128084, Control_c, 0, 64, 46
2,128104, Control_c, 0, 64, 0
2,128115, Note_on_c, 0, 63, 76
2,128120, Note_on_c, 0, 54, 70
2,128132, Note_on_c, 0, 44, 66
2,128146, Note_on_c, 0, 42, 0
2,128181, Control_c, 0, 64, 44
2,128199, Control_c, 0, 64, 62
2,128219, Control_c, 0, 64, 65
2,128238, Control_c, 0, 64, 65
2,128258, Control_c, 0, 64, 65
2,128322, Note_on_c, 0, 54, 0
2,128334, Control_c, 0, 64, 64
2,128353, Control_c, 0, 64, 64
2,128356, Note_on_c, 0, 46, 74
2,128365, Note_on_c, 0, 63, 0
2,128372, Control_c, 0, 64, 63
2,128399, Note_on_c, 0, 44, 0
2,128468, Control_c, 0, 64, 63
2,128526, Control_c, 0, 64, 62
2,128545, Control_c, 0, 64, 61
2,128564, Control_c, 0, 64, 60
2,128584, Control_c, 0, 64, 59
2,128602, Note_on_c, 0, 68, 76
2,128603, Control_c, 0, 64, 59
2,128612, Note_on_c, 0, 56, 71
2,128622, Note_on_c, 0, 65, 55
2,128626, Note_on_c, 0, 47, 64
2,128633, Note_on_c, 0, 46, 0
2,128640, Control_c, 0, 64, 58
2,128660, Control_c, 0, 64, 58
2,128698, Control_c, 0, 64, 57
2,128717, Control_c, 0, 64, 57
2,128737, Control_c, 0, 64, 56
2,128755, Control_c, 0, 64, 55
2,128775, Control_c, 0, 64, 55
2,128810, Note_on_c, 0, 56, 0
2,128814, Control_c, 0, 64, 54
2,128851, Note_on_c, 0, 65, 0
2,128889, Control_c, 0, 64, 54
2,128909, Control_c, 0, 64, 53
2,128928, Control_c, 0, 64, 51
2,128948, Control_c, 0, 64, 48
2,128966, Control_c, 0, 64, 45
2,128986, Control_c, 0, 64, 43
2,129005, Control_c, 0, 64, 42
2,129043, Control_c, 0, 64, 41
2,129063, Control_c, 0, 64, 40
2,129082, Control_c, 0, 64, 39
2,129083, Note_on_c, 0, 56, 73
2,129101, Control_c, 0, 64, 38
2,129120, Control_c, 0, 64, 36
2,129140, Control_c, 0, 64, 33
2,129158, Control_c, 0, 64, 30
2,129178, Control_c, 0, 64, 27
2,129197, Control_c, 0, 64, 23
2,129217, Control_c, 0, 64, 19
2,129235, Control_c, 0, 64, 13
2,129255, Control_c, 0, 64, 0
2,129260, Note_on_c, 0, 56, 0
2,129536, Note_on_c, 0, 58, 60
2,129542, Note_on_c, 0, 62, 57
2,129560, Note_on_c, 0, 46, 55
2,129643, Note_on_c, 0, 47, 0
2,129714, Note_on_c, 0, 58, 0
2,129772, Note_on_c, 0, 62, 0
2,129987, Note_on_c, 0, 58, 65
2,130010, Note_on_c, 0, 44, 58
2,130116, Note_on_c, 0, 46, 0
2,130173, Note_on_c, 0, 58, 0
2,130484, Note_on_c, 0, 51, 60
2,130493, Note_on_c, 0, 63, 56
2,130507, Note_on_c, 0, 42, 53
2,130563, Note_on_c, 0, 44, 0
2,130924, Control_c, 0, 64, 24
2,130944, Control_c, 0, 64, 32
2,130947, Note_on_c, 0, 42, 0
2,130947, Note_on_c, 0, 61, 63
2,130950, Note_on_c, 0, 46, 49
2,130962, Control_c, 0, 64, 36
2,130982, Control_c, 0, 64, 40
2,131001, Control_c, 0, 64, 43
2,131020, Control_c, 0, 64, 45
2,131025, Note_on_c, 0, 63, 0
2,131029, Note_on_c, 0, 68, 0
2,131039, Control_c, 0, 64, 46
2,131059, Control_c, 0, 64, 47
2,131078, Control_c, 0, 64, 48
2,131097, Control_c, 0, 64, 51
2,131116, Control_c, 0, 64, 53
2,131136, Control_c, 0, 64, 54
2,131168, Note_on_c, 0, 59, 71
2,131173, Control_c, 0, 64, 55
2,131178, Note_on_c, 0, 61, 0
2,131212, Control_c, 0, 64, 54
2,131250, Control_c, 0, 64, 54
2,131270, Control_c, 0, 64, 53
2,131288, Control_c, 0, 64, 53
2,131308, Control_c, 0, 64, 52
2,131320, Note_on_c, 0, 51, 0
2,131327, Control_c, 0, 64, 52
2,131347, Control_c, 0, 64, 51
2,131365, Control_c, 0, 64, 50
2,131385, Control_c, 0, 64, 50
2,131404, Control_c, 0, 64, 48
2,131424, Control_c, 0, 64, 47
2,131440, Note_on_c, 0, 66, 56
2,131442, Control_c, 0, 64, 46
2,131449, Note_on_c, 0, 39, 44
2,131453, Note_on_c, 0, 46, 0
2,131456, Note_on_c, 0, 58, 59
2,131462, Control_c, 0, 64, 46
2,131481, Control_c, 0, 64, 45
2,131518, Note_on_c, 0, 59, 0
2,131640, Control_c, 0, 64, 43
2,131653, Control_c, 0, 64, 27
2,131673, Control_c, 0, 64, 0
2,131827, Control_c, 0, 64, 18
2,131845, Control_c, 0, 64, 47
2,131865, Control_c, 0, 64, 56
2,131884, Control_c, 0, 64, 58
2,131904, Control_c, 0, 64, 59
2,131916, Note_on_c, 0, 59, 66
2,131922, Control_c, 0, 64, 60
2,131933, Note_on_c, 0, 51, 48
2,131942, Control_c, 0, 64, 61
2,131942, Note_on_c, 0, 39, 0
2,131954, Note_on_c, 0, 58, 0
2,131961, Control_c, 0, 64, 63
2,131980, Control_c, 0, 64, 63
2,132005, Note_on_c, 0, 66, 0
2,132172, Control_c, 0, 64, 63
2,132210, Control_c, 0, 64, 62
2,132248, Control_c, 0, 64, 62
2,132268, Control_c, 0, 64, 61
2,132287, Control_c, 0, 64, 61
2,132307, Control_c, 0, 64, 60
2,132325, Control_c, 0, 64, 60
2,132364, Control_c, 0, 64, 59
2,132384, Control_c, 0, 64, 58
2,132398, Note_on_c, 0, 64, 56
2,132400, Note_on_c, 0, 61, 54
2,132402, Control_c, 0, 64, 57
2,132402, Note_on_c, 0, 52, 46
2,132422, Control_c, 0, 64, 56
2,132425, Note_on_c, 0, 51, 0
2,132441, Control_c, 0, 64, 54
2,132460, Control_c, 0, 64, 53
2,132479, Control_c, 0, 64, 51
2,132491, Note_on_c, 0, 59, 0
2,132499, Control_c, 0, 64, 49
2,132518, Control_c, 0, 64, 46
2,132537, Control_c, 0, 64, 45
2,132556, Control_c, 0, 64, 45
2,132590, Note_on_c, 0, 52, 0
2,132594, Control_c, 0, 64, 44
2,132612, Control_c, 0, 64, 43
2,132632, Control_c, 0, 64, 43
2,132728, Control_c, 0, 64, 43
2,132747, Control_c, 0, 64, 44
2,132766, Note_on_c, 0, 61, 0
2,132843, Control_c, 0, 64, 44
2,132863, Control_c, 0, 64, 45
2,132874, Note_on_c, 0, 52, 53
2,132901, Control_c, 0, 64, 45
2,132939, Control_c, 0, 64, 46
2,133049, Note_on_c, 0, 52, 0
2,133246, Control_c, 0, 64, 46
2,133347, Note_on_c, 0, 58, 55
2,133358, Note_on_c, 0, 54, 42
2,133381, Control_c, 0, 64, 47
2,133439, Control_c, 0, 64, 47
2,133459, Control_c, 0, 64, 48
2,133478, Control_c, 0, 64, 49
2,133497, Control_c, 0, 64, 49
2,133516, Control_c, 0, 64, 50
2,133536, Control_c, 0, 64, 50
2,133544, Note_on_c, 0, 54, 0
2,133554, Control_c, 0, 64, 51
2,133572, Control_c, 0, 64, 52
2,133592, Control_c, 0, 64, 52
2,133611, Control_c, 0, 64, 53
2,133649, Control_c, 0, 64, 53
2,133726, Control_c, 0, 64, 54
2,133804, Note_on_c, 0, 58, 0
2,133820, Note_on_c, 0, 54, 48
2,133823, Control_c, 0, 64, 54
2,133861, Control_c, 0, 64, 55
2,133880, Control_c, 0, 64, 55
2,133899, Control_c, 0, 64, 56
2,133918, Control_c, 0, 64, 58
2,133938, Control_c, 0, 64, 59
2,133957, Control_c, 0, 64, 60
2,133976, Control_c, 0, 64, 61
2,134015, Control_c, 0, 64, 61
2,134052, Control_c, 0, 64, 61
2,134088, Note_on_c, 0, 54, 0
2,134110, Control_c, 0, 64, 60
2,134149, Control_c, 0, 64, 60
2,134226, Control_c, 0, 64, 60
2,134264, Control_c, 0, 64, 60
2,134283, Control_c, 0, 64, 57
2,134288, Note_on_c, 0, 47, 39
2,134294, Note_on_c, 0, 59, 55
2,134303, Control_c, 0, 64, 49
2,134321, Control_c, 0, 64, 42
2,134341, Control_c, 0, 64, 40
2,134360, Control_c, 0, 64, 41
2,134380, Control_c, 0, 64, 48
2,134399, Control_c, 0, 64, 56
2,134410, Note_on_c, 0, 64, 0
2,134419, Control_c, 0, 64, 60
2,134438, Control_c, 0, 64, 61
2,134457, Control_c, 0, 64, 62
2,134476, Control_c, 0, 64, 63
2,134496, Control_c, 0, 64, 63
2,134514, Control_c, 0, 64, 64
2,134514, Note_on_c, 0, 51, 40
2,134619, Note_on_c, 0, 47, 0
2,134668, Control_c, 0, 64, 64
2,134707, Control_c, 0, 64, 65
2,134725, Control_c, 0, 64, 65
2,134745, Control_c, 0, 64, 65
2,134747, Note_on_c, 0, 63, 63
2,134764, Control_c, 0, 64, 63
2,134774, Note_on_c, 0, 51, 0
2,134776, Note_on_c, 0, 52, 43
2,134784, Control_c, 0, 64, 57
2,134802, Control_c, 0, 64, 44
2,134822, Control_c, 0, 64, 39
2,134841, Control_c, 0, 64, 40
2,134860, Control_c, 0, 64, 47
2,134879, Control_c, 0, 64, 58
2,134899, Control_c, 0, 64, 61
2,134918, Control_c, 0, 64, 62
2,134969, Note_on_c, 0, 54, 58
2,134986, Note_on_c, 0, 52, 0
2,135033, Control_c, 0, 64, 61
2,135060, Note_on_c, 0, 54, 0
2,135148, Control_c, 0, 64, 62
2,135187, Control_c, 0, 64, 62
2,135201, Note_on_c, 0, 59, 0
2,135225, Control_c, 0, 64, 61
2,135225, Note_on_c, 0, 71, 65
2,135229, Note_on_c, 0, 56, 53
2,135244, Control_c, 0, 64, 58
2,135264, Control_c, 0, 64, 50
2,135282, Control_c, 0, 64, 38
2,135302, Control_c, 0, 64, 35
2,135320, Note_on_c, 0, 63, 0
2,135321, Control_c, 0, 64, 36
2,135342, Control_c, 0, 64, 48
2,135361, Control_c, 0, 64, 55
2,135381, Control_c, 0, 64, 57
2,135399, Control_c, 0, 64, 58
2,135419, Control_c, 0, 64, 59
2,135438, Control_c, 0, 64, 60
2,135476, Control_c, 0, 64, 60
2,135551, Control_c, 0, 64, 61
2,135590, Control_c, 0, 64, 62
2,135608, Control_c, 0, 64, 62
2,135628, Control_c, 0, 64, 63
2,135667, Control_c, 0, 64, 61
2,135667, Note_on_c, 0, 59, 57
2,135684, Note_on_c, 0, 44, 49
2,135685, Control_c, 0, 64, 56
2,135705, Control_c, 0, 64, 44
2,135724, Control_c, 0, 64, 34
2,135744, Control_c, 0, 64, 33
2,135762, Control_c, 0, 64, 38
2,135782, Control_c, 0, 64, 46
2,135801, Control_c, 0, 64, 49
2,135820, Control_c, 0, 64, 53
2,135839, Control_c, 0, 64, 57
2,135859, Control_c, 0, 64, 59
2,135860, Note_on_c, 0, 59, 0
2,135868, Note_on_c, 0, 44, 0
2,135916, Control_c, 0, 64, 60
2,135936, Control_c, 0, 64, 60
2,135954, Control_c, 0, 64, 61
2,135993, Control_c, 0, 64, 61
2,136088, Control_c, 0, 64, 59
2,136108, Control_c, 0, 64, 54
2,136125, Control_c, 0, 64, 41
2,136125, Note_on_c, 0, 61, 63
2,136135, Note_on_c, 0, 45, 54
2,136144, Control_c, 0, 64, 22
2,136162, Control_c, 0, 64, 0
2,136239, Control_c, 0, 64, 27
2,136259, Control_c, 0, 64, 40
2,136278, Control_c, 0, 64, 51
2,136297, Control_c, 0, 64, 56
2,136297, Note_on_c, 0, 45, 0
2,136316, Control_c, 0, 64, 56
2,136336, Control_c, 0, 64, 57
2,136353, Note_on_c, 0, 61, 0
2,136355, Control_c, 0, 64, 58
2,136374, Control_c, 0, 64, 60
2,136393, Control_c, 0, 64, 60
2,136451, Control_c, 0, 64, 61
2,136470, Control_c, 0, 64, 62
2,136490, Control_c, 0, 64, 63
2,136508, Control_c, 0, 64, 63
2,136566, Control_c, 0, 64, 62
2,136585, Control_c, 0, 64, 55
2,136586, Note_on_c, 0, 61, 68
2,136595, Note_on_c, 0, 45, 57
2,136605, Control_c, 0, 64, 41
2,136624, Control_c, 0, 64, 32
2,136642, Control_c, 0, 64, 33
2,136662, Control_c, 0, 64, 48
2,136681, Control_c, 0, 64, 62
2,136701, Control_c, 0, 64, 66
2,136719, Control_c, 0, 64, 67
2,136739, Control_c, 0, 64, 66
2,136748, Note_on_c, 0, 45, 0
2,136753, Note_on_c, 0, 71, 0
2,136768, Note_on_c, 0, 61, 0
2,136816, Control_c, 0, 64, 66
2,136835, Control_c, 0, 64, 65
2,136850, Note_on_c, 0, 56, 0
2,136873, Control_c, 0, 64, 65
2,137008, Control_c, 0, 64, 64
2,137027, Control_c, 0, 64, 63
2,137046, Control_c, 0, 64, 57
2,137047, Note_on_c, 0, 69, 80
2,137065, Control_c, 0, 64, 46
2,137070, Note_on_c, 0, 63, 62
2,137072, Note_on_c, 0, 54, 57
2,137078, Note_on_c, 0, 47, 57
2,137085, Control_c, 0, 64, 38
2,137104, Control_c, 0, 64, 35
2,137161, Control_c, 0, 64, 37
2,137181, Control_c, 0, 64, 39
2,137199, Control_c, 0, 64, 41
2,137219, Control_c, 0, 64, 44
2,137238, Control_c, 0, 64, 48
2,137259, Control_c, 0, 64, 51
2,137264, Note_on_c, 0, 63, 0
2,137312, Note_on_c, 0, 47, 0
2,137375, Control_c, 0, 64, 51
2,137393, Control_c, 0, 64, 50
2,137411, Control_c, 0, 64, 49
2,137430, Control_c, 0, 64, 47
2,137450, Control_c, 0, 64, 44
2,137468, Control_c, 0, 64, 42
2,137520, Note_on_c, 0, 63, 67
2,137526, Control_c, 0, 64, 44
2,137526, Note_on_c, 0, 47, 59
2,137545, Control_c, 0, 64, 50
2,137565, Control_c, 0, 64, 58
2,137584, Control_c, 0, 64, 63
2,137602, Control_c, 0, 64, 66
2,137622, Control_c, 0, 64, 69
2,137641, Control_c, 0, 64, 71
2,137661, Control_c, 0, 64, 73
2,137675, Note_on_c, 0, 54, 0
2,137679, Control_c, 0, 64, 74
2,137708, Note_on_c, 0, 47, 0
2,137718, Control_c, 0, 64, 74
2,137718, Note_on_c, 0, 63, 0
2,137756, Control_c, 0, 64, 73
2,137776, Control_c, 0, 64, 73
2,137795, Control_c, 0, 64, 72
2,137814, Control_c, 0, 64, 71
2,137833, Control_c, 0, 64, 70
2,137853, Control_c, 0, 64, 69
2,137871, Control_c, 0, 64, 68
2,137891, Control_c, 0, 64, 67
2,137910, Control_c, 0, 64, 66
2,137930, Control_c, 0, 64, 66
2,137948, Control_c, 0, 64, 65
2,137968, Control_c, 0, 64, 65
2,138006, Control_c, 0, 64, 64
2,138010, Note_on_c, 0, 64, 63
2,138011, Note_on_c, 0, 52, 43
2,138013, Note_on_c, 0, 40, 47
2,138025, Control_c, 0, 64, 63
2,138045, Control_c, 0, 64, 61
2,138064, Control_c, 0, 64, 56
2,138082, Control_c, 0, 64, 44
2,138102, Control_c, 0, 64, 21
2,138121, Control_c, 0, 64, 0
2,138198, Control_c, 0, 64, 9
2,138219, Control_c, 0, 64, 50
2,138237, Note_on_c, 0, 59, 69
2,138238, Control_c, 0, 64, 61
2,138258, Control_c, 0, 64, 63
2,138275, Note_on_c, 0, 64, 0
2,138335, Control_c, 0, 64, 63
2,138347, Note_on_c, 0, 52, 0
2,138353, Note_on_c, 0, 40, 0
2,138466, Note_on_c, 0, 61, 70
2,138523, Control_c, 0, 64, 63
2,138543, Control_c, 0, 64, 62
2,138544, Note_on_c, 0, 69, 0
2,138550, Note_on_c, 0, 59, 0
2,138581, Control_c, 0, 64, 62
2,138638, Control_c, 0, 64, 61
2,138658, Control_c, 0, 64, 61
2,138670, Note_on_c, 0, 63, 76
2,138715, Control_c, 0, 64, 60
2,138735, Control_c, 0, 64, 60
2,138739, Note_on_c, 0, 61, 0
2,138754, Control_c, 0, 64, 59
2,138773, Control_c, 0, 64, 59
2,138812, Control_c, 0, 64, 58
2,138831, Control_c, 0, 64, 58
2,138850, Control_c, 0, 64, 57
2,138869, Control_c, 0, 64, 55
2,138889, Control_c, 0, 64, 51
2,138907, Control_c, 0, 64, 47
2,138927, Control_c, 0, 64, 46
2,138927, Note_on_c, 0, 52, 60
2,138936, Note_on_c, 0, 64, 71
2,138944, Note_on_c, 0, 63, 0
2,138946, Control_c, 0, 64, 45
2,139003, Control_c, 0, 64, 45
2,139023, Control_c, 0, 64, 47
2,139041, Control_c, 0, 64, 49
2,139061, Control_c, 0, 64, 52
2,139080, Control_c, 0, 64, 54
2,139100, Control_c, 0, 64, 55
2,139118, Control_c, 0, 64, 56
2,139138, Control_c, 0, 64, 56
2,139157, Control_c, 0, 64, 57
2,139177, Control_c, 0, 64, 57
2,139196, Control_c, 0, 64, 58
2,139216, Control_c, 0, 64, 58
2,139235, Control_c, 0, 64, 59
2,139254, Control_c, 0, 64, 59
2,139273, Control_c, 0, 64, 60
2,139293, Control_c, 0, 64, 60
2,139311, Control_c, 0, 64, 61
2,139331, Control_c, 0, 64, 61
2,139388, Control_c, 0, 64, 59
2,139388, Note_on_c, 0, 59, 66
2,139394, Note_on_c, 0, 68, 78
2,139408, Control_c, 0, 64, 52
2,139427, Control_c, 0, 64, 39
2,139446, Control_c, 0, 64, 29
2,139465, Control_c, 0, 64, 27
2,139492, Note_on_c, 0, 64, 0
2,139504, Control_c, 0, 64, 36
2,139522, Control_c, 0, 64, 49
2,139545, Control_c, 0, 64, 59
2,139564, Control_c, 0, 64, 62
2,139580, Note_on_c, 0, 68, 0
2,139602, Control_c, 0, 64, 62
2,139622, Control_c, 0, 64, 62
2,139775, Control_c, 0, 64, 62
2,139794, Control_c, 0, 64, 60
2,139813, Control_c, 0, 64, 56
2,139833, Control_c, 0, 64, 53
2,139838, Note_on_c, 0, 70, 80
2,139845, Note_on_c, 0, 66, 68
2,139852, Control_c, 0, 64, 52
2,139862, Note_on_c, 0, 61, 65
2,139871, Control_c, 0, 64, 51
2,139876, Note_on_c, 0, 59, 0
2,140005, Control_c, 0, 64, 52
2,140025, Control_c, 0, 64, 52
2,140064, Control_c, 0, 64, 53
2,140079, Note_on_c, 0, 70, 0
2,140082, Control_c, 0, 64, 53
2,140102, Control_c, 0, 64, 54
2,140106, Note_on_c, 0, 61, 0
2,140142, Control_c, 0, 64, 53
2,140181, Control_c, 0, 64, 53
2,140199, Control_c, 0, 64, 51
2,140219, Control_c, 0, 64, 50
2,140238, Control_c, 0, 64, 48
2,140258, Control_c, 0, 64, 46
2,140276, Control_c, 0, 64, 42
2,140294, Control_c, 0, 64, 37
2,140314, Control_c, 0, 64, 37
2,140324, Note_on_c, 0, 70, 78
2,140331, Note_on_c, 0, 61, 57
2,140333, Control_c, 0, 64, 40
2,140352, Control_c, 0, 64, 53
2,140371, Control_c, 0, 64, 62
2,140391, Control_c, 0, 64, 64
2,140409, Control_c, 0, 64, 63
2,140468, Control_c, 0, 64, 64
2,140537, Note_on_c, 0, 70, 0
2,140538, Note_on_c, 0, 52, 0
2,140563, Control_c, 0, 64, 63
2,140599, Note_on_c, 0, 61, 0
2,140602, Control_c, 0, 64, 63
2,140660, Control_c, 0, 64, 62
2,140698, Control_c, 0, 64, 61
2,140717, Control_c, 0, 64, 62
2,140774, Control_c, 0, 64, 58
2,140793, Note_on_c, 0, 72, 81
2,140794, Control_c, 0, 64, 43
2,140799, Note_on_c, 0, 63, 55
2,140803, Note_on_c, 0, 51, 61
2,140813, Control_c, 0, 64, 0
2,140986, Control_c, 0, 64, 15
2,141001, Note_on_c, 0, 72, 0
2,141005, Control_c, 0, 64, 32
2,141024, Control_c, 0, 64, 45
2,141026, Note_on_c, 0, 63, 0
2,141043, Control_c, 0, 64, 53
2,141063, Control_c, 0, 64, 54
2,141082, Control_c, 0, 64, 54
2,141145, Control_c, 0, 64, 55
2,141164, Control_c, 0, 64, 55
2,141184, Control_c, 0, 64, 56
2,141203, Control_c, 0, 64, 56
2,141222, Control_c, 0, 64, 57
2,141241, Control_c, 0, 64, 59
2,141253, Note_on_c, 0, 72, 85
2,141254, Control_c, 0, 64, 61
2,141274, Control_c, 0, 64, 62
2,141278, Note_on_c, 0, 63, 64
2,141293, Control_c, 0, 64, 62
2,141312, Control_c, 0, 64, 63
2,141331, Control_c, 0, 64, 63
2,141351, Control_c, 0, 64, 64
2,141362, Note_on_c, 0, 63, 0
2,141388, Note_on_c, 0, 51, 0
2,141389, Control_c, 0, 64, 64
2,141408, Control_c, 0, 64, 65
2,141447, Note_on_c, 0, 72, 0
2,141543, Control_c, 0, 64, 64
2,141658, Control_c, 0, 64, 64
2,141734, Control_c, 0, 64, 63
2,141740, Note_on_c, 0, 73, 80
2,141743, Note_on_c, 0, 56, 59
2,141746, Note_on_c, 0, 49, 60
2,141754, Control_c, 0, 64, 58
2,141773, Control_c, 0, 64, 42
2,141792, Control_c, 0, 64, 15
2,141811, Control_c, 0, 64, 0
2,141814, Note_on_c, 0, 66, 0
2,141831, Control_c, 0, 64, 11
2,141849, Control_c, 0, 64, 40
2,141869, Control_c, 0, 64, 57
2,141888, Control_c, 0, 64, 61
2,141908, Control_c, 0, 64, 62
2,141926, Control_c, 0, 64, 62
2,141946, Control_c, 0, 64, 63
2,141988, Note_on_c, 0, 63, 65
2,142122, Control_c, 0, 64, 63
2,142133, Note_on_c, 0, 63, 0
2,142161, Control_c, 0, 64, 64
2,142199, Control_c, 0, 64, 63
2,142209, Note_on_c, 0, 51, 57
2,142216, Control_c, 0, 64, 57
2,142219, Note_on_c, 0, 64, 68
2,142236, Control_c, 0, 64, 41
2,142255, Control_c, 0, 64, 27
2,142274, Control_c, 0, 64, 25
2,142293, Control_c, 0, 64, 33
2,142313, Control_c, 0, 64, 50
2,142331, Control_c, 0, 64, 57
2,142351, Control_c, 0, 64, 58
2,142370, Control_c, 0, 64, 58
2,142375, Note_on_c, 0, 56, 0
2,142390, Control_c, 0, 64, 59
2,142408, Control_c, 0, 64, 60
2,142426, Note_on_c, 0, 49, 0
2,142428, Control_c, 0, 64, 60
2,142437, Note_on_c, 0, 66, 69
2,142466, Control_c, 0, 64, 60
2,142516, Note_on_c, 0, 64, 0
2,142562, Control_c, 0, 64, 60
2,142581, Control_c, 0, 64, 61
2,142619, Control_c, 0, 64, 59
2,142639, Control_c, 0, 64, 40
2,142658, Control_c, 0, 64, 0
2,142664, Note_on_c, 0, 52, 60
2,142672, Note_on_c, 0, 68, 74
2,142704, Note_on_c, 0, 51, 0
2,142717, Note_on_c, 0, 73, 0
2,142739, Note_on_c, 0, 66, 0
2,142754, Control_c, 0, 64, 56
2,142773, Control_c, 0, 64, 66
2,142793, Control_c, 0, 64, 68
2,142811, Control_c, 0, 64, 70
2,142831, Control_c, 0, 64, 71
2,142850, Control_c, 0, 64, 71
2,142870, Control_c, 0, 64, 72
2,142888, Control_c, 0, 64, 73
2,142891, Note_on_c, 0, 68, 0
2,142907, Control_c, 0, 64, 73
2,143137, Control_c, 0, 64, 70
2,143144, Note_on_c, 0, 73, 78
2,143157, Control_c, 0, 64, 62
2,143163, Note_on_c, 0, 54, 56
2,143174, Control_c, 0, 64, 19
2,143178, Note_on_c, 0, 66, 53
2,143194, Control_c, 0, 64, 0
2,143232, Control_c, 0, 64, 21
2,143251, Control_c, 0, 64, 59
2,143254, Note_on_c, 0, 52, 0
2,143271, Control_c, 0, 64, 67
2,143290, Control_c, 0, 64, 72
2,143309, Control_c, 0, 64, 77
2,143328, Control_c, 0, 64, 78
2,143363, Note_on_c, 0, 64, 64
2,143366, Control_c, 0, 64, 78
2,143385, Control_c, 0, 64, 79
2,143405, Control_c, 0, 64, 80
2,143421, Note_on_c, 0, 64, 0
2,143422, Note_on_c, 0, 73, 0
2,143432, Note_on_c, 0, 66, 0
2,143501, Control_c, 0, 64, 79
2,143539, Control_c, 0, 64, 80
2,143577, Control_c, 0, 64, 78
2,143597, Control_c, 0, 64, 70
2,143603, Note_on_c, 0, 72, 79
2,143616, Control_c, 0, 64, 56
2,143634, Note_on_c, 0, 63, 51
2,143636, Control_c, 0, 64, 0
2,143637, Note_on_c, 0, 56, 51
2,143639, Note_on_c, 0, 54, 0
2,143712, Control_c, 0, 64, 52
2,143731, Control_c, 0, 64, 67
2,143751, Control_c, 0, 64, 71
2,143770, Control_c, 0, 64, 74
2,143782, Note_on_c, 0, 63, 0
2,143789, Control_c, 0, 64, 75
2,143819, Note_on_c, 0, 72, 0
2,143904, Control_c, 0, 64, 74
2,143942, Control_c, 0, 64, 74
2,143962, Control_c, 0, 64, 73
2,144022, Control_c, 0, 64, 72
2,144041, Control_c, 0, 64, 71
2,144060, Control_c, 0, 64, 69
2,144072, Note_on_c, 0, 73, 77
2,144080, Control_c, 0, 64, 68
2,144081, Note_on_c, 0, 68, 65
2,144091, Note_on_c, 0, 58, 56
2,144099, Control_c, 0, 64, 66
2,144118, Control_c, 0, 64, 66
2,144134, Control_c, 0, 64, 65
2,144154, Control_c, 0, 64, 65
2,144173, Control_c, 0, 64, 64
2,144211, Control_c, 0, 64, 64
2,144250, Control_c, 0, 64, 63
2,144269, Control_c, 0, 64, 63
2,144285, Note_on_c, 0, 75, 82
2,144288, Control_c, 0, 64, 62
2,144304, Note_on_c, 0, 60, 65
2,144307, Control_c, 0, 64, 62
2,144326, Control_c, 0, 64, 61
2,144341, Note_on_c, 0, 58, 0
2,144374, Note_on_c, 0, 73, 0
2,144519, Control_c, 0, 64, 61
2,144537, Control_c, 0, 64, 59
2,144557, Control_c, 0, 64, 50
2,144566, Note_on_c, 0, 76, 79
2,144576, Control_c, 0, 64, 20
2,144583, Note_on_c, 0, 61, 65
2,144596, Control_c, 0, 64, 0
2,144633, Note_on_c, 0, 60, 0
2,144691, Control_c, 0, 64, 9
2,144711, Control_c, 0, 64, 55
2,144730, Control_c, 0, 64, 63
2,144749, Control_c, 0, 64, 64
2,144777, Note_on_c, 0, 68, 0
2,144781, Note_on_c, 0, 75, 0
2,144806, Control_c, 0, 64, 65
2,144817, Note_on_c, 0, 76, 0
2,145000, Control_c, 0, 64, 65
2,145018, Control_c, 0, 64, 66
2,145023, Note_on_c, 0, 75, 80
2,145043, Note_on_c, 0, 67, 52
2,145052, Note_on_c, 0, 63, 53
2,145057, Control_c, 0, 64, 62
2,145077, Control_c, 0, 64, 50
2,145094, Note_on_c, 0, 67, 0
2,145095, Control_c, 0, 64, 25
2,145115, Control_c, 0, 64, 20
2,145119, Note_on_c, 0, 61, 0
2,145134, Control_c, 0, 64, 28
2,145153, Control_c, 0, 64, 53
2,145172, Control_c, 0, 64, 63
2,145192, Control_c, 0, 64, 66
2,145211, Control_c, 0, 64, 66
2,145249, Control_c, 0, 64, 67
2,145263, Note_on_c, 0, 68, 68
2,145306, Control_c, 0, 64, 66
2,145421, Control_c, 0, 64, 67
2,145441, Control_c, 0, 64, 67
2,145448, Note_on_c, 0, 63, 0
2,145480, Control_c, 0, 64, 66
2,145498, Control_c, 0, 64, 61
2,145503, Note_on_c, 0, 64, 56
2,145503, Note_on_c, 0, 73, 74
2,145517, Note_on_c, 0, 70, 51
2,145518, Control_c, 0, 64, 18
2,145520, Note_on_c, 0, 68, 0
2,145537, Control_c, 0, 64, 0
2,145563, Note_on_c, 0, 75, 0
2,145579, Note_on_c, 0, 70, 0
2,145614, Control_c, 0, 64, 51
2,145633, Control_c, 0, 64, 66
2,145652, Control_c, 0, 64, 71
2,145672, Control_c, 0, 64, 74
2,145691, Control_c, 0, 64, 76
2,145710, Control_c, 0, 64, 78
2,145729, Control_c, 0, 64, 81
2,145749, Control_c, 0, 64, 84
2,145749, Note_on_c, 0, 73, 0
2,145767, Control_c, 0, 64, 87
2,145786, Control_c, 0, 64, 91
2,145806, Control_c, 0, 64, 95
2,145825, Control_c, 0, 64, 100
2,145844, Control_c, 0, 64, 106
2,145863, Control_c, 0, 64, 116
2,145883, Control_c, 0, 64, 127
2,146009, Note_on_c, 0, 79, 83
2,146024, Note_on_c, 0, 68, 64
2,146038, Control_c, 0, 64, 95
2,146054, Control_c, 0, 64, 70
2,146071, Note_on_c, 0, 68, 0
2,146074, Control_c, 0, 64, 60
2,146093, Control_c, 0, 64, 59
2,146112, Control_c, 0, 64, 63
2,146131, Control_c, 0, 64, 69
2,146151, Control_c, 0, 64, 79
2,146170, Control_c, 0, 64, 95
2,146189, Control_c, 0, 64, 108
2,146208, Control_c, 0, 64, 108
2,146227, Control_c, 0, 64, 109
2,146246, Control_c, 0, 64, 110
2,146249, Note_on_c, 0, 70, 76
2,146265, Control_c, 0, 64, 113
2,146285, Control_c, 0, 64, 115
2,146316, Note_on_c, 0, 79, 0
2,146323, Control_c, 0, 64, 114
2,146342, Control_c, 0, 64, 110
2,146362, Control_c, 0, 64, 107
2,146381, Control_c, 0, 64, 104
2,146400, Control_c, 0, 64, 101
2,146419, Control_c, 0, 64, 98
2,146439, Control_c, 0, 64, 97
2,146457, Control_c, 0, 64, 95
2,146477, Control_c, 0, 64, 89
2,146496, Control_c, 0, 64, 83
2,146516, Control_c, 0, 64, 77
2,146520, Note_on_c, 0, 70, 0
2,146531, Note_on_c, 0, 80, 83
2,146534, Control_c, 0, 64, 72
2,146536, Note_on_c, 0, 71, 51
2,146554, Control_c, 0, 64, 68
2,146557, Note_on_c, 0, 63, 53
2,146573, Control_c, 0, 64, 66
2,146592, Control_c, 0, 64, 64
2,146592, Note_on_c, 0, 64, 0
2,146611, Control_c, 0, 64, 63
2,146631, Control_c, 0, 64, 62
2,146650, Control_c, 0, 64, 61
2,146669, Control_c, 0, 64, 59
2,146688, Control_c, 0, 64, 58
2,146726, Control_c, 0, 64, 58
2,146745, Control_c, 0, 64, 59
2,146765, Control_c, 0, 64, 59
2,146780, Note_on_c, 0, 71, 0
2,146784, Control_c, 0, 64, 61
2,146803, Control_c, 0, 64, 61
2,146818, Note_on_c, 0, 80, 0
2,146822, Control_c, 0, 64, 62
2,146842, Control_c, 0, 64, 63
2,146861, Control_c, 0, 64, 63
2,146880, Control_c, 0, 64, 64
2,146899, Control_c, 0, 64, 65
2,146957, Control_c, 0, 64, 64
2,146976, Control_c, 0, 64, 61
2,146996, Control_c, 0, 64, 54
2,147014, Control_c, 0, 64, 41
2,147015, Note_on_c, 0, 71, 72
2,147019, Note_on_c, 0, 68, 63
2,147034, Control_c, 0, 64, 36
2,147053, Control_c, 0, 64, 42
2,147072, Control_c, 0, 64, 57
2,147091, Control_c, 0, 64, 64
2,147111, Control_c, 0, 64, 67
2,147130, Control_c, 0, 64, 70
2,147149, Control_c, 0, 64, 72
2,147168, Control_c, 0, 64, 73
2,147245, Control_c, 0, 64, 73
2,147252, Note_on_c, 0, 71, 0
2,147264, Control_c, 0, 64, 72
2,147266, Note_on_c, 0, 68, 0
2,147283, Control_c, 0, 64, 72
2,147302, Control_c, 0, 64, 71
2,147341, Control_c, 0, 64, 70
2,147360, Control_c, 0, 64, 70
2,147379, Control_c, 0, 64, 69
2,147399, Control_c, 0, 64, 69
2,147417, Control_c, 0, 64, 68
2,147437, Control_c, 0, 64, 68
2,147476, Control_c, 0, 64, 67
2,147494, Control_c, 0, 64, 65
2,147497, Note_on_c, 0, 63, 0
2,147506, Note_on_c, 0, 73, 77
2,147514, Control_c, 0, 64, 61
2,147522, Note_on_c, 0, 69, 60
2,147528, Note_on_c, 0, 64, 56
2,147533, Control_c, 0, 64, 51
2,147552, Control_c, 0, 64, 30
2,147571, Control_c, 0, 64, 0
2,147624, Note_on_c, 0, 69, 0
2,147648, Control_c, 0, 64, 9
2,147667, Control_c, 0, 64, 45
2,147686, Control_c, 0, 64, 57
2,147705, Control_c, 0, 64, 61
2,147725, Control_c, 0, 64, 62
2,147744, Control_c, 0, 64, 62
2,147746, Note_on_c, 0, 73, 0
2,147846, Control_c, 0, 64, 63
2,147865, Control_c, 0, 64, 63
2,147884, Control_c, 0, 64, 64
2,147903, Control_c, 0, 64, 63
2,147923, Control_c, 0, 64, 59
2,147941, Control_c, 0, 64, 43
2,147961, Control_c, 0, 64, 15
2,147974, Control_c, 0, 64, 0
2,147994, Note_on_c, 0, 73, 80
2,148010, Control_c, 0, 64, 35
2,148029, Control_c, 0, 64, 57
2,148048, Control_c, 0, 64, 64
2,148068, Control_c, 0, 64, 66
2,148087, Control_c, 0, 64, 67
2,148106, Control_c, 0, 64, 67
2,148125, Control_c, 0, 64, 68
2,148145, Control_c, 0, 64, 70
2,148163, Control_c, 0, 64, 71
2,148173, Note_on_c, 0, 64, 0
2,148194, Note_on_c, 0, 73, 0
2,148215, Note_on_c, 0, 56, 0
2,148222, Control_c, 0, 64, 70
2,148240, Control_c, 0, 64, 70
2,148260, Control_c, 0, 64, 69
2,148279, Control_c, 0, 64, 69
2,148299, Control_c, 0, 64, 68
2,148336, Control_c, 0, 64, 68
2,148356, Control_c, 0, 64, 67
2,148374, Control_c, 0, 64, 66
2,148394, Control_c, 0, 64, 65
2,148451, Control_c, 0, 64, 64
2,148471, Control_c, 0, 64, 59
2,148472, Note_on_c, 0, 75, 86
2,148490, Control_c, 0, 64, 27
2,148490, Note_on_c, 0, 66, 55
2,148502, Note_on_c, 0, 69, 56
2,148509, Control_c, 0, 64, 0
2,148509, Note_on_c, 0, 54, 54
2,148586, Control_c, 0, 64, 35
2,148605, Control_c, 0, 64, 56
2,148623, Note_on_c, 0, 69, 0
2,148625, Control_c, 0, 64, 62
2,148690, Note_on_c, 0, 75, 0
2,148779, Control_c, 0, 64, 61
2,148816, Control_c, 0, 64, 61
2,148854, Control_c, 0, 64, 60
2,148913, Control_c, 0, 64, 60
2,148932, Control_c, 0, 64, 53
2,148952, Control_c, 0, 64, 0
2,148986, Note_on_c, 0, 75, 84
2,149048, Control_c, 0, 64, 39
2,149063, Note_on_c, 0, 66, 0
2,149067, Control_c, 0, 64, 62
2,149086, Control_c, 0, 64, 65
2,149106, Control_c, 0, 64, 66
2,149144, Control_c, 0, 64, 66
2,149163, Control_c, 0, 64, 67
2,149182, Note_on_c, 0, 75, 0
2,149183, Control_c, 0, 64, 67
2,149201, Control_c, 0, 64, 68
2,149355, Control_c, 0, 64, 67
2,149394, Control_c, 0, 64, 67
2,149412, Control_c, 0, 64, 66
2,149432, Control_c, 0, 64, 65
2,149451, Control_c, 0, 64, 65
2,149510, Note_on_c, 0, 68, 71
2,149543, Note_on_c, 0, 63, 51
2,149547, Control_c, 0, 64, 64
2,149552, Note_on_c, 0, 60, 42
2,149566, Control_c, 0, 64, 64
2,149586, Control_c, 0, 64, 62
2,149604, Control_c, 0, 64, 52
2,149624, Control_c, 0, 64, 22
2,149643, Control_c, 0, 64, 0
2,149720, Control_c, 0, 64, 35
2,149740, Control_c, 0, 64, 58
2,149759, Control_c, 0, 64, 64
2,149779, Control_c, 0, 64, 65
2,149912, Control_c, 0, 64, 65
2,149950, Control_c, 0, 64, 66
2,149969, Control_c, 0, 64, 66
2,149996, Note_on_c, 0, 60, 0
2,150021, Note_on_c, 0, 72, 76
2,150046, Control_c, 0, 64, 66
2,150084, Control_c, 0, 64, 65
2,150123, Note_on_c, 0, 54, 0
2,150183, Note_on_c, 0, 68, 0
2,150238, Control_c, 0, 64, 65
2,150277, Control_c, 0, 64, 64
2,150295, Control_c, 0, 64, 64
2,150411, Control_c, 0, 64, 63
2,150524, Note_on_c, 0, 73, 77
2,150526, Control_c, 0, 64, 63
2,150546, Control_c, 0, 64, 61
2,150564, Control_c, 0, 64, 54
2,150584, Control_c, 0, 64, 42
2,150603, Control_c, 0, 64, 32
2,150623, Control_c, 0, 64, 29
2,150630, Note_on_c, 0, 72, 0
2,150661, Control_c, 0, 64, 39
2,150680, Control_c, 0, 64, 55
2,150699, Control_c, 0, 64, 62
2,150718, Control_c, 0, 64, 63
2,150720, Note_on_c, 0, 63, 0
2,150775, Control_c, 0, 64, 63
2,151005, Control_c, 0, 64, 64
2,151025, Control_c, 0, 64, 63
2,151034, Note_on_c, 0, 68, 71
2,151043, Control_c, 0, 64, 61
2,151043, Note_on_c, 0, 52, 62
2,151043, Note_on_c, 0, 64, 56
2,151063, Control_c, 0, 64, 50
2,151082, Control_c, 0, 64, 21
2,151102, Control_c, 0, 64, 0
2,151140, Control_c, 0, 64, 21
2,151159, Control_c, 0, 64, 55
2,151179, Control_c, 0, 64, 63
2,151197, Control_c, 0, 64, 63
2,151216, Control_c, 0, 64, 64
2,151241, Note_on_c, 0, 64, 0
2,151254, Control_c, 0, 64, 64
2,151351, Control_c, 0, 64, 65
2,151447, Control_c, 0, 64, 65
2,151485, Control_c, 0, 64, 65
2,151543, Control_c, 0, 64, 65
2,151560, Note_on_c, 0, 52, 0
2,151562, Control_c, 0, 64, 65
2,151582, Control_c, 0, 64, 61
2,151583, Note_on_c, 0, 43, 69
2,151584, Note_on_c, 0, 70, 72
2,151585, Note_on_c, 0, 68, 0
2,151591, Note_on_c, 0, 63, 54
2,151600, Control_c, 0, 64, 42
2,151620, Control_c, 0, 64, 0
2,151677, Control_c, 0, 64, 17
2,151696, Control_c, 0, 64, 42
2,151716, Control_c, 0, 64, 50
2,151734, Control_c, 0, 64, 58
2,151754, Control_c, 0, 64, 63
2,151773, Control_c, 0, 64, 64
2,151793, Control_c, 0, 64, 65
2,151850, Control_c, 0, 64, 65
2,151869, Control_c, 0, 64, 66
2,151943, Note_on_c, 0, 43, 0
2,151965, Control_c, 0, 64, 67
2,151973, Note_on_c, 0, 63, 0
2,151985, Control_c, 0, 64, 69
2,152003, Control_c, 0, 64, 72
2,152023, Control_c, 0, 64, 72
2,152042, Control_c, 0, 64, 66
2,152062, Control_c, 0, 64, 50
2,152080, Control_c, 0, 64, 0
2,152084, Note_on_c, 0, 43, 75
2,152119, Control_c, 0, 64, 26
2,152139, Control_c, 0, 64, 56
2,152157, Control_c, 0, 64, 66
2,152176, Control_c, 0, 64, 70
2,152194, Note_on_c, 0, 73, 0
2,152196, Control_c, 0, 64, 76
2,152214, Control_c, 0, 64, 80
2,152231, Note_on_c, 0, 70, 0
2,152234, Control_c, 0, 64, 84
2,152253, Control_c, 0, 64, 86
2,152349, Control_c, 0, 64, 86
2,152388, Control_c, 0, 64, 85
2,152445, Control_c, 0, 64, 85
2,152465, Control_c, 0, 64, 84
2,152483, Control_c, 0, 64, 83
2,152503, Control_c, 0, 64, 81
2,152522, Control_c, 0, 64, 79
2,152542, Control_c, 0, 64, 77
2,152549, Note_on_c, 0, 43, 0
2,152560, Control_c, 0, 64, 75
2,152580, Control_c, 0, 64, 75
2,152619, Control_c, 0, 64, 75
2,152621, Note_on_c, 0, 68, 60
2,152623, Note_on_c, 0, 71, 78
2,152637, Note_on_c, 0, 63, 62
2,152640, Note_on_c, 0, 44, 67
2,152657, Control_c, 0, 64, 76
2,152677, Control_c, 0, 64, 75
2,152695, Control_c, 0, 64, 73
2,152715, Control_c, 0, 64, 69
2,152734, Control_c, 0, 64, 61
2,152754, Control_c, 0, 64, 38
2,152771, Control_c, 0, 64, 0
2,152829, Control_c, 0, 64, 31
2,152848, Control_c, 0, 64, 55
2,152868, Control_c, 0, 64, 63
2,152887, Control_c, 0, 64, 64
2,153060, Control_c, 0, 64, 65
2,153072, Note_on_c, 0, 44, 0
2,153079, Control_c, 0, 64, 65
2,153136, Control_c, 0, 64, 66
2,153147, Note_on_c, 0, 66, 74
2,153156, Control_c, 0, 64, 66
2,153163, Note_on_c, 0, 44, 65
2,153174, Control_c, 0, 64, 66
2,153194, Control_c, 0, 64, 64
2,153213, Control_c, 0, 64, 51
2,153233, Control_c, 0, 64, 32
2,153251, Control_c, 0, 64, 24
2,153271, Control_c, 0, 64, 25
2,153290, Control_c, 0, 64, 44
2,153309, Control_c, 0, 64, 61
2,153328, Control_c, 0, 64, 66
2,153348, Control_c, 0, 64, 69
2,153367, Control_c, 0, 64, 70
2,153425, Control_c, 0, 64, 70
2,153443, Control_c, 0, 64, 71
2,153490, Note_on_c, 0, 63, 0
2,153534, Note_on_c, 0, 68, 0
2,153580, Control_c, 0, 64, 70
2,153665, Note_on_c, 0, 64, 69
2,153676, Control_c, 0, 64, 70
2,153684, Note_on_c, 0, 37, 65
2,153686, Note_on_c, 0, 61, 53
2,153695, Control_c, 0, 64, 69
2,153712, Note_on_c, 0, 66, 0
2,153714, Control_c, 0, 64, 67
2,153733, Control_c, 0, 64, 60
2,153753, Control_c, 0, 64, 37
2,153772, Control_c, 0, 64, 0
2,153842, Note_on_c, 0, 44, 0
2,153848, Control_c, 0, 64, 27
2,153868, Control_c, 0, 64, 54
2,153887, Control_c, 0, 64, 63
2,153907, Control_c, 0, 64, 67
2,153925, Control_c, 0, 64, 68
2,153945, Control_c, 0, 64, 69
2,153964, Control_c, 0, 64, 69
2,153984, Control_c, 0, 64, 70
2,154002, Control_c, 0, 64, 71
2,154022, Control_c, 0, 64, 72
2,154041, Control_c, 0, 64, 73
2,154071, Note_on_c, 0, 61, 0
2,154099, Control_c, 0, 64, 73
2,154118, Control_c, 0, 64, 75
2,154136, Control_c, 0, 64, 78
2,154156, Control_c, 0, 64, 82
2,154175, Control_c, 0, 64, 83
2,154194, Control_c, 0, 64, 74
2,154194, Note_on_c, 0, 39, 76
2,154207, Note_on_c, 0, 63, 66
2,154213, Control_c, 0, 64, 61
2,154233, Control_c, 0, 64, 18
2,154252, Control_c, 0, 64, 0
2,154278, Note_on_c, 0, 64, 0
2,154290, Control_c, 0, 64, 27
2,154310, Control_c, 0, 64, 58
2,154328, Control_c, 0, 64, 64
2,154335, Note_on_c, 0, 37, 0
2,154348, Control_c, 0, 64, 67
2,154367, Control_c, 0, 64, 69
2,154387, Control_c, 0, 64, 73
2,154405, Control_c, 0, 64, 77
2,154425, Control_c, 0, 64, 81
2,154444, Control_c, 0, 64, 85
2,154464, Control_c, 0, 64, 85
2,154466, Note_on_c, 0, 71, 0
2,154482, Control_c, 0, 64, 86
2,154502, Control_c, 0, 64, 86
2,154521, Control_c, 0, 64, 87
2,154543, Control_c, 0, 64, 88
2,154562, Control_c, 0, 64, 89
2,154582, Control_c, 0, 64, 90
2,154584, Note_on_c, 0, 63, 0
2,154600, Control_c, 0, 64, 91
2,154677, Control_c, 0, 64, 90
2,154693, Control_c, 0, 64, 89
2,154713, Control_c, 0, 64, 88
2,154732, Control_c, 0, 64, 86
2,154751, Control_c, 0, 64, 84
2,154770, Control_c, 0, 64, 83
2,154790, Control_c, 0, 64, 81
2,154792, Note_on_c, 0, 70, 72
2,154795, Note_on_c, 0, 61, 60
2,154807, Note_on_c, 0, 40, 72
2,154808, Control_c, 0, 64, 79
2,154828, Control_c, 0, 64, 77
2,154847, Control_c, 0, 64, 75
2,154867, Control_c, 0, 64, 72
2,154885, Control_c, 0, 64, 68
2,154905, Control_c, 0, 64, 64
2,154908, Note_on_c, 0, 39, 0
2,154924, Control_c, 0, 64, 59
2,154944, Control_c, 0, 64, 52
2,154962, Control_c, 0, 64, 42
2,154982, Control_c, 0, 64, 17
2,155001, Control_c, 0, 64, 0
2,155078, Control_c, 0, 64, 17
2,155096, Control_c, 0, 64, 38
2,155116, Control_c, 0, 64, 54
2,155135, Control_c, 0, 64, 61
2,155154, Control_c, 0, 64, 60
2,155193, Control_c, 0, 64, 61
2,155212, Control_c, 0, 64, 63
2,155231, Control_c, 0, 64, 65
2,155250, Control_c, 0, 64, 66
2,155288, Control_c, 0, 64, 66
2,155327, Control_c, 0, 64, 66
2,155347, Control_c, 0, 64, 63
2,155365, Control_c, 0, 64, 50
2,155367, Note_on_c, 0, 68, 80
2,155385, Control_c, 0, 64, 11
2,155389, Note_on_c, 0, 49, 60
2,155404, Control_c, 0, 64, 0
2,155500, Control_c, 0, 64, 23
2,155519, Control_c, 0, 64, 58
2,155538, Control_c, 0, 64, 66
2,155558, Control_c, 0, 64, 69
2,155576, Control_c, 0, 64, 72
2,155596, Control_c, 0, 64, 74
2,155613, Note_on_c, 0, 70, 0
2,155615, Control_c, 0, 64, 77
2,155634, Control_c, 0, 64, 81
2,155651, Control_c, 0, 64, 85
2,155655, Note_on_c, 0, 40, 0
2,155671, Control_c, 0, 64, 88
2,155690, Control_c, 0, 64, 88
2,155709, Control_c, 0, 64, 89
2,155791, Note_on_c, 0, 49, 0
2,155844, Control_c, 0, 64, 88
2,155863, Control_c, 0, 64, 86
2,155882, Control_c, 0, 64, 85
2,155902, Control_c, 0, 64, 84
2,155920, Control_c, 0, 64, 82
2,155940, Control_c, 0, 64, 80
2,155959, Control_c, 0, 64, 79
2,155978, Control_c, 0, 64, 78
2,155996, Note_on_c, 0, 67, 78
2,155997, Control_c, 0, 64, 72
2,156012, Note_on_c, 0, 51, 51
2,156016, Control_c, 0, 64, 62
2,156036, Control_c, 0, 64, 0
2,156044, Note_on_c, 0, 39, 49
2,156053, Note_on_c, 0, 68, 0
2,156151, Control_c, 0, 64, 41
2,156170, Control_c, 0, 64, 63
2,156189, Control_c, 0, 64, 68
2,156208, Control_c, 0, 64, 74
2,156228, Control_c, 0, 64, 80
2,156242, Note_on_c, 0, 61, 0
2,156247, Control_c, 0, 64, 86
2,156266, Control_c, 0, 64, 90
2,156285, Control_c, 0, 64, 92
2,156287, Note_on_c, 0, 67, 0
2,156305, Control_c, 0, 64, 93
2,156324, Control_c, 0, 64, 94
2,156343, Control_c, 0, 64, 95
2,156362, Control_c, 0, 64, 95
2,156382, Control_c, 0, 64, 96
2,156400, Control_c, 0, 64, 98
2,156420, Control_c, 0, 64, 100
2,156439, Control_c, 0, 64, 103
2,156458, Control_c, 0, 64, 105
2,156477, Control_c, 0, 64, 105
2,156516, Control_c, 0, 64, 105
2,156534, Control_c, 0, 64, 104
2,156554, Control_c, 0, 64, 104
2,156573, Control_c, 0, 64, 102
2,156593, Control_c, 0, 64, 101
2,156610, Control_c, 0, 64, 99
2,156630, Control_c, 0, 64, 96
2,156649, Control_c, 0, 64, 94
2,156669, Control_c, 0, 64, 90
2,156687, Control_c, 0, 64, 85
2,156707, Control_c, 0, 64, 80
2,156726, Control_c, 0, 64, 75
2,156727, Note_on_c, 0, 68, 75
2,156728, Note_on_c, 0, 59, 72
2,156745, Control_c, 0, 64, 71
2,156764, Control_c, 0, 64, 68
2,156784, Control_c, 0, 64, 65
2,156803, Control_c, 0, 64, 61
2,156822, Control_c, 0, 64, 43
2,156841, Control_c, 0, 64, 0
2,156956, Control_c, 0, 64, 36
2,156975, Control_c, 0, 64, 61
2,156995, Control_c, 0, 64, 67
2,157013, Control_c, 0, 64, 70
2,157033, Control_c, 0, 64, 73
2,157052, Control_c, 0, 64, 78
2,157072, Control_c, 0, 64, 82
2,157090, Control_c, 0, 64, 85
2,157110, Control_c, 0, 64, 86
2,157149, Control_c, 0, 64, 86
2,157167, Control_c, 0, 64, 87
2,157168, Note_on_c, 0, 59, 0
2,157187, Control_c, 0, 64, 88
2,157206, Control_c, 0, 64, 89
2,157225, Control_c, 0, 64, 89
2,157244, Control_c, 0, 64, 90
2,157264, Control_c, 0, 64, 90
2,157341, Control_c, 0, 64, 90
2,157359, Control_c, 0, 64, 89
2,157378, Control_c, 0, 64, 89
2,157418, Control_c, 0, 64, 88
2,157457, Control_c, 0, 64, 88
2,157477, Control_c, 0, 64, 86
2,157493, Note_on_c, 0, 58, 70
2,157495, Control_c, 0, 64, 85
2,157515, Control_c, 0, 64, 82
2,157534, Control_c, 0, 64, 79
2,157554, Control_c, 0, 64, 77
2,157572, Control_c, 0, 64, 74
2,157592, Control_c, 0, 64, 72
2,157611, Control_c, 0, 64, 70
2,157630, Control_c, 0, 64, 69
2,157649, Control_c, 0, 64, 68
2,157688, Control_c, 0, 64, 67
2,157707, Control_c, 0, 64, 65
2,157726, Control_c, 0, 64, 60
2,157746, Control_c, 0, 64, 49
2,157764, Control_c, 0, 64, 36
2,157784, Control_c, 0, 64, 32
2,157957, Control_c, 0, 64, 32
2,157995, Control_c, 0, 64, 31
2,158014, Control_c, 0, 64, 31
2,158168, Control_c, 0, 64, 29
2,158187, Control_c, 0, 64, 28
2,158206, Control_c, 0, 64, 27
2,158226, Control_c, 0, 64, 23
2,158244, Control_c, 0, 64, 21
2,158378, Control_c, 0, 64, 20
2,158397, Control_c, 0, 64, 15
2,158416, Control_c, 0, 64, 0
2,158446, Note_on_c, 0, 67, 62
2,158560, Note_on_c, 0, 68, 0
2,158647, Control_c, 0, 64, 13
2,158666, Control_c, 0, 64, 47
2,158685, Control_c, 0, 64, 61
2,158705, Control_c, 0, 64, 66
2,158724, Control_c, 0, 64, 68
2,158743, Control_c, 0, 64, 71
2,158762, Control_c, 0, 64, 74
2,158782, Control_c, 0, 64, 80
2,158800, Control_c, 0, 64, 86
2,158820, Control_c, 0, 64, 93
2,158839, Control_c, 0, 64, 102
2,158858, Control_c, 0, 64, 127
2,158909, Note_on_c, 0, 58, 0
2,159033, Note_on_c, 0, 67, 0
2,159119, Note_on_c, 0, 39, 0
2,159264, Note_on_c, 0, 51, 0
2,159814, Note_on_c, 0, 68, 69
2,159836, Control_c, 0, 64, 123
2,159848, Note_on_c, 0, 60, 52
2,159855, Control_c, 0, 64, 106
2,159866, Note_on_c, 0, 51, 37
2,159875, Control_c, 0, 64, 98
2,159888, Note_on_c, 0, 44, 42
2,159891, Control_c, 0, 64, 91
2,159910, Control_c, 0, 64, 83
2,159930, Control_c, 0, 64, 76
2,159949, Control_c, 0, 64, 71
2,159967, Control_c, 0, 64, 69
2,160026, Control_c, 0, 64, 68
2,160044, Control_c, 0, 64, 68
2,160064, Control_c, 0, 64, 66
2,160083, Control_c, 0, 64, 65
2,160121, Control_c, 0, 64, 64
2,160141, Control_c, 0, 64, 64
2,160160, Control_c, 0, 64, 63
2,160179, Control_c, 0, 64, 61
2,160198, Control_c, 0, 64, 58
2,160218, Control_c, 0, 64, 51
2,160236, Control_c, 0, 64, 45
2,160256, Control_c, 0, 64, 39
2,160275, Control_c, 0, 64, 36
2,160295, Control_c, 0, 64, 34
2,160313, Control_c, 0, 64, 32
2,160410, Control_c, 0, 64, 35
2,160429, Control_c, 0, 64, 39
2,160447, Control_c, 0, 64, 40
2,160467, Control_c, 0, 64, 40
2,160486, Control_c, 0, 64, 41
2,160506, Control_c, 0, 64, 42
2,160524, Control_c, 0, 64, 46
2,160544, Control_c, 0, 64, 50
2,160563, Control_c, 0, 64, 51
2,160621, Control_c, 0, 64, 52
2,160640, Control_c, 0, 64, 53
2,160716, Control_c, 0, 64, 53
2,160736, Control_c, 0, 64, 54
2,160755, Control_c, 0, 64, 55
2,160832, Control_c, 0, 64, 55
2,160851, Control_c, 0, 64, 56
2,160870, Control_c, 0, 64, 57
2,160927, Control_c, 0, 64, 58
2,160947, Control_c, 0, 64, 59
2,160966, Control_c, 0, 64, 59
2,161024, Control_c, 0, 64, 60
2,161043, Control_c, 0, 64, 60
2,161062, Control_c, 0, 64, 61
2,161139, Control_c, 0, 64, 61
2,161158, Control_c, 0, 64, 62
2,161178, Control_c, 0, 64, 62
2,161255, Control_c, 0, 64, 63
2,161293, Control_c, 0, 64, 63
2,161350, Control_c, 0, 64, 64
2,161389, Control_c, 0, 64, 64
2,161427, Control_c, 0, 64, 65
2,161504, Control_c, 0, 64, 65
2,161523, Control_c, 0, 64, 66
2,161542, Control_c, 0, 64, 66
2,161561, Control_c, 0, 64, 67
2,161600, Control_c, 0, 64, 68
2,161619, Control_c, 0, 64, 69
2,161638, Control_c, 0, 64, 70
2,161658, Control_c, 0, 64, 70
2,161676, Control_c, 0, 64, 71
2,161696, Control_c, 0, 64, 72
2,161715, Control_c, 0, 64, 73
2,161735, Control_c, 0, 64, 74
2,161753, Control_c, 0, 64, 75
2,161773, Control_c, 0, 64, 76
2,161789, Control_c, 0, 64, 79
2,161808, Control_c, 0, 64, 81
2,161827, Control_c, 0, 64, 82
2,161844, Control_c, 0, 64, 83
2,161863, Control_c, 0, 64, 84
2,161882, Control_c, 0, 64, 84
2,161901, Control_c, 0, 64, 85
2,161921, Control_c, 0, 64, 86
2,161940, Control_c, 0, 64, 88
2,161959, Control_c, 0, 64, 88
2,161978, Control_c, 0, 64, 89
2,161998, Control_c, 0, 64, 89
2,162036, Control_c, 0, 64, 90
2,162055, Control_c, 0, 64, 90
2,162075, Control_c, 0, 64, 91
2,162093, Control_c, 0, 64, 92
2,162132, Control_c, 0, 64, 92
2,162151, Control_c, 0, 64, 93
2,162190, Control_c, 0, 64, 93
2,162207, Control_c, 0, 64, 94
2,162226, Control_c, 0, 64, 94
2,162245, Control_c, 0, 64, 95
2,162358, Control_c, 0, 64, 95
2,163290, Note_on_c, 0, 51, 0
2,163314, Control_c, 0, 64, 95
2,163372, Control_c, 0, 64, 94
2,163506, Control_c, 0, 64, 94
2,163602, Control_c, 0, 64, 93
2,163659, Control_c, 0, 64, 93
2,163674, Note_on_c, 0, 60, 0
2,163685, Note_on_c, 0, 44, 0
2,163698, Control_c, 0, 64, 92
2,163717, Control_c, 0, 64, 92
2,163756, Control_c, 0, 64, 91
2,163775, Control_c, 0, 64, 91
2,163890, Control_c, 0, 64, 90
2,163909, Control_c, 0, 64, 90
2,163947, Control_c, 0, 64, 89
2,163986, Control_c, 0, 64, 89
2,163991, Note_on_c, 0, 68, 0
2,164024, Control_c, 0, 64, 88
2,164044, Control_c, 0, 64, 88
2,164101, Control_c, 0, 64, 87
2,164121, Control_c, 0, 64, 87
2,164197, Control_c, 0, 64, 86
2,164216, Control_c, 0, 64, 86
2,164236, Control_c, 0, 64, 85
2,164255, Control_c, 0, 64, 84
2,164273, Control_c, 0, 64, 84
2,164292, Control_c, 0, 64, 83
2,164311, Control_c, 0, 64, 83
2,164331, Control_c, 0, 64, 81
2,164349, Control_c, 0, 64, 79
2,164369, Control_c, 0, 64, 78
2,164426, Control_c, 0, 64, 77
2,164446, Control_c, 0, 64, 76
2,164465, Control_c, 0, 64, 74
2,164484, Control_c, 0, 64, 74
2,164580, Control_c, 0, 64, 73
2,164600, Control_c, 0, 64, 72
2,164618, Control_c, 0, 64, 72
2,164715, Control_c, 0, 64, 71
2,164734, Control_c, 0, 64, 71
2,164811, Control_c, 0, 64, 70
2,164868, Control_c, 0, 64, 70
2,164887, Control_c, 0, 64, 69
2,164906, Control_c, 0, 64, 69
2,164964, Control_c, 0, 64, 68
2,164983, Control_c, 0, 64, 67
2,165003, Control_c, 0, 64, 67
2,165022, Control_c, 0, 64, 66
2,165081, Control_c, 0, 64, 66
2,165099, Control_c, 0, 64, 65
2,165119, Control_c, 0, 64, 64
2,165196, Control_c, 0, 64, 64
2,165215, Control_c, 0, 64, 63
2,165233, Control_c, 0, 64, 62
2,165309, Control_c, 0, 64, 62
2,165329, Control_c, 0, 64, 61
2,165348, Control_c, 0, 64, 60
2,165425, Control_c, 0, 64, 60
2,165444, Control_c, 0, 64, 59
2,165463, Control_c, 0, 64, 59
2,165521, Control_c, 0, 64, 58
2,165540, Control_c, 0, 64, 57
2,165560, Control_c, 0, 64, 57
2,165675, Control_c, 0, 64, 56
2,165751, Control_c, 0, 64, 56
2,165789, Control_c, 0, 64, 55
2,165828, Control_c, 0, 64, 55
2,166136, Control_c, 0, 64, 55
2,166137, End_track
0, 0, End_of_file
