0, 0, Header, 1, 2, 480
1, 0, Start_track
1, 0, Tempo, 500000
1, 0, Time_signature, 4, 2, 24, 8
1, 1, End_track
2, 0, Start_track
2, 0, Program_c, 0, 0
2, 0, Control_c, 0, 64, 0
2, 0, Control_c, 0, 67, 0
2, 1016, Note_on_c, 0, 68, 60
2, 1024, Note_on_c, 0, 56, 36
2, 1029, Note_on_c, 0, 59, 41
2, 1042, Note_on_c, 0, 63, 31
2, 1134, Note_on_c, 0, 70, 63
2, 1153, Note_on_c, 0, 68, 0
2, 1261, Note_on_c, 0, 70, 0
2, 1278, Note_on_c, 0, 71, 72
2, 1382, Note_on_c, 0, 63, 0
2, 1393, Note_on_c, 0, 73, 82
2, 1395, Note_on_c, 0, 59, 0
2, 1412, Note_on_c, 0, 71, 0
2, 1425, Note_on_c, 0, 56, 0
2, 1513, Note_on_c, 0, 75, 82
2, 1563, Note_on_c, 0, 73, 0
2, 1633, Note_on_c, 0, 75, 0
2, 1637, Note_on_c, 0, 71, 78
2, 1748, Note_on_c, 0, 70, 78
2, 1759, Note_on_c, 0, 71, 0
2, 1867, Note_on_c, 0, 68, 76
2, 1917, Note_on_c, 0, 70, 0
2, 1989, Note_on_c, 0, 68, 0
2, 2004, Note_on_c, 0, 67, 66
2, 2016, Note_on_c, 0, 56, 37
2, 2020, Note_on_c, 0, 58, 34
2, 2020, Note_on_c, 0, 61, 42
2, 2107, Note_on_c, 0, 67, 0
2, 2107, Note_on_c, 0, 68, 75
2, 2239, Note_on_c, 0, 70, 76
2, 2242, Note_on_c, 0, 61, 0
2, 2246, Note_on_c, 0, 56, 0
2, 2256, Note_on_c, 0, 58, 0
2, 2261, Note_on_c, 0, 68, 0
2, 2347, Note_on_c, 0, 70, 0
2, 2366, Note_on_c, 0, 64, 66
2, 2509, Note_on_c, 0, 63, 67
2, 2594, Note_on_c, 0, 64, 0
2, 2611, Note_on_c, 0, 61, 51
2, 2669, Note_on_c, 0, 63, 0
2, 2729, Note_on_c, 0, 59, 59
2, 2737, Note_on_c, 0, 61, 0
2, 2807, Control_c, 0, 64, 11
2, 2827, Control_c, 0, 64, 17
2, 2848, Control_c, 0, 64, 19
2, 2854, Note_on_c, 0, 58, 67
2, 2869, Note_on_c, 0, 59, 0
2, 2884, Control_c, 0, 64, 18
2, 2904, Control_c, 0, 64, 17
2, 2975, Note_on_c, 0, 58, 0
2, 2978, Note_on_c, 0, 56, 70
2, 3001, Control_c, 0, 64, 16
2, 3022, Control_c, 0, 64, 13
2, 3038, Control_c, 0, 64, 12
2, 3059, Control_c, 0, 64, 11
2, 3071, Note_on_c, 0, 56, 0
2, 3077, Control_c, 0, 64, 10
2, 3098, Control_c, 0, 64, 0
2, 3099, Note_on_c, 0, 63, 62
2, 3172, Control_c, 0, 64, 9
2, 3192, Control_c, 0, 64, 11
2, 3196, Note_on_c, 0, 71, 72
2, 3200, Note_on_c, 0, 63, 0
2, 3205, Note_on_c, 0, 68, 67
2, 3226, Note_on_c, 0, 56, 61
2, 3251, Note_on_c, 0, 68, 0
2, 3260, Note_on_c, 0, 71, 0
2, 3277, Note_on_c, 0, 56, 0
2, 3323, Note_on_c, 0, 63, 65
2, 3327, Control_c, 0, 64, 12
2, 3349, Control_c, 0, 64, 16
2, 3365, Control_c, 0, 64, 22
2, 3384, Control_c, 0, 64, 23
2, 3405, Control_c, 0, 64, 22
2, 3423, Control_c, 0, 64, 21
2, 3439, Note_on_c, 0, 63, 0
2, 3451, Note_on_c, 0, 71, 65
2, 3461, Note_on_c, 0, 55, 62
2, 3473, Note_on_c, 0, 68, 79
2, 3575, Note_on_c, 0, 55, 0
2, 3594, Note_on_c, 0, 63, 61
2, 3634, Control_c, 0, 64, 20
2, 3672, Control_c, 0, 64, 19
2, 3706, Note_on_c, 0, 63, 0
2, 3708, Note_on_c, 0, 73, 85
2, 3715, Note_on_c, 0, 70, 56
2, 3724, Note_on_c, 0, 55, 58
2, 3748, Control_c, 0, 64, 20
2, 3791, Note_on_c, 0, 68, 0
2, 3820, Note_on_c, 0, 55, 0
2, 3820, Note_on_c, 0, 70, 0
2, 3820, Note_on_c, 0, 71, 0
2, 3852, Note_on_c, 0, 63, 61
2, 3866, Control_c, 0, 64, 19
2, 3881, Note_on_c, 0, 73, 0
2, 3885, Control_c, 0, 64, 17
2, 3902, Control_c, 0, 64, 16
2, 3943, Note_on_c, 0, 63, 0
2, 3957, Note_on_c, 0, 56, 62
2, 4047, Note_on_c, 0, 56, 0
2, 4082, Note_on_c, 0, 63, 62
2, 4114, Control_c, 0, 64, 15
2, 4172, Control_c, 0, 64, 16
2, 4178, Note_on_c, 0, 63, 0
2, 4208, Note_on_c, 0, 71, 77
2, 4213, Control_c, 0, 64, 17
2, 4213, Note_on_c, 0, 56, 59
2, 4224, Note_on_c, 0, 68, 58
2, 4241, Note_on_c, 0, 71, 0
2, 4255, Note_on_c, 0, 68, 0
2, 4268, Control_c, 0, 64, 18
2, 4273, Note_on_c, 0, 56, 0
2, 4323, Note_on_c, 0, 63, 61
2, 4433, Note_on_c, 0, 63, 0
2, 4442, Control_c, 0, 64, 17
2, 4458, Note_on_c, 0, 51, 56
2, 4461, Control_c, 0, 64, 16
2, 4461, Note_on_c, 0, 71, 66
2, 4481, Note_on_c, 0, 68, 44
2, 4550, Note_on_c, 0, 51, 0
2, 4597, Control_c, 0, 64, 17
2, 4609, Note_on_c, 0, 63, 43
2, 4613, Control_c, 0, 64, 18
2, 4676, Note_on_c, 0, 63, 0
2, 4720, Note_on_c, 0, 68, 0
2, 4725, Note_on_c, 0, 51, 48
2, 4725, Note_on_c, 0, 70, 61
2, 4734, Note_on_c, 0, 67, 37
2, 4776, Note_on_c, 0, 71, 0
2, 4797, Note_on_c, 0, 51, 0
2, 4820, Note_on_c, 0, 67, 0
2, 4828, Note_on_c, 0, 63, 47
2, 4841, Note_on_c, 0, 70, 0
2, 4871, Note_on_c, 0, 63, 0
2, 4991, Note_on_c, 0, 68, 56
2, 5004, Note_on_c, 0, 63, 46
2, 5022, Note_on_c, 0, 59, 46
2, 5051, Note_on_c, 0, 56, 32
2, 5094, Note_on_c, 0, 70, 58
2, 5110, Note_on_c, 0, 68, 0
2, 5191, Note_on_c, 0, 70, 0
2, 5232, Note_on_c, 0, 71, 56
2, 5320, Note_on_c, 0, 63, 0
2, 5324, Note_on_c, 0, 71, 0
2, 5329, Note_on_c, 0, 59, 0
2, 5342, Note_on_c, 0, 73, 61
2, 5398, Note_on_c, 0, 56, 0
2, 5458, Note_on_c, 0, 75, 60
2, 5487, Note_on_c, 0, 73, 0
2, 5550, Note_on_c, 0, 75, 0
2, 5589, Note_on_c, 0, 71, 53
2, 5690, Note_on_c, 0, 71, 0
2, 5708, Note_on_c, 0, 70, 55
2, 5828, Note_on_c, 0, 68, 50
2, 5844, Note_on_c, 0, 70, 0
2, 5932, Note_on_c, 0, 68, 0
2, 5950, Note_on_c, 0, 56, 27
2, 5954, Note_on_c, 0, 61, 19
2, 5968, Note_on_c, 0, 67, 42
2, 5972, Note_on_c, 0, 58, 26
2, 6051, Note_on_c, 0, 67, 0
2, 6072, Note_on_c, 0, 68, 54
2, 6196, Note_on_c, 0, 61, 0
2, 6207, Note_on_c, 0, 56, 0
2, 6207, Note_on_c, 0, 70, 59
2, 6209, Note_on_c, 0, 68, 0
2, 6221, Note_on_c, 0, 58, 0
2, 6280, Note_on_c, 0, 70, 0
2, 6313, Note_on_c, 0, 64, 55
2, 6447, Note_on_c, 0, 63, 53
2, 6530, Note_on_c, 0, 64, 0
2, 6571, Note_on_c, 0, 61, 47
2, 6599, Note_on_c, 0, 63, 0
2, 6685, Note_on_c, 0, 59, 53
2, 6694, Note_on_c, 0, 61, 0
2, 6782, Note_on_c, 0, 59, 0
2, 6810, Note_on_c, 0, 58, 54
2, 6891, Note_on_c, 0, 58, 0
2, 6927, Note_on_c, 0, 56, 59
2, 6956, Control_c, 0, 64, 19
2, 6990, Note_on_c, 0, 56, 0
2, 7048, Note_on_c, 0, 63, 51
2, 7053, Control_c, 0, 64, 18
2, 7121, Note_on_c, 0, 63, 0
2, 7148, Control_c, 0, 64, 19
2, 7161, Note_on_c, 0, 80, 71
2, 7170, Note_on_c, 0, 56, 52
2, 7177, Note_on_c, 0, 71, 60
2, 7184, Control_c, 0, 64, 20
2, 7198, Note_on_c, 0, 80, 0
2, 7203, Note_on_c, 0, 71, 0
2, 7214, Note_on_c, 0, 56, 0
2, 7273, Note_on_c, 0, 63, 54
2, 7358, Note_on_c, 0, 63, 0
2, 7415, Note_on_c, 0, 80, 68
2, 7417, Note_on_c, 0, 55, 48
2, 7425, Note_on_c, 0, 71, 48
2, 7504, Note_on_c, 0, 55, 0
2, 7543, Note_on_c, 0, 63, 44
2, 7616, Note_on_c, 0, 63, 0
2, 7651, Note_on_c, 0, 82, 71
2, 7664, Note_on_c, 0, 73, 51
2, 7679, Note_on_c, 0, 55, 46
2, 7712, Note_on_c, 0, 71, 0
2, 7752, Note_on_c, 0, 55, 0
2, 7784, Note_on_c, 0, 80, 0
2, 7791, Note_on_c, 0, 63, 45
2, 7826, Note_on_c, 0, 73, 0
2, 7840, Note_on_c, 0, 82, 0
2, 7869, Note_on_c, 0, 63, 0
2, 7909, Note_on_c, 0, 56, 51
2, 7985, Note_on_c, 0, 56, 0
2, 8031, Note_on_c, 0, 63, 51
2, 8120, Note_on_c, 0, 63, 0
2, 8159, Note_on_c, 0, 56, 53
2, 8162, Note_on_c, 0, 80, 71
2, 8164, Control_c, 0, 64, 21
2, 8186, Note_on_c, 0, 71, 43
2, 8202, Note_on_c, 0, 80, 0
2, 8218, Note_on_c, 0, 56, 0
2, 8222, Note_on_c, 0, 71, 0
2, 8276, Note_on_c, 0, 63, 53
2, 8370, Note_on_c, 0, 63, 0
2, 8410, Note_on_c, 0, 51, 52
2, 8410, Note_on_c, 0, 80, 65
2, 8418, Note_on_c, 0, 71, 52
2, 8462, Note_on_c, 0, 71, 0
2, 8499, Note_on_c, 0, 51, 0
2, 8547, Note_on_c, 0, 63, 48
2, 8607, Control_c, 0, 64, 22
2, 8621, Note_on_c, 0, 63, 0
2, 8662, Note_on_c, 0, 79, 68
2, 8675, Note_on_c, 0, 51, 48
2, 8679, Note_on_c, 0, 70, 53
2, 8760, Control_c, 0, 64, 23
2, 8764, Note_on_c, 0, 80, 0
2, 8795, Note_on_c, 0, 63, 50
2, 8799, Note_on_c, 0, 51, 0
2, 8822, Note_on_c, 0, 79, 0
2, 8836, Note_on_c, 0, 70, 0
2, 8906, Note_on_c, 0, 63, 0
2, 8912, Note_on_c, 0, 56, 71
2, 8971, Control_c, 0, 64, 24
2, 9009, Control_c, 0, 64, 25
2, 9030, Note_on_c, 0, 63, 67
2, 9039, Note_on_c, 0, 56, 0
2, 9048, Control_c, 0, 64, 24
2, 9125, Control_c, 0, 64, 25
2, 9155, Note_on_c, 0, 68, 79
2, 9155, Note_on_c, 0, 71, 84
2, 9160, Note_on_c, 0, 56, 72
2, 9160, Note_on_c, 0, 63, 0
2, 9183, Control_c, 0, 64, 26
2, 9203, Control_c, 0, 64, 27
2, 9221, Control_c, 0, 64, 29
2, 9240, Control_c, 0, 64, 30
2, 9261, Note_on_c, 0, 70, 78
2, 9265, Note_on_c, 0, 71, 0
2, 9275, Note_on_c, 0, 63, 68
2, 9275, Note_on_c, 0, 67, 66
2, 9279, Note_on_c, 0, 68, 0
2, 9284, Note_on_c, 0, 56, 0
2, 9359, Note_on_c, 0, 67, 0
2, 9366, Note_on_c, 0, 71, 78
2, 9386, Note_on_c, 0, 68, 60
2, 9396, Note_on_c, 0, 63, 0
2, 9401, Note_on_c, 0, 54, 72
2, 9401, Note_on_c, 0, 70, 0
2, 9406, Note_on_c, 0, 71, 0
2, 9412, Note_on_c, 0, 68, 0
2, 9511, Control_c, 0, 64, 29
2, 9511, Note_on_c, 0, 54, 0
2, 9524, Note_on_c, 0, 63, 65
2, 9644, Note_on_c, 0, 63, 0
2, 9651, Note_on_c, 0, 80, 93
2, 9657, Note_on_c, 0, 54, 67
2, 9670, Note_on_c, 0, 71, 68
2, 9702, Control_c, 0, 64, 28
2, 9771, Note_on_c, 0, 54, 0
2, 9778, Note_on_c, 0, 63, 64
2, 9788, Note_on_c, 0, 71, 0
2, 9840, Note_on_c, 0, 80, 0
2, 9873, Note_on_c, 0, 63, 0
2, 9889, Note_on_c, 0, 53, 63
2, 9952, Control_c, 0, 64, 29
2, 9988, Note_on_c, 0, 53, 0
2, 10008, Control_c, 0, 64, 28
2, 10029, Control_c, 0, 64, 26
2, 10029, Note_on_c, 0, 61, 58
2, 10047, Control_c, 0, 64, 25
2, 10137, Note_on_c, 0, 61, 0
2, 10142, Control_c, 0, 64, 26
2, 10156, Note_on_c, 0, 53, 56
2, 10160, Note_on_c, 0, 71, 74
2, 10162, Control_c, 0, 64, 27
2, 10169, Note_on_c, 0, 68, 54
2, 10201, Control_c, 0, 64, 28
2, 10225, Note_on_c, 0, 53, 0
2, 10275, Note_on_c, 0, 68, 0
2, 10279, Note_on_c, 0, 71, 0
2, 10288, Note_on_c, 0, 61, 57
2, 10393, Note_on_c, 0, 61, 0
2, 10406, Note_on_c, 0, 49, 60
2, 10430, Control_c, 0, 64, 29
2, 10449, Control_c, 0, 64, 30
2, 10488, Control_c, 0, 64, 29
2, 10514, Note_on_c, 0, 49, 0
2, 10547, Note_on_c, 0, 61, 56
2, 10565, Control_c, 0, 64, 28
2, 10639, Note_on_c, 0, 61, 0
2, 10676, Note_on_c, 0, 70, 69
2, 10681, Note_on_c, 0, 49, 60
2, 10692, Note_on_c, 0, 65, 57
2, 10747, Note_on_c, 0, 49, 0
2, 10781, Note_on_c, 0, 68, 70
2, 10794, Note_on_c, 0, 61, 56
2, 10825, Note_on_c, 0, 65, 0
2, 10855, Note_on_c, 0, 70, 0
2, 10864, Note_on_c, 0, 68, 0
2, 10919, Note_on_c, 0, 61, 0
2, 10923, Note_on_c, 0, 54, 69
2, 10968, Control_c, 0, 64, 29
2, 11036, Note_on_c, 0, 54, 0
2, 11040, Note_on_c, 0, 61, 63
2, 11066, Control_c, 0, 64, 28
2, 11163, Note_on_c, 0, 70, 79
2, 11167, Note_on_c, 0, 61, 0
2, 11176, Note_on_c, 0, 54, 72
2, 11181, Note_on_c, 0, 66, 75
2, 11283, Note_on_c, 0, 54, 0
2, 11287, Note_on_c, 0, 61, 66
2, 11291, Note_on_c, 0, 68, 80
2, 11298, Note_on_c, 0, 66, 0
2, 11307, Note_on_c, 0, 70, 0
2, 11319, Note_on_c, 0, 65, 56
2, 11390, Control_c, 0, 64, 29
2, 11397, Note_on_c, 0, 61, 0
2, 11404, Note_on_c, 0, 70, 78
2, 11410, Note_on_c, 0, 53, 69
2, 11410, Note_on_c, 0, 66, 74
2, 11414, Note_on_c, 0, 65, 0
2, 11438, Note_on_c, 0, 68, 0
2, 11442, Note_on_c, 0, 66, 0
2, 11453, Note_on_c, 0, 70, 0
2, 11506, Note_on_c, 0, 53, 0
2, 11531, Note_on_c, 0, 61, 68
2, 11547, Control_c, 0, 64, 28
2, 11643, Note_on_c, 0, 61, 0
2, 11658, Control_c, 0, 64, 29
2, 11667, Note_on_c, 0, 53, 65
2, 11675, Note_on_c, 0, 78, 97
2, 11691, Note_on_c, 0, 70, 69
2, 11700, Control_c, 0, 64, 30
2, 11790, Note_on_c, 0, 61, 62
2, 11795, Note_on_c, 0, 70, 0
2, 11804, Note_on_c, 0, 53, 0
2, 11841, Note_on_c, 0, 78, 0
2, 11898, Note_on_c, 0, 61, 0
2, 11922, Note_on_c, 0, 51, 64
2, 11965, Control_c, 0, 64, 31
2, 12027, Note_on_c, 0, 51, 0
2, 12043, Control_c, 0, 64, 30
2, 12069, Note_on_c, 0, 59, 57
2, 12137, Note_on_c, 0, 59, 0
2, 12183, Note_on_c, 0, 70, 66
2, 12196, Note_on_c, 0, 51, 56
2, 12201, Note_on_c, 0, 66, 57
2, 12268, Note_on_c, 0, 51, 0
2, 12295, Note_on_c, 0, 66, 0
2, 12311, Note_on_c, 0, 59, 57
2, 12320, Note_on_c, 0, 70, 0
2, 12396, Note_on_c, 0, 59, 0
2, 12437, Note_on_c, 0, 47, 62
2, 12509, Note_on_c, 0, 47, 0
2, 12555, Note_on_c, 0, 59, 54
2, 12652, Note_on_c, 0, 59, 0
2, 12696, Note_on_c, 0, 47, 53
2, 12701, Note_on_c, 0, 68, 72
2, 12703, Note_on_c, 0, 63, 64
2, 12773, Note_on_c, 0, 47, 0
2, 12807, Control_c, 0, 64, 29
2, 12812, Note_on_c, 0, 59, 57
2, 12820, Note_on_c, 0, 66, 65
2, 12888, Note_on_c, 0, 63, 0
2, 12895, Note_on_c, 0, 68, 0
2, 12904, Note_on_c, 0, 66, 0
2, 12927, Note_on_c, 0, 59, 0
2, 12936, Note_on_c, 0, 53, 69
2, 13054, Note_on_c, 0, 53, 0
2, 13070, Note_on_c, 0, 59, 69
2, 13193, Note_on_c, 0, 68, 83
2, 13202, Note_on_c, 0, 53, 70
2, 13202, Note_on_c, 0, 59, 0
2, 13202, Note_on_c, 0, 62, 73
2, 13210, Control_c, 0, 64, 30
2, 13295, Note_on_c, 0, 62, 0
2, 13303, Note_on_c, 0, 53, 0
2, 13324, Note_on_c, 0, 63, 66
2, 13327, Note_on_c, 0, 59, 71
2, 13327, Note_on_c, 0, 66, 68
2, 13331, Note_on_c, 0, 68, 0
2, 13384, Control_c, 0, 64, 31
2, 13384, Note_on_c, 0, 63, 0
2, 13394, Note_on_c, 0, 66, 0
2, 13424, Control_c, 0, 64, 30
2, 13442, Note_on_c, 0, 68, 79
2, 13454, Note_on_c, 0, 51, 79
2, 13454, Note_on_c, 0, 59, 0
2, 13460, Note_on_c, 0, 65, 58
2, 13476, Note_on_c, 0, 68, 0
2, 13487, Note_on_c, 0, 65, 0
2, 13568, Note_on_c, 0, 51, 0
2, 13568, Note_on_c, 0, 59, 69
2, 13596, Control_c, 0, 64, 31
2, 13652, Control_c, 0, 64, 30
2, 13702, Note_on_c, 0, 51, 69
2, 13704, Note_on_c, 0, 59, 0
2, 13709, Note_on_c, 0, 77, 89
2, 13722, Note_on_c, 0, 68, 70
2, 13816, Note_on_c, 0, 51, 0
2, 13841, Note_on_c, 0, 59, 68
2, 13841, Note_on_c, 0, 68, 0
2, 13874, Note_on_c, 0, 77, 0
2, 13904, Control_c, 0, 64, 31
2, 13940, Note_on_c, 0, 59, 0
2, 13966, Note_on_c, 0, 50, 59
2, 14051, Note_on_c, 0, 50, 0
2, 14093, Control_c, 0, 64, 30
2, 14098, Note_on_c, 0, 58, 60
2, 14206, Note_on_c, 0, 58, 0
2, 14227, Note_on_c, 0, 50, 53
2, 14227, Note_on_c, 0, 68, 67
2, 14246, Note_on_c, 0, 65, 48
2, 14365, Note_on_c, 0, 58, 59
2, 14383, Note_on_c, 0, 65, 0
2, 14430, Note_on_c, 0, 68, 0
2, 14436, Note_on_c, 0, 50, 0
2, 14462, Control_c, 0, 64, 31
2, 14462, Note_on_c, 0, 58, 0
2, 14480, Note_on_c, 0, 46, 60
2, 14592, Note_on_c, 0, 46, 0
2, 14623, Note_on_c, 0, 58, 57
2, 14634, Control_c, 0, 64, 30
2, 14700, Note_on_c, 0, 58, 0
2, 14711, Control_c, 0, 64, 31
2, 14727, Control_c, 0, 64, 32
2, 14741, Note_on_c, 0, 66, 66
2, 14752, Note_on_c, 0, 46, 50
2, 14762, Note_on_c, 0, 62, 54
2, 14811, Note_on_c, 0, 46, 0
2, 14833, Note_on_c, 0, 62, 0
2, 14850, Note_on_c, 0, 58, 62
2, 14854, Note_on_c, 0, 66, 0
2, 14865, Note_on_c, 0, 65, 58
2, 14883, Control_c, 0, 64, 31
2, 14987, Note_on_c, 0, 58, 0
2, 15000, Note_on_c, 0, 51, 67
2, 15000, Note_on_c, 0, 66, 71
2, 15021, Note_on_c, 0, 63, 47
2, 15040, Note_on_c, 0, 65, 0
2, 15121, Note_on_c, 0, 54, 65
2, 15132, Control_c, 0, 64, 30
2, 15212, Note_on_c, 0, 51, 0
2, 15238, Note_on_c, 0, 56, 73
2, 15241, Note_on_c, 0, 63, 0
2, 15267, Control_c, 0, 64, 31
2, 15273, Note_on_c, 0, 66, 0
2, 15309, Note_on_c, 0, 54, 0
2, 15375, Note_on_c, 0, 58, 74
2, 15419, Control_c, 0, 64, 30
2, 15444, Note_on_c, 0, 56, 0
2, 15487, Note_on_c, 0, 59, 81
2, 15522, Note_on_c, 0, 58, 0
2, 15531, Note_on_c, 0, 59, 0
2, 15612, Control_c, 0, 64, 29
2, 15633, Control_c, 0, 64, 28
2, 15633, Note_on_c, 0, 70, 65
2, 15709, Control_c, 0, 64, 29
2, 15768, Note_on_c, 0, 51, 60
2, 15773, Note_on_c, 0, 68, 64
2, 15786, Control_c, 0, 64, 30
2, 15786, Note_on_c, 0, 70, 0
2, 15805, Note_on_c, 0, 51, 0
2, 15881, Control_c, 0, 64, 29
2, 15893, Note_on_c, 0, 66, 63
2, 15904, Note_on_c, 0, 68, 0
2, 16006, Note_on_c, 0, 66, 0
2, 16019, Note_on_c, 0, 65, 56
2, 16030, Note_on_c, 0, 50, 63
2, 16074, Control_c, 0, 64, 30
2, 16074, Note_on_c, 0, 50, 0
2, 16125, Note_on_c, 0, 65, 0
2, 16136, Note_on_c, 0, 63, 61
2, 16235, Note_on_c, 0, 63, 0
2, 16276, Note_on_c, 0, 65, 61
2, 16281, Note_on_c, 0, 59, 71
2, 16321, Note_on_c, 0, 59, 0
2, 16359, Control_c, 0, 64, 29
2, 16396, Note_on_c, 0, 65, 0
2, 16396, Note_on_c, 0, 68, 71
2, 16540, Note_on_c, 0, 58, 67
2, 16540, Note_on_c, 0, 67, 68
2, 16575, Note_on_c, 0, 58, 0
2, 16575, Note_on_c, 0, 68, 0
2, 16647, Note_on_c, 0, 67, 0
2, 16663, Note_on_c, 0, 65, 65
2, 16783, Note_on_c, 0, 49, 59
2, 16790, Note_on_c, 0, 67, 67
2, 16806, Note_on_c, 0, 65, 0
2, 16836, Note_on_c, 0, 49, 0
2, 16919, Note_on_c, 0, 70, 66
2, 16954, Note_on_c, 0, 67, 0
2, 16959, Control_c, 0, 64, 28
2, 16969, Note_on_c, 0, 70, 0
2, 17049, Note_on_c, 0, 70, 74
2, 17063, Note_on_c, 0, 48, 53
2, 17090, Control_c, 0, 64, 29
2, 17153, Note_on_c, 0, 48, 0
2, 17164, Note_on_c, 0, 51, 60
2, 17310, Note_on_c, 0, 53, 59
2, 17326, Note_on_c, 0, 68, 69
2, 17356, Note_on_c, 0, 51, 0
2, 17406, Note_on_c, 0, 53, 0
2, 17432, Note_on_c, 0, 55, 59
2, 17439, Note_on_c, 0, 70, 0
2, 17511, Note_on_c, 0, 68, 0
2, 17566, Note_on_c, 0, 56, 70
2, 17575, Note_on_c, 0, 55, 0
2, 17612, Note_on_c, 0, 56, 0
2, 17684, Note_on_c, 0, 66, 63
2, 17781, Control_c, 0, 64, 28
2, 17810, Note_on_c, 0, 66, 0
2, 17823, Note_on_c, 0, 47, 69
2, 17830, Note_on_c, 0, 64, 67
2, 17858, Control_c, 0, 64, 29
2, 17871, Note_on_c, 0, 47, 0
2, 17949, Note_on_c, 0, 64, 0
2, 17956, Note_on_c, 0, 63, 66
2, 17976, Control_c, 0, 64, 28
2, 18051, Control_c, 0, 64, 29
2, 18082, Note_on_c, 0, 61, 54
2, 18093, Note_on_c, 0, 46, 68
2, 18106, Note_on_c, 0, 63, 0
2, 18139, Note_on_c, 0, 46, 0
2, 18195, Note_on_c, 0, 61, 0
2, 18223, Control_c, 0, 64, 28
2, 18231, Note_on_c, 0, 60, 54
2, 18335, Note_on_c, 0, 60, 0
2, 18337, Control_c, 0, 64, 29
2, 18346, Note_on_c, 0, 61, 57
2, 18353, Note_on_c, 0, 55, 69
2, 18393, Note_on_c, 0, 55, 0
2, 18459, Note_on_c, 0, 64, 67
2, 18463, Note_on_c, 0, 61, 0
2, 18472, Control_c, 0, 64, 28
2, 18577, Note_on_c, 0, 64, 0
2, 18580, Note_on_c, 0, 63, 68
2, 18604, Note_on_c, 0, 54, 70
2, 18647, Control_c, 0, 64, 29
2, 18647, Note_on_c, 0, 54, 0
2, 18682, Note_on_c, 0, 63, 0
2, 18698, Note_on_c, 0, 61, 64
2, 18720, Control_c, 0, 64, 28
2, 18845, Note_on_c, 0, 63, 68
2, 18852, Note_on_c, 0, 45, 64
2, 18852, Note_on_c, 0, 61, 0
2, 18874, Control_c, 0, 64, 29
2, 18895, Note_on_c, 0, 45, 0
2, 18956, Note_on_c, 0, 66, 73
2, 18976, Note_on_c, 0, 63, 0
2, 19005, Note_on_c, 0, 66, 0
2, 19093, Note_on_c, 0, 66, 65
2, 19097, Note_on_c, 0, 44, 64
2, 19200, Note_on_c, 0, 48, 58
2, 19249, Note_on_c, 0, 44, 0
2, 19342, Note_on_c, 0, 49, 59
2, 19346, Note_on_c, 0, 48, 0
2, 19351, Note_on_c, 0, 64, 67
2, 19472, Note_on_c, 0, 51, 68
2, 19480, Note_on_c, 0, 66, 0
2, 19497, Note_on_c, 0, 64, 0
2, 19505, Note_on_c, 0, 49, 0
2, 19608, Note_on_c, 0, 52, 71
2, 19617, Note_on_c, 0, 51, 0
2, 19650, Note_on_c, 0, 52, 0
2, 19715, Note_on_c, 0, 63, 61
2, 19847, Note_on_c, 0, 61, 58
2, 19861, Note_on_c, 0, 44, 69
2, 19868, Note_on_c, 0, 63, 0
2, 19902, Note_on_c, 0, 44, 0
2, 19954, Note_on_c, 0, 61, 0
2, 19981, Note_on_c, 0, 59, 54
2, 20072, Note_on_c, 0, 59, 0
2, 20103, Note_on_c, 0, 58, 60
2, 20109, Note_on_c, 0, 43, 67
2, 20151, Note_on_c, 0, 43, 0
2, 20164, Control_c, 0, 64, 30
2, 20203, Note_on_c, 0, 58, 0
2, 20235, Note_on_c, 0, 56, 63
2, 20361, Note_on_c, 0, 56, 0
2, 20363, Note_on_c, 0, 52, 69
2, 20374, Note_on_c, 0, 58, 53
2, 20407, Note_on_c, 0, 52, 0
2, 20470, Note_on_c, 0, 58, 0
2, 20470, Note_on_c, 0, 61, 54
2, 20546, Control_c, 0, 64, 29
2, 20614, Note_on_c, 0, 51, 67
2, 20619, Note_on_c, 0, 61, 0
2, 20626, Note_on_c, 0, 60, 60
2, 20654, Note_on_c, 0, 51, 0
2, 20715, Note_on_c, 0, 60, 0
2, 20731, Note_on_c, 0, 58, 65
2, 20857, Note_on_c, 0, 58, 0
2, 20867, Note_on_c, 0, 42, 61
2, 20871, Note_on_c, 0, 60, 56
2, 20893, Control_c, 0, 64, 30
2, 20913, Note_on_c, 0, 42, 0
2, 20950, Note_on_c, 0, 60, 0
2, 20977, Note_on_c, 0, 63, 60
2, 21045, Control_c, 0, 64, 29
2, 21124, Note_on_c, 0, 41, 67
2, 21124, Note_on_c, 0, 56, 58
2, 21127, Note_on_c, 0, 63, 0
2, 21164, Note_on_c, 0, 41, 0
2, 21203, Note_on_c, 0, 56, 0
2, 21235, Note_on_c, 0, 55, 50
2, 21348, Note_on_c, 0, 55, 0
2, 21371, Note_on_c, 0, 56, 55
2, 21380, Note_on_c, 0, 50, 63
2, 21427, Note_on_c, 0, 50, 0
2, 21447, Control_c, 0, 64, 30
2, 21472, Note_on_c, 0, 56, 0
2, 21485, Note_on_c, 0, 59, 61
2, 21618, Note_on_c, 0, 59, 0
2, 21627, Note_on_c, 0, 49, 61
2, 21627, Note_on_c, 0, 58, 57
2, 21661, Note_on_c, 0, 49, 0
2, 21714, Note_on_c, 0, 58, 0
2, 21749, Note_on_c, 0, 56, 59
2, 21874, Note_on_c, 0, 56, 0
2, 21887, Note_on_c, 0, 58, 57
2, 21895, Note_on_c, 0, 40, 58
2, 21936, Note_on_c, 0, 40, 0
2, 22003, Note_on_c, 0, 61, 49
2, 22040, Note_on_c, 0, 58, 0
2, 22114, Note_on_c, 0, 61, 0
2, 22154, Note_on_c, 0, 39, 61
2, 22161, Note_on_c, 0, 55, 60
2, 22200, Note_on_c, 0, 39, 0
2, 22235, Note_on_c, 0, 55, 0
2, 22257, Control_c, 0, 64, 29
2, 22287, Note_on_c, 0, 64, 64
2, 22401, Note_on_c, 0, 64, 0
2, 22420, Note_on_c, 0, 41, 64
2, 22424, Note_on_c, 0, 63, 59
2, 22459, Note_on_c, 0, 41, 0
2, 22518, Note_on_c, 0, 63, 0
2, 22540, Note_on_c, 0, 61, 62
2, 22666, Note_on_c, 0, 43, 66
2, 22672, Note_on_c, 0, 70, 70
2, 22677, Note_on_c, 0, 61, 0
2, 22716, Note_on_c, 0, 43, 0
2, 22799, Note_on_c, 0, 61, 61
2, 22804, Note_on_c, 0, 70, 0
2, 22920, Note_on_c, 0, 61, 0
2, 22925, Note_on_c, 0, 39, 62
2, 22933, Note_on_c, 0, 70, 70
2, 22967, Note_on_c, 0, 39, 0
2, 23043, Note_on_c, 0, 61, 57
2, 23101, Note_on_c, 0, 70, 0
2, 23134, Note_on_c, 0, 61, 0
2, 23184, Note_on_c, 0, 60, 67
2, 23193, Note_on_c, 0, 44, 71
2, 23233, Control_c, 0, 64, 30
2, 23238, Note_on_c, 0, 44, 0
2, 23299, Note_on_c, 0, 69, 65
2, 23308, Note_on_c, 0, 60, 0
2, 23445, Note_on_c, 0, 46, 78
2, 23449, Note_on_c, 0, 68, 79
2, 23456, Note_on_c, 0, 69, 0
2, 23488, Note_on_c, 0, 46, 0
2, 23562, Note_on_c, 0, 66, 75
2, 23582, Note_on_c, 0, 68, 0
2, 23694, Note_on_c, 0, 75, 84
2, 23702, Note_on_c, 0, 48, 77
2, 23710, Note_on_c, 0, 66, 0
2, 23750, Note_on_c, 0, 48, 0
2, 23821, Note_on_c, 0, 66, 76
2, 23843, Note_on_c, 0, 75, 0
2, 23867, Control_c, 0, 64, 29
2, 23944, Control_c, 0, 64, 30
2, 23946, Note_on_c, 0, 66, 0
2, 23955, Note_on_c, 0, 75, 74
2, 23963, Note_on_c, 0, 44, 69
2, 24012, Note_on_c, 0, 44, 0
2, 24065, Note_on_c, 0, 66, 70
2, 24122, Note_on_c, 0, 75, 0
2, 24190, Note_on_c, 0, 66, 0
2, 24213, Note_on_c, 0, 49, 77
2, 24213, Note_on_c, 0, 65, 70
2, 24274, Note_on_c, 0, 49, 0
2, 24331, Note_on_c, 0, 65, 0
2, 24343, Note_on_c, 0, 62, 74
2, 24472, Note_on_c, 0, 51, 82
2, 24472, Note_on_c, 0, 61, 71
2, 24483, Note_on_c, 0, 62, 0
2, 24534, Note_on_c, 0, 51, 0
2, 24579, Note_on_c, 0, 61, 0
2, 24603, Note_on_c, 0, 59, 70
2, 24727, Note_on_c, 0, 68, 81
2, 24737, Note_on_c, 0, 53, 82
2, 24737, Note_on_c, 0, 59, 0
2, 24796, Note_on_c, 0, 53, 0
2, 24861, Note_on_c, 0, 59, 72
2, 24866, Note_on_c, 0, 68, 0
2, 24992, Note_on_c, 0, 59, 0
2, 24997, Note_on_c, 0, 68, 73
2, 24999, Note_on_c, 0, 49, 73
2, 25043, Note_on_c, 0, 49, 0
2, 25123, Note_on_c, 0, 59, 69
2, 25124, Note_on_c, 0, 68, 0
2, 25257, Note_on_c, 0, 54, 78
2, 25257, Note_on_c, 0, 58, 79
2, 25266, Note_on_c, 0, 59, 0
2, 25321, Note_on_c, 0, 54, 0
2, 25325, Note_on_c, 0, 58, 0
2, 25368, Note_on_c, 0, 67, 74
2, 25498, Note_on_c, 0, 66, 73
2, 25511, Note_on_c, 0, 56, 80
2, 25524, Note_on_c, 0, 67, 0
2, 25582, Note_on_c, 0, 56, 0
2, 25595, Note_on_c, 0, 66, 0
2, 25628, Note_on_c, 0, 64, 77
2, 25765, Note_on_c, 0, 73, 81
2, 25777, Note_on_c, 0, 58, 89
2, 25790, Note_on_c, 0, 64, 0
2, 25840, Note_on_c, 0, 58, 0
2, 25904, Note_on_c, 0, 64, 74
2, 25913, Note_on_c, 0, 73, 0
2, 26025, Note_on_c, 0, 73, 76
2, 26032, Note_on_c, 0, 64, 0
2, 26037, Note_on_c, 0, 54, 77
2, 26090, Note_on_c, 0, 54, 0
2, 26152, Note_on_c, 0, 73, 0
2, 26160, Note_on_c, 0, 64, 68
2, 26283, Note_on_c, 0, 64, 0
2, 26291, Note_on_c, 0, 59, 83
2, 26291, Note_on_c, 0, 63, 72
2, 26344, Control_c, 0, 64, 31
2, 26353, Note_on_c, 0, 59, 0
2, 26364, Note_on_c, 0, 63, 0
2, 26428, Note_on_c, 0, 66, 76
2, 26497, Control_c, 0, 64, 32
2, 26537, Note_on_c, 0, 68, 77
2, 26548, Note_on_c, 0, 66, 0
2, 26555, Note_on_c, 0, 58, 84
2, 26621, Note_on_c, 0, 58, 0
2, 26658, Note_on_c, 0, 70, 80
2, 26705, Note_on_c, 0, 68, 0
2, 26797, Note_on_c, 0, 71, 86
2, 26804, Note_on_c, 0, 56, 86
2, 26837, Note_on_c, 0, 70, 0
2, 26872, Note_on_c, 0, 56, 0
2, 26900, Control_c, 0, 64, 31
2, 26918, Note_on_c, 0, 66, 78
2, 26997, Note_on_c, 0, 71, 0
2, 27054, Control_c, 0, 64, 32
2, 27054, Note_on_c, 0, 66, 0
2, 27058, Note_on_c, 0, 65, 74
2, 27064, Note_on_c, 0, 54, 77
2, 27111, Note_on_c, 0, 54, 0
2, 27176, Note_on_c, 0, 65, 0
2, 27190, Note_on_c, 0, 63, 70
2, 27293, Note_on_c, 0, 63, 0
2, 27335, Note_on_c, 0, 62, 72
2, 27342, Note_on_c, 0, 53, 81
2, 27380, Note_on_c, 0, 53, 0
2, 27455, Note_on_c, 0, 62, 0
2, 27457, Control_c, 0, 64, 33
2, 27462, Note_on_c, 0, 71, 80
2, 27587, Note_on_c, 0, 56, 80
2, 27592, Control_c, 0, 64, 34
2, 27600, Note_on_c, 0, 70, 79
2, 27613, Control_c, 0, 64, 35
2, 27613, Note_on_c, 0, 71, 0
2, 27650, Control_c, 0, 64, 36
2, 27650, Note_on_c, 0, 56, 0
2, 27722, Note_on_c, 0, 68, 90
2, 27729, Note_on_c, 0, 70, 0
2, 27785, Control_c, 0, 64, 35
2, 27842, Note_on_c, 0, 50, 72
2, 27844, Note_on_c, 0, 77, 90
2, 27873, Note_on_c, 0, 68, 0
2, 27915, Note_on_c, 0, 50, 0
2, 27973, Note_on_c, 0, 68, 85
2, 28008, Note_on_c, 0, 77, 0
2, 28091, Control_c, 0, 64, 36
2, 28111, Control_c, 0, 64, 37
2, 28111, Note_on_c, 0, 46, 61
2, 28111, Note_on_c, 0, 77, 83
2, 28125, Note_on_c, 0, 68, 0
2, 28149, Control_c, 0, 64, 38
2, 28161, Note_on_c, 0, 46, 0
2, 28207, Control_c, 0, 64, 37
2, 28218, Note_on_c, 0, 77, 0
2, 28236, Note_on_c, 0, 68, 73
2, 28263, Control_c, 0, 64, 36
2, 28325, Note_on_c, 0, 68, 0
2, 28366, Note_on_c, 0, 66, 69
2, 28373, Note_on_c, 0, 51, 72
2, 28437, Control_c, 0, 64, 37
2, 28437, Note_on_c, 0, 51, 0
2, 28494, Note_on_c, 0, 70, 73
2, 28524, Note_on_c, 0, 66, 0
2, 28625, Note_on_c, 0, 49, 77
2, 28629, Note_on_c, 0, 75, 79
2, 28675, Note_on_c, 0, 70, 0
2, 28696, Note_on_c, 0, 49, 0
2, 28742, Note_on_c, 0, 77, 79
2, 28840, Control_c, 0, 64, 36
2, 28881, Note_on_c, 0, 48, 83
2, 28881, Note_on_c, 0, 78, 95
2, 28893, Note_on_c, 0, 75, 0
2, 28916, Control_c, 0, 64, 37
2, 28925, Note_on_c, 0, 77, 0
2, 28942, Note_on_c, 0, 48, 0
2, 29010, Note_on_c, 0, 75, 77
2, 29051, Control_c, 0, 64, 38
2, 29128, Note_on_c, 0, 78, 0
2, 29130, Control_c, 0, 64, 39
2, 29135, Note_on_c, 0, 75, 0
2, 29146, Note_on_c, 0, 46, 66
2, 29146, Note_on_c, 0, 72, 76
2, 29166, Control_c, 0, 64, 40
2, 29187, Control_c, 0, 64, 41
2, 29195, Note_on_c, 0, 46, 0
2, 29243, Control_c, 0, 64, 40
2, 29255, Note_on_c, 0, 72, 0
2, 29275, Note_on_c, 0, 75, 69
2, 29342, Control_c, 0, 64, 39
2, 29359, Note_on_c, 0, 75, 0
2, 29400, Note_on_c, 0, 48, 76
2, 29400, Note_on_c, 0, 69, 70
2, 29443, Note_on_c, 0, 48, 0
2, 29505, Note_on_c, 0, 69, 0
2, 29519, Note_on_c, 0, 78, 77
2, 29654, Note_on_c, 0, 51, 82
2, 29654, Note_on_c, 0, 77, 87
2, 29688, Control_c, 0, 64, 40
2, 29693, Note_on_c, 0, 78, 0
2, 29721, Note_on_c, 0, 51, 0
2, 29766, Note_on_c, 0, 75, 86
2, 29785, Note_on_c, 0, 77, 0
2, 29907, Note_on_c, 0, 45, 70
2, 29907, Note_on_c, 0, 84, 88
2, 29921, Note_on_c, 0, 75, 0
2, 29990, Note_on_c, 0, 45, 0
2, 30029, Control_c, 0, 64, 41
2, 30044, Note_on_c, 0, 75, 82
2, 30071, Control_c, 0, 64, 40
2, 30089, Note_on_c, 0, 84, 0
2, 30109, Control_c, 0, 64, 39
2, 30126, Control_c, 0, 64, 38
2, 30166, Note_on_c, 0, 41, 67
2, 30170, Note_on_c, 0, 84, 84
2, 30195, Note_on_c, 0, 75, 0
2, 30202, Control_c, 0, 64, 39
2, 30244, Note_on_c, 0, 41, 0
2, 30299, Note_on_c, 0, 75, 78
2, 30347, Note_on_c, 0, 84, 0
2, 30449, Note_on_c, 0, 74, 78
2, 30455, Note_on_c, 0, 46, 80
2, 30455, Note_on_c, 0, 75, 0
2, 30572, Note_on_c, 0, 75, 82
2, 30587, Control_c, 0, 64, 40
2, 30605, Control_c, 0, 64, 41
2, 30616, Note_on_c, 0, 74, 0
2, 30624, Control_c, 0, 64, 43
2, 30647, Control_c, 0, 64, 44
2, 30701, Control_c, 0, 64, 45
2, 30708, Note_on_c, 0, 77, 79
2, 30725, Note_on_c, 0, 46, 0
2, 30759, Note_on_c, 0, 75, 0
2, 30764, Control_c, 0, 64, 44
2, 30779, Control_c, 0, 64, 43
2, 30798, Control_c, 0, 64, 44
2, 30817, Control_c, 0, 64, 46
2, 30839, Control_c, 0, 64, 49
2, 30843, Note_on_c, 0, 82, 80
2, 30876, Note_on_c, 0, 77, 0
2, 30963, Note_on_c, 0, 70, 74
2, 30971, Control_c, 0, 64, 48
2, 30989, Control_c, 0, 64, 47
2, 31080, Note_on_c, 0, 68, 72
2, 31080, Note_on_c, 0, 82, 0
2, 31104, Control_c, 0, 64, 48
2, 31104, Note_on_c, 0, 70, 0
2, 31163, Control_c, 0, 64, 47
2, 31215, Note_on_c, 0, 66, 57
2, 31231, Note_on_c, 0, 68, 0
2, 31240, Control_c, 0, 64, 46
2, 31277, Control_c, 0, 64, 45
2, 31334, Note_on_c, 0, 66, 0
2, 31354, Note_on_c, 0, 65, 53
2, 31413, Control_c, 0, 64, 44
2, 31471, Note_on_c, 0, 65, 0
2, 31486, Note_on_c, 0, 63, 65
2, 31509, Control_c, 0, 64, 43
2, 31611, Note_on_c, 0, 63, 0
2, 31618, Note_on_c, 0, 74, 57
2, 31620, Note_on_c, 0, 65, 57
2, 31717, Note_on_c, 0, 74, 0
2, 31726, Note_on_c, 0, 75, 64
2, 31735, Note_on_c, 0, 65, 0
2, 31735, Note_on_c, 0, 66, 66
2, 31778, Control_c, 0, 64, 44
2, 31822, Note_on_c, 0, 75, 0
2, 31845, Note_on_c, 0, 68, 69
2, 31845, Note_on_c, 0, 77, 58
2, 31855, Note_on_c, 0, 66, 0
2, 31938, Note_on_c, 0, 77, 0
2, 31948, Note_on_c, 0, 78, 66
2, 31952, Note_on_c, 0, 68, 0
2, 31969, Note_on_c, 0, 70, 64
2, 32038, Note_on_c, 0, 77, 65
2, 32057, Note_on_c, 0, 78, 0
2, 32085, Note_on_c, 0, 70, 0
2, 32098, Note_on_c, 0, 66, 65
2, 32100, Note_on_c, 0, 77, 0
2, 32107, Note_on_c, 0, 75, 68
2, 32142, Note_on_c, 0, 75, 0
2, 32183, Note_on_c, 0, 66, 0
2, 32203, Note_on_c, 0, 65, 58
2, 32240, Control_c, 0, 64, 45
2, 32244, Note_on_c, 0, 83, 74
2, 32256, Note_on_c, 0, 80, 60
2, 32281, Note_on_c, 0, 83, 0
2, 32294, Note_on_c, 0, 80, 0
2, 32311, Note_on_c, 0, 65, 0
2, 32341, Note_on_c, 0, 63, 60
2, 32394, Control_c, 0, 64, 44
2, 32463, Note_on_c, 0, 63, 0
2, 32478, Note_on_c, 0, 62, 56
2, 32497, Note_on_c, 0, 83, 58
2, 32501, Note_on_c, 0, 80, 63
2, 32614, Note_on_c, 0, 62, 0
2, 32625, Note_on_c, 0, 63, 55
2, 32681, Control_c, 0, 64, 45
2, 32707, Note_on_c, 0, 63, 0
2, 32751, Note_on_c, 0, 65, 50
2, 32761, Note_on_c, 0, 80, 0
2, 32761, Note_on_c, 0, 82, 65
2, 32769, Note_on_c, 0, 74, 54
2, 32815, Control_c, 0, 64, 46
2, 32854, Note_on_c, 0, 83, 0
2, 32856, Note_on_c, 0, 65, 0
2, 32874, Note_on_c, 0, 59, 60
2, 32894, Control_c, 0, 64, 47
2, 33009, Note_on_c, 0, 59, 0
2, 33011, Note_on_c, 0, 58, 66
2, 33043, Note_on_c, 0, 74, 0
2, 33082, Note_on_c, 0, 58, 0
2, 33123, Control_c, 0, 64, 48
2, 33131, Note_on_c, 0, 56, 68
2, 33138, Note_on_c, 0, 82, 0
2, 33161, Control_c, 0, 64, 47
2, 33248, Note_on_c, 0, 54, 60
2, 33248, Note_on_c, 0, 56, 0
2, 33363, Note_on_c, 0, 53, 58
2, 33370, Note_on_c, 0, 54, 0
2, 33410, Control_c, 0, 64, 46
2, 33492, Note_on_c, 0, 53, 0
2, 33501, Note_on_c, 0, 51, 62
2, 33574, Note_on_c, 0, 51, 0
2, 33622, Note_on_c, 0, 58, 55
2, 33641, Control_c, 0, 64, 45
2, 33697, Note_on_c, 0, 58, 0
2, 33731, Note_on_c, 0, 51, 61
2, 33735, Control_c, 0, 64, 46
2, 33746, Note_on_c, 0, 78, 72
2, 33755, Note_on_c, 0, 75, 60
2, 33778, Note_on_c, 0, 78, 0
2, 33790, Note_on_c, 0, 75, 0
2, 33799, Note_on_c, 0, 51, 0
2, 33812, Control_c, 0, 64, 47
2, 33852, Note_on_c, 0, 58, 56
2, 33869, Control_c, 0, 64, 46
2, 33962, Note_on_c, 0, 58, 0
2, 34004, Note_on_c, 0, 50, 50
2, 34012, Note_on_c, 0, 78, 69
2, 34022, Note_on_c, 0, 75, 50
2, 34105, Note_on_c, 0, 50, 0
2, 34145, Note_on_c, 0, 58, 49
2, 34237, Note_on_c, 0, 58, 0
2, 34286, Note_on_c, 0, 50, 53
2, 34286, Note_on_c, 0, 80, 65
2, 34295, Note_on_c, 0, 77, 47
2, 34360, Note_on_c, 0, 75, 0
2, 34375, Note_on_c, 0, 50, 0
2, 34393, Note_on_c, 0, 77, 0
2, 34403, Note_on_c, 0, 78, 0
2, 34410, Note_on_c, 0, 58, 54
2, 34421, Note_on_c, 0, 80, 0
2, 34513, Note_on_c, 0, 58, 0
2, 34539, Note_on_c, 0, 51, 57
2, 34610, Note_on_c, 0, 51, 0
2, 34676, Note_on_c, 0, 58, 55
2, 34750, Note_on_c, 0, 58, 0
2, 34775, Note_on_c, 0, 51, 53
2, 34781, Note_on_c, 0, 78, 74
2, 34801, Note_on_c, 0, 75, 53
2, 34820, Note_on_c, 0, 78, 0
2, 34831, Note_on_c, 0, 75, 0
2, 34851, Note_on_c, 0, 51, 0
2, 34871, Control_c, 0, 64, 47
2, 34917, Note_on_c, 0, 58, 48
2, 34946, Control_c, 0, 64, 46
2, 34977, Note_on_c, 0, 58, 0
2, 35018, Note_on_c, 0, 78, 65
2, 35027, Note_on_c, 0, 46, 48
2, 35040, Note_on_c, 0, 75, 38
2, 35124, Note_on_c, 0, 46, 0
2, 35161, Note_on_c, 0, 56, 52
2, 35214, Note_on_c, 0, 56, 0
2, 35288, Note_on_c, 0, 46, 45
2, 35292, Note_on_c, 0, 75, 0
2, 35299, Note_on_c, 0, 77, 67
2, 35310, Note_on_c, 0, 74, 43
2, 35400, Note_on_c, 0, 78, 0
2, 35419, Note_on_c, 0, 56, 48
2, 35449, Note_on_c, 0, 74, 0
2, 35478, Note_on_c, 0, 46, 0
2, 35478, Note_on_c, 0, 77, 0
2, 35503, Control_c, 0, 64, 45
2, 35516, Note_on_c, 0, 56, 0
2, 35547, Note_on_c, 0, 47, 59
2, 35639, Note_on_c, 0, 47, 0
2, 35694, Note_on_c, 0, 54, 46
2, 35758, Note_on_c, 0, 54, 0
2, 35804, Note_on_c, 0, 47, 54
2, 35810, Note_on_c, 0, 75, 70
2, 35838, Note_on_c, 0, 75, 0
2, 35847, Control_c, 0, 64, 46
2, 35928, Note_on_c, 0, 54, 48
2, 35983, Control_c, 0, 64, 45
2, 36023, Note_on_c, 0, 54, 0
2, 36053, Note_on_c, 0, 75, 64
2, 36068, Note_on_c, 0, 46, 48
2, 36104, Note_on_c, 0, 75, 0
2, 36120, Note_on_c, 0, 76, 78
2, 36124, Note_on_c, 0, 47, 0
2, 36151, Note_on_c, 0, 46, 0
2, 36174, Note_on_c, 0, 76, 0
2, 36182, Note_on_c, 0, 54, 53
2, 36182, Note_on_c, 0, 75, 64
2, 36235, Note_on_c, 0, 75, 0
2, 36253, Note_on_c, 0, 74, 66
2, 36287, Note_on_c, 0, 54, 0
2, 36312, Note_on_c, 0, 75, 65
2, 36316, Note_on_c, 0, 46, 49
2, 36399, Note_on_c, 0, 74, 0
2, 36455, Note_on_c, 0, 46, 0
2, 36455, Note_on_c, 0, 54, 52
2, 36510, Note_on_c, 0, 75, 0
2, 36575, Note_on_c, 0, 54, 0
2, 36600, Note_on_c, 0, 47, 57
2, 36635, Control_c, 0, 64, 46
2, 36666, Note_on_c, 0, 47, 0
2, 36745, Note_on_c, 0, 54, 47
2, 36826, Note_on_c, 0, 54, 0
2, 36860, Note_on_c, 0, 47, 52
2, 36860, Note_on_c, 0, 75, 74
2, 36904, Note_on_c, 0, 75, 0
2, 36927, Note_on_c, 0, 47, 0
2, 36981, Note_on_c, 0, 54, 56
2, 37060, Note_on_c, 0, 54, 0
2, 37125, Note_on_c, 0, 73, 75
2, 37129, Note_on_c, 0, 43, 54
2, 37211, Note_on_c, 0, 43, 0
2, 37240, Note_on_c, 0, 52, 59
2, 37248, Note_on_c, 0, 73, 0
2, 37256, Note_on_c, 0, 71, 70
2, 37360, Note_on_c, 0, 52, 0
2, 37382, Note_on_c, 0, 43, 59
2, 37382, Note_on_c, 0, 73, 80
2, 37403, Note_on_c, 0, 71, 0
2, 37474, Note_on_c, 0, 43, 0
2, 37505, Note_on_c, 0, 52, 60
2, 37506, Note_on_c, 0, 82, 76
2, 37544, Note_on_c, 0, 73, 0
2, 37604, Note_on_c, 0, 52, 0
2, 37614, Control_c, 0, 64, 47
2, 37645, Note_on_c, 0, 44, 67
2, 37645, Note_on_c, 0, 71, 86
2, 37659, Note_on_c, 0, 82, 0
2, 37672, Note_on_c, 0, 71, 0
2, 37732, Note_on_c, 0, 44, 0
2, 37773, Control_c, 0, 64, 46
2, 37773, Note_on_c, 0, 51, 64
2, 37874, Note_on_c, 0, 51, 0
2, 37883, Control_c, 0, 64, 47
2, 37896, Note_on_c, 0, 44, 60
2, 37904, Note_on_c, 0, 63, 75
2, 37937, Note_on_c, 0, 63, 0
2, 38016, Control_c, 0, 64, 46
2, 38035, Note_on_c, 0, 51, 58
2, 38102, Note_on_c, 0, 44, 0
2, 38131, Note_on_c, 0, 51, 0
2, 38152, Note_on_c, 0, 63, 69
2, 38157, Note_on_c, 0, 73, 80
2, 38163, Note_on_c, 0, 43, 65
2, 38170, Control_c, 0, 64, 47
2, 38195, Note_on_c, 0, 63, 0
2, 38232, Note_on_c, 0, 43, 0
2, 38236, Note_on_c, 0, 64, 69
2, 38271, Note_on_c, 0, 64, 0
2, 38275, Note_on_c, 0, 51, 66
2, 38295, Note_on_c, 0, 63, 70
2, 38335, Note_on_c, 0, 63, 0
2, 38368, Note_on_c, 0, 62, 72
2, 38375, Note_on_c, 0, 51, 0
2, 38402, Note_on_c, 0, 43, 56
2, 38419, Control_c, 0, 64, 48
2, 38426, Note_on_c, 0, 63, 69
2, 38438, Note_on_c, 0, 62, 0
2, 38458, Control_c, 0, 64, 47
2, 38510, Note_on_c, 0, 43, 0
2, 38510, Note_on_c, 0, 73, 0
2, 38536, Note_on_c, 0, 51, 58
2, 38583, Note_on_c, 0, 63, 0
2, 38669, Note_on_c, 0, 51, 0
2, 38669, Note_on_c, 0, 71, 84
2, 38684, Note_on_c, 0, 44, 69
2, 38766, Control_c, 0, 64, 48
2, 38769, Note_on_c, 0, 44, 0
2, 38813, Note_on_c, 0, 51, 63
2, 38903, Note_on_c, 0, 51, 0
2, 38919, Note_on_c, 0, 64, 65
2, 38924, Note_on_c, 0, 44, 65
2, 38966, Note_on_c, 0, 64, 0
2, 38975, Note_on_c, 0, 63, 58
2, 38999, Control_c, 0, 64, 47
2, 39004, Note_on_c, 0, 63, 0
2, 39050, Note_on_c, 0, 51, 61
2, 39078, Note_on_c, 0, 61, 63
2, 39101, Note_on_c, 0, 61, 0
2, 39153, Note_on_c, 0, 71, 0
2, 39158, Note_on_c, 0, 51, 0
2, 39182, Note_on_c, 0, 42, 59
2, 39192, Note_on_c, 0, 70, 75
2, 39208, Note_on_c, 0, 63, 64
2, 39293, Note_on_c, 0, 42, 0
2, 39302, Note_on_c, 0, 44, 0
2, 39325, Control_c, 0, 64, 46
2, 39325, Note_on_c, 0, 51, 55
2, 39405, Note_on_c, 0, 51, 0
2, 39464, Note_on_c, 0, 70, 0
2, 39464, Note_on_c, 0, 75, 68
2, 39466, Note_on_c, 0, 42, 48
2, 39479, Note_on_c, 0, 63, 0
2, 39548, Note_on_c, 0, 42, 0
2, 39590, Note_on_c, 0, 51, 53
2, 39610, Control_c, 0, 64, 47
2, 39714, Note_on_c, 0, 51, 0
2, 39721, Note_on_c, 0, 75, 0
2, 39730, Note_on_c, 0, 68, 78
2, 39737, Note_on_c, 0, 41, 59
2, 39794, Note_on_c, 0, 41, 0
2, 39864, Note_on_c, 0, 51, 58
2, 40002, Note_on_c, 0, 51, 0
2, 40007, Note_on_c, 0, 50, 57
2, 40007, Note_on_c, 0, 77, 81
2, 40111, Note_on_c, 0, 50, 0
2, 40126, Note_on_c, 0, 48, 59
2, 40127, Note_on_c, 0, 75, 76
2, 40143, Note_on_c, 0, 77, 0
2, 40148, Control_c, 0, 64, 46
2, 40246, Note_on_c, 0, 48, 0
2, 40263, Note_on_c, 0, 77, 79
2, 40272, Note_on_c, 0, 50, 62
2, 40279, Note_on_c, 0, 75, 0
2, 40306, Note_on_c, 0, 77, 0
2, 40321, Control_c, 0, 64, 47
2, 40359, Note_on_c, 0, 50, 0
2, 40402, Note_on_c, 0, 56, 57
2, 40436, Control_c, 0, 64, 46
2, 40497, Note_on_c, 0, 56, 0
2, 40524, Note_on_c, 0, 80, 79
2, 40533, Control_c, 0, 64, 47
2, 40540, Note_on_c, 0, 53, 57
2, 40590, Note_on_c, 0, 80, 0
2, 40634, Note_on_c, 0, 53, 0
2, 40662, Note_on_c, 0, 56, 55
2, 40774, Note_on_c, 0, 56, 0
2, 40790, Note_on_c, 0, 46, 58
2, 40795, Note_on_c, 0, 74, 81
2, 40806, Note_on_c, 0, 68, 0
2, 40886, Note_on_c, 0, 74, 0
2, 40903, Note_on_c, 0, 70, 75
2, 40911, Note_on_c, 0, 46, 0
2, 40929, Note_on_c, 0, 56, 53
2, 40946, Note_on_c, 0, 70, 0
2, 40974, Control_c, 0, 64, 48
2, 41034, Note_on_c, 0, 77, 85
2, 41036, Note_on_c, 0, 56, 0
2, 41043, Note_on_c, 0, 68, 70
2, 41047, Note_on_c, 0, 48, 68
2, 41092, Note_on_c, 0, 68, 0
2, 41092, Note_on_c, 0, 77, 0
2, 41167, Note_on_c, 0, 66, 78
2, 41181, Note_on_c, 0, 56, 59
2, 41274, Note_on_c, 0, 56, 0
2, 41283, Note_on_c, 0, 66, 0
2, 41301, Note_on_c, 0, 50, 56
2, 41301, Note_on_c, 0, 70, 69
2, 41308, Note_on_c, 0, 65, 54
2, 41314, Note_on_c, 0, 48, 0
2, 41362, Note_on_c, 0, 65, 0
2, 41398, Control_c, 0, 64, 47
2, 41422, Note_on_c, 0, 63, 61
2, 41441, Note_on_c, 0, 50, 0
2, 41446, Note_on_c, 0, 56, 51
2, 41529, Control_c, 0, 64, 48
2, 41536, Note_on_c, 0, 56, 0
2, 41543, Note_on_c, 0, 63, 0
2, 41554, Note_on_c, 0, 46, 55
2, 41567, Note_on_c, 0, 65, 54
2, 41637, Note_on_c, 0, 65, 0
2, 41646, Control_c, 0, 64, 47
2, 41683, Note_on_c, 0, 62, 57
2, 41700, Note_on_c, 0, 56, 52
2, 41705, Note_on_c, 0, 46, 0
2, 41780, Control_c, 0, 64, 46
2, 41796, Note_on_c, 0, 56, 0
2, 41809, Note_on_c, 0, 62, 0
2, 41812, Note_on_c, 0, 63, 58
2, 41816, Note_on_c, 0, 51, 65
2, 41842, Control_c, 0, 64, 47
2, 41842, Note_on_c, 0, 63, 0
2, 41842, Note_on_c, 0, 70, 0
2, 41932, Note_on_c, 0, 51, 0
2, 41939, Note_on_c, 0, 54, 64
2, 42073, Note_on_c, 0, 54, 0
2, 42081, Note_on_c, 0, 70, 80
2, 42086, Note_on_c, 0, 51, 71
2, 42086, Note_on_c, 0, 66, 69
2, 42200, Note_on_c, 0, 66, 0
2, 42204, Note_on_c, 0, 54, 69
2, 42209, Note_on_c, 0, 51, 0
2, 42209, Note_on_c, 0, 68, 79
2, 42213, Note_on_c, 0, 65, 60
2, 42228, Note_on_c, 0, 70, 0
2, 42314, Note_on_c, 0, 54, 0
2, 42321, Note_on_c, 0, 49, 68
2, 42323, Note_on_c, 0, 70, 82
2, 42330, Note_on_c, 0, 66, 67
2, 42334, Note_on_c, 0, 65, 0
2, 42356, Note_on_c, 0, 68, 0
2, 42369, Note_on_c, 0, 66, 0
2, 42378, Note_on_c, 0, 70, 0
2, 42444, Note_on_c, 0, 49, 0
2, 42457, Note_on_c, 0, 58, 73
2, 42597, Note_on_c, 0, 58, 0
2, 42608, Note_on_c, 0, 49, 67
2, 42608, Note_on_c, 0, 78, 92
2, 42626, Note_on_c, 0, 70, 73
2, 42737, Note_on_c, 0, 58, 66
2, 42744, Note_on_c, 0, 49, 0
2, 42760, Note_on_c, 0, 70, 0
2, 42815, Note_on_c, 0, 78, 0
2, 42840, Note_on_c, 0, 58, 0
2, 42868, Note_on_c, 0, 48, 64
2, 42962, Note_on_c, 0, 48, 0
2, 43004, Note_on_c, 0, 56, 59
2, 43013, Control_c, 0, 64, 46
2, 43116, Note_on_c, 0, 56, 0
2, 43139, Note_on_c, 0, 48, 50
2, 43141, Note_on_c, 0, 75, 75
2, 43150, Note_on_c, 0, 66, 61
2, 43162, Control_c, 0, 64, 47
2, 43206, Note_on_c, 0, 48, 0
2, 43268, Note_on_c, 0, 56, 54
2, 43300, Note_on_c, 0, 66, 0
2, 43316, Note_on_c, 0, 75, 0
2, 43355, Note_on_c, 0, 56, 0
2, 43392, Note_on_c, 0, 44, 58
2, 43490, Note_on_c, 0, 44, 0
2, 43525, Note_on_c, 0, 56, 57
2, 43598, Note_on_c, 0, 56, 0
2, 43646, Note_on_c, 0, 44, 62
2, 43660, Note_on_c, 0, 72, 69
2, 43668, Note_on_c, 0, 65, 52
2, 43775, Note_on_c, 0, 63, 56
2, 43789, Note_on_c, 0, 65, 0
2, 43803, Note_on_c, 0, 54, 52
2, 43853, Note_on_c, 0, 63, 0
2, 43857, Note_on_c, 0, 72, 0
2, 43869, Note_on_c, 0, 54, 0
2, 43880, Note_on_c, 0, 44, 0
2, 43904, Note_on_c, 0, 49, 58
2, 43979, Note_on_c, 0, 49, 0
2, 44017, Note_on_c, 0, 53, 56
2, 44145, Note_on_c, 0, 53, 0
2, 44155, Note_on_c, 0, 68, 73
2, 44160, Note_on_c, 0, 49, 55
2, 44173, Note_on_c, 0, 65, 51
2, 44249, Note_on_c, 0, 65, 0
2, 44272, Note_on_c, 0, 66, 67
2, 44283, Note_on_c, 0, 49, 0
2, 44283, Note_on_c, 0, 68, 0
2, 44294, Note_on_c, 0, 63, 45
2, 44299, Note_on_c, 0, 53, 55
2, 44366, Note_on_c, 0, 53, 0
2, 44387, Note_on_c, 0, 65, 62
2, 44396, Note_on_c, 0, 68, 69
2, 44400, Note_on_c, 0, 63, 0
2, 44418, Note_on_c, 0, 48, 63
2, 44423, Note_on_c, 0, 65, 0
2, 44423, Note_on_c, 0, 66, 0
2, 44430, Control_c, 0, 64, 48
2, 44443, Note_on_c, 0, 68, 0
2, 44529, Note_on_c, 0, 48, 0
2, 44683, Note_on_c, 0, 48, 52
2, 44683, Note_on_c, 0, 77, 77
2, 44696, Note_on_c, 0, 68, 59
2, 44796, Note_on_c, 0, 56, 57
2, 44852, Note_on_c, 0, 68, 0
2, 44867, Note_on_c, 0, 77, 0
2, 44888, Note_on_c, 0, 56, 0
2, 44939, Note_on_c, 0, 46, 62
2, 44966, Note_on_c, 0, 48, 0
2, 45027, Note_on_c, 0, 46, 0
2, 45065, Note_on_c, 0, 54, 55
2, 45121, Control_c, 0, 64, 47
2, 45150, Note_on_c, 0, 54, 0
2, 45210, Note_on_c, 0, 73, 73
2, 45218, Note_on_c, 0, 46, 47
2, 45218, Note_on_c, 0, 65, 59
2, 45288, Note_on_c, 0, 46, 0
2, 45326, Note_on_c, 0, 54, 59
2, 45370, Note_on_c, 0, 65, 0
2, 45391, Note_on_c, 0, 73, 0
2, 45431, Note_on_c, 0, 54, 0
2, 45464, Note_on_c, 0, 42, 60
2, 45544, Note_on_c, 0, 42, 0
2, 45615, Note_on_c, 0, 54, 50
2, 45687, Note_on_c, 0, 54, 0
2, 45714, Note_on_c, 0, 70, 57
2, 45719, Note_on_c, 0, 42, 54
2, 45727, Note_on_c, 0, 63, 51
2, 45773, Control_c, 0, 64, 48
2, 45837, Note_on_c, 0, 63, 0
2, 45839, Note_on_c, 0, 62, 60
2, 45864, Note_on_c, 0, 53, 57
2, 45928, Note_on_c, 0, 62, 0
2, 45933, Note_on_c, 0, 53, 0
2, 45962, Note_on_c, 0, 70, 0
2, 45980, Note_on_c, 0, 48, 62
2, 46057, Note_on_c, 0, 42, 0
2, 46094, Note_on_c, 0, 48, 0
2, 46115, Note_on_c, 0, 51, 57
2, 46119, Control_c, 0, 64, 47
2, 46225, Note_on_c, 0, 51, 0
2, 46241, Note_on_c, 0, 69, 48
2, 46250, Note_on_c, 0, 66, 58
2, 46257, Note_on_c, 0, 48, 51
2, 46290, Note_on_c, 0, 66, 0
2, 46301, Note_on_c, 0, 69, 0
2, 46332, Note_on_c, 0, 48, 0
2, 46363, Note_on_c, 0, 65, 56
2, 46367, Note_on_c, 0, 51, 62
2, 46469, Note_on_c, 0, 65, 0
2, 46474, Note_on_c, 0, 51, 0
2, 46496, Note_on_c, 0, 70, 63
2, 46498, Note_on_c, 0, 66, 68
2, 46503, Note_on_c, 0, 46, 59
2, 46541, Note_on_c, 0, 66, 0
2, 46545, Note_on_c, 0, 70, 0
2, 46562, Control_c, 0, 64, 48
2, 46617, Note_on_c, 0, 46, 0
2, 46624, Note_on_c, 0, 63, 66
2, 46632, Note_on_c, 0, 54, 61
2, 46703, Note_on_c, 0, 63, 0
2, 46714, Control_c, 0, 64, 49
2, 46746, Note_on_c, 0, 54, 0
2, 46766, Note_on_c, 0, 46, 69
2, 46771, Note_on_c, 0, 72, 72
2, 46771, Note_on_c, 0, 75, 79
2, 46876, Note_on_c, 0, 46, 0
2, 46889, Note_on_c, 0, 54, 75
2, 46914, Note_on_c, 0, 72, 0
2, 46965, Note_on_c, 0, 75, 0
2, 46983, Control_c, 0, 64, 50
2, 47003, Note_on_c, 0, 54, 0
2, 47020, Note_on_c, 0, 45, 73
2, 47098, Control_c, 0, 64, 49
2, 47115, Control_c, 0, 64, 46
2, 47137, Control_c, 0, 64, 41
2, 47146, Note_on_c, 0, 53, 71
2, 47156, Note_on_c, 0, 45, 0
2, 47160, Control_c, 0, 64, 27
2, 47175, Control_c, 0, 64, 0
2, 47251, Control_c, 0, 64, 9
2, 47256, Note_on_c, 0, 75, 83
2, 47264, Note_on_c, 0, 53, 0
2, 47264, Note_on_c, 0, 72, 75
2, 47274, Control_c, 0, 64, 38
2, 47274, Note_on_c, 0, 45, 68
2, 47293, Control_c, 0, 64, 58
2, 47307, Note_on_c, 0, 72, 0
2, 47311, Control_c, 0, 64, 65
2, 47327, Control_c, 0, 64, 71
2, 47344, Note_on_c, 0, 75, 0
2, 47349, Control_c, 0, 64, 79
2, 47369, Control_c, 0, 64, 87
2, 47371, Note_on_c, 0, 70, 75
2, 47386, Control_c, 0, 64, 93
2, 47395, Note_on_c, 0, 53, 77
2, 47406, Control_c, 0, 64, 95
2, 47406, Note_on_c, 0, 70, 0
2, 47423, Control_c, 0, 64, 90
2, 47445, Control_c, 0, 64, 77
2, 47460, Note_on_c, 0, 45, 0
2, 47464, Control_c, 0, 64, 64
2, 47482, Control_c, 0, 64, 44
2, 47495, Note_on_c, 0, 53, 0
2, 47502, Control_c, 0, 64, 46
2, 47509, Note_on_c, 0, 41, 76
2, 47516, Note_on_c, 0, 74, 82
2, 47520, Control_c, 0, 64, 59
2, 47524, Note_on_c, 0, 71, 66
2, 47540, Control_c, 0, 64, 75
2, 47556, Note_on_c, 0, 74, 0
2, 47561, Control_c, 0, 64, 127
2, 47561, Note_on_c, 0, 71, 0
2, 47626, Note_on_c, 0, 68, 71
2, 47639, Note_on_c, 0, 53, 72
2, 47648, Note_on_c, 0, 41, 0
2, 47659, Note_on_c, 0, 68, 0
2, 47723, Note_on_c, 0, 53, 0
2, 47770, Control_c, 0, 64, 92
2, 47782, Note_on_c, 0, 41, 75
2, 47782, Note_on_c, 0, 83, 90
2, 47786, Note_on_c, 0, 80, 87
2, 47793, Control_c, 0, 64, 66
2, 47810, Control_c, 0, 64, 50
2, 47829, Control_c, 0, 64, 30
2, 47835, Note_on_c, 0, 41, 0
2, 47848, Control_c, 0, 64, 13
2, 47866, Control_c, 0, 64, 11
2, 47887, Control_c, 0, 64, 14
2, 47902, Note_on_c, 0, 51, 66
2, 47906, Control_c, 0, 64, 25
2, 47924, Control_c, 0, 64, 30
2, 47942, Control_c, 0, 64, 31
2, 47964, Control_c, 0, 64, 30
2, 48019, Note_on_c, 0, 51, 0
2, 48063, Note_on_c, 0, 82, 90
2, 48069, Note_on_c, 0, 50, 61
2, 48078, Control_c, 0, 64, 29
2, 48106, Note_on_c, 0, 83, 0
2, 48108, Note_on_c, 0, 80, 0
2, 48118, Control_c, 0, 64, 30
2, 48129, Note_on_c, 0, 50, 0
2, 48175, Note_on_c, 0, 46, 56
2, 48314, Note_on_c, 0, 51, 67
2, 48319, Note_on_c, 0, 46, 0
2, 48330, Note_on_c, 0, 78, 58
2, 48368, Note_on_c, 0, 78, 0
2, 48391, Note_on_c, 0, 77, 61
2, 48427, Note_on_c, 0, 77, 0
2, 48461, Note_on_c, 0, 54, 61
2, 48467, Note_on_c, 0, 75, 70
2, 48472, Note_on_c, 0, 51, 0
2, 48556, Control_c, 0, 64, 29
2, 48577, Control_c, 0, 64, 26
2, 48581, Note_on_c, 0, 75, 0
2, 48597, Control_c, 0, 64, 23
2, 48606, Note_on_c, 0, 54, 0
2, 48606, Note_on_c, 0, 74, 73
2, 48612, Note_on_c, 0, 82, 0
2, 48620, Control_c, 0, 64, 18
2, 48620, Note_on_c, 0, 58, 64
2, 48633, Control_c, 0, 64, 8
2, 48654, Control_c, 0, 64, 0
2, 48665, Note_on_c, 0, 58, 0
2, 48741, Note_on_c, 0, 82, 70
2, 48788, Control_c, 0, 64, 19
2, 48806, Control_c, 0, 64, 30
2, 48825, Control_c, 0, 64, 42
2, 48845, Control_c, 0, 64, 53
2, 48863, Control_c, 0, 64, 61
2, 48887, Control_c, 0, 64, 63
2, 48887, Note_on_c, 0, 77, 74
2, 48901, Note_on_c, 0, 46, 47
2, 48904, Note_on_c, 0, 82, 0
2, 48909, Control_c, 0, 64, 64
2, 48925, Control_c, 0, 64, 66
2, 48941, Control_c, 0, 64, 69
2, 48961, Control_c, 0, 64, 74
2, 48972, Note_on_c, 0, 46, 0
2, 48981, Control_c, 0, 64, 79
2, 48999, Control_c, 0, 64, 82
2, 49014, Note_on_c, 0, 80, 69
2, 49019, Control_c, 0, 64, 83
2, 49030, Note_on_c, 0, 77, 0
2, 49060, Control_c, 0, 64, 82
2, 49060, Note_on_c, 0, 80, 0
2, 49134, Control_c, 0, 64, 81
2, 49153, Control_c, 0, 64, 79
2, 49171, Control_c, 0, 64, 76
2, 49192, Control_c, 0, 64, 72
2, 49214, Control_c, 0, 64, 68
2, 49214, Note_on_c, 0, 39, 48
2, 49229, Control_c, 0, 64, 65
2, 49247, Control_c, 0, 64, 64
2, 49269, Note_on_c, 0, 80, 67
2, 49273, Control_c, 0, 64, 62
2, 49290, Control_c, 0, 64, 60
2, 49305, Control_c, 0, 64, 59
2, 49325, Control_c, 0, 64, 57
2, 49343, Control_c, 0, 64, 56
2, 49363, Control_c, 0, 64, 54
2, 49382, Control_c, 0, 64, 50
2, 49402, Control_c, 0, 64, 46
2, 49423, Control_c, 0, 64, 43
2, 49499, Control_c, 0, 64, 42
2, 49517, Control_c, 0, 64, 41
2, 49537, Control_c, 0, 64, 39
2, 49556, Control_c, 0, 64, 37
2, 49653, Control_c, 0, 64, 36
2, 49657, Note_on_c, 0, 75, 43
2, 49657, Note_on_c, 0, 79, 60
2, 49758, Note_on_c, 0, 74, 0
2, 49828, Note_on_c, 0, 43, 39
2, 49924, Note_on_c, 0, 80, 0
2, 49935, Note_on_c, 0, 39, 0
2, 49935, Note_on_c, 0, 46, 45
2, 49960, Control_c, 0, 64, 35
2, 49960, Note_on_c, 0, 43, 0
2, 50038, Note_on_c, 0, 46, 0
2, 50045, Note_on_c, 0, 51, 51
2, 50238, Note_on_c, 0, 75, 0
2, 50246, Note_on_c, 0, 79, 0
2, 50268, Control_c, 0, 64, 36
2, 50451, Note_on_c, 0, 51, 0
2, 50478, Control_c, 0, 64, 37
2, 50593, Note_on_c, 0, 75, 54
2, 50682, Note_on_c, 0, 75, 0
2, 50728, Note_on_c, 0, 77, 65
2, 50841, Note_on_c, 0, 77, 0
2, 50850, Note_on_c, 0, 51, 51
2, 50850, Note_on_c, 0, 79, 70
2, 50974, Note_on_c, 0, 53, 62
2, 50974, Note_on_c, 0, 80, 76
2, 50999, Note_on_c, 0, 79, 0
2, 51025, Note_on_c, 0, 51, 0
2, 51080, Note_on_c, 0, 53, 0
2, 51082, Note_on_c, 0, 55, 78
2, 51089, Note_on_c, 0, 82, 77
2, 51125, Note_on_c, 0, 55, 0
2, 51131, Note_on_c, 0, 80, 0
2, 51206, Note_on_c, 0, 82, 0
2, 51220, Note_on_c, 0, 76, 68
2, 51349, Note_on_c, 0, 58, 78
2, 51360, Note_on_c, 0, 75, 73
2, 51360, Note_on_c, 0, 76, 0
2, 51394, Note_on_c, 0, 58, 0
2, 51476, Note_on_c, 0, 73, 71
2, 51526, Note_on_c, 0, 75, 0
2, 51602, Note_on_c, 0, 73, 0
2, 51610, Control_c, 0, 64, 38
2, 51617, Note_on_c, 0, 63, 84
2, 51628, Note_on_c, 0, 72, 64
2, 51648, Control_c, 0, 64, 39
2, 51676, Note_on_c, 0, 63, 0
2, 51717, Note_on_c, 0, 72, 0
2, 51743, Note_on_c, 0, 73, 71
2, 51886, Note_on_c, 0, 75, 67
2, 51892, Note_on_c, 0, 61, 71
2, 51912, Note_on_c, 0, 73, 0
2, 51927, Note_on_c, 0, 61, 0
2, 51975, Note_on_c, 0, 75, 0
2, 52008, Note_on_c, 0, 69, 62
2, 52150, Note_on_c, 0, 69, 0
2, 52154, Note_on_c, 0, 60, 69
2, 52154, Note_on_c, 0, 68, 66
2, 52196, Note_on_c, 0, 60, 0
2, 52281, Note_on_c, 0, 66, 58
2, 52308, Note_on_c, 0, 68, 0
2, 52388, Note_on_c, 0, 66, 0
2, 52421, Note_on_c, 0, 64, 59
2, 52424, Note_on_c, 0, 56, 69
2, 52475, Note_on_c, 0, 56, 0
2, 52540, Note_on_c, 0, 64, 0
2, 52554, Note_on_c, 0, 63, 65
2, 52632, Note_on_c, 0, 63, 0
2, 52690, Note_on_c, 0, 61, 74
2, 52692, Note_on_c, 0, 64, 71
2, 52733, Note_on_c, 0, 61, 0
2, 52811, Note_on_c, 0, 64, 0
2, 52815, Note_on_c, 0, 73, 70
2, 52938, Note_on_c, 0, 73, 0
2, 52950, Note_on_c, 0, 49, 65
2, 52961, Note_on_c, 0, 64, 71
2, 52999, Note_on_c, 0, 49, 0
2, 53070, Note_on_c, 0, 64, 0
2, 53075, Note_on_c, 0, 73, 73
2, 53207, Note_on_c, 0, 47, 75
2, 53216, Note_on_c, 0, 73, 0
2, 53224, Note_on_c, 0, 65, 69
2, 53251, Note_on_c, 0, 47, 0
2, 53332, Note_on_c, 0, 65, 0
2, 53337, Note_on_c, 0, 74, 72
2, 53466, Note_on_c, 0, 74, 0
2, 53474, Note_on_c, 0, 59, 82
2, 53482, Note_on_c, 0, 65, 65
2, 53521, Note_on_c, 0, 59, 0
2, 53582, Note_on_c, 0, 65, 0
2, 53591, Note_on_c, 0, 74, 69
2, 53736, Note_on_c, 0, 73, 76
2, 53740, Note_on_c, 0, 57, 80
2, 53771, Note_on_c, 0, 74, 0
2, 53779, Note_on_c, 0, 57, 0
2, 53848, Note_on_c, 0, 73, 0
2, 53864, Note_on_c, 0, 69, 62
2, 54004, Note_on_c, 0, 69, 0
2, 54008, Note_on_c, 0, 68, 73
2, 54013, Note_on_c, 0, 45, 72
2, 54057, Note_on_c, 0, 45, 0
2, 54140, Note_on_c, 0, 66, 66
2, 54153, Note_on_c, 0, 68, 0
2, 54240, Control_c, 0, 64, 40
2, 54245, Note_on_c, 0, 66, 0
2, 54272, Note_on_c, 0, 44, 74
2, 54287, Note_on_c, 0, 65, 62
2, 54318, Note_on_c, 0, 44, 0
2, 54392, Note_on_c, 0, 65, 0
2, 54406, Note_on_c, 0, 74, 70
2, 54538, Note_on_c, 0, 56, 82
2, 54538, Note_on_c, 0, 73, 72
2, 54573, Note_on_c, 0, 74, 0
2, 54587, Note_on_c, 0, 56, 0
2, 54657, Note_on_c, 0, 73, 0
2, 54666, Note_on_c, 0, 71, 66
2, 54799, Note_on_c, 0, 71, 0
2, 54808, Note_on_c, 0, 54, 79
2, 54808, Note_on_c, 0, 70, 73
2, 54847, Note_on_c, 0, 54, 0
2, 54900, Note_on_c, 0, 70, 0
2, 54926, Note_on_c, 0, 71, 71
2, 55066, Note_on_c, 0, 71, 0
2, 55066, Note_on_c, 0, 73, 76
2, 55070, Note_on_c, 0, 42, 72
2, 55123, Note_on_c, 0, 42, 0
2, 55192, Note_on_c, 0, 75, 73
2, 55252, Note_on_c, 0, 73, 0
2, 55335, Note_on_c, 0, 49, 76
2, 55339, Note_on_c, 0, 76, 72
2, 55379, Note_on_c, 0, 49, 0
2, 55384, Note_on_c, 0, 75, 0
2, 55448, Note_on_c, 0, 76, 0
2, 55458, Note_on_c, 0, 71, 74
2, 55590, Note_on_c, 0, 52, 75
2, 55593, Note_on_c, 0, 71, 0
2, 55597, Note_on_c, 0, 69, 70
2, 55630, Note_on_c, 0, 52, 0
2, 55721, Note_on_c, 0, 68, 73
2, 55755, Note_on_c, 0, 69, 0
2, 55846, Note_on_c, 0, 68, 0
2, 55853, Note_on_c, 0, 46, 75
2, 55864, Note_on_c, 0, 67, 61
2, 55897, Note_on_c, 0, 46, 0
2, 55959, Note_on_c, 0, 67, 0
2, 55987, Note_on_c, 0, 68, 69
2, 56104, Control_c, 0, 64, 41
2, 56114, Note_on_c, 0, 49, 70
2, 56114, Note_on_c, 0, 68, 0
2, 56121, Note_on_c, 0, 70, 66
2, 56161, Note_on_c, 0, 49, 0
2, 56201, Note_on_c, 0, 70, 0
2, 56239, Note_on_c, 0, 64, 68
2, 56367, Note_on_c, 0, 43, 63
2, 56374, Note_on_c, 0, 63, 66
2, 56378, Note_on_c, 0, 64, 0
2, 56413, Note_on_c, 0, 43, 0
2, 56503, Note_on_c, 0, 61, 53
2, 56521, Note_on_c, 0, 63, 0
2, 56612, Note_on_c, 0, 61, 0
2, 56624, Note_on_c, 0, 51, 65
2, 56638, Note_on_c, 0, 59, 54
2, 56667, Note_on_c, 0, 51, 0
2, 56742, Note_on_c, 0, 59, 0
2, 56763, Note_on_c, 0, 58, 63
2, 56827, Note_on_c, 0, 58, 0
2, 56886, Note_on_c, 0, 56, 70
2, 56896, Note_on_c, 0, 59, 66
2, 56931, Note_on_c, 0, 56, 0
2, 57002, Note_on_c, 0, 59, 0
2, 57022, Note_on_c, 0, 68, 62
2, 57122, Note_on_c, 0, 68, 0
2, 57150, Note_on_c, 0, 44, 55
2, 57164, Note_on_c, 0, 59, 63
2, 57196, Note_on_c, 0, 44, 0
2, 57263, Note_on_c, 0, 59, 0
2, 57269, Note_on_c, 0, 68, 69
2, 57408, Note_on_c, 0, 42, 64
2, 57408, Note_on_c, 0, 68, 0
2, 57421, Note_on_c, 0, 60, 68
2, 57455, Note_on_c, 0, 42, 0
2, 57519, Note_on_c, 0, 60, 0
2, 57537, Note_on_c, 0, 69, 63
2, 57656, Control_c, 0, 64, 42
2, 57658, Note_on_c, 0, 54, 74
2, 57672, Note_on_c, 0, 60, 70
2, 57672, Note_on_c, 0, 69, 0
2, 57702, Note_on_c, 0, 54, 0
2, 57773, Control_c, 0, 64, 43
2, 57777, Note_on_c, 0, 60, 0
2, 57777, Note_on_c, 0, 69, 71
2, 57919, Note_on_c, 0, 68, 76
2, 57930, Note_on_c, 0, 52, 76
2, 57952, Note_on_c, 0, 69, 0
2, 57966, Note_on_c, 0, 52, 0
2, 58024, Note_on_c, 0, 68, 0
2, 58050, Note_on_c, 0, 64, 70
2, 58057, Control_c, 0, 64, 42
2, 58183, Note_on_c, 0, 40, 68
2, 58183, Note_on_c, 0, 64, 0
2, 58185, Note_on_c, 0, 63, 72
2, 58230, Note_on_c, 0, 40, 0
2, 58292, Note_on_c, 0, 61, 72
2, 58299, Note_on_c, 0, 63, 0
2, 58394, Note_on_c, 0, 61, 0
2, 58436, Note_on_c, 0, 39, 86
2, 58436, Note_on_c, 0, 60, 70
2, 58489, Note_on_c, 0, 39, 0
2, 58536, Note_on_c, 0, 60, 0
2, 58551, Note_on_c, 0, 69, 74
2, 58577, Control_c, 0, 64, 41
2, 58704, Note_on_c, 0, 51, 86
2, 58704, Note_on_c, 0, 68, 74
2, 58710, Control_c, 0, 64, 42
2, 58720, Note_on_c, 0, 69, 0
2, 58743, Note_on_c, 0, 51, 0
2, 58767, Control_c, 0, 64, 43
2, 58816, Note_on_c, 0, 66, 73
2, 58855, Note_on_c, 0, 68, 0
2, 58949, Note_on_c, 0, 66, 0
2, 58953, Note_on_c, 0, 49, 83
2, 58962, Note_on_c, 0, 65, 70
2, 59000, Control_c, 0, 64, 42
2, 59003, Note_on_c, 0, 49, 0
2, 59082, Note_on_c, 0, 65, 0
2, 59086, Note_on_c, 0, 66, 75
2, 59207, Note_on_c, 0, 66, 0
2, 59211, Note_on_c, 0, 68, 78
2, 59215, Note_on_c, 0, 37, 73
2, 59250, Note_on_c, 0, 37, 0
2, 59287, Control_c, 0, 64, 43
2, 59292, Note_on_c, 0, 68, 0
2, 59307, Control_c, 0, 64, 44
2, 59337, Note_on_c, 0, 69, 76
2, 59384, Control_c, 0, 64, 43
2, 59468, Note_on_c, 0, 69, 0
2, 59473, Note_on_c, 0, 71, 80
2, 59590, Note_on_c, 0, 61, 74
2, 59597, Note_on_c, 0, 74, 79
2, 59606, Note_on_c, 0, 71, 0
2, 59712, Note_on_c, 0, 63, 78
2, 59728, Note_on_c, 0, 73, 82
2, 59735, Note_on_c, 0, 61, 0
2, 59745, Note_on_c, 0, 74, 0
2, 59835, Note_on_c, 0, 65, 69
2, 59843, Note_on_c, 0, 73, 0
2, 59859, Note_on_c, 0, 71, 72
2, 59862, Note_on_c, 0, 63, 0
2, 59958, Note_on_c, 0, 65, 0
2, 59977, Note_on_c, 0, 66, 85
2, 60000, Note_on_c, 0, 70, 80
2, 60006, Note_on_c, 0, 71, 0
2, 60032, Note_on_c, 0, 66, 0
2, 60118, Note_on_c, 0, 71, 66
2, 60222, Note_on_c, 0, 70, 0
2, 60260, Note_on_c, 0, 54, 81
2, 60264, Note_on_c, 0, 71, 0
2, 60264, Note_on_c, 0, 73, 77
2, 60300, Note_on_c, 0, 54, 0
2, 60388, Note_on_c, 0, 68, 81
2, 60402, Note_on_c, 0, 73, 0
2, 60516, Note_on_c, 0, 66, 71
2, 60552, Note_on_c, 0, 68, 0
2, 60610, Note_on_c, 0, 66, 0
2, 60642, Note_on_c, 0, 64, 71
2, 60663, Note_on_c, 0, 54, 73
2, 60774, Note_on_c, 0, 63, 72
2, 60774, Note_on_c, 0, 64, 0
2, 60778, Note_on_c, 0, 56, 79
2, 60804, Note_on_c, 0, 54, 0
2, 60895, Note_on_c, 0, 61, 66
2, 60904, Note_on_c, 0, 63, 0
2, 60906, Note_on_c, 0, 58, 71
2, 60940, Note_on_c, 0, 56, 0
2, 61026, Note_on_c, 0, 61, 0
2, 61035, Note_on_c, 0, 59, 87
2, 61035, Note_on_c, 0, 63, 70
2, 61051, Note_on_c, 0, 58, 0
2, 61089, Note_on_c, 0, 59, 0
2, 61113, Note_on_c, 0, 63, 0
2, 61161, Note_on_c, 0, 64, 67
2, 61191, Control_c, 0, 64, 42
2, 61273, Note_on_c, 0, 64, 0
2, 61295, Note_on_c, 0, 66, 74
2, 61312, Note_on_c, 0, 47, 68
2, 61350, Note_on_c, 0, 47, 0
2, 61416, Note_on_c, 0, 68, 76
2, 61428, Note_on_c, 0, 66, 0
2, 61528, Note_on_c, 0, 68, 0
2, 61560, Note_on_c, 0, 69, 72
2, 61686, Note_on_c, 0, 69, 0
2, 61691, Note_on_c, 0, 47, 66
2, 61691, Note_on_c, 0, 73, 78
2, 61812, Note_on_c, 0, 49, 68
2, 61816, Note_on_c, 0, 71, 74
2, 61829, Note_on_c, 0, 47, 0
2, 61841, Note_on_c, 0, 73, 0
2, 61904, Note_on_c, 0, 71, 0
2, 61941, Note_on_c, 0, 51, 74
2, 61945, Note_on_c, 0, 69, 70
2, 61960, Note_on_c, 0, 49, 0
2, 62056, Note_on_c, 0, 51, 0
2, 62079, Note_on_c, 0, 68, 74
2, 62083, Note_on_c, 0, 52, 78
2, 62083, Note_on_c, 0, 69, 0
2, 62120, Note_on_c, 0, 52, 0
2, 62214, Note_on_c, 0, 69, 66
2, 62272, Note_on_c, 0, 68, 0
2, 62347, Note_on_c, 0, 40, 55
2, 62347, Note_on_c, 0, 69, 0
2, 62347, Note_on_c, 0, 71, 67
2, 62385, Note_on_c, 0, 40, 0
2, 62460, Note_on_c, 0, 66, 62
2, 62526, Note_on_c, 0, 71, 0
2, 62579, Note_on_c, 0, 66, 0
2, 62608, Note_on_c, 0, 64, 70
2, 62721, Note_on_c, 0, 64, 0
2, 62728, Control_c, 0, 64, 41
2, 62730, Note_on_c, 0, 62, 68
2, 62757, Note_on_c, 0, 40, 54
2, 62853, Note_on_c, 0, 42, 65
2, 62855, Note_on_c, 0, 61, 57
2, 62871, Note_on_c, 0, 40, 0
2, 62877, Note_on_c, 0, 62, 0
2, 62975, Note_on_c, 0, 61, 0
2, 62979, Note_on_c, 0, 59, 55
2, 62989, Note_on_c, 0, 44, 58
2, 62992, Note_on_c, 0, 42, 0
2, 63101, Note_on_c, 0, 44, 0
2, 63114, Control_c, 0, 64, 42
2, 63123, Note_on_c, 0, 45, 60
2, 63123, Note_on_c, 0, 59, 0
2, 63123, Note_on_c, 0, 61, 65
2, 63154, Note_on_c, 0, 61, 0
2, 63212, Note_on_c, 0, 45, 0
2, 63235, Note_on_c, 0, 52, 64
2, 63349, Note_on_c, 0, 52, 0
2, 63374, Note_on_c, 0, 69, 74
2, 63381, Note_on_c, 0, 45, 59
2, 63383, Note_on_c, 0, 61, 53
2, 63426, Note_on_c, 0, 61, 0
2, 63430, Note_on_c, 0, 45, 0
2, 63433, Note_on_c, 0, 69, 0
2, 63509, Note_on_c, 0, 52, 55
2, 63601, Note_on_c, 0, 52, 0
2, 63628, Note_on_c, 0, 69, 63
2, 63637, Note_on_c, 0, 44, 58
2, 63644, Note_on_c, 0, 61, 55
2, 63746, Note_on_c, 0, 44, 0
2, 63769, Note_on_c, 0, 52, 55
2, 63795, Note_on_c, 0, 61, 0
2, 63891, Note_on_c, 0, 52, 0
2, 63905, Note_on_c, 0, 71, 70
2, 63909, Note_on_c, 0, 62, 46
2, 63914, Note_on_c, 0, 44, 57
2, 63957, Note_on_c, 0, 69, 0
2, 64023, Note_on_c, 0, 44, 0
2, 64054, Note_on_c, 0, 52, 52
2, 64081, Note_on_c, 0, 62, 0
2, 64109, Note_on_c, 0, 71, 0
2, 64150, Note_on_c, 0, 52, 0
2, 64178, Note_on_c, 0, 45, 51
2, 64282, Control_c, 0, 64, 41
2, 64287, Note_on_c, 0, 45, 0
2, 64315, Note_on_c, 0, 52, 54
2, 64413, Note_on_c, 0, 52, 0
2, 64420, Note_on_c, 0, 69, 60
2, 64424, Note_on_c, 0, 61, 52
2, 64457, Note_on_c, 0, 45, 46
2, 64457, Note_on_c, 0, 61, 0
2, 64462, Note_on_c, 0, 69, 0
2, 64474, Control_c, 0, 64, 42
2, 64492, Control_c, 0, 64, 43
2, 64503, Note_on_c, 0, 45, 0
2, 64532, Control_c, 0, 64, 42
2, 64552, Note_on_c, 0, 52, 53
2, 64631, Note_on_c, 0, 52, 0
2, 64667, Note_on_c, 0, 68, 66
2, 64685, Note_on_c, 0, 41, 48
2, 64687, Note_on_c, 0, 59, 52
2, 64768, Note_on_c, 0, 41, 0
2, 64815, Note_on_c, 0, 50, 47
2, 64894, Note_on_c, 0, 50, 0
2, 64936, Note_on_c, 0, 41, 54
2, 64972, Control_c, 0, 64, 43
2, 65029, Note_on_c, 0, 41, 0
2, 65053, Note_on_c, 0, 50, 52
2, 65072, Note_on_c, 0, 59, 0
2, 65146, Control_c, 0, 64, 44
2, 65157, Note_on_c, 0, 50, 0
2, 65165, Control_c, 0, 64, 45
2, 65197, Note_on_c, 0, 42, 63
2, 65201, Note_on_c, 0, 68, 0
2, 65280, Control_c, 0, 64, 46
2, 65301, Note_on_c, 0, 42, 0
2, 65317, Note_on_c, 0, 49, 65
2, 65418, Note_on_c, 0, 49, 0
2, 65434, Note_on_c, 0, 66, 73
2, 65439, Note_on_c, 0, 57, 70
2, 65441, Note_on_c, 0, 42, 66
2, 65478, Note_on_c, 0, 57, 0
2, 65478, Note_on_c, 0, 66, 0
2, 65548, Note_on_c, 0, 68, 75
2, 65555, Note_on_c, 0, 49, 68
2, 65562, Note_on_c, 0, 59, 77
2, 65586, Control_c, 0, 64, 47
2, 65591, Note_on_c, 0, 59, 0
2, 65596, Note_on_c, 0, 68, 0
2, 65609, Control_c, 0, 64, 48
2, 65656, Note_on_c, 0, 42, 0
2, 65667, Note_on_c, 0, 49, 0
2, 65677, Note_on_c, 0, 69, 78
2, 65682, Note_on_c, 0, 61, 77
2, 65690, Note_on_c, 0, 40, 61
2, 65711, Note_on_c, 0, 61, 0
2, 65719, Note_on_c, 0, 69, 0
2, 65786, Note_on_c, 0, 40, 0
2, 65815, Note_on_c, 0, 49, 56
2, 65876, Control_c, 0, 64, 47
2, 65916, Control_c, 0, 64, 46
2, 65916, Note_on_c, 0, 49, 0
2, 65946, Note_on_c, 0, 73, 79
2, 65950, Note_on_c, 0, 40, 47
2, 65953, Note_on_c, 0, 68, 65
2, 66029, Control_c, 0, 64, 45
2, 66036, Note_on_c, 0, 40, 0
2, 66083, Note_on_c, 0, 49, 63
2, 66148, Note_on_c, 0, 68, 0
2, 66176, Note_on_c, 0, 73, 0
2, 66194, Note_on_c, 0, 49, 0
2, 66215, Note_on_c, 0, 39, 66
2, 66309, Note_on_c, 0, 39, 0
2, 66313, Note_on_c, 0, 43, 62
2, 66454, Note_on_c, 0, 46, 63
2, 66464, Note_on_c, 0, 43, 0
2, 66473, Note_on_c, 0, 76, 78
2, 66487, Note_on_c, 0, 67, 57
2, 66529, Control_c, 0, 64, 46
2, 66572, Note_on_c, 0, 46, 0
2, 66589, Note_on_c, 0, 49, 58
2, 66607, Control_c, 0, 64, 47
2, 66718, Note_on_c, 0, 49, 0
2, 66736, Note_on_c, 0, 67, 0
2, 66740, Note_on_c, 0, 47, 56
2, 66740, Note_on_c, 0, 75, 76
2, 66745, Note_on_c, 0, 68, 58
2, 66794, Note_on_c, 0, 76, 0
2, 66821, Note_on_c, 0, 47, 0
2, 66834, Note_on_c, 0, 68, 0
2, 66848, Note_on_c, 0, 46, 61
2, 66958, Note_on_c, 0, 46, 0
2, 66971, Control_c, 0, 64, 46
2, 66986, Note_on_c, 0, 44, 52
2, 67005, Note_on_c, 0, 73, 72
2, 67028, Note_on_c, 0, 70, 52
2, 67098, Note_on_c, 0, 75, 0
2, 67115, Note_on_c, 0, 44, 0
2, 67133, Note_on_c, 0, 43, 52
2, 67221, Note_on_c, 0, 70, 0
2, 67257, Note_on_c, 0, 73, 0
2, 67279, Note_on_c, 0, 43, 0
2, 67289, Note_on_c, 0, 44, 73
2, 67373, Control_c, 0, 64, 45
2, 67379, Note_on_c, 0, 44, 0
2, 67397, Note_on_c, 0, 51, 61
2, 67515, Note_on_c, 0, 51, 0
2, 67531, Note_on_c, 0, 71, 76
2, 67544, Note_on_c, 0, 44, 66
2, 67552, Note_on_c, 0, 68, 50
2, 67630, Note_on_c, 0, 68, 0
2, 67643, Note_on_c, 0, 67, 54
2, 67659, Note_on_c, 0, 70, 69
2, 67661, Note_on_c, 0, 71, 0
2, 67666, Note_on_c, 0, 51, 69
2, 67774, Note_on_c, 0, 51, 0
2, 67781, Note_on_c, 0, 42, 73
2, 67788, Note_on_c, 0, 68, 71
2, 67788, Note_on_c, 0, 71, 81
2, 67797, Note_on_c, 0, 67, 0
2, 67818, Note_on_c, 0, 68, 0
2, 67822, Note_on_c, 0, 70, 0
2, 67822, Note_on_c, 0, 71, 0
2, 67877, Note_on_c, 0, 42, 0
2, 67895, Note_on_c, 0, 44, 0
2, 67901, Note_on_c, 0, 51, 66
2, 67949, Control_c, 0, 64, 46
2, 68027, Note_on_c, 0, 51, 0
2, 68047, Note_on_c, 0, 42, 63
2, 68055, Note_on_c, 0, 75, 81
2, 68060, Note_on_c, 0, 70, 64
2, 68169, Note_on_c, 0, 42, 0
2, 68175, Note_on_c, 0, 51, 71
2, 68199, Control_c, 0, 64, 49
2, 68219, Control_c, 0, 64, 53
2, 68235, Control_c, 0, 64, 57
2, 68253, Note_on_c, 0, 70, 0
2, 68258, Control_c, 0, 64, 59
2, 68276, Control_c, 0, 64, 60
2, 68281, Note_on_c, 0, 51, 0
2, 68297, Control_c, 0, 64, 61
2, 68313, Control_c, 0, 64, 62
2, 68317, Note_on_c, 0, 41, 72
2, 68322, Note_on_c, 0, 75, 0
2, 68335, Control_c, 0, 64, 64
2, 68355, Control_c, 0, 64, 67
2, 68371, Control_c, 0, 64, 71
2, 68391, Control_c, 0, 64, 74
2, 68409, Control_c, 0, 64, 73
2, 68448, Control_c, 0, 64, 72
2, 68457, Note_on_c, 0, 45, 68
2, 68467, Control_c, 0, 64, 70
2, 68471, Note_on_c, 0, 41, 0
2, 68486, Control_c, 0, 64, 68
2, 68504, Control_c, 0, 64, 66
2, 68525, Control_c, 0, 64, 64
2, 68545, Control_c, 0, 64, 63
2, 68563, Control_c, 0, 64, 62
2, 68575, Note_on_c, 0, 78, 93
2, 68579, Note_on_c, 0, 48, 69
2, 68583, Control_c, 0, 64, 60
2, 68592, Note_on_c, 0, 45, 0
2, 68596, Note_on_c, 0, 69, 59
2, 68601, Control_c, 0, 64, 59
2, 68620, Control_c, 0, 64, 58
2, 68640, Control_c, 0, 64, 57
2, 68662, Control_c, 0, 64, 54
2, 68675, Note_on_c, 0, 48, 0
2, 68680, Control_c, 0, 64, 48
2, 68692, Note_on_c, 0, 51, 68
2, 68699, Control_c, 0, 64, 41
2, 68717, Control_c, 0, 64, 38
2, 68756, Control_c, 0, 64, 42
2, 68775, Control_c, 0, 64, 51
2, 68793, Control_c, 0, 64, 59
2, 68811, Control_c, 0, 64, 64
2, 68832, Control_c, 0, 64, 68
2, 68852, Note_on_c, 0, 49, 66
2, 68852, Note_on_c, 0, 69, 0
2, 68854, Control_c, 0, 64, 72
2, 68859, Note_on_c, 0, 77, 85
2, 68863, Note_on_c, 0, 51, 0
2, 68863, Note_on_c, 0, 70, 67
2, 68870, Control_c, 0, 64, 80
2, 68888, Control_c, 0, 64, 88
2, 68909, Control_c, 0, 64, 92
2, 68957, Note_on_c, 0, 70, 0
2, 68961, Note_on_c, 0, 49, 0
2, 68972, Note_on_c, 0, 78, 0
2, 68976, Note_on_c, 0, 48, 66
2, 69063, Control_c, 0, 64, 91
2, 69082, Control_c, 0, 64, 90
2, 69102, Note_on_c, 0, 48, 0
2, 69106, Control_c, 0, 64, 86
2, 69117, Note_on_c, 0, 46, 71
2, 69121, Control_c, 0, 64, 79
2, 69126, Note_on_c, 0, 72, 74
2, 69126, Note_on_c, 0, 75, 77
2, 69139, Control_c, 0, 64, 69
2, 69158, Control_c, 0, 64, 62
2, 69178, Note_on_c, 0, 77, 0
2, 69182, Control_c, 0, 64, 59
2, 69196, Control_c, 0, 64, 60
2, 69201, Note_on_c, 0, 72, 0
2, 69215, Control_c, 0, 64, 63
2, 69235, Control_c, 0, 64, 66
2, 69240, Note_on_c, 0, 46, 0
2, 69244, Note_on_c, 0, 75, 0
2, 69249, Note_on_c, 0, 45, 64
2, 69294, Control_c, 0, 64, 65
2, 69388, Control_c, 0, 64, 64
2, 69393, Note_on_c, 0, 46, 74
2, 69399, Note_on_c, 0, 74, 87
2, 69413, Control_c, 0, 64, 60
2, 69413, Note_on_c, 0, 45, 0
2, 69413, Note_on_c, 0, 65, 65
2, 69429, Control_c, 0, 64, 52
2, 69434, Note_on_c, 0, 46, 0
2, 69449, Control_c, 0, 64, 37
2, 69468, Control_c, 0, 64, 20
2, 69468, Note_on_c, 0, 65, 0
2, 69486, Control_c, 0, 64, 15
2, 69504, Control_c, 0, 64, 16
2, 69522, Control_c, 0, 64, 22
2, 69542, Control_c, 0, 64, 24
2, 69546, Note_on_c, 0, 71, 62
2, 69581, Note_on_c, 0, 74, 0
2, 69620, Control_c, 0, 64, 26
2, 69640, Control_c, 0, 64, 29
2, 69657, Control_c, 0, 64, 30
2, 69664, Note_on_c, 0, 48, 67
2, 69673, Note_on_c, 0, 70, 70
2, 69679, Note_on_c, 0, 71, 0
2, 69711, Note_on_c, 0, 48, 0
2, 69752, Note_on_c, 0, 70, 0
2, 69790, Note_on_c, 0, 68, 69
2, 69927, Note_on_c, 0, 77, 78
2, 69930, Note_on_c, 0, 50, 73
2, 69936, Note_on_c, 0, 68, 0
2, 69975, Note_on_c, 0, 50, 0
2, 70059, Note_on_c, 0, 77, 0
2, 70073, Note_on_c, 0, 68, 71
2, 70170, Note_on_c, 0, 68, 0
2, 70195, Note_on_c, 0, 46, 58
2, 70204, Note_on_c, 0, 77, 67
2, 70243, Note_on_c, 0, 46, 0
2, 70252, Control_c, 0, 64, 31
2, 70315, Note_on_c, 0, 68, 66
2, 70388, Note_on_c, 0, 68, 0
2, 70449, Note_on_c, 0, 77, 0
2, 70458, Note_on_c, 0, 51, 66
2, 70476, Note_on_c, 0, 67, 65
2, 70534, Note_on_c, 0, 51, 0
2, 70543, Control_c, 0, 64, 32
2, 70577, Note_on_c, 0, 67, 0
2, 70586, Note_on_c, 0, 76, 67
2, 70721, Note_on_c, 0, 76, 0
2, 70728, Note_on_c, 0, 53, 79
2, 70728, Note_on_c, 0, 75, 74
2, 70794, Note_on_c, 0, 53, 0
2, 70865, Note_on_c, 0, 73, 76
2, 70895, Note_on_c, 0, 75, 0
2, 70991, Note_on_c, 0, 82, 79
2, 71003, Note_on_c, 0, 55, 87
2, 71019, Note_on_c, 0, 73, 0
2, 71055, Note_on_c, 0, 55, 0
2, 71112, Note_on_c, 0, 73, 77
2, 71150, Note_on_c, 0, 82, 0
2, 71254, Note_on_c, 0, 82, 73
2, 71257, Note_on_c, 0, 51, 72
2, 71263, Note_on_c, 0, 73, 0
2, 71299, Note_on_c, 0, 51, 0
2, 71328, Control_c, 0, 64, 33
2, 71368, Note_on_c, 0, 73, 68
2, 71409, Note_on_c, 0, 82, 0
2, 71488, Note_on_c, 0, 73, 0
2, 71504, Note_on_c, 0, 56, 75
2, 71509, Note_on_c, 0, 72, 72
2, 71558, Note_on_c, 0, 56, 0
2, 71613, Note_on_c, 0, 72, 0
2, 71634, Note_on_c, 0, 69, 65
2, 71712, Control_c, 0, 64, 34
2, 71763, Note_on_c, 0, 69, 0
2, 71770, Note_on_c, 0, 68, 73
2, 71775, Note_on_c, 0, 58, 84
2, 71808, Control_c, 0, 64, 35
2, 71840, Note_on_c, 0, 58, 0
2, 71876, Note_on_c, 0, 68, 0
2, 71898, Note_on_c, 0, 66, 79
2, 72040, Note_on_c, 0, 60, 88
2, 72040, Note_on_c, 0, 75, 84
2, 72058, Note_on_c, 0, 66, 0
2, 72076, Control_c, 0, 64, 36
2, 72102, Note_on_c, 0, 60, 0
2, 72169, Note_on_c, 0, 66, 81
2, 72185, Note_on_c, 0, 75, 0
2, 72288, Control_c, 0, 64, 37
2, 72309, Note_on_c, 0, 66, 0
2, 72309, Note_on_c, 0, 75, 86
2, 72311, Note_on_c, 0, 56, 84
2, 72327, Control_c, 0, 64, 38
2, 72359, Note_on_c, 0, 56, 0
2, 72423, Note_on_c, 0, 66, 80
2, 72480, Control_c, 0, 64, 39
2, 72498, Control_c, 0, 64, 40
2, 72503, Note_on_c, 0, 66, 0
2, 72533, Note_on_c, 0, 75, 0
2, 72558, Note_on_c, 0, 61, 79
2, 72565, Note_on_c, 0, 65, 80
2, 72627, Note_on_c, 0, 61, 0
2, 72678, Note_on_c, 0, 74, 77
2, 72682, Note_on_c, 0, 65, 0
2, 72822, Note_on_c, 0, 63, 89
2, 72822, Note_on_c, 0, 73, 87
2, 72833, Note_on_c, 0, 74, 0
2, 72885, Note_on_c, 0, 63, 0
2, 72944, Note_on_c, 0, 73, 0
2, 72952, Note_on_c, 0, 71, 86
2, 73085, Note_on_c, 0, 65, 87
2, 73085, Note_on_c, 0, 80, 86
2, 73107, Note_on_c, 0, 71, 0
2, 73149, Note_on_c, 0, 65, 0
2, 73216, Note_on_c, 0, 71, 78
2, 73230, Control_c, 0, 64, 41
2, 73239, Note_on_c, 0, 80, 0
2, 73267, Control_c, 0, 64, 43
2, 73352, Note_on_c, 0, 61, 76
2, 73352, Note_on_c, 0, 80, 79
2, 73356, Note_on_c, 0, 71, 0
2, 73407, Note_on_c, 0, 61, 0
2, 73441, Control_c, 0, 64, 44
2, 73472, Note_on_c, 0, 71, 68
2, 73476, Note_on_c, 0, 80, 0
2, 73480, Control_c, 0, 64, 45
2, 73518, Control_c, 0, 64, 46
2, 73575, Control_c, 0, 64, 47
2, 73614, Note_on_c, 0, 71, 0
2, 73621, Note_on_c, 0, 70, 69
2, 73632, Note_on_c, 0, 66, 82
2, 73673, Control_c, 0, 64, 46
2, 73694, Note_on_c, 0, 70, 0
2, 73759, Note_on_c, 0, 73, 73
2, 73877, Note_on_c, 0, 75, 65
2, 73897, Note_on_c, 0, 73, 0
2, 73976, Control_c, 0, 64, 45
2, 73987, Note_on_c, 0, 66, 0
2, 73999, Note_on_c, 0, 77, 77
2, 74054, Control_c, 0, 64, 44
2, 74142, Note_on_c, 0, 78, 89
2, 74149, Control_c, 0, 64, 43
2, 74163, Note_on_c, 0, 75, 0
2, 74173, Note_on_c, 0, 77, 0
2, 74242, Note_on_c, 0, 78, 0
2, 74284, Note_on_c, 0, 65, 56
2, 74364, Control_c, 0, 64, 42
2, 74390, Note_on_c, 0, 65, 0
2, 74399, Control_c, 0, 64, 43
2, 74415, Note_on_c, 0, 63, 60
2, 74417, Note_on_c, 0, 70, 72
2, 74458, Note_on_c, 0, 70, 0
2, 74552, Note_on_c, 0, 61, 46
2, 74552, Note_on_c, 0, 63, 0
2, 74658, Note_on_c, 0, 61, 0
2, 74682, Note_on_c, 0, 60, 55
2, 74687, Note_on_c, 0, 69, 64
2, 74727, Note_on_c, 0, 69, 0
2, 74802, Note_on_c, 0, 60, 0
2, 74821, Note_on_c, 0, 58, 58
2, 74931, Note_on_c, 0, 78, 72
2, 74962, Note_on_c, 0, 60, 59
2, 74969, Note_on_c, 0, 58, 0
2, 75024, Note_on_c, 0, 78, 0
2, 75061, Note_on_c, 0, 63, 55
2, 75081, Note_on_c, 0, 60, 0
2, 75161, Note_on_c, 0, 63, 0
2, 75183, Note_on_c, 0, 62, 56
2, 75196, Note_on_c, 0, 77, 70
2, 75291, Note_on_c, 0, 77, 0
2, 75298, Note_on_c, 0, 62, 0
2, 75322, Note_on_c, 0, 60, 56
2, 75446, Note_on_c, 0, 60, 0
2, 75469, Note_on_c, 0, 62, 59
2, 75476, Note_on_c, 0, 68, 65
2, 75537, Note_on_c, 0, 68, 0
2, 75557, Note_on_c, 0, 62, 0
2, 75602, Note_on_c, 0, 65, 64
2, 75638, Note_on_c, 0, 65, 0
2, 75729, Note_on_c, 0, 67, 61
2, 75730, Note_on_c, 0, 65, 64
2, 75849, Note_on_c, 0, 70, 52
2, 75863, Note_on_c, 0, 67, 0
2, 75994, Note_on_c, 0, 72, 63
2, 76006, Note_on_c, 0, 63, 60
2, 76025, Note_on_c, 0, 70, 0
2, 76031, Note_on_c, 0, 65, 0
2, 76108, Note_on_c, 0, 63, 0
2, 76138, Note_on_c, 0, 74, 62
2, 76236, Note_on_c, 0, 72, 0
2, 76271, Note_on_c, 0, 75, 61
2, 76276, Note_on_c, 0, 74, 0
2, 76354, Note_on_c, 0, 75, 0
2, 76386, Note_on_c, 0, 61, 63
2, 76506, Note_on_c, 0, 59, 65
2, 76509, Note_on_c, 0, 61, 0
2, 76535, Note_on_c, 0, 66, 66
2, 76590, Note_on_c, 0, 66, 0
2, 76633, Note_on_c, 0, 59, 0
2, 76641, Note_on_c, 0, 58, 60
2, 76749, Note_on_c, 0, 58, 0
2, 76770, Note_on_c, 0, 56, 64
2, 76775, Note_on_c, 0, 65, 62
2, 76827, Note_on_c, 0, 65, 0
2, 76888, Note_on_c, 0, 56, 0
2, 76896, Note_on_c, 0, 55, 62
2, 77020, Note_on_c, 0, 74, 67
2, 77033, Note_on_c, 0, 56, 54
2, 77045, Note_on_c, 0, 55, 0
2, 77085, Note_on_c, 0, 74, 0
2, 77161, Note_on_c, 0, 59, 57
2, 77222, Control_c, 0, 64, 42
2, 77233, Note_on_c, 0, 56, 0
2, 77272, Note_on_c, 0, 59, 0
2, 77277, Note_on_c, 0, 58, 57
2, 77296, Note_on_c, 0, 73, 72
2, 77351, Note_on_c, 0, 73, 0
2, 77386, Note_on_c, 0, 58, 0
2, 77396, Note_on_c, 0, 56, 61
2, 77531, Note_on_c, 0, 56, 0
2, 77544, Note_on_c, 0, 58, 58
2, 77553, Note_on_c, 0, 64, 68
2, 77602, Note_on_c, 0, 64, 0
2, 77647, Control_c, 0, 64, 43
2, 77658, Note_on_c, 0, 58, 0
2, 77665, Note_on_c, 0, 61, 58
2, 77706, Note_on_c, 0, 61, 0
2, 77796, Note_on_c, 0, 61, 64
2, 77809, Note_on_c, 0, 63, 63
2, 77930, Note_on_c, 0, 67, 55
2, 78068, Note_on_c, 0, 59, 61
2, 78078, Note_on_c, 0, 68, 60
2, 78120, Note_on_c, 0, 61, 0
2, 78124, Note_on_c, 0, 67, 0
2, 78127, Note_on_c, 0, 59, 0
2, 78189, Note_on_c, 0, 63, 0
2, 78202, Note_on_c, 0, 70, 59
2, 78313, Note_on_c, 0, 68, 0
2, 78329, Note_on_c, 0, 71, 68
2, 78376, Note_on_c, 0, 70, 0
2, 78413, Note_on_c, 0, 71, 0
2, 78458, Note_on_c, 0, 58, 65
2, 78488, Control_c, 0, 64, 42
2, 78562, Note_on_c, 0, 58, 0
2, 78573, Note_on_c, 0, 56, 65
2, 78602, Note_on_c, 0, 63, 64
2, 78606, Control_c, 0, 64, 43
2, 78651, Note_on_c, 0, 63, 0
2, 78697, Note_on_c, 0, 54, 52
2, 78706, Note_on_c, 0, 56, 0
2, 78758, Control_c, 0, 64, 42
2, 78812, Note_on_c, 0, 54, 0
2, 78829, Note_on_c, 0, 53, 57
2, 78845, Note_on_c, 0, 62, 65
2, 78893, Note_on_c, 0, 62, 0
2, 78942, Note_on_c, 0, 53, 0
2, 78959, Note_on_c, 0, 51, 58
2, 79096, Note_on_c, 0, 71, 67
2, 79104, Note_on_c, 0, 53, 61
2, 79111, Note_on_c, 0, 51, 0
2, 79147, Note_on_c, 0, 71, 0
2, 79220, Note_on_c, 0, 56, 52
2, 79225, Note_on_c, 0, 53, 0
2, 79344, Note_on_c, 0, 56, 0
2, 79348, Note_on_c, 0, 55, 58
2, 79362, Note_on_c, 0, 70, 70
2, 79426, Note_on_c, 0, 70, 0
2, 79474, Note_on_c, 0, 55, 0
2, 79485, Note_on_c, 0, 53, 68
2, 79607, Note_on_c, 0, 53, 0
2, 79620, Note_on_c, 0, 55, 63
2, 79628, Note_on_c, 0, 61, 64
2, 79694, Note_on_c, 0, 61, 0
2, 79704, Note_on_c, 0, 55, 0
2, 79740, Note_on_c, 0, 58, 68
2, 79870, Note_on_c, 0, 51, 66
2, 79874, Note_on_c, 0, 60, 68
2, 79879, Note_on_c, 0, 58, 0
2, 79924, Note_on_c, 0, 60, 0
2, 80016, Note_on_c, 0, 51, 0
2, 80020, Note_on_c, 0, 50, 64
2, 80135, Note_on_c, 0, 69, 69
2, 80141, Note_on_c, 0, 50, 0
2, 80150, Note_on_c, 0, 51, 71
2, 80192, Note_on_c, 0, 69, 0
2, 80238, Note_on_c, 0, 51, 0
2, 80266, Note_on_c, 0, 54, 62
2, 80380, Note_on_c, 0, 54, 0
2, 80389, Note_on_c, 0, 52, 65
2, 80401, Note_on_c, 0, 68, 76
2, 80462, Note_on_c, 0, 68, 0
2, 80504, Note_on_c, 0, 52, 0
2, 80510, Note_on_c, 0, 51, 71
2, 80654, Note_on_c, 0, 52, 68
2, 80663, Note_on_c, 0, 51, 0
2, 80673, Note_on_c, 0, 59, 71
2, 80719, Note_on_c, 0, 59, 0
2, 80761, Note_on_c, 0, 52, 0
2, 80790, Note_on_c, 0, 56, 71
2, 80914, Note_on_c, 0, 56, 0
2, 80918, Note_on_c, 0, 50, 67
2, 80922, Note_on_c, 0, 58, 73
2, 81005, Note_on_c, 0, 58, 0
2, 81057, Note_on_c, 0, 48, 67
2, 81061, Note_on_c, 0, 50, 0
2, 81192, Note_on_c, 0, 68, 81
2, 81200, Note_on_c, 0, 50, 69
2, 81205, Note_on_c, 0, 48, 0
2, 81235, Control_c, 0, 64, 43
2, 81277, Note_on_c, 0, 68, 0
2, 81292, Note_on_c, 0, 50, 0
2, 81312, Note_on_c, 0, 53, 73
2, 81438, Note_on_c, 0, 51, 76
2, 81441, Note_on_c, 0, 53, 0
2, 81451, Note_on_c, 0, 67, 75
2, 81536, Note_on_c, 0, 67, 0
2, 81569, Note_on_c, 0, 51, 0
2, 81573, Note_on_c, 0, 50, 70
2, 81696, Note_on_c, 0, 51, 74
2, 81713, Note_on_c, 0, 50, 0
2, 81727, Note_on_c, 0, 57, 77
2, 81755, Control_c, 0, 64, 44
2, 81800, Note_on_c, 0, 57, 0
2, 81812, Note_on_c, 0, 51, 0
2, 81831, Note_on_c, 0, 54, 78
2, 81969, Note_on_c, 0, 48, 70
2, 81976, Note_on_c, 0, 54, 0
2, 81985, Note_on_c, 0, 56, 80
2, 82060, Control_c, 0, 64, 43
2, 82081, Note_on_c, 0, 56, 0
2, 82096, Note_on_c, 0, 46, 77
2, 82109, Note_on_c, 0, 48, 0
2, 82235, Note_on_c, 0, 48, 75
2, 82237, Note_on_c, 0, 66, 81
2, 82254, Note_on_c, 0, 46, 0
2, 82271, Control_c, 0, 64, 44
2, 82290, Control_c, 0, 64, 45
2, 82309, Control_c, 0, 64, 47
2, 82331, Control_c, 0, 64, 48
2, 82348, Control_c, 0, 64, 49
2, 82358, Note_on_c, 0, 48, 0
2, 82363, Note_on_c, 0, 51, 77
2, 82363, Note_on_c, 0, 66, 0
2, 82482, Control_c, 0, 64, 48
2, 82492, Note_on_c, 0, 49, 70
2, 82502, Note_on_c, 0, 65, 82
2, 82512, Note_on_c, 0, 51, 0
2, 82582, Control_c, 0, 64, 47
2, 82587, Note_on_c, 0, 65, 0
2, 82620, Control_c, 0, 64, 46
2, 82629, Note_on_c, 0, 48, 68
2, 82645, Note_on_c, 0, 49, 0
2, 82754, Control_c, 0, 64, 47
2, 82778, Note_on_c, 0, 49, 77
2, 82778, Note_on_c, 0, 64, 81
2, 82789, Note_on_c, 0, 48, 0
2, 82793, Note_on_c, 0, 56, 64
2, 82796, Control_c, 0, 64, 48
2, 82814, Control_c, 0, 64, 49
2, 82850, Control_c, 0, 64, 51
2, 82869, Control_c, 0, 64, 52
2, 82873, Note_on_c, 0, 56, 0
2, 82891, Note_on_c, 0, 49, 0
2, 82895, Note_on_c, 0, 64, 0
2, 82902, Note_on_c, 0, 52, 75
2, 83004, Control_c, 0, 64, 51
2, 83046, Control_c, 0, 64, 50
2, 83051, Note_on_c, 0, 46, 70
2, 83051, Note_on_c, 0, 52, 0
2, 83051, Note_on_c, 0, 64, 84
2, 83055, Note_on_c, 0, 56, 72
2, 83100, Control_c, 0, 64, 51
2, 83162, Note_on_c, 0, 47, 67
2, 83173, Note_on_c, 0, 46, 0
2, 83178, Note_on_c, 0, 56, 0
2, 83214, Control_c, 0, 64, 50
2, 83264, Note_on_c, 0, 47, 0
2, 83282, Note_on_c, 0, 49, 66
2, 83313, Control_c, 0, 64, 51
2, 83317, Note_on_c, 0, 63, 78
2, 83331, Note_on_c, 0, 55, 50
2, 83350, Control_c, 0, 64, 50
2, 83363, Note_on_c, 0, 49, 0
2, 83377, Note_on_c, 0, 64, 0
2, 83428, Note_on_c, 0, 47, 75
2, 83465, Note_on_c, 0, 55, 0
2, 83469, Control_c, 0, 64, 49
2, 83565, Note_on_c, 0, 49, 72
2, 83565, Note_on_c, 0, 63, 0
2, 83585, Note_on_c, 0, 47, 0
2, 83676, Control_c, 0, 64, 50
2, 83706, Note_on_c, 0, 55, 61
2, 83732, Note_on_c, 0, 49, 0
2, 83811, Control_c, 0, 64, 51
2, 83844, Note_on_c, 0, 58, 74
2, 83909, Note_on_c, 0, 55, 0
2, 83918, Note_on_c, 0, 58, 0
2, 83949, Note_on_c, 0, 49, 73
2, 83965, Control_c, 0, 64, 50
2, 84002, Control_c, 0, 64, 49
2, 84019, Note_on_c, 0, 49, 0
2, 84089, Note_on_c, 0, 68, 80
2, 84094, Note_on_c, 0, 47, 72
2, 84220, Note_on_c, 0, 47, 0
2, 84229, Note_on_c, 0, 46, 70
2, 84229, Note_on_c, 0, 70, 80
2, 84246, Note_on_c, 0, 68, 0
2, 84329, Note_on_c, 0, 70, 0
2, 84343, Note_on_c, 0, 44, 77
2, 84343, Note_on_c, 0, 71, 81
2, 84358, Note_on_c, 0, 46, 0
2, 84405, Control_c, 0, 64, 48
2, 84475, Note_on_c, 0, 73, 89
2, 84480, Note_on_c, 0, 46, 77
2, 84502, Note_on_c, 0, 71, 0
2, 84534, Note_on_c, 0, 44, 0
2, 84584, Note_on_c, 0, 47, 79
2, 84590, Note_on_c, 0, 46, 0
2, 84609, Note_on_c, 0, 75, 84
2, 84647, Note_on_c, 0, 73, 0
2, 84715, Note_on_c, 0, 49, 71
2, 84720, Note_on_c, 0, 71, 76
2, 84720, Note_on_c, 0, 75, 0
2, 84724, Note_on_c, 0, 47, 0
2, 84844, Note_on_c, 0, 51, 79
2, 84850, Note_on_c, 0, 70, 79
2, 84868, Note_on_c, 0, 71, 0
2, 84895, Note_on_c, 0, 49, 0
2, 84974, Note_on_c, 0, 52, 72
2, 84974, Note_on_c, 0, 68, 80
2, 84983, Note_on_c, 0, 51, 0
2, 85021, Note_on_c, 0, 52, 0
2, 85041, Note_on_c, 0, 70, 0
2, 85106, Note_on_c, 0, 52, 81
2, 85117, Note_on_c, 0, 68, 0
2, 85120, Note_on_c, 0, 67, 74
2, 85247, Note_on_c, 0, 68, 77
2, 85256, Note_on_c, 0, 67, 0
2, 85368, Note_on_c, 0, 43, 63
2, 85375, Note_on_c, 0, 70, 78
2, 85393, Note_on_c, 0, 52, 0
2, 85405, Control_c, 0, 64, 49
2, 85410, Note_on_c, 0, 68, 0
2, 85472, Note_on_c, 0, 43, 0
2, 85483, Note_on_c, 0, 70, 0
2, 85501, Note_on_c, 0, 64, 71
2, 85646, Note_on_c, 0, 63, 75
2, 85748, Note_on_c, 0, 64, 0
2, 85760, Note_on_c, 0, 61, 59
2, 85765, Control_c, 0, 64, 48
2, 85784, Control_c, 0, 64, 47
2, 85831, Note_on_c, 0, 63, 0
2, 85845, Control_c, 0, 64, 48
2, 85885, Note_on_c, 0, 59, 61
2, 85893, Note_on_c, 0, 61, 0
2, 86015, Note_on_c, 0, 59, 0
2, 86022, Note_on_c, 0, 58, 59
2, 86142, Note_on_c, 0, 58, 0
2, 86147, Note_on_c, 0, 56, 61
2, 86188, Control_c, 0, 64, 49
2, 86230, Note_on_c, 0, 56, 0
2, 86270, Note_on_c, 0, 63, 58
2, 86283, Control_c, 0, 64, 48
2, 86378, Note_on_c, 0, 63, 0
2, 86403, Note_on_c, 0, 56, 64
2, 86403, Note_on_c, 0, 80, 80
2, 86419, Control_c, 0, 64, 49
2, 86423, Note_on_c, 0, 71, 55
2, 86445, Note_on_c, 0, 80, 0
2, 86454, Note_on_c, 0, 71, 0
2, 86458, Note_on_c, 0, 56, 0
2, 86513, Note_on_c, 0, 63, 68
2, 86622, Note_on_c, 0, 63, 0
2, 86659, Note_on_c, 0, 55, 59
2, 86670, Note_on_c, 0, 80, 87
2, 86683, Note_on_c, 0, 71, 71
2, 86744, Control_c, 0, 64, 48
2, 86769, Note_on_c, 0, 55, 0
2, 86797, Note_on_c, 0, 63, 56
2, 86918, Note_on_c, 0, 63, 0
2, 86945, Note_on_c, 0, 82, 81
2, 86959, Note_on_c, 0, 55, 51
2, 86959, Note_on_c, 0, 73, 52
2, 87009, Note_on_c, 0, 71, 0
2, 87038, Note_on_c, 0, 80, 0
2, 87052, Note_on_c, 0, 55, 0
2, 87070, Note_on_c, 0, 63, 54
2, 87140, Note_on_c, 0, 73, 0
2, 87146, Control_c, 0, 64, 49
2, 87154, Note_on_c, 0, 82, 0
2, 87193, Note_on_c, 0, 63, 0
2, 87216, Note_on_c, 0, 56, 60
2, 87293, Note_on_c, 0, 56, 0
2, 87303, Control_c, 0, 64, 48
2, 87347, Note_on_c, 0, 63, 59
2, 87429, Note_on_c, 0, 63, 0
2, 87469, Note_on_c, 0, 56, 54
2, 87478, Note_on_c, 0, 80, 79
2, 87488, Note_on_c, 0, 71, 66
2, 87514, Note_on_c, 0, 80, 0
2, 87521, Note_on_c, 0, 71, 0
2, 87532, Control_c, 0, 64, 49
2, 87548, Note_on_c, 0, 56, 0
2, 87588, Note_on_c, 0, 63, 56
2, 87608, Control_c, 0, 64, 48
2, 87703, Note_on_c, 0, 63, 0
2, 87721, Note_on_c, 0, 51, 58
2, 87734, Note_on_c, 0, 80, 71
2, 87745, Control_c, 0, 64, 49
2, 87753, Note_on_c, 0, 71, 54
2, 87792, Note_on_c, 0, 71, 0
2, 87828, Note_on_c, 0, 51, 0
2, 87869, Note_on_c, 0, 63, 56
2, 87972, Note_on_c, 0, 63, 0
2, 88004, Note_on_c, 0, 79, 64
2, 88017, Note_on_c, 0, 51, 47
2, 88023, Note_on_c, 0, 70, 55
2, 88061, Note_on_c, 0, 80, 0
2, 88129, Note_on_c, 0, 70, 0
2, 88129, Note_on_c, 0, 79, 0
2, 88140, Note_on_c, 0, 63, 58
2, 88216, Note_on_c, 0, 51, 0
2, 88226, Note_on_c, 0, 63, 0
2, 88254, Note_on_c, 0, 56, 68
2, 88374, Note_on_c, 0, 58, 75
2, 88396, Note_on_c, 0, 67, 61
2, 88424, Note_on_c, 0, 56, 0
2, 88456, Note_on_c, 0, 67, 0
2, 88480, Note_on_c, 0, 58, 0
2, 88487, Note_on_c, 0, 68, 63
2, 88496, Note_on_c, 0, 59, 76
2, 88589, Note_on_c, 0, 68, 0
2, 88603, Note_on_c, 0, 70, 59
2, 88612, Note_on_c, 0, 61, 74
2, 88616, Note_on_c, 0, 59, 0
2, 88670, Note_on_c, 0, 70, 0
2, 88680, Control_c, 0, 64, 50
2, 88696, Note_on_c, 0, 71, 64
2, 88732, Note_on_c, 0, 63, 72
2, 88744, Note_on_c, 0, 61, 0
2, 88783, Note_on_c, 0, 71, 0
2, 88803, Note_on_c, 0, 70, 66
2, 88814, Control_c, 0, 64, 49
2, 88823, Note_on_c, 0, 63, 0
2, 88823, Note_on_c, 0, 68, 66
2, 88858, Note_on_c, 0, 70, 0
2, 88860, Note_on_c, 0, 59, 63
2, 88873, Note_on_c, 0, 68, 0
2, 88979, Note_on_c, 0, 58, 65
2, 88979, Note_on_c, 0, 59, 0
2, 89006, Note_on_c, 0, 76, 73
2, 89017, Note_on_c, 0, 73, 54
2, 89049, Control_c, 0, 64, 50
2, 89053, Note_on_c, 0, 73, 0
2, 89053, Note_on_c, 0, 76, 0
2, 89096, Note_on_c, 0, 56, 61
2, 89109, Note_on_c, 0, 58, 0
2, 89233, Note_on_c, 0, 56, 0
2, 89256, Control_c, 0, 64, 49
2, 89256, Note_on_c, 0, 55, 56
2, 89260, Note_on_c, 0, 76, 59
2, 89272, Note_on_c, 0, 73, 57
2, 89334, Control_c, 0, 64, 50
2, 89371, Note_on_c, 0, 55, 0
2, 89393, Note_on_c, 0, 56, 57
2, 89476, Note_on_c, 0, 56, 0
2, 89511, Note_on_c, 0, 58, 63
2, 89544, Note_on_c, 0, 73, 0
2, 89544, Note_on_c, 0, 75, 67
2, 89550, Note_on_c, 0, 67, 53
2, 89621, Note_on_c, 0, 76, 0
2, 89648, Note_on_c, 0, 58, 0
2, 89652, Note_on_c, 0, 52, 61
2, 89768, Note_on_c, 0, 51, 68
2, 89773, Note_on_c, 0, 52, 0
2, 89806, Note_on_c, 0, 67, 0
2, 89902, Note_on_c, 0, 49, 61
2, 89909, Note_on_c, 0, 51, 0
2, 89918, Note_on_c, 0, 75, 0
2, 89995, Note_on_c, 0, 49, 0
2, 90053, Note_on_c, 0, 47, 61
2, 90169, Note_on_c, 0, 46, 66
2, 90174, Note_on_c, 0, 47, 0
2, 90284, Note_on_c, 0, 46, 0
2, 90297, Note_on_c, 0, 44, 57
2, 90409, Note_on_c, 0, 44, 0
2, 90414, Control_c, 0, 64, 49
2, 90435, Note_on_c, 0, 56, 56
2, 90521, Note_on_c, 0, 56, 0
2, 90547, Note_on_c, 0, 71, 70
2, 90558, Note_on_c, 0, 44, 63
2, 90562, Note_on_c, 0, 68, 56
2, 90604, Control_c, 0, 64, 50
2, 90604, Note_on_c, 0, 68, 0
2, 90604, Note_on_c, 0, 71, 0
2, 90637, Note_on_c, 0, 44, 0
2, 90683, Note_on_c, 0, 56, 59
2, 90744, Note_on_c, 0, 56, 0
2, 90757, Control_c, 0, 64, 49
2, 90809, Note_on_c, 0, 73, 71
2, 90813, Control_c, 0, 64, 50
2, 90816, Note_on_c, 0, 69, 59
2, 90820, Note_on_c, 0, 54, 57
2, 90954, Note_on_c, 0, 54, 0
2, 90959, Note_on_c, 0, 63, 62
2, 91068, Note_on_c, 0, 63, 0
2, 91080, Note_on_c, 0, 54, 60
2, 91085, Note_on_c, 0, 72, 70
2, 91100, Note_on_c, 0, 68, 57
2, 91139, Note_on_c, 0, 69, 0
2, 91197, Note_on_c, 0, 73, 0
2, 91220, Note_on_c, 0, 68, 0
2, 91224, Note_on_c, 0, 63, 54
2, 91255, Control_c, 0, 64, 49
2, 91276, Note_on_c, 0, 72, 0
2, 91330, Note_on_c, 0, 54, 0
2, 91330, Note_on_c, 0, 63, 0
2, 91348, Note_on_c, 0, 52, 72
2, 91426, Control_c, 0, 64, 50
2, 91445, Control_c, 0, 64, 49
2, 91458, Note_on_c, 0, 52, 0
2, 91465, Control_c, 0, 64, 48
2, 91479, Note_on_c, 0, 61, 55
2, 91484, Control_c, 0, 64, 46
2, 91503, Control_c, 0, 64, 45
2, 91610, Note_on_c, 0, 61, 0
2, 91610, Note_on_c, 0, 73, 77
2, 91614, Note_on_c, 0, 52, 68
2, 91614, Note_on_c, 0, 68, 71
2, 91639, Control_c, 0, 64, 46
2, 91650, Note_on_c, 0, 68, 0
2, 91651, Note_on_c, 0, 73, 0
2, 91660, Control_c, 0, 64, 48
2, 91715, Control_c, 0, 64, 49
2, 91734, Note_on_c, 0, 61, 60
2, 91839, Note_on_c, 0, 61, 0
2, 91876, Note_on_c, 0, 51, 66
2, 91876, Note_on_c, 0, 78, 89
2, 91880, Note_on_c, 0, 69, 71
2, 91926, Control_c, 0, 64, 50
2, 91955, Note_on_c, 0, 69, 0
2, 91964, Control_c, 0, 64, 51
2, 92008, Note_on_c, 0, 51, 0
2, 92008, Note_on_c, 0, 52, 0
2, 92013, Note_on_c, 0, 60, 70
2, 92060, Control_c, 0, 64, 52
2, 92137, Note_on_c, 0, 75, 76
2, 92139, Note_on_c, 0, 51, 72
2, 92143, Note_on_c, 0, 60, 0
2, 92158, Note_on_c, 0, 66, 64
2, 92175, Control_c, 0, 64, 51
2, 92254, Note_on_c, 0, 78, 0
2, 92269, Note_on_c, 0, 51, 0
2, 92282, Note_on_c, 0, 66, 0
2, 92284, Note_on_c, 0, 60, 67
2, 92291, Control_c, 0, 64, 50
2, 92329, Control_c, 0, 64, 49
2, 92358, Note_on_c, 0, 60, 0
2, 92363, Note_on_c, 0, 75, 0
2, 92398, Note_on_c, 0, 49, 77
2, 92426, Control_c, 0, 64, 48
2, 92446, Control_c, 0, 64, 46
2, 92464, Control_c, 0, 64, 44
2, 92483, Control_c, 0, 64, 43
2, 92521, Control_c, 0, 64, 44
2, 92526, Note_on_c, 0, 49, 0
2, 92530, Note_on_c, 0, 61, 75
2, 92542, Control_c, 0, 64, 45
2, 92560, Control_c, 0, 64, 44
2, 92646, Note_on_c, 0, 61, 0
2, 92657, Control_c, 0, 64, 45
2, 92661, Note_on_c, 0, 76, 89
2, 92664, Note_on_c, 0, 49, 75
2, 92668, Note_on_c, 0, 68, 83
2, 92677, Control_c, 0, 64, 46
2, 92693, Control_c, 0, 64, 47
2, 92705, Note_on_c, 0, 68, 0
2, 92713, Control_c, 0, 64, 49
2, 92743, Note_on_c, 0, 49, 0
2, 92744, Note_on_c, 0, 76, 0
2, 92778, Note_on_c, 0, 61, 69
2, 92847, Note_on_c, 0, 61, 0
2, 92887, Control_c, 0, 64, 48
2, 92936, Note_on_c, 0, 59, 72
2, 92936, Note_on_c, 0, 74, 86
2, 92936, Note_on_c, 0, 78, 94
2, 93061, Note_on_c, 0, 68, 73
2, 93082, Note_on_c, 0, 59, 0
2, 93117, Control_c, 0, 64, 49
2, 93196, Note_on_c, 0, 68, 0
2, 93198, Note_on_c, 0, 59, 73
2, 93212, Note_on_c, 0, 73, 60
2, 93212, Note_on_c, 0, 77, 81
2, 93232, Control_c, 0, 64, 48
2, 93241, Note_on_c, 0, 74, 0
2, 93330, Note_on_c, 0, 78, 0
2, 93332, Note_on_c, 0, 68, 74
2, 93350, Note_on_c, 0, 73, 0
2, 93373, Note_on_c, 0, 77, 0
2, 93384, Control_c, 0, 64, 49
2, 93420, Note_on_c, 0, 59, 0
2, 93475, Note_on_c, 0, 68, 0
2, 93480, Note_on_c, 0, 58, 83
2, 93484, Control_c, 0, 64, 50
2, 93591, Note_on_c, 0, 67, 72
2, 93616, Note_on_c, 0, 58, 0
2, 93731, Note_on_c, 0, 67, 0
2, 93740, Note_on_c, 0, 76, 81
2, 93744, Note_on_c, 0, 58, 77
2, 93744, Note_on_c, 0, 73, 78
2, 93744, Note_on_c, 0, 82, 83
2, 93788, Control_c, 0, 64, 51
2, 93855, Note_on_c, 0, 75, 78
2, 93857, Note_on_c, 0, 73, 0
2, 93866, Note_on_c, 0, 58, 0
2, 93871, Note_on_c, 0, 67, 68
2, 93895, Note_on_c, 0, 76, 0
2, 93903, Note_on_c, 0, 82, 0
2, 93908, Control_c, 0, 64, 50
2, 93919, Note_on_c, 0, 75, 0
2, 93946, Note_on_c, 0, 67, 0
2, 93979, Control_c, 0, 64, 51
2, 93994, Note_on_c, 0, 56, 85
2, 93994, Note_on_c, 0, 82, 82
2, 94006, Note_on_c, 0, 73, 81
2, 94006, Note_on_c, 0, 76, 81
2, 94018, Control_c, 0, 64, 52
2, 94053, Note_on_c, 0, 73, 0
2, 94053, Note_on_c, 0, 76, 0
2, 94071, Note_on_c, 0, 82, 0
2, 94075, Control_c, 0, 64, 51
2, 94097, Note_on_c, 0, 56, 0
2, 94106, Note_on_c, 0, 68, 75
2, 94241, Note_on_c, 0, 68, 0
2, 94267, Note_on_c, 0, 56, 74
2, 94267, Note_on_c, 0, 76, 85
2, 94267, Note_on_c, 0, 82, 87
2, 94271, Note_on_c, 0, 73, 83
2, 94311, Note_on_c, 0, 73, 0
2, 94322, Note_on_c, 0, 76, 0
2, 94329, Note_on_c, 0, 56, 0
2, 94361, Note_on_c, 0, 82, 0
2, 94370, Note_on_c, 0, 68, 76
2, 94493, Note_on_c, 0, 68, 0
2, 94532, Note_on_c, 0, 76, 78
2, 94539, Note_on_c, 0, 67, 61
2, 94539, Note_on_c, 0, 82, 87
2, 94543, Note_on_c, 0, 73, 87
2, 94594, Control_c, 0, 64, 50
2, 94633, Control_c, 0, 64, 49
2, 94646, Note_on_c, 0, 67, 0
2, 94654, Note_on_c, 0, 68, 79
2, 94693, Control_c, 0, 64, 50
2, 94749, Control_c, 0, 64, 51
2, 94783, Note_on_c, 0, 68, 0
2, 94792, Note_on_c, 0, 70, 69
2, 94841, Note_on_c, 0, 73, 0
2, 94873, Note_on_c, 0, 76, 0
2, 94893, Note_on_c, 0, 82, 0
2, 94917, Note_on_c, 0, 70, 0
2, 94931, Note_on_c, 0, 64, 73
2, 95055, Control_c, 0, 64, 50
2, 95067, Note_on_c, 0, 63, 67
2, 95074, Note_on_c, 0, 64, 0
2, 95133, Control_c, 0, 64, 49
2, 95188, Note_on_c, 0, 76, 88
2, 95207, Note_on_c, 0, 61, 72
2, 95207, Note_on_c, 0, 63, 0
2, 95247, Control_c, 0, 64, 48
2, 95290, Note_on_c, 0, 61, 0
2, 95304, Control_c, 0, 64, 49
2, 95317, Note_on_c, 0, 75, 79
2, 95335, Note_on_c, 0, 59, 72
2, 95346, Note_on_c, 0, 76, 0
2, 95442, Note_on_c, 0, 73, 80
2, 95451, Note_on_c, 0, 59, 0
2, 95463, Note_on_c, 0, 58, 59
2, 95490, Note_on_c, 0, 75, 0
2, 95569, Note_on_c, 0, 56, 82
2, 95578, Note_on_c, 0, 73, 0
2, 95586, Note_on_c, 0, 71, 76
2, 95590, Note_on_c, 0, 58, 0
2, 95601, Note_on_c, 0, 56, 0
2, 95614, Control_c, 0, 64, 50
2, 95701, Note_on_c, 0, 71, 0
2, 95710, Control_c, 0, 64, 49
2, 95710, Note_on_c, 0, 73, 73
2, 95829, Note_on_c, 0, 73, 0
2, 95836, Note_on_c, 0, 75, 75
2, 95858, Note_on_c, 0, 59, 78
2, 95890, Note_on_c, 0, 59, 0
2, 95909, Note_on_c, 0, 75, 0
2, 95964, Note_on_c, 0, 68, 72
2, 96016, Control_c, 0, 64, 50
2, 96107, Note_on_c, 0, 61, 78
2, 96111, Note_on_c, 0, 68, 0
2, 96111, Note_on_c, 0, 71, 71
2, 96144, Note_on_c, 0, 61, 0
2, 96187, Control_c, 0, 64, 49
2, 96240, Note_on_c, 0, 70, 74
2, 96249, Note_on_c, 0, 71, 0
2, 96361, Note_on_c, 0, 68, 67
2, 96376, Note_on_c, 0, 63, 75
2, 96397, Note_on_c, 0, 70, 0
2, 96408, Note_on_c, 0, 63, 0
2, 96480, Note_on_c, 0, 68, 0
2, 96510, Note_on_c, 0, 67, 59
2, 96645, Note_on_c, 0, 68, 73
2, 96649, Note_on_c, 0, 67, 0
2, 96654, Note_on_c, 0, 64, 92
2, 96715, Note_on_c, 0, 64, 0
2, 96765, Note_on_c, 0, 71, 67
2, 96785, Control_c, 0, 64, 48
2, 96792, Note_on_c, 0, 68, 0
2, 96904, Note_on_c, 0, 71, 0
2, 96931, Note_on_c, 0, 52, 74
2, 96931, Note_on_c, 0, 68, 65
2, 96955, Control_c, 0, 64, 49
2, 96978, Note_on_c, 0, 52, 0
2, 97020, Note_on_c, 0, 68, 0
2, 97024, Note_on_c, 0, 71, 65
2, 97141, Note_on_c, 0, 71, 0
2, 97172, Note_on_c, 0, 66, 70
2, 97286, Note_on_c, 0, 75, 70
2, 97293, Note_on_c, 0, 66, 0
2, 97427, Note_on_c, 0, 75, 0
2, 97438, Note_on_c, 0, 66, 69
2, 97443, Note_on_c, 0, 57, 88
2, 97451, Note_on_c, 0, 48, 72
2, 97457, Note_on_c, 0, 51, 71
2, 97487, Note_on_c, 0, 57, 0
2, 97496, Note_on_c, 0, 48, 0
2, 97500, Note_on_c, 0, 51, 0
2, 97566, Note_on_c, 0, 75, 71
2, 97572, Note_on_c, 0, 66, 0
2, 97590, Control_c, 0, 64, 48
2, 97665, Note_on_c, 0, 75, 0
2, 97706, Control_c, 0, 64, 49
2, 97716, Note_on_c, 0, 65, 67
2, 97820, Control_c, 0, 64, 48
2, 97836, Note_on_c, 0, 73, 72
2, 97848, Note_on_c, 0, 65, 0
2, 97877, Control_c, 0, 64, 47
2, 97914, Control_c, 0, 64, 48
2, 97954, Control_c, 0, 64, 49
2, 97979, Note_on_c, 0, 73, 0
2, 97981, Note_on_c, 0, 49, 68
2, 97981, Note_on_c, 0, 56, 76
2, 97981, Note_on_c, 0, 65, 70
2, 98068, Note_on_c, 0, 65, 0
2, 98081, Note_on_c, 0, 56, 0
2, 98085, Note_on_c, 0, 51, 74
2, 98101, Note_on_c, 0, 73, 74
2, 98118, Note_on_c, 0, 49, 0
2, 98146, Control_c, 0, 64, 48
2, 98185, Control_c, 0, 64, 49
2, 98225, Note_on_c, 0, 73, 0
2, 98233, Note_on_c, 0, 53, 68
2, 98233, Note_on_c, 0, 56, 85
2, 98239, Note_on_c, 0, 61, 68
2, 98253, Note_on_c, 0, 51, 0
2, 98281, Note_on_c, 0, 56, 0
2, 98285, Note_on_c, 0, 61, 0
2, 98294, Note_on_c, 0, 53, 0
2, 98320, Control_c, 0, 64, 48
2, 98339, Control_c, 0, 64, 47
2, 98357, Note_on_c, 0, 71, 66
2, 98376, Control_c, 0, 64, 46
2, 98499, Note_on_c, 0, 53, 65
2, 98499, Note_on_c, 0, 71, 0
2, 98505, Note_on_c, 0, 56, 71
2, 98510, Control_c, 0, 64, 47
2, 98522, Note_on_c, 0, 61, 65
2, 98541, Note_on_c, 0, 56, 0
2, 98545, Note_on_c, 0, 53, 0
2, 98632, Note_on_c, 0, 61, 0
2, 98643, Note_on_c, 0, 71, 68
2, 98781, Note_on_c, 0, 52, 73
2, 98781, Note_on_c, 0, 54, 73
2, 98781, Note_on_c, 0, 66, 72
2, 98781, Note_on_c, 0, 71, 0
2, 98874, Control_c, 0, 64, 46
2, 98886, Note_on_c, 0, 70, 74
2, 98902, Note_on_c, 0, 66, 0
2, 98934, Note_on_c, 0, 54, 0
2, 98970, Note_on_c, 0, 52, 0
2, 99032, Note_on_c, 0, 42, 69
2, 99037, Note_on_c, 0, 70, 0
2, 99051, Note_on_c, 0, 66, 68
2, 99069, Control_c, 0, 64, 47
2, 99084, Note_on_c, 0, 42, 0
2, 99158, Note_on_c, 0, 70, 56
2, 99178, Note_on_c, 0, 66, 0
2, 99280, Note_on_c, 0, 70, 0
2, 99307, Note_on_c, 0, 64, 62
2, 99414, Note_on_c, 0, 64, 0
2, 99421, Note_on_c, 0, 73, 64
2, 99491, Control_c, 0, 64, 46
2, 99535, Note_on_c, 0, 73, 0
2, 99562, Note_on_c, 0, 55, 78
2, 99567, Note_on_c, 0, 64, 70
2, 99571, Note_on_c, 0, 49, 68
2, 99575, Note_on_c, 0, 46, 65
2, 99600, Note_on_c, 0, 55, 0
2, 99605, Control_c, 0, 64, 47
2, 99622, Note_on_c, 0, 46, 0
2, 99622, Note_on_c, 0, 49, 0
2, 99684, Control_c, 0, 64, 46
2, 99686, Note_on_c, 0, 64, 0
2, 99686, Note_on_c, 0, 73, 69
2, 99759, Control_c, 0, 64, 47
2, 99805, Note_on_c, 0, 73, 0
2, 99833, Note_on_c, 0, 63, 73
2, 99954, Note_on_c, 0, 71, 70
2, 99958, Note_on_c, 0, 63, 0
2, 100067, Control_c, 0, 64, 48
2, 100086, Note_on_c, 0, 71, 0
2, 100095, Note_on_c, 0, 47, 63
2, 100095, Note_on_c, 0, 54, 73
2, 100095, Note_on_c, 0, 63, 68
2, 100144, Control_c, 0, 64, 47
2, 100196, Note_on_c, 0, 63, 0
2, 100205, Note_on_c, 0, 47, 0
2, 100205, Note_on_c, 0, 71, 65
2, 100210, Note_on_c, 0, 49, 72
2, 100210, Note_on_c, 0, 54, 0
2, 100324, Note_on_c, 0, 71, 0
2, 100345, Note_on_c, 0, 51, 74
2, 100345, Note_on_c, 0, 54, 78
2, 100345, Note_on_c, 0, 59, 73
2, 100379, Note_on_c, 0, 49, 0
2, 100387, Note_on_c, 0, 51, 0
2, 100399, Note_on_c, 0, 54, 0
2, 100432, Control_c, 0, 64, 46
2, 100465, Note_on_c, 0, 59, 0
2, 100478, Note_on_c, 0, 70, 55
2, 100584, Note_on_c, 0, 70, 0
2, 100601, Note_on_c, 0, 54, 74
2, 100607, Note_on_c, 0, 59, 70
2, 100611, Note_on_c, 0, 51, 65
2, 100622, Control_c, 0, 64, 47
2, 100645, Control_c, 0, 64, 48
2, 100649, Note_on_c, 0, 54, 0
2, 100663, Note_on_c, 0, 51, 0
2, 100705, Note_on_c, 0, 59, 0
2, 100729, Note_on_c, 0, 70, 66
2, 100816, Control_c, 0, 64, 47
2, 100873, Note_on_c, 0, 70, 0
2, 100882, Note_on_c, 0, 64, 70
2, 100887, Note_on_c, 0, 51, 62
2, 100895, Note_on_c, 0, 52, 59
2, 100934, Note_on_c, 0, 51, 0
2, 100995, Note_on_c, 0, 68, 67
2, 101016, Note_on_c, 0, 64, 0
2, 101122, Note_on_c, 0, 52, 0
2, 101131, Note_on_c, 0, 68, 0
2, 101151, Note_on_c, 0, 40, 60
2, 101167, Note_on_c, 0, 64, 69
2, 101189, Note_on_c, 0, 40, 0
2, 101272, Note_on_c, 0, 68, 74
2, 101276, Note_on_c, 0, 64, 0
2, 101425, Note_on_c, 0, 63, 72
2, 101425, Note_on_c, 0, 68, 0
2, 101537, Note_on_c, 0, 71, 77
2, 101551, Note_on_c, 0, 63, 0
2, 101675, Note_on_c, 0, 54, 79
2, 101675, Note_on_c, 0, 71, 0
2, 101679, Note_on_c, 0, 63, 74
2, 101684, Note_on_c, 0, 44, 67
2, 101684, Note_on_c, 0, 47, 71
2, 101731, Note_on_c, 0, 47, 0
2, 101731, Note_on_c, 0, 54, 0
2, 101736, Note_on_c, 0, 44, 0
2, 101803, Note_on_c, 0, 63, 0
2, 101803, Note_on_c, 0, 71, 75
2, 101915, Note_on_c, 0, 71, 0
2, 101947, Note_on_c, 0, 62, 74
2, 102069, Note_on_c, 0, 70, 75
2, 102086, Note_on_c, 0, 62, 0
2, 102199, Control_c, 0, 64, 48
2, 102205, Note_on_c, 0, 46, 70
2, 102205, Note_on_c, 0, 53, 75
2, 102216, Note_on_c, 0, 62, 76
2, 102220, Note_on_c, 0, 70, 0
2, 102307, Note_on_c, 0, 62, 0
2, 102334, Note_on_c, 0, 70, 72
2, 102338, Note_on_c, 0, 48, 67
2, 102353, Note_on_c, 0, 53, 0
2, 102362, Note_on_c, 0, 46, 0
2, 102450, Note_on_c, 0, 70, 0
2, 102466, Control_c, 0, 64, 49
2, 102473, Note_on_c, 0, 53, 82
2, 102477, Note_on_c, 0, 50, 64
2, 102477, Note_on_c, 0, 58, 81
2, 102482, Note_on_c, 0, 48, 0
2, 102519, Note_on_c, 0, 53, 0
2, 102526, Note_on_c, 0, 50, 0
2, 102617, Note_on_c, 0, 68, 78
2, 102627, Note_on_c, 0, 58, 0
2, 102747, Note_on_c, 0, 52, 66
2, 102757, Note_on_c, 0, 68, 0
2, 102763, Note_on_c, 0, 58, 76
2, 102768, Note_on_c, 0, 49, 53
2, 102818, Note_on_c, 0, 52, 0
2, 102898, Note_on_c, 0, 68, 72
2, 102907, Note_on_c, 0, 58, 0
2, 102947, Control_c, 0, 64, 48
2, 103070, Note_on_c, 0, 67, 71
2, 103074, Note_on_c, 0, 51, 55
2, 103088, Note_on_c, 0, 49, 0
2, 103109, Note_on_c, 0, 68, 0
2, 103212, Note_on_c, 0, 67, 0
2, 103246, Note_on_c, 0, 63, 69
2, 103319, Control_c, 0, 64, 49
2, 103423, Note_on_c, 0, 47, 53
2, 103425, Note_on_c, 0, 68, 81
2, 103435, Note_on_c, 0, 51, 0
2, 103472, Control_c, 0, 64, 48
2, 103598, Note_on_c, 0, 47, 0
2, 103598, Note_on_c, 0, 70, 86
2, 103612, Note_on_c, 0, 49, 56
2, 103687, Note_on_c, 0, 63, 0
2, 103788, Note_on_c, 0, 71, 87
2, 103792, Note_on_c, 0, 51, 63
2, 103801, Note_on_c, 0, 49, 0
2, 103835, Note_on_c, 0, 51, 0
2, 103846, Note_on_c, 0, 70, 0
2, 103950, Control_c, 0, 64, 47
2, 103987, Note_on_c, 0, 63, 64
2, 104173, Note_on_c, 0, 39, 50
2, 104173, Note_on_c, 0, 63, 0
2, 104173, Note_on_c, 0, 70, 76
2, 104181, Note_on_c, 0, 67, 61
2, 104223, Note_on_c, 0, 68, 0
2, 104225, Note_on_c, 0, 71, 0
2, 104268, Note_on_c, 0, 39, 0
2, 104411, Note_on_c, 0, 61, 54
2, 104689, Note_on_c, 0, 67, 0
2, 104691, Note_on_c, 0, 44, 42
2, 104696, Note_on_c, 0, 61, 0
2, 104700, Control_c, 0, 64, 48
2, 104814, Control_c, 0, 64, 47
2, 105355, Note_on_c, 0, 68, 57
2, 105368, Note_on_c, 0, 59, 32
2, 105375, Note_on_c, 0, 63, 36
2, 105545, Control_c, 0, 64, 46
2, 105948, Control_c, 0, 64, 47
2, 105984, Control_c, 0, 64, 46
2, 106020, Note_on_c, 0, 47, 45
2, 106119, Note_on_c, 0, 51, 45
2, 106123, Note_on_c, 0, 70, 0
2, 106237, Note_on_c, 0, 44, 0
2, 106242, Note_on_c, 0, 47, 0
2, 106258, Note_on_c, 0, 56, 42
2, 106296, Note_on_c, 0, 51, 0
2, 106612, Note_on_c, 0, 68, 0
2, 106659, Note_on_c, 0, 59, 0
2, 106668, Note_on_c, 0, 63, 0
2, 107098, Control_c, 0, 64, 45
2, 107445, Control_c, 0, 64, 44
2, 107503, Control_c, 0, 64, 43
2, 108039, Control_c, 0, 64, 44
2, 108156, Control_c, 0, 64, 45
2, 108419, Note_on_c, 0, 56, 0
2, 108579, Control_c, 0, 64, 44
2, 108923, Control_c, 0, 64, 43
2, 108980, Control_c, 0, 64, 42
2, 109000, Control_c, 0, 64, 41
2, 109904, Control_c, 0, 64, 42
2, 110576, Control_c, 0, 64, 41
2, 111583,End_track
0, 0, End_of_file
