0, 0, Header, 1, 2, 480
1, 0, Start_track
1, 0, Tempo, 500000
1, 0, Time_signature, 4, 2, 24, 8
1, 1, End_track
2, 0, Start_track
2, 0, Program_c, 0, 0
2, 0, Control_c, 0, 64, 0
2, 0, Control_c, 0, 67, 0
2, 1016, Note_on_c, 0, 68, 60
2, 1024, Note_on_c, 0, 56, 36
2, 1029, Note_on_c, 0, 59, 41
2, 1042, Note_on_c, 0, 63, 31
2, 1134, Note_on_c, 0, 70, 63
2, 1153, Note_on_c, 0, 68, 0
2, 1261, Note_on_c, 0, 70, 0
2, 1278, Note_on_c, 0, 71, 72
2, 1382, Note_on_c, 0, 63, 0
2, 1393, Note_on_c, 0, 73, 82
2, 1395, Note_on_c, 0, 59, 0
2, 1412, Note_on_c, 0, 71, 0
2, 1425, Note_on_c, 0, 56, 0
2, 1513, Note_on_c, 0, 75, 82
2, 1563, Note_on_c, 0, 73, 0
2, 1633, Note_on_c, 0, 75, 0
2, 1637, Note_on_c, 0, 71, 78
2, 1748, Note_on_c, 0, 70, 78
2, 1759, Note_on_c, 0, 71, 0
2, 1867, Note_on_c, 0, 68, 76
2, 1917, Note_on_c, 0, 70, 0
2, 1989, Note_on_c, 0, 68, 0
2, 2004, Note_on_c, 0, 67, 66
2, 2016, Note_on_c, 0, 56, 37
2, 2020, Note_on_c, 0, 58, 34
2, 2020, Note_on_c, 0, 61, 42
2, 2107, Note_on_c, 0, 67, 0
2, 2107, Note_on_c, 0, 68, 75
2, 2239, Note_on_c, 0, 70, 76
2, 2242, Note_on_c, 0, 61, 0
2, 2246, Note_on_c, 0, 56, 0
2, 2256, Note_on_c, 0, 58, 0
2, 2261, Note_on_c, 0, 68, 0
2, 2347, Note_on_c, 0, 70, 0
2, 2366, Note_on_c, 0, 64, 66
2, 2509, Note_on_c, 0, 63, 67
2, 2594, Note_on_c, 0, 64, 0
2, 2611, Note_on_c, 0, 61, 51
2, 2669, Note_on_c, 0, 63, 0
2, 2729, Note_on_c, 0, 59, 59
2, 2737, Note_on_c, 0, 61, 0
2, 2807, Control_c, 0, 64, 11
2, 2827, Control_c, 0, 64, 17
2, 2848, Control_c, 0, 64, 19
2, 2854, Note_on_c, 0, 58, 67
2, 2869, Note_on_c, 0, 59, 0
2, 2884, Control_c, 0, 64, 18
2, 2904, Control_c, 0, 64, 17
2, 2975, Note_on_c, 0, 58, 0
2, 2978, Note_on_c, 0, 56, 70
2, 3001, Control_c, 0, 64, 16
2, 3022, Control_c, 0, 64, 13
2, 3038, Control_c, 0, 64, 12
2, 3059, Control_c, 0, 64, 11
2, 3071, Note_on_c, 0, 56, 0
2, 3077, Control_c, 0, 64, 10
2, 3098, Control_c, 0, 64, 0
2, 3099, Note_on_c, 0, 63, 62
2, 3172, Control_c, 0, 64, 9
2, 3192, Control_c, 0, 64, 11
2, 3196, Note_on_c, 0, 71, 72
2, 3200, Note_on_c, 0, 63, 0
2, 3205, Note_on_c, 0, 68, 67
2, 3226, Note_on_c, 0, 56, 61
2, 3251, Note_on_c, 0, 68, 0
2, 3260, Note_on_c, 0, 71, 0
2, 3277, Note_on_c, 0, 56, 0
2, 3323, Note_on_c, 0, 63, 65
2, 3327, Control_c, 0, 64, 12
2, 3349, Control_c, 0, 64, 16
2, 3365, Control_c, 0, 64, 22
2, 3384, Control_c, 0, 64, 23
2, 3405, Control_c, 0, 64, 22
2, 3423, Control_c, 0, 64, 21
2, 3439, Note_on_c, 0, 63, 0
2, 3451, Note_on_c, 0, 71, 65
2, 3461, Note_on_c, 0, 55, 62
2, 3473, Note_on_c, 0, 68, 79
2, 3575, Note_on_c, 0, 55, 0
2, 3594, Note_on_c, 0, 63, 61
2, 3634, Control_c, 0, 64, 20
2, 3672, Control_c, 0, 64, 19
2, 3706, Note_on_c, 0, 63, 0
2, 3708, Note_on_c, 0, 73, 85
2, 3715, Note_on_c, 0, 70, 56
2, 3724, Note_on_c, 0, 55, 58
2, 3748, Control_c, 0, 64, 20
2, 3791, Note_on_c, 0, 68, 0
2, 3820, Note_on_c, 0, 55, 0
2, 3820, Note_on_c, 0, 70, 0
2, 3820, Note_on_c, 0, 71, 0
2, 3852, Note_on_c, 0, 63, 61
2, 3866, Control_c, 0, 64, 19
2, 3881, Note_on_c, 0, 73, 0
2, 3885, Control_c, 0, 64, 17
2, 3902, Control_c, 0, 64, 16
2, 3943, Note_on_c, 0, 63, 0
2, 3957, Note_on_c, 0, 56, 62
2, 4047, Note_on_c, 0, 56, 0
2, 4082, Note_on_c, 0, 63, 62
2, 4114, Control_c, 0, 64, 15
2, 4172, Control_c, 0, 64, 16
2, 4178, Note_on_c, 0, 63, 0
2, 4208, Note_on_c, 0, 71, 77
2, 4213, Control_c, 0, 64, 17
2, 4213, Note_on_c, 0, 56, 59
2, 4224, Note_on_c, 0, 68, 58
2, 4241, Note_on_c, 0, 71, 0
2, 4255, Note_on_c, 0, 68, 0
2, 4268, Control_c, 0, 64, 18
2, 4273, Note_on_c, 0, 56, 0
2, 4323, Note_on_c, 0, 63, 61
2, 4433, Note_on_c, 0, 63, 0
2, 4442, Control_c, 0, 64, 17
2, 4458, Note_on_c, 0, 51, 56
2, 4461, Control_c, 0, 64, 16
2, 4461, Note_on_c, 0, 71, 66
2, 4481, Note_on_c, 0, 68, 44
2, 4550, Note_on_c, 0, 51, 0
2, 4597, Control_c, 0, 64, 17
2, 4609, Note_on_c, 0, 63, 43
2, 4613, Control_c, 0, 64, 18
2, 4676, Note_on_c, 0, 63, 0
2, 4720, Note_on_c, 0, 68, 0
2, 4725, Note_on_c, 0, 51, 48
2, 4725, Note_on_c, 0, 70, 61
2, 4734, Note_on_c, 0, 67, 37
2, 4776, Note_on_c, 0, 71, 0
2, 4797, Note_on_c, 0, 51, 0
2, 4820, Note_on_c, 0, 67, 0
2, 4828, Note_on_c, 0, 63, 47
2, 4841, Note_on_c, 0, 70, 0
2, 4871, Note_on_c, 0, 63, 0
2, 4991, Note_on_c, 0, 68, 56
2, 5004, Note_on_c, 0, 63, 46
2, 5022, Note_on_c, 0, 59, 46
2, 5051, Note_on_c, 0, 56, 32
2, 5094, Note_on_c, 0, 70, 58
2, 5110, Note_on_c, 0, 68, 0
2, 5191, Note_on_c, 0, 70, 0
2, 5232, Note_on_c, 0, 71, 56
2, 5320, Note_on_c, 0, 63, 0
2, 5324, Note_on_c, 0, 71, 0
2, 5329, Note_on_c, 0, 59, 0
2, 5342, Note_on_c, 0, 73, 61
2, 5398, Note_on_c, 0, 56, 0
2, 5458, Note_on_c, 0, 75, 60
2, 5487, Note_on_c, 0, 73, 0
2, 5550, Note_on_c, 0, 75, 0
2, 5589, Note_on_c, 0, 71, 53
2, 5690, Note_on_c, 0, 71, 0
2, 5708, Note_on_c, 0, 70, 55
2, 5828, Note_on_c, 0, 68, 50
2, 5844, Note_on_c, 0, 70, 0
2, 5932, Note_on_c, 0, 68, 0
2, 5950, Note_on_c, 0, 56, 27
2, 5954, Note_on_c, 0, 61, 19
2, 5968, Note_on_c, 0, 67, 42
2, 5972, Note_on_c, 0, 58, 26
2, 6051, Note_on_c, 0, 67, 0
2, 6072, Note_on_c, 0, 68, 54
2, 6196, Note_on_c, 0, 61, 0
2, 6207, Note_on_c, 0, 56, 0
2, 6207, Note_on_c, 0, 70, 59
2, 6209, Note_on_c, 0, 68, 0
2, 6221, Note_on_c, 0, 58, 0
2, 6280, Note_on_c, 0, 70, 0
2, 6313, Note_on_c, 0, 64, 55
2, 6447, Note_on_c, 0, 63, 53
2, 6530, Note_on_c, 0, 64, 0
2, 6571, Note_on_c, 0, 61, 47
2, 6599, Note_on_c, 0, 63, 0
2, 6685, Note_on_c, 0, 59, 53
2, 6694, Note_on_c, 0, 61, 0
2, 6782, Note_on_c, 0, 59, 0
2, 6810, Note_on_c, 0, 58, 54
2, 6891, Note_on_c, 0, 58, 0
2, 6927, Note_on_c, 0, 56, 59
2, 6956, Control_c, 0, 64, 19
2, 6990, Note_on_c, 0, 56, 0
2, 7048, Note_on_c, 0, 63, 51
2, 7053, Control_c, 0, 64, 18
2, 7121, Note_on_c, 0, 63, 0
2, 7148, Control_c, 0, 64, 19
2, 7161, Note_on_c, 0, 80, 71
2, 7170, Note_on_c, 0, 56, 52
2, 7177, Note_on_c, 0, 71, 60
2, 7184, Control_c, 0, 64, 20
2, 7198, Note_on_c, 0, 80, 0
2, 7203, Note_on_c, 0, 71, 0
2, 7214, Note_on_c, 0, 56, 0
2, 7273, Note_on_c, 0, 63, 54
2, 7358, Note_on_c, 0, 63, 0
2, 7415, Note_on_c, 0, 80, 68
2, 7417, Note_on_c, 0, 55, 48
2, 7425, Note_on_c, 0, 71, 48
2, 7504, Note_on_c, 0, 55, 0
2, 7543, Note_on_c, 0, 63, 44
2, 7616, Note_on_c, 0, 63, 0
2, 7651, Note_on_c, 0, 82, 71
2, 7664, Note_on_c, 0, 73, 51
2, 7679, Note_on_c, 0, 55, 46
2, 7712, Note_on_c, 0, 71, 0
2, 7752, Note_on_c, 0, 55, 0
2, 7784, Note_on_c, 0, 80, 0
2, 7791, Note_on_c, 0, 63, 45
2, 7826, Note_on_c, 0, 73, 0
2, 7840, Note_on_c, 0, 82, 0
2, 7869, Note_on_c, 0, 63, 0
2, 7909, Note_on_c, 0, 56, 51
2, 7985, Note_on_c, 0, 56, 0
2, 8031, Note_on_c, 0, 63, 51
2, 8120, Note_on_c, 0, 63, 0
2, 8159, Note_on_c, 0, 56, 53
2, 8162, Note_on_c, 0, 80, 71
2, 8164, Control_c, 0, 64, 21
2, 8186, Note_on_c, 0, 71, 43
2, 8202, Note_on_c, 0, 80, 0
2, 8218, Note_on_c, 0, 56, 0
2, 8222, Note_on_c, 0, 71, 0
2, 8276, Note_on_c, 0, 63, 53
2, 8370, Note_on_c, 0, 63, 0
2, 8410, Note_on_c, 0, 51, 52
2, 8410, Note_on_c, 0, 80, 65
2, 8418, Note_on_c, 0, 71, 52
2, 8462, Note_on_c, 0, 71, 0
2, 8499, Note_on_c, 0, 51, 0
2, 8547, Note_on_c, 0, 63, 48
2, 8607, Control_c, 0, 64, 22
2, 8621, Note_on_c, 0, 63, 0
2, 8662, Note_on_c, 0, 79, 68
2, 8675, Note_on_c, 0, 51, 48
2, 8679, Note_on_c, 0, 70, 53
2, 8760, Control_c, 0, 64, 23
2, 8764, Note_on_c, 0, 80, 0
2, 8795, Note_on_c, 0, 63, 50
2, 8799, Note_on_c, 0, 51, 0
2, 8822, Note_on_c, 0, 79, 0
2, 8836, Note_on_c, 0, 70, 0
2, 8906, Note_on_c, 0, 63, 0
2, 8912, Note_on_c, 0, 56, 71
2, 8971, Control_c, 0, 64, 24
2, 9009, Control_c, 0, 64, 25
2, 9030, Note_on_c, 0, 63, 67
2, 9039, Note_on_c, 0, 56, 0
2, 9048, Control_c, 0, 64, 24
2, 9125, Control_c, 0, 64, 25
2, 9155, Note_on_c, 0, 68, 79
2, 9155, Note_on_c, 0, 71, 84
2, 9160, Note_on_c, 0, 56, 72
2, 9160, Note_on_c, 0, 63, 0
2, 9183, Control_c, 0, 64, 26
2, 9203, Control_c, 0, 64, 27
2, 9221, Control_c, 0, 64, 29
2, 9240, Control_c, 0, 64, 30
2, 9261, Note_on_c, 0, 70, 78
2, 9265, Note_on_c, 0, 71, 0
2, 9275, Note_on_c, 0, 63, 68
2, 9275, Note_on_c, 0, 67, 66
2, 9279, Note_on_c, 0, 68, 0
2, 9284, Note_on_c, 0, 56, 0
2, 9359, Note_on_c, 0, 67, 0
2, 9366, Note_on_c, 0, 71, 78
2, 9386, Note_on_c, 0, 68, 60
2, 9396, Note_on_c, 0, 63, 0
2, 9401, Note_on_c, 0, 54, 72
2, 9401, Note_on_c, 0, 70, 0
2, 9406, Note_on_c, 0, 71, 0
2, 9412, Note_on_c, 0, 68, 0
2, 9511, Control_c, 0, 64, 29
2, 9511, Note_on_c, 0, 54, 0
2, 9524, Note_on_c, 0, 63, 65
2, 9644, Note_on_c, 0, 63, 0
2, 9651, Note_on_c, 0, 80, 93
2, 9657, Note_on_c, 0, 54, 67
2, 9670, Note_on_c, 0, 71, 68
2, 9702, Control_c, 0, 64, 28
2, 9771, Note_on_c, 0, 54, 0
2, 9778, Note_on_c, 0, 63, 64
2, 9788, Note_on_c, 0, 71, 0
2, 9840, Note_on_c, 0, 80, 0
2, 9873, Note_on_c, 0, 63, 0
2, 9889, Note_on_c, 0, 53, 63
2, 9952, Control_c, 0, 64, 29
2, 9988, Note_on_c, 0, 53, 0
2, 10008, Control_c, 0, 64, 28
2, 10029, Control_c, 0, 64, 26
2, 10029, Note_on_c, 0, 61, 58
2, 10047, Control_c, 0, 64, 25
2, 10137, Note_on_c, 0, 61, 0
2, 10142, Control_c, 0, 64, 26
2, 10156, Note_on_c, 0, 53, 56
2, 10160, Note_on_c, 0, 71, 74
2, 10162, Control_c, 0, 64, 27
2, 10169, Note_on_c, 0, 68, 54
2, 10201, Control_c, 0, 64, 28
2, 10225, Note_on_c, 0, 53, 0
2, 10275, Note_on_c, 0, 68, 0
2, 10279, Note_on_c, 0, 71, 0
2, 10288, Note_on_c, 0, 61, 57
2, 10393, Note_on_c, 0, 61, 0
2, 10406, Note_on_c, 0, 49, 60
2, 10430, Control_c, 0, 64, 29
2, 10449, Control_c, 0, 64, 30
2, 10488, Control_c, 0, 64, 29
2, 10514, Note_on_c, 0, 49, 0
2, 10547, Note_on_c, 0, 61, 56
2, 10565, Control_c, 0, 64, 28
2, 10639, Note_on_c, 0, 61, 0
2, 10676, Note_on_c, 0, 70, 69
2, 10681, Note_on_c, 0, 49, 60
2, 10692, Note_on_c, 0, 65, 57
2, 10747, Note_on_c, 0, 49, 0
2, 10781, Note_on_c, 0, 68, 70
2, 10794, Note_on_c, 0, 61, 56
2, 10825, Note_on_c, 0, 65, 0
2, 10855, Note_on_c, 0, 70, 0
2, 10864, Note_on_c, 0, 68, 0
2, 10919, Note_on_c, 0, 61, 0
2, 10923, Note_on_c, 0, 54, 69
2, 10968, Control_c, 0, 64, 29
2, 11036, Note_on_c, 0, 54, 0
2, 11040, Note_on_c, 0, 61, 63
2, 11066, Control_c, 0, 64, 28
2, 11163, Note_on_c, 0, 70, 79
2, 11167, Note_on_c, 0, 61, 0
2, 11176, Note_on_c, 0, 54, 72
2, 11181, Note_on_c, 0, 66, 75
2, 11283, Note_on_c, 0, 54, 0
2, 11287, Note_on_c, 0, 61, 66
2, 11291, Note_on_c, 0, 68, 80
2, 11298, Note_on_c, 0, 66, 0
2, 11307, Note_on_c, 0, 70, 0
2, 11319, Note_on_c, 0, 65, 56
2, 11390, Control_c, 0, 64, 29
2, 11397, Note_on_c, 0, 61, 0
2, 11404, Note_on_c, 0, 70, 78
2, 11410, Note_on_c, 0, 53, 69
2, 11410, Note_on_c, 0, 66, 74
2, 11414, Note_on_c, 0, 65, 0
2, 11438, Note_on_c, 0, 68, 0
2, 11442, Note_on_c, 0, 66, 0
2, 11453, Note_on_c, 0, 70, 0
2, 11506, Note_on_c, 0, 53, 0
2, 11531, Note_on_c, 0, 61, 68
2, 11547, Control_c, 0, 64, 28
2, 11643, Note_on_c, 0, 61, 0
2, 11658, Control_c, 0, 64, 29
2, 11667, Note_on_c, 0, 53, 65
2, 11675, Note_on_c, 0, 78, 97
2, 11691, Note_on_c, 0, 70, 69
2, 11700, Control_c, 0, 64, 30
2, 11790, Note_on_c, 0, 61, 62
2, 11795, Note_on_c, 0, 70, 0
2, 11804, Note_on_c, 0, 53, 0
2, 11841, Note_on_c, 0, 78, 0
2, 11898, Note_on_c, 0, 61, 0
2, 11922, Note_on_c, 0, 51, 64
2, 11965, Control_c, 0, 64, 31
2, 12027, Note_on_c, 0, 51, 0
2, 12043, Control_c, 0, 64, 30
2, 12069, Note_on_c, 0, 59, 57
2, 12137, Note_on_c, 0, 59, 0
2, 12183, Note_on_c, 0, 70, 66
2, 12196, Note_on_c, 0, 51, 56
2, 12201, Note_on_c, 0, 66, 57
2, 12268, Note_on_c, 0, 51, 0
2, 12295, Note_on_c, 0, 66, 0
2, 12311, Note_on_c, 0, 59, 57
2, 12320, Note_on_c, 0, 70, 0
2, 12396, Note_on_c, 0, 59, 0
2, 12437, Note_on_c, 0, 47, 62
2, 12509, Note_on_c, 0, 47, 0
2, 12555, Note_on_c, 0, 59, 54
2, 12652, Note_on_c, 0, 59, 0
2, 12696, Note_on_c, 0, 47, 53
2, 12701, Note_on_c, 0, 68, 72
2, 12703, Note_on_c, 0, 63, 64
2, 12773, Note_on_c, 0, 47, 0
2, 12807, Control_c, 0, 64, 29
2, 12812, Note_on_c, 0, 59, 57
2, 12820, Note_on_c, 0, 66, 65
2, 12888, Note_on_c, 0, 63, 0
2, 12895, Note_on_c, 0, 68, 0
2, 12904, Note_on_c, 0, 66, 0
2, 12927, Note_on_c, 0, 59, 0
2, 12936, Note_on_c, 0, 53, 69
2, 13054, Note_on_c, 0, 53, 0
2, 13070, Note_on_c, 0, 59, 69
2, 13193, Note_on_c, 0, 68, 83
2, 13202, Note_on_c, 0, 53, 70
2, 13202, Note_on_c, 0, 59, 0
2, 13202, Note_on_c, 0, 62, 73
2, 13210, Control_c, 0, 64, 30
2, 13295, Note_on_c, 0, 62, 0
2, 13303, Note_on_c, 0, 53, 0
2, 13324, Note_on_c, 0, 63, 66
2, 13327, Note_on_c, 0, 59, 71
2, 13327, Note_on_c, 0, 66, 68
2, 13331, Note_on_c, 0, 68, 0
2, 13384, Control_c, 0, 64, 31
2, 13384, Note_on_c, 0, 63, 0
2, 13394, Note_on_c, 0, 66, 0
2, 13424, Control_c, 0, 64, 30
2, 13442, Note_on_c, 0, 68, 79
2, 13454, Note_on_c, 0, 51, 79
2, 13454, Note_on_c, 0, 59, 0
2, 13460, Note_on_c, 0, 65, 58
2, 13476, Note_on_c, 0, 68, 0
2, 13487, Note_on_c, 0, 65, 0
2, 13568, Note_on_c, 0, 51, 0
2, 13568, Note_on_c, 0, 59, 69
2, 13596, Control_c, 0, 64, 31
2, 13652, Control_c, 0, 64, 30
2, 13702, Note_on_c, 0, 51, 69
2, 13704, Note_on_c, 0, 59, 0
2, 13709, Note_on_c, 0, 77, 89
2, 13722, Note_on_c, 0, 68, 70
2, 13816, Note_on_c, 0, 51, 0
2, 13841, Note_on_c, 0, 59, 68
2, 13841, Note_on_c, 0, 68, 0
2, 13874, Note_on_c, 0, 77, 0
2, 13904, Control_c, 0, 64, 31
2, 13940, Note_on_c, 0, 59, 0
2, 13966, Note_on_c, 0, 50, 59
2, 14051, Note_on_c, 0, 50, 0
2, 14093, Control_c, 0, 64, 30
2, 14098, Note_on_c, 0, 58, 60
2, 14206, Note_on_c, 0, 58, 0
2, 14227, Note_on_c, 0, 50, 53
2, 14227, Note_on_c, 0, 68, 67
2, 14246, Note_on_c, 0, 65, 48
2, 14365, Note_on_c, 0, 58, 59
2, 14383, Note_on_c, 0, 65, 0
2, 14430, Note_on_c, 0, 68, 0
2, 14436, Note_on_c, 0, 50, 0
2, 14462, Control_c, 0, 64, 31
2, 14462, Note_on_c, 0, 58, 0
2, 14480, Note_on_c, 0, 46, 60
2, 14592, Note_on_c, 0, 46, 0
2, 14623, Note_on_c, 0, 58, 57
2, 14634, Control_c, 0, 64, 30
2, 14700, Note_on_c, 0, 58, 0
2, 14711, Control_c, 0, 64, 31
2, 14727, Control_c, 0, 64, 32
2, 14741, Note_on_c, 0, 66, 66
2, 14752, Note_on_c, 0, 46, 50
2, 14762, Note_on_c, 0, 62, 54
2, 14811, Note_on_c, 0, 46, 0
2, 14833, Note_on_c, 0, 62, 0
2, 14850, Note_on_c, 0, 58, 62
2, 14854, Note_on_c, 0, 66, 0
2, 14865, Note_on_c, 0, 65, 58
2, 14883, Control_c, 0, 64, 31
2, 14987, Note_on_c, 0, 58, 0
2, 15000, Note_on_c, 0, 51, 67
2, 15000, Note_on_c, 0, 66, 71
2, 15021, Note_on_c, 0, 63, 47
2, 15040, Note_on_c, 0, 65, 0
2, 15121, Note_on_c, 0, 54, 65
2, 15132, Control_c, 0, 64, 30
2, 15212, Note_on_c, 0, 51, 0
2, 15238, Note_on_c, 0, 56, 73
2, 15241, Note_on_c, 0, 63, 0
2, 15267, Control_c, 0, 64, 31
2, 15273, Note_on_c, 0, 66, 0
2, 15309, Note_on_c, 0, 54, 0
2, 15375, Note_on_c, 0, 58, 74
2, 15419, Control_c, 0, 64, 30
2, 15444, Note_on_c, 0, 56, 0
2, 15487, Note_on_c, 0, 59, 81
2, 15522, Note_on_c, 0, 58, 0
2, 15531, Note_on_c, 0, 59, 0
2, 15612, Control_c, 0, 64, 29
2, 15633, Control_c, 0, 64, 28
2, 15633, Note_on_c, 0, 70, 65
2, 15709, Control_c, 0, 64, 29
2, 15768, Note_on_c, 0, 51, 60
2, 15773, Note_on_c, 0, 68, 64
2, 15786, Control_c, 0, 64, 30
2, 15786, Note_on_c, 0, 70, 0
2, 15805, Note_on_c, 0, 51, 0
2, 15881, Control_c, 0, 64, 29
2, 15893, Note_on_c, 0, 66, 63
2, 15904, Note_on_c, 0, 68, 0
2, 16006, Note_on_c, 0, 66, 0
2, 16019, Note_on_c, 0, 65, 56
2, 16030, Note_on_c, 0, 50, 63
2, 16074, Control_c, 0, 64, 30
2, 16074, Note_on_c, 0, 50, 0
2, 16125, Note_on_c, 0, 65, 0
2, 16136, Note_on_c, 0, 63, 61
2, 16235, Note_on_c, 0, 63, 0
2, 16276, Note_on_c, 0, 65, 61
2, 16281, Note_on_c, 0, 59, 71
2, 16321, Note_on_c, 0, 59, 0
2, 16359, Control_c, 0, 64, 29
2, 16396, Note_on_c, 0, 65, 0
2, 16396, Note_on_c, 0, 68, 71
2, 16540, Note_on_c, 0, 58, 67
2, 16540, Note_on_c, 0, 67, 68
2, 16575, Note_on_c, 0, 58, 0
2, 16575, Note_on_c, 0, 68, 0
2, 16647, Note_on_c, 0, 67, 0
2, 16663, Note_on_c, 0, 65, 65
2, 16783, Note_on_c, 0, 49, 59
2, 16790, Note_on_c, 0, 67, 67
2, 16806, Note_on_c, 0, 65, 0
2, 16836, Note_on_c, 0, 49, 0
2, 16919, Note_on_c, 0, 70, 66
2, 16954, Note_on_c, 0, 67, 0
2, 16959, Control_c, 0, 64, 28
2, 16969, Note_on_c, 0, 70, 0
2, 17049, Note_on_c, 0, 70, 74
2, 17063, Note_on_c, 0, 48, 53
2, 17090, Control_c, 0, 64, 29
2, 17153, Note_on_c, 0, 48, 0
2, 17164, Note_on_c, 0, 51, 60
2, 17310, Note_on_c, 0, 53, 59
2, 17326, Note_on_c, 0, 68, 69
2, 17356, Note_on_c, 0, 51, 0
2, 17406, Note_on_c, 0, 53, 0
2, 17432, Note_on_c, 0, 55, 59
2, 17439, Note_on_c, 0, 70, 0
2, 17511, Note_on_c, 0, 68, 0
2, 17566, Note_on_c, 0, 56, 70
2, 17575, Note_on_c, 0, 55, 0
2, 17612, Note_on_c, 0, 56, 0
2, 17684, Note_on_c, 0, 66, 63
2, 17781, Control_c, 0, 64, 28
2, 17810, Note_on_c, 0, 66, 0
2, 17823, Note_on_c, 0, 47, 69
2, 17830, Note_on_c, 0, 64, 67
2, 17858, Control_c, 0, 64, 29
2, 17871, Note_on_c, 0, 47, 0
2, 17949, Note_on_c, 0, 64, 0
2, 17956, Note_on_c, 0, 63, 66
2, 17976, Control_c, 0, 64, 28
2, 18051, Control_c, 0, 64, 29
2, 18082, Note_on_c, 0, 61, 54
2, 18093, Note_on_c, 0, 46, 68
2, 18106, Note_on_c, 0, 63, 0
2, 18139, Note_on_c, 0, 46, 0
2, 18195, Note_on_c, 0, 61, 0
2, 18223, Control_c, 0, 64, 28
2, 18231, Note_on_c, 0, 60, 54
2, 18335, Note_on_c, 0, 60, 0
2, 18337, Control_c, 0, 64, 29
2, 18346, Note_on_c, 0, 61, 57
2, 18353, Note_on_c, 0, 55, 69
2, 18393, Note_on_c, 0, 55, 0
2, 18459, Note_on_c, 0, 64, 67
2, 18463, Note_on_c, 0, 61, 0
2, 18472, Control_c, 0, 64, 28
2, 18577, Note_on_c, 0, 64, 0
2, 18580, Note_on_c, 0, 63, 68
2, 18604, Note_on_c, 0, 54, 70
2, 18647, Control_c, 0, 64, 29
2, 18647, Note_on_c, 0, 54, 0
2, 18682, Note_on_c, 0, 63, 0
2, 18698, Note_on_c, 0, 61, 64
2, 18720, Control_c, 0, 64, 28
2, 18845, Note_on_c, 0, 63, 68
2, 18852, Note_on_c, 0, 45, 64
2, 18852, Note_on_c, 0, 61, 0
2, 18874, Control_c, 0, 64, 29
2, 18895, Note_on_c, 0, 45, 0
2, 18956, Note_on_c, 0, 66, 73
2, 18976, Note_on_c, 0, 63, 0
2, 19005, Note_on_c, 0, 66, 0
2, 19093, Note_on_c, 0, 66, 65
2, 19097, Note_on_c, 0, 44, 64
2, 19200, Note_on_c, 0, 48, 58
2, 19249, Note_on_c, 0, 44, 0
2, 19342, Note_on_c, 0, 49, 59
2, 19346, Note_on_c, 0, 48, 0
2, 19351, Note_on_c, 0, 64, 67
2, 19472, Note_on_c, 0, 51, 68
2, 19480, Note_on_c, 0, 66, 0
2, 19497, Note_on_c, 0, 64, 0
2, 19505, Note_on_c, 0, 49, 0
2, 19608, Note_on_c, 0, 52, 71
2, 19617, Note_on_c, 0, 51, 0
2, 19650, Note_on_c, 0, 52, 0
2, 19715, Note_on_c, 0, 63, 61
2, 19847, Note_on_c, 0, 61, 58
2, 19861, Note_on_c, 0, 44, 69
2, 19868, Note_on_c, 0, 63, 0
2, 19902, Note_on_c, 0, 44, 0
2, 19954, Note_on_c, 0, 61, 0
2, 19981, Note_on_c, 0, 59, 54
2, 20072, Note_on_c, 0, 59, 0
2, 20103, Note_on_c, 0, 58, 60
2, 20109, Note_on_c, 0, 43, 67
2, 20151, Note_on_c, 0, 43, 0
2, 20164, Control_c, 0, 64, 30
2, 20203, Note_on_c, 0, 58, 0
2, 20235, Note_on_c, 0, 56, 63
2, 20361, Note_on_c, 0, 56, 0
2, 20363, Note_on_c, 0, 52, 69
2, 20374, Note_on_c, 0, 58, 53
2, 20407, Note_on_c, 0, 52, 0
2, 20470, Note_on_c, 0, 58, 0
2, 20470, Note_on_c, 0, 61, 54
2, 20546, Control_c, 0, 64, 29
2, 20614, Note_on_c, 0, 51, 67
2, 20619, Note_on_c, 0, 61, 0
2, 20626, Note_on_c, 0, 60, 60
2, 20654, Note_on_c, 0, 51, 0
2, 20715, Note_on_c, 0, 60, 0
2, 20731, Note_on_c, 0, 58, 65
2, 20857, Note_on_c, 0, 58, 0
2, 20867, Note_on_c, 0, 42, 61
2, 20871, Note_on_c, 0, 60, 56
2, 20893, Control_c, 0, 64, 30
2, 20913, Note_on_c, 0, 42, 0
2, 20950, Note_on_c, 0, 60, 0
2, 20977, Note_on_c, 0, 63, 60
2, 21045, Control_c, 0, 64, 29
2, 21124, Note_on_c, 0, 41, 67
2, 21124, Note_on_c, 0, 56, 58
2, 21127, Note_on_c, 0, 63, 0
2, 21164, Note_on_c, 0, 41, 0
2, 21203, Note_on_c, 0, 56, 0
2, 21235, Note_on_c, 0, 55, 50
2, 21348, Note_on_c, 0, 55, 0
2, 21371, Note_on_c, 0, 56, 55
2, 21380, Note_on_c, 0, 50, 63
2, 21427, Note_on_c, 0, 50, 0
2, 21447, Control_c, 0, 64, 30
2, 21472, Note_on_c, 0, 56, 0
2, 21485, Note_on_c, 0, 59, 61
2, 21618, Note_on_c, 0, 59, 0
2, 21627, Note_on_c, 0, 49, 61
2, 21627, Note_on_c, 0, 58, 57
2, 21661, Note_on_c, 0, 49, 0
2, 21714, Note_on_c, 0, 58, 0
2, 21749, Note_on_c, 0, 56, 59
2, 21874, Note_on_c, 0, 56, 0
2, 21887, Note_on_c, 0, 58, 57
2, 21895, Note_on_c, 0, 40, 58
2, 21936, Note_on_c, 0, 40, 0
2, 22003, Note_on_c, 0, 61, 49
2, 22040, Note_on_c, 0, 58, 0
2, 22114, Note_on_c, 0, 61, 0
2, 22154, Note_on_c, 0, 39, 61
2, 22161, Note_on_c, 0, 55, 60
2, 22200, Note_on_c, 0, 39, 0
2, 22235, Note_on_c, 0, 55, 0
2, 22257, Control_c, 0, 64, 29
2, 22287, Note_on_c, 0, 64, 64
2, 22401, Note_on_c, 0, 64, 0
2, 22420, Note_on_c, 0, 41, 64
2, 22424, Note_on_c, 0, 63, 59
2, 22459, Note_on_c, 0, 41, 0
2, 22518, Note_on_c, 0, 63, 0
2, 22540, Note_on_c, 0, 61, 62
2, 22666, Note_on_c, 0, 43, 66
2, 22672, Note_on_c, 0, 70, 70
2, 22677, Note_on_c, 0, 61, 0
2, 22716, Note_on_c, 0, 43, 0
2, 22799, Note_on_c, 0, 61, 61
2, 22804, Note_on_c, 0, 70, 0
2, 22920, Note_on_c, 0, 61, 0
2, 22925, Note_on_c, 0, 39, 62
2, 22933, Note_on_c, 0, 70, 70
2, 22967, Note_on_c, 0, 39, 0
2, 23043, Note_on_c, 0, 61, 57
2, 23101, Note_on_c, 0, 70, 0
2, 23134, Note_on_c, 0, 61, 0
2, 23184, Note_on_c, 0, 60, 67
2, 23193, Note_on_c, 0, 44, 71
2, 23233, Control_c, 0, 64, 30
2, 23238, Note_on_c, 0, 44, 0
2, 23299, Note_on_c, 0, 69, 65
2, 23308, Note_on_c, 0, 60, 0
2, 23445, Note_on_c, 0, 46, 78
2, 23449, Note_on_c, 0, 68, 79
2, 23456, Note_on_c, 0, 69, 0
2, 23488, Note_on_c, 0, 46, 0
2, 23562, Note_on_c, 0, 66, 75
2, 23582, Note_on_c, 0, 68, 0
2, 23694, Note_on_c, 0, 75, 84
2, 23702, Note_on_c, 0, 48, 77
2, 23710, Note_on_c, 0, 66, 0
2, 23750, Note_on_c, 0, 48, 0
2, 23821, Note_on_c, 0, 66, 76
2, 23843, Note_on_c, 0, 75, 0
2, 23867, Control_c, 0, 64, 29
2, 23944, Control_c, 0, 64, 30
2, 23946, Note_on_c, 0, 66, 0
2, 23955, Note_on_c, 0, 75, 74
2, 23963, Note_on_c, 0, 44, 69
2, 24012, Note_on_c, 0, 44, 0
2, 24065, Note_on_c, 0, 66, 70
2, 24122, Note_on_c, 0, 75, 0
2, 24190, Note_on_c, 0, 66, 0
2, 24213, Note_on_c, 0, 49, 77
2, 24213, Note_on_c, 0, 65, 70
2, 24274, Note_on_c, 0, 49, 0
2, 24331, Note_on_c, 0, 65, 0
2, 24343, Note_on_c, 0, 62, 74
2, 24472, Note_on_c, 0, 51, 82
2, 24472, Note_on_c, 0, 61, 71
2, 24483, Note_on_c, 0, 62, 0
2, 24534, Note_on_c, 0, 51, 0
2, 24579, Note_on_c, 0, 61, 0
2, 24603, Note_on_c, 0, 59, 70
2, 24727, Note_on_c, 0, 68, 81
2, 24737, Note_on_c, 0, 53, 82
2, 24737, Note_on_c, 0, 59, 0
2, 24796, Note_on_c, 0, 53, 0
2, 24861, Note_on_c, 0, 59, 72
2, 24866, Note_on_c, 0, 68, 0
2, 24992, Note_on_c, 0, 59, 0
2, 24997, Note_on_c, 0, 68, 73
2, 24999, Note_on_c, 0, 49, 73
2, 25043, Note_on_c, 0, 49, 0
2, 25123, Note_on_c, 0, 59, 69
2, 25124, Note_on_c, 0, 68, 0
2, 25257, Note_on_c, 0, 54, 78
2, 25257, Note_on_c, 0, 58, 79
2, 25266, Note_on_c, 0, 59, 0
2, 25321, Note_on_c, 0, 54, 0
2, 25325, Note_on_c, 0, 58, 0
2, 25368, Note_on_c, 0, 67, 74
2, 25498, Note_on_c, 0, 66, 73
2, 25511, Note_on_c, 0, 56, 80
2, 25524, Note_on_c, 0, 67, 0
2, 25582, Note_on_c, 0, 56, 0
2, 25595, Note_on_c, 0, 66, 0
2, 25628, Note_on_c, 0, 64, 77
2, 25765, Note_on_c, 0, 73, 81
2, 25777, Note_on_c, 0, 58, 89
2, 25790, Note_on_c, 0, 64, 0
2, 25840, Note_on_c, 0, 58, 0
2, 25904, Note_on_c, 0, 64, 74
2, 25913, Note_on_c, 0, 73, 0
2, 26025, Note_on_c, 0, 73, 76
2, 26032, Note_on_c, 0, 64, 0
2, 26037, Note_on_c, 0, 54, 77
2, 26090, Note_on_c, 0, 54, 0
2, 26152, Note_on_c, 0, 73, 0
2, 26160, Note_on_c, 0, 64, 68
2, 26283, Note_on_c, 0, 64, 0
2, 26291, Note_on_c, 0, 59, 83
2, 26291, Note_on_c, 0, 63, 72
2, 26344, Control_c, 0, 64, 31
2, 26353, Note_on_c, 0, 59, 0
2, 26364, Note_on_c, 0, 63, 0
2, 26428, Note_on_c, 0, 66, 76
2, 26497, Control_c, 0, 64, 32
2, 26537, Note_on_c, 0, 68, 77
2, 26548, Note_on_c, 0, 66, 0
2, 26555, Note_on_c, 0, 58, 84
2, 26621, Note_on_c, 0, 58, 0
2, 26658, Note_on_c, 0, 70, 80
2, 26705, Note_on_c, 0, 68, 0
2, 26797, Note_on_c, 0, 71, 86
2, 26804, Note_on_c, 0, 56, 86
2, 26837, Note_on_c, 0, 70, 0
2, 26872, Note_on_c, 0, 56, 0
2, 26900, Control_c, 0, 64, 31
2, 26918, Note_on_c, 0, 66, 78
2, 26997, Note_on_c, 0, 71, 0
2, 27054, Control_c, 0, 64, 32
2, 27054, Note_on_c, 0, 66, 0
2, 27058, Note_on_c, 0, 65, 74
2, 27064, Note_on_c, 0, 54, 77
2, 27111, Note_on_c, 0, 54, 0
2, 27176, Note_on_c, 0, 65, 0
2, 27190, Note_on_c, 0, 63, 70
2, 27293, Note_on_c, 0, 63, 0
2, 27335, Note_on_c, 0, 62, 72
2, 27342, Note_on_c, 0, 53, 81
2, 27380, Note_on_c, 0, 53, 0
2, 27455, Note_on_c, 0, 62, 0
2, 27457, Control_c, 0, 64, 33
2, 27462, Note_on_c, 0, 71, 80
2, 27587, Note_on_c, 0, 56, 80
2, 27592, Control_c, 0, 64, 34
2, 27600, Note_on_c, 0, 70, 79
2, 27613, Control_c, 0, 64, 35
2, 27613, Note_on_c, 0, 71, 0
2, 27650, Control_c, 0, 64, 36
2, 27650, Note_on_c, 0, 56, 0
2, 27722, Note_on_c, 0, 68, 90
2, 27729, Note_on_c, 0, 70, 0
2, 27785, Control_c, 0, 64, 35
2, 27842, Note_on_c, 0, 50, 72
2, 27844, Note_on_c, 0, 77, 90
2, 27873, Note_on_c, 0, 68, 0
2, 27915, Note_on_c, 0, 50, 0
2, 27973, Note_on_c, 0, 68, 85
2, 28008, Note_on_c, 0, 77, 0
2, 28091, Control_c, 0, 64, 36
2, 28111, Control_c, 0, 64, 37
2, 28111, Note_on_c, 0, 46, 61
2, 28111, Note_on_c, 0, 77, 83
2, 28125, Note_on_c, 0, 68, 0
2, 28149, Control_c, 0, 64, 38
2, 28161, Note_on_c, 0, 46, 0
2, 28207, Control_c, 0, 64, 37
2, 28218, Note_on_c, 0, 77, 0
2, 28236, Note_on_c, 0, 68, 73
2, 28263, Control_c, 0, 64, 36
2, 28325, Note_on_c, 0, 68, 0
2, 28366, Note_on_c, 0, 66, 69
2, 28373, Note_on_c, 0, 51, 72
2, 28437, Control_c, 0, 64, 37
2, 28437, Note_on_c, 0, 51, 0
2, 28494, Note_on_c, 0, 70, 73
2, 28524, Note_on_c, 0, 66, 0
2, 28625, Note_on_c, 0, 49, 77
2, 28629, Note_on_c, 0, 75, 79
2, 28675, Note_on_c, 0, 70, 0
2, 28696, Note_on_c, 0, 49, 0
2, 28742, Note_on_c, 0, 77, 79
2, 28840, Control_c, 0, 64, 36
2, 28881, Note_on_c, 0, 48, 83
2, 28881, Note_on_c, 0, 78, 95
2, 28893, Note_on_c, 0, 75, 0
2, 28916, Control_c, 0, 64, 37
2, 28925, Note_on_c, 0, 77, 0
2, 28942, Note_on_c, 0, 48, 0
2, 29010, Note_on_c, 0, 75, 77
2, 29051, Control_c, 0, 64, 38
2, 29128, Note_on_c, 0, 78, 0
2, 29130, Control_c, 0, 64, 39
2, 29135, Note_on_c, 0, 75, 0
2, 29146, Note_on_c, 0, 46, 66
2, 29146, Note_on_c, 0, 72, 76
2, 29166, Control_c, 0, 64, 40
2, 29187, Control_c, 0, 64, 41
2, 29195, Note_on_c, 0, 46, 0
2, 29243, Control_c, 0, 64, 40
2, 29255, Note_on_c, 0, 72, 0
2, 29275, Note_on_c, 0, 75, 69
2, 29342, Control_c, 0, 64, 39
2, 29359, Note_on_c, 0, 75, 0
2, 29400, Note_on_c, 0, 48, 76
2, 29400, Note_on_c, 0, 69, 70
2, 29443, Note_on_c, 0, 48, 0
2, 29505, Note_on_c, 0, 69, 0
2, 29519, Note_on_c, 0, 78, 77
2, 29654, Note_on_c, 0, 51, 82
2, 29654, Note_on_c, 0, 77, 87
2, 29688, Control_c, 0, 64, 40
2, 29693, Note_on_c, 0, 78, 0
2, 29721, Note_on_c, 0, 51, 0
2, 29766, Note_on_c, 0, 75, 86
2, 29785, Note_on_c, 0, 77, 0
2, 29907, Note_on_c, 0, 45, 70
2, 29907, Note_on_c, 0, 84, 88
2, 29921, Note_on_c, 0, 75, 0
2, 29990, Note_on_c, 0, 45, 0
2, 30029, Control_c, 0, 64, 41
2, 30044, Note_on_c, 0, 75, 82
2, 30071, Control_c, 0, 64, 40
2, 30089, Note_on_c, 0, 84, 0
2, 30109, Control_c, 0, 64, 39
2, 30126, Control_c, 0, 64, 38
2, 30166, Note_on_c, 0, 41, 67
2, 30170, Note_on_c, 0, 84, 84
2, 30195, Note_on_c, 0, 75, 0
2, 30202, Control_c, 0, 64, 39
2, 30244, Note_on_c, 0, 41, 0
2, 30299, Note_on_c, 0, 75, 78
2, 30347, Note_on_c, 0, 84, 0
2, 30449, Note_on_c, 0, 74, 78
2, 30455, Note_on_c, 0, 46, 80
2, 30455, Note_on_c, 0, 75, 0
2, 30572, Note_on_c, 0, 75, 82
2, 30587, Control_c, 0, 64, 40
2, 30605, Control_c, 0, 64, 41
2, 30616, Note_on_c, 0, 74, 0
2, 30624, Control_c, 0, 64, 43
2, 30647, Control_c, 0, 64, 44
2, 30701, Control_c, 0, 64, 45
2, 30708, Note_on_c, 0, 77, 79
2, 30725, Note_on_c, 0, 46, 0
2, 30759, Note_on_c, 0, 75, 0
2, 30764, Control_c, 0, 64, 44
2, 30779, Control_c, 0, 64, 43
2, 30798, Control_c, 0, 64, 44
2, 30817, Control_c, 0, 64, 46
2, 30839, Control_c, 0, 64, 49
2, 30843, Note_on_c, 0, 82, 80
2, 30876, Note_on_c, 0, 77, 0
2, 30963, Note_on_c, 0, 70, 74
2, 30971, Control_c, 0, 64, 48
2, 30989, Control_c, 0, 64, 47
2, 31080, Note_on_c, 0, 68, 72
2, 31080, Note_on_c, 0, 82, 0
2, 31104, Control_c, 0, 64, 48
2, 31104, Note_on_c, 0, 70, 0
2, 31163, Control_c, 0, 64, 47
2, 31215, Note_on_c, 0, 66, 57
2, 31231, Note_on_c, 0, 68, 0
2, 31240, Control_c, 0, 64, 46
2, 31277, Control_c, 0, 64, 45
2, 31334, Note_on_c, 0, 66, 0
2, 31354, Note_on_c, 0, 65, 53
2, 31413, Control_c, 0, 64, 44
2, 31471, Note_on_c, 0, 65, 0
2, 31486, Note_on_c, 0, 63, 65
2, 31509, Control_c, 0, 64, 43
2, 31611, Note_on_c, 0, 63, 0
2, 31618, Note_on_c, 0, 74, 57
2, 31620, Note_on_c, 0, 65, 57
2, 31717, Note_on_c, 0, 74, 0
2, 31726, Note_on_c, 0, 75, 64
2, 31735, Note_on_c, 0, 65, 0
2, 31735, Note_on_c, 0, 66, 66
2, 31778, Control_c, 0, 64, 44
2, 31822, Note_on_c, 0, 75, 0
2, 31845, Note_on_c, 0, 68, 69
2, 31845, Note_on_c, 0, 77, 58
2, 31855, Note_on_c, 0, 66, 0
2, 31938, Note_on_c, 0, 77, 0
2, 31948, Note_on_c, 0, 78, 66
2, 31952, Note_on_c, 0, 68, 0
2, 31969, Note_on_c, 0, 70, 64
2, 32038, Note_on_c, 0, 77, 65
2, 32057, Note_on_c, 0, 78, 0
2, 32085, Note_on_c, 0, 70, 0
2, 32098, Note_on_c, 0, 66, 65
2, 32100, Note_on_c, 0, 77, 0
2, 32107, Note_on_c, 0, 75, 68
2, 32142, Note_on_c, 0, 75, 0
2, 32183, Note_on_c, 0, 66, 0
2, 32203, Note_on_c, 0, 65, 58
2, 32240, Control_c, 0, 64, 45
2, 32244, Note_on_c, 0, 83, 74
2, 32256, Note_on_c, 0, 80, 60
2, 32281, Note_on_c, 0, 83, 0
2, 32294, Note_on_c, 0, 80, 0
2, 32311, Note_on_c, 0, 65, 0
2, 32341, Note_on_c, 0, 63, 60
2, 32394, Control_c, 0, 64, 44
2, 32463, Note_on_c, 0, 63, 0
2, 32478, Note_on_c, 0, 62, 56
2, 32497, Note_on_c, 0, 83, 58
2, 32501, Note_on_c, 0, 80, 63
2, 32614, Note_on_c, 0, 62, 0
2, 32625, Note_on_c, 0, 63, 55
2, 32681, Control_c, 0, 64, 45
2, 32707, Note_on_c, 0, 63, 0
2, 32751, Note_on_c, 0, 65, 50
2, 32761, Note_on_c, 0, 80, 0
2, 32761, Note_on_c, 0, 82, 65
2, 32769, Note_on_c, 0, 74, 54
2, 32815, Control_c, 0, 64, 46
2, 32854, Note_on_c, 0, 83, 0
2, 32856, Note_on_c, 0, 65, 0
2, 32874, Note_on_c, 0, 59, 60
2, 32894, Control_c, 0, 64, 47
2, 33009, Note_on_c, 0, 59, 0
2, 33011, Note_on_c, 0, 58, 66
2, 33043, Note_on_c, 0, 74, 0
2, 33082, Note_on_c, 0, 58, 0
2, 33123, Control_c, 0, 64, 48
2, 33131, Note_on_c, 0, 56, 68
2, 33138, Note_on_c, 0, 82, 0
2, 33161, Control_c, 0, 64, 47
2, 33248, Note_on_c, 0, 54, 60
2, 33248, Note_on_c, 0, 56, 0
2, 33363, Note_on_c, 0, 53, 58
2, 33370, Note_on_c, 0, 54, 0
2, 33410, Control_c, 0, 64, 46
2, 33492, Note_on_c, 0, 53, 0
2, 33501, Note_on_c, 0, 51, 62
2, 33574, Note_on_c, 0, 51, 0
2, 33622, Note_on_c, 0, 58, 55
2, 33641, Control_c, 0, 64, 45
2, 33697, Note_on_c, 0, 58, 0
2, 33731, Note_on_c, 0, 51, 61
2, 33735, Control_c, 0, 64, 46
2, 33746, Note_on_c, 0, 78, 72
2, 33755, Note_on_c, 0, 75, 60
2, 33778, Note_on_c, 0, 78, 0
2, 33790, Note_on_c, 0, 75, 0
2, 33799, Note_on_c, 0, 51, 0
2, 33812, Control_c, 0, 64, 47
2, 33852, Note_on_c, 0, 58, 56
2, 33869, Control_c, 0, 64, 46
2, 33962, Note_on_c, 0, 58, 0
2, 34004, Note_on_c, 0, 50, 50
2, 34012, Note_on_c, 0, 78, 69
2, 34022, Note_on_c, 0, 75, 50
2, 34105, Note_on_c, 0, 50, 0
2, 34145, Note_on_c, 0, 58, 49
2, 34237, Note_on_c, 0, 58, 0
2, 34286, Note_on_c, 0, 50, 53
2, 34286, Note_on_c, 0, 80, 65
2, 34295, Note_on_c, 0, 77, 47
2, 34360, Note_on_c, 0, 75, 0
2, 34375, Note_on_c, 0, 50, 0
2, 34393, Note_on_c, 0, 77, 0
2, 34403, Note_on_c, 0, 78, 0
2, 34410, Note_on_c, 0, 58, 54
2, 34421, Note_on_c, 0, 80, 0
2, 34513, Note_on_c, 0, 58, 0
2, 34539, Note_on_c, 0, 51, 57
2, 34610, Note_on_c, 0, 51, 0
2, 34676, Note_on_c, 0, 58, 55
2, 34750, Note_on_c, 0, 58, 0
2, 34775, Note_on_c, 0, 51, 53
2, 34781, Note_on_c, 0, 78, 74
2, 34801, Note_on_c, 0, 75, 53
2, 34820, Note_on_c, 0, 78, 0
2, 34831, Note_on_c, 0, 75, 0
2, 34851, Note_on_c, 0, 51, 0
2, 34871, Control_c, 0, 64, 47
2, 34917, Note_on_c, 0, 58, 48
2, 34946, Control_c, 0, 64, 46
2, 34977, Note_on_c, 0, 58, 0
2, 35018, Note_on_c, 0, 78, 65
2, 35027, Note_on_c, 0, 46, 48
2, 35040, Note_on_c, 0, 75, 38
2, 35124, Note_on_c, 0, 46, 0
2, 35161, Note_on_c, 0, 56, 52
2, 35214, Note_on_c, 0, 56, 0
2, 35288, Note_on_c, 0, 46, 45
2, 35292, Note_on_c, 0, 75, 0
2, 35299, Note_on_c, 0, 77, 67
2, 35310, Note_on_c, 0, 74, 43
2, 35400, Note_on_c, 0, 78, 0
2, 35419, Note_on_c, 0, 56, 48
2, 35449, Note_on_c, 0, 74, 0
2, 35478, Note_on_c, 0, 46, 0
2, 35478, Note_on_c, 0, 77, 0
2, 35503, Control_c, 0, 64, 45
2, 35516, Note_on_c, 0, 56, 0
2, 35547, Note_on_c, 0, 47, 59
2, 35639, Note_on_c, 0, 47, 0
2, 35694, Note_on_c, 0, 54, 46
2, 35758, Note_on_c, 0, 54, 0
2, 35804, Note_on_c, 0, 47, 54
2, 35810, Note_on_c, 0, 75, 70
2, 35838, Note_on_c, 0, 75, 0
2, 35847, Control_c, 0, 64, 46
2, 35928, Note_on_c, 0, 54, 48
2, 35983, Control_c, 0, 64, 45
2, 36023, Note_on_c, 0, 54, 0
2, 36053, Note_on_c, 0, 75, 64
2, 36068, Note_on_c, 0, 46, 48
2, 36104, Note_on_c, 0, 75, 0
2, 36120, Note_on_c, 0, 76, 78
2, 36124, Note_on_c, 0, 47, 0
2, 36151, Note_on_c, 0, 46, 0
2, 36174, Note_on_c, 0, 76, 0
2, 36182, Note_on_c, 0, 54, 53
2, 36182, Note_on_c, 0, 75, 64
2, 36235, Note_on_c, 0, 75, 0
2, 36253, Note_on_c, 0, 74, 66
2, 36287, Note_on_c, 0, 54, 0
2, 36312, Note_on_c, 0, 75, 65
2, 36316, Note_on_c, 0, 46, 49
2, 36399, Note_on_c, 0, 74, 0
2, 36455, Note_on_c, 0, 46, 0
2, 36455, Note_on_c, 0, 54, 52
2, 36510, Note_on_c, 0, 75, 0
2, 36575, Note_on_c, 0, 54, 0
2, 36600, Note_on_c, 0, 47, 57
2, 36635, Control_c, 0, 64, 46
2, 36666, Note_on_c, 0, 47, 0
2, 36745, Note_on_c, 0, 54, 47
2, 36826, Note_on_c, 0, 54, 0
2, 36860, Note_on_c, 0, 47, 52
2, 36860, Note_on_c, 0, 75, 74
2, 36904, Note_on_c, 0, 75, 0
2, 36927, Note_on_c, 0, 47, 0
2, 36981, Note_on_c, 0, 54, 56
2, 37060, Note_on_c, 0, 54, 0
2, 37125, Note_on_c, 0, 73, 75
2, 37129, Note_on_c, 0, 43, 54
2, 37211, Note_on_c, 0, 43, 0
2, 37240, Note_on_c, 0, 52, 59
2, 37248, Note_on_c, 0, 73, 0
2, 37256, Note_on_c, 0, 71, 70
2, 37360, Note_on_c, 0, 52, 0
2, 37382, Note_on_c, 0, 43, 59
2, 37382, Note_on_c, 0, 73, 80
2, 37403, Note_on_c, 0, 71, 0
2, 37474, Note_on_c, 0, 43, 0
2, 37505, Note_on_c, 0, 52, 60
2, 37506, Note_on_c, 0, 82, 76
2, 37544, Note_on_c, 0, 73, 0
2, 37604, Note_on_c, 0, 52, 0
2, 37614, Control_c, 0, 64, 47
2, 37645, Note_on_c, 0, 44, 67
2, 37645, Note_on_c, 0, 71, 86
2, 37659, Note_on_c, 0, 82, 0
2, 37672, Note_on_c, 0, 71, 0
2, 37732, Note_on_c, 0, 44, 0
2, 37773, Control_c, 0, 64, 46
2, 37773, Note_on_c, 0, 51, 64
2, 37874, Note_on_c, 0, 51, 0
2, 37883, Control_c, 0, 64, 47
2, 37896, Note_on_c, 0, 44, 60
2, 37904, Note_on_c, 0, 63, 75
2, 37937, Note_on_c, 0, 63, 0
2, 38016, Control_c, 0, 64, 46
2, 38035, Note_on_c, 0, 51, 58
2, 38102, Note_on_c, 0, 44, 0
2, 38131, Note_on_c, 0, 51, 0
2, 38152, Note_on_c, 0, 63, 69
2, 38157, Note_on_c, 0, 73, 80
2, 38163, Note_on_c, 0, 43, 65
2, 38170, Control_c, 0, 64, 47
2, 38195, Note_on_c, 0, 63, 0
2, 38232, Note_on_c, 0, 43, 0
2, 38236, Note_on_c, 0, 64, 69
2, 38271, Note_on_c, 0, 64, 0
2, 38275, Note_on_c, 0, 51, 66
2, 38295, Note_on_c, 0, 63, 70
2, 38335, Note_on_c, 0, 63, 0
2, 38368, Note_on_c, 0, 62, 72
2, 38375, Note_on_c, 0, 51, 0
2, 38402, Note_on_c, 0, 43, 56
2, 38419, Control_c, 0, 64, 48
2, 38426, Note_on_c, 0, 63, 69
2, 38438, Note_on_c, 0, 62, 0
2, 38458, Control_c, 0, 64, 47
2, 38510, Note_on_c, 0, 43, 0
2, 38510, Note_on_c, 0, 73, 0
2, 38536, Note_on_c, 0, 51, 58
2, 38583, Note_on_c, 0, 63, 0
2, 38669, Note_on_c, 0, 51, 0
2, 38669, Note_on_c, 0, 71, 84
2, 38684, Note_on_c, 0, 44, 69
2, 38766, Control_c, 0, 64, 48
2, 38769, Note_on_c, 0, 44, 0
2, 38813, Note_on_c, 0, 51, 63
2, 38903, Note_on_c, 0, 51, 0
2, 38919, Note_on_c, 0, 64, 65
2, 38924, Note_on_c, 0, 44, 65
2, 38966, Note_on_c, 0, 64, 0
2, 38975, Note_on_c, 0, 63, 58
2, 38999, Control_c, 0, 64, 47
2, 39004, Note_on_c, 0, 63, 0
2, 39050, Note_on_c, 0, 51, 61
2, 39078, Note_on_c, 0, 61, 63
2, 39101, Note_on_c, 0, 61, 0
2, 39153, Note_on_c, 0, 71, 0
2, 39158, Note_on_c, 0, 51, 0
2, 39182, Note_on_c, 0, 42, 59
2, 39192, Note_on_c, 0, 70, 75
2, 39208, Note_on_c, 0, 63, 64
2, 39293, Note_on_c, 0, 42, 0
2, 39302, Note_on_c, 0, 44, 0
2, 39325, Control_c, 0, 64, 46
2, 39325, Note_on_c, 0, 51, 55
2, 39405, Note_on_c, 0, 51, 0
2, 39464, Note_on_c, 0, 70, 0
2, 39464, Note_on_c, 0, 75, 68
2, 39466, Note_on_c, 0, 42, 48
2, 39479, Note_on_c, 0, 63, 0
2, 39548, Note_on_c, 0, 42, 0
2, 39590, Note_on_c, 0, 51, 53
2, 39610, Control_c, 0, 64, 47
2, 39714, Note_on_c, 0, 51, 0
2, 39721, Note_on_c, 0, 75, 0
2, 39730, Note_on_c, 0, 68, 78
2, 39737, Note_on_c, 0, 41, 59
2, 39794, Note_on_c, 0, 41, 0
2, 39864, Note_on_c, 0, 51, 58
2, 40002, Note_on_c, 0, 51, 0
2, 40007, Note_on_c, 0, 50, 57
2, 40007, Note_on_c, 0, 77, 81
2, 40111, Note_on_c, 0, 50, 0
2, 40126, Note_on_c, 0, 48, 59
2, 40127, Note_on_c, 0, 75, 76
2, 40143, Note_on_c, 0, 77, 0
2, 40148, Control_c, 0, 64, 46
2, 40246, Note_on_c, 0, 48, 0
2, 40263, Note_on_c, 0, 77, 79
2, 40272, Note_on_c, 0, 50, 62
2, 40279, Note_on_c, 0, 75, 0
2, 40306, Note_on_c, 0, 77, 0
2, 40321, Control_c, 0, 64, 47
2, 40359, Note_on_c, 0, 50, 0
2, 40402, Note_on_c, 0, 56, 57
2, 40436, Control_c, 0, 64, 46
2, 40497, Note_on_c, 0, 56, 0
2, 40524, Note_on_c, 0, 80, 79
2, 40533, Control_c, 0, 64, 47
2, 40540, Note_on_c, 0, 53, 57
2, 40590, Note_on_c, 0, 80, 0
2, 40634, Note_on_c, 0, 53, 0
2, 40662, Note_on_c, 0, 56, 55
2, 40774, Note_on_c, 0, 56, 0
2, 40790, Note_on_c, 0, 46, 58
2, 40795, Note_on_c, 0, 74, 81
2, 40806, Note_on_c, 0, 68, 0
2, 40886, Note_on_c, 0, 74, 0
2, 40903, Note_on_c, 0, 70, 75
2, 40911, Note_on_c, 0, 46, 0
2, 40929, Note_on_c, 0, 56, 53
2, 40946, Note_on_c, 0, 70, 0
2, 40974, Control_c, 0, 64, 48
2, 41034, Note_on_c, 0, 77, 85
2, 41036, Note_on_c, 0, 56, 0
2, 41043, Note_on_c, 0, 68, 70
2, 41047, Note_on_c, 0, 48, 68
2, 41092, Note_on_c, 0, 68, 0
2, 41092, Note_on_c, 0, 77, 0
2, 41167, Note_on_c, 0, 66, 78
2, 41181, Note_on_c, 0, 56, 59
2, 41274, Note_on_c, 0, 56, 0
2, 41283, Note_on_c, 0, 66, 0
2, 41301, Note_on_c, 0, 50, 56
2, 41301, Note_on_c, 0, 70, 69
2, 41308, Note_on_c, 0, 65, 54
2, 41314, Note_on_c, 0, 48, 0
2, 41362, Note_on_c, 0, 65, 0
2, 41398, Control_c, 0, 64, 47
2, 41422, Note_on_c, 0, 63, 61
2, 41441, Note_on_c, 0, 50, 0
2, 41446, Note_on_c, 0, 56, 51
2, 41529, Control_c, 0, 64, 48
2, 41536, Note_on_c, 0, 56, 0
2, 41543, Note_on_c, 0, 63, 0
2, 41554, Note_on_c, 0, 46, 55
2, 41567, Note_on_c, 0, 65, 54
2, 41637, Note_on_c, 0, 65, 0
2, 41646, Control_c, 0, 64, 47
2, 41683, Note_on_c, 0, 62, 57
2, 41700, Note_on_c, 0, 56, 52
2, 41705, Note_on_c, 0, 46, 0
2, 41780, Control_c, 0, 64, 46
2, 41796, Note_on_c, 0, 56, 0
2, 41809, Note_on_c, 0, 62, 0
2, 41812, Note_on_c, 0, 63, 58
2, 41816, Note_on_c, 0, 51, 65
2, 41842, Control_c, 0, 64, 47
2, 41842, Note_on_c, 0, 63, 0
2, 41842, Note_on_c, 0, 70, 0
2, 41932, Note_on_c, 0, 51, 0
2, 41939, Note_on_c, 0, 54, 64
2, 42073, Note_on_c, 0, 54, 0
2, 42081, Note_on_c, 0, 70, 80
2, 42086, Note_on_c, 0, 51, 71
2, 42086, Note_on_c, 0, 66, 69
2, 42200, Note_on_c, 0, 66, 0
2, 42204, Note_on_c, 0, 54, 69
2, 42209, Note_on_c, 0, 51, 0
2, 42209, Note_on_c, 0, 68, 79
2, 42213, Note_on_c, 0, 65, 60
2, 42228, Note_on_c, 0, 70, 0
2, 42314, Note_on_c, 0, 54, 0
2, 42321, Note_on_c, 0, 49, 68
2, 42323, Note_on_c, 0, 70, 82
2, 42330, Note_on_c, 0, 66, 67
2, 42334, Note_on_c, 0, 65, 0
2, 42356, Note_on_c, 0, 68, 0
2, 42369, Note_on_c, 0, 66, 0
2, 42378, Note_on_c, 0, 70, 0
2, 42444, Note_on_c, 0, 49, 0
2, 42457, Note_on_c, 0, 58, 73
2, 42597, Note_on_c, 0, 58, 0
2, 42608, Note_on_c, 0, 49, 67
2, 42608, Note_on_c, 0, 78, 92
2, 42626, Note_on_c, 0, 70, 73
2, 42737, Note_on_c, 0, 58, 66
2, 42744, Note_on_c, 0, 49, 0
2, 42760, Note_on_c, 0, 70, 0
2, 42815, Note_on_c, 0, 78, 0
2, 42840, Note_on_c, 0, 58, 0
2, 42868, Note_on_c, 0, 48, 64
2, 42962, Note_on_c, 0, 48, 0
2, 43004, Note_on_c, 0, 56, 59
2, 43013, Control_c, 0, 64, 46
2, 43116, Note_on_c, 0, 56, 0
2, 43139, Note_on_c, 0, 48, 50
2, 43141, Note_on_c, 0, 75, 75
2, 43150, Note_on_c, 0, 66, 61
2, 43162, Control_c, 0, 64, 47
2, 43206, Note_on_c, 0, 48, 0
2, 43268, Note_on_c, 0, 56, 54
2, 43300, Note_on_c, 0, 66, 0
2, 43316, Note_on_c, 0, 75, 0
2, 43355, Note_on_c, 0, 56, 0
2, 43392, Note_on_c, 0, 44, 58
2, 43490, Note_on_c, 0, 44, 0
2, 43525, Note_on_c, 0, 56, 57
2, 43598, Note_on_c, 0, 56, 0
2, 43646, Note_on_c, 0, 44, 62
2, 43660, Note_on_c, 0, 72, 69
2, 43668, Note_on_c, 0, 65, 52
2, 43775, Note_on_c, 0, 63, 56
2, 43789, Note_on_c, 0, 65, 0
2, 43803, Note_on_c, 0, 54, 52
2, 43853, Note_on_c, 0, 63, 0
2, 43857, Note_on_c, 0, 72, 0
2, 43869, Note_on_c, 0, 54, 0
2, 43880, Note_on_c, 0, 44, 0
2, 43904, Note_on_c, 0, 49, 58
2, 43979, Note_on_c, 0, 49, 0
2, 44017, Note_on_c, 0, 53, 56
2, 44145, Note_on_c, 0, 53, 0
2, 44155, Note_on_c, 0, 68, 73
2, 44160, Note_on_c, 0, 49, 55
2, 44173, Note_on_c, 0, 65, 51
2, 44249, Note_on_c, 0, 65, 0
2, 44272, Note_on_c, 0, 66, 67
2, 44283, Note_on_c, 0, 49, 0
2, 44283, Note_on_c, 0, 68, 0
2, 44294, Note_on_c, 0, 63, 45
2, 44299, Note_on_c, 0, 53, 55
2, 44366, Note_on_c, 0, 53, 0
2, 44387, Note_on_c, 0, 65, 62
2, 44396, Note_on_c, 0, 68, 69
2, 44400, Note_on_c, 0, 63, 0
2, 44418, Note_on_c, 0, 48, 63
2, 44423, Note_on_c, 0, 65, 0
2, 44423, Note_on_c, 0, 66, 0
2, 44430, Control_c, 0, 64, 48
2, 44443, Note_on_c, 0, 68, 0
2, 44529, Note_on_c, 0, 48, 0
2, 44683, Note_on_c, 0, 48, 52
2, 44683, Note_on_c, 0, 77, 77
2, 44696, Note_on_c, 0, 68, 59
2, 44796, Note_on_c, 0, 56, 57
2, 44852, Note_on_c, 0, 68, 0
2, 44867, Note_on_c, 0, 77, 0
2, 44888, Note_on_c, 0, 56, 0
2, 44939, Note_on_c, 0, 46, 62
2, 44966, Note_on_c, 0, 48, 0
2, 45027, Note_on_c, 0, 46, 0
2, 45065, Note_on_c, 0, 54, 55
2, 45121, Control_c, 0, 64, 47
2, 45150, Note_on_c, 0, 54, 0
2, 45210, Note_on_c, 0, 73, 73
2, 45218, Note_on_c, 0, 46, 47
2, 45218, Note_on_c, 0, 65, 59
2, 45288, Note_on_c, 0, 46, 0
2, 45326, Note_on_c, 0, 54, 59
2, 45370, Note_on_c, 0, 65, 0
2, 45391, Note_on_c, 0, 73, 0
2, 45431, Note_on_c, 0, 54, 0
2, 45464, Note_on_c, 0, 42, 60
2, 45544, Note_on_c, 0, 42, 0
2, 45615, Note_on_c, 0, 54, 50
2, 45687, Note_on_c, 0, 54, 0
2, 45714, Note_on_c, 0, 70, 57
2, 45719, Note_on_c, 0, 42, 54
2, 45727, Note_on_c, 0, 63, 51
2, 45773, Control_c, 0, 64, 48
2, 45837, Note_on_c, 0, 63, 0
2, 45839, Note_on_c, 0, 62, 60
2, 45864, Note_on_c, 0, 53, 57
2, 45928, Note_on_c, 0, 62, 0
2, 45933, Note_on_c, 0, 53, 0
2, 45962, Note_on_c, 0, 70, 0
2, 45980, Note_on_c, 0, 48, 62
2, 46057, Note_on_c, 0, 42, 0
2, 46094, Note_on_c, 0, 48, 0
2, 46115, Note_on_c, 0, 51, 57
2, 46119, Control_c, 0, 64, 47
2, 46225, Note_on_c, 0, 51, 0
2, 46241, Note_on_c, 0, 69, 48
2, 46250, Note_on_c, 0, 66, 58
2, 46257, Note_on_c, 0, 48, 51
2, 46290, Note_on_c, 0, 66, 0
2, 46301, Note_on_c, 0, 69, 0
2, 46332, Note_on_c, 0, 48, 0
2, 46363, Note_on_c, 0, 65, 56
2, 46367, Note_on_c, 0, 51, 62
2, 46469, Note_on_c, 0, 65, 0
2, 46474, Note_on_c, 0, 51, 0
2, 46496, Note_on_c, 0, 70, 63
2, 46498, Note_on_c, 0, 66, 68
2, 46503, Note_on_c, 0, 46, 59
2, 46541, Note_on_c, 0, 66, 0
2, 46545, Note_on_c, 0, 70, 0
2, 46562, Control_c, 0, 64, 48
2, 46617, Note_on_c, 0, 46, 0
2, 46624, Note_on_c, 0, 63, 66
2, 46632, Note_on_c, 0, 54, 61
2, 46703, Note_on_c, 0, 63, 0
2, 46714, Control_c, 0, 64, 49
2, 46746, Note_on_c, 0, 54, 0
2, 46766, Note_on_c, 0, 46, 69
2, 46771, Note_on_c, 0, 72, 72
2, 46771, Note_on_c, 0, 75, 79
2, 46876, Note_on_c, 0, 46, 0
2, 46889, Note_on_c, 0, 54, 75
2, 46914, Note_on_c, 0, 72, 0
2, 46965, Note_on_c, 0, 75, 0
2, 46983, Control_c, 0, 64, 50
2, 47003, Note_on_c, 0, 54, 0
2, 47020, Note_on_c, 0, 45, 73
2, 47098, Control_c, 0, 64, 49
2, 47115, Control_c, 0, 64, 46
2, 47137, Control_c, 0, 64, 41
2, 47146, Note_on_c, 0, 53, 71
2, 47156, Note_on_c, 0, 45, 0
2, 47160, Control_c, 0, 64, 27
2, 47175, Control_c, 0, 64, 0
2, 47251, Control_c, 0, 64, 9
2, 47256, Note_on_c, 0, 75, 83
2, 47264, Note_on_c, 0, 53, 0
2, 47264, Note_on_c, 0, 72, 75
2, 47274, Control_c, 0, 64, 38
2, 47274, Note_on_c, 0, 45, 68
2, 47293, Control_c, 0, 64, 58
2, 47307, Note_on_c, 0, 72, 0
2, 47311, Control_c, 0, 64, 65
2, 47327, Control_c, 0, 64, 71
2, 47344, Note_on_c, 0, 75, 0
2, 47349, Control_c, 0, 64, 79
2, 47369, Control_c, 0, 64, 87
2, 47371, Note_on_c, 0, 70, 75
2, 47386, Control_c, 0, 64, 93
2, 47395, Note_on_c, 0, 53, 77
2, 47406, Control_c, 0, 64, 95
2, 47406, Note_on_c, 0, 70, 0
2, 47423, Control_c, 0, 64, 90
2, 47445, Control_c, 0, 64, 77
2, 47460, Note_on_c, 0, 45, 0
2, 47464, Control_c, 0, 64, 64
2, 47482, Control_c, 0, 64, 44
2, 47495, Note_on_c, 0, 53, 0
2, 47502, Control_c, 0, 64, 46
2, 47509, Note_on_c, 0, 41, 76
2, 47516, Note_on_c, 0, 74, 82
2, 47520, Control_c, 0, 64, 59
2, 47524, Note_on_c, 0, 71, 66
2, 47540, Control_c, 0, 64, 75
2, 47556, Note_on_c, 0, 74, 0
2, 47561, Control_c, 0, 64, 127
2, 47561, Note_on_c, 0, 71, 0
2, 47626, Note_on_c, 0, 68, 71
2, 47639, Note_on_c, 0, 53, 72
2, 47648, Note_on_c, 0, 41, 0
2, 47659, Note_on_c, 0, 68, 0
2, 47723, Note_on_c, 0, 53, 0
2, 47770, Control_c, 0, 64, 92
2, 47782, Note_on_c, 0, 41, 75
2, 47782, Note_on_c, 0, 83, 90
2, 47786, Note_on_c, 0, 80, 87
2, 47793, Control_c, 0, 64, 66
2, 47810, Control_c, 0, 64, 50
2, 47829, Control_c, 0, 64, 30
2, 47835, Note_on_c, 0, 41, 0
2, 47848, Control_c, 0, 64, 13
2, 47866, Control_c, 0, 64, 11
2, 47887, Control_c, 0, 64, 14
2, 47902, Note_on_c, 0, 51, 66
2, 47906, Control_c, 0, 64, 25
2, 47924, Control_c, 0, 64, 30
2, 47942, Control_c, 0, 64, 31
2, 47964, Control_c, 0, 64, 30
2, 48019, Note_on_c, 0, 51, 0
2, 48063, Note_on_c, 0, 82, 90
2, 48069, Note_on_c, 0, 50, 61
2, 48078, Control_c, 0, 64, 29
2, 48106, Note_on_c, 0, 83, 0
2, 48108, Note_on_c, 0, 80, 0
2, 48118, Control_c, 0, 64, 30
2, 48129, Note_on_c, 0, 50, 0
2, 48175, Note_on_c, 0, 46, 56
2, 48314, Note_on_c, 0, 51, 67
2, 48319, Note_on_c, 0, 46, 0
2, 48330, Note_on_c, 0, 78, 58
2, 48368, Note_on_c, 0, 78, 0
2, 48391, Note_on_c, 0, 77, 61
2, 48427, Note_on_c, 0, 77, 0
2, 48461, Note_on_c, 0, 54, 61
2, 48467, Note_on_c, 0, 75, 70
2, 48472, Note_on_c, 0, 51, 0
2, 48556, Control_c, 0, 64, 29
2, 48577, Control_c, 0, 64, 26
2, 48581, Note_on_c, 0, 75, 0
2, 48597, Control_c, 0, 64, 23
2, 48606, Note_on_c, 0, 54, 0
2, 48606, Note_on_c, 0, 74, 73
2, 48612, Note_on_c, 0, 82, 0
2, 48620, Control_c, 0, 64, 18
2, 48620, Note_on_c, 0, 58, 64
2, 48633, Control_c, 0, 64, 8
2, 48654, Control_c, 0, 64, 0
2, 48665, Note_on_c, 0, 58, 0
2, 48741, Note_on_c, 0, 82, 70
2, 48788, Control_c, 0, 64, 19
2, 48806, Control_c, 0, 64, 30
2, 48825, Control_c, 0, 64, 42
2, 48845, Control_c, 0, 64, 53
2, 48863, Control_c, 0, 64, 61
2, 48887, Control_c, 0, 64, 63
2, 48887, Note_on_c, 0, 77, 74
2, 48901, Note_on_c, 0, 46, 47
2, 48904, Note_on_c, 0, 82, 0
2, 48909, Control_c, 0, 64, 64
2, 48925, Control_c, 0, 64, 66
2, 48941, Control_c, 0, 64, 69
2, 48961, Control_c, 0, 64, 74
2, 48972, Note_on_c, 0, 46, 0
2, 48981, Control_c, 0, 64, 79
2, 48999, Control_c, 0, 64, 82
2, 49014, Note_on_c, 0, 80, 69
2, 49019, Control_c, 0, 64, 83
2, 49030, Note_on_c, 0, 77, 0
2, 49060, Control_c, 0, 64, 82
2, 49060, Note_on_c, 0, 80, 0
2, 49134, Control_c, 0, 64, 81
2, 49153, Control_c, 0, 64, 79
2, 49171, Control_c, 0, 64, 76
2, 49192, Control_c, 0, 64, 72
2, 49214, Control_c, 0, 64, 68
2, 49214, Note_on_c, 0, 39, 48
2, 49229, Control_c, 0, 64, 65
2, 49247, Control_c, 0, 64, 64
2, 49269, Note_on_c, 0, 80, 67
2, 49273, Control_c, 0, 64, 62
2, 49290, Control_c, 0, 64, 60
2, 49305, Control_c, 0, 64, 59
2, 49325, Control_c, 0, 64, 57
2, 49343, Control_c, 0, 64, 56
2, 49363, Control_c, 0, 64, 54
2, 49382, Control_c, 0, 64, 50
2, 49402, Control_c, 0, 64, 46
2, 49423, Control_c, 0, 64, 43
2, 49499, Control_c, 0, 64, 42
2, 49517, Control_c, 0, 64, 41
2, 49537, Control_c, 0, 64, 39
2, 49556, Control_c, 0, 64, 37
2, 49653, Control_c, 0, 64, 36
2, 49657, Note_on_c, 0, 75, 43
2, 49657, Note_on_c, 0, 79, 60
2, 49758, Note_on_c, 0, 74, 0
2, 49828, Note_on_c, 0, 43, 39
2, 49924, Note_on_c, 0, 80, 0
2, 49935, Note_on_c, 0, 39, 0
2, 49935, Note_on_c, 0, 46, 45
2, 49960, Control_c, 0, 64, 35
2, 49960, Note_on_c, 0, 43, 0
2, 50038, Note_on_c, 0, 46, 0
2, 50045, Note_on_c, 0, 51, 51
2, 50238, Note_on_c, 0, 75, 0
2, 50246, Note_on_c, 0, 79, 0
2, 50268, Control_c, 0, 64, 36
2, 50451, Note_on_c, 0, 51, 0
2, 50478, Control_c, 0, 64, 37
2, 50593, Note_on_c, 0, 75, 54
2, 50682, Note_on_c, 0, 75, 0
2, 50728, Note_on_c, 0, 77, 65
2, 50841, Note_on_c, 0, 77, 0
2, 50850, Note_on_c, 0, 51, 51
2, 50850, Note_on_c, 0, 79, 70
2, 50974, Note_on_c, 0, 53, 62
2, 50974, Note_on_c, 0, 80, 76
2, 50999, Note_on_c, 0, 79, 0
2, 51025, Note_on_c, 0, 51, 0
2, 51080, Note_on_c, 0, 53, 0
2, 51082, Note_on_c, 0, 55, 78
2, 51089, Note_on_c, 0, 82, 77
2, 51125, Note_on_c, 0, 55, 0
2, 51131, Note_on_c, 0, 80, 0
2, 51206, Note_on_c, 0, 82, 0
2, 51220, Note_on_c, 0, 76, 68
2, 51349, Note_on_c, 0, 58, 78
2, 51360, Note_on_c, 0, 75, 73
2, 51360, Note_on_c, 0, 76, 0
2, 51394, Note_on_c, 0, 58, 0
2, 51476, Note_on_c, 0, 73, 71
2, 51526, Note_on_c, 0, 75, 0
2, 51602, Note_on_c, 0, 73, 0
2, 51610, Control_c, 0, 64, 38
2, 51617, Note_on_c, 0, 63, 84
2, 51628, Note_on_c, 0, 72, 64
2, 51648, Control_c, 0, 64, 39
2, 51676, Note_on_c, 0, 63, 0
2, 51717, Note_on_c, 0, 72, 0
2, 51743, Note_on_c, 0, 73, 71
2, 51886, Note_on_c, 0, 75, 67
2, 51892, Note_on_c, 0, 61, 71
2, 51912, Note_on_c, 0, 73, 0
2, 51927, Note_on_c, 0, 61, 0
2, 51975, Note_on_c, 0, 75, 0
2, 52008, Note_on_c, 0, 69, 62
2, 52150, Note_on_c, 0, 69, 0
2, 52154, Note_on_c, 0, 60, 69
2, 52154, Note_on_c, 0, 68, 66
2, 52196, Note_on_c, 0, 60, 0
2, 52281, Note_on_c, 0, 66, 58
2, 52308, Note_on_c, 0, 68, 0
2, 52388, Note_on_c, 0, 66, 0
2, 52421, Note_on_c, 0, 64, 59
2, 52424, Note_on_c, 0, 56, 69
2, 52475, Note_on_c, 0, 56, 0
2, 52540, Note_on_c, 0, 64, 0
2, 52554, Note_on_c, 0, 63, 65
2, 52632, Note_on_c, 0, 63, 0
2, 52690, Note_on_c, 0, 61, 74
2, 52692, Note_on_c, 0, 64, 71
2, 52733, Note_on_c, 0, 61, 0
2, 52811, Note_on_c, 0, 64, 0
2, 52815, Note_on_c, 0, 73, 70
2, 52938, Note_on_c, 0, 73, 0
2, 52950, Note_on_c, 0, 49, 65
2, 52961, Note_on_c, 0, 64, 71
2, 52999, Note_on_c, 0, 49, 0
2, 53070, Note_on_c, 0, 64, 0
2, 53075, Note_on_c, 0, 73, 73
2, 53207, Note_on_c, 0, 47, 75
2, 53216, Note_on_c, 0, 73, 0
2, 53224, Note_on_c, 0, 65, 69
2, 53251, Note_on_c, 0, 47, 0
2, 53332, Note_on_c, 0, 65, 0
2, 53337, Note_on_c, 0, 74, 72
2, 53466, Note_on_c, 0, 74, 0
2, 53474, Note_on_c, 0, 59, 82
2, 53482, Note_on_c, 0, 65, 65
2, 53521, Note_on_c, 0, 59, 0
2, 53582, Note_on_c, 0, 65, 0
2, 53591, Note_on_c, 0, 74, 69
2, 53736, Note_on_c, 0, 73, 76
2, 53740, Note_on_c, 0, 57, 80
2, 53771, Note_on_c, 0, 74, 0
2, 53779, Note_on_c, 0, 57, 0
2, 53848, Note_on_c, 0, 73, 0
2, 53864, Note_on_c, 0, 69, 62
2, 54004, Note_on_c, 0, 69, 0
2, 54008, Note_on_c, 0, 68, 73
2, 54013, Note_on_c, 0, 45, 72
2, 54057, Note_on_c, 0, 45, 0
2, 54140, Note_on_c, 0, 66, 66
2, 54153, Note_on_c, 0, 68, 0
2, 54240, Control_c, 0, 64, 40
2, 54245, Note_on_c, 0, 66, 0
2, 54272, Note_on_c, 0, 44, 74
2, 54287, Note_on_c, 0, 65, 62
2, 54318, Note_on_c, 0, 44, 0
2, 54392, Note_on_c, 0, 65, 0
2, 54406, Note_on_c, 0, 74, 70
2, 54538, Note_on_c, 0, 56, 82
2, 54538, Note_on_c, 0, 73, 72
2, 54573, Note_on_c, 0, 74, 0
2, 54587, Note_on_c, 0, 56, 0
2, 54657, Note_on_c, 0, 73, 0
2, 54666, Note_on_c, 0, 71, 66
2, 54799, Note_on_c, 0, 71, 0
2, 54808, Note_on_c, 0, 54, 79
2, 54808, Note_on_c, 0, 70, 73
2, 54847, Note_on_c, 0, 54, 0
2, 54900, Note_on_c, 0, 70, 0
2, 54926, Note_on_c, 0, 71, 71
2, 55066, Note_on_c, 0, 71, 0
2, 55066, Note_on_c, 0, 73, 76
2, 55070, Note_on_c, 0, 42, 72
2, 55123, Note_on_c, 0, 42, 0
2, 55192, Note_on_c, 0, 75, 73
2, 55252, Note_on_c, 0, 73, 0
2, 55335, Note_on_c, 0, 49, 76
2, 55339, Note_on_c, 0, 76, 72
2, 55379, Note_on_c, 0, 49, 0
2, 55384, Note_on_c, 0, 75, 0
2, 55448, Note_on_c, 0, 76, 0
2, 55458, Note_on_c, 0, 71, 74
2, 55590, Note_on_c, 0, 52, 75
2, 55593, Note_on_c, 0, 71, 0
2, 55597, Note_on_c, 0, 69, 70
2, 55630, Note_on_c, 0, 52, 0
2, 55721, Note_on_c, 0, 68, 73
2, 55755, Note_on_c, 0, 69, 0
2, 55846, Note_on_c, 0, 68, 0
2, 55853, Note_on_c, 0, 46, 75
2, 55864, Note_on_c, 0, 67, 61
2, 55897, Note_on_c, 0, 46, 0
2, 55959, Note_on_c, 0, 67, 0
2, 55987, Note_on_c, 0, 68, 69
2, 56104, Control_c, 0, 64, 41
2, 56114, Note_on_c, 0, 49, 70
2, 56114, Note_on_c, 0, 68, 0
2, 56121, Note_on_c, 0, 70, 66
2, 56161, Note_on_c, 0, 49, 0
2, 56201, Note_on_c, 0, 70, 0
2, 56239, Note_on_c, 0, 64, 68
2, 56367, Note_on_c, 0, 43, 63
2, 56374, Note_on_c, 0, 63, 66
2, 56378, Note_on_c, 0, 64, 0
2, 56413, Note_on_c, 0, 43, 0
2, 56503, Note_on_c, 0, 61, 53
2, 56521, Note_on_c, 0, 63, 0
2, 56612, Note_on_c, 0, 61, 0
2, 56624, Note_on_c, 0, 51, 65
2, 56638, Note_on_c, 0, 59, 54
2, 56667, Note_on_c, 0, 51, 0
2, 56742, Note_on_c, 0, 59, 0
2, 56763, Note_on_c, 0, 58, 63
2, 56827, Note_on_c, 0, 58, 0
2, 56886, Note_on_c, 0, 56, 70
2, 56896, Note_on_c, 0, 59, 66
2, 56931, Note_on_c, 0, 56, 0
2, 57002, Note_on_c, 0, 59, 0
2, 57022, Note_on_c, 0, 68, 62
2, 57122, Note_on_c, 0, 68, 0
2, 57150, Note_on_c, 0, 44, 55
2, 57164, Note_on_c, 0, 59, 63
2, 57196, Note_on_c, 0, 44, 0
2, 57263, Note_on_c, 0, 59, 0
2, 57269, Note_on_c, 0, 68, 69
2, 57408, Note_on_c, 0, 42, 64
2, 57408, Note_on_c, 0, 68, 0
2, 57421, Note_on_c, 0, 60, 68
2, 57455, Note_on_c, 0, 42, 0
2, 57519, Note_on_c, 0, 60, 0
2, 57537, Note_on_c, 0, 69, 63
2, 57656, Control_c, 0, 64, 42
2, 57658, Note_on_c, 0, 54, 74
2, 57672, Note_on_c, 0, 60, 70
2, 57672, Note_on_c, 0, 69, 0
2, 57702, Note_on_c, 0, 54, 0
2, 57773, Control_c, 0, 64, 43
2, 57777, Note_on_c, 0, 60, 0
2, 57777, Note_on_c, 0, 69, 71
2, 57919, Note_on_c, 0, 68, 76
2, 57930, Note_on_c, 0, 52, 76
2, 57952, Note_on_c, 0, 69, 0
2, 57966, Note_on_c, 0, 52, 0
2, 58024, Note_on_c, 0, 68, 0
2, 58050, Note_on_c, 0, 64, 70
2, 58057, Control_c, 0, 64, 42
2, 58183, Note_on_c, 0, 40, 68
2, 58183, Note_on_c, 0, 64, 0
2, 58185, Note_on_c, 0, 63, 72
2, 58230, Note_on_c, 0, 40, 0
2, 58292, Note_on_c, 0, 61, 72
2, 58299, Note_on_c, 0, 63, 0
2, 58394, Note_on_c, 0, 61, 0
2, 58436, Note_on_c, 0, 39, 86
2, 58436, Note_on_c, 0, 60, 70
2, 58489, Note_on_c, 0, 39, 0
2, 58536, Note_on_c, 0, 60, 0
2, 58551, Note_on_c, 0, 69, 74
2, 58577, Control_c, 0, 64, 41
2, 58704, Note_on_c, 0, 51, 86
2, 58704, Note_on_c, 0, 68, 74
2, 58710, Control_c, 0, 64, 42
2, 58720, Note_on_c, 0, 69, 0
2, 58743, Note_on_c, 0, 51, 0
2, 58767, Control_c, 0, 64, 43
2, 58816, Note_on_c, 0, 66, 73
2, 58855, Note_on_c, 0, 68, 0
2, 58949, Note_on_c, 0, 66, 0
2, 58953, Note_on_c, 0, 49, 83
2, 58962, Note_on_c, 0, 65, 70
2, 59000, Control_c, 0, 64, 42
2, 59003, Note_on_c, 0, 49, 0
2, 59082, Note_on_c, 0, 65, 0
2, 59086, Note_on_c, 0, 66, 75
2, 59207, Note_on_c, 0, 66, 0
2, 59211, Note_on_c, 0, 68, 78
2, 59215, Note_on_c, 0, 37, 73
2, 59250, Note_on_c, 0, 37, 0
2, 59287, Control_c, 0, 64, 43
2, 59292, Note_on_c, 0, 68, 0
2, 59307, Control_c, 0, 64, 44
2, 59337, Note_on_c, 0, 69, 76
2, 59384, Control_c, 0, 64, 43
2, 59468, Note_on_c, 0, 69, 0
2, 59473, Note_on_c, 0, 71, 80
2, 59590, Note_on_c, 0, 61, 74
2, 59597, Note_on_c, 0, 74, 79
2, 59606, Note_on_c, 0, 71, 0
2, 59712, Note_on_c, 0, 63, 78
2, 59728, Note_on_c, 0, 73, 82
2, 59735, Note_on_c, 0, 61, 0
2, 59745, Note_on_c, 0, 74, 0
2, 59835, Note_on_c, 0, 65, 69
2, 59843, Note_on_c, 0, 73, 0
2, 59859, Note_on_c, 0, 71, 72
2, 59862, Note_on_c, 0, 63, 0
2, 59958, Note_on_c, 0, 65, 0
2, 59977, Note_on_c, 0, 66, 85
2, 60000, Note_on_c, 0, 70, 80
2, 60006, Note_on_c, 0, 71, 0
2, 60032, Note_on_c, 0, 66, 0
2, 60118, Note_on_c, 0, 71, 66
2, 60222, Note_on_c, 0, 70, 0
2, 60260, Note_on_c, 0, 54, 81
2, 60264, Note_on_c, 0, 71, 0
2, 60264, Note_on_c, 0, 73, 77
2, 60300, Note_on_c, 0, 54, 0
2, 60388, Note_on_c, 0, 68, 81
2, 60402, Note_on_c, 0, 73, 0
2, 60516, Note_on_c, 0, 66, 71
2, 60552, Note_on_c, 0, 68, 0
2, 60610, Note_on_c, 0, 66, 0
2, 60642, Note_on_c, 0, 64, 71
2, 60663, Note_on_c, 0, 54, 73
2, 60774, Note_on_c, 0, 63, 72
2, 60774, Note_on_c, 0, 64, 0
2, 60778, Note_on_c, 0, 56, 79
2, 60804, Note_on_c, 0, 54, 0
2, 60895, Note_on_c, 0, 61, 66
2, 60904, Note_on_c, 0, 63, 0
2, 60906, Note_on_c, 0, 58, 71
2, 60940, Note_on_c, 0, 56, 0
2, 61026, Note_on_c, 0, 61, 0
2, 61035, Note_on_c, 0, 59, 87
2, 61035, Note_on_c, 0, 63, 70
2, 61051, Note_on_c, 0, 58, 0
2, 61089, Note_on_c, 0, 59, 0
2, 61113, Note_on_c, 0, 63, 0
2, 61161, Note_on_c, 0, 64, 67
2, 61191, Control_c, 0, 64, 42
2, 61273, Note_on_c, 0, 64, 0
2, 61295, Note_on_c, 0, 66, 74
2, 61312, Note_on_c, 0, 47, 68
2, 61350, Note_on_c, 0, 47, 0
2, 61416, Note_on_c, 0, 68, 76
2, 61428, Note_on_c, 0, 66, 0
2, 61528, Note_on_c, 0, 68, 0
2, 61560, Note_on_c, 0, 69, 72
2, 61686, Note_on_c, 0, 69, 0
2, 61691, Note_on_c, 0, 47, 66
2, 61691, Note_on_c, 0, 73, 78
2, 61812, Note_on_c, 0, 49, 68
2, 61816, Note_on_c, 0, 71, 74
2, 61829, Note_on_c, 0, 47, 0
2, 61841, Note_on_c, 0, 73, 0
2, 61904, Note_on_c, 0, 71, 0
2, 61941, Note_on_c, 0, 51, 74
2, 61945, Note_on_c, 0, 69, 70
2, 61960, Note_on_c, 0, 49, 0
2, 62056, Note_on_c, 0, 51, 0
2, 62079, Note_on_c, 0, 68, 74
2, 62083, Note_on_c, 0, 52, 78
2, 62083, Note_on_c, 0, 69, 0
2, 62120, Note_on_c, 0, 52, 0
2, 62214, Note_on_c, 0, 69, 66
2, 62272, Note_on_c, 0, 68, 0
2, 62347, Note_on_c, 0, 40, 55
2, 62347, Note_on_c, 0, 69, 0
2, 62347, Note_on_c, 0, 71, 67
2, 62385, Note_on_c, 0, 40, 0
2, 62460, Note_on_c, 0, 66, 62
2, 62526, Note_on_c, 0, 71, 0
2, 62579, Note_on_c, 0, 66, 0
2, 62608, Note_on_c, 0, 64, 70
2, 62721, Note_on_c, 0, 64, 0
2, 62728, Control_c, 0, 64, 41
2, 62730, Note_on_c, 0, 62, 68
2, 62757, Note_on_c, 0, 40, 54
2, 62853, Note_on_c, 0, 42, 65
2, 62855, Note_on_c, 0, 61, 57
2, 62871, Note_on_c, 0, 40, 0
2, 62877, Note_on_c, 0, 62, 0
2, 62975, Note_on_c, 0, 61, 0
2, 62979, Note_on_c, 0, 59, 55
2, 62989, Note_on_c, 0, 44, 58
2, 62992, Note_on_c, 0, 42, 0
2, 63101, Note_on_c, 0, 44, 0
2, 63114, Control_c, 0, 64, 42
2, 63123, Note_on_c, 0, 45, 60
2, 63123, Note_on_c, 0, 59, 0
2, 63123, Note_on_c, 0, 61, 65
2, 63154, Note_on_c, 0, 61, 0
2, 63212, Note_on_c, 0, 45, 0
2, 63235, Note_on_c, 0, 52, 64
2, 63349, Note_on_c, 0, 52, 0
2, 63374, Note_on_c, 0, 69, 74
2, 63381, Note_on_c, 0, 45, 59
2, 63383, Note_on_c, 0, 61, 53
2, 63426, Note_on_c, 0, 61, 0
2, 63430, Note_on_c, 0, 45, 0
2, 63433, Note_on_c, 0, 69, 0
2, 63509, Note_on_c, 0, 52, 55
2, 63601, Note_on_c, 0, 52, 0
2, 63628, Note_on_c, 0, 69, 63
2, 63637, Note_on_c, 0, 44, 58
2, 63644, Note_on_c, 0, 61, 55
2, 63746, Note_on_c, 0, 44, 0
2, 63769, Note_on_c, 0, 52, 55
2, 63795, Note_on_c, 0, 61, 0
2, 63891, Note_on_c, 0, 52, 0
2, 63905, Note_on_c, 0, 71, 70
2, 63909, Note_on_c, 0, 62, 46
2, 63914, Note_on_c, 0, 44, 57
2, 63957, Note_on_c, 0, 69, 0
2, 64023, Note_on_c, 0, 44, 0
2, 64054, Note_on_c, 0, 52, 52
2, 64081, Note_on_c, 0, 62, 0
2, 64109, Note_on_c, 0, 71, 0
2, 64150, Note_on_c, 0, 52, 0
2, 64178, Note_on_c, 0, 45, 51
2, 64282, Control_c, 0, 64, 41
2, 64287, Note_on_c, 0, 45, 0
2, 64315, Note_on_c, 0, 52, 54
2, 64413, Note_on_c, 0, 52, 0
2, 64420, Note_on_c, 0, 69, 60
2, 64424, Note_on_c, 0, 61, 52
2, 64457, Note_on_c, 0, 45, 46
2, 64457, Note_on_c, 0, 61, 0
2, 64462, Note_on_c, 0, 69, 0
2, 64474, Control_c, 0, 64, 42
2, 64492, Control_c, 0, 64, 43
2, 64503, Note_on_c, 0, 45, 0
2, 64532, Control_c, 0, 64, 42
2, 64552, Note_on_c, 0, 52, 53
2, 64631, Note_on_c, 0, 52, 0
2, 64667, Note_on_c, 0, 68, 66
2, 64685, Note_on_c, 0, 41, 48
2, 64687, Note_on_c, 0, 59, 52
2, 64768, Note_on_c, 0, 41, 0
2, 64815, Note_on_c, 0, 50, 47
2, 64894, Note_on_c, 0, 50, 0
2, 64936, Note_on_c, 0, 41, 54
2, 64972, Control_c, 0, 64, 43
2, 65029, Note_on_c, 0, 41, 0
2, 65053, Note_on_c, 0, 50, 52
2, 65072, Note_on_c, 0, 59, 0
2, 65146, Control_c, 0, 64, 44
2, 65157, Note_on_c, 0, 50, 0
2, 65165, Control_c, 0, 64, 45
2, 65197, Note_on_c, 0, 42, 63
2, 65201, Note_on_c, 0, 68, 0
2, 65280, Control_c, 0, 64, 46
2, 65301, Note_on_c, 0, 42, 0
2, 65317, Note_on_c, 0, 49, 65
2, 65418, Note_on_c, 0, 49, 0
2, 65434, Note_on_c, 0, 66, 73
2, 65439, Note_on_c, 0, 57, 70
2, 65441, Note_on_c, 0, 42, 66
2, 65478, Note_on_c, 0, 57, 0
2, 65478, Note_on_c, 0, 66, 0
2, 65548, Note_on_c, 0, 68, 75
2, 65555, Note_on_c, 0, 49, 68
2, 65562, Note_on_c, 0, 59, 77
2, 65586, Control_c, 0, 64, 47
2, 65591, Note_on_c, 0, 59, 0
2, 65596, Note_on_c, 0, 68, 0
2, 65609, Control_c, 0, 64, 48
2, 65656, Note_on_c, 0, 42, 0
2, 65667, Note_on_c, 0, 49, 0
2, 65677, Note_on_c, 0, 69, 78
2, 65682, Note_on_c, 0, 61, 77
2, 65690, Note_on_c, 0, 40, 61
2, 65711, Note_on_c, 0, 61, 0
2, 65719, Note_on_c, 0, 69, 0
2, 65786, Note_on_c, 0, 40, 0
2, 65815, Note_on_c, 0, 49, 56
2, 65876, Control_c, 0, 64, 47
2, 65916, Control_c, 0, 64, 46
2, 65916, Note_on_c, 0, 49, 0
2, 65946, Note_on_c, 0, 73, 79
2, 65950, Note_on_c, 0, 40, 47
2, 65953, Note_on_c, 0, 68, 65
2, 66029, Control_c, 0, 64, 45
2, 66036, Note_on_c, 0, 40, 0
2, 66083, Note_on_c, 0, 49, 63
2, 66148, Note_on_c, 0, 68, 0
2, 66176, Note_on_c, 0, 73, 0
2, 66194, Note_on_c, 0, 49, 0
2, 66215, Note_on_c, 0, 39, 66
2, 66309, Note_on_c, 0, 39, 0
2, 66313, Note_on_c, 0, 43, 62
2, 66454, Note_on_c, 0, 46, 63
2, 66464, Note_on_c, 0, 43, 0
2, 66473, Note_on_c, 0, 76, 78
2, 66487, Note_on_c, 0, 67, 57
2, 66529, Control_c, 0, 64, 46
2, 66572, Note_on_c, 0, 46, 0
2, 66589, Note_on_c, 0, 49, 58
2, 66607, Control_c, 0, 64, 47
2, 66718, Note_on_c, 0, 49, 0
2, 66736, Note_on_c, 0, 67, 0
2, 66740, Note_on_c, 0, 47, 56
2, 66740, Note_on_c, 0, 75, 76
2, 66745, Note_on_c, 0, 68, 58
2, 66794, Note_on_c, 0, 76, 0
2, 66821, Note_on_c, 0, 47, 0
2, 66834, Note_on_c, 0, 68, 0
2, 66848, Note_on_c, 0, 46, 61
2, 66958, Note_on_c, 0, 46, 0
2, 66971, Control_c, 0, 64, 46
2, 66986, Note_on_c, 0, 44, 52
2, 67005, Note_on_c, 0, 73, 72
2, 67028, Note_on_c, 0, 70, 52
2, 67098, Note_on_c, 0, 75, 0
2, 67115, Note_on_c, 0, 44, 0
2, 67133, Note_on_c, 0, 43, 52
2, 67221, Note_on_c, 0, 70, 0
2, 67257, Note_on_c, 0, 73, 0
2, 67279, Note_on_c, 0, 43, 0
2, 67289, Note_on_c, 0, 44, 73
2, 67373, Control_c, 0, 64, 45
2, 67379, Note_on_c, 0, 44, 0
2, 67397, Note_on_c, 0, 51, 61
2, 67515, Note_on_c, 0, 51, 0
2, 67531, Note_on_c, 0, 71, 76
2, 67544, Note_on_c, 0, 44, 66
2, 67552, Note_on_c, 0, 68, 50
2, 67630, Note_on_c, 0, 68, 0
2, 67643, Note_on_c, 0, 67, 54
2, 67659, Note_on_c, 0, 70, 69
2, 67661, Note_on_c, 0, 71, 0
2, 67666, Note_on_c, 0, 51, 69
2, 67774, Note_on_c, 0, 51, 0
2, 67781, Note_on_c, 0, 42, 73
2, 67788, Note_on_c, 0, 68, 71
2, 67788, Note_on_c, 0, 71, 81
2, 67797, Note_on_c, 0, 67, 0
2, 67818, Note_on_c, 0, 68, 0
2, 67822, Note_on_c, 0, 70, 0
2, 67822, Note_on_c, 0, 71, 0
2, 67877, Note_on_c, 0, 42, 0
2, 67895, Note_on_c, 0, 44, 0
2, 67901, Note_on_c, 0, 51, 66
2, 67949, Control_c, 0, 64, 46
2, 68027, Note_on_c, 0, 51, 0
2, 68047, Note_on_c, 0, 42, 63
2, 68055, Note_on_c, 0, 75, 81
2, 68060, Note_on_c, 0, 70, 64
2, 68169, Note_on_c, 0, 42, 0
2, 68175, Note_on_c, 0, 51, 71
2, 68199, Control_c, 0, 64, 49
2, 68219, Control_c, 0, 64, 53
2, 68235, Control_c, 0, 64, 57
2, 68253, Note_on_c, 0, 70, 0
2, 68258, Control_c, 0, 64, 59
2, 68276, Control_c, 0, 64, 60
2, 68281, Note_on_c, 0, 51, 0
2, 68297, Control_c, 0, 64, 61
2, 68313, Control_c, 0, 64, 62
2, 68317, Note_on_c, 0, 41, 72
2, 68322, Note_on_c, 0, 75, 0
2, 68335, Control_c, 0, 64, 64
2, 68355, Control_c, 0, 64, 67
2, 68371, Control_c, 0, 64, 71
2, 68391, Control_c, 0, 64, 74
2, 68409, Control_c, 0, 64, 73
2, 68448, Control_c, 0, 64, 72
2, 68457, Note_on_c, 0, 45, 68
2, 68467, Control_c, 0, 64, 70
2, 68471, Note_on_c, 0, 41, 0
2, 68486, Control_c, 0, 64, 68
2, 68504, Control_c, 0, 64, 66
2, 68525, Control_c, 0, 64, 64
2, 68545, Control_c, 0, 64, 63
2, 68563, Control_c, 0, 64, 62
2, 68575, Note_on_c, 0, 78, 93
2, 68579, Note_on_c, 0, 48, 69
2, 68583, Control_c, 0, 64, 60
2, 68592, Note_on_c, 0, 45, 0
2, 68596, Note_on_c, 0, 69, 59
2, 68601, Control_c, 0, 64, 59
2, 68620, Control_c, 0, 64, 58
2, 68640, Control_c, 0, 64, 57
2, 68662, Control_c, 0, 64, 54
2, 68675, Note_on_c, 0, 48, 0
2, 68680, Control_c, 0, 64, 48
2, 68692, Note_on_c, 0, 51, 68
2, 68699, Control_c, 0, 64, 41
2, 68717, Control_c, 0, 64, 38
2, 68756, Control_c, 0, 64, 42
2, 68775, Control_c, 0, 64, 51
2, 68793, Control_c, 0, 64, 59
2, 68811, Control_c, 0, 64, 64
2, 68832, Control_c, 0, 64, 68
2, 68852, Note_on_c, 0, 49, 66
2, 68852, Note_on_c, 0, 69, 0
2, 68854, Control_c, 0, 64, 72
2, 68859, Note_on_c, 0, 77, 85
2, 68863, Note_on_c, 0, 51, 0
2, 68863, Note_on_c, 0, 70, 67
2, 68870, Control_c, 0, 64, 80
2, 68888, Control_c, 0, 64, 88
2, 68909, Control_c, 0, 64, 92
2, 68957, Note_on_c, 0, 70, 0
2, 68961, Note_on_c, 0, 49, 0
2, 68972, Note_on_c, 0, 78, 0
2, 68976, Note_on_c, 0, 48, 66
2, 69063, Control_c, 0, 64, 91
2, 69082, Control_c, 0, 64, 90
2, 69102, Note_on_c, 0, 48, 0
2, 69106, Control_c, 0, 64, 86
2, 69117, Note_on_c, 0, 46, 71
2, 69121, Control_c, 0, 64, 79
2, 69126, Note_on_c, 0, 72, 74
2, 69126, Note_on_c, 0, 75, 77
2, 69139, Control_c, 0, 64, 69
2, 69158, Control_c, 0, 64, 62
2, 69178, Note_on_c, 0, 77, 0
2, 69182, Control_c, 0, 64, 59
2, 69196, Control_c, 0, 64, 60
2, 69201, Note_on_c, 0, 72, 0
2, 69215, Control_c, 0, 64, 63
2, 69235, Control_c, 0, 64, 66
2, 69240, Note_on_c, 0, 46, 0
2, 69244, Note_on_c, 0, 75, 0
2, 69249, Note_on_c, 0, 45, 64
2, 69294, Control_c, 0, 64, 65
2, 69388, Control_c, 0, 64, 64
2, 69393, Note_on_c, 0, 46, 74
2, 69399, Note_on_c, 0, 74, 87
2, 69413, Control_c, 0, 64, 60
2, 69413, Note_on_c, 0, 45, 0
2, 69413, Note_on_c, 0, 65, 65
2, 69429, Control_c, 0, 64, 52
2, 69434, Note_on_c, 0, 46, 0
2, 69449, Control_c, 0, 64, 37
2, 69468, Control_c, 0, 64, 20
2, 69468, Note_on_c, 0, 65, 0
2, 69486, Control_c, 0, 64, 15
2, 69504, Control_c, 0, 64, 16
2, 69522, Control_c, 0, 64, 22
2, 69542, Control_c, 0, 64, 24
2, 69546, Note_on_c, 0, 71, 62
2, 69581, Note_on_c, 0, 74, 0
2, 69620, Control_c, 0, 64, 26
2, 69640, Control_c, 0, 64, 29
2, 69657, Control_c, 0, 64, 30
2, 69664, Note_on_c, 0, 48, 67
2, 69673, Note_on_c, 0, 70, 70
2, 69679, Note_on_c, 0, 71, 0
2, 69711, Note_on_c, 0, 48, 0
2, 69752, Note_on_c, 0, 70, 0
2, 69790, Note_on_c, 0, 68, 69
2, 69927, Note_on_c, 0, 77, 78
2, 69930, Note_on_c, 0, 50, 73
2, 69936, Note_on_c, 0, 68, 0
2, 69975, Note_on_c, 0, 50, 0
2, 70059, Note_on_c, 0, 77, 0
2, 70073, Note_on_c, 0, 68, 71
2, 70170, Note_on_c, 0, 68, 0
2, 70195, Note_on_c, 0, 46, 58
2, 70204, Note_on_c, 0, 77, 67
2, 70243, Note_on_c, 0, 46, 0
2, 70252, Control_c, 0, 64, 31
2, 70315, Note_on_c, 0, 68, 66
2, 70388, Note_on_c, 0, 68, 0
2, 70449, Note_on_c, 0, 77, 0
2, 70458, Note_on_c, 0, 51, 66
2, 70476, Note_on_c, 0, 67, 65
2, 70534, Note_on_c, 0, 51, 0
2, 70543, Control_c, 0, 64, 32
2, 70577, Note_on_c, 0, 67, 0
2, 70586, Note_on_c, 0, 76, 67
2, 70721, Note_on_c, 0, 76, 0
2, 70728, Note_on_c, 0, 53, 79
2, 70728, Note_on_c, 0, 75, 74
2, 70794, Note_on_c, 0, 53, 0
2, 70865, Note_on_c, 0, 73, 76
2, 70895, Note_on_c, 0, 75, 0
2, 70991, Note_on_c, 0, 82, 79
2, 71003, Note_on_c, 0, 55, 87
2, 71019, Note_on_c, 0, 73, 0
2, 71055, Note_on_c, 0, 55, 0
2, 71112, Note_on_c, 0, 73, 77
2, 71150, Note_on_c, 0, 82, 0
2, 71254, Note_on_c, 0, 82, 73
2, 71257, Note_on_c, 0, 51, 72
2, 71263, Note_on_c, 0, 73, 0
2, 71299, Note_on_c, 0, 51, 0
2, 71328, Control_c, 0, 64, 33
2, 71368, Note_on_c, 0, 73, 68
2, 71409, Note_on_c, 0, 82, 0
2, 71488, Note_on_c, 0, 73, 0
2, 71504, Note_on_c, 0, 56, 75
2, 71509, Note_on_c, 0, 72, 72
2, 71558, Note_on_c, 0, 56, 0
2, 71613, Note_on_c, 0, 72, 0
2, 71634, Note_on_c, 0, 69, 65
2, 71712, Control_c, 0, 64, 34
2, 71763, Note_on_c, 0, 69, 0
2, 71770, Note_on_c, 0, 68, 73
2, 71775, Note_on_c, 0, 58, 84
2, 71808, Control_c, 0, 64, 35
2, 71840, Note_on_c, 0, 58, 0
2, 71876, Note_on_c, 0, 68, 0
2, 71898, Note_on_c, 0, 66, 79
2, 72040, Note_on_c, 0, 60, 88
2, 72040, Note_on_c, 0, 75, 84
2, 72058, Note_on_c, 0, 66, 0
2, 72076, Control_c, 0, 64, 36
2, 72102, Note_on_c, 0, 60, 0
2, 72169, Note_on_c, 0, 66, 81
2, 72185, Note_on_c, 0, 75, 0
2, 72288, Control_c, 0, 64, 37
2, 72309, Note_on_c, 0, 66, 0
2, 72309, Note_on_c, 0, 75, 86
2, 72311, Note_on_c, 0, 56, 84
2, 72327, Control_c, 0, 64, 38
2, 72359, Note_on_c, 0, 56, 0
2, 72423, Note_on_c, 0, 66, 80
2, 72480, Control_c, 0, 64, 39
2, 72498, Control_c, 0, 64, 40
2, 72503, Note_on_c, 0, 66, 0
2, 72533, Note_on_c, 0, 75, 0
2, 72558, Note_on_c, 0, 61, 79
2, 72565, Note_on_c, 0, 65, 80
2, 72627, Note_on_c, 0, 61, 0
2, 72678, Note_on_c, 0, 74, 77
2, 72682, Note_on_c, 0, 65, 0
2, 72822, Note_on_c, 0, 63, 89
2, 72822, Note_on_c, 0, 73, 87
2, 72833, Note_on_c, 0, 74, 0
2, 72885, Note_on_c, 0, 63, 0
2, 72944, Note_on_c, 0, 73, 0
2, 72952, Note_on_c, 0, 71, 86
2, 73085, Note_on_c, 0, 65, 87
2, 73085, Note_on_c, 0, 80, 86
2, 73107, Note_on_c, 0, 71, 0
2, 73149, Note_on_c, 0, 65, 0
2, 73216, Note_on_c, 0, 71, 78
2, 73230, Control_c, 0, 64, 41
2, 73239, Note_on_c, 0, 80, 0
2, 73267, Control_c, 0, 64, 43
2, 73352, Note_on_c, 0, 61, 76
2, 73352, Note_on_c, 0, 80, 79
2, 73356, Note_on_c, 0, 71, 0
2, 73407, Note_on_c, 0, 61, 0
2, 73441, Control_c, 0, 64, 44
2, 73472, Note_on_c, 0, 71, 68
2, 73476, Note_on_c, 0, 80, 0
2, 73480, Control_c, 0, 64, 45
2, 73518, Control_c, 0, 64, 46
2, 73575, Control_c, 0, 64, 47
2, 73614, Note_on_c, 0, 71, 0
2, 73621, Note_on_c, 0, 70, 69
2, 73632, Note_on_c, 0, 66, 82
2, 73673, Control_c, 0, 64, 46
2, 73694, Note_on_c, 0, 70, 0
2, 73759, Note_on_c, 0, 73, 73
2, 73877, Note_on_c, 0, 75, 65
2, 73897, Note_on_c, 0, 73, 0
2, 73976, Control_c, 0, 64, 45
2, 73987, Note_on_c, 0, 66, 0
2, 73999, Note_on_c, 0, 77, 77
2, 74054, Control_c, 0, 64, 44
2, 74142, Note_on_c, 0, 78, 89
2, 74149, Control_c, 0, 64, 43
2, 74163, Note_on_c, 0, 75, 0
2, 74173, Note_on_c, 0, 77, 0
2, 74242, Note_on_c, 0, 78, 0
2, 74284, Note_on_c, 0, 65, 56
2, 74364, Control_c, 0, 64, 42
2, 74390, Note_on_c, 0, 65, 0
2, 74399, Control_c, 0, 64, 43
2, 74415, Note_on_c, 0, 63, 60
2, 74417, Note_on_c, 0, 70, 72
2, 74458, Note_on_c, 0, 70, 0
2, 74552, Note_on_c, 0, 61, 46
2, 74552, Note_on_c, 0, 63, 0
2, 74658, Note_on_c, 0, 61, 0
2, 74682, Note_on_c, 0, 60, 55
2, 74687, Note_on_c, 0, 69, 64
2, 74727, Note_on_c, 0, 69, 0
2, 74802, Note_on_c, 0, 60, 0
2, 74821, Note_on_c, 0, 58, 58
2, 74931, Note_on_c, 0, 78, 72
2, 74962, Note_on_c, 0, 60, 59
2, 74969, Note_on_c, 0, 58, 0
2, 75024, Note_on_c, 0, 78, 0
2, 75061, Note_on_c, 0, 63, 55
2, 75081, Note_on_c, 0, 60, 0
2, 75161, Note_on_c, 0, 63, 0
2, 75183, Note_on_c, 0, 62, 56
2, 75196, Note_on_c, 0, 77, 70
2, 75291, Note_on_c, 0, 77, 0
2, 75298, Note_on_c, 0, 62, 0
2, 75322, Note_on_c, 0, 60, 56
2, 75446, Note_on_c, 0, 60, 0
2, 75469, Note_on_c, 0, 62, 59
2, 75476, Note_on_c, 0, 68, 65
2, 75537, Note_on_c, 0, 68, 0
2, 75557, Note_on_c, 0, 62, 0
2, 75602, Note_on_c, 0, 65, 64
2, 75638, Note_on_c, 0, 65, 0
2, 75729, Note_on_c, 0, 67, 61
2, 75730, Note_on_c, 0, 65, 64
2, 75849, Note_on_c, 0, 70, 52
2, 75863, Note_on_c, 0, 67, 0
2, 75994, Note_on_c, 0, 72, 63
2, 76006, Note_on_c, 0, 63, 60
2, 76025, Note_on_c, 0, 70, 0
2, 76031, Note_on_c, 0, 65, 0
2, 76108, Note_on_c, 0, 63, 0
2, 76138, Note_on_c, 0, 74, 62
2, 76236, Note_on_c, 0, 72, 0
2, 76271, Note_on_c, 0, 75, 61
2, 76276, Note_on_c, 0, 74, 0
2, 76354, Note_on_c, 0, 75, 0
2, 76386, Note_on_c, 0, 61, 63
2, 76506, Note_on_c, 0, 59, 65
2, 76509, Note_on_c, 0, 61, 0
2, 76535, Note_on_c, 0, 66, 66
2, 76590, Note_on_c, 0, 66, 0
2, 76633, Note_on_c, 0, 59, 0
2, 76641, Note_on_c, 0, 58, 60
2, 76749, Note_on_c, 0, 58, 0
2, 76770, Note_on_c, 0, 56, 64
2, 76775, Note_on_c, 0, 65, 62
2, 76827, Note_on_c, 0, 65, 0
2, 76888, Note_on_c, 0, 56, 0
2, 76896, Note_on_c, 0, 55, 62
2, 77020, Note_on_c, 0, 74, 67
2, 77033, Note_on_c, 0, 56, 54
2, 77045, Note_on_c, 0, 55, 0
2, 77085, Note_on_c, 0, 74, 0
2, 77161, Note_on_c, 0, 59, 57
2, 77222, Control_c, 0, 64, 42
2, 77233, Note_on_c, 0, 56, 0
2, 77272, Note_on_c, 0, 59, 0
2, 77277, Note_on_c, 0, 58, 57
2, 77296, Note_on_c, 0, 73, 72
2, 77351, Note_on_c, 0, 73, 0
2, 77386, Note_on_c, 0, 58, 0
2, 77396, Note_on_c, 0, 56, 61
2, 77531, Note_on_c, 0, 56, 0
2, 77544, Note_on_c, 0, 58, 58
2, 77553, Note_on_c, 0, 64, 68
2, 77602, Note_on_c, 0, 64, 0
2, 77647, Control_c, 0, 64, 43
2, 77658, Note_on_c, 0, 58, 0
2, 77665, Note_on_c, 0, 61, 58
2, 77706, Note_on_c, 0, 61, 0
2, 77796, Note_on_c, 0, 61, 64
2, 77809, Note_on_c, 0, 63, 63
2, 77930, Note_on_c, 0, 67, 55
2, 78068, Note_on_c, 0, 59, 61
2, 78078, Note_on_c, 0, 68, 60
2, 78120, Note_on_c, 0, 61, 0
2, 78124, Note_on_c, 0, 67, 0
2, 78127, Note_on_c, 0, 59, 0
2, 78189, Note_on_c, 0, 63, 0
2, 78202, Note_on_c, 0, 70, 59
2, 78313, Note_on_c, 0, 68, 0
2, 78329, Note_on_c, 0, 71, 68
2, 78376, Note_on_c, 0, 70, 0
2, 78413, Note_on_c, 0, 71, 0
2, 78458, Note_on_c, 0, 58, 65
2, 78488, Control_c, 0, 64, 42
2, 78562, Note_on_c, 0, 58, 0
2, 78573, Note_on_c, 0, 56, 65
2, 78602, Note_on_c, 0, 63, 64
2, 78606, Control_c, 0, 64, 43
2, 78651, Note_on_c, 0, 63, 0
2, 78697, Note_on_c, 0, 54, 52
2, 78706, Note_on_c, 0, 56, 0
2, 78758, Control_c, 0, 64, 42
2, 78812, Note_on_c, 0, 54, 0
2, 78829, Note_on_c, 0, 53, 57
2, 78845, Note_on_c, 0, 62, 65
2, 78893, Note_on_c, 0, 62, 0
2, 78942, Note_on_c, 0, 53, 0
2, 78959, Note_on_c, 0, 51, 58
2, 79096, Note_on_c, 0, 71, 67
2, 79104, Note_on_c, 0, 53, 61
2, 79111, Note_on_c, 0, 51, 0
2, 79147, Note_on_c, 0, 71, 0
2, 79220, Note_on_c, 0, 56, 52
2, 79225, Note_on_c, 0, 53, 0
2, 79344, Note_on_c, 0, 56, 0
2, 79348, Note_on_c, 0, 55, 58
2, 79362, Note_on_c, 0, 70, 70
2, 79426, Note_on_c, 0, 70, 0
2, 79474, Note_on_c, 0, 55, 0
2, 79485, Note_on_c, 0, 53, 68
2, 79607, Note_on_c, 0, 53, 0
2, 79620, Note_on_c, 0, 55, 63
2, 79628, Note_on_c, 0, 61, 64
2, 79694, Note_on_c, 0, 61, 0
2, 79704, Note_on_c, 0, 55, 0
2, 79740, Note_on_c, 0, 58, 68
2, 79870, Note_on_c, 0, 51, 66
2, 79874, Note_on_c, 0, 60, 68
2, 79879, Note_on_c, 0, 58, 0
2, 79924, Note_on_c, 0, 60, 0
2, 80016, Note_on_c, 0, 51, 0
2, 80020, Note_on_c, 0, 50, 64
2, 80135, Note_on_c, 0, 69, 69
2, 80141, Note_on_c, 0, 50, 0
2, 80150, Note_on_c, 0, 51, 71
2, 80192, Note_on_c, 0, 69, 0
2, 80238, Note_on_c, 0, 51, 0
2, 80266, Note_on_c, 0, 54, 62
2, 80380, Note_on_c, 0, 54, 0
2, 80389, Note_on_c, 0, 52, 65
2, 80401, Note_on_c, 0, 68, 76
2, 80462, Note_on_c, 0, 68, 0
2, 80504, Note_on_c, 0, 52, 0
2, 80510, Note_on_c, 0, 51, 71
2, 80654, Note_on_c, 0, 52, 68
2, 80663, Note_on_c, 0, 51, 0
2, 80673, Note_on_c, 0, 59, 71
2, 80719, Note_on_c, 0, 59, 0
2, 80761, Note_on_c, 0, 52, 0
2, 80790, Note_on_c, 0, 56, 71
2, 80914, Note_on_c, 0, 56, 0
2, 80918, Note_on_c, 0, 50, 67
2, 80922, Note_on_c, 0, 58, 73
2, 81005, Note_on_c, 0, 58, 0
2, 81057, Note_on_c, 0, 48, 67
2, 81061, Note_on_c, 0, 50, 0
2, 81192, Note_on_c, 0, 68, 81
2, 81200, Note_on_c, 0, 50, 69
2, 81205, Note_on_c, 0, 48, 0
2, 81235, Control_c, 0, 64, 43
2, 81277, Note_on_c, 0, 68, 0
2, 81292, Note_on_c, 0, 50, 0
2, 81312, Note_on_c, 0, 53, 73
2, 81438, Note_on_c, 0, 51, 76
2, 81441, Note_on_c, 0, 53, 0
2, 81451, Note_on_c, 0, 67, 75
2, 81536, Note_on_c, 0, 67, 0
2, 81569, Note_on_c, 0, 51, 0
2, 81573, Note_on_c, 0, 50, 70
2, 81696, Note_on_c, 0, 51, 74
2, 81713, Note_on_c, 0, 50, 0
2, 81727, Note_on_c, 0, 57, 77
2, 81755, Control_c, 0, 64, 44
2, 81800, Note_on_c, 0, 57, 0
2, 81812, Note_on_c, 0, 51, 0
2, 81831, Note_on_c, 0, 54, 78
2, 81969, Note_on_c, 0, 48, 70
2, 81976, Note_on_c, 0, 54, 0
2, 81985, Note_on_c, 0, 56, 80
2, 82060, Control_c, 0, 64, 43
2, 82081, Note_on_c, 0, 56, 0
2, 82096, Note_on_c, 0, 46, 77
2, 82109, Note_on_c, 0, 48, 0
2, 82235, Note_on_c, 0, 48, 75
2, 82237, Note_on_c, 0, 66, 81
2, 82254, Note_on_c, 0, 46, 0
2, 82271, Control_c, 0, 64, 44
2, 82290, Control_c, 0, 64, 45
2, 82309, Control_c, 0, 64, 47
2, 82331, Control_c, 0, 64, 48
2, 82348, Control_c, 0, 64, 49
2, 82358, Note_on_c, 0, 48, 0
2, 82363, Note_on_c, 0, 51, 77
2, 82363, Note_on_c, 0, 66, 0
2, 82482, Control_c, 0, 64, 48
2, 82492, Note_on_c, 0, 49, 70
2, 82502, Note_on_c, 0, 65, 82
2, 82512, Note_on_c, 0, 51, 0
2, 82582, Control_c, 0, 64, 47
2, 82587, Note_on_c, 0, 65, 0
2, 82620, Control_c, 0, 64, 46
2, 82629, Note_on_c, 0, 48, 68
2, 82645, Note_on_c, 0, 49, 0
2, 82754, Control_c, 0, 64, 47
2, 82778, Note_on_c, 0, 49, 77
2, 82778, Note_on_c, 0, 64, 81
2, 82789, Note_on_c, 0, 48, 0
2, 82793, Note_on_c, 0, 56, 64
2, 82796, Control_c, 0, 64, 48
2, 82814, Control_c, 0, 64, 49
2, 82850, Control_c, 0, 64, 51
2, 82869, Control_c, 0, 64, 52
2, 82873, Note_on_c, 0, 56, 0
2, 82891, Note_on_c, 0, 49, 0
2, 82895, Note_on_c, 0, 64, 0
2, 82902, Note_on_c, 0, 52, 75
2, 83004, Control_c, 0, 64, 51
2, 83046, Control_c, 0, 64, 50
2, 83051, Note_on_c, 0, 46, 70
2, 83051, Note_on_c, 0, 52, 0
2, 83051, Note_on_c, 0, 64, 84
2, 83055, Note_on_c, 0, 56, 72
2, 83100, Control_c, 0, 64, 51
2, 83162, Note_on_c, 0, 47, 67
2, 83173, Note_on_c, 0, 46, 0
2, 83178, Note_on_c, 0, 56, 0
2, 83214, Control_c, 0, 64, 50
2, 83264, Note_on_c, 0, 47, 0
2, 83282, Note_on_c, 0, 49, 66
2, 83313, Control_c, 0, 64, 51
2, 83317, Note_on_c, 0, 63, 78
2, 83331, Note_on_c, 0, 55, 50
2, 83350, Control_c, 0, 64, 50
2, 83363, Note_on_c, 0, 49, 0
2, 83377, Note_on_c, 0, 64, 0
2, 83428, Note_on_c, 0, 47, 75
2, 83465, Note_on_c, 0, 55, 0
2, 83469, Control_c, 0, 64, 49
2, 83565, Note_on_c, 0, 49, 72
2, 83565, Note_on_c, 0, 63, 0
2, 83585, Note_on_c, 0, 47, 0
2, 83676, Control_c, 0, 64, 50
2, 83706, Note_on_c, 0, 55, 61
2, 83732, Note_on_c, 0, 49, 0
2, 83811, Control_c, 0, 64, 51
2, 83844, Note_on_c, 0, 58, 74
2, 83909, Note_on_c, 0, 55, 0
2, 83918, Note_on_c, 0, 58, 0
2, 83949, Note_on_c, 0, 49, 73
2, 83965, Control_c, 0, 64, 50
2, 84002, Control_c, 0, 64, 49
2, 84019, Note_on_c, 0, 49, 0
2, 84089, Note_on_c, 0, 68, 80
2, 84094, Note_on_c, 0, 47, 72
2, 84220, Note_on_c, 0, 47, 0
2, 84229, Note_on_c, 0, 46, 70
2, 84229, Note_on_c, 0, 70, 80
2, 84246, Note_on_c, 0, 68, 0
2, 84329, Note_on_c, 0, 70, 0
2, 84343, Note_on_c, 0, 44, 77
2, 84343, Note_on_c, 0, 71, 81
2, 84358, Note_on_c, 0, 46, 0
2, 84405, Control_c, 0, 64, 48
2, 84475, Note_on_c, 0, 73, 89
2, 84480, Note_on_c, 0, 46, 77
2, 84502, Note_on_c, 0, 71, 0
2, 84534, Note_on_c, 0, 44, 0
2, 84584, Note_on_c, 0, 47, 79
2, 84590, Note_on_c, 0, 46, 0
2, 84609, Note_on_c, 0, 75, 84
2, 84647, Note_on_c, 0, 73, 0
2, 84715, Note_on_c, 0, 49, 71
2, 84720, Note_on_c, 0, 71, 76
2, 84720, Note_on_c, 0, 75, 0
2, 84724, Note_on_c, 0, 47, 0
2, 84844, Note_on_c, 0, 51, 79
2, 84850, Note_on_c, 0, 70, 79
2, 84868, Note_on_c, 0, 71, 0
2, 84895, Note_on_c, 0, 49, 0
2, 84974, Note_on_c, 0, 52, 72
2, 84974, Note_on_c, 0, 68, 80
2, 84983, Note_on_c, 0, 51, 0
2, 85021, Note_on_c, 0, 52, 0
2, 85041, Note_on_c, 0, 70, 0
2, 85106, Note_on_c, 0, 52, 81
2, 85117, Note_on_c, 0, 68, 0
2, 85120, Note_on_c, 0, 67, 74
2, 85247, Note_on_c, 0, 68, 77
2, 85256, Note_on_c, 0, 67, 0
2, 85368, Note_on_c, 0, 43, 63
2, 85375, Note_on_c, 0, 70, 78
2, 85393, Note_on_c, 0, 52, 0
2, 85405, Control_c, 0, 64, 49
2, 85410, Note_on_c, 0, 68, 0
2, 85472, Note_on_c, 0, 43, 0
2, 85483, Note_on_c, 0, 70, 0
2, 85501, Note_on_c, 0, 64, 71
2, 85646, Note_on_c, 0, 63, 75
2, 85748, Note_on_c, 0, 64, 0
2, 85760, Note_on_c, 0, 61, 59
2, 85765, Control_c, 0, 64, 48
2, 85784, Control_c, 0, 64, 47
2, 85831, Note_on_c, 0, 63, 0
2, 85845, Control_c, 0, 64, 48
2, 85885, Note_on_c, 0, 59, 61
2, 85893, Note_on_c, 0, 61, 0
2, 86015, Note_on_c, 0, 59, 0
2, 86022, Note_on_c, 0, 58, 59
2, 86142, Note_on_c, 0, 58, 0
2, 86147, Note_on_c, 0, 56, 61
2, 86188, Control_c, 0, 64, 49
2, 86230, Note_on_c, 0, 56, 0
2, 86270, Note_on_c, 0, 63, 58
2, 86283, Control_c, 0, 64, 48
2, 86378, Note_on_c, 0, 63, 0
2, 86403, Note_on_c, 0, 56, 64
2, 86403, Note_on_c, 0, 80, 80
2, 86419, Control_c, 0, 64, 49
2, 86423, Note_on_c, 0, 71, 55
2, 86445, Note_on_c, 0, 80, 0
2, 86454, Note_on_c, 0, 71, 0
2, 86458, Note_on_c, 0, 56, 0
2, 86513, Note_on_c, 0, 63, 68
2, 86622, Note_on_c, 0, 63, 0
2, 86659, Note_on_c, 0, 55, 59
2, 86670, Note_on_c, 0, 80, 87
2, 86683, Note_on_c, 0, 71, 71
2, 86744, Control_c, 0, 64, 48
2, 86769, Note_on_c, 0, 55, 0
2, 86797, Note_on_c, 0, 63, 56
2, 86918, Note_on_c, 0, 63, 0
2, 86945, Note_on_c, 0, 82, 81
2, 86959, Note_on_c, 0, 55, 51
2, 86959, Note_on_c, 0, 73, 52
2, 87009, Note_on_c, 0, 71, 0
2, 87038, Note_on_c, 0, 80, 0
2, 87052, Note_on_c, 0, 55, 0
2, 87070, Note_on_c, 0, 63, 54
2, 87140, Note_on_c, 0, 73, 0
2, 87146, Control_c, 0, 64, 49
2, 87154, Note_on_c, 0, 82, 0
2, 87193, Note_on_c, 0, 63, 0
2, 87216, Note_on_c, 0, 56, 60
2, 87293, Note_on_c, 0, 56, 0
2, 87303, Control_c, 0, 64, 48
2, 87347, Note_on_c, 0, 63, 59
2, 87429, Note_on_c, 0, 63, 0
2, 87469, Note_on_c, 0, 56, 54
2, 87478, Note_on_c, 0, 80, 79
2, 87488, Note_on_c, 0, 71, 66
2, 87514, Note_on_c, 0, 80, 0
2, 87521, Note_on_c, 0, 71, 0
2, 87532, Control_c, 0, 64, 49
2, 87548, Note_on_c, 0, 56, 0
2, 87588, Note_on_c, 0, 63, 56
2, 87608, Control_c, 0, 64, 48
2, 87703, Note_on_c, 0, 63, 0
2, 87721, Note_on_c, 0, 51, 58
2, 87734, Note_on_c, 0, 80, 71
2, 87745, Control_c, 0, 64, 49
2, 87753, Note_on_c, 0, 71, 54
2, 87792, Note_on_c, 0, 71, 0
2, 87828, Note_on_c, 0, 51, 0
2, 87869, Note_on_c, 0, 63, 56
2, 87972, Note_on_c, 0, 63, 0
2, 88004, Note_on_c, 0, 79, 64
2, 88017, Note_on_c, 0, 51, 47
2, 88023, Note_on_c, 0, 70, 55
2, 88061, Note_on_c, 0, 80, 0
2, 88129, Note_on_c, 0, 70, 0
2, 88129, Note_on_c, 0, 79, 0
2, 88140, Note_on_c, 0, 63, 58
2, 88216, Note_on_c, 0, 51, 0
2, 88226, Note_on_c, 0, 63, 0
2, 88254, Note_on_c, 0, 56, 68
2, 88374, Note_on_c, 0, 58, 75
2, 88396, Note_on_c, 0, 67, 61
2, 88424, Note_on_c, 0, 56, 0
2, 88456, Note_on_c, 0, 67, 0
2, 88480, Note_on_c, 0, 58, 0
2, 88487, Note_on_c, 0, 68, 63
2, 88496, Note_on_c, 0, 59, 76
2, 88589, Note_on_c, 0, 68, 0
2, 88603, Note_on_c, 0, 70, 59
2, 88612, Note_on_c, 0, 61, 74
2, 88616, Note_on_c, 0, 59, 0
2, 88670, Note_on_c, 0, 70, 0
2, 88680, Control_c, 0, 64, 50
2, 88696, Note_on_c, 0, 71, 64
2, 88732, Note_on_c, 0, 63, 72
2, 88744, Note_on_c, 0, 61, 0
2, 88783, Note_on_c, 0, 71, 0
2, 88803, Note_on_c, 0, 70, 66
2, 88814, Control_c, 0, 64, 49
2, 88823, Note_on_c, 0, 63, 0
2, 88823, Note_on_c, 0, 68, 66
2, 88858, Note_on_c, 0, 70, 0
2, 88860, Note_on_c, 0, 59, 63
2, 88873, Note_on_c, 0, 68, 0
2, 88979, Note_on_c, 0, 58, 65
2, 88979, Note_on_c, 0, 59, 0
2, 89006, Note_on_c, 0, 76, 73
2, 89017, Note_on_c, 0, 73, 54
2, 89049, Control_c, 0, 64, 50
2, 89053, Note_on_c, 0, 73, 0
2, 89053, Note_on_c, 0, 76, 0
2, 89096, Note_on_c, 0, 56, 61
2, 89109, Note_on_c, 0, 58, 0
2, 89233, Note_on_c, 0, 56, 0
2, 89256, Control_c, 0, 64, 49
2, 89256, Note_on_c, 0, 55, 56
2, 89260, Note_on_c, 0, 76, 59
2, 89272, Note_on_c, 0, 73, 57
2, 89334, Control_c, 0, 64, 50
2, 89371, Note_on_c, 0, 55, 0
2, 89393, Note_on_c, 0, 56, 57
2, 89476, Note_on_c, 0, 56, 0
2, 89511, Note_on_c, 0, 58, 63
2, 89544, Note_on_c, 0, 73, 0
2, 89544, Note_on_c, 0, 75, 67
2, 89550, Note_on_c, 0, 67, 53
2, 89621, Note_on_c, 0, 76, 0
2, 89648, Note_on_c, 0, 58, 0
2, 89652, Note_on_c, 0, 52, 61
2, 89768, Note_on_c, 0, 51, 68
2, 89773, Note_on_c, 0, 52, 0
2, 89806, Note_on_c, 0, 67, 0
2, 89902, Note_on_c, 0, 49, 61
2, 89909, Note_on_c, 0, 51, 0
2, 89918, Note_on_c, 0, 75, 0
2, 89995, Note_on_c, 0, 49, 0
2, 90053, Note_on_c, 0, 47, 61
2, 90169, Note_on_c, 0, 46, 66
2, 90174, Note_on_c, 0, 47, 0
2, 90284, Note_on_c, 0, 46, 0
2, 90297, Note_on_c, 0, 44, 57
2, 90409, Note_on_c, 0, 44, 0
2, 90414, Control_c, 0, 64, 49
2, 90435, Note_on_c, 0, 56, 56
2, 90521, Note_on_c, 0, 56, 0
2, 90547, Note_on_c, 0, 71, 70
2, 90558, Note_on_c, 0, 44, 63
2, 90562, Note_on_c, 0, 68, 56
2, 90604, Control_c, 0, 64, 50
2, 90604, Note_on_c, 0, 68, 0
2, 90604, Note_on_c, 0, 71, 0
2, 90637, Note_on_c, 0, 44, 0
2, 90683, Note_on_c, 0, 56, 59
2, 90744, Note_on_c, 0, 56, 0
2, 90757, Control_c, 0, 64, 49
2, 90809, Note_on_c, 0, 73, 71
2, 90813, Control_c, 0, 64, 50
2, 90816, Note_on_c, 0, 69, 59
2, 90820, Note_on_c, 0, 54, 57
2, 90954, Note_on_c, 0, 54, 0
2, 90959, Note_on_c, 0, 63, 62
2, 91068, Note_on_c, 0, 63, 0
2, 91080, Note_on_c, 0, 54, 60
2, 91085, Note_on_c, 0, 72, 70
2, 91100, Note_on_c, 0, 68, 57
2, 91139, Note_on_c, 0, 69, 0
2, 91197, Note_on_c, 0, 73, 0
2, 91220, Note_on_c, 0, 68, 0
2, 91224, Note_on_c, 0, 63, 54
2, 91255, Control_c, 0, 64, 49
2, 91276, Note_on_c, 0, 72, 0
2, 91330, Note_on_c, 0, 54, 0
2, 91330, Note_on_c, 0, 63, 0
2, 91348, Note_on_c, 0, 52, 72
2, 91426, Control_c, 0, 64, 50
2, 91445, Control_c, 0, 64, 49
2, 91458, Note_on_c, 0, 52, 0
2, 91465, Control_c, 0, 64, 48
2, 91479, Note_on_c, 0, 61, 55
2, 91484, Control_c, 0, 64, 46
2, 91503, Control_c, 0, 64, 45
2, 91610, Note_on_c, 0, 61, 0
2, 91610, Note_on_c, 0, 73, 77
2, 91614, Note_on_c, 0, 52, 68
2, 91614, Note_on_c, 0, 68, 71
2, 91639, Control_c, 0, 64, 46
2, 91650, Note_on_c, 0, 68, 0
2, 91651, Note_on_c, 0, 73, 0
2, 91660, Control_c, 0, 64, 48
2, 91715, Control_c, 0, 64, 49
2, 91734, Note_on_c, 0, 61, 60
2, 91839, Note_on_c, 0, 61, 0
2, 91876, Note_on_c, 0, 51, 66
2, 91876, Note_on_c, 0, 78, 89
2, 91880, Note_on_c, 0, 69, 71
2, 91926, Control_c, 0, 64, 50
2, 91955, Note_on_c, 0, 69, 0
2, 91964, Control_c, 0, 64, 51
2, 92008, Note_on_c, 0, 51, 0
2, 92008, Note_on_c, 0, 52, 0
2, 92013, Note_on_c, 0, 60, 70
2, 92060, Control_c, 0, 64, 52
2, 92137, Note_on_c, 0, 75, 76
2, 92139, Note_on_c, 0, 51, 72
2, 92143, Note_on_c, 0, 60, 0
2, 92158, Note_on_c, 0, 66, 64
2, 92175, Control_c, 0, 64, 51
2, 92254, Note_on_c, 0, 78, 0
2, 92269, Note_on_c, 0, 51, 0
2, 92282, Note_on_c, 0, 66, 0
2, 92284, Note_on_c, 0, 60, 67
2, 92291, Control_c, 0, 64, 50
2, 92329, Control_c, 0, 64, 49
2, 92358, Note_on_c, 0, 60, 0
2, 92363, Note_on_c, 0, 75, 0
2, 92398, Note_on_c, 0, 49, 77
2, 92426, Control_c, 0, 64, 48
2, 92446, Control_c, 0, 64, 46
2, 92464, Control_c, 0, 64, 44
2, 92483, Control_c, 0, 64, 43
2, 92521, Control_c, 0, 64, 44
2, 92526, Note_on_c, 0, 49, 0
2, 92530, Note_on_c, 0, 61, 75
2, 92542, Control_c, 0, 64, 45
2, 92560, Control_c, 0, 64, 44
2, 92646, Note_on_c, 0, 61, 0
2, 92657, Control_c, 0, 64, 45
2, 92661, Note_on_c, 0, 76, 89
2, 92664, Note_on_c, 0, 49, 75
2, 92668, Note_on_c, 0, 68, 83
2, 92677, Control_c, 0, 64, 46
2, 92693, Control_c, 0, 64, 47
2, 92705, Note_on_c, 0, 68, 0
2, 92713, Control_c, 0, 64, 49
2, 92743, Note_on_c, 0, 49, 0
2, 92744, Note_on_c, 0, 76, 0
2, 92778, Note_on_c, 0, 61, 69
2, 92847, Note_on_c, 0, 61, 0
2, 92887, Control_c, 0, 64, 48
2, 92936, Note_on_c, 0, 59, 72
2, 92936, Note_on_c, 0, 74, 86
2, 92936, Note_on_c, 0, 78, 94
2, 93061, Note_on_c, 0, 68, 73
2, 93082, Note_on_c, 0, 59, 0
2, 93117, Control_c, 0, 64, 49
2, 93196, Note_on_c, 0, 68, 0
2, 93198, Note_on_c, 0, 59, 73
2, 93212, Note_on_c, 0, 73, 60
2, 93212, Note_on_c, 0, 77, 81
2, 93232, Control_c, 0, 64, 48
2, 93241, Note_on_c, 0, 74, 0
2, 93330, Note_on_c, 0, 78, 0
2, 93332, Note_on_c, 0, 68, 74
2, 93350, Note_on_c, 0, 73, 0
2, 93373, Note_on_c, 0, 77, 0
2, 93384, Control_c, 0, 64, 49
2, 93420, Note_on_c, 0, 59, 0
2, 93475, Note_on_c, 0, 68, 0
2, 93480, Note_on_c, 0, 58, 83
2, 93484, Control_c, 0, 64, 50
2, 93591, Note_on_c, 0, 67, 72
2, 93616, Note_on_c, 0, 58, 0
2, 93731, Note_on_c, 0, 67, 0
2, 93740, Note_on_c, 0, 76, 81
2, 93744, Note_on_c, 0, 58, 77
2, 93744, Note_on_c, 0, 73, 78
2, 93744, Note_on_c, 0, 82, 83
2, 93788, Control_c, 0, 64, 51
2, 93855, Note_on_c, 0, 75, 78
2, 93857, Note_on_c, 0, 73, 0
2, 93866, Note_on_c, 0, 58, 0
2, 93871, Note_on_c, 0, 67, 68
2, 93895, Note_on_c, 0, 76, 0
2, 93903, Note_on_c, 0, 82, 0
2, 93908, Control_c, 0, 64, 50
2, 93919, Note_on_c, 0, 75, 0
2, 93946, Note_on_c, 0, 67, 0
2, 93979, Control_c, 0, 64, 51
2, 93994, Note_on_c, 0, 56, 85
2, 93994, Note_on_c, 0, 82, 82
2, 94006, Note_on_c, 0, 73, 81
2, 94006, Note_on_c, 0, 76, 81
2, 94018, Control_c, 0, 64, 52
2, 94053, Note_on_c, 0, 73, 0
2, 94053, Note_on_c, 0, 76, 0
2, 94071, Note_on_c, 0, 82, 0
2, 94075, Control_c, 0, 64, 51
2, 94097, Note_on_c, 0, 56, 0
2, 94106, Note_on_c, 0, 68, 75
2, 94241, Note_on_c, 0, 68, 0
2, 94267, Note_on_c, 0, 56, 74
2, 94267, Note_on_c, 0, 76, 85
2, 94267, Note_on_c, 0, 82, 87
2, 94271, Note_on_c, 0, 73, 83
2, 94311, Note_on_c, 0, 73, 0
2, 94322, Note_on_c, 0, 76, 0
2, 94329, Note_on_c, 0, 56, 0
2, 94361, Note_on_c, 0, 82, 0
2, 94370, Note_on_c, 0, 68, 76
2, 94493, Note_on_c, 0, 68, 0
2, 94532, Note_on_c, 0, 76, 78
2, 94539, Note_on_c, 0, 67, 61
2, 94539, Note_on_c, 0, 82, 87
2, 94543, Note_on_c, 0, 73, 87
2, 94594, Control_c, 0, 64, 50
2, 94633, Control_c, 0, 64, 49
2, 94646, Note_on_c, 0, 67, 0
2, 94654, Note_on_c, 0, 68, 79
2, 94693, Control_c, 0, 64, 50
2, 94749, Control_c, 0, 64, 51
2, 94783, Note_on_c, 0, 68, 0
2, 94792, Note_on_c, 0, 70, 69
2, 94841, Note_on_c, 0, 73, 0
2, 94873, Note_on_c, 0, 76, 0
2, 94893, Note_on_c, 0, 82, 0
2, 94917, Note_on_c, 0, 70, 0
2, 94931, Note_on_c, 0, 64, 73
2, 95055, Control_c, 0, 64, 50
2, 95067, Note_on_c, 0, 63, 67
2, 95074, Note_on_c, 0, 64, 0
2, 95133, Control_c, 0, 64, 49
2, 95188, Note_on_c, 0, 76, 88
2, 95207, Note_on_c, 0, 61, 72
2, 95207, Note_on_c, 0, 63, 0
2, 95247, Control_c, 0, 64, 48
2, 95290, Note_on_c, 0, 61, 0
2, 95304, Control_c, 0, 64, 49
2, 95317, Note_on_c, 0, 75, 79
2, 95335, Note_on_c, 0, 59, 72
2, 95346, Note_on_c, 0, 76, 0
2, 95442, Note_on_c, 0, 73, 80
2, 95451, Note_on_c, 0, 59, 0
2, 95463, Note_on_c, 0, 58, 59
2, 95490, Note_on_c, 0, 75, 0
2, 95569, Note_on_c, 0, 56, 82
2, 95578, Note_on_c, 0, 73, 0
2, 95586, Note_on_c, 0, 71, 76
2, 95590, Note_on_c, 0, 58, 0
2, 95601, Note_on_c, 0, 56, 0
2, 95614, Control_c, 0, 64, 50
2, 95701, Note_on_c, 0, 71, 0
2, 95710, Control_c, 0, 64, 49
2, 95710, Note_on_c, 0, 73, 73
2, 95829, Note_on_c, 0, 73, 0
2, 95836, Note_on_c, 0, 75, 75
2, 95858, Note_on_c, 0, 59, 78
2, 95890, Note_on_c, 0, 59, 0
2, 95909, Note_on_c, 0, 75, 0
2, 95964, Note_on_c, 0, 68, 72
2, 96016, Control_c, 0, 64, 50
2, 96107, Note_on_c, 0, 61, 78
2, 96111, Note_on_c, 0, 68, 0
2, 96111, Note_on_c, 0, 71, 71
2, 96144, Note_on_c, 0, 61, 0
2, 96187, Control_c, 0, 64, 49
2, 96240, Note_on_c, 0, 70, 74
2, 96249, Note_on_c, 0, 71, 0
2, 96361, Note_on_c, 0, 68, 67
2, 96376, Note_on_c, 0, 63, 75
2, 96397, Note_on_c, 0, 70, 0
2, 96408, Note_on_c, 0, 63, 0
2, 96480, Note_on_c, 0, 68, 0
2, 96510, Note_on_c, 0, 67, 59
2, 96645, Note_on_c, 0, 68, 73
2, 96649, Note_on_c, 0, 67, 0
2, 96654, Note_on_c, 0, 64, 92
2, 96715, Note_on_c, 0, 64, 0
2, 96765, Note_on_c, 0, 71, 67
2, 96785, Control_c, 0, 64, 48
2, 96792, Note_on_c, 0, 68, 0
2, 96904, Note_on_c, 0, 71, 0
2, 96931, Note_on_c, 0, 52, 74
2, 96931, Note_on_c, 0, 68, 65
2, 96955, Control_c, 0, 64, 49
2, 96978, Note_on_c, 0, 52, 0
2, 97020, Note_on_c, 0, 68, 0
2, 97024, Note_on_c, 0, 71, 65
2, 97141, Note_on_c, 0, 71, 0
2, 97172, Note_on_c, 0, 66, 70
2, 97286, Note_on_c, 0, 75, 70
2, 97293, Note_on_c, 0, 66, 0
2, 97427, Note_on_c, 0, 75, 0
2, 97438, Note_on_c, 0, 66, 69
2, 97443, Note_on_c, 0, 57, 88
2, 97451, Note_on_c, 0, 48, 72
2, 97457, Note_on_c, 0, 51, 71
2, 97487, Note_on_c, 0, 57, 0
2, 97496, Note_on_c, 0, 48, 0
2, 97500, Note_on_c, 0, 51, 0
2, 97566, Note_on_c, 0, 75, 71
2, 97572, Note_on_c, 0, 66, 0
2, 97590, Control_c, 0, 64, 48
2, 97665, Note_on_c, 0, 75, 0
2, 97706, Control_c, 0, 64, 49
2, 97716, Note_on_c, 0, 65, 67
2, 97820, Control_c, 0, 64, 48
2, 97836, Note_on_c, 0, 73, 72
2, 97848, Note_on_c, 0, 65, 0
2, 97877, Control_c, 0, 64, 47
2, 97914, Control_c, 0, 64, 48
2, 97954, Control_c, 0, 64, 49
2, 97979, Note_on_c, 0, 73, 0
2, 97981, Note_on_c, 0, 49, 68
2, 97981, Note_on_c, 0, 56, 76
2, 97981, Note_on_c, 0, 65, 70
2, 98068, Note_on_c, 0, 65, 0
2, 98081, Note_on_c, 0, 56, 0
2, 98085, Note_on_c, 0, 51, 74
2, 98101, Note_on_c, 0, 73, 74
2, 98118, Note_on_c, 0, 49, 0
2, 98146, Control_c, 0, 64, 48
2, 98185, Control_c, 0, 64, 49
2, 98225, Note_on_c, 0, 73, 0
2, 98233, Note_on_c, 0, 53, 68
2, 98233, Note_on_c, 0, 56, 85
2, 98239, Note_on_c, 0, 61, 68
2, 98253, Note_on_c, 0, 51, 0
2, 98281, Note_on_c, 0, 56, 0
2, 98285, Note_on_c, 0, 61, 0
2, 98294, Note_on_c, 0, 53, 0
2, 98320, Control_c, 0, 64, 48
2, 98339, Control_c, 0, 64, 47
2, 98357, Note_on_c, 0, 71, 66
2, 98376, Control_c, 0, 64, 46
2, 98499, Note_on_c, 0, 53, 65
2, 98499, Note_on_c, 0, 71, 0
2, 98505, Note_on_c, 0, 56, 71
2, 98510, Control_c, 0, 64, 47
2, 98522, Note_on_c, 0, 61, 65
2, 98541, Note_on_c, 0, 56, 0
2, 98545, Note_on_c, 0, 53, 0
2, 98632, Note_on_c, 0, 61, 0
2, 98643, Note_on_c, 0, 71, 68
2, 98781, Note_on_c, 0, 52, 73
2, 98781, Note_on_c, 0, 54, 73
2, 98781, Note_on_c, 0, 66, 72
2, 98781, Note_on_c, 0, 71, 0
2, 98874, Control_c, 0, 64, 46
2, 98886, Note_on_c, 0, 70, 74
2, 98902, Note_on_c, 0, 66, 0
2, 98934, Note_on_c, 0, 54, 0
2, 98970, Note_on_c, 0, 52, 0
2, 99032, Note_on_c, 0, 42, 69
2, 99037, Note_on_c, 0, 70, 0
2, 99051, Note_on_c, 0, 66, 68
2, 99069, Control_c, 0, 64, 47
2, 99084, Note_on_c, 0, 42, 0
2, 99158, Note_on_c, 0, 70, 56
2, 99178, Note_on_c, 0, 66, 0
2, 99280, Note_on_c, 0, 70, 0
2, 99307, Note_on_c, 0, 64, 62
2, 99414, Note_on_c, 0, 64, 0
2, 99421, Note_on_c, 0, 73, 64
2, 99491, Control_c, 0, 64, 46
2, 99535, Note_on_c, 0, 73, 0
2, 99562, Note_on_c, 0, 55, 78
2, 99567, Note_on_c, 0, 64, 70
2, 99571, Note_on_c, 0, 49, 68
2, 99575, Note_on_c, 0, 46, 65
2, 99600, Note_on_c, 0, 55, 0
2, 99605, Control_c, 0, 64, 47
2, 99622, Note_on_c, 0, 46, 0
2, 99622, Note_on_c, 0, 49, 0
2, 99684, Control_c, 0, 64, 46
2, 99686, Note_on_c, 0, 64, 0
2, 99686, Note_on_c, 0, 73, 69
2, 99759, Control_c, 0, 64, 47
2, 99805, Note_on_c, 0, 73, 0
2, 99833, Note_on_c, 0, 63, 73
2, 99954, Note_on_c, 0, 71, 70
2, 99958, Note_on_c, 0, 63, 0
2, 100067, Control_c, 0, 64, 48
2, 100086, Note_on_c, 0, 71, 0
2, 100095, Note_on_c, 0, 47, 63
2, 100095, Note_on_c, 0, 54, 73
2, 100095, Note_on_c, 0, 63, 68
2, 100144, Control_c, 0, 64, 47
2, 100196, Note_on_c, 0, 63, 0
2, 100205, Note_on_c, 0, 47, 0
2, 100205, Note_on_c, 0, 71, 65
2, 100210, Note_on_c, 0, 49, 72
2, 100210, Note_on_c, 0, 54, 0
2, 100324, Note_on_c, 0, 71, 0
2, 100345, Note_on_c, 0, 51, 74
2, 100345, Note_on_c, 0, 54, 78
2, 100345, Note_on_c, 0, 59, 73
2, 100379, Note_on_c, 0, 49, 0
2, 100387, Note_on_c, 0, 51, 0
2, 100399, Note_on_c, 0, 54, 0
2, 100432, Control_c, 0, 64, 46
2, 100465, Note_on_c, 0, 59, 0
2, 100478, Note_on_c, 0, 70, 55
2, 100584, Note_on_c, 0, 70, 0
2, 100601, Note_on_c, 0, 54, 74
2, 100607, Note_on_c, 0, 59, 70
2, 100611, Note_on_c, 0, 51, 65
2, 100622, Control_c, 0, 64, 47
2, 100645, Control_c, 0, 64, 48
2, 100649, Note_on_c, 0, 54, 0
2, 100663, Note_on_c, 0, 51, 0
2, 100705, Note_on_c, 0, 59, 0
2, 100729, Note_on_c, 0, 70, 66
2, 100816, Control_c, 0, 64, 47
2, 100873, Note_on_c, 0, 70, 0
2, 100882, Note_on_c, 0, 64, 70
2, 100887, Note_on_c, 0, 51, 62
2, 100895, Note_on_c, 0, 52, 59
2, 100934, Note_on_c, 0, 51, 0
2, 100995, Note_on_c, 0, 68, 67
2, 101016, Note_on_c, 0, 64, 0
2, 101122, Note_on_c, 0, 52, 0
2, 101131, Note_on_c, 0, 68, 0
2, 101151, Note_on_c, 0, 40, 60
2, 101167, Note_on_c, 0, 64, 69
2, 101189, Note_on_c, 0, 40, 0
2, 101272, Note_on_c, 0, 68, 74
2, 101276, Note_on_c, 0, 64, 0
2, 101425, Note_on_c, 0, 63, 72
2, 101425, Note_on_c, 0, 68, 0
2, 101537, Note_on_c, 0, 71, 77
2, 101551, Note_on_c, 0, 63, 0
2, 101675, Note_on_c, 0, 54, 79
2, 101675, Note_on_c, 0, 71, 0
2, 101679, Note_on_c, 0, 63, 74
2, 101684, Note_on_c, 0, 44, 67
2, 101684, Note_on_c, 0, 47, 71
2, 101731, Note_on_c, 0, 47, 0
2, 101731, Note_on_c, 0, 54, 0
2, 101736, Note_on_c, 0, 44, 0
2, 101803, Note_on_c, 0, 63, 0
2, 101803, Note_on_c, 0, 71, 75
2, 101915, Note_on_c, 0, 71, 0
2, 101947, Note_on_c, 0, 62, 74
2, 102069, Note_on_c, 0, 70, 75
2, 102086, Note_on_c, 0, 62, 0
2, 102199, Control_c, 0, 64, 48
2, 102205, Note_on_c, 0, 46, 70
2, 102205, Note_on_c, 0, 53, 75
2, 102216, Note_on_c, 0, 62, 76
2, 102220, Note_on_c, 0, 70, 0
2, 102307, Note_on_c, 0, 62, 0
2, 102334, Note_on_c, 0, 70, 72
2, 102338, Note_on_c, 0, 48, 67
2, 102353, Note_on_c, 0, 53, 0
2, 102362, Note_on_c, 0, 46, 0
2, 102450, Note_on_c, 0, 70, 0
2, 102466, Control_c, 0, 64, 49
2, 102473, Note_on_c, 0, 53, 82
2, 102477, Note_on_c, 0, 50, 64
2, 102477, Note_on_c, 0, 58, 81
2, 102482, Note_on_c, 0, 48, 0
2, 102519, Note_on_c, 0, 53, 0
2, 102526, Note_on_c, 0, 50, 0
2, 102617, Note_on_c, 0, 68, 78
2, 102627, Note_on_c, 0, 58, 0
2, 102747, Note_on_c, 0, 52, 66
2, 102757, Note_on_c, 0, 68, 0
2, 102763, Note_on_c, 0, 58, 76
2, 102768, Note_on_c, 0, 49, 53
2, 102818, Note_on_c, 0, 52, 0
2, 102898, Note_on_c, 0, 68, 72
2, 102907, Note_on_c, 0, 58, 0
2, 102947, Control_c, 0, 64, 48
2, 103070, Note_on_c, 0, 67, 71
2, 103074, Note_on_c, 0, 51, 55
2, 103088, Note_on_c, 0, 49, 0
2, 103109, Note_on_c, 0, 68, 0
2, 103212, Note_on_c, 0, 67, 0
2, 103246, Note_on_c, 0, 63, 69
2, 103319, Control_c, 0, 64, 49
2, 103423, Note_on_c, 0, 47, 53
2, 103425, Note_on_c, 0, 68, 81
2, 103435, Note_on_c, 0, 51, 0
2, 103472, Control_c, 0, 64, 48
2, 103598, Note_on_c, 0, 47, 0
2, 103598, Note_on_c, 0, 70, 86
2, 103612, Note_on_c, 0, 49, 56
2, 103687, Note_on_c, 0, 63, 0
2, 103788, Note_on_c, 0, 71, 87
2, 103792, Note_on_c, 0, 51, 63
2, 103801, Note_on_c, 0, 49, 0
2, 103835, Note_on_c, 0, 51, 0
2, 103846, Note_on_c, 0, 70, 0
2, 103950, Control_c, 0, 64, 47
2, 103987, Note_on_c, 0, 63, 64
2, 104173, Note_on_c, 0, 39, 50
2, 104173, Note_on_c, 0, 63, 0
2, 104173, Note_on_c, 0, 70, 76
2, 104181, Note_on_c, 0, 67, 61
2, 104223, Note_on_c, 0, 68, 0
2, 104225, Note_on_c, 0, 71, 0
2, 104268, Note_on_c, 0, 39, 0
2, 104411, Note_on_c, 0, 61, 54
2, 104689, Note_on_c, 0, 67, 0
2, 104691, Note_on_c, 0, 44, 42
2, 104696, Note_on_c, 0, 61, 0
2, 104700, Control_c, 0, 64, 48
2, 104814, Control_c, 0, 64, 47
2, 105355, Note_on_c, 0, 68, 57
2, 105368, Note_on_c, 0, 59, 32
2, 105375, Note_on_c, 0, 63, 36
2, 105545, Control_c, 0, 64, 46
2, 105948, Control_c, 0, 64, 47
2, 105984, Control_c, 0, 64, 46
2, 106020, Note_on_c, 0, 47, 45
2, 106119, Note_on_c, 0, 51, 45
2, 106123, Note_on_c, 0, 70, 0
2, 106237, Note_on_c, 0, 44, 0
2, 106242, Note_on_c, 0, 47, 0
2, 106258, Note_on_c, 0, 56, 42
2, 106296, Note_on_c, 0, 51, 0
2, 106612, Note_on_c, 0, 68, 0
2, 106659, Note_on_c, 0, 59, 0
2, 106668, Note_on_c, 0, 63, 0
2, 107098, Control_c, 0, 64, 45
2, 107445, Control_c, 0, 64, 44
2, 107503, Control_c, 0, 64, 43
2, 108039, Control_c, 0, 64, 44
2, 108156, Control_c, 0, 64, 45
2, 108419, Note_on_c, 0, 56, 0
2, 108579, Control_c, 0, 64, 44
2, 108923, Control_c, 0, 64, 43
2, 108980, Control_c, 0, 64, 42
2, 109000, Control_c, 0, 64, 41
2, 109904, Control_c, 0, 64, 42
2, 110576, Control_c, 0, 64, 41
2, 111583, Note_on_c, 0, 68, 52
2, 111612, Control_c, 0, 64, 42
2, 112016, Note_on_c, 0, 70, 59
2, 112356, Note_on_c, 0, 68, 0
2, 112441, Note_on_c, 0, 71, 65
2, 112553, Note_on_c, 0, 70, 0
2, 112873, Note_on_c, 0, 70, 60
2, 113004, Note_on_c, 0, 71, 0
2, 113301, Note_on_c, 0, 75, 63
2, 113451, Note_on_c, 0, 70, 0
2, 113719, Note_on_c, 0, 63, 51
2, 113835, Note_on_c, 0, 75, 0
2, 114148, Note_on_c, 0, 68, 53
2, 114303, Note_on_c, 0, 63, 0
2, 114545, Note_on_c, 0, 71, 58
2, 114684, Note_on_c, 0, 68, 0
2, 114797, Control_c, 0, 64, 43
2, 114950, Note_on_c, 0, 70, 58
2, 115048, Note_on_c, 0, 71, 0
2, 115144, Control_c, 0, 64, 44
2, 115360, Note_on_c, 0, 71, 52
2, 115427, Note_on_c, 0, 70, 0
2, 115704, Control_c, 0, 64, 45
2, 115775, Note_on_c, 0, 70, 47
2, 116094, Note_on_c, 0, 71, 0
2, 116174, Note_on_c, 0, 68, 45
2, 116270, Note_on_c, 0, 70, 0
2, 116579, Note_on_c, 0, 70, 42
2, 116671, Note_on_c, 0, 68, 0
2, 116911, Control_c, 0, 64, 46
2, 116978, Note_on_c, 0, 71, 57
2, 117031, Note_on_c, 0, 70, 0
2, 117366, Note_on_c, 0, 73, 62
2, 117470, Note_on_c, 0, 71, 0
2, 117769, Note_on_c, 0, 71, 57
2, 117888, Note_on_c, 0, 73, 0
2, 118162, Note_on_c, 0, 76, 59
2, 118287, Note_on_c, 0, 71, 0
2, 118547, Note_on_c, 0, 68, 55
2, 118640, Note_on_c, 0, 76, 0
2, 118832, Control_c, 0, 64, 45
2, 118947, Note_on_c, 0, 70, 46
2, 119021, Note_on_c, 0, 68, 0
2, 119332, Note_on_c, 0, 73, 53
2, 119440, Note_on_c, 0, 70, 0
2, 119736, Note_on_c, 0, 71, 54
2, 119770, Control_c, 0, 64, 46
2, 119805, Note_on_c, 0, 73, 0
2, 120132, Note_on_c, 0, 73, 50
2, 120235, Note_on_c, 0, 71, 0
2, 120515, Note_on_c, 0, 71, 39
2, 120635, Note_on_c, 0, 73, 0
2, 120692, Control_c, 0, 64, 45
2, 120900, Note_on_c, 0, 70, 43
2, 120990, Note_on_c, 0, 71, 0
2, 121305, Note_on_c, 0, 63, 47
2, 121316, Note_on_c, 0, 71, 41
2, 121408, Note_on_c, 0, 70, 0
2, 121698, Note_on_c, 0, 65, 58
2, 121787, Control_c, 0, 64, 46
2, 121809, Note_on_c, 0, 63, 0
2, 121902, Control_c, 0, 64, 45
2, 122095, Note_on_c, 0, 72, 49
2, 122099, Note_on_c, 0, 66, 60
2, 122159, Note_on_c, 0, 65, 0
2, 122308, Note_on_c, 0, 71, 0
2, 122401, Control_c, 0, 64, 44
2, 122495, Note_on_c, 0, 73, 56
2, 122502, Note_on_c, 0, 65, 61
2, 122569, Note_on_c, 0, 66, 0
2, 122636, Note_on_c, 0, 72, 0
2, 122909, Note_on_c, 0, 70, 63
2, 123303, Note_on_c, 0, 58, 45
2, 123364, Note_on_c, 0, 70, 0
2, 123702, Note_on_c, 0, 63, 51
2, 123782, Note_on_c, 0, 65, 0
2, 123799, Note_on_c, 0, 58, 0
2, 124079, Note_on_c, 0, 66, 51
2, 124190, Note_on_c, 0, 63, 0
2, 124473, Note_on_c, 0, 65, 51
2, 124534, Note_on_c, 0, 66, 0
2, 124893, Note_on_c, 0, 66, 47
2, 124897, Note_on_c, 0, 72, 52
2, 124919, Note_on_c, 0, 65, 0
2, 125121, Note_on_c, 0, 73, 0
2, 125284, Note_on_c, 0, 65, 49
2, 125415, Note_on_c, 0, 66, 0
2, 125569, Control_c, 0, 64, 45
2, 125677, Note_on_c, 0, 63, 51
2, 125730, Note_on_c, 0, 65, 0
2, 126083, Note_on_c, 0, 73, 57
2, 126087, Note_on_c, 0, 65, 39
2, 126158, Note_on_c, 0, 63, 0
2, 126275, Note_on_c, 0, 72, 0
2, 126462, Note_on_c, 0, 66, 61
2, 126491, Control_c, 0, 64, 46
2, 126534, Note_on_c, 0, 65, 0
2, 126683, Control_c, 0, 64, 47
2, 126738, Control_c, 0, 64, 48
2, 126758, Control_c, 0, 64, 47
2, 126887, Note_on_c, 0, 68, 71
2, 126898, Note_on_c, 0, 74, 61
2, 126963, Note_on_c, 0, 66, 0
2, 126972, Note_on_c, 0, 73, 0
2, 127304, Note_on_c, 0, 75, 64
2, 127307, Note_on_c, 0, 66, 62
2, 127413, Note_on_c, 0, 68, 0
2, 127466, Note_on_c, 0, 74, 0
2, 127701, Note_on_c, 0, 71, 63
2, 127988, Control_c, 0, 64, 48
2, 128076, Note_on_c, 0, 63, 57
2, 128154, Note_on_c, 0, 71, 0
2, 128158, Note_on_c, 0, 66, 0
2, 128163, Control_c, 0, 64, 49
2, 128473, Note_on_c, 0, 65, 49
2, 128549, Note_on_c, 0, 63, 0
2, 128877, Note_on_c, 0, 68, 58
2, 128888, Note_on_c, 0, 65, 0
2, 129252, Note_on_c, 0, 66, 47
2, 129282, Note_on_c, 0, 68, 0
2, 129641, Note_on_c, 0, 74, 54
2, 129646, Note_on_c, 0, 68, 53
2, 129662, Note_on_c, 0, 66, 0
2, 129883, Note_on_c, 0, 75, 0
2, 129945, Control_c, 0, 64, 48
2, 130013, Note_on_c, 0, 66, 49
2, 130131, Note_on_c, 0, 68, 0
2, 130418, Note_on_c, 0, 65, 45
2, 130488, Note_on_c, 0, 66, 0
2, 130804, Note_on_c, 0, 66, 41
2, 130836, Note_on_c, 0, 75, 54
2, 130900, Note_on_c, 0, 65, 0
2, 130909, Note_on_c, 0, 74, 0
2, 131223, Note_on_c, 0, 73, 64
2, 131368, Note_on_c, 0, 75, 0
2, 131605, Note_on_c, 0, 67, 55
2, 131695, Note_on_c, 0, 66, 0
2, 131808, Control_c, 0, 64, 49
2, 132023, Note_on_c, 0, 68, 58
2, 132039, Control_c, 0, 64, 50
2, 132111, Note_on_c, 0, 67, 0
2, 132413, Note_on_c, 0, 70, 46
2, 132457, Note_on_c, 0, 73, 0
2, 132480, Control_c, 0, 64, 51
2, 132799, Note_on_c, 0, 66, 43
2, 132802, Note_on_c, 0, 72, 58
2, 132895, Note_on_c, 0, 68, 0
2, 132912, Note_on_c, 0, 70, 0
2, 133191, Note_on_c, 0, 73, 58
2, 133207, Note_on_c, 0, 64, 43
2, 133254, Note_on_c, 0, 72, 0
2, 133299, Note_on_c, 0, 66, 0
2, 133460, Control_c, 0, 64, 52
2, 133593, Note_on_c, 0, 71, 58
2, 133755, Note_on_c, 0, 73, 0
2, 133970, Note_on_c, 0, 65, 50
2, 134027, Note_on_c, 0, 64, 0
2, 134355, Note_on_c, 0, 66, 53
2, 134400, Control_c, 0, 64, 53
2, 134466, Note_on_c, 0, 65, 0
2, 134734, Note_on_c, 0, 68, 45
2, 134823, Note_on_c, 0, 71, 0
2, 135116, Note_on_c, 0, 70, 55
2, 135132, Note_on_c, 0, 64, 45
2, 135197, Note_on_c, 0, 66, 0
2, 135204, Note_on_c, 0, 68, 0
2, 135515, Note_on_c, 0, 71, 66
2, 135531, Note_on_c, 0, 63, 40
2, 135588, Note_on_c, 0, 64, 0
2, 135649, Control_c, 0, 64, 52
2, 135757, Note_on_c, 0, 70, 0
2, 135932, Note_on_c, 0, 68, 54
2, 135937, Note_on_c, 0, 63, 0
2, 136051, Control_c, 0, 64, 53
2, 136299, Note_on_c, 0, 56, 50
2, 136347, Note_on_c, 0, 68, 0
2, 136688, Note_on_c, 0, 61, 47
2, 136742, Control_c, 0, 64, 52
2, 136791, Note_on_c, 0, 56, 0
2, 137086, Note_on_c, 0, 70, 48
2, 137155, Note_on_c, 0, 71, 0
2, 137262, Control_c, 0, 64, 51
2, 137482, Note_on_c, 0, 73, 54
2, 137599, Note_on_c, 0, 70, 0
2, 137606, Control_c, 0, 64, 50
2, 137838, Control_c, 0, 64, 49
2, 137883, Note_on_c, 0, 67, 49
2, 137980, Note_on_c, 0, 73, 0
2, 138262, Note_on_c, 0, 75, 60
2, 138359, Note_on_c, 0, 67, 0
2, 138651, Note_on_c, 0, 68, 56
2, 138662, Note_on_c, 0, 59, 43
2, 138697, Note_on_c, 0, 61, 0
2, 138719, Note_on_c, 0, 75, 0
2, 139053, Note_on_c, 0, 73, 60
2, 139067, Note_on_c, 0, 58, 38
2, 139071, Control_c, 0, 64, 50
2, 139148, Note_on_c, 0, 68, 0
2, 139180, Control_c, 0, 64, 51
2, 139185, Note_on_c, 0, 59, 0
2, 139219, Control_c, 0, 64, 52
2, 139259, Control_c, 0, 64, 53
2, 139295, Control_c, 0, 64, 55
2, 139316, Control_c, 0, 64, 56
2, 139335, Control_c, 0, 64, 57
2, 139393, Control_c, 0, 64, 58
2, 139432, Control_c, 0, 64, 59
2, 139446, Note_on_c, 0, 68, 47
2, 139450, Control_c, 0, 64, 60
2, 139468, Control_c, 0, 64, 61
2, 139489, Control_c, 0, 64, 62
2, 139528, Control_c, 0, 64, 63
2, 139546, Control_c, 0, 64, 65
2, 139566, Control_c, 0, 64, 66
2, 139585, Control_c, 0, 64, 70
2, 139603, Control_c, 0, 64, 75
2, 139623, Control_c, 0, 64, 80
2, 139641, Control_c, 0, 64, 85
2, 139662, Control_c, 0, 64, 89
2, 139665, Note_on_c, 0, 58, 0
2, 139680, Control_c, 0, 64, 92
2, 139699, Control_c, 0, 64, 94
2, 139718, Control_c, 0, 64, 95
2, 139778, Control_c, 0, 64, 96
2, 139834, Control_c, 0, 64, 97
2, 139854, Note_on_c, 0, 67, 46
2, 139872, Control_c, 0, 64, 98
2, 139893, Control_c, 0, 64, 99
2, 139913, Note_on_c, 0, 68, 0
2, 140046, Control_c, 0, 64, 97
2, 140065, Control_c, 0, 64, 95
2, 140082, Control_c, 0, 64, 91
2, 140103, Control_c, 0, 64, 86
2, 140123, Control_c, 0, 64, 83
2, 140139, Control_c, 0, 64, 80
2, 140162, Control_c, 0, 64, 79
2, 140178, Control_c, 0, 64, 78
2, 140218, Control_c, 0, 64, 76
2, 140236, Control_c, 0, 64, 74
2, 140255, Control_c, 0, 64, 72
2, 140259, Note_on_c, 0, 56, 57
2, 140278, Control_c, 0, 64, 70
2, 140278, Note_on_c, 0, 68, 49
2, 140296, Control_c, 0, 64, 69
2, 140333, Control_c, 0, 64, 68
2, 140354, Note_on_c, 0, 67, 0
2, 140373, Control_c, 0, 64, 66
2, 140391, Control_c, 0, 64, 65
2, 140410, Control_c, 0, 64, 63
2, 140429, Control_c, 0, 64, 62
2, 140525, Control_c, 0, 64, 61
2, 140547, Control_c, 0, 64, 60
2, 140649, Note_on_c, 0, 76, 57
2, 140655, Control_c, 0, 64, 59
2, 140660, Note_on_c, 0, 58, 64
2, 140717, Note_on_c, 0, 73, 0
2, 140792, Control_c, 0, 64, 58
2, 140814, Note_on_c, 0, 56, 0
2, 140830, Control_c, 0, 64, 57
2, 140887, Control_c, 0, 64, 56
2, 140927, Control_c, 0, 64, 55
2, 140983, Control_c, 0, 64, 54
2, 141021, Control_c, 0, 64, 53
2, 141040, Control_c, 0, 64, 52
2, 141045, Note_on_c, 0, 59, 61
2, 141060, Control_c, 0, 64, 51
2, 141075, Note_on_c, 0, 75, 53
2, 141079, Control_c, 0, 64, 49
2, 141098, Control_c, 0, 64, 47
2, 141116, Control_c, 0, 64, 46
2, 141122, Note_on_c, 0, 58, 0
2, 141136, Control_c, 0, 64, 45
2, 141156, Control_c, 0, 64, 43
2, 141178, Control_c, 0, 64, 42
2, 141248, Note_on_c, 0, 76, 0
2, 141290, Control_c, 0, 64, 43
2, 141309, Control_c, 0, 64, 47
2, 141329, Control_c, 0, 64, 53
2, 141348, Control_c, 0, 64, 57
2, 141367, Control_c, 0, 64, 58
2, 141404, Control_c, 0, 64, 59
2, 141424, Control_c, 0, 64, 61
2, 141438, Note_on_c, 0, 58, 60
2, 141459, Note_on_c, 0, 73, 51
2, 141463, Control_c, 0, 64, 62
2, 141501, Control_c, 0, 64, 63
2, 141514, Note_on_c, 0, 59, 0
2, 141543, Control_c, 0, 64, 64
2, 141543, Note_on_c, 0, 75, 0
2, 141558, Control_c, 0, 64, 66
2, 141569, Note_on_c, 0, 73, 0
2, 141578, Control_c, 0, 64, 69
2, 141600, Control_c, 0, 64, 74
2, 141619, Control_c, 0, 64, 82
2, 141636, Control_c, 0, 64, 87
2, 141712, Control_c, 0, 64, 85
2, 141730, Control_c, 0, 64, 83
2, 141750, Control_c, 0, 64, 80
2, 141769, Control_c, 0, 64, 77
2, 141790, Control_c, 0, 64, 71
2, 141807, Control_c, 0, 64, 66
2, 141826, Control_c, 0, 64, 63
2, 141836, Note_on_c, 0, 71, 57
2, 141841, Note_on_c, 0, 63, 59
2, 141847, Control_c, 0, 64, 60
2, 141866, Control_c, 0, 64, 58
2, 141886, Control_c, 0, 64, 56
2, 141905, Control_c, 0, 64, 53
2, 141923, Control_c, 0, 64, 50
2, 141943, Control_c, 0, 64, 48
2, 141962, Control_c, 0, 64, 46
2, 141980, Control_c, 0, 64, 44
2, 142003, Control_c, 0, 64, 39
2, 142019, Control_c, 0, 64, 32
2, 142038, Control_c, 0, 64, 24
2, 142059, Control_c, 0, 64, 15
2, 142076, Control_c, 0, 64, 13
2, 142152, Control_c, 0, 64, 0
2, 142209, Note_on_c, 0, 51, 47
2, 142230, Note_on_c, 0, 70, 48
2, 142234, Note_on_c, 0, 67, 40
2, 142274, Note_on_c, 0, 63, 0
2, 142289, Note_on_c, 0, 68, 0
2, 142295, Note_on_c, 0, 71, 0
2, 142611, Note_on_c, 0, 71, 49
2, 142615, Note_on_c, 0, 68, 38
2, 142623, Note_on_c, 0, 56, 45
2, 142662, Note_on_c, 0, 70, 0
2, 142688, Note_on_c, 0, 58, 0
2, 142712, Note_on_c, 0, 67, 0
2, 142756, Note_on_c, 0, 51, 0
2, 143007, Note_on_c, 0, 59, 55
2, 143125, Note_on_c, 0, 56, 0
2, 143386, Note_on_c, 0, 75, 64
2, 143393, Note_on_c, 0, 58, 56
2, 143464, Note_on_c, 0, 71, 0
2, 143469, Note_on_c, 0, 59, 0
2, 143473, Note_on_c, 0, 68, 0
2, 143794, Note_on_c, 0, 80, 68
2, 143802, Note_on_c, 0, 59, 49
2, 143843, Note_on_c, 0, 58, 0
2, 143909, Note_on_c, 0, 75, 0
2, 144160, Note_on_c, 0, 58, 47
2, 144204, Note_on_c, 0, 59, 0
2, 144555, Note_on_c, 0, 56, 36
2, 144572, Note_on_c, 0, 71, 45
2, 144589, Note_on_c, 0, 58, 0
2, 144980, Note_on_c, 0, 58, 48
2, 144982, Note_on_c, 0, 73, 52
2, 145064, Note_on_c, 0, 56, 0
2, 145121, Note_on_c, 0, 71, 0
2, 145364, Note_on_c, 0, 59, 50
2, 145366, Note_on_c, 0, 75, 65
2, 145387, Note_on_c, 0, 58, 0
2, 145496, Note_on_c, 0, 73, 0
2, 145754, Note_on_c, 0, 79, 69
2, 145774, Note_on_c, 0, 76, 52
2, 145778, Note_on_c, 0, 61, 44
2, 145816, Note_on_c, 0, 75, 0
2, 145818, Note_on_c, 0, 59, 0
2, 145843, Note_on_c, 0, 80, 0
2, 146145, Note_on_c, 0, 76, 0
2, 146161, Note_on_c, 0, 75, 57
2, 146161, Note_on_c, 0, 80, 58
2, 146175, Note_on_c, 0, 59, 51
2, 146255, Note_on_c, 0, 61, 0
2, 146275, Note_on_c, 0, 79, 0
2, 146437, Control_c, 0, 64, 25
2, 146455, Control_c, 0, 64, 38
2, 146474, Control_c, 0, 64, 44
2, 146492, Control_c, 0, 64, 49
2, 146514, Control_c, 0, 64, 52
2, 146531, Control_c, 0, 64, 54
2, 146552, Control_c, 0, 64, 57
2, 146561, Note_on_c, 0, 64, 64
2, 146565, Note_on_c, 0, 73, 56
2, 146570, Control_c, 0, 64, 59
2, 146590, Control_c, 0, 64, 61
2, 146607, Control_c, 0, 64, 62
2, 146614, Note_on_c, 0, 80, 0
2, 146631, Control_c, 0, 64, 64
2, 146634, Note_on_c, 0, 75, 0
2, 146647, Control_c, 0, 64, 65
2, 146665, Control_c, 0, 64, 68
2, 146685, Control_c, 0, 64, 73
2, 146704, Control_c, 0, 64, 81
2, 146723, Control_c, 0, 64, 89
2, 146743, Control_c, 0, 64, 95
2, 146760, Control_c, 0, 64, 96
2, 146800, Control_c, 0, 64, 97
2, 146879, Control_c, 0, 64, 95
2, 146895, Control_c, 0, 64, 92
2, 146915, Control_c, 0, 64, 89
2, 146935, Control_c, 0, 64, 84
2, 146954, Control_c, 0, 64, 78
2, 146965, Note_on_c, 0, 83, 61
2, 146974, Control_c, 0, 64, 72
2, 146978, Note_on_c, 0, 56, 56
2, 146984, Note_on_c, 0, 71, 58
2, 146992, Control_c, 0, 64, 66
2, 147011, Control_c, 0, 64, 61
2, 147022, Note_on_c, 0, 64, 0
2, 147024, Note_on_c, 0, 73, 0
2, 147032, Control_c, 0, 64, 57
2, 147053, Control_c, 0, 64, 55
2, 147081, Note_on_c, 0, 59, 0
2, 147087, Control_c, 0, 64, 56
2, 147110, Control_c, 0, 64, 58
2, 147125, Control_c, 0, 64, 61
2, 147133, Note_on_c, 0, 83, 0
2, 147145, Control_c, 0, 64, 65
2, 147167, Control_c, 0, 64, 70
2, 147184, Control_c, 0, 64, 79
2, 147204, Control_c, 0, 64, 91
2, 147224, Control_c, 0, 64, 104
2, 147240, Control_c, 0, 64, 110
2, 147261, Control_c, 0, 64, 111
2, 147301, Control_c, 0, 64, 106
2, 147319, Control_c, 0, 64, 100
2, 147337, Control_c, 0, 64, 94
2, 147356, Control_c, 0, 64, 88
2, 147378, Control_c, 0, 64, 82
2, 147378, Note_on_c, 0, 73, 72
2, 147390, Note_on_c, 0, 58, 53
2, 147394, Control_c, 0, 64, 77
2, 147417, Control_c, 0, 64, 73
2, 147433, Control_c, 0, 64, 69
2, 147440, Note_on_c, 0, 71, 0
2, 147454, Control_c, 0, 64, 66
2, 147471, Control_c, 0, 64, 65
2, 147475, Note_on_c, 0, 56, 0
2, 147491, Control_c, 0, 64, 64
2, 147567, Control_c, 0, 64, 63
2, 147587, Control_c, 0, 64, 62
2, 147683, Control_c, 0, 64, 61
2, 147703, Control_c, 0, 64, 59
2, 147721, Control_c, 0, 64, 56
2, 147741, Control_c, 0, 64, 52
2, 147759, Control_c, 0, 64, 49
2, 147770, Note_on_c, 0, 61, 47
2, 147770, Note_on_c, 0, 70, 54
2, 147781, Control_c, 0, 64, 45
2, 147798, Control_c, 0, 64, 43
2, 147820, Control_c, 0, 64, 42
2, 147838, Control_c, 0, 64, 43
2, 147859, Control_c, 0, 64, 46
2, 147877, Control_c, 0, 64, 53
2, 147895, Control_c, 0, 64, 60
2, 147914, Control_c, 0, 64, 62
2, 147933, Control_c, 0, 64, 64
2, 147953, Control_c, 0, 64, 66
2, 147973, Control_c, 0, 64, 68
2, 147989, Control_c, 0, 64, 70
2, 148029, Control_c, 0, 64, 68
2, 148048, Control_c, 0, 64, 67
2, 148066, Control_c, 0, 64, 65
2, 148087, Control_c, 0, 64, 64
2, 148107, Control_c, 0, 64, 62
2, 148124, Control_c, 0, 64, 61
2, 148137, Note_on_c, 0, 75, 59
2, 148144, Control_c, 0, 64, 59
2, 148155, Note_on_c, 0, 68, 53
2, 148165, Control_c, 0, 64, 56
2, 148169, Note_on_c, 0, 59, 49
2, 148181, Note_on_c, 0, 70, 0
2, 148186, Control_c, 0, 64, 52
2, 148194, Note_on_c, 0, 61, 0
2, 148202, Control_c, 0, 64, 48
2, 148206, Note_on_c, 0, 73, 0
2, 148225, Control_c, 0, 64, 43
2, 148225, Note_on_c, 0, 58, 0
2, 148243, Control_c, 0, 64, 39
2, 148259, Control_c, 0, 64, 38
2, 148278, Control_c, 0, 64, 43
2, 148298, Control_c, 0, 64, 52
2, 148318, Control_c, 0, 64, 60
2, 148318, Note_on_c, 0, 68, 0
2, 148337, Control_c, 0, 64, 64
2, 148354, Control_c, 0, 64, 66
2, 148374, Control_c, 0, 64, 68
2, 148450, Control_c, 0, 64, 67
2, 148470, Control_c, 0, 64, 66
2, 148489, Control_c, 0, 64, 65
2, 148510, Control_c, 0, 64, 64
2, 148532, Control_c, 0, 64, 63
2, 148532, Note_on_c, 0, 59, 0
2, 148537, Note_on_c, 0, 76, 70
2, 148544, Note_on_c, 0, 61, 42
2, 148548, Control_c, 0, 64, 62
2, 148552, Note_on_c, 0, 66, 55
2, 148566, Control_c, 0, 64, 61
2, 148578, Note_on_c, 0, 75, 0
2, 148587, Control_c, 0, 64, 60
2, 148606, Control_c, 0, 64, 58
2, 148642, Control_c, 0, 64, 57
2, 148663, Control_c, 0, 64, 56
2, 148682, Control_c, 0, 64, 55
2, 148705, Control_c, 0, 64, 54
2, 148719, Control_c, 0, 64, 53
2, 148758, Control_c, 0, 64, 52
2, 148777, Control_c, 0, 64, 51
2, 148795, Control_c, 0, 64, 49
2, 148815, Control_c, 0, 64, 48
2, 148936, Control_c, 0, 64, 47
2, 148936, Note_on_c, 0, 59, 49
2, 148936, Note_on_c, 0, 75, 57
2, 149007, Note_on_c, 0, 61, 0
2, 149071, Note_on_c, 0, 76, 0
2, 149319, Note_on_c, 0, 59, 0
2, 149322, Note_on_c, 0, 73, 60
2, 149329, Note_on_c, 0, 58, 43
2, 149399, Note_on_c, 0, 75, 0
2, 149790, Note_on_c, 0, 75, 64
2, 149794, Note_on_c, 0, 59, 35
2, 149831, Note_on_c, 0, 66, 0
2, 149834, Note_on_c, 0, 58, 0
2, 149915, Note_on_c, 0, 73, 0
2, 150180, Note_on_c, 0, 66, 47
2, 150506, Control_c, 0, 64, 46
2, 150562, Note_on_c, 0, 71, 49
2, 150580, Note_on_c, 0, 56, 42
2, 150737, Note_on_c, 0, 59, 0
2, 150958, Note_on_c, 0, 53, 38
2, 150964, Note_on_c, 0, 73, 67
2, 151059, Note_on_c, 0, 71, 0
2, 151067, Note_on_c, 0, 56, 0
2, 151104, Note_on_c, 0, 75, 0
2, 151125, Note_on_c, 0, 66, 0
2, 151198, Control_c, 0, 64, 47
2, 151359, Note_on_c, 0, 68, 62
2, 151390, Control_c, 0, 64, 46
2, 151680, Control_c, 0, 64, 45
2, 151716, Control_c, 0, 64, 44
2, 151741, Note_on_c, 0, 70, 58
2, 151761, Note_on_c, 0, 55, 41
2, 151812, Control_c, 0, 64, 43
2, 151830, Note_on_c, 0, 53, 0
2, 151876, Note_on_c, 0, 68, 0
2, 151889, Control_c, 0, 64, 42
2, 151925, Control_c, 0, 64, 41
2, 152006, Control_c, 0, 64, 40
2, 152044, Control_c, 0, 64, 39
2, 152081, Control_c, 0, 64, 38
2, 152138, Control_c, 0, 64, 37
2, 152142, Note_on_c, 0, 71, 65
2, 152161, Note_on_c, 0, 56, 42
2, 152208, Note_on_c, 0, 70, 0
2, 152215, Control_c, 0, 64, 36
2, 152222, Note_on_c, 0, 55, 0
2, 152452, Note_on_c, 0, 73, 0
2, 152563, Control_c, 0, 64, 35
2, 152563, Note_on_c, 0, 63, 46
2, 152943, Note_on_c, 0, 68, 53
2, 152961, Note_on_c, 0, 52, 46
2, 153020, Note_on_c, 0, 56, 0
2, 153132, Note_on_c, 0, 63, 0
2, 153343, Note_on_c, 0, 70, 63
2, 153361, Note_on_c, 0, 49, 41
2, 153366, Control_c, 0, 64, 34
2, 153405, Control_c, 0, 64, 33
2, 153433, Note_on_c, 0, 52, 0
2, 153460, Note_on_c, 0, 68, 0
2, 153540, Control_c, 0, 64, 34
2, 153559, Control_c, 0, 64, 38
2, 153577, Control_c, 0, 64, 42
2, 153595, Control_c, 0, 64, 43
2, 153635, Control_c, 0, 64, 44
2, 153654, Control_c, 0, 64, 47
2, 153668, Note_on_c, 0, 71, 0
2, 153672, Control_c, 0, 64, 51
2, 153691, Control_c, 0, 64, 54
2, 153711, Control_c, 0, 64, 56
2, 153734, Control_c, 0, 64, 57
2, 153734, Note_on_c, 0, 65, 45
2, 153751, Control_c, 0, 64, 58
2, 153771, Control_c, 0, 64, 59
2, 153789, Control_c, 0, 64, 60
2, 153811, Control_c, 0, 64, 62
2, 153826, Control_c, 0, 64, 63
2, 153847, Control_c, 0, 64, 64
2, 153883, Control_c, 0, 64, 65
2, 153906, Control_c, 0, 64, 68
2, 153924, Control_c, 0, 64, 72
2, 153944, Control_c, 0, 64, 78
2, 153960, Control_c, 0, 64, 87
2, 153981, Control_c, 0, 64, 95
2, 154001, Control_c, 0, 64, 101
2, 154020, Control_c, 0, 64, 106
2, 154076, Control_c, 0, 64, 105
2, 154096, Control_c, 0, 64, 104
2, 154114, Control_c, 0, 64, 102
2, 154123, Note_on_c, 0, 67, 54
2, 154136, Control_c, 0, 64, 100
2, 154155, Control_c, 0, 64, 94
2, 154155, Note_on_c, 0, 65, 0
2, 154160, Note_on_c, 0, 51, 54
2, 154173, Control_c, 0, 64, 87
2, 154192, Control_c, 0, 64, 83
2, 154212, Control_c, 0, 64, 81
2, 154250, Control_c, 0, 64, 80
2, 154269, Control_c, 0, 64, 79
2, 154289, Control_c, 0, 64, 77
2, 154306, Control_c, 0, 64, 75
2, 154316, Note_on_c, 0, 49, 0
2, 154327, Control_c, 0, 64, 74
2, 154347, Control_c, 0, 64, 73
2, 154383, Control_c, 0, 64, 71
2, 154402, Control_c, 0, 64, 69
2, 154423, Control_c, 0, 64, 67
2, 154443, Control_c, 0, 64, 65
2, 154463, Control_c, 0, 64, 64
2, 154499, Control_c, 0, 64, 63
2, 154520, Control_c, 0, 64, 62
2, 154555, Note_on_c, 0, 52, 47
2, 154560, Control_c, 0, 64, 61
2, 154560, Note_on_c, 0, 68, 63
2, 154578, Control_c, 0, 64, 60
2, 154595, Note_on_c, 0, 67, 0
2, 154628, Note_on_c, 0, 51, 0
2, 154639, Note_on_c, 0, 70, 0
2, 154653, Control_c, 0, 64, 59
2, 154690, Control_c, 0, 64, 58
2, 154711, Control_c, 0, 64, 56
2, 154731, Control_c, 0, 64, 54
2, 154748, Control_c, 0, 64, 53
2, 154767, Control_c, 0, 64, 52
2, 154808, Control_c, 0, 64, 51
2, 154920, Control_c, 0, 64, 50
2, 154965, Note_on_c, 0, 70, 63
2, 155048, Note_on_c, 0, 68, 0
2, 155095, Control_c, 0, 64, 51
2, 155343, Control_c, 0, 64, 50
2, 155350, Note_on_c, 0, 71, 62
2, 155361, Note_on_c, 0, 53, 41
2, 155394, Note_on_c, 0, 52, 0
2, 155422, Note_on_c, 0, 70, 0
2, 155758, Note_on_c, 0, 70, 56
2, 155762, Note_on_c, 0, 54, 41
2, 155836, Note_on_c, 0, 71, 0
2, 155854, Note_on_c, 0, 53, 0
2, 156114, Control_c, 0, 64, 49
2, 156154, Note_on_c, 0, 75, 59
2, 156228, Note_on_c, 0, 70, 0
2, 156382, Control_c, 0, 64, 48
2, 156477, Control_c, 0, 64, 47
2, 156494, Control_c, 0, 64, 46
2, 156514, Control_c, 0, 64, 45
2, 156553, Note_on_c, 0, 63, 41
2, 156610, Control_c, 0, 64, 44
2, 156649, Note_on_c, 0, 75, 0
2, 156689, Control_c, 0, 64, 43
2, 156708, Control_c, 0, 64, 42
2, 156725, Control_c, 0, 64, 40
2, 156746, Control_c, 0, 64, 39
2, 156787, Control_c, 0, 64, 38
2, 156803, Control_c, 0, 64, 37
2, 156842, Control_c, 0, 64, 35
2, 156862, Control_c, 0, 64, 32
2, 156882, Control_c, 0, 64, 28
2, 156899, Control_c, 0, 64, 26
2, 156937, Control_c, 0, 64, 25
2, 156948, Note_on_c, 0, 68, 51
2, 156956, Control_c, 0, 64, 23
2, 156979, Control_c, 0, 64, 19
2, 156997, Control_c, 0, 64, 16
2, 157052, Control_c, 0, 64, 15
2, 157064, Note_on_c, 0, 63, 0
2, 157073, Control_c, 0, 64, 13
2, 157089, Control_c, 0, 64, 10
2, 157109, Control_c, 0, 64, 0
2, 157265, Control_c, 0, 64, 14
2, 157286, Control_c, 0, 64, 18
2, 157302, Control_c, 0, 64, 22
2, 157322, Control_c, 0, 64, 26
2, 157334, Note_on_c, 0, 71, 55
2, 157343, Control_c, 0, 64, 32
2, 157360, Control_c, 0, 64, 39
2, 157378, Control_c, 0, 64, 45
2, 157387, Note_on_c, 0, 68, 0
2, 157398, Control_c, 0, 64, 50
2, 157417, Control_c, 0, 64, 52
2, 157436, Control_c, 0, 64, 54
2, 157458, Control_c, 0, 64, 56
2, 157474, Control_c, 0, 64, 57
2, 157495, Control_c, 0, 64, 58
2, 157514, Control_c, 0, 64, 60
2, 157550, Control_c, 0, 64, 61
2, 157667, Control_c, 0, 64, 60
2, 157687, Control_c, 0, 64, 59
2, 157707, Control_c, 0, 64, 58
2, 157729, Note_on_c, 0, 70, 49
2, 157734, Note_on_c, 0, 75, 54
2, 157783, Control_c, 0, 64, 60
2, 157797, Note_on_c, 0, 71, 0
2, 157800, Control_c, 0, 64, 61
2, 157819, Control_c, 0, 64, 63
2, 157839, Control_c, 0, 64, 64
2, 157843, Note_on_c, 0, 75, 0
2, 157860, Control_c, 0, 64, 65
2, 157877, Control_c, 0, 64, 66
2, 157897, Control_c, 0, 64, 67
2, 158051, Control_c, 0, 64, 66
2, 158092, Control_c, 0, 64, 65
2, 158125, Note_on_c, 0, 75, 48
2, 158127, Control_c, 0, 64, 64
2, 158141, Note_on_c, 0, 71, 53
2, 158147, Control_c, 0, 64, 63
2, 158152, Note_on_c, 0, 53, 36
2, 158164, Note_on_c, 0, 70, 0
2, 158166, Control_c, 0, 64, 62
2, 158187, Control_c, 0, 64, 61
2, 158206, Control_c, 0, 64, 60
2, 158241, Control_c, 0, 64, 59
2, 158281, Control_c, 0, 64, 58
2, 158297, Note_on_c, 0, 54, 0
2, 158301, Control_c, 0, 64, 56
2, 158337, Control_c, 0, 64, 55
2, 158435, Control_c, 0, 64, 54
2, 158473, Control_c, 0, 64, 53
2, 158519, Note_on_c, 0, 70, 45
2, 158540, Note_on_c, 0, 71, 0
2, 158553, Control_c, 0, 64, 54
2, 158801, Control_c, 0, 64, 53
2, 158901, Note_on_c, 0, 74, 52
2, 158906, Note_on_c, 0, 68, 41
2, 158939, Note_on_c, 0, 70, 0
2, 158955, Note_on_c, 0, 75, 0
2, 159288, Note_on_c, 0, 75, 50
2, 159300, Note_on_c, 0, 54, 39
2, 159304, Note_on_c, 0, 70, 47
2, 159351, Note_on_c, 0, 74, 0
2, 159399, Note_on_c, 0, 53, 0
2, 159425, Note_on_c, 0, 68, 0
2, 159706, Note_on_c, 0, 71, 52
2, 159773, Note_on_c, 0, 70, 0
2, 160086, Note_on_c, 0, 73, 63
2, 160109, Note_on_c, 0, 55, 40
2, 160174, Note_on_c, 0, 54, 0
2, 160198, Note_on_c, 0, 71, 0
2, 160326, Note_on_c, 0, 75, 0
2, 160452, Control_c, 0, 64, 52
2, 160485, Note_on_c, 0, 71, 63
2, 160504, Note_on_c, 0, 56, 46
2, 160576, Note_on_c, 0, 55, 0
2, 160621, Note_on_c, 0, 73, 0
2, 160880, Note_on_c, 0, 76, 67
2, 160998, Note_on_c, 0, 71, 0
2, 161066, Control_c, 0, 64, 51
2, 161273, Note_on_c, 0, 68, 53
2, 161315, Control_c, 0, 64, 50
2, 161351, Note_on_c, 0, 76, 0
2, 161526, Control_c, 0, 64, 49
2, 161670, Note_on_c, 0, 70, 50
2, 161737, Note_on_c, 0, 68, 0
2, 161875, Control_c, 0, 64, 48
2, 162006, Control_c, 0, 64, 49
2, 162073, Note_on_c, 0, 73, 53
2, 162161, Note_on_c, 0, 70, 0
2, 162463, Note_on_c, 0, 76, 60
2, 162466, Note_on_c, 0, 71, 46
2, 162515, Note_on_c, 0, 73, 0
2, 162841, Note_on_c, 0, 75, 56
2, 162843, Note_on_c, 0, 55, 41
2, 162855, Note_on_c, 0, 73, 47
2, 162873, Note_on_c, 0, 71, 0
2, 162950, Note_on_c, 0, 76, 0
2, 162954, Note_on_c, 0, 56, 0
2, 162985, Control_c, 0, 64, 48
2, 163100, Control_c, 0, 64, 47
2, 163138, Control_c, 0, 64, 46
2, 163158, Control_c, 0, 64, 44
2, 163178, Control_c, 0, 64, 43
2, 163196, Control_c, 0, 64, 42
2, 163217, Control_c, 0, 64, 41
2, 163235, Note_on_c, 0, 71, 48
2, 163255, Control_c, 0, 64, 42
2, 163259, Note_on_c, 0, 73, 0
2, 163273, Control_c, 0, 64, 43
2, 163294, Control_c, 0, 64, 45
2, 163311, Control_c, 0, 64, 46
2, 163349, Control_c, 0, 64, 47
2, 163370, Control_c, 0, 64, 48
2, 163408, Control_c, 0, 64, 47
2, 163543, Control_c, 0, 64, 48
2, 163618, Note_on_c, 0, 73, 53
2, 163625, Note_on_c, 0, 70, 48
2, 163687, Note_on_c, 0, 71, 0
2, 163697, Control_c, 0, 64, 47
2, 163852, Note_on_c, 0, 75, 0
2, 163889, Control_c, 0, 64, 46
2, 164028, Note_on_c, 0, 56, 38
2, 164032, Note_on_c, 0, 71, 51
2, 164091, Note_on_c, 0, 73, 0
2, 164099, Note_on_c, 0, 70, 0
2, 164177, Note_on_c, 0, 55, 0
2, 164406, Note_on_c, 0, 59, 53
2, 164464, Control_c, 0, 64, 47
2, 164617, Control_c, 0, 64, 48
2, 164712, Control_c, 0, 64, 49
2, 164786, Note_on_c, 0, 68, 63
2, 164790, Note_on_c, 0, 64, 48
2, 164793, Control_c, 0, 64, 50
2, 164808, Control_c, 0, 64, 51
2, 164828, Control_c, 0, 64, 52
2, 164850, Control_c, 0, 64, 54
2, 164859, Note_on_c, 0, 71, 0
2, 164866, Control_c, 0, 64, 55
2, 164887, Control_c, 0, 64, 56
2, 164907, Control_c, 0, 64, 58
2, 164924, Control_c, 0, 64, 60
2, 164943, Control_c, 0, 64, 62
2, 164962, Control_c, 0, 64, 63
2, 164984, Control_c, 0, 64, 64
2, 164996, Note_on_c, 0, 59, 0
2, 165002, Control_c, 0, 64, 65
2, 165117, Control_c, 0, 64, 64
2, 165153, Control_c, 0, 64, 63
2, 165173, Control_c, 0, 64, 62
2, 165191, Note_on_c, 0, 54, 40
2, 165195, Control_c, 0, 64, 61
2, 165207, Note_on_c, 0, 70, 62
2, 165214, Control_c, 0, 64, 60
2, 165232, Control_c, 0, 64, 59
2, 165251, Control_c, 0, 64, 58
2, 165271, Control_c, 0, 64, 57
2, 165275, Note_on_c, 0, 64, 0
2, 165289, Control_c, 0, 64, 56
2, 165308, Control_c, 0, 64, 54
2, 165326, Control_c, 0, 64, 51
2, 165349, Control_c, 0, 64, 48
2, 165366, Control_c, 0, 64, 46
2, 165384, Control_c, 0, 64, 43
2, 165398, Note_on_c, 0, 68, 0
2, 165403, Control_c, 0, 64, 41
2, 165423, Control_c, 0, 64, 39
2, 165441, Note_on_c, 0, 56, 0
2, 165444, Control_c, 0, 64, 38
2, 165504, Control_c, 0, 64, 40
2, 165519, Control_c, 0, 64, 45
2, 165538, Control_c, 0, 64, 53
2, 165559, Control_c, 0, 64, 59
2, 165577, Control_c, 0, 64, 62
2, 165582, Note_on_c, 0, 61, 47
2, 165596, Control_c, 0, 64, 63
2, 165654, Control_c, 0, 64, 64
2, 165672, Control_c, 0, 64, 65
2, 165692, Control_c, 0, 64, 67
2, 165711, Control_c, 0, 64, 70
2, 165730, Control_c, 0, 64, 75
2, 165749, Control_c, 0, 64, 79
2, 165769, Control_c, 0, 64, 83
2, 165787, Control_c, 0, 64, 86
2, 165808, Control_c, 0, 64, 87
2, 165827, Control_c, 0, 64, 88
2, 165845, Control_c, 0, 64, 89
2, 165867, Control_c, 0, 64, 90
2, 165905, Note_on_c, 0, 61, 0
2, 165946, Note_on_c, 0, 63, 51
2, 165967, Note_on_c, 0, 72, 68
2, 166073, Note_on_c, 0, 70, 0
2, 166210, Control_c, 0, 64, 89
2, 166230, Control_c, 0, 64, 88
2, 166250, Control_c, 0, 64, 87
2, 166268, Control_c, 0, 64, 86
2, 166287, Control_c, 0, 64, 84
2, 166306, Control_c, 0, 64, 82
2, 166329, Control_c, 0, 64, 80
2, 166346, Control_c, 0, 64, 77
2, 166353, Note_on_c, 0, 52, 46
2, 166355, Note_on_c, 0, 73, 68
2, 166366, Note_on_c, 0, 63, 0
2, 166371, Control_c, 0, 64, 74
2, 166371, Note_on_c, 0, 56, 47
2, 166382, Control_c, 0, 64, 71
2, 166404, Control_c, 0, 64, 68
2, 166424, Control_c, 0, 64, 64
2, 166424, Note_on_c, 0, 72, 0
2, 166442, Control_c, 0, 64, 61
2, 166460, Control_c, 0, 64, 59
2, 166471, Note_on_c, 0, 54, 0
2, 166480, Control_c, 0, 64, 58
2, 166499, Control_c, 0, 64, 57
2, 166519, Control_c, 0, 64, 55
2, 166536, Control_c, 0, 64, 52
2, 166555, Control_c, 0, 64, 47
2, 166577, Control_c, 0, 64, 45
2, 166631, Control_c, 0, 64, 44
2, 166651, Control_c, 0, 64, 43
2, 166710, Control_c, 0, 64, 45
2, 166728, Control_c, 0, 64, 50
2, 166734, Note_on_c, 0, 68, 61
2, 166747, Control_c, 0, 64, 54
2, 166767, Control_c, 0, 64, 55
2, 166789, Control_c, 0, 64, 56
2, 166817, Note_on_c, 0, 73, 0
2, 166826, Control_c, 0, 64, 57
2, 166844, Control_c, 0, 64, 59
2, 166864, Control_c, 0, 64, 60
2, 166883, Control_c, 0, 64, 61
2, 166902, Control_c, 0, 64, 62
2, 166940, Control_c, 0, 64, 63
2, 166979, Control_c, 0, 64, 64
2, 166997, Control_c, 0, 64, 65
2, 167017, Control_c, 0, 64, 66
2, 167037, Control_c, 0, 64, 68
2, 167055, Control_c, 0, 64, 71
2, 167075, Control_c, 0, 64, 75
2, 167096, Control_c, 0, 64, 80
2, 167116, Control_c, 0, 64, 87
2, 167123, Note_on_c, 0, 73, 70
2, 167132, Control_c, 0, 64, 92
2, 167151, Control_c, 0, 64, 95
2, 167170, Control_c, 0, 64, 97
2, 167191, Control_c, 0, 64, 98
2, 167210, Control_c, 0, 64, 99
2, 167282, Note_on_c, 0, 68, 0
2, 167344, Control_c, 0, 64, 96
2, 167362, Control_c, 0, 64, 92
2, 167381, Control_c, 0, 64, 85
2, 167401, Control_c, 0, 64, 78
2, 167419, Control_c, 0, 64, 72
2, 167440, Control_c, 0, 64, 68
2, 167461, Control_c, 0, 64, 66
2, 167482, Note_on_c, 0, 51, 64
2, 167535, Control_c, 0, 64, 68
2, 167554, Control_c, 0, 64, 70
2, 167576, Control_c, 0, 64, 76
2, 167592, Control_c, 0, 64, 87
2, 167596, Note_on_c, 0, 52, 0
2, 167605, Note_on_c, 0, 73, 0
2, 167612, Control_c, 0, 64, 110
2, 167632, Control_c, 0, 64, 127
2, 167882, Note_on_c, 0, 70, 73
2, 168262, Note_on_c, 0, 72, 81
2, 168488, Note_on_c, 0, 70, 0
2, 168615, Note_on_c, 0, 49, 51
2, 168624, Note_on_c, 0, 56, 0
2, 168645, Control_c, 0, 64, 109
2, 168658, Note_on_c, 0, 76, 82
2, 168666, Control_c, 0, 64, 92
2, 168684, Control_c, 0, 64, 81
2, 168704, Control_c, 0, 64, 74
2, 168723, Control_c, 0, 64, 70
2, 168744, Control_c, 0, 64, 66
2, 168744, Note_on_c, 0, 51, 0
2, 168761, Control_c, 0, 64, 63
2, 168781, Control_c, 0, 64, 61
2, 168792, Note_on_c, 0, 72, 0
2, 168799, Control_c, 0, 64, 60
2, 168819, Control_c, 0, 64, 58
2, 168839, Control_c, 0, 64, 57
2, 168895, Control_c, 0, 64, 56
2, 168914, Control_c, 0, 64, 55
2, 168934, Control_c, 0, 64, 54
2, 168972, Control_c, 0, 64, 53
2, 169030, Control_c, 0, 64, 52
2, 169041, Note_on_c, 0, 56, 48
2, 169050, Control_c, 0, 64, 51
2, 169068, Control_c, 0, 64, 50
2, 169090, Control_c, 0, 64, 48
2, 169106, Control_c, 0, 64, 47
2, 169125, Control_c, 0, 64, 45
2, 169145, Control_c, 0, 64, 43
2, 169167, Control_c, 0, 64, 37
2, 169183, Control_c, 0, 64, 29
2, 169202, Control_c, 0, 64, 14
2, 169222, Control_c, 0, 64, 0
2, 169416, Note_on_c, 0, 69, 43
2, 169431, Note_on_c, 0, 61, 38
2, 169547, Note_on_c, 0, 56, 0
2, 169794, Note_on_c, 0, 75, 71
2, 169809, Note_on_c, 0, 66, 56
2, 169907, Note_on_c, 0, 69, 0
2, 169971, Note_on_c, 0, 76, 0
2, 170145, Note_on_c, 0, 61, 0
2, 170157, Note_on_c, 0, 58, 38
2, 170375, Control_c, 0, 64, 17
2, 170392, Control_c, 0, 64, 20
2, 170413, Control_c, 0, 64, 22
2, 170433, Control_c, 0, 64, 24
2, 170452, Control_c, 0, 64, 26
2, 170468, Control_c, 0, 64, 30
2, 170490, Control_c, 0, 64, 35
2, 170511, Control_c, 0, 64, 38
2, 170511, Note_on_c, 0, 49, 0
2, 170527, Control_c, 0, 64, 40
2, 170550, Control_c, 0, 64, 42
2, 170550, Note_on_c, 0, 68, 48
2, 170568, Note_on_c, 0, 58, 0
2, 170572, Control_c, 0, 64, 45
2, 170572, Note_on_c, 0, 60, 45
2, 170585, Control_c, 0, 64, 49
2, 170601, Note_on_c, 0, 66, 0
2, 170606, Control_c, 0, 64, 53
2, 170622, Control_c, 0, 64, 56
2, 170645, Control_c, 0, 64, 57
2, 170661, Control_c, 0, 64, 58
2, 170817, Control_c, 0, 64, 57
2, 170835, Control_c, 0, 64, 55
2, 170853, Control_c, 0, 64, 54
2, 170874, Control_c, 0, 64, 52
2, 170892, Control_c, 0, 64, 50
2, 170911, Control_c, 0, 64, 48
2, 170932, Control_c, 0, 64, 46
2, 170949, Control_c, 0, 64, 42
2, 170970, Control_c, 0, 64, 37
2, 170974, Note_on_c, 0, 64, 50
2, 170979, Note_on_c, 0, 61, 39
2, 170989, Control_c, 0, 64, 31
2, 171007, Control_c, 0, 64, 24
2, 171016, Note_on_c, 0, 60, 0
2, 171027, Control_c, 0, 64, 15
2, 171045, Control_c, 0, 64, 0
2, 171181, Control_c, 0, 64, 9
2, 171198, Control_c, 0, 64, 26
2, 171218, Control_c, 0, 64, 38
2, 171238, Control_c, 0, 64, 49
2, 171259, Control_c, 0, 64, 55
2, 171277, Control_c, 0, 64, 57
2, 171296, Control_c, 0, 64, 58
2, 171316, Control_c, 0, 64, 59
2, 171353, Control_c, 0, 64, 60
2, 171368, Note_on_c, 0, 73, 56
2, 171373, Control_c, 0, 64, 62
2, 171392, Control_c, 0, 64, 63
2, 171412, Control_c, 0, 64, 65
2, 171430, Control_c, 0, 64, 68
2, 171434, Note_on_c, 0, 68, 0
2, 171434, Note_on_c, 0, 75, 0
2, 171450, Control_c, 0, 64, 74
2, 171468, Control_c, 0, 64, 84
2, 171488, Control_c, 0, 64, 95
2, 171508, Control_c, 0, 64, 110
2, 171524, Note_on_c, 0, 61, 0
2, 171528, Control_c, 0, 64, 127
2, 171762, Note_on_c, 0, 81, 69
2, 172078, Note_on_c, 0, 73, 0
2, 172082, Control_c, 0, 64, 101
2, 172101, Control_c, 0, 64, 87
2, 172123, Control_c, 0, 64, 78
2, 172140, Control_c, 0, 64, 71
2, 172149, Note_on_c, 0, 63, 50
2, 172159, Control_c, 0, 64, 66
2, 172172, Note_on_c, 0, 59, 42
2, 172180, Control_c, 0, 64, 63
2, 172199, Control_c, 0, 64, 59
2, 172216, Control_c, 0, 64, 56
2, 172236, Control_c, 0, 64, 52
2, 172236, Note_on_c, 0, 64, 0
2, 172254, Control_c, 0, 64, 49
2, 172274, Control_c, 0, 64, 44
2, 172293, Control_c, 0, 64, 39
2, 172312, Control_c, 0, 64, 30
2, 172332, Control_c, 0, 64, 18
2, 172353, Control_c, 0, 64, 10
2, 172370, Control_c, 0, 64, 0
2, 172467, Control_c, 0, 64, 18
2, 172490, Control_c, 0, 64, 32
2, 172508, Control_c, 0, 64, 41
2, 172523, Control_c, 0, 64, 47
2, 172543, Control_c, 0, 64, 51
2, 172552, Note_on_c, 0, 79, 67
2, 172564, Control_c, 0, 64, 56
2, 172581, Control_c, 0, 64, 59
2, 172601, Control_c, 0, 64, 61
2, 172623, Control_c, 0, 64, 62
2, 172639, Note_on_c, 0, 81, 0
2, 172658, Control_c, 0, 64, 63
2, 172678, Control_c, 0, 64, 64
2, 172696, Control_c, 0, 64, 65
2, 172717, Control_c, 0, 64, 67
2, 172734, Control_c, 0, 64, 71
2, 172754, Control_c, 0, 64, 78
2, 172774, Control_c, 0, 64, 87
2, 172794, Control_c, 0, 64, 100
2, 172812, Control_c, 0, 64, 127
2, 172967, Note_on_c, 0, 80, 63
2, 173018, Note_on_c, 0, 79, 0
2, 173055, Note_on_c, 0, 80, 0
2, 173366, Note_on_c, 0, 63, 0
2, 173377, Note_on_c, 0, 73, 63
2, 173396, Note_on_c, 0, 65, 43
2, 173464, Control_c, 0, 64, 103
2, 173487, Control_c, 0, 64, 92
2, 173504, Control_c, 0, 64, 84
2, 173523, Control_c, 0, 64, 77
2, 173542, Control_c, 0, 64, 73
2, 173561, Control_c, 0, 64, 70
2, 173580, Control_c, 0, 64, 69
2, 173618, Control_c, 0, 64, 68
2, 173658, Control_c, 0, 64, 67
2, 173675, Control_c, 0, 64, 66
2, 173695, Control_c, 0, 64, 65
2, 173733, Control_c, 0, 64, 64
2, 173753, Control_c, 0, 64, 62
2, 173757, Note_on_c, 0, 67, 50
2, 173773, Control_c, 0, 64, 60
2, 173773, Note_on_c, 0, 58, 44
2, 173792, Control_c, 0, 64, 59
2, 173807, Note_on_c, 0, 59, 0
2, 173811, Control_c, 0, 64, 58
2, 173816, Note_on_c, 0, 65, 0
2, 173869, Control_c, 0, 64, 57
2, 173908, Control_c, 0, 64, 56
2, 173927, Control_c, 0, 64, 55
2, 174082, Control_c, 0, 64, 54
2, 174119, Note_on_c, 0, 68, 53
2, 174144, Note_on_c, 0, 56, 47
2, 174174, Control_c, 0, 64, 53
2, 174203, Note_on_c, 0, 67, 0
2, 174237, Note_on_c, 0, 58, 0
2, 174531, Note_on_c, 0, 70, 53
2, 174540, Control_c, 0, 64, 52
2, 174545, Note_on_c, 0, 55, 43
2, 174573, Note_on_c, 0, 56, 0
2, 174585, Note_on_c, 0, 68, 0
2, 174637, Control_c, 0, 64, 51
2, 174657, Control_c, 0, 64, 50
2, 174675, Control_c, 0, 64, 49
2, 174693, Control_c, 0, 64, 48
2, 174713, Control_c, 0, 64, 47
2, 174733, Control_c, 0, 64, 45
2, 174753, Control_c, 0, 64, 43
2, 174771, Control_c, 0, 64, 40
2, 174791, Control_c, 0, 64, 36
2, 174812, Control_c, 0, 64, 32
2, 174831, Control_c, 0, 64, 31
2, 174850, Control_c, 0, 64, 32
2, 174870, Control_c, 0, 64, 35
2, 174888, Control_c, 0, 64, 43
2, 174909, Control_c, 0, 64, 52
2, 174927, Control_c, 0, 64, 58
2, 174931, Note_on_c, 0, 58, 51
2, 174936, Note_on_c, 0, 55, 0
2, 174945, Control_c, 0, 64, 61
2, 174965, Control_c, 0, 64, 62
2, 174984, Control_c, 0, 64, 64
2, 175004, Control_c, 0, 64, 67
2, 175023, Control_c, 0, 64, 71
2, 175043, Control_c, 0, 64, 77
2, 175065, Control_c, 0, 64, 84
2, 175081, Control_c, 0, 64, 89
2, 175115, Note_on_c, 0, 73, 0
2, 175120, Control_c, 0, 64, 88
2, 175217, Control_c, 0, 64, 87
2, 175234, Control_c, 0, 64, 86
2, 175255, Control_c, 0, 64, 85
2, 175273, Control_c, 0, 64, 83
2, 175290, Control_c, 0, 64, 82
2, 175302, Note_on_c, 0, 51, 57
2, 175312, Control_c, 0, 64, 81
2, 175350, Control_c, 0, 64, 79
2, 175369, Control_c, 0, 64, 78
2, 175378, Note_on_c, 0, 58, 0
2, 175389, Control_c, 0, 64, 76
2, 175406, Control_c, 0, 64, 75
2, 175443, Control_c, 0, 64, 74
2, 175502, Control_c, 0, 64, 73
2, 175579, Control_c, 0, 64, 72
2, 175638, Control_c, 0, 64, 71
2, 175675, Control_c, 0, 64, 70
2, 175696, Control_c, 0, 64, 69
2, 175716, Control_c, 0, 64, 67
2, 175720, Note_on_c, 0, 71, 63
2, 175727, Note_on_c, 0, 56, 41
2, 175735, Control_c, 0, 64, 66
2, 175752, Control_c, 0, 64, 65
2, 175770, Note_on_c, 0, 70, 0
2, 175774, Control_c, 0, 64, 64
2, 175789, Control_c, 0, 64, 63
2, 175816, Note_on_c, 0, 51, 0
2, 175830, Control_c, 0, 64, 62
2, 175849, Control_c, 0, 64, 60
2, 175867, Control_c, 0, 64, 56
2, 175887, Control_c, 0, 64, 51
2, 175908, Control_c, 0, 64, 47
2, 175925, Control_c, 0, 64, 44
2, 175947, Control_c, 0, 64, 43
2, 175984, Control_c, 0, 64, 42
2, 176001, Control_c, 0, 64, 40
2, 176021, Control_c, 0, 64, 38
2, 176042, Control_c, 0, 64, 37
2, 176061, Control_c, 0, 64, 36
2, 176080, Control_c, 0, 64, 35
2, 176099, Control_c, 0, 64, 34
2, 176099, Note_on_c, 0, 68, 49
2, 176507, Note_on_c, 0, 44, 42
2, 176507, Note_on_c, 0, 66, 52
2, 176549, Note_on_c, 0, 56, 0
2, 176596, Note_on_c, 0, 68, 0
2, 176904, Note_on_c, 0, 65, 43
2, 176908, Note_on_c, 0, 56, 38
2, 176940, Note_on_c, 0, 66, 0
2, 176968, Note_on_c, 0, 44, 0
2, 177298, Note_on_c, 0, 68, 55
2, 177331, Note_on_c, 0, 65, 0
2, 177693, Note_on_c, 0, 63, 45
2, 177721, Note_on_c, 0, 68, 0
2, 178073, Note_on_c, 0, 70, 60
2, 178103, Note_on_c, 0, 62, 26
2, 178109, Note_on_c, 0, 63, 0
2, 178331, Note_on_c, 0, 71, 0
2, 178363, Control_c, 0, 64, 35
2, 178459, Control_c, 0, 64, 36
2, 178466, Note_on_c, 0, 54, 38
2, 178470, Note_on_c, 0, 63, 41
2, 178499, Note_on_c, 0, 56, 0
2, 178532, Note_on_c, 0, 62, 0
2, 178539, Control_c, 0, 64, 37
2, 178556, Control_c, 0, 64, 38
2, 178651, Control_c, 0, 64, 39
2, 178804, Control_c, 0, 64, 40
2, 178861, Note_on_c, 0, 54, 0
2, 178861, Note_on_c, 0, 65, 44
2, 178865, Note_on_c, 0, 53, 50
2, 178865, Note_on_c, 0, 63, 0
2, 179189, Control_c, 0, 64, 39
2, 179260, Note_on_c, 0, 51, 54
2, 179265, Note_on_c, 0, 66, 44
2, 179313, Note_on_c, 0, 53, 0
2, 179406, Note_on_c, 0, 65, 0
2, 179611, Control_c, 0, 64, 40
2, 179654, Note_on_c, 0, 54, 61
2, 179802, Control_c, 0, 64, 41
2, 179824, Control_c, 0, 64, 44
2, 179845, Control_c, 0, 64, 48
2, 179862, Control_c, 0, 64, 51
2, 179880, Control_c, 0, 64, 53
2, 179901, Control_c, 0, 64, 54
2, 179919, Control_c, 0, 64, 56
2, 179938, Control_c, 0, 64, 59
2, 179958, Control_c, 0, 64, 62
2, 179977, Control_c, 0, 64, 64
2, 179996, Control_c, 0, 64, 66
2, 180015, Control_c, 0, 64, 69
2, 180028, Note_on_c, 0, 46, 46
2, 180035, Control_c, 0, 64, 74
2, 180045, Note_on_c, 0, 74, 62
2, 180051, Note_on_c, 0, 54, 0
2, 180055, Control_c, 0, 64, 85
2, 180070, Note_on_c, 0, 51, 0
2, 180070, Note_on_c, 0, 70, 0
2, 180074, Control_c, 0, 64, 101
2, 180093, Control_c, 0, 64, 127
2, 180104, Note_on_c, 0, 66, 0
2, 180380, Control_c, 0, 64, 100
2, 180399, Control_c, 0, 64, 87
2, 180419, Control_c, 0, 64, 78
2, 180427, Note_on_c, 0, 46, 0
2, 180439, Control_c, 0, 64, 73
2, 180439, Note_on_c, 0, 75, 59
2, 180448, Note_on_c, 0, 47, 51
2, 180459, Control_c, 0, 64, 69
2, 180475, Control_c, 0, 64, 67
2, 180482, Note_on_c, 0, 74, 0
2, 180495, Control_c, 0, 64, 65
2, 180515, Control_c, 0, 64, 64
2, 180589, Note_on_c, 0, 47, 0
2, 180591, Control_c, 0, 64, 63
2, 180609, Control_c, 0, 64, 62
2, 180622, Note_on_c, 0, 49, 57
2, 180628, Control_c, 0, 64, 61
2, 180650, Control_c, 0, 64, 60
2, 180666, Control_c, 0, 64, 61
2, 180678, Note_on_c, 0, 49, 0
2, 180690, Control_c, 0, 64, 60
2, 180709, Note_on_c, 0, 47, 62
2, 180727, Control_c, 0, 64, 59
2, 180781, Note_on_c, 0, 47, 0
2, 180803, Note_on_c, 0, 49, 55
2, 180810, Note_on_c, 0, 77, 71
2, 180830, Note_on_c, 0, 68, 55
2, 180856, Note_on_c, 0, 75, 0
2, 180861, Note_on_c, 0, 49, 0
2, 180893, Note_on_c, 0, 47, 55
2, 180948, Note_on_c, 0, 47, 0
2, 180988, Note_on_c, 0, 49, 53
2, 181039, Note_on_c, 0, 49, 0
2, 181074, Note_on_c, 0, 47, 56
2, 181131, Note_on_c, 0, 47, 0
2, 181176, Note_on_c, 0, 49, 44
2, 181185, Control_c, 0, 64, 60
2, 181204, Note_on_c, 0, 78, 76
2, 181219, Note_on_c, 0, 70, 59
2, 181231, Note_on_c, 0, 49, 0
2, 181260, Note_on_c, 0, 47, 57
2, 181260, Note_on_c, 0, 68, 0
2, 181264, Control_c, 0, 64, 61
2, 181278, Note_on_c, 0, 77, 0
2, 181324, Note_on_c, 0, 47, 0
2, 181341, Control_c, 0, 64, 62
2, 181371, Note_on_c, 0, 49, 44
2, 181419, Note_on_c, 0, 49, 0
2, 181458, Note_on_c, 0, 47, 57
2, 181504, Note_on_c, 0, 47, 0
2, 181559, Note_on_c, 0, 49, 43
2, 181592, Control_c, 0, 64, 61
2, 181592, Note_on_c, 0, 68, 57
2, 181614, Note_on_c, 0, 49, 0
2, 181660, Note_on_c, 0, 47, 45
2, 181718, Note_on_c, 0, 47, 0
2, 181778, Note_on_c, 0, 49, 40
2, 181826, Note_on_c, 0, 49, 0
2, 181855, Note_on_c, 0, 47, 48
2, 181857, Control_c, 0, 64, 62
2, 181896, Control_c, 0, 64, 63
2, 181914, Control_c, 0, 64, 64
2, 181925, Note_on_c, 0, 47, 0
2, 181936, Control_c, 0, 64, 65
2, 181936, Note_on_c, 0, 77, 60
2, 181955, Control_c, 0, 64, 66
2, 181975, Control_c, 0, 64, 69
2, 181984, Note_on_c, 0, 49, 44
2, 181992, Control_c, 0, 64, 72
2, 182012, Control_c, 0, 64, 76
2, 182035, Control_c, 0, 64, 81
2, 182035, Note_on_c, 0, 49, 0
2, 182039, Note_on_c, 0, 78, 0
2, 182051, Control_c, 0, 64, 83
2, 182062, Note_on_c, 0, 47, 56
2, 182074, Control_c, 0, 64, 84
2, 182074, Note_on_c, 0, 70, 0
2, 182091, Control_c, 0, 64, 85
2, 182113, Note_on_c, 0, 47, 0
2, 182127, Control_c, 0, 64, 86
2, 182146, Control_c, 0, 64, 89
2, 182166, Control_c, 0, 64, 93
2, 182175, Note_on_c, 0, 49, 46
2, 182184, Control_c, 0, 64, 97
2, 182219, Note_on_c, 0, 49, 0
2, 182274, Note_on_c, 0, 47, 42
2, 182319, Control_c, 0, 64, 95
2, 182324, Note_on_c, 0, 47, 0
2, 182358, Control_c, 0, 64, 94
2, 182379, Note_on_c, 0, 49, 42
2, 182379, Note_on_c, 0, 80, 76
2, 182396, Control_c, 0, 64, 93
2, 182413, Control_c, 0, 64, 92
2, 182432, Note_on_c, 0, 49, 0
2, 182436, Control_c, 0, 64, 90
2, 182449, Note_on_c, 0, 47, 50
2, 182453, Control_c, 0, 64, 88
2, 182453, Note_on_c, 0, 77, 0
2, 182472, Control_c, 0, 64, 87
2, 182493, Control_c, 0, 64, 85
2, 182506, Note_on_c, 0, 47, 0
2, 182511, Control_c, 0, 64, 83
2, 182530, Control_c, 0, 64, 82
2, 182549, Control_c, 0, 64, 81
2, 182579, Note_on_c, 0, 46, 45
2, 182626, Control_c, 0, 64, 80
2, 182654, Note_on_c, 0, 46, 0
2, 182660, Note_on_c, 0, 47, 45
2, 182665, Control_c, 0, 64, 78
2, 182684, Control_c, 0, 64, 76
2, 182701, Control_c, 0, 64, 74
2, 182721, Control_c, 0, 64, 72
2, 182744, Control_c, 0, 64, 70
2, 182761, Control_c, 0, 64, 68
2, 182778, Control_c, 0, 64, 67
2, 182800, Control_c, 0, 64, 66
2, 182800, Note_on_c, 0, 47, 0
2, 182805, Note_on_c, 0, 74, 62
2, 182818, Control_c, 0, 64, 65
2, 182827, Note_on_c, 0, 80, 0
2, 182835, Note_on_c, 0, 46, 45
2, 182839, Control_c, 0, 64, 64
2, 182853, Control_c, 0, 64, 63
2, 182872, Control_c, 0, 64, 62
2, 182895, Control_c, 0, 64, 60
2, 182910, Control_c, 0, 64, 59
2, 182931, Control_c, 0, 64, 58
2, 182970, Control_c, 0, 64, 57
2, 183029, Control_c, 0, 64, 56
2, 183102, Control_c, 0, 64, 55
2, 183163, Control_c, 0, 64, 54
2, 183195, Note_on_c, 0, 77, 68
2, 183217, Control_c, 0, 64, 53
2, 183301, Note_on_c, 0, 74, 0
2, 183316, Control_c, 0, 64, 52
2, 183391, Control_c, 0, 64, 51
2, 183412, Control_c, 0, 64, 50
2, 183429, Control_c, 0, 64, 49
2, 183452, Control_c, 0, 64, 47
2, 183468, Control_c, 0, 64, 46
2, 183545, Control_c, 0, 64, 49
2, 183564, Control_c, 0, 64, 54
2, 183584, Control_c, 0, 64, 58
2, 183595, Note_on_c, 0, 70, 59
2, 183602, Control_c, 0, 64, 61
2, 183622, Control_c, 0, 64, 64
2, 183640, Control_c, 0, 64, 67
2, 183659, Control_c, 0, 64, 70
2, 183666, Note_on_c, 0, 68, 0
2, 183682, Control_c, 0, 64, 72
2, 183698, Control_c, 0, 64, 74
2, 183714, Note_on_c, 0, 77, 0
2, 183871, Note_on_c, 0, 46, 0
2, 183875, Control_c, 0, 64, 73
2, 183911, Control_c, 0, 64, 72
2, 183928, Control_c, 0, 64, 71
2, 183948, Control_c, 0, 64, 70
2, 183969, Control_c, 0, 64, 69
2, 184005, Control_c, 0, 64, 68
2, 184012, Note_on_c, 0, 75, 71
2, 184024, Control_c, 0, 64, 66
2, 184028, Note_on_c, 0, 66, 44
2, 184044, Control_c, 0, 64, 65
2, 184063, Control_c, 0, 64, 64
2, 184122, Control_c, 0, 64, 63
2, 184122, Note_on_c, 0, 70, 0
2, 184159, Control_c, 0, 64, 62
2, 184216, Control_c, 0, 64, 61
2, 184376, Note_on_c, 0, 66, 0
2, 184401, Note_on_c, 0, 70, 50
2, 184410, Control_c, 0, 64, 60
2, 184542, Control_c, 0, 64, 59
2, 184698, Control_c, 0, 64, 58
2, 184783, Note_on_c, 0, 63, 43
2, 184818, Note_on_c, 0, 70, 0
2, 185003, Control_c, 0, 64, 59
2, 185176, Note_on_c, 0, 65, 42
2, 185232, Note_on_c, 0, 63, 0
2, 185292, Control_c, 0, 64, 58
2, 185570, Note_on_c, 0, 66, 54
2, 185595, Note_on_c, 0, 65, 0
2, 185792, Control_c, 0, 64, 57
2, 185848, Control_c, 0, 64, 56
2, 185887, Control_c, 0, 64, 55
2, 185906, Control_c, 0, 64, 54
2, 185926, Control_c, 0, 64, 51
2, 185946, Control_c, 0, 64, 47
2, 185965, Note_on_c, 0, 68, 57
2, 185985, Control_c, 0, 64, 50
2, 186003, Control_c, 0, 64, 56
2, 186023, Control_c, 0, 64, 61
2, 186031, Note_on_c, 0, 66, 0
2, 186041, Control_c, 0, 64, 64
2, 186060, Control_c, 0, 64, 65
2, 186076, Note_on_c, 0, 75, 0
2, 186081, Control_c, 0, 64, 66
2, 186098, Control_c, 0, 64, 65
2, 186253, Control_c, 0, 64, 64
2, 186310, Control_c, 0, 64, 63
2, 186327, Control_c, 0, 64, 62
2, 186348, Note_on_c, 0, 74, 57
2, 186350, Control_c, 0, 64, 61
2, 186444, Control_c, 0, 64, 60
2, 186540, Control_c, 0, 64, 59
2, 186577, Control_c, 0, 64, 58
2, 186635, Control_c, 0, 64, 57
2, 186654, Control_c, 0, 64, 56
2, 186673, Control_c, 0, 64, 55
2, 186696, Control_c, 0, 64, 54
2, 186730, Control_c, 0, 64, 55
2, 186753, Control_c, 0, 64, 56
2, 186753, Note_on_c, 0, 70, 41
2, 186772, Control_c, 0, 64, 58
2, 186790, Control_c, 0, 64, 61
2, 186803, Note_on_c, 0, 68, 0
2, 186810, Control_c, 0, 64, 62
2, 186829, Control_c, 0, 64, 64
2, 186846, Control_c, 0, 64, 65
2, 186866, Control_c, 0, 64, 66
2, 186885, Control_c, 0, 64, 68
2, 186905, Control_c, 0, 64, 69
2, 186926, Control_c, 0, 64, 70
2, 186963, Control_c, 0, 64, 73
2, 186984, Control_c, 0, 64, 77
2, 187003, Control_c, 0, 64, 84
2, 187020, Control_c, 0, 64, 92
2, 187040, Control_c, 0, 64, 99
2, 187061, Control_c, 0, 64, 101
2, 187144, Note_on_c, 0, 65, 48
2, 187153, Control_c, 0, 64, 100
2, 187186, Note_on_c, 0, 74, 0
2, 187289, Control_c, 0, 64, 99
2, 187308, Control_c, 0, 64, 98
2, 187327, Control_c, 0, 64, 97
2, 187345, Control_c, 0, 64, 95
2, 187365, Control_c, 0, 64, 93
2, 187385, Control_c, 0, 64, 91
2, 187404, Control_c, 0, 64, 90
2, 187441, Control_c, 0, 64, 89
2, 187480, Control_c, 0, 64, 87
2, 187498, Control_c, 0, 64, 86
2, 187519, Control_c, 0, 64, 84
2, 187538, Control_c, 0, 64, 82
2, 187550, Note_on_c, 0, 51, 63
2, 187560, Control_c, 0, 64, 79
2, 187560, Note_on_c, 0, 75, 54
2, 187571, Note_on_c, 0, 66, 55
2, 187575, Control_c, 0, 64, 77
2, 187597, Control_c, 0, 64, 74
2, 187614, Control_c, 0, 64, 71
2, 187618, Note_on_c, 0, 65, 0
2, 187653, Control_c, 0, 64, 70
2, 187674, Note_on_c, 0, 70, 0
2, 187695, Control_c, 0, 64, 69
2, 187710, Control_c, 0, 64, 68
2, 187733, Control_c, 0, 64, 67
2, 187769, Control_c, 0, 64, 66
2, 187788, Control_c, 0, 64, 65
2, 187883, Control_c, 0, 64, 64
2, 187965, Note_on_c, 0, 53, 60
2, 187990, Note_on_c, 0, 66, 0
2, 187999, Note_on_c, 0, 65, 47
2, 187999, Note_on_c, 0, 75, 0
2, 188017, Control_c, 0, 64, 63
2, 188093, Control_c, 0, 64, 62
2, 188093, Note_on_c, 0, 51, 0
2, 188270, Control_c, 0, 64, 61
2, 188324, Control_c, 0, 64, 60
2, 188357, Note_on_c, 0, 54, 62
2, 188375, Note_on_c, 0, 63, 43
2, 188416, Note_on_c, 0, 53, 0
2, 188420, Control_c, 0, 64, 59
2, 188479, Note_on_c, 0, 65, 0
2, 188594, Control_c, 0, 64, 58
2, 188763, Note_on_c, 0, 53, 52
2, 188770, Note_on_c, 0, 68, 51
2, 188833, Note_on_c, 0, 54, 0
2, 188997, Control_c, 0, 64, 57
2, 189169, Control_c, 0, 64, 56
2, 189187, Note_on_c, 0, 58, 56
2, 189192, Note_on_c, 0, 62, 46
2, 189228, Control_c, 0, 64, 55
2, 189577, Note_on_c, 0, 65, 38
2, 189582, Note_on_c, 0, 46, 47
2, 189631, Control_c, 0, 64, 54
2, 189644, Note_on_c, 0, 58, 0
2, 189704, Note_on_c, 0, 62, 0
2, 189766, Control_c, 0, 64, 53
2, 189976, Note_on_c, 0, 51, 52
2, 189994, Note_on_c, 0, 66, 54
2, 190036, Note_on_c, 0, 63, 0
2, 190053, Note_on_c, 0, 65, 0
2, 190062, Note_on_c, 0, 46, 0
2, 190080, Note_on_c, 0, 53, 0
2, 190187, Note_on_c, 0, 68, 0
2, 190374, Note_on_c, 0, 54, 55
2, 190383, Note_on_c, 0, 63, 39
2, 190477, Control_c, 0, 64, 54
2, 190576, Note_on_c, 0, 51, 0
2, 190770, Note_on_c, 0, 53, 48
2, 190792, Note_on_c, 0, 63, 0
2, 190797, Note_on_c, 0, 62, 41
2, 190831, Note_on_c, 0, 54, 0
2, 191179, Note_on_c, 0, 54, 54
2, 191179, Note_on_c, 0, 63, 43
2, 191206, Control_c, 0, 64, 55
2, 191222, Note_on_c, 0, 53, 0
2, 191269, Note_on_c, 0, 62, 0
2, 191321, Note_on_c, 0, 66, 0
2, 191575, Note_on_c, 0, 53, 52
2, 191654, Note_on_c, 0, 54, 0
2, 191974, Note_on_c, 0, 51, 42
2, 191974, Note_on_c, 0, 71, 43
2, 192042, Note_on_c, 0, 53, 0
2, 192065, Note_on_c, 0, 63, 0
2, 192184, Control_c, 0, 64, 56
2, 192396, Note_on_c, 0, 53, 46
2, 192397, Note_on_c, 0, 61, 43
2, 192487, Note_on_c, 0, 51, 0
2, 192497, Note_on_c, 0, 71, 0
2, 192793, Note_on_c, 0, 54, 61
2, 192896, Note_on_c, 0, 53, 0
2, 193190, Note_on_c, 0, 56, 59
2, 193206, Note_on_c, 0, 71, 48
2, 193257, Note_on_c, 0, 54, 0
2, 193321, Note_on_c, 0, 61, 0
2, 193529, Control_c, 0, 64, 57
2, 193598, Note_on_c, 0, 54, 60
2, 193598, Note_on_c, 0, 70, 52
2, 193713, Note_on_c, 0, 56, 0
2, 193856, Note_on_c, 0, 71, 0
2, 193987, Note_on_c, 0, 59, 55
2, 193991, Note_on_c, 0, 68, 53
2, 194125, Note_on_c, 0, 70, 0
2, 194376, Control_c, 0, 64, 56
2, 194395, Note_on_c, 0, 51, 51
2, 194399, Note_on_c, 0, 66, 53
2, 194432, Control_c, 0, 64, 57
2, 194465, Note_on_c, 0, 68, 0
2, 194469, Note_on_c, 0, 59, 0
2, 194474, Note_on_c, 0, 54, 0
2, 194698, Control_c, 0, 64, 56
2, 194796, Note_on_c, 0, 53, 51
2, 194801, Note_on_c, 0, 68, 59
2, 194886, Note_on_c, 0, 51, 0
2, 194886, Note_on_c, 0, 66, 0
2, 195206, Note_on_c, 0, 59, 50
2, 195211, Note_on_c, 0, 56, 43
2, 195249, Note_on_c, 0, 53, 0
2, 195260, Note_on_c, 0, 68, 0
2, 195589, Note_on_c, 0, 58, 42
2, 195609, Note_on_c, 0, 54, 43
2, 195632, Note_on_c, 0, 56, 0
2, 195641, Note_on_c, 0, 59, 0
2, 196002, Note_on_c, 0, 59, 40
2, 196016, Note_on_c, 0, 56, 41
2, 196028, Note_on_c, 0, 54, 0
2, 196043, Note_on_c, 0, 58, 0
2, 196239, Control_c, 0, 64, 55
2, 196334, Control_c, 0, 64, 54
2, 196392, Control_c, 0, 64, 53
2, 196418, Note_on_c, 0, 68, 50
2, 196421, Note_on_c, 0, 54, 39
2, 196442, Note_on_c, 0, 59, 0
2, 196508, Control_c, 0, 64, 52
2, 196545, Control_c, 0, 64, 51
2, 196586, Control_c, 0, 64, 50
2, 196597, Note_on_c, 0, 56, 0
2, 196602, Control_c, 0, 64, 49
2, 196622, Control_c, 0, 64, 48
2, 196642, Control_c, 0, 64, 47
2, 196717, Control_c, 0, 64, 46
2, 196738, Control_c, 0, 64, 45
2, 196756, Control_c, 0, 64, 44
2, 196777, Control_c, 0, 64, 43
2, 196813, Note_on_c, 0, 53, 44
2, 196815, Note_on_c, 0, 59, 44
2, 196835, Control_c, 0, 64, 44
2, 196873, Note_on_c, 0, 54, 0
2, 196942, Note_on_c, 0, 68, 0
2, 197208, Note_on_c, 0, 58, 40
2, 197212, Note_on_c, 0, 54, 49
2, 197263, Note_on_c, 0, 53, 0
2, 197315, Note_on_c, 0, 59, 0
2, 197604, Note_on_c, 0, 52, 44
2, 197620, Control_c, 0, 64, 45
2, 197717, Control_c, 0, 64, 46
2, 197746, Note_on_c, 0, 54, 0
2, 197755, Control_c, 0, 64, 47
2, 197927, Control_c, 0, 64, 48
2, 197992, Note_on_c, 0, 60, 47
2, 198012, Note_on_c, 0, 51, 49
2, 198041, Note_on_c, 0, 52, 0
2, 198048, Note_on_c, 0, 58, 0
2, 198101, Control_c, 0, 64, 49
2, 198406, Note_on_c, 0, 61, 43
2, 198409, Note_on_c, 0, 51, 0
2, 198413, Note_on_c, 0, 52, 53
2, 198543, Note_on_c, 0, 60, 0
2, 198676, Control_c, 0, 64, 50
2, 198802, Note_on_c, 0, 57, 52
2, 199100, Control_c, 0, 64, 51
2, 199197, Note_on_c, 0, 49, 39
2, 199204, Note_on_c, 0, 64, 55
2, 199278, Note_on_c, 0, 57, 0
2, 199303, Note_on_c, 0, 52, 0
2, 199522, Control_c, 0, 64, 50
2, 199602, Note_on_c, 0, 66, 51
2, 199606, Note_on_c, 0, 51, 45
2, 199665, Note_on_c, 0, 64, 0
2, 199720, Note_on_c, 0, 49, 0
2, 199962, Control_c, 0, 64, 51
2, 199988, Note_on_c, 0, 69, 53
2, 200051, Note_on_c, 0, 66, 0
2, 200327, Note_on_c, 0, 51, 0
2, 200387, Note_on_c, 0, 68, 60
2, 200406, Control_c, 0, 64, 52
2, 200440, Note_on_c, 0, 69, 0
2, 200539, Control_c, 0, 64, 53
2, 200787, Note_on_c, 0, 69, 52
2, 200796, Note_on_c, 0, 44, 42
2, 200809, Note_on_c, 0, 60, 32
2, 200833, Note_on_c, 0, 68, 0
2, 200880, Note_on_c, 0, 61, 0
2, 201116, Control_c, 0, 64, 54
2, 201153, Control_c, 0, 64, 55
2, 201175, Control_c, 0, 64, 57
2, 201192, Control_c, 0, 64, 58
2, 201192, Note_on_c, 0, 68, 53
2, 201212, Control_c, 0, 64, 59
2, 201230, Control_c, 0, 64, 61
2, 201250, Control_c, 0, 64, 62
2, 201287, Note_on_c, 0, 69, 0
2, 201307, Control_c, 0, 64, 63
2, 201344, Control_c, 0, 64, 64
2, 201363, Control_c, 0, 64, 65
2, 201386, Control_c, 0, 64, 66
2, 201402, Control_c, 0, 64, 67
2, 201422, Control_c, 0, 64, 68
2, 201441, Control_c, 0, 64, 70
2, 201460, Control_c, 0, 64, 71
2, 201480, Control_c, 0, 64, 72
2, 201500, Control_c, 0, 64, 73
2, 201517, Control_c, 0, 64, 76
2, 201537, Control_c, 0, 64, 78
2, 201560, Control_c, 0, 64, 80
2, 201565, Note_on_c, 0, 44, 0
2, 201579, Control_c, 0, 64, 82
2, 201579, Note_on_c, 0, 66, 53
2, 201598, Control_c, 0, 64, 85
2, 201598, Note_on_c, 0, 60, 0
2, 201615, Control_c, 0, 64, 89
2, 201637, Control_c, 0, 64, 93
2, 201641, Note_on_c, 0, 68, 0
2, 201653, Control_c, 0, 64, 96
2, 201673, Control_c, 0, 64, 98
2, 201690, Control_c, 0, 64, 99
2, 201786, Control_c, 0, 64, 98
2, 201807, Control_c, 0, 64, 97
2, 201844, Control_c, 0, 64, 96
2, 201863, Control_c, 0, 64, 95
2, 201883, Control_c, 0, 64, 92
2, 201902, Control_c, 0, 64, 87
2, 201923, Control_c, 0, 64, 81
2, 201941, Control_c, 0, 64, 74
2, 201960, Control_c, 0, 64, 69
2, 201964, Note_on_c, 0, 64, 50
2, 201971, Note_on_c, 0, 49, 37
2, 201975, Note_on_c, 0, 61, 38
2, 201979, Control_c, 0, 64, 65
2, 201999, Control_c, 0, 64, 63
2, 202004, Note_on_c, 0, 66, 0
2, 202019, Control_c, 0, 64, 61
2, 202039, Control_c, 0, 64, 60
2, 202056, Control_c, 0, 64, 58
2, 202074, Control_c, 0, 64, 56
2, 202098, Control_c, 0, 64, 55
2, 202131, Control_c, 0, 64, 56
2, 202170, Control_c, 0, 64, 58
2, 202191, Control_c, 0, 64, 60
2, 202208, Control_c, 0, 64, 62
2, 202227, Control_c, 0, 64, 63
2, 202247, Control_c, 0, 64, 64
2, 202267, Control_c, 0, 64, 65
2, 202304, Control_c, 0, 64, 66
2, 202324, Control_c, 0, 64, 67
2, 202345, Control_c, 0, 64, 68
2, 202362, Note_on_c, 0, 68, 58
2, 202367, Note_on_c, 0, 64, 0
2, 202372, Note_on_c, 0, 52, 44
2, 202382, Control_c, 0, 64, 69
2, 202400, Control_c, 0, 64, 70
2, 202423, Control_c, 0, 64, 71
2, 202423, Note_on_c, 0, 49, 0
2, 202440, Control_c, 0, 64, 72
2, 202461, Control_c, 0, 64, 74
2, 202482, Control_c, 0, 64, 75
2, 202517, Control_c, 0, 64, 76
2, 202549, Note_on_c, 0, 66, 65
2, 202576, Note_on_c, 0, 68, 0
2, 202719, Note_on_c, 0, 52, 0
2, 202730, Control_c, 0, 64, 75
2, 202734, Note_on_c, 0, 68, 67
2, 202776, Note_on_c, 0, 49, 38
2, 202803, Control_c, 0, 64, 74
2, 202862, Control_c, 0, 64, 73
2, 202901, Control_c, 0, 64, 72
2, 202912, Note_on_c, 0, 70, 73
2, 202940, Control_c, 0, 64, 71
2, 202957, Control_c, 0, 64, 70
2, 202973, Note_on_c, 0, 66, 0
2, 203035, Control_c, 0, 64, 69
2, 203055, Control_c, 0, 64, 68
2, 203075, Control_c, 0, 64, 67
2, 203092, Control_c, 0, 64, 66
2, 203100, Note_on_c, 0, 68, 0
2, 203113, Control_c, 0, 64, 65
2, 203126, Note_on_c, 0, 71, 75
2, 203135, Control_c, 0, 64, 64
2, 203150, Control_c, 0, 64, 63
2, 203152, Note_on_c, 0, 56, 44
2, 203168, Control_c, 0, 64, 62
2, 203168, Note_on_c, 0, 61, 0
2, 203187, Control_c, 0, 64, 61
2, 203196, Note_on_c, 0, 70, 0
2, 203201, Note_on_c, 0, 49, 0
2, 203209, Control_c, 0, 64, 60
2, 203225, Control_c, 0, 64, 59
2, 203245, Control_c, 0, 64, 58
2, 203283, Control_c, 0, 64, 57
2, 203304, Control_c, 0, 64, 56
2, 203343, Control_c, 0, 64, 55
2, 203420, Control_c, 0, 64, 54
2, 203507, Note_on_c, 0, 63, 55
2, 203610, Control_c, 0, 64, 55
2, 203892, Note_on_c, 0, 68, 55
2, 203903, Note_on_c, 0, 63, 0
2, 203913, Note_on_c, 0, 54, 31
2, 203989, Note_on_c, 0, 56, 0
2, 204295, Note_on_c, 0, 61, 45
2, 204304, Note_on_c, 0, 52, 42
2, 204353, Note_on_c, 0, 54, 0
2, 204386, Note_on_c, 0, 68, 0
2, 204674, Note_on_c, 0, 54, 39
2, 204691, Note_on_c, 0, 64, 47
2, 204727, Note_on_c, 0, 52, 0
2, 204727, Note_on_c, 0, 61, 0
2, 204803, Control_c, 0, 64, 56
2, 205075, Note_on_c, 0, 63, 53
2, 205084, Note_on_c, 0, 56, 38
2, 205102, Note_on_c, 0, 64, 0
2, 205468, Note_on_c, 0, 70, 59
2, 205475, Note_on_c, 0, 49, 38
2, 205483, Note_on_c, 0, 64, 41
2, 205506, Note_on_c, 0, 56, 0
2, 205527, Note_on_c, 0, 71, 0
2, 205552, Control_c, 0, 64, 55
2, 205552, Note_on_c, 0, 54, 0
2, 205558, Note_on_c, 0, 63, 0
2, 205646, Control_c, 0, 64, 54
2, 205668, Control_c, 0, 64, 53
2, 205686, Control_c, 0, 64, 52
2, 205706, Control_c, 0, 64, 51
2, 205781, Control_c, 0, 64, 52
2, 205800, Control_c, 0, 64, 53
2, 205837, Control_c, 0, 64, 54
2, 205859, Control_c, 0, 64, 55
2, 205868, Note_on_c, 0, 63, 52
2, 205880, Control_c, 0, 64, 57
2, 205896, Control_c, 0, 64, 59
2, 205914, Control_c, 0, 64, 61
2, 205933, Control_c, 0, 64, 62
2, 205954, Control_c, 0, 64, 63
2, 205973, Control_c, 0, 64, 64
2, 205993, Control_c, 0, 64, 65
2, 206011, Control_c, 0, 64, 68
2, 206030, Control_c, 0, 64, 71
2, 206050, Control_c, 0, 64, 77
2, 206052, Note_on_c, 0, 64, 0
2, 206069, Control_c, 0, 64, 85
2, 206074, Note_on_c, 0, 63, 0
2, 206086, Control_c, 0, 64, 97
2, 206110, Control_c, 0, 64, 127
2, 206228, Note_on_c, 0, 61, 52
2, 206238, Note_on_c, 0, 54, 48
2, 206252, Note_on_c, 0, 49, 0
2, 206331, Note_on_c, 0, 54, 0
2, 206331, Note_on_c, 0, 61, 0
2, 206587, Control_c, 0, 64, 101
2, 206606, Control_c, 0, 64, 88
2, 206622, Note_on_c, 0, 71, 71
2, 206626, Control_c, 0, 64, 80
2, 206633, Note_on_c, 0, 47, 41
2, 206644, Control_c, 0, 64, 74
2, 206648, Note_on_c, 0, 63, 48
2, 206664, Control_c, 0, 64, 70
2, 206683, Control_c, 0, 64, 67
2, 206693, Note_on_c, 0, 70, 0
2, 206702, Control_c, 0, 64, 65
2, 206739, Control_c, 0, 64, 64
2, 206760, Control_c, 0, 64, 63
2, 206797, Control_c, 0, 64, 61
2, 206818, Control_c, 0, 64, 60
2, 206840, Control_c, 0, 64, 59
2, 206856, Control_c, 0, 64, 57
2, 206878, Control_c, 0, 64, 56
2, 206895, Control_c, 0, 64, 54
2, 206913, Control_c, 0, 64, 51
2, 206931, Control_c, 0, 64, 48
2, 206951, Control_c, 0, 64, 44
2, 206970, Control_c, 0, 64, 42
2, 206990, Control_c, 0, 64, 41
2, 207030, Control_c, 0, 64, 42
2, 207030, Note_on_c, 0, 54, 42
2, 207049, Control_c, 0, 64, 43
2, 207068, Control_c, 0, 64, 47
2, 207086, Control_c, 0, 64, 52
2, 207105, Control_c, 0, 64, 56
2, 207127, Control_c, 0, 64, 59
2, 207143, Control_c, 0, 64, 61
2, 207161, Control_c, 0, 64, 63
2, 207181, Control_c, 0, 64, 66
2, 207202, Control_c, 0, 64, 70
2, 207219, Control_c, 0, 64, 78
2, 207240, Control_c, 0, 64, 93
2, 207260, Control_c, 0, 64, 127
2, 207394, Note_on_c, 0, 47, 0
2, 207431, Note_on_c, 0, 68, 59
2, 207435, Note_on_c, 0, 59, 48
2, 207452, Note_on_c, 0, 63, 0
2, 207456, Note_on_c, 0, 71, 0
2, 207498, Note_on_c, 0, 54, 0
2, 207584, Note_on_c, 0, 68, 0
2, 207797, Control_c, 0, 64, 111
2, 207816, Control_c, 0, 64, 98
2, 207816, Note_on_c, 0, 73, 80
2, 207834, Control_c, 0, 64, 89
2, 207846, Note_on_c, 0, 65, 53
2, 207854, Control_c, 0, 64, 80
2, 207873, Control_c, 0, 64, 73
2, 207891, Control_c, 0, 64, 68
2, 207913, Control_c, 0, 64, 65
2, 207930, Control_c, 0, 64, 64
2, 207950, Control_c, 0, 64, 63
2, 207967, Control_c, 0, 64, 62
2, 207988, Control_c, 0, 64, 61
2, 208008, Control_c, 0, 64, 60
2, 208026, Control_c, 0, 64, 58
2, 208045, Control_c, 0, 64, 57
2, 208065, Control_c, 0, 64, 54
2, 208084, Control_c, 0, 64, 51
2, 208104, Control_c, 0, 64, 44
2, 208124, Control_c, 0, 64, 28
2, 208143, Control_c, 0, 64, 0
2, 208188, Note_on_c, 0, 56, 54
2, 208202, Note_on_c, 0, 59, 0
2, 208240, Control_c, 0, 64, 22
2, 208257, Control_c, 0, 64, 42
2, 208277, Control_c, 0, 64, 53
2, 208296, Control_c, 0, 64, 60
2, 208313, Control_c, 0, 64, 64
2, 208333, Control_c, 0, 64, 68
2, 208353, Control_c, 0, 64, 75
2, 208375, Control_c, 0, 64, 91
2, 208391, Control_c, 0, 64, 127
2, 208589, Note_on_c, 0, 67, 61
2, 208594, Note_on_c, 0, 73, 0
2, 208598, Note_on_c, 0, 58, 53
2, 208659, Note_on_c, 0, 56, 0
2, 208679, Note_on_c, 0, 67, 0
2, 208712, Note_on_c, 0, 65, 0
2, 208766, Note_on_c, 0, 58, 0
2, 208972, Note_on_c, 0, 75, 81
2, 208986, Note_on_c, 0, 71, 56
2, 209027, Control_c, 0, 64, 99
2, 209043, Control_c, 0, 64, 83
2, 209063, Control_c, 0, 64, 72
2, 209082, Control_c, 0, 64, 65
2, 209102, Control_c, 0, 64, 59
2, 209120, Control_c, 0, 64, 57
2, 209140, Control_c, 0, 64, 55
2, 209160, Control_c, 0, 64, 53
2, 209178, Control_c, 0, 64, 51
2, 209198, Control_c, 0, 64, 50
2, 209217, Control_c, 0, 64, 48
2, 209236, Control_c, 0, 64, 44
2, 209255, Control_c, 0, 64, 42
2, 209274, Control_c, 0, 64, 40
2, 209294, Control_c, 0, 64, 41
2, 209314, Control_c, 0, 64, 43
2, 209333, Control_c, 0, 64, 49
2, 209353, Control_c, 0, 64, 56
2, 209369, Control_c, 0, 64, 60
2, 209378, Note_on_c, 0, 51, 50
2, 209390, Control_c, 0, 64, 62
2, 209411, Control_c, 0, 64, 63
2, 209429, Control_c, 0, 64, 64
2, 209440, Note_on_c, 0, 71, 0
2, 209451, Control_c, 0, 64, 67
2, 209467, Control_c, 0, 64, 74
2, 209489, Control_c, 0, 64, 94
2, 209506, Control_c, 0, 64, 127
2, 209589, Note_on_c, 0, 75, 0
2, 209775, Note_on_c, 0, 56, 53
2, 209827, Note_on_c, 0, 51, 0
2, 209896, Note_on_c, 0, 56, 0
2, 210132, Note_on_c, 0, 76, 73
2, 210146, Note_on_c, 0, 70, 53
2, 210254, Control_c, 0, 64, 107
2, 210274, Control_c, 0, 64, 90
2, 210292, Control_c, 0, 64, 79
2, 210312, Control_c, 0, 64, 72
2, 210332, Control_c, 0, 64, 68
2, 210350, Control_c, 0, 64, 66
2, 210371, Control_c, 0, 64, 65
2, 210387, Control_c, 0, 64, 64
2, 210408, Control_c, 0, 64, 63
2, 210426, Control_c, 0, 64, 61
2, 210445, Control_c, 0, 64, 59
2, 210465, Control_c, 0, 64, 57
2, 210483, Control_c, 0, 64, 56
2, 210503, Control_c, 0, 64, 54
2, 210513, Note_on_c, 0, 75, 68
2, 210525, Control_c, 0, 64, 51
2, 210530, Note_on_c, 0, 53, 42
2, 210543, Control_c, 0, 64, 49
2, 210560, Control_c, 0, 64, 47
2, 210579, Control_c, 0, 64, 44
2, 210599, Control_c, 0, 64, 39
2, 210620, Control_c, 0, 64, 34
2, 210639, Control_c, 0, 64, 32
2, 210675, Control_c, 0, 64, 35
2, 210696, Control_c, 0, 64, 40
2, 210717, Control_c, 0, 64, 45
2, 210737, Control_c, 0, 64, 51
2, 210755, Control_c, 0, 64, 55
2, 210773, Control_c, 0, 64, 58
2, 210792, Control_c, 0, 64, 60
2, 210811, Control_c, 0, 64, 62
2, 210833, Control_c, 0, 64, 63
2, 210849, Control_c, 0, 64, 64
2, 210867, Control_c, 0, 64, 65
2, 210871, Note_on_c, 0, 76, 0
2, 210887, Control_c, 0, 64, 69
2, 210905, Control_c, 0, 64, 74
2, 210921, Note_on_c, 0, 73, 64
2, 210930, Control_c, 0, 64, 83
2, 210945, Control_c, 0, 64, 94
2, 210952, Note_on_c, 0, 55, 45
2, 210963, Control_c, 0, 64, 106
2, 210982, Control_c, 0, 64, 115
2, 211004, Control_c, 0, 64, 120
2, 211012, Note_on_c, 0, 70, 0
2, 211022, Control_c, 0, 64, 122
2, 211058, Note_on_c, 0, 75, 0
2, 211062, Control_c, 0, 64, 120
2, 211080, Control_c, 0, 64, 118
2, 211096, Control_c, 0, 64, 115
2, 211116, Control_c, 0, 64, 111
2, 211138, Control_c, 0, 64, 109
2, 211157, Control_c, 0, 64, 105
2, 211166, Note_on_c, 0, 53, 0
2, 211175, Control_c, 0, 64, 102
2, 211197, Control_c, 0, 64, 98
2, 211214, Control_c, 0, 64, 94
2, 211235, Control_c, 0, 64, 91
2, 211253, Control_c, 0, 64, 87
2, 211270, Control_c, 0, 64, 82
2, 211291, Control_c, 0, 64, 76
2, 211310, Control_c, 0, 64, 70
2, 211312, Note_on_c, 0, 56, 42
2, 211320, Note_on_c, 0, 63, 43
2, 211324, Note_on_c, 0, 71, 64
2, 211329, Control_c, 0, 64, 65
2, 211349, Control_c, 0, 64, 62
2, 211359, Note_on_c, 0, 55, 0
2, 211363, Note_on_c, 0, 73, 0
2, 211368, Control_c, 0, 64, 60
2, 211387, Control_c, 0, 64, 58
2, 211408, Control_c, 0, 64, 56
2, 211445, Control_c, 0, 64, 57
2, 211462, Control_c, 0, 64, 59
2, 211482, Control_c, 0, 64, 62
2, 211501, Control_c, 0, 64, 64
2, 211521, Control_c, 0, 64, 66
2, 211542, Control_c, 0, 64, 70
2, 211560, Control_c, 0, 64, 76
2, 211580, Control_c, 0, 64, 82
2, 211598, Control_c, 0, 64, 85
2, 211636, Control_c, 0, 64, 84
2, 211655, Control_c, 0, 64, 83
2, 211677, Control_c, 0, 64, 82
2, 211693, Control_c, 0, 64, 81
2, 211714, Control_c, 0, 64, 80
2, 211720, Note_on_c, 0, 75, 68
2, 211732, Control_c, 0, 64, 78
2, 211751, Control_c, 0, 64, 77
2, 211771, Control_c, 0, 64, 75
2, 211791, Control_c, 0, 64, 74
2, 211808, Control_c, 0, 64, 72
2, 211829, Control_c, 0, 64, 71
2, 211848, Control_c, 0, 64, 70
2, 211867, Control_c, 0, 64, 69
2, 211880, Note_on_c, 0, 71, 0
2, 211884, Control_c, 0, 64, 68
2, 211905, Control_c, 0, 64, 67
2, 211943, Control_c, 0, 64, 66
2, 211983, Control_c, 0, 64, 65
2, 212020, Control_c, 0, 64, 64
2, 212071, Note_on_c, 0, 78, 76
2, 212080, Control_c, 0, 64, 63
2, 212095, Note_on_c, 0, 62, 54
2, 212097, Control_c, 0, 64, 62
2, 212113, Note_on_c, 0, 58, 40
2, 212117, Control_c, 0, 64, 61
2, 212155, Control_c, 0, 64, 60
2, 212162, Note_on_c, 0, 63, 0
2, 212172, Control_c, 0, 64, 59
2, 212193, Control_c, 0, 64, 58
2, 212233, Control_c, 0, 64, 57
2, 212233, Note_on_c, 0, 56, 0
2, 212250, Control_c, 0, 64, 55
2, 212263, Note_on_c, 0, 75, 0
2, 212269, Control_c, 0, 64, 53
2, 212289, Control_c, 0, 64, 51
2, 212308, Control_c, 0, 64, 49
2, 212326, Control_c, 0, 64, 47
2, 212345, Control_c, 0, 64, 45
2, 212366, Control_c, 0, 64, 41
2, 212384, Control_c, 0, 64, 36
2, 212404, Control_c, 0, 64, 29
2, 212424, Control_c, 0, 64, 19
2, 212443, Control_c, 0, 64, 0
2, 212496, Note_on_c, 0, 63, 51
2, 212507, Note_on_c, 0, 59, 55
2, 212531, Note_on_c, 0, 58, 0
2, 212559, Control_c, 0, 64, 11
2, 212578, Control_c, 0, 64, 27
2, 212596, Control_c, 0, 64, 39
2, 212615, Control_c, 0, 64, 48
2, 212634, Control_c, 0, 64, 55
2, 212654, Control_c, 0, 64, 59
2, 212672, Control_c, 0, 64, 61
2, 212691, Control_c, 0, 64, 62
2, 212711, Note_on_c, 0, 62, 0
2, 212730, Control_c, 0, 64, 63
2, 212752, Control_c, 0, 64, 64
2, 212768, Control_c, 0, 64, 67
2, 212790, Control_c, 0, 64, 70
2, 212808, Control_c, 0, 64, 79
2, 212820, Note_on_c, 0, 63, 0
2, 212829, Control_c, 0, 64, 93
2, 212846, Control_c, 0, 64, 127
2, 212895, Note_on_c, 0, 59, 0
2, 212906, Note_on_c, 0, 75, 72
2, 213229, Control_c, 0, 64, 116
2, 213250, Control_c, 0, 64, 91
2, 213270, Control_c, 0, 64, 79
2, 213279, Note_on_c, 0, 77, 78
2, 213288, Control_c, 0, 64, 71
2, 213293, Note_on_c, 0, 68, 70
2, 213308, Control_c, 0, 64, 66
2, 213312, Note_on_c, 0, 50, 55
2, 213326, Control_c, 0, 64, 62
2, 213331, Note_on_c, 0, 75, 0
2, 213344, Control_c, 0, 64, 59
2, 213364, Control_c, 0, 64, 58
2, 213368, Note_on_c, 0, 78, 0
2, 213385, Control_c, 0, 64, 59
2, 213402, Control_c, 0, 64, 60
2, 213423, Control_c, 0, 64, 63
2, 213441, Control_c, 0, 64, 66
2, 213460, Control_c, 0, 64, 76
2, 213464, Note_on_c, 0, 68, 0
2, 213482, Control_c, 0, 64, 127
2, 213694, Note_on_c, 0, 66, 65
2, 213697, Note_on_c, 0, 51, 56
2, 213708, Control_c, 0, 64, 101
2, 213732, Control_c, 0, 64, 80
2, 213749, Control_c, 0, 64, 68
2, 213754, Note_on_c, 0, 50, 0
2, 213767, Control_c, 0, 64, 62
2, 213786, Control_c, 0, 64, 59
2, 213807, Control_c, 0, 64, 60
2, 213825, Control_c, 0, 64, 62
2, 213844, Control_c, 0, 64, 64
2, 213861, Note_on_c, 0, 77, 0
2, 213864, Control_c, 0, 64, 69
2, 213882, Control_c, 0, 64, 78
2, 213902, Control_c, 0, 64, 104
2, 213919, Control_c, 0, 64, 127
2, 214084, Note_on_c, 0, 70, 73
2, 214455, Note_on_c, 0, 75, 81
2, 214460, Control_c, 0, 64, 90
2, 214474, Note_on_c, 0, 47, 44
2, 214479, Control_c, 0, 64, 74
2, 214497, Control_c, 0, 64, 65
2, 214516, Control_c, 0, 64, 62
2, 214536, Control_c, 0, 64, 61
2, 214536, Note_on_c, 0, 51, 0
2, 214555, Control_c, 0, 64, 62
2, 214575, Control_c, 0, 64, 63
2, 214593, Control_c, 0, 64, 65
2, 214613, Control_c, 0, 64, 70
2, 214633, Control_c, 0, 64, 78
2, 214637, Note_on_c, 0, 66, 0
2, 214651, Control_c, 0, 64, 92
2, 214673, Control_c, 0, 64, 127
2, 214872, Note_on_c, 0, 65, 67
2, 214883, Note_on_c, 0, 44, 52
2, 214922, Control_c, 0, 64, 93
2, 214926, Note_on_c, 0, 47, 0
2, 214939, Control_c, 0, 64, 76
2, 214956, Control_c, 0, 64, 66
2, 214975, Control_c, 0, 64, 60
2, 214998, Control_c, 0, 64, 55
2, 215016, Control_c, 0, 64, 49
2, 215037, Control_c, 0, 64, 42
2, 215041, Note_on_c, 0, 70, 0
2, 215055, Control_c, 0, 64, 30
2, 215073, Control_c, 0, 64, 0
2, 215226, Control_c, 0, 64, 20
2, 215246, Control_c, 0, 64, 37
2, 215266, Control_c, 0, 64, 50
2, 215277, Note_on_c, 0, 72, 71
2, 215284, Control_c, 0, 64, 60
2, 215304, Control_c, 0, 64, 63
2, 215322, Control_c, 0, 64, 65
2, 215344, Control_c, 0, 64, 66
2, 215364, Control_c, 0, 64, 70
2, 215372, Note_on_c, 0, 75, 0
2, 215379, Control_c, 0, 64, 78
2, 215402, Control_c, 0, 64, 109
2, 215419, Control_c, 0, 64, 127
2, 215681, Note_on_c, 0, 46, 51
2, 215681, Note_on_c, 0, 74, 73
2, 215699, Note_on_c, 0, 44, 0
2, 215719, Note_on_c, 0, 65, 0
2, 215747, Note_on_c, 0, 46, 0
2, 215771, Note_on_c, 0, 72, 0
2, 215804, Note_on_c, 0, 74, 0
2, 216110, Control_c, 0, 64, 107
2, 216114, Note_on_c, 0, 75, 68
2, 216130, Control_c, 0, 64, 82
2, 216130, Note_on_c, 0, 63, 58
2, 216134, Note_on_c, 0, 51, 58
2, 216148, Control_c, 0, 64, 70
2, 216168, Control_c, 0, 64, 63
2, 216186, Control_c, 0, 64, 59
2, 216206, Control_c, 0, 64, 56
2, 216224, Control_c, 0, 64, 53
2, 216244, Control_c, 0, 64, 50
2, 216264, Control_c, 0, 64, 47
2, 216284, Control_c, 0, 64, 45
2, 216302, Control_c, 0, 64, 46
2, 216321, Control_c, 0, 64, 51
2, 216340, Control_c, 0, 64, 57
2, 216360, Control_c, 0, 64, 62
2, 216380, Control_c, 0, 64, 65
2, 216397, Control_c, 0, 64, 69
2, 216418, Control_c, 0, 64, 76
2, 216438, Control_c, 0, 64, 91
2, 216444, Note_on_c, 0, 63, 0
2, 216456, Control_c, 0, 64, 127
2, 216501, Note_on_c, 0, 62, 56
2, 216519, Note_on_c, 0, 77, 81
2, 216648, Control_c, 0, 64, 120
2, 216666, Control_c, 0, 64, 96
2, 216685, Control_c, 0, 64, 86
2, 216707, Control_c, 0, 64, 79
2, 216723, Control_c, 0, 64, 76
2, 216745, Control_c, 0, 64, 74
2, 216762, Control_c, 0, 64, 73
2, 216804, Control_c, 0, 64, 72
2, 216820, Control_c, 0, 64, 71
2, 216826, Note_on_c, 0, 75, 0
2, 216841, Control_c, 0, 64, 70
2, 216859, Control_c, 0, 64, 68
2, 216879, Control_c, 0, 64, 66
2, 216897, Control_c, 0, 64, 65
2, 216904, Note_on_c, 0, 60, 47
2, 216908, Note_on_c, 0, 78, 81
2, 216918, Control_c, 0, 64, 64
2, 216934, Note_on_c, 0, 62, 0
2, 216973, Control_c, 0, 64, 63
2, 216993, Control_c, 0, 64, 62
2, 217015, Control_c, 0, 64, 61
2, 217020, Note_on_c, 0, 77, 0
2, 217034, Control_c, 0, 64, 59
2, 217052, Control_c, 0, 64, 56
2, 217068, Control_c, 0, 64, 53
2, 217088, Control_c, 0, 64, 51
2, 217127, Control_c, 0, 64, 52
2, 217145, Control_c, 0, 64, 55
2, 217164, Control_c, 0, 64, 59
2, 217184, Control_c, 0, 64, 62
2, 217205, Control_c, 0, 64, 64
2, 217224, Control_c, 0, 64, 66
2, 217246, Control_c, 0, 64, 68
2, 217261, Control_c, 0, 64, 73
2, 217280, Control_c, 0, 64, 80
2, 217305, Control_c, 0, 64, 91
2, 217305, Note_on_c, 0, 51, 0
2, 217305, Note_on_c, 0, 77, 81
2, 217322, Control_c, 0, 64, 111
2, 217322, Note_on_c, 0, 60, 0
2, 217341, Control_c, 0, 64, 127
2, 217341, Note_on_c, 0, 62, 49
2, 217405, Note_on_c, 0, 78, 0
2, 217666, Control_c, 0, 64, 107
2, 217686, Control_c, 0, 64, 90
2, 217697, Note_on_c, 0, 82, 76
2, 217703, Control_c, 0, 64, 77
2, 217715, Note_on_c, 0, 66, 50
2, 217724, Control_c, 0, 64, 69
2, 217742, Control_c, 0, 64, 64
2, 217761, Control_c, 0, 64, 62
2, 217765, Note_on_c, 0, 62, 0
2, 217780, Control_c, 0, 64, 63
2, 217799, Control_c, 0, 64, 65
2, 217808, Note_on_c, 0, 77, 0
2, 217822, Control_c, 0, 64, 70
2, 217822, Note_on_c, 0, 66, 0
2, 217840, Control_c, 0, 64, 81
2, 217857, Control_c, 0, 64, 120
2, 217876, Control_c, 0, 64, 127
2, 218098, Note_on_c, 0, 54, 54
2, 218111, Note_on_c, 0, 70, 49
2, 218127, Control_c, 0, 64, 118
2, 218145, Control_c, 0, 64, 101
2, 218165, Control_c, 0, 64, 91
2, 218186, Control_c, 0, 64, 82
2, 218204, Control_c, 0, 64, 77
2, 218222, Control_c, 0, 64, 73
2, 218241, Control_c, 0, 64, 71
2, 218260, Control_c, 0, 64, 69
2, 218338, Control_c, 0, 64, 68
2, 218374, Control_c, 0, 64, 67
2, 218451, Control_c, 0, 64, 66
2, 218489, Note_on_c, 0, 54, 0
2, 218489, Note_on_c, 0, 75, 63
2, 218491, Note_on_c, 0, 59, 46
2, 218511, Control_c, 0, 64, 65
2, 218544, Note_on_c, 0, 82, 0
2, 218568, Control_c, 0, 64, 64
2, 218588, Note_on_c, 0, 70, 0
2, 218683, Control_c, 0, 64, 63
2, 218816, Control_c, 0, 64, 62
2, 218872, Note_on_c, 0, 78, 68
2, 218900, Note_on_c, 0, 63, 42
2, 219002, Note_on_c, 0, 75, 0
2, 219269, Note_on_c, 0, 77, 66
2, 219273, Note_on_c, 0, 62, 46
2, 219283, Note_on_c, 0, 63, 0
2, 219350, Note_on_c, 0, 78, 0
2, 219678, Note_on_c, 0, 78, 73
2, 219695, Note_on_c, 0, 63, 40
2, 219720, Note_on_c, 0, 77, 0
2, 219968, Control_c, 0, 64, 61
2, 219973, Note_on_c, 0, 62, 0
2, 220076, Note_on_c, 0, 68, 49
2, 220076, Note_on_c, 0, 77, 61
2, 220087, Control_c, 0, 64, 60
2, 220122, Control_c, 0, 64, 61
2, 220179, Control_c, 0, 64, 60
2, 220326, Note_on_c, 0, 63, 0
2, 220392, Control_c, 0, 64, 59
2, 220420, Note_on_c, 0, 78, 0
2, 220452, Control_c, 0, 64, 58
2, 220460, Note_on_c, 0, 75, 58
2, 220471, Note_on_c, 0, 60, 47
2, 220506, Control_c, 0, 64, 57
2, 220522, Note_on_c, 0, 77, 0
2, 220585, Control_c, 0, 64, 58
2, 220605, Control_c, 0, 64, 59
2, 220619, Control_c, 0, 64, 61
2, 220641, Control_c, 0, 64, 62
2, 220659, Control_c, 0, 64, 63
2, 220678, Control_c, 0, 64, 64
2, 220719, Control_c, 0, 64, 65
2, 220737, Control_c, 0, 64, 66
2, 220794, Control_c, 0, 64, 65
2, 220815, Control_c, 0, 64, 64
2, 220858, Note_on_c, 0, 59, 0
2, 220871, Control_c, 0, 64, 63
2, 220880, Note_on_c, 0, 61, 41
2, 220893, Note_on_c, 0, 77, 54
2, 220912, Note_on_c, 0, 75, 0
2, 220927, Control_c, 0, 64, 62
2, 220949, Control_c, 0, 64, 61
2, 220957, Note_on_c, 0, 60, 0
2, 220968, Control_c, 0, 64, 60
2, 220986, Control_c, 0, 64, 59
2, 221004, Control_c, 0, 64, 58
2, 221043, Control_c, 0, 64, 57
2, 221101, Control_c, 0, 64, 58
2, 221139, Control_c, 0, 64, 60
2, 221159, Control_c, 0, 64, 61
2, 221180, Control_c, 0, 64, 63
2, 221198, Control_c, 0, 64, 64
2, 221219, Control_c, 0, 64, 65
2, 221239, Control_c, 0, 64, 66
2, 221257, Control_c, 0, 64, 67
2, 221273, Control_c, 0, 64, 69
2, 221295, Control_c, 0, 64, 71
2, 221295, Note_on_c, 0, 78, 73
2, 221316, Control_c, 0, 64, 73
2, 221333, Control_c, 0, 64, 75
2, 221351, Control_c, 0, 64, 78
2, 221371, Control_c, 0, 64, 80
2, 221375, Note_on_c, 0, 77, 0
2, 221389, Control_c, 0, 64, 83
2, 221410, Control_c, 0, 64, 87
2, 221426, Control_c, 0, 64, 92
2, 221447, Control_c, 0, 64, 98
2, 221466, Control_c, 0, 64, 109
2, 221485, Control_c, 0, 64, 127
2, 221658, Control_c, 0, 64, 122
2, 221677, Control_c, 0, 64, 102
2, 221684, Note_on_c, 0, 80, 79
2, 221688, Note_on_c, 0, 59, 49
2, 221688, Note_on_c, 0, 65, 47
2, 221698, Control_c, 0, 64, 94
2, 221716, Control_c, 0, 64, 93
2, 221755, Control_c, 0, 64, 98
2, 221774, Control_c, 0, 64, 109
2, 221778, Note_on_c, 0, 61, 0
2, 221793, Control_c, 0, 64, 127
2, 221824, Note_on_c, 0, 78, 0
2, 221829, Note_on_c, 0, 59, 0
2, 221833, Note_on_c, 0, 68, 0
2, 222024, Control_c, 0, 64, 105
2, 222046, Control_c, 0, 64, 94
2, 222060, Control_c, 0, 64, 83
2, 222080, Control_c, 0, 64, 73
2, 222090, Note_on_c, 0, 78, 78
2, 222091, Note_on_c, 0, 61, 51
2, 222100, Control_c, 0, 64, 66
2, 222109, Note_on_c, 0, 58, 33
2, 222117, Note_on_c, 0, 65, 0
2, 222121, Control_c, 0, 64, 62
2, 222137, Control_c, 0, 64, 58
2, 222159, Control_c, 0, 64, 55
2, 222179, Control_c, 0, 64, 54
2, 222192, Note_on_c, 0, 80, 0
2, 222215, Control_c, 0, 64, 55
2, 222234, Control_c, 0, 64, 57
2, 222254, Control_c, 0, 64, 59
2, 222272, Control_c, 0, 64, 62
2, 222290, Control_c, 0, 64, 64
2, 222312, Control_c, 0, 64, 67
2, 222331, Control_c, 0, 64, 71
2, 222349, Control_c, 0, 64, 77
2, 222369, Control_c, 0, 64, 84
2, 222389, Control_c, 0, 64, 91
2, 222405, Note_on_c, 0, 58, 0
2, 222407, Control_c, 0, 64, 98
2, 222427, Control_c, 0, 64, 102
2, 222464, Control_c, 0, 64, 103
2, 222489, Control_c, 0, 64, 106
2, 222489, Note_on_c, 0, 63, 51
2, 222489, Note_on_c, 0, 83, 70
2, 222502, Control_c, 0, 64, 111
2, 222523, Control_c, 0, 64, 127
2, 222559, Note_on_c, 0, 78, 0
2, 222848, Control_c, 0, 64, 95
2, 222870, Control_c, 0, 64, 78
2, 222873, Note_on_c, 0, 57, 51
2, 222873, Note_on_c, 0, 66, 54
2, 222873, Note_on_c, 0, 75, 66
2, 222877, Note_on_c, 0, 61, 0
2, 222887, Control_c, 0, 64, 68
2, 222908, Control_c, 0, 64, 63
2, 222913, Note_on_c, 0, 63, 0
2, 222929, Control_c, 0, 64, 62
2, 222934, Note_on_c, 0, 83, 0
2, 222945, Control_c, 0, 64, 63
2, 222963, Control_c, 0, 64, 65
2, 222984, Control_c, 0, 64, 69
2, 223002, Control_c, 0, 64, 79
2, 223021, Control_c, 0, 64, 94
2, 223040, Control_c, 0, 64, 127
2, 223213, Control_c, 0, 64, 106
2, 223235, Control_c, 0, 64, 92
2, 223252, Note_on_c, 0, 77, 68
2, 223256, Control_c, 0, 64, 80
2, 223261, Note_on_c, 0, 56, 58
2, 223266, Note_on_c, 0, 66, 0
2, 223271, Note_on_c, 0, 71, 60
2, 223272, Control_c, 0, 64, 69
2, 223290, Control_c, 0, 64, 64
2, 223310, Control_c, 0, 64, 62
2, 223323, Note_on_c, 0, 57, 0
2, 223328, Control_c, 0, 64, 60
2, 223367, Control_c, 0, 64, 61
2, 223406, Control_c, 0, 64, 63
2, 223424, Control_c, 0, 64, 65
2, 223445, Control_c, 0, 64, 67
2, 223462, Control_c, 0, 64, 71
2, 223483, Control_c, 0, 64, 77
2, 223491, Note_on_c, 0, 75, 0
2, 223501, Control_c, 0, 64, 85
2, 223523, Control_c, 0, 64, 97
2, 223542, Control_c, 0, 64, 127
2, 223651, Note_on_c, 0, 80, 74
2, 223657, Note_on_c, 0, 56, 0
2, 223668, Note_on_c, 0, 59, 56
2, 223701, Note_on_c, 0, 77, 0
2, 224019, Note_on_c, 0, 71, 0
2, 224024, Note_on_c, 0, 78, 76
2, 224028, Note_on_c, 0, 51, 55
2, 224036, Note_on_c, 0, 59, 0
2, 224087, Note_on_c, 0, 80, 0
2, 224407, Note_on_c, 0, 80, 75
2, 224418, Note_on_c, 0, 70, 51
2, 224425, Note_on_c, 0, 50, 53
2, 224461, Control_c, 0, 64, 92
2, 224465, Note_on_c, 0, 78, 0
2, 224481, Control_c, 0, 64, 79
2, 224499, Control_c, 0, 64, 71
2, 224519, Control_c, 0, 64, 65
2, 224519, Note_on_c, 0, 51, 0
2, 224537, Control_c, 0, 64, 61
2, 224556, Control_c, 0, 64, 56
2, 224577, Control_c, 0, 64, 51
2, 224597, Control_c, 0, 64, 47
2, 224615, Control_c, 0, 64, 45
2, 224634, Control_c, 0, 64, 44
2, 224731, Control_c, 0, 64, 48
2, 224750, Control_c, 0, 64, 53
2, 224768, Control_c, 0, 64, 55
2, 224789, Control_c, 0, 64, 57
2, 224802, Note_on_c, 0, 78, 73
2, 224807, Control_c, 0, 64, 59
2, 224811, Note_on_c, 0, 50, 0
2, 224814, Note_on_c, 0, 46, 44
2, 224827, Control_c, 0, 64, 62
2, 224845, Control_c, 0, 64, 65
2, 224865, Control_c, 0, 64, 69
2, 224883, Control_c, 0, 64, 78
2, 224903, Control_c, 0, 64, 98
2, 224921, Control_c, 0, 64, 127
2, 224981, Note_on_c, 0, 80, 0
2, 225184, Note_on_c, 0, 77, 74
2, 225208, Note_on_c, 0, 50, 39
2, 225215, Note_on_c, 0, 46, 0
2, 225275, Note_on_c, 0, 78, 0
2, 225536, Control_c, 0, 64, 104
2, 225554, Control_c, 0, 64, 90
2, 225574, Control_c, 0, 64, 78
2, 225591, Note_on_c, 0, 78, 70
2, 225595, Control_c, 0, 64, 69
2, 225614, Control_c, 0, 64, 64
2, 225614, Note_on_c, 0, 51, 36
2, 225634, Control_c, 0, 64, 61
2, 225634, Note_on_c, 0, 50, 0
2, 225639, Note_on_c, 0, 77, 0
2, 225651, Control_c, 0, 64, 58
2, 225671, Control_c, 0, 64, 54
2, 225691, Control_c, 0, 64, 49
2, 225708, Control_c, 0, 64, 42
2, 225728, Control_c, 0, 64, 36
2, 225747, Control_c, 0, 64, 30
2, 225766, Control_c, 0, 64, 29
2, 225787, Control_c, 0, 64, 31
2, 225805, Control_c, 0, 64, 40
2, 225824, Control_c, 0, 64, 51
2, 225845, Control_c, 0, 64, 59
2, 225862, Control_c, 0, 64, 63
2, 225881, Control_c, 0, 64, 67
2, 225901, Control_c, 0, 64, 76
2, 225922, Control_c, 0, 64, 102
2, 225940, Control_c, 0, 64, 127
2, 225984, Note_on_c, 0, 73, 54
2, 226038, Note_on_c, 0, 51, 0
2, 226083, Note_on_c, 0, 78, 0
2, 226351, Note_on_c, 0, 79, 67
2, 226709, Control_c, 0, 64, 112
2, 226726, Control_c, 0, 64, 96
2, 226746, Note_on_c, 0, 44, 44
2, 226751, Control_c, 0, 64, 86
2, 226756, Note_on_c, 0, 80, 70
2, 226767, Control_c, 0, 64, 78
2, 226785, Control_c, 0, 64, 71
2, 226804, Control_c, 0, 64, 66
2, 226811, Note_on_c, 0, 79, 0
2, 226818, Note_on_c, 0, 70, 0
2, 226823, Control_c, 0, 64, 62
2, 226843, Control_c, 0, 64, 59
2, 226862, Control_c, 0, 64, 56
2, 226880, Control_c, 0, 64, 54
2, 226899, Control_c, 0, 64, 51
2, 226922, Control_c, 0, 64, 48
2, 226939, Control_c, 0, 64, 46
2, 226977, Control_c, 0, 64, 47
2, 226998, Control_c, 0, 64, 53
2, 227016, Control_c, 0, 64, 59
2, 227034, Control_c, 0, 64, 62
2, 227052, Control_c, 0, 64, 63
2, 227072, Control_c, 0, 64, 65
2, 227092, Control_c, 0, 64, 67
2, 227110, Control_c, 0, 64, 71
2, 227125, Note_on_c, 0, 70, 58
2, 227129, Control_c, 0, 64, 82
2, 227149, Control_c, 0, 64, 109
2, 227169, Control_c, 0, 64, 127
2, 227173, Note_on_c, 0, 73, 0
2, 227379, Note_on_c, 0, 44, 0
2, 227401, Note_on_c, 0, 70, 0
2, 227491, Note_on_c, 0, 78, 64
2, 227510, Note_on_c, 0, 72, 56
2, 227561, Note_on_c, 0, 72, 0
2, 227691, Note_on_c, 0, 80, 0
2, 227879, Control_c, 0, 64, 109
2, 227898, Control_c, 0, 64, 94
2, 227918, Control_c, 0, 64, 84
2, 227918, Note_on_c, 0, 73, 51
2, 227923, Note_on_c, 0, 76, 64
2, 227937, Control_c, 0, 64, 76
2, 227937, Note_on_c, 0, 49, 36
2, 227958, Control_c, 0, 64, 70
2, 227973, Control_c, 0, 64, 67
2, 227995, Control_c, 0, 64, 65
2, 228016, Control_c, 0, 64, 63
2, 228016, Note_on_c, 0, 78, 0
2, 228032, Control_c, 0, 64, 61
2, 228050, Control_c, 0, 64, 59
2, 228072, Control_c, 0, 64, 56
2, 228093, Control_c, 0, 64, 54
2, 228109, Control_c, 0, 64, 51
2, 228128, Control_c, 0, 64, 49
2, 228148, Control_c, 0, 64, 47
2, 228206, Control_c, 0, 64, 50
2, 228226, Control_c, 0, 64, 54
2, 228243, Control_c, 0, 64, 58
2, 228261, Control_c, 0, 64, 60
2, 228282, Control_c, 0, 64, 62
2, 228303, Note_on_c, 0, 71, 53
2, 228307, Control_c, 0, 64, 64
2, 228321, Control_c, 0, 64, 66
2, 228339, Control_c, 0, 64, 68
2, 228359, Control_c, 0, 64, 74
2, 228377, Control_c, 0, 64, 81
2, 228397, Control_c, 0, 64, 89
2, 228415, Control_c, 0, 64, 102
2, 228437, Control_c, 0, 64, 127
2, 228460, Note_on_c, 0, 49, 0
2, 228697, Note_on_c, 0, 77, 66
2, 228781, Note_on_c, 0, 76, 0
2, 228788, Note_on_c, 0, 71, 0
2, 229034, Control_c, 0, 64, 116
2, 229049, Control_c, 0, 64, 95
2, 229072, Control_c, 0, 64, 84
2, 229091, Control_c, 0, 64, 76
2, 229100, Note_on_c, 0, 78, 69
2, 229109, Control_c, 0, 64, 70
2, 229109, Note_on_c, 0, 42, 41
2, 229129, Control_c, 0, 64, 66
2, 229134, Note_on_c, 0, 77, 0
2, 229147, Control_c, 0, 64, 64
2, 229167, Control_c, 0, 64, 63
2, 229184, Control_c, 0, 64, 61
2, 229203, Control_c, 0, 64, 60
2, 229221, Control_c, 0, 64, 57
2, 229241, Control_c, 0, 64, 54
2, 229262, Control_c, 0, 64, 51
2, 229280, Control_c, 0, 64, 50
2, 229321, Control_c, 0, 64, 51
2, 229337, Control_c, 0, 64, 54
2, 229355, Control_c, 0, 64, 57
2, 229379, Control_c, 0, 64, 60
2, 229399, Control_c, 0, 64, 63
2, 229415, Control_c, 0, 64, 65
2, 229434, Control_c, 0, 64, 69
2, 229454, Control_c, 0, 64, 81
2, 229469, Note_on_c, 0, 68, 50
2, 229476, Control_c, 0, 64, 107
2, 229492, Control_c, 0, 64, 127
2, 229502, Note_on_c, 0, 73, 0
2, 229562, Note_on_c, 0, 42, 0
2, 229837, Note_on_c, 0, 76, 62
2, 229844, Note_on_c, 0, 70, 50
2, 229870, Note_on_c, 0, 68, 0
2, 230045, Note_on_c, 0, 78, 0
2, 230245, Note_on_c, 0, 75, 60
2, 230256, Note_on_c, 0, 47, 41
2, 230262, Control_c, 0, 64, 101
2, 230262, Note_on_c, 0, 71, 49
2, 230280, Control_c, 0, 64, 85
2, 230298, Control_c, 0, 64, 77
2, 230317, Control_c, 0, 64, 71
2, 230329, Note_on_c, 0, 76, 0
2, 230341, Control_c, 0, 64, 67
2, 230356, Control_c, 0, 64, 65
2, 230372, Note_on_c, 0, 70, 0
2, 230376, Control_c, 0, 64, 63
2, 230413, Control_c, 0, 64, 62
2, 230470, Control_c, 0, 64, 61
2, 230491, Control_c, 0, 64, 60
2, 230527, Control_c, 0, 64, 59
2, 230585, Control_c, 0, 64, 58
2, 230603, Control_c, 0, 64, 57
2, 230623, Control_c, 0, 64, 55
2, 230645, Control_c, 0, 64, 54
2, 230645, Note_on_c, 0, 51, 48
2, 230662, Control_c, 0, 64, 53
2, 230679, Note_on_c, 0, 47, 0
2, 230739, Control_c, 0, 64, 54
2, 230759, Control_c, 0, 64, 55
2, 230780, Control_c, 0, 64, 56
2, 230989, Control_c, 0, 64, 57
2, 231033, Note_on_c, 0, 56, 47
2, 231097, Note_on_c, 0, 51, 0
2, 231438, Note_on_c, 0, 73, 59
2, 231447, Note_on_c, 0, 70, 46
2, 231563, Note_on_c, 0, 75, 0
2, 231693, Note_on_c, 0, 71, 0
2, 231700, Control_c, 0, 64, 58
2, 231776, Control_c, 0, 64, 59
2, 231810, Note_on_c, 0, 55, 53
2, 231828, Note_on_c, 0, 56, 0
2, 231853, Control_c, 0, 64, 60
2, 232181, Note_on_c, 0, 55, 0
2, 232189, Note_on_c, 0, 58, 51
2, 232256, Control_c, 0, 64, 61
2, 232313, Control_c, 0, 64, 60
2, 232372, Control_c, 0, 64, 61
2, 232430, Control_c, 0, 64, 60
2, 232603, Note_on_c, 0, 47, 45
2, 232672, Note_on_c, 0, 58, 0
2, 232948, Control_c, 0, 64, 61
2, 232984, Control_c, 0, 64, 62
2, 233005, Control_c, 0, 64, 63
2, 233009, Note_on_c, 0, 70, 0
2, 233014, Note_on_c, 0, 63, 38
2, 233027, Control_c, 0, 64, 64
2, 233044, Control_c, 0, 64, 66
2, 233061, Control_c, 0, 64, 68
2, 233081, Control_c, 0, 64, 71
2, 233100, Control_c, 0, 64, 76
2, 233122, Control_c, 0, 64, 84
2, 233139, Control_c, 0, 64, 93
2, 233159, Control_c, 0, 64, 102
2, 233177, Control_c, 0, 64, 104
2, 233228, Note_on_c, 0, 47, 0
2, 233274, Control_c, 0, 64, 105
2, 233379, Note_on_c, 0, 71, 56
2, 233402, Note_on_c, 0, 68, 51
2, 233505, Control_c, 0, 64, 104
2, 233514, Note_on_c, 0, 73, 0
2, 233529, Note_on_c, 0, 63, 0
2, 233563, Control_c, 0, 64, 103
2, 233569, Note_on_c, 0, 68, 0
2, 233569, Note_on_c, 0, 68, 7
2, 233600, Control_c, 0, 64, 102
2, 233620, Control_c, 0, 64, 100
2, 233640, Control_c, 0, 64, 99
2, 233659, Control_c, 0, 64, 97
2, 233677, Control_c, 0, 64, 96
2, 233695, Control_c, 0, 64, 95
2, 233715, Control_c, 0, 64, 93
2, 233737, Control_c, 0, 64, 89
2, 233754, Control_c, 0, 64, 86
2, 233773, Control_c, 0, 64, 83
2, 233783, Note_on_c, 0, 49, 48
2, 233788, Note_on_c, 0, 64, 54
2, 233792, Control_c, 0, 64, 80
2, 233811, Control_c, 0, 64, 78
2, 233834, Control_c, 0, 64, 75
2, 233838, Note_on_c, 0, 68, 0
2, 233850, Control_c, 0, 64, 72
2, 233869, Control_c, 0, 64, 69
2, 233889, Control_c, 0, 64, 67
2, 233908, Control_c, 0, 64, 65
2, 233928, Control_c, 0, 64, 64
2, 233946, Control_c, 0, 64, 63
2, 233966, Control_c, 0, 64, 62
2, 233987, Control_c, 0, 64, 61
2, 234004, Control_c, 0, 64, 59
2, 234021, Control_c, 0, 64, 56
2, 234041, Control_c, 0, 64, 54
2, 234061, Control_c, 0, 64, 52
2, 234080, Control_c, 0, 64, 51
2, 234138, Control_c, 0, 64, 52
2, 234156, Control_c, 0, 64, 53
2, 234177, Control_c, 0, 64, 56
2, 234184, Note_on_c, 0, 70, 57
2, 234197, Control_c, 0, 64, 59
2, 234215, Control_c, 0, 64, 62
2, 234233, Control_c, 0, 64, 64
2, 234254, Control_c, 0, 64, 65
2, 234276, Control_c, 0, 64, 68
2, 234292, Control_c, 0, 64, 71
2, 234310, Control_c, 0, 64, 76
2, 234330, Control_c, 0, 64, 84
2, 234350, Control_c, 0, 64, 104
2, 234368, Control_c, 0, 64, 127
2, 234372, Note_on_c, 0, 49, 0
2, 234558, Note_on_c, 0, 73, 66
2, 234604, Note_on_c, 0, 71, 0
2, 234619, Note_on_c, 0, 70, 0
2, 234657, Note_on_c, 0, 73, 0
2, 234959, Note_on_c, 0, 67, 62
2, 234966, Control_c, 0, 64, 107
2, 234966, Note_on_c, 0, 51, 63
2, 234983, Control_c, 0, 64, 87
2, 235001, Control_c, 0, 64, 76
2, 235010, Note_on_c, 0, 64, 0
2, 235021, Control_c, 0, 64, 68
2, 235041, Control_c, 0, 64, 65
2, 235059, Control_c, 0, 64, 63
2, 235080, Control_c, 0, 64, 61
2, 235098, Control_c, 0, 64, 59
2, 235116, Control_c, 0, 64, 57
2, 235137, Control_c, 0, 64, 55
2, 235156, Control_c, 0, 64, 53
2, 235193, Control_c, 0, 64, 55
2, 235213, Control_c, 0, 64, 57
2, 235231, Control_c, 0, 64, 59
2, 235254, Control_c, 0, 64, 61
2, 235271, Control_c, 0, 64, 63
2, 235289, Control_c, 0, 64, 66
2, 235309, Control_c, 0, 64, 72
2, 235327, Control_c, 0, 64, 88
2, 235350, Control_c, 0, 64, 127
2, 235365, Note_on_c, 0, 63, 58
2, 235391, Note_on_c, 0, 51, 0
2, 235731, Control_c, 0, 64, 111
2, 235754, Control_c, 0, 64, 84
2, 235765, Note_on_c, 0, 70, 63
2, 235767, Note_on_c, 0, 43, 54
2, 235772, Control_c, 0, 64, 69
2, 235778, Note_on_c, 0, 61, 52
2, 235792, Control_c, 0, 64, 62
2, 235810, Control_c, 0, 64, 59
2, 235827, Control_c, 0, 64, 58
2, 235843, Note_on_c, 0, 67, 0
2, 235847, Control_c, 0, 64, 59
2, 235865, Control_c, 0, 64, 60
2, 235885, Control_c, 0, 64, 62
2, 235891, Note_on_c, 0, 63, 0
2, 235904, Control_c, 0, 64, 65
2, 235925, Control_c, 0, 64, 72
2, 235944, Control_c, 0, 64, 87
2, 235948, Note_on_c, 0, 61, 0
2, 235961, Control_c, 0, 64, 127
2, 236168, Note_on_c, 0, 44, 60
2, 236170, Note_on_c, 0, 59, 60
2, 236175, Control_c, 0, 64, 102
2, 236191, Control_c, 0, 64, 84
2, 236211, Control_c, 0, 64, 73
2, 236230, Control_c, 0, 64, 68
2, 236250, Control_c, 0, 64, 66
2, 236255, Note_on_c, 0, 43, 0
2, 236268, Control_c, 0, 64, 65
2, 236286, Control_c, 0, 64, 64
2, 236306, Control_c, 0, 64, 62
2, 236326, Control_c, 0, 64, 61
2, 236346, Control_c, 0, 64, 58
2, 236365, Control_c, 0, 64, 57
2, 236442, Control_c, 0, 64, 56
2, 236464, Control_c, 0, 64, 55
2, 236480, Control_c, 0, 64, 53
2, 236501, Control_c, 0, 64, 52
2, 236519, Control_c, 0, 64, 51
2, 236542, Control_c, 0, 64, 50
2, 236556, Note_on_c, 0, 63, 60
2, 236561, Control_c, 0, 64, 49
2, 236575, Control_c, 0, 64, 47
2, 236595, Control_c, 0, 64, 45
2, 236615, Control_c, 0, 64, 40
2, 236634, Control_c, 0, 64, 34
2, 236652, Control_c, 0, 64, 27
2, 236672, Control_c, 0, 64, 16
2, 236691, Control_c, 0, 64, 0
2, 236955, Note_on_c, 0, 47, 50
2, 236961, Control_c, 0, 64, 21
2, 236970, Note_on_c, 0, 68, 65
2, 236976, Note_on_c, 0, 59, 0
2, 236981, Control_c, 0, 64, 37
2, 237001, Control_c, 0, 64, 49
2, 237016, Control_c, 0, 64, 57
2, 237036, Control_c, 0, 64, 60
2, 237056, Control_c, 0, 64, 61
2, 237074, Control_c, 0, 64, 62
2, 237093, Control_c, 0, 64, 63
2, 237097, Note_on_c, 0, 70, 0
2, 237102, Note_on_c, 0, 44, 0
2, 237113, Control_c, 0, 64, 64
2, 237135, Control_c, 0, 64, 66
2, 237151, Control_c, 0, 64, 68
2, 237173, Control_c, 0, 64, 71
2, 237189, Control_c, 0, 64, 74
2, 237209, Control_c, 0, 64, 75
2, 237228, Control_c, 0, 64, 74
2, 237271, Control_c, 0, 64, 73
2, 237287, Control_c, 0, 64, 71
2, 237307, Control_c, 0, 64, 68
2, 237328, Control_c, 0, 64, 65
2, 237345, Control_c, 0, 64, 62
2, 237352, Note_on_c, 0, 49, 63
2, 237359, Note_on_c, 0, 58, 52
2, 237363, Control_c, 0, 64, 60
2, 237382, Control_c, 0, 64, 58
2, 237395, Note_on_c, 0, 63, 0
2, 237404, Control_c, 0, 64, 57
2, 237421, Control_c, 0, 64, 54
2, 237439, Control_c, 0, 64, 50
2, 237460, Control_c, 0, 64, 44
2, 237481, Control_c, 0, 64, 37
2, 237499, Control_c, 0, 64, 29
2, 237517, Control_c, 0, 64, 26
2, 237530, Note_on_c, 0, 47, 0
2, 237537, Control_c, 0, 64, 28
2, 237554, Control_c, 0, 64, 36
2, 237573, Control_c, 0, 64, 47
2, 237593, Control_c, 0, 64, 58
2, 237611, Control_c, 0, 64, 63
2, 237633, Control_c, 0, 64, 65
2, 237651, Control_c, 0, 64, 68
2, 237672, Control_c, 0, 64, 71
2, 237690, Control_c, 0, 64, 77
2, 237709, Control_c, 0, 64, 85
2, 237725, Note_on_c, 0, 52, 70
2, 237725, Note_on_c, 0, 61, 56
2, 237730, Control_c, 0, 64, 102
2, 237730, Note_on_c, 0, 58, 0
2, 237747, Control_c, 0, 64, 127
2, 237827, Note_on_c, 0, 49, 0
2, 237831, Note_on_c, 0, 61, 0
2, 238092, Control_c, 0, 64, 92
2, 238113, Control_c, 0, 64, 77
2, 238121, Note_on_c, 0, 73, 67
2, 238128, Note_on_c, 0, 46, 64
2, 238130, Note_on_c, 0, 64, 60
2, 238135, Control_c, 0, 64, 66
2, 238151, Control_c, 0, 64, 61
2, 238169, Control_c, 0, 64, 57
2, 238210, Note_on_c, 0, 52, 0
2, 238214, Control_c, 0, 64, 59
2, 238219, Note_on_c, 0, 68, 0
2, 238225, Control_c, 0, 64, 62
2, 238244, Control_c, 0, 64, 65
2, 238257, Note_on_c, 0, 73, 0
2, 238262, Control_c, 0, 64, 70
2, 238284, Control_c, 0, 64, 81
2, 238301, Control_c, 0, 64, 110
2, 238323, Control_c, 0, 64, 127
2, 238551, Note_on_c, 0, 51, 73
2, 238556, Control_c, 0, 64, 111
2, 238572, Note_on_c, 0, 67, 62
2, 238576, Control_c, 0, 64, 94
2, 238588, Control_c, 0, 64, 82
2, 238609, Control_c, 0, 64, 74
2, 238629, Control_c, 0, 64, 69
2, 238638, Note_on_c, 0, 46, 0
2, 238647, Control_c, 0, 64, 66
2, 238664, Control_c, 0, 64, 64
2, 238684, Control_c, 0, 64, 62
2, 238704, Control_c, 0, 64, 59
2, 238724, Control_c, 0, 64, 56
2, 238741, Control_c, 0, 64, 53
2, 238761, Control_c, 0, 64, 49
2, 238781, Control_c, 0, 64, 47
2, 238800, Control_c, 0, 64, 45
2, 238878, Control_c, 0, 64, 47
2, 238896, Control_c, 0, 64, 51
2, 238914, Control_c, 0, 64, 58
2, 238935, Control_c, 0, 64, 61
2, 238952, Control_c, 0, 64, 63
2, 238961, Note_on_c, 0, 63, 49
2, 238976, Control_c, 0, 64, 64
2, 238984, Note_on_c, 0, 64, 0
2, 238994, Control_c, 0, 64, 66
2, 239014, Control_c, 0, 64, 69
2, 239014, Note_on_c, 0, 67, 0
2, 239031, Control_c, 0, 64, 76
2, 239050, Control_c, 0, 64, 93
2, 239068, Control_c, 0, 64, 127
2, 239337, Control_c, 0, 64, 109
2, 239348, Note_on_c, 0, 39, 66
2, 239363, Control_c, 0, 64, 90
2, 239372, Note_on_c, 0, 61, 43
2, 239377, Control_c, 0, 64, 81
2, 239394, Control_c, 0, 64, 77
2, 239418, Control_c, 0, 64, 73
2, 239418, Note_on_c, 0, 51, 0
2, 239427, Note_on_c, 0, 63, 0
2, 239435, Control_c, 0, 64, 70
2, 239453, Control_c, 0, 64, 68
2, 239569, Control_c, 0, 64, 69
2, 239605, Control_c, 0, 64, 70
2, 239646, Control_c, 0, 64, 69
2, 239664, Control_c, 0, 64, 68
2, 239682, Control_c, 0, 64, 67
2, 239740, Control_c, 0, 64, 66
2, 239744, Note_on_c, 0, 68, 56
2, 239755, Note_on_c, 0, 44, 69
2, 239759, Control_c, 0, 64, 65
2, 239768, Note_on_c, 0, 59, 39
2, 239772, Note_on_c, 0, 61, 0
2, 239779, Control_c, 0, 64, 64
2, 239799, Control_c, 0, 64, 63
2, 239817, Control_c, 0, 64, 62
2, 239857, Control_c, 0, 64, 61
2, 239875, Control_c, 0, 64, 60
2, 239936, Control_c, 0, 64, 59
2, 240006, Note_on_c, 0, 39, 0
2, 240040, Note_on_c, 0, 68, 0
2, 240125, Control_c, 0, 64, 60
2, 240136, Note_on_c, 0, 46, 63
2, 240152, Note_on_c, 0, 58, 45
2, 240170, Note_on_c, 0, 59, 0
2, 240240, Control_c, 0, 64, 61
2, 240280, Note_on_c, 0, 44, 0
2, 240301, Control_c, 0, 64, 62
2, 240319, Control_c, 0, 64, 63
2, 240337, Control_c, 0, 64, 64
2, 240413, Control_c, 0, 64, 63
2, 240546, Note_on_c, 0, 47, 58
2, 240555, Note_on_c, 0, 63, 50
2, 240559, Note_on_c, 0, 56, 42
2, 240583, Note_on_c, 0, 58, 0
2, 240624, Note_on_c, 0, 46, 0
2, 240953, Note_on_c, 0, 46, 63
2, 240953, Note_on_c, 0, 61, 45
2, 241026, Note_on_c, 0, 47, 0
2, 241258, Control_c, 0, 64, 62
2, 241331, Note_on_c, 0, 63, 0
2, 241356, Note_on_c, 0, 59, 41
2, 241369, Note_on_c, 0, 51, 67
2, 241373, Control_c, 0, 64, 61
2, 241462, Note_on_c, 0, 61, 0
2, 241466, Note_on_c, 0, 56, 0
2, 241547, Control_c, 0, 64, 62
2, 241623, Control_c, 0, 64, 63
2, 241660, Control_c, 0, 64, 64
2, 241680, Control_c, 0, 64, 66
2, 241700, Control_c, 0, 64, 69
2, 241718, Control_c, 0, 64, 74
2, 241738, Control_c, 0, 64, 77
2, 241757, Control_c, 0, 64, 81
2, 241766, Note_on_c, 0, 58, 50
2, 241770, Note_on_c, 0, 39, 60
2, 241777, Control_c, 0, 64, 84
2, 241777, Note_on_c, 0, 55, 41
2, 241813, Control_c, 0, 64, 80
2, 241833, Control_c, 0, 64, 73
2, 241837, Note_on_c, 0, 51, 0
2, 241853, Control_c, 0, 64, 65
2, 241858, Note_on_c, 0, 59, 0
2, 241869, Note_on_c, 0, 55, 0
2, 241871, Control_c, 0, 64, 63
2, 241891, Control_c, 0, 64, 62
2, 241911, Control_c, 0, 64, 61
2, 241929, Control_c, 0, 64, 62
2, 241967, Control_c, 0, 64, 64
2, 241989, Control_c, 0, 64, 66
2, 242007, Control_c, 0, 64, 70
2, 242026, Control_c, 0, 64, 77
2, 242045, Control_c, 0, 64, 84
2, 242066, Control_c, 0, 64, 90
2, 242086, Control_c, 0, 64, 92
2, 242104, Control_c, 0, 64, 93
2, 242120, Control_c, 0, 64, 94
2, 242140, Control_c, 0, 64, 93
2, 242156, Control_c, 0, 64, 89
2, 242176, Control_c, 0, 64, 83
2, 242183, Note_on_c, 0, 59, 52
2, 242187, Note_on_c, 0, 44, 60
2, 242187, Note_on_c, 0, 56, 45
2, 242196, Control_c, 0, 64, 77
2, 242215, Control_c, 0, 64, 70
2, 242234, Control_c, 0, 64, 65
2, 242238, Note_on_c, 0, 46, 0
2, 242252, Control_c, 0, 64, 61
2, 242274, Control_c, 0, 64, 59
2, 242279, Note_on_c, 0, 58, 0
2, 242293, Control_c, 0, 64, 60
2, 242312, Control_c, 0, 64, 61
2, 242330, Control_c, 0, 64, 63
2, 242361, Note_on_c, 0, 39, 0
2, 242407, Control_c, 0, 64, 64
2, 242426, Control_c, 0, 64, 65
2, 242444, Control_c, 0, 64, 66
2, 242465, Control_c, 0, 64, 65
2, 242486, Control_c, 0, 64, 64
2, 242504, Control_c, 0, 64, 62
2, 242521, Control_c, 0, 64, 61
2, 242579, Control_c, 0, 64, 60
2, 242588, Note_on_c, 0, 47, 55
2, 242600, Control_c, 0, 64, 59
2, 242667, Note_on_c, 0, 44, 0
2, 242927, Control_c, 0, 64, 60
2, 242973, Note_on_c, 0, 46, 57
2, 242991, Note_on_c, 0, 63, 56
2, 243024, Note_on_c, 0, 56, 0
2, 243028, Note_on_c, 0, 47, 0
2, 243042, Note_on_c, 0, 59, 0
2, 243384, Note_on_c, 0, 47, 52
2, 243384, Note_on_c, 0, 68, 59
2, 243442, Note_on_c, 0, 46, 0
2, 243451, Note_on_c, 0, 63, 0
2, 243779, Note_on_c, 0, 46, 53
2, 243825, Note_on_c, 0, 47, 0
2, 244190, Note_on_c, 0, 71, 47
2, 244192, Note_on_c, 0, 44, 47
2, 244229, Note_on_c, 0, 46, 0
2, 244587, Note_on_c, 0, 46, 55
2, 244591, Note_on_c, 0, 73, 56
2, 244683, Note_on_c, 0, 44, 0
2, 244692, Note_on_c, 0, 71, 0
2, 244865, Control_c, 0, 64, 61
2, 244976, Note_on_c, 0, 47, 61
2, 244980, Note_on_c, 0, 75, 57
2, 245030, Note_on_c, 0, 73, 0
2, 245041, Control_c, 0, 64, 62
2, 245060, Note_on_c, 0, 46, 0
2, 245075, Note_on_c, 0, 68, 0
2, 245114, Control_c, 0, 64, 63
2, 245248, Control_c, 0, 64, 62
2, 245363, Control_c, 0, 64, 61
2, 245377, Note_on_c, 0, 49, 58
2, 245377, Note_on_c, 0, 76, 59
2, 245385, Note_on_c, 0, 67, 41
2, 245418, Note_on_c, 0, 75, 0
2, 245442, Note_on_c, 0, 47, 0
2, 245748, Control_c, 0, 64, 60
2, 245792, Note_on_c, 0, 75, 57
2, 245799, Note_on_c, 0, 47, 62
2, 245819, Note_on_c, 0, 68, 45
2, 245826, Control_c, 0, 64, 59
2, 245844, Control_c, 0, 64, 58
2, 245862, Control_c, 0, 64, 57
2, 245902, Control_c, 0, 64, 56
2, 245923, Control_c, 0, 64, 55
2, 245923, Note_on_c, 0, 67, 0
2, 245927, Note_on_c, 0, 49, 0
2, 245938, Control_c, 0, 64, 53
2, 245959, Control_c, 0, 64, 50
2, 245978, Control_c, 0, 64, 47
2, 246001, Control_c, 0, 64, 45
2, 246005, Note_on_c, 0, 76, 0
2, 246018, Control_c, 0, 64, 43
2, 246035, Control_c, 0, 64, 40
2, 246055, Control_c, 0, 64, 38
2, 246131, Control_c, 0, 64, 41
2, 246152, Control_c, 0, 64, 45
2, 246168, Control_c, 0, 64, 51
2, 246186, Note_on_c, 0, 52, 66
2, 246190, Control_c, 0, 64, 56
2, 246202, Note_on_c, 0, 73, 56
2, 246208, Control_c, 0, 64, 59
2, 246227, Control_c, 0, 64, 61
2, 246247, Control_c, 0, 64, 62
2, 246259, Note_on_c, 0, 75, 0
2, 246265, Control_c, 0, 64, 63
2, 246285, Control_c, 0, 64, 65
2, 246290, Note_on_c, 0, 73, 0
2, 246304, Control_c, 0, 64, 66
2, 246324, Control_c, 0, 64, 69
2, 246343, Control_c, 0, 64, 72
2, 246361, Control_c, 0, 64, 73
2, 246476, Control_c, 0, 64, 72
2, 246514, Control_c, 0, 64, 71
2, 246533, Control_c, 0, 64, 69
2, 246554, Control_c, 0, 64, 68
2, 246574, Control_c, 0, 64, 66
2, 246591, Control_c, 0, 64, 65
2, 246595, Note_on_c, 0, 71, 53
2, 246598, Note_on_c, 0, 44, 56
2, 246612, Control_c, 0, 64, 64
2, 246630, Control_c, 0, 64, 63
2, 246637, Note_on_c, 0, 52, 0
2, 246650, Control_c, 0, 64, 61
2, 246655, Note_on_c, 0, 47, 0
2, 246669, Control_c, 0, 64, 59
2, 246689, Control_c, 0, 64, 57
2, 246998, Note_on_c, 0, 46, 49
2, 246998, Note_on_c, 0, 73, 56
2, 247102, Note_on_c, 0, 71, 0
2, 247116, Note_on_c, 0, 44, 0
2, 247380, Note_on_c, 0, 49, 51
2, 247380, Note_on_c, 0, 70, 39
2, 247431, Note_on_c, 0, 68, 0
2, 247475, Control_c, 0, 64, 58
2, 247485, Note_on_c, 0, 46, 0
2, 247766, Control_c, 0, 64, 59
2, 247769, Note_on_c, 0, 68, 47
2, 247775, Note_on_c, 0, 47, 50
2, 247812, Note_on_c, 0, 49, 0
2, 247829, Note_on_c, 0, 73, 0
2, 247996, Control_c, 0, 64, 60
2, 248177, Note_on_c, 0, 49, 47
2, 248181, Note_on_c, 0, 67, 47
2, 248200, Note_on_c, 0, 47, 0
2, 248313, Note_on_c, 0, 68, 0
2, 248381, Control_c, 0, 64, 59
2, 248564, Note_on_c, 0, 47, 46
2, 248573, Control_c, 0, 64, 60
2, 248671, Note_on_c, 0, 49, 0
2, 248970, Note_on_c, 0, 46, 44
2, 248970, Note_on_c, 0, 75, 48
2, 248996, Control_c, 0, 64, 61
2, 249012, Note_on_c, 0, 47, 0
2, 249033, Control_c, 0, 64, 62
2, 249055, Control_c, 0, 64, 64
2, 249071, Control_c, 0, 64, 66
2, 249091, Control_c, 0, 64, 70
2, 249095, Note_on_c, 0, 75, 0
2, 249114, Control_c, 0, 64, 78
2, 249131, Control_c, 0, 64, 91
2, 249149, Control_c, 0, 64, 127
2, 249320, Control_c, 0, 64, 120
2, 249341, Control_c, 0, 64, 99
2, 249351, Note_on_c, 0, 47, 49
2, 249360, Control_c, 0, 64, 87
2, 249364, Note_on_c, 0, 75, 53
2, 249381, Control_c, 0, 64, 79
2, 249399, Control_c, 0, 64, 73
2, 249419, Control_c, 0, 64, 68
2, 249429, Note_on_c, 0, 46, 0
2, 249435, Control_c, 0, 64, 66
2, 249457, Control_c, 0, 64, 64
2, 249474, Control_c, 0, 64, 63
2, 249495, Control_c, 0, 64, 62
2, 249513, Control_c, 0, 64, 60
2, 249534, Control_c, 0, 64, 59
2, 249552, Control_c, 0, 64, 57
2, 249556, Note_on_c, 0, 67, 0
2, 249572, Control_c, 0, 64, 56
2, 249604, Note_on_c, 0, 70, 0
2, 249649, Control_c, 0, 64, 57
2, 249666, Control_c, 0, 64, 58
2, 249685, Control_c, 0, 64, 59
2, 249707, Control_c, 0, 64, 61
2, 249726, Control_c, 0, 64, 62
2, 249749, Note_on_c, 0, 51, 53
2, 250108, Control_c, 0, 64, 61
2, 250141, Note_on_c, 0, 43, 35
2, 250157, Note_on_c, 0, 70, 44
2, 250191, Note_on_c, 0, 51, 0
2, 250208, Note_on_c, 0, 47, 0
2, 250542, Note_on_c, 0, 44, 46
2, 250551, Note_on_c, 0, 71, 55
2, 250625, Note_on_c, 0, 43, 0
2, 250772, Note_on_c, 0, 70, 0
2, 250922, Note_on_c, 0, 47, 45
2, 250952, Note_on_c, 0, 44, 0
2, 251330, Note_on_c, 0, 39, 44
2, 251348, Note_on_c, 0, 67, 48
2, 251352, Note_on_c, 0, 47, 0
2, 251425, Note_on_c, 0, 71, 0
2, 251694, Note_on_c, 0, 40, 41
2, 251710, Note_on_c, 0, 68, 49
2, 251729, Note_on_c, 0, 39, 0
2, 251799, Note_on_c, 0, 67, 0
2, 251860, Note_on_c, 0, 40, 0
2, 251899, Note_on_c, 0, 42, 47
2, 251955, Note_on_c, 0, 42, 0
2, 251993, Note_on_c, 0, 40, 40
2, 252051, Note_on_c, 0, 40, 0
2, 252075, Note_on_c, 0, 42, 60
2, 252084, Note_on_c, 0, 70, 59
2, 252140, Note_on_c, 0, 42, 0
2, 252167, Note_on_c, 0, 40, 57
2, 252195, Note_on_c, 0, 68, 0
2, 252222, Note_on_c, 0, 40, 0
2, 252279, Note_on_c, 0, 42, 41
2, 252326, Note_on_c, 0, 42, 0
2, 252362, Note_on_c, 0, 40, 38
2, 252426, Note_on_c, 0, 40, 0
2, 252441, Note_on_c, 0, 70, 0
2, 252450, Note_on_c, 0, 71, 58
2, 252463, Note_on_c, 0, 42, 45
2, 252472, Control_c, 0, 64, 62
2, 252516, Note_on_c, 0, 42, 0
2, 252548, Note_on_c, 0, 40, 49
2, 252603, Note_on_c, 0, 40, 0
2, 252665, Note_on_c, 0, 42, 40
2, 252709, Note_on_c, 0, 42, 0
2, 252745, Note_on_c, 0, 40, 42
2, 252795, Note_on_c, 0, 40, 0
2, 252840, Note_on_c, 0, 74, 61
2, 252846, Note_on_c, 0, 42, 41
2, 252902, Note_on_c, 0, 42, 0
2, 252945, Note_on_c, 0, 40, 36
2, 252968, Note_on_c, 0, 75, 0
2, 253008, Note_on_c, 0, 40, 0
2, 253053, Note_on_c, 0, 42, 37
2, 253110, Note_on_c, 0, 42, 0
2, 253144, Control_c, 0, 64, 63
2, 253144, Note_on_c, 0, 40, 46
2, 253196, Note_on_c, 0, 40, 0
2, 253219, Control_c, 0, 64, 64
2, 253236, Control_c, 0, 64, 65
2, 253254, Note_on_c, 0, 70, 56
2, 253258, Note_on_c, 0, 42, 39
2, 253262, Control_c, 0, 64, 67
2, 253280, Control_c, 0, 64, 70
2, 253280, Note_on_c, 0, 71, 0
2, 253296, Control_c, 0, 64, 73
2, 253312, Note_on_c, 0, 42, 0
2, 253316, Control_c, 0, 64, 74
2, 253353, Note_on_c, 0, 40, 40
2, 253373, Control_c, 0, 64, 73
2, 253405, Note_on_c, 0, 40, 0
2, 253412, Control_c, 0, 64, 72
2, 253430, Control_c, 0, 64, 71
2, 253450, Control_c, 0, 64, 70
2, 253462, Note_on_c, 0, 42, 40
2, 253509, Note_on_c, 0, 42, 0
2, 253526, Control_c, 0, 64, 69
2, 253553, Note_on_c, 0, 40, 36
2, 253582, Control_c, 0, 64, 68
2, 253611, Note_on_c, 0, 40, 0
2, 253630, Note_on_c, 0, 68, 48
2, 253655, Note_on_c, 0, 42, 37
2, 253701, Note_on_c, 0, 70, 0
2, 253709, Note_on_c, 0, 42, 0
2, 253740, Note_on_c, 0, 40, 49
2, 253757, Control_c, 0, 64, 67
2, 253797, Control_c, 0, 64, 66
2, 253797, Note_on_c, 0, 40, 0
2, 253855, Note_on_c, 0, 39, 49
2, 253933, Note_on_c, 0, 39, 0
2, 253949, Control_c, 0, 64, 65
2, 253969, Note_on_c, 0, 40, 32
2, 253985, Control_c, 0, 64, 64
2, 254021, Control_c, 0, 64, 63
2, 254059, Control_c, 0, 64, 62
2, 254097, Control_c, 0, 64, 61
2, 254123, Note_on_c, 0, 39, 34
2, 254127, Note_on_c, 0, 40, 0
2, 254127, Note_on_c, 0, 75, 53
2, 254139, Control_c, 0, 64, 60
2, 254157, Control_c, 0, 64, 59
2, 254170, Note_on_c, 0, 74, 0
2, 254178, Control_c, 0, 64, 58
2, 254214, Control_c, 0, 64, 56
2, 254232, Control_c, 0, 64, 54
2, 254253, Control_c, 0, 64, 50
2, 254275, Control_c, 0, 64, 44
2, 254295, Control_c, 0, 64, 37
2, 254311, Control_c, 0, 64, 32
2, 254330, Control_c, 0, 64, 31
2, 254349, Control_c, 0, 64, 33
2, 254368, Control_c, 0, 64, 42
2, 254387, Control_c, 0, 64, 51
2, 254406, Control_c, 0, 64, 56
2, 254425, Control_c, 0, 64, 59
2, 254444, Control_c, 0, 64, 60
2, 254464, Control_c, 0, 64, 62
2, 254484, Control_c, 0, 64, 63
2, 254502, Control_c, 0, 64, 65
2, 254524, Control_c, 0, 64, 66
2, 254534, Note_on_c, 0, 39, 0
2, 254541, Control_c, 0, 64, 68
2, 254559, Control_c, 0, 64, 71
2, 254579, Control_c, 0, 64, 74
2, 254586, Note_on_c, 0, 67, 42
2, 254599, Control_c, 0, 64, 78
2, 254618, Control_c, 0, 64, 85
2, 254637, Control_c, 0, 64, 95
2, 254661, Control_c, 0, 64, 103
2, 254661, Note_on_c, 0, 75, 0
2, 254676, Control_c, 0, 64, 109
2, 254694, Control_c, 0, 64, 111
2, 254810, Control_c, 0, 64, 110
2, 254827, Control_c, 0, 64, 109
2, 254866, Control_c, 0, 64, 106
2, 254887, Control_c, 0, 64, 105
2, 254904, Control_c, 0, 64, 104
2, 254923, Control_c, 0, 64, 103
2, 254964, Control_c, 0, 64, 102
2, 254983, Control_c, 0, 64, 100
2, 255003, Control_c, 0, 64, 98
2, 255021, Control_c, 0, 64, 97
2, 255040, Control_c, 0, 64, 95
2, 255052, Note_on_c, 0, 51, 37
2, 255059, Control_c, 0, 64, 93
2, 255079, Control_c, 0, 64, 90
2, 255096, Control_c, 0, 64, 87
2, 255116, Control_c, 0, 64, 84
2, 255127, Note_on_c, 0, 75, 57
2, 255137, Control_c, 0, 64, 83
2, 255155, Control_c, 0, 64, 82
2, 255174, Control_c, 0, 64, 81
2, 255193, Control_c, 0, 64, 78
2, 255212, Control_c, 0, 64, 74
2, 255232, Control_c, 0, 64, 72
2, 255251, Control_c, 0, 64, 71
2, 255269, Control_c, 0, 64, 70
2, 255344, Note_on_c, 0, 67, 0
2, 255348, Control_c, 0, 64, 69
2, 255365, Control_c, 0, 64, 67
2, 255406, Control_c, 0, 64, 66
2, 255444, Control_c, 0, 64, 65
2, 255502, Control_c, 0, 64, 64
2, 255540, Control_c, 0, 64, 63
2, 255540, Note_on_c, 0, 74, 65
2, 255567, Note_on_c, 0, 53, 19
2, 255635, Control_c, 0, 64, 62
2, 255646, Note_on_c, 0, 68, 0
2, 255659, Note_on_c, 0, 51, 0
2, 255763, Note_on_c, 0, 75, 0
2, 255769, Control_c, 0, 64, 61
2, 255886, Control_c, 0, 64, 60
2, 255944, Note_on_c, 0, 56, 38
2, 255948, Note_on_c, 0, 53, 0
2, 256211, Control_c, 0, 64, 59
2, 256305, Control_c, 0, 64, 58
2, 256352, Note_on_c, 0, 56, 0
2, 256352, Note_on_c, 0, 73, 58
2, 256357, Note_on_c, 0, 55, 35
2, 256404, Control_c, 0, 64, 57
2, 256469, Note_on_c, 0, 74, 0
2, 256481, Control_c, 0, 64, 56
2, 256738, Note_on_c, 0, 72, 54
2, 256740, Note_on_c, 0, 55, 0
2, 256749, Note_on_c, 0, 56, 39
2, 256873, Note_on_c, 0, 73, 0
2, 257108, Note_on_c, 0, 56, 0
2, 257122, Note_on_c, 0, 51, 44
2, 257503, Note_on_c, 0, 56, 39
2, 257525, Note_on_c, 0, 71, 49
2, 257576, Note_on_c, 0, 72, 0
2, 257613, Note_on_c, 0, 51, 0
2, 257906, Note_on_c, 0, 70, 53
2, 258028, Note_on_c, 0, 71, 0
2, 258308, Note_on_c, 0, 54, 41
2, 258375, Note_on_c, 0, 56, 0
2, 258470, Note_on_c, 0, 54, 0
2, 258479, Note_on_c, 0, 53, 41
2, 258694, Note_on_c, 0, 53, 0
2, 258703, Note_on_c, 0, 54, 36
2, 258719, Note_on_c, 0, 72, 58
2, 258952, Note_on_c, 0, 70, 0
2, 259120, Note_on_c, 0, 53, 36
2, 259128, Note_on_c, 0, 73, 69
2, 259168, Note_on_c, 0, 54, 0
2, 259376, Note_on_c, 0, 72, 0
2, 259518, Note_on_c, 0, 58, 56
2, 259533, Control_c, 0, 64, 57
2, 259565, Note_on_c, 0, 53, 0
2, 259899, Note_on_c, 0, 56, 44
2, 259918, Note_on_c, 0, 74, 67
2, 260018, Note_on_c, 0, 58, 0
2, 260044, Note_on_c, 0, 73, 0
2, 260320, Note_on_c, 0, 54, 37
2, 260331, Note_on_c, 0, 75, 70
2, 260393, Note_on_c, 0, 56, 0
2, 260467, Note_on_c, 0, 74, 0
2, 260710, Note_on_c, 0, 59, 49
2, 260778, Note_on_c, 0, 54, 0
2, 261092, Note_on_c, 0, 58, 42
2, 261108, Control_c, 0, 64, 58
2, 261140, Note_on_c, 0, 59, 0
2, 261495, Note_on_c, 0, 56, 35
2, 261504, Note_on_c, 0, 58, 0
2, 261873, Note_on_c, 0, 58, 40
2, 261954, Note_on_c, 0, 56, 0
2, 262266, Note_on_c, 0, 59, 37
2, 262403, Note_on_c, 0, 58, 0
2, 262642, Note_on_c, 0, 74, 46
2, 262648, Note_on_c, 0, 53, 40
2, 262696, Note_on_c, 0, 75, 0
2, 262743, Note_on_c, 0, 59, 0
2, 262854, Note_on_c, 0, 74, 0
2, 262854, Note_on_c, 0, 75, 62
2, 262891, Control_c, 0, 64, 57
2, 262917, Note_on_c, 0, 75, 0
2, 262948, Note_on_c, 0, 74, 53
2, 263012, Note_on_c, 0, 74, 0
2, 263021, Note_on_c, 0, 58, 40
2, 263042, Note_on_c, 0, 75, 58
2, 263088, Note_on_c, 0, 75, 0
2, 263109, Note_on_c, 0, 53, 0
2, 263125, Note_on_c, 0, 74, 57
2, 263170, Note_on_c, 0, 74, 0
2, 263184, Note_on_c, 0, 75, 60
2, 263236, Note_on_c, 0, 75, 0
2, 263269, Note_on_c, 0, 74, 61
2, 263315, Note_on_c, 0, 74, 0
2, 263346, Note_on_c, 0, 75, 59
2, 263353, Note_on_c, 0, 56, 36
2, 263385, Note_on_c, 0, 75, 0
2, 263416, Note_on_c, 0, 74, 59
2, 263421, Note_on_c, 0, 58, 0
2, 263488, Note_on_c, 0, 74, 0
2, 263526, Note_on_c, 0, 72, 51
2, 263595, Note_on_c, 0, 72, 0
2, 263608, Note_on_c, 0, 74, 49
2, 263751, Note_on_c, 0, 55, 40
2, 263764, Note_on_c, 0, 75, 56
2, 263796, Note_on_c, 0, 56, 0
2, 263828, Note_on_c, 0, 74, 0
2, 264083, Control_c, 0, 64, 56
2, 264124, Note_on_c, 0, 55, 0
2, 264147, Note_on_c, 0, 56, 45
2, 264466, Control_c, 0, 64, 55
2, 264524, Note_on_c, 0, 73, 55
2, 264533, Note_on_c, 0, 58, 38
2, 264545, Note_on_c, 0, 56, 0
2, 264668, Note_on_c, 0, 75, 0
2, 264833, Control_c, 0, 64, 54
2, 264889, Control_c, 0, 64, 53
2, 264893, Note_on_c, 0, 51, 41
2, 264916, Note_on_c, 0, 71, 46
2, 264932, Note_on_c, 0, 58, 0
2, 265034, Note_on_c, 0, 73, 0
2, 265140, Control_c, 0, 64, 54
2, 265294, Control_c, 0, 64, 55
2, 265316, Note_on_c, 0, 56, 35
2, 265390, Note_on_c, 0, 51, 0
2, 265675, Control_c, 0, 64, 56
2, 265701, Note_on_c, 0, 54, 42
2, 265701, Note_on_c, 0, 70, 45
2, 265736, Note_on_c, 0, 71, 0
2, 265792, Note_on_c, 0, 56, 0
2, 266003, Control_c, 0, 64, 57
2, 266060, Control_c, 0, 64, 58
2, 266102, Note_on_c, 0, 52, 37
2, 266104, Note_on_c, 0, 68, 55
2, 266140, Control_c, 0, 64, 59
2, 266157, Control_c, 0, 64, 60
2, 266170, Note_on_c, 0, 54, 0
2, 266184, Note_on_c, 0, 70, 0
2, 266233, Control_c, 0, 64, 61
2, 266251, Control_c, 0, 64, 62
2, 266270, Control_c, 0, 64, 63
2, 266329, Control_c, 0, 64, 64
2, 266370, Control_c, 0, 64, 65
2, 266385, Control_c, 0, 64, 68
2, 266405, Control_c, 0, 64, 71
2, 266425, Control_c, 0, 64, 76
2, 266447, Control_c, 0, 64, 79
2, 266463, Control_c, 0, 64, 83
2, 266468, Note_on_c, 0, 68, 0
2, 266485, Control_c, 0, 64, 88
2, 266485, Note_on_c, 0, 54, 40
2, 266505, Control_c, 0, 64, 97
2, 266510, Note_on_c, 0, 52, 0
2, 266521, Control_c, 0, 64, 112
2, 266539, Control_c, 0, 64, 127
2, 266867, Control_c, 0, 64, 111
2, 266874, Note_on_c, 0, 68, 59
2, 266874, Note_on_c, 0, 73, 57
2, 266882, Note_on_c, 0, 52, 44
2, 266886, Control_c, 0, 64, 102
2, 266905, Control_c, 0, 64, 94
2, 266915, Note_on_c, 0, 54, 0
2, 266924, Control_c, 0, 64, 90
2, 266945, Control_c, 0, 64, 87
2, 266963, Control_c, 0, 64, 83
2, 266982, Control_c, 0, 64, 80
2, 267001, Control_c, 0, 64, 77
2, 267020, Control_c, 0, 64, 75
2, 267039, Control_c, 0, 64, 73
2, 267059, Control_c, 0, 64, 72
2, 267098, Control_c, 0, 64, 71
2, 267134, Control_c, 0, 64, 70
2, 267153, Control_c, 0, 64, 69
2, 267175, Control_c, 0, 64, 68
2, 267193, Control_c, 0, 64, 67
2, 267231, Control_c, 0, 64, 66
2, 267256, Note_on_c, 0, 52, 0
2, 267261, Note_on_c, 0, 67, 59
2, 267269, Note_on_c, 0, 51, 46
2, 267290, Control_c, 0, 64, 65
2, 267295, Note_on_c, 0, 68, 0
2, 267326, Control_c, 0, 64, 64
2, 267402, Control_c, 0, 64, 63
2, 267539, Control_c, 0, 64, 62
2, 267660, Note_on_c, 0, 52, 41
2, 267660, Note_on_c, 0, 70, 48
2, 267665, Note_on_c, 0, 51, 0
2, 267758, Note_on_c, 0, 73, 0
2, 268040, Note_on_c, 0, 66, 52
2, 268040, Note_on_c, 0, 72, 58
2, 268052, Note_on_c, 0, 51, 49
2, 268085, Note_on_c, 0, 70, 0
2, 268103, Note_on_c, 0, 67, 0
2, 268114, Note_on_c, 0, 52, 0
2, 268453, Note_on_c, 0, 49, 46
2, 268453, Note_on_c, 0, 65, 48
2, 268455, Note_on_c, 0, 73, 54
2, 268459, Control_c, 0, 64, 61
2, 268486, Note_on_c, 0, 66, 0
2, 268486, Note_on_c, 0, 72, 0
2, 268491, Note_on_c, 0, 51, 0
2, 268502, Control_c, 0, 64, 60
2, 268519, Control_c, 0, 64, 59
2, 268537, Control_c, 0, 64, 57
2, 268556, Control_c, 0, 64, 56
2, 268577, Control_c, 0, 64, 55
2, 268654, Control_c, 0, 64, 56
2, 268671, Control_c, 0, 64, 57
2, 268690, Control_c, 0, 64, 59
2, 268709, Control_c, 0, 64, 61
2, 268728, Control_c, 0, 64, 63
2, 268748, Control_c, 0, 64, 64
2, 268768, Control_c, 0, 64, 65
2, 268787, Control_c, 0, 64, 66
2, 268805, Control_c, 0, 64, 68
2, 268825, Control_c, 0, 64, 71
2, 268833, Note_on_c, 0, 68, 66
2, 268847, Control_c, 0, 64, 75
2, 268864, Control_c, 0, 64, 80
2, 268871, Note_on_c, 0, 65, 0
2, 268881, Control_c, 0, 64, 86
2, 268902, Control_c, 0, 64, 94
2, 268922, Control_c, 0, 64, 107
2, 268941, Control_c, 0, 64, 127
2, 268976, Note_on_c, 0, 68, 0
2, 268976, Note_on_c, 0, 68, 6
2, 269189, Control_c, 0, 64, 100
2, 269206, Note_on_c, 0, 70, 66
2, 269210, Control_c, 0, 64, 82
2, 269215, Note_on_c, 0, 64, 64
2, 269220, Note_on_c, 0, 37, 53
2, 269227, Control_c, 0, 64, 70
2, 269247, Control_c, 0, 64, 64
2, 269266, Control_c, 0, 64, 62
2, 269278, Note_on_c, 0, 68, 0
2, 269287, Note_on_c, 0, 73, 0
2, 269291, Note_on_c, 0, 49, 0
2, 269304, Control_c, 0, 64, 63
2, 269326, Control_c, 0, 64, 65
2, 269344, Control_c, 0, 64, 69
2, 269344, Note_on_c, 0, 64, 0
2, 269362, Control_c, 0, 64, 77
2, 269385, Control_c, 0, 64, 88
2, 269400, Control_c, 0, 64, 101
2, 269423, Control_c, 0, 64, 116
2, 269440, Control_c, 0, 64, 127
2, 269554, Control_c, 0, 64, 110
2, 269577, Control_c, 0, 64, 100
2, 269595, Control_c, 0, 64, 90
2, 269599, Note_on_c, 0, 71, 69
2, 269604, Note_on_c, 0, 44, 56
2, 269609, Note_on_c, 0, 63, 65
2, 269612, Control_c, 0, 64, 82
2, 269632, Control_c, 0, 64, 77
2, 269647, Note_on_c, 0, 37, 0
2, 269652, Control_c, 0, 64, 72
2, 269652, Note_on_c, 0, 70, 0
2, 269668, Control_c, 0, 64, 68
2, 269688, Control_c, 0, 64, 66
2, 269708, Control_c, 0, 64, 63
2, 269730, Control_c, 0, 64, 62
2, 269748, Control_c, 0, 64, 60
2, 269764, Control_c, 0, 64, 59
2, 269786, Control_c, 0, 64, 57
2, 269806, Control_c, 0, 64, 53
2, 269824, Control_c, 0, 64, 47
2, 269842, Control_c, 0, 64, 40
2, 269862, Control_c, 0, 64, 34
2, 269880, Control_c, 0, 64, 32
2, 269901, Control_c, 0, 64, 33
2, 269919, Control_c, 0, 64, 39
2, 269940, Control_c, 0, 64, 47
2, 269957, Control_c, 0, 64, 55
2, 269976, Control_c, 0, 64, 60
2, 269990, Note_on_c, 0, 43, 45
2, 269994, Note_on_c, 0, 73, 65
2, 269999, Control_c, 0, 64, 63
2, 270015, Control_c, 0, 64, 65
2, 270024, Note_on_c, 0, 71, 0
2, 270037, Control_c, 0, 64, 67
2, 270037, Note_on_c, 0, 44, 0
2, 270053, Control_c, 0, 64, 71
2, 270073, Control_c, 0, 64, 79
2, 270080, Note_on_c, 0, 63, 0
2, 270093, Control_c, 0, 64, 90
2, 270113, Control_c, 0, 64, 102
2, 270130, Control_c, 0, 64, 113
2, 270150, Control_c, 0, 64, 120
2, 270227, Control_c, 0, 64, 116
2, 270247, Control_c, 0, 64, 108
2, 270264, Control_c, 0, 64, 100
2, 270284, Control_c, 0, 64, 91
2, 270305, Control_c, 0, 64, 83
2, 270322, Control_c, 0, 64, 75
2, 270342, Control_c, 0, 64, 65
2, 270357, Note_on_c, 0, 71, 65
2, 270360, Note_on_c, 0, 65, 60
2, 270364, Control_c, 0, 64, 60
2, 270374, Note_on_c, 0, 43, 0
2, 270374, Note_on_c, 0, 44, 46
2, 270381, Control_c, 0, 64, 55
2, 270398, Control_c, 0, 64, 51
2, 270421, Control_c, 0, 64, 50
2, 270423, Note_on_c, 0, 73, 0
2, 270437, Control_c, 0, 64, 52
2, 270457, Control_c, 0, 64, 56
2, 270476, Control_c, 0, 64, 63
2, 270495, Control_c, 0, 64, 68
2, 270508, Note_on_c, 0, 65, 0
2, 270515, Control_c, 0, 64, 78
2, 270534, Control_c, 0, 64, 109
2, 270553, Control_c, 0, 64, 127
2, 270766, Control_c, 0, 64, 104
2, 270783, Control_c, 0, 64, 87
2, 270787, Note_on_c, 0, 66, 59
2, 270790, Note_on_c, 0, 70, 60
2, 270801, Note_on_c, 0, 39, 50
2, 270806, Control_c, 0, 64, 74
2, 270807, Note_on_c, 0, 71, 0
2, 270820, Control_c, 0, 64, 66
2, 270840, Control_c, 0, 64, 61
2, 270860, Control_c, 0, 64, 58
2, 270879, Control_c, 0, 64, 56
2, 270884, Note_on_c, 0, 44, 0
2, 270898, Control_c, 0, 64, 53
2, 270919, Control_c, 0, 64, 49
2, 270937, Control_c, 0, 64, 42
2, 270957, Control_c, 0, 64, 29
2, 270975, Control_c, 0, 64, 0
2, 271089, Control_c, 0, 64, 16
2, 271113, Control_c, 0, 64, 32
2, 271129, Control_c, 0, 64, 47
2, 271151, Control_c, 0, 64, 59
2, 271168, Control_c, 0, 64, 65
2, 271170, Note_on_c, 0, 39, 0
2, 271179, Note_on_c, 0, 75, 60
2, 271185, Control_c, 0, 64, 68
2, 271205, Control_c, 0, 64, 74
2, 271227, Control_c, 0, 64, 85
2, 271244, Control_c, 0, 64, 127
2, 271296, Note_on_c, 0, 66, 0
2, 271555, Note_on_c, 0, 73, 69
2, 271561, Note_on_c, 0, 67, 59
2, 271616, Note_on_c, 0, 70, 0
2, 271655, Note_on_c, 0, 75, 0
2, 271953, Note_on_c, 0, 68, 69
2, 271956, Control_c, 0, 64, 109
2, 271960, Note_on_c, 0, 71, 57
2, 271975, Control_c, 0, 64, 97
2, 271996, Control_c, 0, 64, 84
2, 272011, Note_on_c, 0, 73, 0
2, 272013, Control_c, 0, 64, 76
2, 272032, Control_c, 0, 64, 71
2, 272052, Control_c, 0, 64, 67
2, 272070, Control_c, 0, 64, 64
2, 272079, Note_on_c, 0, 67, 0
2, 272088, Control_c, 0, 64, 61
2, 272109, Control_c, 0, 64, 59
2, 272127, Control_c, 0, 64, 57
2, 272145, Control_c, 0, 64, 55
2, 272167, Control_c, 0, 64, 52
2, 272184, Control_c, 0, 64, 51
2, 272204, Control_c, 0, 64, 50
2, 272300, Control_c, 0, 64, 49
2, 272321, Control_c, 0, 64, 48
2, 272350, Note_on_c, 0, 76, 62
2, 272406, Note_on_c, 0, 71, 0
2, 272757, Note_on_c, 0, 75, 59
2, 272902, Note_on_c, 0, 76, 0
2, 272973, Control_c, 0, 64, 49
2, 273142, Note_on_c, 0, 73, 52
2, 273146, Control_c, 0, 64, 50
2, 273189, Note_on_c, 0, 75, 0
2, 273202, Control_c, 0, 64, 51
2, 273239, Control_c, 0, 64, 52
2, 273280, Control_c, 0, 64, 53
2, 273301, Control_c, 0, 64, 54
2, 273318, Control_c, 0, 64, 55
2, 273337, Control_c, 0, 64, 57
2, 273357, Control_c, 0, 64, 58
2, 273375, Control_c, 0, 64, 59
2, 273395, Control_c, 0, 64, 60
2, 273433, Control_c, 0, 64, 61
2, 273471, Control_c, 0, 64, 62
2, 273550, Control_c, 0, 64, 63
2, 273550, Note_on_c, 0, 75, 54
2, 273586, Control_c, 0, 64, 64
2, 273605, Control_c, 0, 64, 65
2, 273624, Control_c, 0, 64, 67
2, 273644, Control_c, 0, 64, 69
2, 273662, Note_on_c, 0, 73, 0
2, 273667, Control_c, 0, 64, 71
2, 273681, Control_c, 0, 64, 73
2, 273703, Control_c, 0, 64, 76
2, 273721, Control_c, 0, 64, 80
2, 273741, Control_c, 0, 64, 85
2, 273758, Control_c, 0, 64, 91
2, 273778, Control_c, 0, 64, 99
2, 273798, Control_c, 0, 64, 106
2, 273816, Control_c, 0, 64, 110
2, 273836, Control_c, 0, 64, 113
2, 273855, Control_c, 0, 64, 115
2, 273864, Note_on_c, 0, 68, 0
2, 273876, Control_c, 0, 64, 116
2, 273953, Note_on_c, 0, 76, 59
2, 274011, Note_on_c, 0, 75, 0
2, 274163, Control_c, 0, 64, 115
2, 274182, Control_c, 0, 64, 112
2, 274204, Control_c, 0, 64, 109
2, 274220, Control_c, 0, 64, 105
2, 274238, Control_c, 0, 64, 102
2, 274257, Control_c, 0, 64, 98
2, 274276, Control_c, 0, 64, 94
2, 274296, Control_c, 0, 64, 90
2, 274318, Control_c, 0, 64, 86
2, 274318, Note_on_c, 0, 70, 52
2, 274338, Control_c, 0, 64, 81
2, 274345, Note_on_c, 0, 67, 45
2, 274354, Control_c, 0, 64, 77
2, 274373, Control_c, 0, 64, 73
2, 274395, Control_c, 0, 64, 70
2, 274411, Control_c, 0, 64, 69
2, 274431, Control_c, 0, 64, 68
2, 274454, Control_c, 0, 64, 67
2, 274480, Note_on_c, 0, 67, 0
2, 274490, Control_c, 0, 64, 66
2, 274528, Note_on_c, 0, 68, 54
2, 274570, Note_on_c, 0, 68, 0
2, 274586, Control_c, 0, 64, 65
2, 274616, Note_on_c, 0, 67, 49
2, 274663, Control_c, 0, 64, 64
2, 274666, Note_on_c, 0, 67, 0
2, 274699, Note_on_c, 0, 68, 51
2, 274703, Control_c, 0, 64, 63
2, 274706, Note_on_c, 0, 75, 52
2, 274741, Note_on_c, 0, 70, 0
2, 274756, Note_on_c, 0, 68, 0
2, 274778, Control_c, 0, 64, 62
2, 274780, Note_on_c, 0, 67, 58
2, 274838, Note_on_c, 0, 67, 0
2, 274889, Note_on_c, 0, 68, 51
2, 274931, Control_c, 0, 64, 61
2, 274949, Note_on_c, 0, 68, 0
2, 274981, Note_on_c, 0, 67, 52
2, 275038, Note_on_c, 0, 67, 0
2, 275049, Note_on_c, 0, 76, 0
2, 275067, Control_c, 0, 64, 60
2, 275067, Note_on_c, 0, 68, 61
2, 275106, Note_on_c, 0, 73, 53
2, 275121, Note_on_c, 0, 68, 0
2, 275141, Control_c, 0, 64, 59
2, 275156, Note_on_c, 0, 67, 53
2, 275208, Note_on_c, 0, 67, 0
2, 275239, Note_on_c, 0, 75, 0
2, 275258, Control_c, 0, 64, 58
2, 275278, Note_on_c, 0, 65, 39
2, 275335, Control_c, 0, 64, 57
2, 275344, Note_on_c, 0, 65, 0
2, 275358, Note_on_c, 0, 67, 44
2, 275468, Note_on_c, 0, 67, 0
2, 275489, Note_on_c, 0, 71, 46
2, 275494, Note_on_c, 0, 68, 52
2, 275526, Note_on_c, 0, 73, 0
2, 275879, Note_on_c, 0, 73, 50
2, 275947, Note_on_c, 0, 71, 0
2, 276250, Note_on_c, 0, 66, 48
2, 276255, Note_on_c, 0, 75, 49
2, 276308, Note_on_c, 0, 73, 0
2, 276353, Control_c, 0, 64, 58
2, 276353, Note_on_c, 0, 68, 0
2, 276645, Note_on_c, 0, 68, 48
2, 276651, Note_on_c, 0, 64, 52
2, 276699, Note_on_c, 0, 75, 0
2, 276704, Note_on_c, 0, 66, 0
2, 277048, Note_on_c, 0, 73, 62
2, 277081, Control_c, 0, 64, 57
2, 277137, Control_c, 0, 64, 58
2, 277154, Note_on_c, 0, 68, 0
2, 277274, Control_c, 0, 64, 57
2, 277449, Note_on_c, 0, 75, 55
2, 277460, Note_on_c, 0, 63, 44
2, 277507, Note_on_c, 0, 64, 0
2, 277511, Note_on_c, 0, 73, 0
2, 277831, Note_on_c, 0, 61, 40
2, 277841, Note_on_c, 0, 76, 58
2, 277887, Control_c, 0, 64, 56
2, 277896, Note_on_c, 0, 63, 0
2, 277963, Control_c, 0, 64, 57
2, 277968, Note_on_c, 0, 75, 0
2, 277984, Control_c, 0, 64, 58
2, 278020, Control_c, 0, 64, 59
2, 278041, Control_c, 0, 64, 60
2, 278060, Control_c, 0, 64, 61
2, 278080, Control_c, 0, 64, 62
2, 278099, Control_c, 0, 64, 63
2, 278136, Control_c, 0, 64, 64
2, 278157, Control_c, 0, 64, 65
2, 278194, Control_c, 0, 64, 66
2, 278213, Control_c, 0, 64, 67
2, 278233, Control_c, 0, 64, 69
2, 278236, Note_on_c, 0, 64, 53
2, 278245, Note_on_c, 0, 61, 0
2, 278250, Control_c, 0, 64, 71
2, 278272, Control_c, 0, 64, 73
2, 278291, Control_c, 0, 64, 76
2, 278312, Control_c, 0, 64, 78
2, 278327, Control_c, 0, 64, 81
2, 278347, Control_c, 0, 64, 84
2, 278366, Control_c, 0, 64, 85
2, 278481, Control_c, 0, 64, 84
2, 278521, Control_c, 0, 64, 83
2, 278541, Control_c, 0, 64, 81
2, 278559, Control_c, 0, 64, 79
2, 278578, Control_c, 0, 64, 76
2, 278598, Control_c, 0, 64, 71
2, 278609, Note_on_c, 0, 61, 57
2, 278617, Control_c, 0, 64, 68
2, 278621, Note_on_c, 0, 69, 47
2, 278637, Control_c, 0, 64, 65
2, 278657, Control_c, 0, 64, 64
2, 278674, Control_c, 0, 64, 62
2, 278692, Control_c, 0, 64, 60
2, 278715, Control_c, 0, 64, 58
2, 278715, Note_on_c, 0, 64, 0
2, 278752, Control_c, 0, 64, 59
2, 278770, Control_c, 0, 64, 60
2, 278788, Control_c, 0, 64, 61
2, 278809, Control_c, 0, 64, 63
2, 278827, Control_c, 0, 64, 64
2, 278847, Control_c, 0, 64, 65
2, 278865, Control_c, 0, 64, 66
2, 278886, Control_c, 0, 64, 67
2, 278924, Control_c, 0, 64, 66
2, 278944, Control_c, 0, 64, 65
2, 278962, Control_c, 0, 64, 64
2, 278981, Control_c, 0, 64, 62
2, 279000, Control_c, 0, 64, 60
2, 279013, Note_on_c, 0, 60, 64
2, 279013, Note_on_c, 0, 75, 57
2, 279022, Control_c, 0, 64, 59
2, 279071, Note_on_c, 0, 76, 0
2, 279110, Note_on_c, 0, 61, 0
2, 279117, Control_c, 0, 64, 60
2, 279136, Control_c, 0, 64, 61
2, 279153, Control_c, 0, 64, 62
2, 279173, Control_c, 0, 64, 64
2, 279195, Control_c, 0, 64, 65
2, 279212, Control_c, 0, 64, 67
2, 279231, Control_c, 0, 64, 69
2, 279252, Control_c, 0, 64, 71
2, 279271, Control_c, 0, 64, 73
2, 279288, Control_c, 0, 64, 75
2, 279308, Control_c, 0, 64, 77
2, 279326, Control_c, 0, 64, 79
2, 279346, Control_c, 0, 64, 80
2, 279357, Note_on_c, 0, 69, 0
2, 279365, Control_c, 0, 64, 81
2, 279385, Control_c, 0, 64, 82
2, 279406, Control_c, 0, 64, 83
2, 279424, Note_on_c, 0, 68, 38
2, 279429, Control_c, 0, 64, 84
2, 279442, Control_c, 0, 64, 85
2, 279464, Control_c, 0, 64, 87
2, 279480, Control_c, 0, 64, 88
2, 279518, Control_c, 0, 64, 89
2, 279530, Note_on_c, 0, 68, 0
2, 279556, Control_c, 0, 64, 90
2, 279580, Note_on_c, 0, 66, 47
2, 279692, Control_c, 0, 64, 89
2, 279709, Control_c, 0, 64, 88
2, 279730, Control_c, 0, 64, 86
2, 279749, Control_c, 0, 64, 82
2, 279771, Control_c, 0, 64, 76
2, 279788, Control_c, 0, 64, 70
2, 279796, Note_on_c, 0, 68, 52
2, 279801, Note_on_c, 0, 59, 65
2, 279809, Control_c, 0, 64, 65
2, 279830, Control_c, 0, 64, 62
2, 279830, Note_on_c, 0, 60, 0
2, 279846, Control_c, 0, 64, 61
2, 279864, Control_c, 0, 64, 62
2, 279870, Note_on_c, 0, 66, 0
2, 279903, Control_c, 0, 64, 63
2, 279922, Control_c, 0, 64, 65
2, 279941, Control_c, 0, 64, 68
2, 279960, Control_c, 0, 64, 74
2, 279981, Control_c, 0, 64, 88
2, 279998, Control_c, 0, 64, 102
2, 280017, Control_c, 0, 64, 111
2, 280037, Control_c, 0, 64, 110
2, 280056, Control_c, 0, 64, 107
2, 280074, Control_c, 0, 64, 103
2, 280094, Control_c, 0, 64, 98
2, 280113, Control_c, 0, 64, 91
2, 280132, Control_c, 0, 64, 85
2, 280152, Control_c, 0, 64, 78
2, 280171, Control_c, 0, 64, 73
2, 280193, Control_c, 0, 64, 68
2, 280198, Note_on_c, 0, 58, 61
2, 280198, Note_on_c, 0, 73, 67
2, 280210, Control_c, 0, 64, 66
2, 280233, Control_c, 0, 64, 64
2, 280247, Note_on_c, 0, 59, 0
2, 280250, Control_c, 0, 64, 62
2, 280268, Control_c, 0, 64, 61
2, 280286, Control_c, 0, 64, 59
2, 280312, Note_on_c, 0, 68, 0
2, 280345, Control_c, 0, 64, 60
2, 280365, Control_c, 0, 64, 62
2, 280376, Note_on_c, 0, 75, 0
2, 280385, Control_c, 0, 64, 63
2, 280402, Control_c, 0, 64, 64
2, 280421, Control_c, 0, 64, 66
2, 280441, Control_c, 0, 64, 69
2, 280459, Control_c, 0, 64, 73
2, 280479, Control_c, 0, 64, 80
2, 280498, Control_c, 0, 64, 90
2, 280516, Control_c, 0, 64, 111
2, 280535, Control_c, 0, 64, 127
2, 280575, Note_on_c, 0, 61, 56
2, 280921, Control_c, 0, 64, 109
2, 280940, Control_c, 0, 64, 87
2, 280956, Note_on_c, 0, 57, 65
2, 280956, Note_on_c, 0, 66, 69
2, 280960, Control_c, 0, 64, 74
2, 280979, Control_c, 0, 64, 67
2, 280998, Control_c, 0, 64, 65
2, 280998, Note_on_c, 0, 58, 0
2, 281027, Note_on_c, 0, 61, 0
2, 281035, Control_c, 0, 64, 68
2, 281055, Control_c, 0, 64, 73
2, 281075, Control_c, 0, 64, 89
2, 281093, Control_c, 0, 64, 127
2, 281142, Note_on_c, 0, 57, 0
2, 281322, Control_c, 0, 64, 97
2, 281345, Control_c, 0, 64, 78
2, 281349, Note_on_c, 0, 56, 67
2, 281349, Note_on_c, 0, 71, 66
2, 281363, Control_c, 0, 64, 69
2, 281381, Note_on_c, 0, 73, 0
2, 281386, Control_c, 0, 64, 64
2, 281401, Control_c, 0, 64, 61
2, 281419, Control_c, 0, 64, 59
2, 281456, Control_c, 0, 64, 60
2, 281476, Control_c, 0, 64, 61
2, 281496, Control_c, 0, 64, 64
2, 281516, Control_c, 0, 64, 68
2, 281535, Control_c, 0, 64, 74
2, 281554, Control_c, 0, 64, 84
2, 281574, Control_c, 0, 64, 102
2, 281593, Control_c, 0, 64, 127
2, 281727, Control_c, 0, 64, 116
2, 281727, Note_on_c, 0, 80, 78
2, 281741, Note_on_c, 0, 64, 64
2, 281748, Control_c, 0, 64, 88
2, 281766, Control_c, 0, 64, 74
2, 281770, Note_on_c, 0, 56, 0
2, 281784, Control_c, 0, 64, 70
2, 281803, Control_c, 0, 64, 71
2, 281814, Note_on_c, 0, 66, 0
2, 281824, Control_c, 0, 64, 74
2, 281842, Control_c, 0, 64, 82
2, 281862, Control_c, 0, 64, 100
2, 281883, Control_c, 0, 64, 127
2, 281909, Note_on_c, 0, 64, 0
2, 281923, Note_on_c, 0, 63, 64
2, 282106, Note_on_c, 0, 63, 0
2, 282111, Control_c, 0, 64, 107
2, 282113, Note_on_c, 0, 64, 70
2, 282126, Note_on_c, 0, 58, 65
2, 282131, Control_c, 0, 64, 85
2, 282149, Control_c, 0, 64, 72
2, 282170, Control_c, 0, 64, 65
2, 282189, Control_c, 0, 64, 64
2, 282208, Control_c, 0, 64, 65
2, 282225, Control_c, 0, 64, 71
2, 282241, Note_on_c, 0, 80, 0
2, 282246, Control_c, 0, 64, 88
2, 282263, Control_c, 0, 64, 127
2, 282276, Note_on_c, 0, 58, 0
2, 282496, Control_c, 0, 64, 108
2, 282516, Control_c, 0, 64, 86
2, 282521, Note_on_c, 0, 78, 73
2, 282525, Note_on_c, 0, 63, 60
2, 282529, Note_on_c, 0, 59, 63
2, 282534, Control_c, 0, 64, 74
2, 282551, Control_c, 0, 64, 68
2, 282571, Control_c, 0, 64, 65
2, 282576, Note_on_c, 0, 64, 0
2, 282592, Control_c, 0, 64, 63
2, 282628, Control_c, 0, 64, 62
2, 282647, Control_c, 0, 64, 59
2, 282670, Control_c, 0, 64, 56
2, 282688, Control_c, 0, 64, 52
2, 282705, Control_c, 0, 64, 49
2, 282726, Control_c, 0, 64, 46
2, 282744, Control_c, 0, 64, 44
2, 282764, Control_c, 0, 64, 40
2, 282781, Control_c, 0, 64, 30
2, 282801, Control_c, 0, 64, 14
2, 282821, Control_c, 0, 64, 0
2, 282900, Note_on_c, 0, 76, 65
2, 282913, Note_on_c, 0, 68, 58
2, 283107, Note_on_c, 0, 78, 0
2, 283285, Note_on_c, 0, 66, 58
2, 283290, Note_on_c, 0, 75, 60
2, 283307, Note_on_c, 0, 60, 56
2, 283355, Note_on_c, 0, 59, 0
2, 283363, Note_on_c, 0, 63, 0
2, 283393, Note_on_c, 0, 71, 0
2, 283403, Note_on_c, 0, 76, 0
2, 283547, Note_on_c, 0, 66, 0
2, 283552, Control_c, 0, 64, 42
2, 283568, Control_c, 0, 64, 55
2, 283589, Control_c, 0, 64, 61
2, 283609, Control_c, 0, 64, 63
2, 283627, Control_c, 0, 64, 65
2, 283645, Control_c, 0, 64, 69
2, 283665, Control_c, 0, 64, 77
2, 283686, Control_c, 0, 64, 87
2, 283695, Note_on_c, 0, 61, 52
2, 283704, Control_c, 0, 64, 86
2, 283713, Note_on_c, 0, 64, 63
2, 283726, Control_c, 0, 64, 83
2, 283742, Control_c, 0, 64, 80
2, 283762, Control_c, 0, 64, 77
2, 283780, Control_c, 0, 64, 74
2, 283800, Control_c, 0, 64, 70
2, 283820, Control_c, 0, 64, 65
2, 283829, Note_on_c, 0, 60, 0
2, 283841, Control_c, 0, 64, 61
2, 283857, Control_c, 0, 64, 60
2, 283878, Control_c, 0, 64, 59
2, 283917, Control_c, 0, 64, 60
2, 283917, Note_on_c, 0, 68, 0
2, 283934, Control_c, 0, 64, 59
2, 283974, Control_c, 0, 64, 58
2, 283994, Control_c, 0, 64, 56
2, 284009, Control_c, 0, 64, 55
2, 284070, Control_c, 0, 64, 54
2, 284075, Note_on_c, 0, 73, 64
2, 284084, Note_on_c, 0, 69, 44
2, 284106, Control_c, 0, 64, 52
2, 284127, Control_c, 0, 64, 50
2, 284131, Note_on_c, 0, 75, 0
2, 284148, Control_c, 0, 64, 48
2, 284165, Control_c, 0, 64, 45
2, 284184, Control_c, 0, 64, 44
2, 284242, Control_c, 0, 64, 43
2, 284260, Note_on_c, 0, 72, 66
2, 284264, Control_c, 0, 64, 42
2, 284264, Note_on_c, 0, 73, 0
2, 284281, Control_c, 0, 64, 39
2, 284300, Control_c, 0, 64, 36
2, 284320, Control_c, 0, 64, 33
2, 284339, Control_c, 0, 64, 31
2, 284376, Control_c, 0, 64, 30
2, 284453, Note_on_c, 0, 73, 56
2, 284463, Note_on_c, 0, 68, 50
2, 284483, Note_on_c, 0, 64, 0
2, 284506, Note_on_c, 0, 69, 0
2, 284535, Note_on_c, 0, 72, 0
2, 284870, Note_on_c, 0, 66, 49
2, 284883, Note_on_c, 0, 75, 56
2, 284935, Note_on_c, 0, 68, 0
2, 284988, Note_on_c, 0, 73, 0
2, 285261, Note_on_c, 0, 68, 47
2, 285278, Control_c, 0, 64, 31
2, 285297, Control_c, 0, 64, 33
2, 285304, Note_on_c, 0, 66, 0
2, 285317, Control_c, 0, 64, 34
2, 285336, Control_c, 0, 64, 36
2, 285355, Control_c, 0, 64, 37
2, 285375, Control_c, 0, 64, 39
2, 285393, Control_c, 0, 64, 41
2, 285412, Control_c, 0, 64, 44
2, 285433, Control_c, 0, 64, 46
2, 285451, Control_c, 0, 64, 48
2, 285470, Control_c, 0, 64, 51
2, 285492, Control_c, 0, 64, 52
2, 285509, Control_c, 0, 64, 54
2, 285530, Control_c, 0, 64, 55
2, 285549, Control_c, 0, 64, 57
2, 285570, Control_c, 0, 64, 58
2, 285585, Control_c, 0, 64, 59
2, 285605, Control_c, 0, 64, 60
2, 285647, Control_c, 0, 64, 61
2, 285647, Note_on_c, 0, 69, 45
2, 285659, Note_on_c, 0, 61, 0
2, 285683, Note_on_c, 0, 68, 0
2, 285700, Control_c, 0, 64, 62
2, 285742, Control_c, 0, 64, 63
2, 285951, Control_c, 0, 64, 62
2, 286027, Control_c, 0, 64, 61
2, 286055, Note_on_c, 0, 63, 48
2, 286059, Note_on_c, 0, 60, 41
2, 286086, Control_c, 0, 64, 60
2, 286093, Note_on_c, 0, 69, 0
2, 286184, Control_c, 0, 64, 59
2, 286296, Control_c, 0, 64, 58
2, 286373, Control_c, 0, 64, 57
2, 286393, Control_c, 0, 64, 56
2, 286411, Control_c, 0, 64, 55
2, 286456, Note_on_c, 0, 68, 46
2, 286468, Control_c, 0, 64, 56
2, 286489, Control_c, 0, 64, 58
2, 286506, Control_c, 0, 64, 59
2, 286526, Control_c, 0, 64, 60
2, 286546, Control_c, 0, 64, 61
2, 286584, Control_c, 0, 64, 62
2, 286621, Control_c, 0, 64, 63
2, 286661, Control_c, 0, 64, 64
2, 286699, Control_c, 0, 64, 65
2, 286718, Control_c, 0, 64, 66
2, 286776, Control_c, 0, 64, 67
2, 286835, Note_on_c, 0, 63, 0
2, 286839, Control_c, 0, 64, 68
2, 286854, Control_c, 0, 64, 69
2, 286854, Note_on_c, 0, 66, 38
2, 286892, Control_c, 0, 64, 70
2, 286953, Note_on_c, 0, 68, 0
2, 287026, Control_c, 0, 64, 69
2, 287103, Control_c, 0, 64, 68
2, 287124, Control_c, 0, 64, 67
2, 287158, Control_c, 0, 64, 66
2, 287178, Note_on_c, 0, 60, 0
2, 287202, Control_c, 0, 64, 65
2, 287237, Control_c, 0, 64, 64
2, 287246, Note_on_c, 0, 61, 35
2, 287250, Note_on_c, 0, 64, 52
2, 287257, Control_c, 0, 64, 63
2, 287274, Control_c, 0, 64, 62
2, 287294, Control_c, 0, 64, 61
2, 287314, Control_c, 0, 64, 59
2, 287331, Note_on_c, 0, 75, 0
2, 287335, Control_c, 0, 64, 58
2, 287353, Control_c, 0, 64, 57
2, 287371, Control_c, 0, 64, 56
2, 287371, Note_on_c, 0, 66, 0
2, 287393, Control_c, 0, 64, 57
2, 287410, Control_c, 0, 64, 58
2, 287428, Control_c, 0, 64, 59
2, 287449, Control_c, 0, 64, 61
2, 287467, Control_c, 0, 64, 63
2, 287486, Control_c, 0, 64, 64
2, 287505, Control_c, 0, 64, 65
2, 287524, Control_c, 0, 64, 67
2, 287545, Control_c, 0, 64, 70
2, 287566, Control_c, 0, 64, 74
2, 287578, Note_on_c, 0, 61, 0
2, 287582, Control_c, 0, 64, 79
2, 287604, Control_c, 0, 64, 85
2, 287621, Control_c, 0, 64, 90
2, 287642, Control_c, 0, 64, 95
2, 287653, Note_on_c, 0, 68, 56
2, 287660, Control_c, 0, 64, 100
2, 287678, Control_c, 0, 64, 109
2, 287698, Control_c, 0, 64, 127
2, 288027, Note_on_c, 0, 73, 68
2, 288046, Note_on_c, 0, 59, 41
2, 288062, Control_c, 0, 64, 110
2, 288084, Control_c, 0, 64, 100
2, 288100, Control_c, 0, 64, 93
2, 288120, Control_c, 0, 64, 85
2, 288138, Control_c, 0, 64, 79
2, 288155, Note_on_c, 0, 68, 0
2, 288160, Control_c, 0, 64, 74
2, 288180, Control_c, 0, 64, 70
2, 288199, Control_c, 0, 64, 68
2, 288215, Control_c, 0, 64, 67
2, 288236, Control_c, 0, 64, 65
2, 288254, Control_c, 0, 64, 64
2, 288274, Control_c, 0, 64, 63
2, 288292, Control_c, 0, 64, 62
2, 288312, Control_c, 0, 64, 61
2, 288389, Control_c, 0, 64, 60
2, 288429, Note_on_c, 0, 58, 46
2, 288486, Control_c, 0, 64, 59
2, 288514, Note_on_c, 0, 59, 0
2, 288639, Control_c, 0, 64, 60
2, 288807, Note_on_c, 0, 71, 61
2, 288878, Note_on_c, 0, 73, 0
2, 289002, Note_on_c, 0, 70, 60
2, 289011, Note_on_c, 0, 71, 0
2, 289206, Note_on_c, 0, 71, 61
2, 289212, Note_on_c, 0, 70, 0
2, 289216, Note_on_c, 0, 56, 34
2, 289314, Note_on_c, 0, 58, 0
2, 289350, Control_c, 0, 64, 59
2, 289484, Control_c, 0, 64, 58
2, 289515, Note_on_c, 0, 64, 0
2, 289522, Control_c, 0, 64, 57
2, 289540, Control_c, 0, 64, 56
2, 289560, Control_c, 0, 64, 55
2, 289582, Control_c, 0, 64, 54
2, 289600, Control_c, 0, 64, 52
2, 289604, Note_on_c, 0, 70, 53
2, 289619, Control_c, 0, 64, 50
2, 289619, Note_on_c, 0, 54, 42
2, 289637, Control_c, 0, 64, 47
2, 289646, Note_on_c, 0, 71, 0
2, 289656, Control_c, 0, 64, 45
2, 289693, Control_c, 0, 64, 46
2, 289709, Note_on_c, 0, 56, 0
2, 289714, Control_c, 0, 64, 49
2, 289733, Control_c, 0, 64, 53
2, 289753, Control_c, 0, 64, 58
2, 289772, Control_c, 0, 64, 60
2, 289792, Control_c, 0, 64, 62
2, 289810, Control_c, 0, 64, 63
2, 289830, Control_c, 0, 64, 64
2, 289849, Control_c, 0, 64, 65
2, 289867, Control_c, 0, 64, 67
2, 289885, Control_c, 0, 64, 70
2, 289905, Control_c, 0, 64, 72
2, 289926, Control_c, 0, 64, 74
2, 289930, Note_on_c, 0, 54, 0
2, 289946, Control_c, 0, 64, 76
2, 289965, Control_c, 0, 64, 78
2, 289984, Control_c, 0, 64, 80
2, 290001, Control_c, 0, 64, 81
2, 290016, Note_on_c, 0, 61, 49
2, 290021, Control_c, 0, 64, 82
2, 290078, Control_c, 0, 64, 83
2, 290215, Control_c, 0, 64, 82
2, 290274, Control_c, 0, 64, 81
2, 290313, Control_c, 0, 64, 80
2, 290349, Control_c, 0, 64, 79
2, 290370, Control_c, 0, 64, 78
2, 290389, Control_c, 0, 64, 77
2, 290409, Control_c, 0, 64, 76
2, 290409, Note_on_c, 0, 66, 53
2, 290418, Note_on_c, 0, 52, 36
2, 290428, Control_c, 0, 64, 74
2, 290447, Control_c, 0, 64, 73
2, 290467, Control_c, 0, 64, 72
2, 290486, Control_c, 0, 64, 70
2, 290502, Control_c, 0, 64, 69
2, 290523, Control_c, 0, 64, 68
2, 290543, Control_c, 0, 64, 67
2, 290561, Control_c, 0, 64, 66
2, 290581, Control_c, 0, 64, 65
2, 290600, Control_c, 0, 64, 64
2, 290657, Control_c, 0, 64, 63
2, 290696, Control_c, 0, 64, 62
2, 290732, Note_on_c, 0, 61, 0
2, 290735, Control_c, 0, 64, 61
2, 290803, Note_on_c, 0, 51, 42
2, 290814, Control_c, 0, 64, 60
2, 290878, Note_on_c, 0, 52, 0
2, 291184, Note_on_c, 0, 64, 48
2, 291370, Note_on_c, 0, 64, 0
2, 291370, Note_on_c, 0, 66, 0
2, 291379, Note_on_c, 0, 63, 48
2, 291571, Note_on_c, 0, 64, 54
2, 291597, Note_on_c, 0, 49, 37
2, 291597, Note_on_c, 0, 63, 0
2, 291682, Note_on_c, 0, 51, 0
2, 291828, Control_c, 0, 64, 59
2, 291884, Control_c, 0, 64, 58
2, 291949, Note_on_c, 0, 47, 42
2, 291953, Note_on_c, 0, 63, 45
2, 291965, Control_c, 0, 64, 57
2, 291996, Note_on_c, 0, 49, 0
2, 292023, Control_c, 0, 64, 56
2, 292023, Note_on_c, 0, 64, 0
2, 292062, Control_c, 0, 64, 55
2, 292097, Control_c, 0, 64, 54
2, 292136, Control_c, 0, 64, 53
2, 292156, Control_c, 0, 64, 52
2, 292174, Control_c, 0, 64, 51
2, 292193, Control_c, 0, 64, 50
2, 292232, Control_c, 0, 64, 49
2, 292250, Control_c, 0, 64, 48
2, 292270, Control_c, 0, 64, 46
2, 292290, Control_c, 0, 64, 43
2, 292307, Control_c, 0, 64, 40
2, 292320, Note_on_c, 0, 54, 44
2, 292329, Control_c, 0, 64, 36
2, 292347, Control_c, 0, 64, 33
2, 292368, Control_c, 0, 64, 29
2, 292384, Control_c, 0, 64, 25
2, 292404, Control_c, 0, 64, 20
2, 292425, Control_c, 0, 64, 15
2, 292445, Control_c, 0, 64, 0
2, 292500, Control_c, 0, 64, 16
2, 292520, Control_c, 0, 64, 25
2, 292540, Control_c, 0, 64, 30
2, 292559, Control_c, 0, 64, 33
2, 292577, Control_c, 0, 64, 37
2, 292595, Control_c, 0, 64, 43
2, 292616, Control_c, 0, 64, 51
2, 292638, Control_c, 0, 64, 59
2, 292655, Control_c, 0, 64, 62
2, 292673, Control_c, 0, 64, 63
2, 292692, Control_c, 0, 64, 64
2, 292716, Note_on_c, 0, 68, 52
2, 292720, Note_on_c, 0, 59, 34
2, 292734, Control_c, 0, 64, 65
2, 292750, Control_c, 0, 64, 67
2, 292768, Control_c, 0, 64, 69
2, 292779, Note_on_c, 0, 47, 0
2, 292779, Note_on_c, 0, 70, 0
2, 292788, Control_c, 0, 64, 73
2, 292805, Note_on_c, 0, 63, 0
2, 292810, Control_c, 0, 64, 77
2, 292826, Control_c, 0, 64, 81
2, 292847, Control_c, 0, 64, 83
2, 292869, Control_c, 0, 64, 84
2, 292896, Note_on_c, 0, 54, 0
2, 293057, Control_c, 0, 64, 83
2, 293077, Control_c, 0, 64, 81
2, 293095, Control_c, 0, 64, 80
2, 293113, Control_c, 0, 64, 78
2, 293134, Control_c, 0, 64, 76
2, 293138, Note_on_c, 0, 73, 71
2, 293147, Note_on_c, 0, 64, 51
2, 293154, Control_c, 0, 64, 73
2, 293173, Control_c, 0, 64, 71
2, 293194, Control_c, 0, 64, 68
2, 293211, Control_c, 0, 64, 66
2, 293230, Control_c, 0, 64, 65
2, 293240, Note_on_c, 0, 68, 0
2, 293249, Control_c, 0, 64, 64
2, 293288, Control_c, 0, 64, 63
2, 293327, Control_c, 0, 64, 62
2, 293346, Control_c, 0, 64, 60
2, 293364, Control_c, 0, 64, 58
2, 293382, Control_c, 0, 64, 55
2, 293404, Control_c, 0, 64, 51
2, 293423, Control_c, 0, 64, 49
2, 293443, Control_c, 0, 64, 48
2, 293460, Control_c, 0, 64, 50
2, 293479, Control_c, 0, 64, 54
2, 293498, Control_c, 0, 64, 58
2, 293521, Control_c, 0, 64, 61
2, 293521, Note_on_c, 0, 58, 47
2, 293537, Control_c, 0, 64, 62
2, 293556, Control_c, 0, 64, 63
2, 293574, Control_c, 0, 64, 64
2, 293595, Control_c, 0, 64, 66
2, 293613, Control_c, 0, 64, 68
2, 293620, Note_on_c, 0, 59, 0
2, 293629, Note_on_c, 0, 73, 0
2, 293634, Control_c, 0, 64, 72
2, 293653, Control_c, 0, 64, 75
2, 293671, Control_c, 0, 64, 78
2, 293677, Note_on_c, 0, 58, 0
2, 293686, Control_c, 0, 64, 80
2, 293698, Note_on_c, 0, 56, 47
2, 293764, Control_c, 0, 64, 81
2, 293867, Note_on_c, 0, 56, 0
2, 293885, Note_on_c, 0, 58, 47
2, 294169, Control_c, 0, 64, 80
2, 294187, Control_c, 0, 64, 79
2, 294227, Control_c, 0, 64, 78
2, 294245, Control_c, 0, 64, 76
2, 294264, Control_c, 0, 64, 74
2, 294277, Note_on_c, 0, 71, 62
2, 294283, Control_c, 0, 64, 72
2, 294292, Note_on_c, 0, 63, 46
2, 294302, Control_c, 0, 64, 69
2, 294321, Control_c, 0, 64, 67
2, 294339, Control_c, 0, 64, 65
2, 294360, Control_c, 0, 64, 64
2, 294380, Control_c, 0, 64, 63
2, 294398, Control_c, 0, 64, 62
2, 294414, Note_on_c, 0, 64, 0
2, 294418, Control_c, 0, 64, 61
2, 294455, Control_c, 0, 64, 60
2, 294478, Control_c, 0, 64, 59
2, 294513, Control_c, 0, 64, 58
2, 294531, Control_c, 0, 64, 57
2, 294552, Control_c, 0, 64, 56
2, 294569, Control_c, 0, 64, 54
2, 294592, Control_c, 0, 64, 53
2, 294610, Control_c, 0, 64, 52
2, 294630, Control_c, 0, 64, 51
2, 294650, Control_c, 0, 64, 49
2, 294664, Note_on_c, 0, 58, 0
2, 294671, Control_c, 0, 64, 48
2, 294675, Note_on_c, 0, 51, 41
2, 294688, Control_c, 0, 64, 46
2, 294704, Control_c, 0, 64, 43
2, 294724, Control_c, 0, 64, 42
2, 294745, Control_c, 0, 64, 41
2, 294763, Control_c, 0, 64, 40
2, 294782, Control_c, 0, 64, 39
2, 294804, Control_c, 0, 64, 38
2, 294858, Control_c, 0, 64, 37
2, 294898, Control_c, 0, 64, 36
2, 294917, Control_c, 0, 64, 35
2, 295077, Note_on_c, 0, 56, 38
2, 295165, Note_on_c, 0, 51, 0
2, 295300, Control_c, 0, 64, 36
2, 295441, Note_on_c, 0, 70, 58
2, 295459, Note_on_c, 0, 61, 38
2, 295493, Control_c, 0, 64, 37
2, 295520, Note_on_c, 0, 63, 0
2, 295550, Control_c, 0, 64, 38
2, 295601, Note_on_c, 0, 71, 0
2, 295665, Control_c, 0, 64, 39
2, 295762, Control_c, 0, 64, 40
2, 295831, Note_on_c, 0, 55, 40
2, 295858, Control_c, 0, 64, 41
2, 295930, Note_on_c, 0, 56, 0
2, 295984, Note_on_c, 0, 55, 0
2, 296012, Note_on_c, 0, 53, 45
2, 296068, Control_c, 0, 64, 40
2, 296163, Control_c, 0, 64, 39
2, 296202, Control_c, 0, 64, 38
2, 296226, Note_on_c, 0, 55, 42
2, 296262, Note_on_c, 0, 53, 0
2, 296320, Control_c, 0, 64, 37
2, 296359, Control_c, 0, 64, 36
2, 296375, Control_c, 0, 64, 35
2, 296397, Control_c, 0, 64, 32
2, 296415, Control_c, 0, 64, 28
2, 296434, Control_c, 0, 64, 24
2, 296453, Control_c, 0, 64, 23
2, 296471, Control_c, 0, 64, 22
2, 296491, Control_c, 0, 64, 19
2, 296510, Control_c, 0, 64, 14
2, 296529, Control_c, 0, 64, 0
2, 296636, Note_on_c, 0, 56, 37
2, 296638, Note_on_c, 0, 59, 31
2, 296670, Note_on_c, 0, 55, 0
2, 296856, Control_c, 0, 64, 35
2, 296875, Control_c, 0, 64, 53
2, 296894, Control_c, 0, 64, 60
2, 296912, Control_c, 0, 64, 61
2, 296933, Control_c, 0, 64, 62
2, 296951, Control_c, 0, 64, 64
2, 296972, Control_c, 0, 64, 67
2, 296990, Control_c, 0, 64, 75
2, 297003, Note_on_c, 0, 59, 0
2, 297010, Control_c, 0, 64, 97
2, 297027, Control_c, 0, 64, 127
2, 297027, Note_on_c, 0, 68, 54
2, 297065, Note_on_c, 0, 61, 0
2, 297093, Note_on_c, 0, 56, 0
2, 297121, Note_on_c, 0, 68, 0
2, 297121, Note_on_c, 0, 70, 0
2, 297443, Note_on_c, 0, 80, 65
2, 297473, Note_on_c, 0, 52, 44
2, 297473, Note_on_c, 0, 61, 40
2, 297527, Control_c, 0, 64, 111
2, 297545, Control_c, 0, 64, 93
2, 297568, Control_c, 0, 64, 84
2, 297585, Control_c, 0, 64, 78
2, 297603, Control_c, 0, 64, 74
2, 297626, Control_c, 0, 64, 70
2, 297643, Control_c, 0, 64, 67
2, 297663, Control_c, 0, 64, 66
2, 297681, Control_c, 0, 64, 65
2, 297739, Control_c, 0, 64, 64
2, 297759, Control_c, 0, 64, 63
2, 297778, Control_c, 0, 64, 62
2, 297816, Control_c, 0, 64, 61
2, 297845, Note_on_c, 0, 79, 68
2, 297852, Note_on_c, 0, 51, 44
2, 297873, Control_c, 0, 64, 60
2, 297911, Control_c, 0, 64, 59
2, 297952, Note_on_c, 0, 52, 0
2, 297982, Note_on_c, 0, 80, 0
2, 298007, Control_c, 0, 64, 58
2, 298045, Control_c, 0, 64, 57
2, 298065, Control_c, 0, 64, 56
2, 298104, Control_c, 0, 64, 55
2, 298161, Control_c, 0, 64, 54
2, 298184, Control_c, 0, 64, 53
2, 298201, Control_c, 0, 64, 52
2, 298219, Control_c, 0, 64, 51
2, 298227, Note_on_c, 0, 58, 49
2, 298240, Control_c, 0, 64, 50
2, 298244, Note_on_c, 0, 61, 0
2, 298258, Control_c, 0, 64, 49
2, 298276, Control_c, 0, 64, 47
2, 298295, Control_c, 0, 64, 42
2, 298317, Control_c, 0, 64, 37
2, 298334, Control_c, 0, 64, 33
2, 298352, Control_c, 0, 64, 34
2, 298373, Control_c, 0, 64, 39
2, 298391, Control_c, 0, 64, 48
2, 298411, Control_c, 0, 64, 57
2, 298429, Control_c, 0, 64, 61
2, 298451, Control_c, 0, 64, 62
2, 298470, Control_c, 0, 64, 63
2, 298487, Control_c, 0, 64, 64
2, 298507, Control_c, 0, 64, 67
2, 298527, Control_c, 0, 64, 70
2, 298546, Control_c, 0, 64, 79
2, 298563, Control_c, 0, 64, 92
2, 298584, Control_c, 0, 64, 127
2, 298622, Note_on_c, 0, 60, 50
2, 298622, Note_on_c, 0, 78, 74
2, 298716, Note_on_c, 0, 60, 0
2, 298722, Note_on_c, 0, 58, 0
2, 298769, Note_on_c, 0, 79, 0
2, 299024, Note_on_c, 0, 77, 75
2, 299026, Note_on_c, 0, 58, 49
2, 299031, Control_c, 0, 64, 103
2, 299031, Note_on_c, 0, 61, 48
2, 299047, Control_c, 0, 64, 90
2, 299063, Control_c, 0, 64, 81
2, 299082, Control_c, 0, 64, 74
2, 299102, Control_c, 0, 64, 68
2, 299111, Note_on_c, 0, 78, 0
2, 299123, Control_c, 0, 64, 65
2, 299143, Control_c, 0, 64, 63
2, 299162, Control_c, 0, 64, 61
2, 299179, Control_c, 0, 64, 60
2, 299197, Control_c, 0, 64, 58
2, 299219, Control_c, 0, 64, 57
2, 299237, Control_c, 0, 64, 55
2, 299274, Control_c, 0, 64, 54
2, 299292, Control_c, 0, 64, 53
2, 299331, Control_c, 0, 64, 52
2, 299373, Note_on_c, 0, 51, 0
2, 299414, Note_on_c, 0, 56, 46
2, 299446, Note_on_c, 0, 58, 0
2, 299602, Control_c, 0, 64, 53
2, 299677, Control_c, 0, 64, 52
2, 299810, Note_on_c, 0, 76, 63
2, 299815, Note_on_c, 0, 55, 41
2, 299852, Note_on_c, 0, 56, 0
2, 299903, Note_on_c, 0, 61, 0
2, 300147, Note_on_c, 0, 77, 0
2, 300198, Note_on_c, 0, 75, 60
2, 300203, Note_on_c, 0, 56, 43
2, 300246, Note_on_c, 0, 55, 0
2, 300354, Note_on_c, 0, 76, 0
2, 300484, Control_c, 0, 64, 53
2, 300603, Note_on_c, 0, 59, 54
2, 300773, Control_c, 0, 64, 54
2, 300791, Control_c, 0, 64, 55
2, 300812, Control_c, 0, 64, 57
2, 300829, Control_c, 0, 64, 59
2, 300848, Control_c, 0, 64, 61
2, 300868, Control_c, 0, 64, 62
2, 300886, Control_c, 0, 64, 64
2, 300907, Control_c, 0, 64, 65
2, 300926, Control_c, 0, 64, 66
2, 300944, Control_c, 0, 64, 67
2, 300962, Control_c, 0, 64, 68
2, 300983, Control_c, 0, 64, 69
2, 301002, Control_c, 0, 64, 70
2, 301006, Note_on_c, 0, 50, 50
2, 301019, Note_on_c, 0, 77, 77
2, 301021, Control_c, 0, 64, 71
2, 301026, Note_on_c, 0, 56, 0
2, 301041, Control_c, 0, 64, 73
2, 301061, Control_c, 0, 64, 74
2, 301079, Control_c, 0, 64, 76
2, 301099, Control_c, 0, 64, 77
2, 301107, Note_on_c, 0, 75, 0
2, 301117, Control_c, 0, 64, 79
2, 301139, Control_c, 0, 64, 82
2, 301159, Control_c, 0, 64, 86
2, 301175, Control_c, 0, 64, 92
2, 301196, Control_c, 0, 64, 98
2, 301217, Control_c, 0, 64, 105
2, 301235, Control_c, 0, 64, 112
2, 301252, Control_c, 0, 64, 116
2, 301311, Control_c, 0, 64, 112
2, 301330, Control_c, 0, 64, 106
2, 301347, Control_c, 0, 64, 98
2, 301367, Control_c, 0, 64, 90
2, 301390, Control_c, 0, 64, 83
2, 301408, Control_c, 0, 64, 77
2, 301408, Note_on_c, 0, 78, 74
2, 301410, Note_on_c, 0, 51, 66
2, 301426, Control_c, 0, 64, 71
2, 301433, Note_on_c, 0, 59, 0
2, 301444, Control_c, 0, 64, 65
2, 301463, Control_c, 0, 64, 62
2, 301466, Note_on_c, 0, 50, 0
2, 301481, Control_c, 0, 64, 60
2, 301502, Control_c, 0, 64, 59
2, 301523, Control_c, 0, 64, 58
2, 301543, Note_on_c, 0, 77, 0
2, 301559, Control_c, 0, 64, 57
2, 301579, Control_c, 0, 64, 55
2, 301618, Control_c, 0, 64, 57
2, 301636, Control_c, 0, 64, 59
2, 301658, Control_c, 0, 64, 62
2, 301678, Control_c, 0, 64, 64
2, 301694, Control_c, 0, 64, 66
2, 301714, Control_c, 0, 64, 69
2, 301732, Control_c, 0, 64, 75
2, 301752, Control_c, 0, 64, 82
2, 301770, Control_c, 0, 64, 92
2, 301791, Control_c, 0, 64, 106
2, 301795, Note_on_c, 0, 58, 74
2, 301810, Control_c, 0, 64, 127
2, 302167, Note_on_c, 0, 79, 79
2, 302176, Note_on_c, 0, 46, 62
2, 302221, Note_on_c, 0, 51, 0
2, 302257, Note_on_c, 0, 78, 0
2, 302540, Control_c, 0, 64, 122
2, 302557, Control_c, 0, 64, 93
2, 302561, Note_on_c, 0, 47, 63
2, 302566, Note_on_c, 0, 80, 82
2, 302577, Control_c, 0, 64, 80
2, 302599, Control_c, 0, 64, 71
2, 302619, Control_c, 0, 64, 66
2, 302636, Control_c, 0, 64, 64
2, 302654, Control_c, 0, 64, 63
2, 302674, Control_c, 0, 64, 62
2, 302685, Note_on_c, 0, 79, 0
2, 302693, Control_c, 0, 64, 61
2, 302697, Note_on_c, 0, 58, 0
2, 302714, Control_c, 0, 64, 59
2, 302732, Control_c, 0, 64, 56
2, 302732, Note_on_c, 0, 46, 0
2, 302750, Control_c, 0, 64, 52
2, 302769, Control_c, 0, 64, 50
2, 302787, Control_c, 0, 64, 48
2, 302807, Control_c, 0, 64, 46
2, 302827, Control_c, 0, 64, 43
2, 302847, Control_c, 0, 64, 41
2, 302865, Control_c, 0, 64, 40
2, 302886, Control_c, 0, 64, 42
2, 302906, Control_c, 0, 64, 49
2, 302922, Control_c, 0, 64, 57
2, 302941, Control_c, 0, 64, 62
2, 302959, Note_on_c, 0, 51, 58
2, 302964, Control_c, 0, 64, 65
2, 302982, Control_c, 0, 64, 68
2, 303001, Control_c, 0, 64, 73
2, 303018, Control_c, 0, 64, 84
2, 303039, Control_c, 0, 64, 109
2, 303059, Control_c, 0, 64, 127
2, 303288, Control_c, 0, 64, 103
2, 303306, Control_c, 0, 64, 91
2, 303326, Control_c, 0, 64, 80
2, 303347, Control_c, 0, 64, 70
2, 303362, Note_on_c, 0, 48, 57
2, 303366, Control_c, 0, 64, 63
2, 303366, Note_on_c, 0, 54, 53
2, 303371, Note_on_c, 0, 47, 0
2, 303383, Control_c, 0, 64, 61
2, 303405, Control_c, 0, 64, 62
2, 303415, Note_on_c, 0, 51, 0
2, 303424, Control_c, 0, 64, 64
2, 303440, Control_c, 0, 64, 67
2, 303460, Control_c, 0, 64, 76
2, 303480, Control_c, 0, 64, 104
2, 303489, Note_on_c, 0, 48, 0
2, 303500, Control_c, 0, 64, 127
2, 303729, Control_c, 0, 64, 111
2, 303742, Note_on_c, 0, 49, 68
2, 303749, Control_c, 0, 64, 90
2, 303767, Control_c, 0, 64, 77
2, 303786, Control_c, 0, 64, 67
2, 303805, Control_c, 0, 64, 62
2, 303824, Control_c, 0, 64, 60
2, 303902, Control_c, 0, 64, 61
2, 303906, Note_on_c, 0, 54, 0
2, 303922, Control_c, 0, 64, 62
2, 303940, Control_c, 0, 64, 64
2, 303958, Control_c, 0, 64, 67
2, 303979, Control_c, 0, 64, 74
2, 304000, Control_c, 0, 64, 91
2, 304016, Control_c, 0, 64, 127
2, 304130, Note_on_c, 0, 53, 62
2, 304186, Note_on_c, 0, 49, 0
2, 304476, Control_c, 0, 64, 104
2, 304498, Control_c, 0, 64, 83
2, 304517, Note_on_c, 0, 50, 61
2, 304517, Note_on_c, 0, 59, 68
2, 304519, Control_c, 0, 64, 71
2, 304534, Control_c, 0, 64, 65
2, 304554, Control_c, 0, 64, 61
2, 304575, Control_c, 0, 64, 59
2, 304579, Note_on_c, 0, 53, 0
2, 304593, Control_c, 0, 64, 60
2, 304614, Control_c, 0, 64, 62
2, 304632, Control_c, 0, 64, 65
2, 304651, Control_c, 0, 64, 72
2, 304672, Control_c, 0, 64, 89
2, 304692, Control_c, 0, 64, 127
2, 304705, Note_on_c, 0, 50, 0
2, 304910, Note_on_c, 0, 51, 68
2, 304910, Note_on_c, 0, 79, 81
2, 304920, Control_c, 0, 64, 107
2, 304938, Control_c, 0, 64, 89
2, 304958, Control_c, 0, 64, 77
2, 304976, Control_c, 0, 64, 69
2, 304996, Control_c, 0, 64, 65
2, 305001, Note_on_c, 0, 59, 0
2, 305019, Control_c, 0, 64, 62
2, 305035, Control_c, 0, 64, 61
2, 305044, Note_on_c, 0, 80, 0
2, 305055, Control_c, 0, 64, 60
2, 305092, Control_c, 0, 64, 59
2, 305110, Control_c, 0, 64, 60
2, 305131, Control_c, 0, 64, 61
2, 305149, Control_c, 0, 64, 64
2, 305170, Control_c, 0, 64, 70
2, 305189, Control_c, 0, 64, 80
2, 305208, Control_c, 0, 64, 104
2, 305226, Control_c, 0, 64, 127
2, 305295, Note_on_c, 0, 58, 67
2, 305414, Note_on_c, 0, 51, 0
2, 305482, Note_on_c, 0, 56, 68
2, 305487, Note_on_c, 0, 58, 0
2, 305649, Control_c, 0, 64, 93
2, 305669, Control_c, 0, 64, 75
2, 305687, Control_c, 0, 64, 65
2, 305696, Note_on_c, 0, 52, 64
2, 305696, Note_on_c, 0, 58, 67
2, 305707, Control_c, 0, 64, 60
2, 305714, Note_on_c, 0, 56, 0
2, 305729, Control_c, 0, 64, 59
2, 305745, Control_c, 0, 64, 60
2, 305763, Control_c, 0, 64, 61
2, 305784, Control_c, 0, 64, 64
2, 305803, Control_c, 0, 64, 68
2, 305821, Control_c, 0, 64, 77
2, 305841, Control_c, 0, 64, 127
2, 305867, Note_on_c, 0, 52, 0
2, 305872, Note_on_c, 0, 58, 0
2, 305876, Note_on_c, 0, 55, 69
2, 306034, Control_c, 0, 64, 106
2, 306051, Control_c, 0, 64, 84
2, 306072, Control_c, 0, 64, 71
2, 306084, Note_on_c, 0, 53, 57
2, 306084, Note_on_c, 0, 56, 70
2, 306091, Control_c, 0, 64, 64
2, 306112, Control_c, 0, 64, 60
2, 306131, Control_c, 0, 64, 58
2, 306135, Note_on_c, 0, 55, 0
2, 306150, Control_c, 0, 64, 57
2, 306167, Control_c, 0, 64, 55
2, 306186, Control_c, 0, 64, 51
2, 306204, Control_c, 0, 64, 44
2, 306225, Control_c, 0, 64, 33
2, 306244, Control_c, 0, 64, 17
2, 306265, Control_c, 0, 64, 0
2, 306359, Control_c, 0, 64, 31
2, 306378, Control_c, 0, 64, 50
2, 306399, Control_c, 0, 64, 64
2, 306417, Control_c, 0, 64, 71
2, 306437, Control_c, 0, 64, 84
2, 306457, Control_c, 0, 64, 110
2, 306470, Note_on_c, 0, 77, 77
2, 306474, Control_c, 0, 64, 127
2, 306496, Note_on_c, 0, 56, 0
2, 306596, Note_on_c, 0, 79, 0
2, 306841, Control_c, 0, 64, 105
2, 306856, Note_on_c, 0, 79, 78
2, 306859, Control_c, 0, 64, 84
2, 306872, Note_on_c, 0, 60, 52
2, 306879, Control_c, 0, 64, 74
2, 306898, Control_c, 0, 64, 69
2, 306916, Control_c, 0, 64, 66
2, 306940, Note_on_c, 0, 53, 0
2, 306957, Control_c, 0, 64, 65
2, 306994, Control_c, 0, 64, 64
2, 307011, Control_c, 0, 64, 63
2, 307224, Control_c, 0, 64, 62
2, 307226, Note_on_c, 0, 80, 79
2, 307235, Note_on_c, 0, 65, 50
2, 307245, Control_c, 0, 64, 61
2, 307261, Note_on_c, 0, 60, 0
2, 307263, Control_c, 0, 64, 60
2, 307280, Control_c, 0, 64, 61
2, 307291, Note_on_c, 0, 77, 0
2, 307299, Control_c, 0, 64, 62
2, 307321, Control_c, 0, 64, 63
2, 307339, Control_c, 0, 64, 66
2, 307358, Control_c, 0, 64, 71
2, 307376, Control_c, 0, 64, 80
2, 307397, Control_c, 0, 64, 93
2, 307415, Note_on_c, 0, 79, 0
2, 307419, Control_c, 0, 64, 127
2, 307605, Note_on_c, 0, 65, 0
2, 307610, Note_on_c, 0, 53, 58
2, 307627, Control_c, 0, 64, 120
2, 307646, Control_c, 0, 64, 84
2, 307664, Control_c, 0, 64, 75
2, 307705, Control_c, 0, 64, 82
2, 307723, Control_c, 0, 64, 106
2, 307742, Control_c, 0, 64, 127
2, 307747, Note_on_c, 0, 53, 0
2, 307935, Control_c, 0, 64, 122
2, 307951, Control_c, 0, 64, 91
2, 307973, Control_c, 0, 64, 89
2, 307985, Note_on_c, 0, 81, 76
2, 307994, Control_c, 0, 64, 102
2, 307994, Note_on_c, 0, 51, 59
2, 308011, Control_c, 0, 64, 127
2, 308069, Note_on_c, 0, 80, 0
2, 308076, Note_on_c, 0, 51, 0
2, 308336, Control_c, 0, 64, 90
2, 308355, Control_c, 0, 64, 77
2, 308376, Control_c, 0, 64, 70
2, 308380, Note_on_c, 0, 49, 54
2, 308384, Note_on_c, 0, 82, 73
2, 308395, Control_c, 0, 64, 66
2, 308413, Control_c, 0, 64, 64
2, 308433, Note_on_c, 0, 81, 0
2, 308435, Control_c, 0, 64, 62
2, 308452, Control_c, 0, 64, 60
2, 308472, Control_c, 0, 64, 58
2, 308492, Control_c, 0, 64, 57
2, 308510, Control_c, 0, 64, 56
2, 308587, Control_c, 0, 64, 58
2, 308606, Control_c, 0, 64, 61
2, 308626, Control_c, 0, 64, 64
2, 308645, Control_c, 0, 64, 67
2, 308664, Control_c, 0, 64, 72
2, 308681, Control_c, 0, 64, 79
2, 308702, Control_c, 0, 64, 92
2, 308721, Control_c, 0, 64, 127
2, 308741, Note_on_c, 0, 49, 0
2, 308760, Note_on_c, 0, 70, 60
2, 308774, Note_on_c, 0, 61, 50
2, 308931, Note_on_c, 0, 70, 0
2, 309135, Note_on_c, 0, 72, 52
2, 309146, Control_c, 0, 64, 111
2, 309158, Note_on_c, 0, 61, 0
2, 309165, Control_c, 0, 64, 94
2, 309165, Note_on_c, 0, 60, 48
2, 309181, Control_c, 0, 64, 86
2, 309203, Control_c, 0, 64, 82
2, 309222, Control_c, 0, 64, 81
2, 309240, Control_c, 0, 64, 80
2, 309259, Control_c, 0, 64, 78
2, 309276, Control_c, 0, 64, 75
2, 309298, Control_c, 0, 64, 72
2, 309356, Control_c, 0, 64, 71
2, 309374, Control_c, 0, 64, 69
2, 309393, Control_c, 0, 64, 67
2, 309412, Control_c, 0, 64, 66
2, 309509, Control_c, 0, 64, 65
2, 309522, Note_on_c, 0, 58, 42
2, 309522, Note_on_c, 0, 73, 57
2, 309541, Note_on_c, 0, 60, 0
2, 309556, Note_on_c, 0, 72, 0
2, 309568, Control_c, 0, 64, 64
2, 309604, Control_c, 0, 64, 63
2, 309682, Control_c, 0, 64, 62
2, 309916, Note_on_c, 0, 70, 48
2, 310141, Control_c, 0, 64, 61
2, 310297, Note_on_c, 0, 68, 45
2, 310309, Note_on_c, 0, 74, 52
2, 310340, Note_on_c, 0, 70, 0
2, 310348, Note_on_c, 0, 73, 0
2, 310694, Note_on_c, 0, 75, 55
2, 310696, Note_on_c, 0, 66, 49
2, 310706, Note_on_c, 0, 74, 0
2, 310748, Note_on_c, 0, 68, 0
2, 310851, Control_c, 0, 64, 60
2, 311057, Note_on_c, 0, 78, 75
2, 311060, Note_on_c, 0, 63, 57
2, 311110, Note_on_c, 0, 66, 0
2, 311140, Control_c, 0, 64, 59
2, 311218, Control_c, 0, 64, 60
2, 311276, Control_c, 0, 64, 59
2, 311436, Note_on_c, 0, 58, 0
2, 311438, Note_on_c, 0, 80, 72
2, 311440, Note_on_c, 0, 65, 58
2, 311527, Note_on_c, 0, 82, 0
2, 311554, Note_on_c, 0, 78, 0
2, 311581, Control_c, 0, 64, 60
2, 311596, Note_on_c, 0, 63, 0
2, 311659, Control_c, 0, 64, 59
2, 311841, Note_on_c, 0, 82, 73
2, 311846, Note_on_c, 0, 66, 49
2, 311870, Control_c, 0, 64, 60
2, 311888, Note_on_c, 0, 65, 0
2, 311892, Note_on_c, 0, 80, 0
2, 311897, Note_on_c, 0, 75, 0
2, 312159, Control_c, 0, 64, 59
2, 312231, Note_on_c, 0, 75, 43
2, 312273, Control_c, 0, 64, 58
2, 312330, Control_c, 0, 64, 57
2, 312388, Control_c, 0, 64, 56
2, 312522, Control_c, 0, 64, 57
2, 312542, Control_c, 0, 64, 58
2, 312560, Control_c, 0, 64, 60
2, 312582, Control_c, 0, 64, 62
2, 312599, Control_c, 0, 64, 63
2, 312609, Note_on_c, 0, 73, 52
2, 312617, Note_on_c, 0, 67, 40
2, 312622, Control_c, 0, 64, 64
2, 312637, Control_c, 0, 64, 66
2, 312659, Control_c, 0, 64, 68
2, 312663, Note_on_c, 0, 66, 0
2, 312676, Control_c, 0, 64, 72
2, 312687, Note_on_c, 0, 75, 0
2, 312694, Control_c, 0, 64, 76
2, 312714, Control_c, 0, 64, 80
2, 312734, Control_c, 0, 64, 83
2, 312752, Control_c, 0, 64, 85
2, 312771, Control_c, 0, 64, 86
2, 312810, Control_c, 0, 64, 84
2, 312830, Control_c, 0, 64, 78
2, 312850, Control_c, 0, 64, 72
2, 312869, Control_c, 0, 64, 66
2, 312888, Control_c, 0, 64, 62
2, 312905, Control_c, 0, 64, 59
2, 312926, Control_c, 0, 64, 57
2, 312964, Control_c, 0, 64, 58
2, 312984, Control_c, 0, 64, 61
2, 312988, Note_on_c, 0, 68, 49
2, 313003, Control_c, 0, 64, 64
2, 313003, Note_on_c, 0, 72, 50
2, 313022, Control_c, 0, 64, 67
2, 313029, Note_on_c, 0, 67, 0
2, 313044, Control_c, 0, 64, 72
2, 313062, Control_c, 0, 64, 81
2, 313062, Note_on_c, 0, 82, 0
2, 313078, Control_c, 0, 64, 98
2, 313100, Control_c, 0, 64, 127
2, 313109, Note_on_c, 0, 68, 0
2, 313387, Control_c, 0, 64, 101
2, 313394, Note_on_c, 0, 80, 69
2, 313396, Note_on_c, 0, 56, 53
2, 313404, Control_c, 0, 64, 87
2, 313426, Control_c, 0, 64, 75
2, 313444, Control_c, 0, 64, 69
2, 313464, Control_c, 0, 64, 66
2, 313484, Control_c, 0, 64, 65
2, 313500, Note_on_c, 0, 73, 0
2, 313753, Control_c, 0, 64, 64
2, 313773, Note_on_c, 0, 73, 53
2, 313782, Note_on_c, 0, 58, 43
2, 313792, Control_c, 0, 64, 63
2, 313958, Note_on_c, 0, 56, 0
2, 313963, Control_c, 0, 64, 62
2, 314149, Note_on_c, 0, 59, 48
2, 314149, Note_on_c, 0, 75, 56
2, 314254, Note_on_c, 0, 72, 0
2, 314297, Note_on_c, 0, 58, 0
2, 314443, Control_c, 0, 64, 61
2, 314534, Note_on_c, 0, 77, 66
2, 314631, Note_on_c, 0, 80, 0
2, 314692, Control_c, 0, 64, 60
2, 314769, Control_c, 0, 64, 59
2, 314787, Control_c, 0, 64, 58
2, 314809, Control_c, 0, 64, 57
2, 314897, Note_on_c, 0, 60, 41
2, 314906, Note_on_c, 0, 78, 64
2, 314923, Control_c, 0, 64, 58
2, 314928, Note_on_c, 0, 75, 0
2, 314941, Control_c, 0, 64, 60
2, 314944, Note_on_c, 0, 77, 0
2, 314953, Note_on_c, 0, 59, 0
2, 314960, Control_c, 0, 64, 62
2, 314982, Control_c, 0, 64, 64
2, 315000, Control_c, 0, 64, 66
2, 315018, Control_c, 0, 64, 68
2, 315039, Control_c, 0, 64, 71
2, 315061, Control_c, 0, 64, 74
2, 315077, Control_c, 0, 64, 81
2, 315094, Control_c, 0, 64, 88
2, 315115, Control_c, 0, 64, 94
2, 315137, Control_c, 0, 64, 96
2, 315172, Control_c, 0, 64, 92
2, 315192, Control_c, 0, 64, 85
2, 315212, Control_c, 0, 64, 73
2, 315229, Control_c, 0, 64, 65
2, 315249, Control_c, 0, 64, 60
2, 315267, Control_c, 0, 64, 57
2, 315288, Control_c, 0, 64, 55
2, 315306, Control_c, 0, 64, 54
2, 315308, Note_on_c, 0, 77, 63
2, 315311, Note_on_c, 0, 60, 0
2, 315311, Note_on_c, 0, 61, 39
2, 315345, Control_c, 0, 64, 55
2, 315363, Control_c, 0, 64, 58
2, 315368, Note_on_c, 0, 73, 0
2, 315384, Control_c, 0, 64, 61
2, 315401, Control_c, 0, 64, 64
2, 315422, Control_c, 0, 64, 67
2, 315440, Control_c, 0, 64, 72
2, 315459, Control_c, 0, 64, 77
2, 315479, Control_c, 0, 64, 85
2, 315498, Control_c, 0, 64, 93
2, 315519, Control_c, 0, 64, 101
2, 315519, Note_on_c, 0, 78, 0
2, 315539, Control_c, 0, 64, 115
2, 315556, Control_c, 0, 64, 127
2, 315688, Note_on_c, 0, 49, 50
2, 315692, Note_on_c, 0, 73, 52
2, 315733, Note_on_c, 0, 61, 0
2, 315750, Note_on_c, 0, 77, 0
2, 315998, Control_c, 0, 64, 116
2, 316018, Control_c, 0, 64, 104
2, 316035, Control_c, 0, 64, 95
2, 316056, Control_c, 0, 64, 89
2, 316064, Note_on_c, 0, 78, 73
2, 316074, Control_c, 0, 64, 85
2, 316078, Note_on_c, 0, 51, 52
2, 316093, Control_c, 0, 64, 82
2, 316113, Control_c, 0, 64, 80
2, 316131, Control_c, 0, 64, 77
2, 316153, Control_c, 0, 64, 74
2, 316171, Control_c, 0, 64, 72
2, 316189, Control_c, 0, 64, 71
2, 316209, Control_c, 0, 64, 70
2, 316282, Note_on_c, 0, 49, 0
2, 316286, Control_c, 0, 64, 69
2, 316324, Control_c, 0, 64, 68
2, 316381, Control_c, 0, 64, 67
2, 316401, Control_c, 0, 64, 66
2, 316439, Control_c, 0, 64, 65
2, 316456, Note_on_c, 0, 80, 76
2, 316465, Note_on_c, 0, 52, 48
2, 316496, Control_c, 0, 64, 64
2, 316529, Note_on_c, 0, 78, 0
2, 316536, Control_c, 0, 64, 63
2, 316572, Note_on_c, 0, 51, 0
2, 316630, Control_c, 0, 64, 62
2, 316728, Control_c, 0, 64, 61
2, 316833, Note_on_c, 0, 70, 57
2, 316863, Note_on_c, 0, 73, 0
2, 316939, Control_c, 0, 64, 60
2, 317035, Control_c, 0, 64, 59
2, 317072, Control_c, 0, 64, 58
2, 317151, Control_c, 0, 64, 57
2, 317201, Note_on_c, 0, 71, 48
2, 317208, Note_on_c, 0, 53, 41
2, 317227, Note_on_c, 0, 52, 0
2, 317240, Note_on_c, 0, 70, 0
2, 317324, Control_c, 0, 64, 58
2, 317417, Control_c, 0, 64, 59
2, 317439, Control_c, 0, 64, 60
2, 317459, Control_c, 0, 64, 61
2, 317477, Control_c, 0, 64, 62
2, 317579, Note_on_c, 0, 70, 46
2, 317595, Note_on_c, 0, 54, 42
2, 317600, Note_on_c, 0, 80, 0
2, 317606, Note_on_c, 0, 53, 0
2, 317610, Control_c, 0, 64, 61
2, 317744, Control_c, 0, 64, 62
2, 317956, Note_on_c, 0, 78, 65
2, 317969, Note_on_c, 0, 42, 40
2, 318012, Control_c, 0, 64, 61
2, 318021, Note_on_c, 0, 54, 0
2, 318030, Note_on_c, 0, 71, 0
2, 318263, Control_c, 0, 64, 62
2, 318348, Note_on_c, 0, 44, 43
2, 318348, Note_on_c, 0, 71, 42
2, 318380, Control_c, 0, 64, 61
2, 318464, Note_on_c, 0, 42, 0
2, 318739, Note_on_c, 0, 45, 42
2, 318745, Note_on_c, 0, 73, 61
2, 318834, Note_on_c, 0, 44, 0
2, 318964, Note_on_c, 0, 78, 0
2, 319121, Note_on_c, 0, 75, 61
2, 319489, Note_on_c, 0, 76, 59
2, 319501, Note_on_c, 0, 73, 0
2, 319506, Note_on_c, 0, 46, 40
2, 319554, Note_on_c, 0, 75, 0
2, 319563, Note_on_c, 0, 45, 0
2, 319663, Control_c, 0, 64, 60
2, 319894, Note_on_c, 0, 75, 59
2, 319908, Note_on_c, 0, 47, 34
2, 319937, Control_c, 0, 64, 59
2, 319953, Note_on_c, 0, 71, 0
2, 319991, Note_on_c, 0, 46, 0
2, 320059, Note_on_c, 0, 76, 0
2, 320087, Control_c, 0, 64, 58
2, 320164, Control_c, 0, 64, 57
2, 320200, Control_c, 0, 64, 56
2, 320223, Control_c, 0, 64, 55
2, 320260, Control_c, 0, 64, 56
2, 320281, Control_c, 0, 64, 57
2, 320281, Note_on_c, 0, 71, 49
2, 320299, Control_c, 0, 64, 60
2, 320317, Control_c, 0, 64, 62
2, 320332, Note_on_c, 0, 70, 0
2, 320338, Control_c, 0, 64, 64
2, 320357, Control_c, 0, 64, 66
2, 320377, Control_c, 0, 64, 69
2, 320393, Control_c, 0, 64, 73
2, 320415, Control_c, 0, 64, 78
2, 320433, Control_c, 0, 64, 82
2, 320454, Control_c, 0, 64, 84
2, 320491, Control_c, 0, 64, 83
2, 320510, Control_c, 0, 64, 82
2, 320547, Control_c, 0, 64, 81
2, 320586, Control_c, 0, 64, 79
2, 320606, Control_c, 0, 64, 77
2, 320626, Control_c, 0, 64, 75
2, 320644, Control_c, 0, 64, 73
2, 320657, Note_on_c, 0, 73, 55
2, 320665, Control_c, 0, 64, 70
2, 320679, Note_on_c, 0, 49, 45
2, 320684, Control_c, 0, 64, 68
2, 320684, Note_on_c, 0, 70, 43
2, 320703, Control_c, 0, 64, 67
2, 320726, Note_on_c, 0, 71, 0
2, 320741, Control_c, 0, 64, 66
2, 320778, Control_c, 0, 64, 65
2, 320798, Control_c, 0, 64, 64
2, 320821, Note_on_c, 0, 47, 0
2, 320836, Control_c, 0, 64, 63
2, 320877, Control_c, 0, 64, 62
2, 320897, Note_on_c, 0, 75, 0
2, 320911, Control_c, 0, 64, 61
2, 320930, Control_c, 0, 64, 60
2, 320950, Control_c, 0, 64, 59
2, 320970, Control_c, 0, 64, 57
2, 320988, Control_c, 0, 64, 53
2, 321007, Control_c, 0, 64, 48
2, 321028, Control_c, 0, 64, 42
2, 321048, Note_on_c, 0, 71, 60
2, 321052, Control_c, 0, 64, 37
2, 321052, Note_on_c, 0, 51, 48
2, 321065, Control_c, 0, 64, 36
2, 321082, Note_on_c, 0, 70, 0
2, 321086, Control_c, 0, 64, 37
2, 321104, Control_c, 0, 64, 41
2, 321114, Note_on_c, 0, 49, 0
2, 321126, Control_c, 0, 64, 49
2, 321137, Note_on_c, 0, 73, 0
2, 321146, Control_c, 0, 64, 57
2, 321162, Control_c, 0, 64, 60
2, 321180, Control_c, 0, 64, 62
2, 321200, Control_c, 0, 64, 63
2, 321220, Control_c, 0, 64, 64
2, 321258, Control_c, 0, 64, 65
2, 321278, Control_c, 0, 64, 66
2, 321316, Control_c, 0, 64, 67
2, 321436, Note_on_c, 0, 66, 46
2, 321450, Control_c, 0, 64, 69
2, 321469, Control_c, 0, 64, 71
2, 321473, Note_on_c, 0, 71, 0
2, 321489, Control_c, 0, 64, 74
2, 321508, Control_c, 0, 64, 78
2, 321530, Control_c, 0, 64, 83
2, 321549, Control_c, 0, 64, 88
2, 321565, Control_c, 0, 64, 91
2, 321587, Control_c, 0, 64, 93
2, 321604, Control_c, 0, 64, 94
2, 321622, Control_c, 0, 64, 95
2, 321664, Control_c, 0, 64, 96
2, 321719, Control_c, 0, 64, 95
2, 321739, Control_c, 0, 64, 94
2, 321757, Control_c, 0, 64, 92
2, 321775, Control_c, 0, 64, 90
2, 321797, Control_c, 0, 64, 87
2, 321797, Note_on_c, 0, 51, 0
2, 321814, Control_c, 0, 64, 84
2, 321818, Note_on_c, 0, 53, 41
2, 321832, Note_on_c, 0, 68, 55
2, 321836, Control_c, 0, 64, 81
2, 321852, Control_c, 0, 64, 78
2, 321871, Control_c, 0, 64, 76
2, 321891, Control_c, 0, 64, 74
2, 321913, Control_c, 0, 64, 72
2, 321929, Control_c, 0, 64, 71
2, 321950, Control_c, 0, 64, 69
2, 321970, Control_c, 0, 64, 68
2, 321990, Control_c, 0, 64, 67
2, 322008, Control_c, 0, 64, 66
2, 322026, Control_c, 0, 64, 65
2, 322063, Control_c, 0, 64, 64
2, 322124, Control_c, 0, 64, 63
2, 322140, Control_c, 0, 64, 62
2, 322160, Control_c, 0, 64, 61
2, 322180, Control_c, 0, 64, 59
2, 322199, Control_c, 0, 64, 57
2, 322222, Control_c, 0, 64, 55
2, 322222, Note_on_c, 0, 54, 46
2, 322222, Note_on_c, 0, 70, 64
2, 322237, Control_c, 0, 64, 51
2, 322255, Control_c, 0, 64, 49
2, 322279, Control_c, 0, 64, 47
2, 322279, Note_on_c, 0, 66, 0
2, 322296, Control_c, 0, 64, 46
2, 322334, Control_c, 0, 64, 48
2, 322345, Note_on_c, 0, 53, 0
2, 322354, Control_c, 0, 64, 51
2, 322358, Note_on_c, 0, 68, 0
2, 322372, Control_c, 0, 64, 56
2, 322393, Control_c, 0, 64, 59
2, 322411, Control_c, 0, 64, 61
2, 322429, Control_c, 0, 64, 63
2, 322449, Control_c, 0, 64, 64
2, 322468, Control_c, 0, 64, 66
2, 322489, Control_c, 0, 64, 67
2, 322507, Control_c, 0, 64, 70
2, 322524, Control_c, 0, 64, 74
2, 322545, Control_c, 0, 64, 78
2, 322565, Control_c, 0, 64, 82
2, 322583, Control_c, 0, 64, 87
2, 322604, Control_c, 0, 64, 93
2, 322609, Note_on_c, 0, 66, 51
2, 322613, Note_on_c, 0, 70, 0
2, 322622, Control_c, 0, 64, 97
2, 322640, Control_c, 0, 64, 104
2, 322660, Control_c, 0, 64, 112
2, 322681, Control_c, 0, 64, 127
2, 322929, Control_c, 0, 64, 113
2, 322947, Control_c, 0, 64, 104
2, 322967, Control_c, 0, 64, 97
2, 322984, Note_on_c, 0, 72, 59
2, 322986, Control_c, 0, 64, 90
2, 322995, Note_on_c, 0, 56, 42
2, 323008, Control_c, 0, 64, 83
2, 323027, Control_c, 0, 64, 76
2, 323045, Control_c, 0, 64, 71
2, 323058, Note_on_c, 0, 54, 0
2, 323063, Control_c, 0, 64, 67
2, 323082, Control_c, 0, 64, 66
2, 323100, Control_c, 0, 64, 65
2, 323140, Control_c, 0, 64, 64
2, 323178, Control_c, 0, 64, 63
2, 323196, Control_c, 0, 64, 62
2, 323256, Control_c, 0, 64, 61
2, 323294, Control_c, 0, 64, 60
2, 323314, Control_c, 0, 64, 59
2, 323331, Control_c, 0, 64, 58
2, 323350, Control_c, 0, 64, 57
2, 323359, Note_on_c, 0, 73, 65
2, 323372, Note_on_c, 0, 58, 43
2, 323414, Control_c, 0, 64, 56
2, 323414, Note_on_c, 0, 56, 0
2, 323467, Control_c, 0, 64, 55
2, 323489, Note_on_c, 0, 72, 0
2, 323534, Note_on_c, 0, 75, 66
2, 323641, Control_c, 0, 64, 56
2, 323709, Note_on_c, 0, 73, 0
2, 323731, Note_on_c, 0, 76, 75
2, 323769, Note_on_c, 0, 75, 0
2, 324023, Control_c, 0, 64, 55
2, 324109, Note_on_c, 0, 58, 0
2, 324116, Note_on_c, 0, 75, 61
2, 324139, Note_on_c, 0, 60, 37
2, 324158, Control_c, 0, 64, 54
2, 324166, Note_on_c, 0, 76, 0
2, 324179, Control_c, 0, 64, 53
2, 324189, Note_on_c, 0, 66, 0
2, 324215, Control_c, 0, 64, 52
2, 324237, Control_c, 0, 64, 51
2, 324272, Control_c, 0, 64, 50
2, 324291, Control_c, 0, 64, 49
2, 324314, Control_c, 0, 64, 48
2, 324330, Control_c, 0, 64, 47
2, 324349, Control_c, 0, 64, 45
2, 324368, Control_c, 0, 64, 44
2, 324388, Control_c, 0, 64, 43
2, 324407, Control_c, 0, 64, 42
2, 324425, Control_c, 0, 64, 41
2, 324483, Control_c, 0, 64, 42
2, 324503, Control_c, 0, 64, 45
2, 324520, Note_on_c, 0, 61, 40
2, 324524, Control_c, 0, 64, 49
2, 324524, Note_on_c, 0, 68, 49
2, 324543, Control_c, 0, 64, 52
2, 324561, Control_c, 0, 64, 55
2, 324574, Note_on_c, 0, 60, 0
2, 324580, Control_c, 0, 64, 59
2, 324597, Control_c, 0, 64, 63
2, 324621, Control_c, 0, 64, 66
2, 324640, Control_c, 0, 64, 70
2, 324640, Note_on_c, 0, 61, 0
2, 324656, Control_c, 0, 64, 76
2, 324676, Control_c, 0, 64, 83
2, 324680, Note_on_c, 0, 75, 0
2, 324697, Control_c, 0, 64, 89
2, 324717, Control_c, 0, 64, 93
2, 324735, Control_c, 0, 64, 95
2, 324753, Control_c, 0, 64, 97
2, 324809, Control_c, 0, 64, 95
2, 324829, Control_c, 0, 64, 93
2, 324848, Control_c, 0, 64, 89
2, 324868, Control_c, 0, 64, 86
2, 324887, Control_c, 0, 64, 84
2, 324903, Note_on_c, 0, 49, 46
2, 324908, Control_c, 0, 64, 81
2, 324912, Note_on_c, 0, 65, 49
2, 324926, Control_c, 0, 64, 78
2, 324943, Control_c, 0, 64, 74
2, 324961, Note_on_c, 0, 68, 0
2, 324963, Control_c, 0, 64, 72
2, 325001, Control_c, 0, 64, 73
2, 325023, Control_c, 0, 64, 77
2, 325040, Control_c, 0, 64, 83
2, 325060, Control_c, 0, 64, 93
2, 325078, Control_c, 0, 64, 101
2, 325099, Control_c, 0, 64, 102
2, 325175, Control_c, 0, 64, 101
2, 325264, Note_on_c, 0, 67, 62
2, 325270, Control_c, 0, 64, 100
2, 325277, Note_on_c, 0, 51, 51
2, 325311, Control_c, 0, 64, 98
2, 325331, Control_c, 0, 64, 97
2, 325347, Control_c, 0, 64, 96
2, 325385, Control_c, 0, 64, 95
2, 325390, Note_on_c, 0, 65, 0
2, 325405, Control_c, 0, 64, 94
2, 325422, Note_on_c, 0, 49, 0
2, 325426, Control_c, 0, 64, 93
2, 325481, Control_c, 0, 64, 92
2, 325540, Control_c, 0, 64, 90
2, 325559, Control_c, 0, 64, 89
2, 325581, Control_c, 0, 64, 87
2, 325597, Control_c, 0, 64, 86
2, 325618, Control_c, 0, 64, 84
2, 325629, Note_on_c, 0, 73, 73
2, 325638, Control_c, 0, 64, 82
2, 325638, Note_on_c, 0, 53, 49
2, 325643, Note_on_c, 0, 68, 54
2, 325648, Note_on_c, 0, 67, 0
2, 325655, Control_c, 0, 64, 81
2, 325677, Control_c, 0, 64, 78
2, 325694, Control_c, 0, 64, 75
2, 325711, Control_c, 0, 64, 72
2, 325734, Control_c, 0, 64, 70
2, 325753, Control_c, 0, 64, 67
2, 325770, Control_c, 0, 64, 65
2, 325783, Note_on_c, 0, 51, 0
2, 325788, Control_c, 0, 64, 64
2, 325817, Note_on_c, 0, 70, 62
2, 325847, Control_c, 0, 64, 63
2, 325867, Control_c, 0, 64, 62
2, 325900, Note_on_c, 0, 68, 0
2, 326016, Note_on_c, 0, 70, 0
2, 326027, Note_on_c, 0, 71, 61
2, 326096, Control_c, 0, 64, 61
2, 326367, Control_c, 0, 64, 60
2, 326406, Note_on_c, 0, 71, 0
2, 326422, Note_on_c, 0, 70, 55
2, 326438, Note_on_c, 0, 55, 46
2, 326458, Note_on_c, 0, 53, 0
2, 326519, Control_c, 0, 64, 61
2, 326805, Note_on_c, 0, 56, 59
2, 326814, Note_on_c, 0, 63, 60
2, 326830, Note_on_c, 0, 70, 0
2, 326865, Note_on_c, 0, 55, 0
2, 326931, Note_on_c, 0, 73, 0
2, 327078, Control_c, 0, 64, 62
2, 327182, Note_on_c, 0, 71, 65
2, 327478, Control_c, 0, 64, 63
2, 327552, Note_on_c, 0, 58, 59
2, 327557, Control_c, 0, 64, 64
2, 327570, Note_on_c, 0, 73, 68
2, 327575, Control_c, 0, 64, 65
2, 327594, Control_c, 0, 64, 67
2, 327614, Control_c, 0, 64, 69
2, 327636, Control_c, 0, 64, 71
2, 327636, Note_on_c, 0, 56, 0
2, 327642, Note_on_c, 0, 63, 0
2, 327653, Control_c, 0, 64, 74
2, 327671, Note_on_c, 0, 71, 0
2, 327675, Control_c, 0, 64, 77
2, 327691, Control_c, 0, 64, 80
2, 327710, Control_c, 0, 64, 83
2, 327731, Control_c, 0, 64, 85
2, 327746, Control_c, 0, 64, 87
2, 327785, Control_c, 0, 64, 88
2, 327863, Control_c, 0, 64, 87
2, 327885, Control_c, 0, 64, 85
2, 327900, Control_c, 0, 64, 82
2, 327922, Control_c, 0, 64, 78
2, 327939, Control_c, 0, 64, 73
2, 327953, Note_on_c, 0, 59, 62
2, 327960, Note_on_c, 0, 75, 64
2, 327964, Control_c, 0, 64, 68
2, 327969, Note_on_c, 0, 68, 56
2, 327977, Control_c, 0, 64, 65
2, 327981, Note_on_c, 0, 73, 0
2, 327997, Control_c, 0, 64, 63
2, 328018, Control_c, 0, 64, 62
2, 328027, Note_on_c, 0, 58, 0
2, 328077, Control_c, 0, 64, 61
2, 328092, Control_c, 0, 64, 60
2, 328123, Note_on_c, 0, 59, 0
2, 328132, Note_on_c, 0, 61, 61
2, 328132, Note_on_c, 0, 73, 69
2, 328194, Note_on_c, 0, 75, 0
2, 328227, Control_c, 0, 64, 61
2, 328326, Note_on_c, 0, 63, 68
2, 328338, Note_on_c, 0, 71, 68
2, 328369, Note_on_c, 0, 61, 0
2, 328380, Note_on_c, 0, 73, 0
2, 328516, Note_on_c, 0, 68, 0
2, 328525, Note_on_c, 0, 70, 62
2, 328545, Note_on_c, 0, 71, 0
2, 328716, Note_on_c, 0, 61, 57
2, 328725, Note_on_c, 0, 71, 53
2, 328727, Control_c, 0, 64, 60
2, 328766, Note_on_c, 0, 63, 0
2, 328798, Note_on_c, 0, 70, 0
2, 328910, Note_on_c, 0, 76, 74
2, 328979, Control_c, 0, 64, 59
2, 328997, Control_c, 0, 64, 58
2, 329015, Control_c, 0, 64, 57
2, 329034, Control_c, 0, 64, 56
2, 329054, Control_c, 0, 64, 54
2, 329072, Control_c, 0, 64, 53
2, 329093, Control_c, 0, 64, 51
2, 329101, Note_on_c, 0, 71, 0
2, 329108, Note_on_c, 0, 70, 68
2, 329112, Control_c, 0, 64, 48
2, 329129, Control_c, 0, 64, 45
2, 329133, Note_on_c, 0, 63, 64
2, 329149, Control_c, 0, 64, 42
2, 329168, Control_c, 0, 64, 37
2, 329175, Note_on_c, 0, 61, 0
2, 329188, Control_c, 0, 64, 30
2, 329206, Control_c, 0, 64, 22
2, 329226, Control_c, 0, 64, 13
2, 329244, Control_c, 0, 64, 0
2, 329360, Control_c, 0, 64, 14
2, 329381, Control_c, 0, 64, 27
2, 329402, Control_c, 0, 64, 33
2, 329456, Control_c, 0, 64, 36
2, 329476, Control_c, 0, 64, 44
2, 329495, Control_c, 0, 64, 54
2, 329508, Note_on_c, 0, 67, 62
2, 329515, Control_c, 0, 64, 58
2, 329533, Control_c, 0, 64, 57
2, 329572, Control_c, 0, 64, 59
2, 329590, Control_c, 0, 64, 62
2, 329610, Control_c, 0, 64, 65
2, 329630, Control_c, 0, 64, 69
2, 329647, Control_c, 0, 64, 74
2, 329668, Control_c, 0, 64, 85
2, 329687, Control_c, 0, 64, 103
2, 329689, Note_on_c, 0, 67, 0
2, 329707, Control_c, 0, 64, 127
2, 329732, Note_on_c, 0, 70, 0
2, 329797, Note_on_c, 0, 76, 0
2, 329906, Note_on_c, 0, 75, 65
2, 330146, Control_c, 0, 64, 118
2, 330166, Control_c, 0, 64, 106
2, 330188, Control_c, 0, 64, 98
2, 330204, Control_c, 0, 64, 92
2, 330224, Control_c, 0, 64, 87
2, 330245, Control_c, 0, 64, 82
2, 330266, Control_c, 0, 64, 78
2, 330282, Control_c, 0, 64, 75
2, 330288, Note_on_c, 0, 76, 66
2, 330300, Control_c, 0, 64, 73
2, 330320, Control_c, 0, 64, 72
2, 330358, Control_c, 0, 64, 71
2, 330378, Control_c, 0, 64, 69
2, 330398, Control_c, 0, 64, 67
2, 330418, Control_c, 0, 64, 66
2, 330435, Control_c, 0, 64, 64
2, 330493, Control_c, 0, 64, 63
2, 330510, Control_c, 0, 64, 62
2, 330649, Control_c, 0, 64, 61
2, 330656, Note_on_c, 0, 73, 56
2, 330764, Note_on_c, 0, 75, 0
2, 330783, Control_c, 0, 64, 62
2, 331054, Note_on_c, 0, 82, 65
2, 331142, Note_on_c, 0, 76, 0
2, 331433, Note_on_c, 0, 75, 63
2, 331567, Note_on_c, 0, 82, 0
2, 331815, Note_on_c, 0, 71, 42
2, 331886, Note_on_c, 0, 73, 0
2, 332164, Note_on_c, 0, 80, 59
2, 332546, Note_on_c, 0, 73, 52
2, 332567, Note_on_c, 0, 75, 0
2, 332917, Note_on_c, 0, 70, 42
2, 333049, Note_on_c, 0, 71, 0
2, 333101, Note_on_c, 0, 76, 57
2, 333155, Note_on_c, 0, 73, 0
2, 333264, Note_on_c, 0, 80, 0
2, 333306, Note_on_c, 0, 75, 58
2, 333440, Note_on_c, 0, 76, 0
2, 333488, Note_on_c, 0, 73, 54
2, 333524, Note_on_c, 0, 75, 0
2, 333697, Note_on_c, 0, 71, 53
2, 333722, Note_on_c, 0, 73, 0
2, 334025, Control_c, 0, 64, 63
2, 334064, Note_on_c, 0, 68, 48
2, 334149, Note_on_c, 0, 70, 0
2, 334158, Note_on_c, 0, 63, 0
2, 334233, Note_on_c, 0, 68, 0
2, 334251, Note_on_c, 0, 66, 53
2, 334383, Note_on_c, 0, 66, 0
2, 334442, Note_on_c, 0, 64, 57
2, 334629, Note_on_c, 0, 63, 57
2, 334643, Control_c, 0, 64, 62
2, 334652, Note_on_c, 0, 64, 0
2, 334836, Note_on_c, 0, 61, 47
2, 334922, Note_on_c, 0, 63, 0
2, 335006, Control_c, 0, 64, 61
2, 335221, Note_on_c, 0, 70, 51
2, 335296, Note_on_c, 0, 71, 0
2, 335423, Note_on_c, 0, 68, 50
2, 335492, Note_on_c, 0, 70, 0
2, 335604, Note_on_c, 0, 67, 41
2, 335617, Note_on_c, 0, 68, 0
2, 335696, Control_c, 0, 64, 60
2, 335771, Control_c, 0, 64, 59
2, 335803, Note_on_c, 0, 65, 43
2, 335829, Control_c, 0, 64, 58
2, 335841, Note_on_c, 0, 67, 0
2, 335871, Control_c, 0, 64, 57
2, 335889, Control_c, 0, 64, 55
2, 335908, Control_c, 0, 64, 53
2, 335929, Control_c, 0, 64, 51
2, 335929, Note_on_c, 0, 65, 0
2, 335946, Control_c, 0, 64, 48
2, 335986, Control_c, 0, 64, 49
2, 336004, Control_c, 0, 64, 51
2, 336019, Note_on_c, 0, 63, 48
2, 336024, Control_c, 0, 64, 52
2, 336043, Control_c, 0, 64, 53
2, 336062, Control_c, 0, 64, 54
2, 336082, Control_c, 0, 64, 57
2, 336099, Control_c, 0, 64, 61
2, 336117, Control_c, 0, 64, 64
2, 336136, Control_c, 0, 64, 66
2, 336158, Control_c, 0, 64, 68
2, 336177, Control_c, 0, 64, 71
2, 336194, Control_c, 0, 64, 75
2, 336214, Control_c, 0, 64, 82
2, 336235, Control_c, 0, 64, 92
2, 336252, Control_c, 0, 64, 107
2, 336272, Control_c, 0, 64, 127
2, 336340, Note_on_c, 0, 63, 0
2, 336356, Note_on_c, 0, 61, 0
2, 336373, Note_on_c, 0, 75, 57
2, 336767, Note_on_c, 0, 68, 60
2, 336771, Control_c, 0, 64, 112
2, 336782, Note_on_c, 0, 59, 50
2, 336793, Control_c, 0, 64, 99
2, 336811, Control_c, 0, 64, 93
2, 336829, Control_c, 0, 64, 90
2, 336847, Control_c, 0, 64, 87
2, 336868, Control_c, 0, 64, 83
2, 336888, Control_c, 0, 64, 79
2, 336906, Control_c, 0, 64, 76
2, 336925, Control_c, 0, 64, 74
2, 336944, Control_c, 0, 64, 73
2, 336982, Control_c, 0, 64, 72
2, 337001, Control_c, 0, 64, 71
2, 337022, Control_c, 0, 64, 70
2, 337040, Control_c, 0, 64, 69
2, 337077, Control_c, 0, 64, 68
2, 337096, Control_c, 0, 64, 67
2, 337116, Control_c, 0, 64, 66
2, 337134, Control_c, 0, 64, 64
2, 337155, Control_c, 0, 64, 63
2, 337163, Note_on_c, 0, 58, 51
2, 337175, Control_c, 0, 64, 62
2, 337213, Control_c, 0, 64, 61
2, 337223, Note_on_c, 0, 59, 0
2, 337252, Control_c, 0, 64, 60
2, 337270, Control_c, 0, 64, 58
2, 337289, Control_c, 0, 64, 57
2, 337309, Control_c, 0, 64, 55
2, 337330, Control_c, 0, 64, 54
2, 337349, Control_c, 0, 64, 52
2, 337349, Note_on_c, 0, 56, 53
2, 337353, Note_on_c, 0, 58, 0
2, 337366, Control_c, 0, 64, 50
2, 337385, Control_c, 0, 64, 47
2, 337407, Control_c, 0, 64, 42
2, 337423, Control_c, 0, 64, 35
2, 337443, Control_c, 0, 64, 25
2, 337464, Control_c, 0, 64, 9
2, 337482, Control_c, 0, 64, 0
2, 337541, Note_on_c, 0, 58, 55
2, 337546, Note_on_c, 0, 67, 49
2, 337568, Note_on_c, 0, 56, 0
2, 337712, Control_c, 0, 64, 12
2, 337730, Control_c, 0, 64, 33
2, 337750, Control_c, 0, 64, 39
2, 337771, Control_c, 0, 64, 42
2, 337788, Control_c, 0, 64, 43
2, 337808, Control_c, 0, 64, 46
2, 337828, Control_c, 0, 64, 50
2, 337846, Control_c, 0, 64, 55
2, 337865, Control_c, 0, 64, 59
2, 337885, Control_c, 0, 64, 60
2, 337920, Note_on_c, 0, 51, 49
2, 337926, Control_c, 0, 64, 61
2, 337926, Note_on_c, 0, 73, 57
2, 337942, Control_c, 0, 64, 63
2, 337960, Control_c, 0, 64, 65
2, 337973, Note_on_c, 0, 68, 0
2, 337982, Control_c, 0, 64, 68
2, 337995, Note_on_c, 0, 58, 0
2, 337999, Control_c, 0, 64, 76
2, 338019, Control_c, 0, 64, 91
2, 338024, Note_on_c, 0, 67, 0
2, 338040, Control_c, 0, 64, 127
2, 338048, Note_on_c, 0, 51, 0
2, 338211, Note_on_c, 0, 75, 0
2, 338354, Note_on_c, 0, 56, 51
2, 338368, Control_c, 0, 64, 99
2, 338377, Note_on_c, 0, 44, 54
2, 338377, Note_on_c, 0, 71, 60
2, 338383, Control_c, 0, 64, 85
2, 338403, Control_c, 0, 64, 76
2, 338422, Control_c, 0, 64, 70
2, 338443, Control_c, 0, 64, 67
2, 338460, Control_c, 0, 64, 64
2, 338481, Control_c, 0, 64, 63
2, 338481, Note_on_c, 0, 73, 0
2, 338498, Control_c, 0, 64, 61
2, 338537, Control_c, 0, 64, 60
2, 338576, Control_c, 0, 64, 59
2, 338595, Control_c, 0, 64, 58
2, 338729, Control_c, 0, 64, 59
2, 338773, Note_on_c, 0, 46, 59
2, 338961, Note_on_c, 0, 44, 0
2, 339056, Control_c, 0, 64, 60
2, 339154, Note_on_c, 0, 47, 57
2, 339160, Note_on_c, 0, 68, 49
2, 339212, Note_on_c, 0, 46, 0
2, 339285, Control_c, 0, 64, 61
2, 339441, Control_c, 0, 64, 62
2, 339477, Control_c, 0, 64, 63
2, 339550, Note_on_c, 0, 46, 57
2, 339558, Control_c, 0, 64, 64
2, 339576, Control_c, 0, 64, 65
2, 339576, Note_on_c, 0, 56, 0
2, 339581, Note_on_c, 0, 67, 38
2, 339595, Control_c, 0, 64, 64
2, 339618, Note_on_c, 0, 68, 0
2, 339621, Note_on_c, 0, 47, 0
2, 339747, Control_c, 0, 64, 63
2, 339948, Note_on_c, 0, 51, 58
2, 339978, Note_on_c, 0, 46, 0
2, 340113, Control_c, 0, 64, 62
2, 340339, Note_on_c, 0, 39, 51
2, 340339, Note_on_c, 0, 66, 44
2, 340401, Note_on_c, 0, 67, 0
2, 340412, Note_on_c, 0, 51, 0
2, 340720, Note_on_c, 0, 44, 54
2, 340727, Note_on_c, 0, 65, 45
2, 340776, Note_on_c, 0, 66, 0
2, 340851, Note_on_c, 0, 39, 0
2, 341120, Note_on_c, 0, 47, 53
2, 341206, Note_on_c, 0, 44, 0
2, 341504, Note_on_c, 0, 46, 54
2, 341504, Note_on_c, 0, 64, 49
2, 341517, Note_on_c, 0, 65, 0
2, 341533, Note_on_c, 0, 47, 0
2, 341891, Note_on_c, 0, 63, 47
2, 341896, Note_on_c, 0, 47, 47
2, 341947, Note_on_c, 0, 46, 0
2, 342011, Note_on_c, 0, 64, 0
2, 342271, Note_on_c, 0, 46, 54
2, 342326, Note_on_c, 0, 47, 0
2, 342666, Note_on_c, 0, 44, 49
2, 342679, Note_on_c, 0, 65, 43
2, 342701, Note_on_c, 0, 46, 0
2, 342707, Note_on_c, 0, 63, 0
2, 342973, Control_c, 0, 64, 61
2, 343061, Note_on_c, 0, 46, 55
2, 343073, Note_on_c, 0, 66, 52
2, 343204, Note_on_c, 0, 44, 0
2, 343246, Note_on_c, 0, 65, 0
2, 343440, Note_on_c, 0, 47, 59
2, 343514, Note_on_c, 0, 46, 0
2, 343841, Note_on_c, 0, 49, 59
2, 343841, Note_on_c, 0, 67, 46
2, 343902, Note_on_c, 0, 47, 0
2, 343939, Note_on_c, 0, 66, 0
2, 344164, Control_c, 0, 64, 60
2, 344237, Note_on_c, 0, 47, 49
2, 344263, Note_on_c, 0, 68, 52
2, 344351, Note_on_c, 0, 49, 0
2, 344379, Note_on_c, 0, 67, 0
2, 344566, Control_c, 0, 64, 59
2, 344624, Control_c, 0, 64, 60
2, 344637, Note_on_c, 0, 52, 49
2, 344644, Control_c, 0, 64, 59
2, 345031, Note_on_c, 0, 44, 47
2, 345079, Note_on_c, 0, 47, 0
2, 345083, Note_on_c, 0, 52, 0
2, 345427, Note_on_c, 0, 46, 48
2, 345570, Note_on_c, 0, 44, 0
2, 345680, Control_c, 0, 64, 60
2, 345793, Note_on_c, 0, 49, 46
2, 345857, Note_on_c, 0, 46, 0
2, 346198, Note_on_c, 0, 47, 45
2, 346247, Note_on_c, 0, 49, 0
2, 346589, Note_on_c, 0, 49, 44
2, 346591, Note_on_c, 0, 67, 44
2, 346600, Note_on_c, 0, 47, 0
2, 346624, Note_on_c, 0, 68, 0
2, 346962, Note_on_c, 0, 47, 45
2, 347014, Note_on_c, 0, 71, 0
2, 347078, Note_on_c, 0, 49, 0
2, 347340, Note_on_c, 0, 47, 0
2, 347358, Note_on_c, 0, 46, 45
2, 347754, Note_on_c, 0, 47, 41
2, 347768, Note_on_c, 0, 68, 48
2, 347810, Note_on_c, 0, 46, 0
2, 347834, Note_on_c, 0, 67, 0
2, 348151, Note_on_c, 0, 51, 54
2, 348151, Note_on_c, 0, 71, 58
2, 348183, Note_on_c, 0, 68, 0
2, 348346, Note_on_c, 0, 47, 0
2, 348539, Note_on_c, 0, 56, 55
2, 348539, Note_on_c, 0, 63, 57
2, 348589, Note_on_c, 0, 71, 0
2, 348629, Note_on_c, 0, 51, 0
2, 348917, Note_on_c, 0, 64, 58
2, 348967, Note_on_c, 0, 63, 0
2, 349058, Control_c, 0, 64, 59
2, 349294, Note_on_c, 0, 55, 50
2, 349307, Note_on_c, 0, 56, 0
2, 349321, Note_on_c, 0, 63, 45
2, 349394, Note_on_c, 0, 64, 0
2, 349471, Note_on_c, 0, 55, 0
2, 349485, Note_on_c, 0, 53, 48
2, 349520, Control_c, 0, 64, 58
2, 349538, Control_c, 0, 64, 57
2, 349558, Control_c, 0, 64, 54
2, 349577, Control_c, 0, 64, 52
2, 349595, Control_c, 0, 64, 51
2, 349615, Control_c, 0, 64, 52
2, 349634, Control_c, 0, 64, 56
2, 349653, Control_c, 0, 64, 58
2, 349672, Control_c, 0, 64, 60
2, 349697, Control_c, 0, 64, 62
2, 349697, Note_on_c, 0, 55, 42
2, 349697, Note_on_c, 0, 61, 47
2, 349714, Control_c, 0, 64, 63
2, 349730, Control_c, 0, 64, 65
2, 349739, Note_on_c, 0, 53, 0
2, 349748, Control_c, 0, 64, 68
2, 349748, Note_on_c, 0, 63, 0
2, 349771, Control_c, 0, 64, 74
2, 349788, Control_c, 0, 64, 84
2, 349800, Note_on_c, 0, 55, 0
2, 349807, Control_c, 0, 64, 104
2, 349828, Control_c, 0, 64, 127
2, 349981, Control_c, 0, 64, 104
2, 350000, Control_c, 0, 64, 91
2, 350018, Control_c, 0, 64, 83
2, 350038, Control_c, 0, 64, 76
2, 350038, Note_on_c, 0, 61, 0
2, 350056, Control_c, 0, 64, 72
2, 350069, Note_on_c, 0, 56, 65
2, 350078, Control_c, 0, 64, 69
2, 350082, Note_on_c, 0, 59, 58
2, 350098, Control_c, 0, 64, 68
2, 350116, Control_c, 0, 64, 67
2, 350153, Control_c, 0, 64, 66
2, 350171, Control_c, 0, 64, 64
2, 350210, Control_c, 0, 64, 63
2, 350231, Control_c, 0, 64, 62
2, 350252, Control_c, 0, 64, 61
2, 350252, Note_on_c, 0, 63, 45
2, 350298, Note_on_c, 0, 59, 0
2, 350309, Control_c, 0, 64, 60
2, 350459, Note_on_c, 0, 59, 61
2, 350470, Note_on_c, 0, 68, 64
2, 350518, Note_on_c, 0, 63, 0
2, 350557, Control_c, 0, 64, 59
2, 350561, Note_on_c, 0, 56, 0
2, 350672, Control_c, 0, 64, 60
2, 350712, Control_c, 0, 64, 59
2, 350859, Note_on_c, 0, 63, 65
2, 350859, Note_on_c, 0, 66, 61
2, 350935, Note_on_c, 0, 59, 0
2, 350961, Note_on_c, 0, 68, 0
2, 350998, Control_c, 0, 64, 58
2, 351113, Control_c, 0, 64, 57
2, 351154, Control_c, 0, 64, 56
2, 351210, Control_c, 0, 64, 55
2, 351249, Control_c, 0, 64, 54
2, 351249, Note_on_c, 0, 65, 60
2, 351268, Control_c, 0, 64, 53
2, 351268, Note_on_c, 0, 66, 0
2, 351287, Control_c, 0, 64, 52
2, 351325, Control_c, 0, 64, 51
2, 351343, Control_c, 0, 64, 49
2, 351365, Control_c, 0, 64, 47
2, 351382, Control_c, 0, 64, 44
2, 351400, Control_c, 0, 64, 40
2, 351419, Control_c, 0, 64, 36
2, 351439, Control_c, 0, 64, 33
2, 351459, Control_c, 0, 64, 29
2, 351477, Control_c, 0, 64, 25
2, 351496, Control_c, 0, 64, 22
2, 351518, Control_c, 0, 64, 20
2, 351534, Control_c, 0, 64, 19
2, 351575, Control_c, 0, 64, 18
2, 351630, Control_c, 0, 64, 27
2, 351646, Note_on_c, 0, 70, 61
2, 351651, Note_on_c, 0, 62, 55
2, 351653, Control_c, 0, 64, 40
2, 351674, Control_c, 0, 64, 54
2, 351684, Note_on_c, 0, 63, 0
2, 351692, Control_c, 0, 64, 62
2, 351708, Control_c, 0, 64, 65
2, 351729, Control_c, 0, 64, 67
2, 351747, Control_c, 0, 64, 71
2, 351758, Note_on_c, 0, 65, 0
2, 351767, Control_c, 0, 64, 77
2, 351785, Control_c, 0, 64, 89
2, 351804, Control_c, 0, 64, 116
2, 351822, Control_c, 0, 64, 127
2, 351834, Note_on_c, 0, 62, 0
2, 351838, Note_on_c, 0, 60, 52
2, 351851, Note_on_c, 0, 70, 0
2, 351997, Control_c, 0, 64, 105
2, 352015, Control_c, 0, 64, 86
2, 352035, Control_c, 0, 64, 74
2, 352039, Note_on_c, 0, 68, 67
2, 352051, Note_on_c, 0, 62, 55
2, 352053, Control_c, 0, 64, 67
2, 352068, Note_on_c, 0, 60, 0
2, 352075, Control_c, 0, 64, 62
2, 352095, Control_c, 0, 64, 60
2, 352130, Control_c, 0, 64, 62
2, 352151, Control_c, 0, 64, 64
2, 352169, Control_c, 0, 64, 69
2, 352191, Control_c, 0, 64, 78
2, 352206, Control_c, 0, 64, 98
2, 352228, Control_c, 0, 64, 127
2, 352237, Note_on_c, 0, 68, 0
2, 352418, Control_c, 0, 64, 103
2, 352439, Control_c, 0, 64, 93
2, 352451, Note_on_c, 0, 66, 56
2, 352451, Note_on_c, 0, 75, 67
2, 352460, Control_c, 0, 64, 85
2, 352460, Note_on_c, 0, 63, 53
2, 352475, Control_c, 0, 64, 78
2, 352498, Control_c, 0, 64, 70
2, 352515, Control_c, 0, 64, 63
2, 352520, Note_on_c, 0, 62, 0
2, 352534, Control_c, 0, 64, 58
2, 352552, Control_c, 0, 64, 54
2, 352571, Control_c, 0, 64, 52
2, 352594, Control_c, 0, 64, 51
2, 352611, Control_c, 0, 64, 50
2, 352631, Control_c, 0, 64, 51
2, 352648, Control_c, 0, 64, 54
2, 352668, Control_c, 0, 64, 58
2, 352687, Control_c, 0, 64, 62
2, 352706, Control_c, 0, 64, 65
2, 352726, Control_c, 0, 64, 69
2, 352745, Control_c, 0, 64, 76
2, 352750, Note_on_c, 0, 66, 0
2, 352766, Control_c, 0, 64, 90
2, 352783, Control_c, 0, 64, 127
2, 352801, Note_on_c, 0, 63, 0
2, 352854, Note_on_c, 0, 77, 73
2, 353075, Note_on_c, 0, 75, 0
2, 353207, Control_c, 0, 64, 102
2, 353226, Control_c, 0, 64, 81
2, 353226, Note_on_c, 0, 78, 79
2, 353244, Note_on_c, 0, 51, 60
2, 353244, Note_on_c, 0, 63, 63
2, 353248, Control_c, 0, 64, 68
2, 353265, Control_c, 0, 64, 62
2, 353282, Control_c, 0, 64, 58
2, 353299, Note_on_c, 0, 77, 0
2, 353322, Control_c, 0, 64, 60
2, 353341, Control_c, 0, 64, 62
2, 353358, Control_c, 0, 64, 63
2, 353379, Control_c, 0, 64, 66
2, 353398, Control_c, 0, 64, 72
2, 353418, Control_c, 0, 64, 88
2, 353434, Control_c, 0, 64, 127
2, 353455, Note_on_c, 0, 63, 0
2, 353628, Control_c, 0, 64, 109
2, 353632, Note_on_c, 0, 58, 57
2, 353637, Note_on_c, 0, 62, 64
2, 353637, Note_on_c, 0, 77, 78
2, 353650, Control_c, 0, 64, 90
2, 353666, Control_c, 0, 64, 78
2, 353686, Control_c, 0, 64, 69
2, 353693, Note_on_c, 0, 78, 0
2, 353706, Control_c, 0, 64, 64
2, 353722, Control_c, 0, 64, 61
2, 353738, Control_c, 0, 64, 58
2, 353760, Control_c, 0, 64, 55
2, 353778, Control_c, 0, 64, 52
2, 353797, Control_c, 0, 64, 48
2, 353816, Control_c, 0, 64, 46
2, 353834, Control_c, 0, 64, 47
2, 353858, Control_c, 0, 64, 51
2, 353875, Control_c, 0, 64, 58
2, 353875, Note_on_c, 0, 51, 0
2, 353891, Control_c, 0, 64, 62
2, 353910, Control_c, 0, 64, 64
2, 353930, Control_c, 0, 64, 65
2, 353951, Control_c, 0, 64, 67
2, 353969, Control_c, 0, 64, 70
2, 353988, Control_c, 0, 64, 77
2, 354010, Control_c, 0, 64, 89
2, 354026, Control_c, 0, 64, 127
2, 354030, Note_on_c, 0, 82, 78
2, 354035, Note_on_c, 0, 58, 0
2, 354411, Note_on_c, 0, 70, 68
2, 354414, Note_on_c, 0, 61, 55
2, 354425, Note_on_c, 0, 55, 52
2, 354429, Control_c, 0, 64, 112
2, 354440, Note_on_c, 0, 62, 0
2, 354449, Control_c, 0, 64, 95
2, 354451, Note_on_c, 0, 77, 0
2, 354468, Control_c, 0, 64, 86
2, 354488, Control_c, 0, 64, 79
2, 354505, Control_c, 0, 64, 75
2, 354525, Control_c, 0, 64, 71
2, 354546, Control_c, 0, 64, 69
2, 354553, Note_on_c, 0, 82, 0
2, 354566, Control_c, 0, 64, 66
2, 354584, Control_c, 0, 64, 64
2, 354603, Control_c, 0, 64, 62
2, 354621, Control_c, 0, 64, 61
2, 354659, Control_c, 0, 64, 60
2, 354679, Control_c, 0, 64, 59
2, 354699, Control_c, 0, 64, 58
2, 354717, Control_c, 0, 64, 57
2, 354735, Control_c, 0, 64, 56
2, 354755, Control_c, 0, 64, 55
2, 354775, Control_c, 0, 64, 53
2, 354795, Control_c, 0, 64, 52
2, 354797, Note_on_c, 0, 75, 67
2, 354802, Note_on_c, 0, 61, 0
2, 354810, Note_on_c, 0, 56, 51
2, 354810, Note_on_c, 0, 60, 48
2, 354815, Control_c, 0, 64, 51
2, 354819, Note_on_c, 0, 55, 0
2, 354832, Control_c, 0, 64, 50
2, 354872, Control_c, 0, 64, 49
2, 354890, Control_c, 0, 64, 48
2, 354908, Control_c, 0, 64, 45
2, 354921, Note_on_c, 0, 70, 0
2, 354929, Control_c, 0, 64, 41
2, 354949, Control_c, 0, 64, 36
2, 354966, Control_c, 0, 64, 31
2, 355007, Control_c, 0, 64, 34
2, 355024, Control_c, 0, 64, 42
2, 355044, Control_c, 0, 64, 51
2, 355063, Control_c, 0, 64, 57
2, 355084, Control_c, 0, 64, 59
2, 355103, Control_c, 0, 64, 61
2, 355120, Control_c, 0, 64, 63
2, 355139, Control_c, 0, 64, 65
2, 355160, Control_c, 0, 64, 68
2, 355178, Control_c, 0, 64, 74
2, 355187, Note_on_c, 0, 78, 72
2, 355199, Control_c, 0, 64, 85
2, 355210, Note_on_c, 0, 56, 0
2, 355210, Note_on_c, 0, 60, 0
2, 355218, Control_c, 0, 64, 104
2, 355237, Control_c, 0, 64, 127
2, 355292, Note_on_c, 0, 75, 0
2, 355567, Note_on_c, 0, 77, 71
2, 355572, Note_on_c, 0, 59, 59
2, 355576, Note_on_c, 0, 50, 52
2, 355582, Control_c, 0, 64, 115
2, 355600, Control_c, 0, 64, 99
2, 355619, Control_c, 0, 64, 90
2, 355634, Note_on_c, 0, 78, 0
2, 355639, Control_c, 0, 64, 84
2, 355661, Control_c, 0, 64, 80
2, 355681, Control_c, 0, 64, 76
2, 355697, Control_c, 0, 64, 73
2, 355716, Control_c, 0, 64, 70
2, 355736, Control_c, 0, 64, 68
2, 355754, Control_c, 0, 64, 66
2, 355774, Control_c, 0, 64, 64
2, 355814, Control_c, 0, 64, 63
2, 355831, Control_c, 0, 64, 62
2, 355852, Control_c, 0, 64, 61
2, 355869, Control_c, 0, 64, 59
2, 355887, Control_c, 0, 64, 57
2, 355909, Control_c, 0, 64, 55
2, 355926, Control_c, 0, 64, 54
2, 355948, Control_c, 0, 64, 53
2, 355961, Note_on_c, 0, 51, 47
2, 355965, Note_on_c, 0, 78, 70
2, 355970, Note_on_c, 0, 58, 56
2, 355985, Control_c, 0, 64, 52
2, 356008, Control_c, 0, 64, 51
2, 356008, Note_on_c, 0, 77, 0
2, 356032, Note_on_c, 0, 59, 0
2, 356043, Control_c, 0, 64, 50
2, 356083, Control_c, 0, 64, 49
2, 356097, Note_on_c, 0, 50, 0
2, 356101, Control_c, 0, 64, 48
2, 356122, Control_c, 0, 64, 45
2, 356138, Control_c, 0, 64, 43
2, 356158, Control_c, 0, 64, 40
2, 356176, Control_c, 0, 64, 37
2, 356195, Control_c, 0, 64, 36
2, 356214, Control_c, 0, 64, 35
2, 356293, Control_c, 0, 64, 37
2, 356312, Control_c, 0, 64, 42
2, 356329, Control_c, 0, 64, 46
2, 356349, Control_c, 0, 64, 47
2, 356363, Note_on_c, 0, 77, 61
2, 356388, Control_c, 0, 64, 49
2, 356406, Control_c, 0, 64, 53
2, 356426, Control_c, 0, 64, 57
2, 356437, Note_on_c, 0, 78, 0
2, 356445, Control_c, 0, 64, 58
2, 356465, Control_c, 0, 64, 56
2, 356502, Control_c, 0, 64, 57
2, 356524, Control_c, 0, 64, 58
2, 356542, Control_c, 0, 64, 60
2, 356560, Control_c, 0, 64, 62
2, 356621, Control_c, 0, 64, 63
2, 356637, Control_c, 0, 64, 64
2, 356656, Control_c, 0, 64, 66
2, 356676, Control_c, 0, 64, 68
2, 356694, Control_c, 0, 64, 73
2, 356713, Control_c, 0, 64, 79
2, 356718, Note_on_c, 0, 51, 0
2, 356734, Control_c, 0, 64, 88
2, 356750, Note_on_c, 0, 75, 59
2, 356754, Control_c, 0, 64, 101
2, 356759, Note_on_c, 0, 60, 49
2, 356766, Note_on_c, 0, 58, 0
2, 356775, Control_c, 0, 64, 127
2, 356823, Note_on_c, 0, 77, 0
2, 357117, Control_c, 0, 64, 109
2, 357136, Control_c, 0, 64, 99
2, 357145, Note_on_c, 0, 77, 64
2, 357158, Control_c, 0, 64, 92
2, 357158, Note_on_c, 0, 61, 38
2, 357160, Note_on_c, 0, 75, 0
2, 357165, Note_on_c, 0, 58, 42
2, 357176, Control_c, 0, 64, 86
2, 357197, Control_c, 0, 64, 82
2, 357213, Control_c, 0, 64, 80
2, 357218, Note_on_c, 0, 60, 0
2, 357254, Control_c, 0, 64, 79
2, 357271, Control_c, 0, 64, 77
2, 357292, Control_c, 0, 64, 74
2, 357311, Control_c, 0, 64, 72
2, 357331, Control_c, 0, 64, 70
2, 357367, Control_c, 0, 64, 69
2, 357388, Control_c, 0, 64, 68
2, 357406, Control_c, 0, 64, 67
2, 357427, Control_c, 0, 64, 66
2, 357464, Control_c, 0, 64, 65
2, 357504, Control_c, 0, 64, 64
2, 357528, Note_on_c, 0, 78, 76
2, 357561, Control_c, 0, 64, 63
2, 357580, Control_c, 0, 64, 62
2, 357613, Note_on_c, 0, 77, 0
2, 357622, Control_c, 0, 64, 61
2, 357658, Control_c, 0, 64, 60
2, 357696, Control_c, 0, 64, 59
2, 357715, Control_c, 0, 64, 58
2, 357754, Control_c, 0, 64, 57
2, 357791, Control_c, 0, 64, 56
2, 357831, Control_c, 0, 64, 55
2, 357918, Note_on_c, 0, 80, 75
2, 357927, Note_on_c, 0, 62, 49
2, 357947, Control_c, 0, 64, 54
2, 358038, Note_on_c, 0, 61, 0
2, 358045, Note_on_c, 0, 78, 0
2, 358120, Control_c, 0, 64, 53
2, 358177, Control_c, 0, 64, 54
2, 358195, Control_c, 0, 64, 55
2, 358231, Note_on_c, 0, 58, 0
2, 358235, Control_c, 0, 64, 56
2, 358272, Control_c, 0, 64, 58
2, 358293, Control_c, 0, 64, 60
2, 358304, Note_on_c, 0, 78, 77
2, 358311, Control_c, 0, 64, 62
2, 358322, Note_on_c, 0, 62, 0
2, 358331, Note_on_c, 0, 63, 41
2, 358336, Control_c, 0, 64, 63
2, 358349, Control_c, 0, 64, 64
2, 358369, Note_on_c, 0, 80, 0
2, 358388, Control_c, 0, 64, 65
2, 358406, Control_c, 0, 64, 66
2, 358428, Control_c, 0, 64, 68
2, 358448, Control_c, 0, 64, 70
2, 358466, Control_c, 0, 64, 71
2, 358484, Control_c, 0, 64, 72
2, 358504, Control_c, 0, 64, 73
2, 358522, Control_c, 0, 64, 75
2, 358540, Control_c, 0, 64, 79
2, 358562, Control_c, 0, 64, 86
2, 358581, Control_c, 0, 64, 90
2, 358598, Control_c, 0, 64, 91
2, 358617, Control_c, 0, 64, 90
2, 358638, Control_c, 0, 64, 85
2, 358657, Control_c, 0, 64, 79
2, 358676, Control_c, 0, 64, 72
2, 358694, Control_c, 0, 64, 66
2, 358707, Note_on_c, 0, 83, 67
2, 358715, Control_c, 0, 64, 62
2, 358719, Note_on_c, 0, 56, 44
2, 358734, Control_c, 0, 64, 59
2, 358765, Note_on_c, 0, 78, 0
2, 358772, Control_c, 0, 64, 60
2, 358791, Control_c, 0, 64, 62
2, 358809, Control_c, 0, 64, 65
2, 358829, Control_c, 0, 64, 71
2, 358850, Control_c, 0, 64, 85
2, 358867, Control_c, 0, 64, 111
2, 358889, Control_c, 0, 64, 127
2, 359005, Control_c, 0, 64, 97
2, 359022, Control_c, 0, 64, 80
2, 359041, Control_c, 0, 64, 69
2, 359059, Control_c, 0, 64, 65
2, 359072, Note_on_c, 0, 75, 65
2, 359081, Control_c, 0, 64, 64
2, 359092, Note_on_c, 0, 54, 45
2, 359101, Control_c, 0, 64, 66
2, 359106, Note_on_c, 0, 56, 0
2, 359117, Control_c, 0, 64, 71
2, 359123, Note_on_c, 0, 83, 0
2, 359137, Control_c, 0, 64, 81
2, 359156, Control_c, 0, 64, 101
2, 359175, Control_c, 0, 64, 127
2, 359447, Control_c, 0, 64, 102
2, 359461, Control_c, 0, 64, 88
2, 359472, Note_on_c, 0, 56, 50
2, 359484, Control_c, 0, 64, 77
2, 359484, Note_on_c, 0, 77, 67
2, 359501, Control_c, 0, 64, 69
2, 359520, Control_c, 0, 64, 64
2, 359539, Control_c, 0, 64, 62
2, 359562, Control_c, 0, 64, 60
2, 359562, Note_on_c, 0, 54, 0
2, 359578, Control_c, 0, 64, 58
2, 359600, Control_c, 0, 64, 55
2, 359618, Control_c, 0, 64, 52
2, 359634, Control_c, 0, 64, 50
2, 359654, Control_c, 0, 64, 49
2, 359654, Note_on_c, 0, 75, 0
2, 359674, Control_c, 0, 64, 51
2, 359691, Control_c, 0, 64, 54
2, 359711, Control_c, 0, 64, 56
2, 359733, Control_c, 0, 64, 58
2, 359751, Control_c, 0, 64, 60
2, 359769, Control_c, 0, 64, 61
2, 359789, Control_c, 0, 64, 63
2, 359809, Control_c, 0, 64, 65
2, 359827, Control_c, 0, 64, 66
2, 359848, Control_c, 0, 64, 69
2, 359852, Note_on_c, 0, 80, 68
2, 359870, Control_c, 0, 64, 71
2, 359886, Control_c, 0, 64, 74
2, 359897, Note_on_c, 0, 77, 0
2, 359904, Control_c, 0, 64, 77
2, 359923, Control_c, 0, 64, 80
2, 359944, Control_c, 0, 64, 84
2, 359963, Control_c, 0, 64, 88
2, 359981, Control_c, 0, 64, 92
2, 360000, Control_c, 0, 64, 98
2, 360019, Control_c, 0, 64, 106
2, 360041, Control_c, 0, 64, 127
2, 360222, Note_on_c, 0, 78, 72
2, 360279, Note_on_c, 0, 80, 0
2, 360518, Control_c, 0, 64, 122
2, 360537, Control_c, 0, 64, 109
2, 360556, Control_c, 0, 64, 102
2, 360574, Control_c, 0, 64, 97
2, 360596, Control_c, 0, 64, 93
2, 360615, Control_c, 0, 64, 90
2, 360618, Note_on_c, 0, 80, 60
2, 360628, Note_on_c, 0, 62, 47
2, 360638, Control_c, 0, 64, 85
2, 360656, Control_c, 0, 64, 79
2, 360660, Note_on_c, 0, 58, 44
2, 360660, Note_on_c, 0, 78, 0
2, 360674, Control_c, 0, 64, 74
2, 360693, Control_c, 0, 64, 68
2, 360711, Control_c, 0, 64, 64
2, 360733, Control_c, 0, 64, 61
2, 360741, Note_on_c, 0, 63, 0
2, 360750, Control_c, 0, 64, 58
2, 360755, Note_on_c, 0, 56, 0
2, 360771, Control_c, 0, 64, 56
2, 360788, Control_c, 0, 64, 54
2, 360807, Control_c, 0, 64, 51
2, 360827, Control_c, 0, 64, 50
2, 360866, Control_c, 0, 64, 52
2, 360884, Control_c, 0, 64, 56
2, 360904, Control_c, 0, 64, 60
2, 360923, Control_c, 0, 64, 63
2, 360942, Control_c, 0, 64, 64
2, 360959, Control_c, 0, 64, 65
2, 360981, Control_c, 0, 64, 67
2, 361000, Control_c, 0, 64, 71
2, 361007, Note_on_c, 0, 78, 65
2, 361018, Control_c, 0, 64, 78
2, 361038, Control_c, 0, 64, 89
2, 361057, Control_c, 0, 64, 113
2, 361061, Note_on_c, 0, 62, 0
2, 361076, Control_c, 0, 64, 127
2, 361096, Note_on_c, 0, 58, 0
2, 361153, Note_on_c, 0, 80, 0
2, 361399, Note_on_c, 0, 77, 68
2, 361418, Note_on_c, 0, 78, 0
2, 361709, Control_c, 0, 64, 112
2, 361727, Control_c, 0, 64, 95
2, 361748, Control_c, 0, 64, 86
2, 361767, Control_c, 0, 64, 78
2, 361789, Control_c, 0, 64, 72
2, 361789, Note_on_c, 0, 78, 77
2, 361805, Note_on_c, 0, 51, 45
2, 361805, Note_on_c, 0, 63, 52
2, 361809, Control_c, 0, 64, 66
2, 361826, Control_c, 0, 64, 63
2, 361838, Note_on_c, 0, 77, 0
2, 361842, Control_c, 0, 64, 60
2, 361862, Control_c, 0, 64, 58
2, 361880, Control_c, 0, 64, 56
2, 361920, Control_c, 0, 64, 58
2, 361940, Control_c, 0, 64, 60
2, 361959, Control_c, 0, 64, 62
2, 361979, Control_c, 0, 64, 64
2, 361998, Control_c, 0, 64, 68
2, 362015, Control_c, 0, 64, 76
2, 362035, Control_c, 0, 64, 88
2, 362056, Control_c, 0, 64, 127
2, 362070, Note_on_c, 0, 63, 0
2, 362173, Note_on_c, 0, 70, 57
2, 362463, Note_on_c, 0, 51, 0
2, 362534, Note_on_c, 0, 47, 47
2, 362553, Control_c, 0, 64, 106
2, 362564, Note_on_c, 0, 75, 62
2, 362576, Control_c, 0, 64, 88
2, 362594, Control_c, 0, 64, 77
2, 362614, Control_c, 0, 64, 72
2, 362651, Control_c, 0, 64, 75
2, 362670, Control_c, 0, 64, 83
2, 362688, Control_c, 0, 64, 100
2, 362707, Control_c, 0, 64, 127
2, 362754, Note_on_c, 0, 70, 0
2, 362899, Control_c, 0, 64, 95
2, 362920, Control_c, 0, 64, 80
2, 362931, Note_on_c, 0, 77, 77
2, 362938, Control_c, 0, 64, 70
2, 362940, Note_on_c, 0, 44, 50
2, 362956, Control_c, 0, 64, 65
2, 362978, Control_c, 0, 64, 61
2, 362978, Note_on_c, 0, 78, 0
2, 362982, Note_on_c, 0, 75, 0
2, 362995, Control_c, 0, 64, 59
2, 363012, Note_on_c, 0, 47, 0
2, 363016, Control_c, 0, 64, 57
2, 363036, Control_c, 0, 64, 56
2, 363094, Control_c, 0, 64, 57
2, 363112, Control_c, 0, 64, 60
2, 363130, Control_c, 0, 64, 62
2, 363148, Control_c, 0, 64, 66
2, 363168, Control_c, 0, 64, 74
2, 363186, Control_c, 0, 64, 97
2, 363206, Control_c, 0, 64, 127
2, 363342, Note_on_c, 0, 73, 58
2, 363408, Note_on_c, 0, 77, 0
2, 363457, Note_on_c, 0, 73, 0
2, 363498, Note_on_c, 0, 71, 50
2, 363687, Note_on_c, 0, 76, 67
2, 363702, Note_on_c, 0, 73, 53
2, 363706, Control_c, 0, 64, 122
2, 363711, Note_on_c, 0, 46, 44
2, 363722, Note_on_c, 0, 71, 0
2, 363727, Control_c, 0, 64, 99
2, 363745, Control_c, 0, 64, 90
2, 363764, Control_c, 0, 64, 83
2, 363782, Control_c, 0, 64, 77
2, 363788, Note_on_c, 0, 44, 0
2, 363802, Control_c, 0, 64, 70
2, 363821, Control_c, 0, 64, 64
2, 363843, Control_c, 0, 64, 60
2, 363859, Control_c, 0, 64, 57
2, 363880, Control_c, 0, 64, 55
2, 363898, Control_c, 0, 64, 54
2, 363917, Control_c, 0, 64, 53
2, 363935, Control_c, 0, 64, 49
2, 363955, Control_c, 0, 64, 46
2, 363975, Control_c, 0, 64, 44
2, 364034, Control_c, 0, 64, 45
2, 364053, Control_c, 0, 64, 48
2, 364069, Control_c, 0, 64, 52
2, 364075, Note_on_c, 0, 75, 60
2, 364086, Note_on_c, 0, 47, 40
2, 364090, Control_c, 0, 64, 56
2, 364110, Control_c, 0, 64, 60
2, 364119, Note_on_c, 0, 46, 0
2, 364119, Note_on_c, 0, 76, 0
2, 364126, Note_on_c, 0, 73, 0
2, 364130, Control_c, 0, 64, 63
2, 364148, Control_c, 0, 64, 65
2, 364168, Control_c, 0, 64, 66
2, 364186, Control_c, 0, 64, 67
2, 364205, Control_c, 0, 64, 68
2, 364244, Control_c, 0, 64, 69
2, 364282, Control_c, 0, 64, 68
2, 364320, Control_c, 0, 64, 67
2, 364357, Control_c, 0, 64, 65
2, 364377, Control_c, 0, 64, 62
2, 364396, Control_c, 0, 64, 59
2, 364417, Control_c, 0, 64, 56
2, 364454, Control_c, 0, 64, 57
2, 364457, Note_on_c, 0, 66, 41
2, 364474, Control_c, 0, 64, 59
2, 364493, Control_c, 0, 64, 61
2, 364511, Control_c, 0, 64, 63
2, 364530, Control_c, 0, 64, 64
2, 364552, Control_c, 0, 64, 66
2, 364570, Control_c, 0, 64, 67
2, 364588, Control_c, 0, 64, 68
2, 364609, Control_c, 0, 64, 69
2, 364686, Control_c, 0, 64, 68
2, 364723, Control_c, 0, 64, 67
2, 364742, Control_c, 0, 64, 65
2, 364761, Control_c, 0, 64, 63
2, 364780, Control_c, 0, 64, 62
2, 364800, Control_c, 0, 64, 61
2, 364839, Control_c, 0, 64, 60
2, 364843, Note_on_c, 0, 51, 36
2, 364843, Note_on_c, 0, 71, 47
2, 364905, Note_on_c, 0, 47, 0
2, 364936, Control_c, 0, 64, 59
2, 365217, Note_on_c, 0, 74, 63
2, 365228, Note_on_c, 0, 53, 42
2, 365251, Note_on_c, 0, 71, 0
2, 365253, Note_on_c, 0, 66, 0
2, 365278, Note_on_c, 0, 75, 0
2, 365320, Note_on_c, 0, 51, 0
2, 365623, Note_on_c, 0, 70, 32
2, 365628, Control_c, 0, 64, 60
2, 365716, Note_on_c, 0, 70, 0
2, 365765, Note_on_c, 0, 68, 45
2, 365914, Control_c, 0, 64, 61
2, 365954, Control_c, 0, 64, 62
2, 365954, Note_on_c, 0, 53, 0
2, 365954, Note_on_c, 0, 70, 44
2, 365954, Note_on_c, 0, 73, 62
2, 365976, Control_c, 0, 64, 63
2, 365976, Note_on_c, 0, 55, 40
2, 365990, Control_c, 0, 64, 64
2, 366004, Note_on_c, 0, 74, 0
2, 366013, Note_on_c, 0, 68, 0
2, 366067, Control_c, 0, 64, 65
2, 366297, Control_c, 0, 64, 64
2, 366332, Note_on_c, 0, 70, 0
2, 366338, Control_c, 0, 64, 63
2, 366338, Note_on_c, 0, 56, 47
2, 366340, Note_on_c, 0, 71, 59
2, 366357, Note_on_c, 0, 73, 0
2, 366370, Note_on_c, 0, 55, 0
2, 366374, Control_c, 0, 64, 62
2, 366393, Control_c, 0, 64, 61
2, 366416, Control_c, 0, 64, 59
2, 366435, Control_c, 0, 64, 58
2, 366471, Control_c, 0, 64, 59
2, 366509, Control_c, 0, 64, 60
2, 366527, Control_c, 0, 64, 61
2, 366547, Control_c, 0, 64, 62
2, 366569, Control_c, 0, 64, 63
2, 366587, Control_c, 0, 64, 64
2, 366604, Control_c, 0, 64, 65
2, 366721, Note_on_c, 0, 75, 70
2, 366969, Control_c, 0, 64, 64
2, 367064, Control_c, 0, 64, 63
2, 367084, Control_c, 0, 64, 62
2, 367105, Control_c, 0, 64, 61
2, 367107, Note_on_c, 0, 59, 41
2, 367114, Note_on_c, 0, 80, 74
2, 367163, Control_c, 0, 64, 62
2, 367163, Note_on_c, 0, 71, 0
2, 367180, Control_c, 0, 64, 63
2, 367200, Control_c, 0, 64, 64
2, 367220, Control_c, 0, 64, 67
2, 367237, Note_on_c, 0, 56, 0
2, 367241, Control_c, 0, 64, 72
2, 367257, Control_c, 0, 64, 80
2, 367280, Control_c, 0, 64, 91
2, 367298, Control_c, 0, 64, 103
2, 367317, Control_c, 0, 64, 106
2, 367374, Control_c, 0, 64, 105
2, 367392, Control_c, 0, 64, 104
2, 367413, Control_c, 0, 64, 102
2, 367431, Control_c, 0, 64, 100
2, 367449, Control_c, 0, 64, 97
2, 367470, Control_c, 0, 64, 92
2, 367487, Control_c, 0, 64, 86
2, 367493, Note_on_c, 0, 70, 65
2, 367507, Control_c, 0, 64, 78
2, 367517, Note_on_c, 0, 61, 47
2, 367528, Control_c, 0, 64, 72
2, 367532, Note_on_c, 0, 59, 0
2, 367550, Control_c, 0, 64, 67
2, 367564, Control_c, 0, 64, 63
2, 367584, Control_c, 0, 64, 62
2, 367604, Control_c, 0, 64, 61
2, 367662, Control_c, 0, 64, 62
2, 367698, Control_c, 0, 64, 63
2, 367719, Control_c, 0, 64, 65
2, 367739, Control_c, 0, 64, 67
2, 367758, Control_c, 0, 64, 72
2, 367775, Control_c, 0, 64, 77
2, 367795, Control_c, 0, 64, 85
2, 367816, Control_c, 0, 64, 93
2, 367835, Control_c, 0, 64, 102
2, 367852, Control_c, 0, 64, 127
2, 367895, Note_on_c, 0, 78, 69
2, 367960, Note_on_c, 0, 70, 0
2, 368010, Note_on_c, 0, 75, 0
2, 368021, Note_on_c, 0, 80, 0
2, 368052, Note_on_c, 0, 76, 70
2, 368066, Note_on_c, 0, 78, 0
2, 368218, Control_c, 0, 64, 116
2, 368239, Control_c, 0, 64, 88
2, 368257, Control_c, 0, 64, 73
2, 368261, Note_on_c, 0, 78, 76
2, 368270, Note_on_c, 0, 69, 66
2, 368276, Control_c, 0, 64, 66
2, 368276, Note_on_c, 0, 63, 54
2, 368288, Note_on_c, 0, 61, 0
2, 368288, Note_on_c, 0, 76, 0
2, 368295, Control_c, 0, 64, 63
2, 368334, Control_c, 0, 64, 64
2, 368352, Control_c, 0, 64, 67
2, 368370, Control_c, 0, 64, 73
2, 368390, Control_c, 0, 64, 92
2, 368412, Control_c, 0, 64, 127
2, 368419, Note_on_c, 0, 69, 0
2, 368643, Note_on_c, 0, 63, 0
2, 368659, Control_c, 0, 64, 107
2, 368680, Control_c, 0, 64, 85
2, 368680, Note_on_c, 0, 68, 76
2, 368691, Note_on_c, 0, 64, 65
2, 368698, Control_c, 0, 64, 72
2, 368718, Control_c, 0, 64, 65
2, 368736, Control_c, 0, 64, 61
2, 368754, Control_c, 0, 64, 59
2, 368774, Control_c, 0, 64, 58
2, 368851, Control_c, 0, 64, 59
2, 368869, Control_c, 0, 64, 61
2, 368893, Control_c, 0, 64, 64
2, 368912, Control_c, 0, 64, 69
2, 368927, Control_c, 0, 64, 79
2, 368947, Control_c, 0, 64, 97
2, 368967, Control_c, 0, 64, 127
2, 369050, Note_on_c, 0, 71, 68
2, 369125, Note_on_c, 0, 78, 0
2, 369453, Note_on_c, 0, 76, 71
2, 369457, Note_on_c, 0, 61, 49
2, 369462, Note_on_c, 0, 64, 0
2, 369509, Note_on_c, 0, 68, 0
2, 369859, Note_on_c, 0, 58, 58
2, 369872, Note_on_c, 0, 67, 75
2, 369915, Control_c, 0, 64, 110
2, 369922, Note_on_c, 0, 71, 0
2, 369931, Control_c, 0, 64, 89
2, 369931, Note_on_c, 0, 61, 0
2, 369949, Control_c, 0, 64, 77
2, 369968, Control_c, 0, 64, 68
2, 369988, Control_c, 0, 64, 64
2, 370009, Control_c, 0, 64, 60
2, 370027, Control_c, 0, 64, 57
2, 370045, Control_c, 0, 64, 55
2, 370068, Control_c, 0, 64, 54
2, 370104, Control_c, 0, 64, 56
2, 370123, Control_c, 0, 64, 59
2, 370142, Control_c, 0, 64, 62
2, 370161, Control_c, 0, 64, 65
2, 370179, Control_c, 0, 64, 68
2, 370201, Control_c, 0, 64, 74
2, 370220, Control_c, 0, 64, 84
2, 370237, Control_c, 0, 64, 111
2, 370259, Control_c, 0, 64, 127
2, 370267, Note_on_c, 0, 75, 62
2, 370287, Note_on_c, 0, 67, 0
2, 370369, Note_on_c, 0, 76, 0
2, 370444, Note_on_c, 0, 73, 63
2, 370470, Note_on_c, 0, 75, 0
2, 370646, Note_on_c, 0, 75, 67
2, 370652, Note_on_c, 0, 66, 64
2, 370661, Control_c, 0, 64, 102
2, 370670, Note_on_c, 0, 60, 59
2, 370675, Note_on_c, 0, 73, 0
2, 370680, Control_c, 0, 64, 79
2, 370699, Control_c, 0, 64, 68
2, 370718, Note_on_c, 0, 58, 0
2, 370723, Control_c, 0, 64, 62
2, 370739, Control_c, 0, 64, 59
2, 370757, Control_c, 0, 64, 58
2, 370776, Control_c, 0, 64, 59
2, 370796, Control_c, 0, 64, 61
2, 370815, Control_c, 0, 64, 63
2, 370835, Control_c, 0, 64, 69
2, 370853, Control_c, 0, 64, 80
2, 370873, Control_c, 0, 64, 120
2, 370891, Control_c, 0, 64, 127
2, 371025, Control_c, 0, 64, 101
2, 371045, Control_c, 0, 64, 83
2, 371056, Note_on_c, 0, 66, 0
2, 371063, Control_c, 0, 64, 72
2, 371075, Note_on_c, 0, 73, 59
2, 371088, Control_c, 0, 64, 65
2, 371088, Note_on_c, 0, 64, 64
2, 371097, Note_on_c, 0, 61, 55
2, 371103, Control_c, 0, 64, 62
2, 371114, Note_on_c, 0, 60, 0
2, 371122, Control_c, 0, 64, 61
2, 371138, Note_on_c, 0, 75, 0
2, 371143, Control_c, 0, 64, 59
2, 371161, Control_c, 0, 64, 57
2, 371180, Control_c, 0, 64, 53
2, 371198, Control_c, 0, 64, 49
2, 371218, Control_c, 0, 64, 44
2, 371236, Control_c, 0, 64, 38
2, 371256, Control_c, 0, 64, 31
2, 371277, Control_c, 0, 64, 25
2, 371294, Control_c, 0, 64, 22
2, 371333, Control_c, 0, 64, 26
2, 371351, Control_c, 0, 64, 33
2, 371371, Control_c, 0, 64, 39
2, 371391, Control_c, 0, 64, 44
2, 371409, Control_c, 0, 64, 50
2, 371429, Control_c, 0, 64, 57
2, 371448, Control_c, 0, 64, 61
2, 371465, Note_on_c, 0, 60, 58
2, 371465, Note_on_c, 0, 66, 63
2, 371471, Control_c, 0, 64, 63
2, 371471, Note_on_c, 0, 75, 67
2, 371487, Control_c, 0, 64, 64
2, 371492, Note_on_c, 0, 73, 0
2, 371525, Control_c, 0, 64, 65
2, 371544, Control_c, 0, 64, 67
2, 371563, Control_c, 0, 64, 70
2, 371585, Control_c, 0, 64, 73
2, 371589, Note_on_c, 0, 61, 0
2, 371602, Control_c, 0, 64, 77
2, 371609, Note_on_c, 0, 64, 0
2, 371620, Control_c, 0, 64, 79
2, 371659, Control_c, 0, 64, 78
2, 371698, Control_c, 0, 64, 77
2, 371716, Control_c, 0, 64, 76
2, 371736, Control_c, 0, 64, 74
2, 371757, Control_c, 0, 64, 72
2, 371774, Control_c, 0, 64, 70
2, 371792, Control_c, 0, 64, 67
2, 371812, Control_c, 0, 64, 64
2, 371831, Control_c, 0, 64, 62
2, 371853, Note_on_c, 0, 76, 67
2, 371857, Control_c, 0, 64, 61
2, 371857, Note_on_c, 0, 68, 53
2, 371860, Note_on_c, 0, 58, 50
2, 371871, Control_c, 0, 64, 59
2, 371893, Note_on_c, 0, 60, 0
2, 371898, Note_on_c, 0, 75, 0
2, 371906, Note_on_c, 0, 66, 0
2, 371949, Control_c, 0, 64, 61
2, 371967, Control_c, 0, 64, 63
2, 371984, Control_c, 0, 64, 66
2, 372005, Control_c, 0, 64, 70
2, 372026, Control_c, 0, 64, 78
2, 372044, Control_c, 0, 64, 88
2, 372061, Control_c, 0, 64, 99
2, 372082, Control_c, 0, 64, 103
2, 372101, Control_c, 0, 64, 104
2, 372120, Control_c, 0, 64, 103
2, 372139, Control_c, 0, 64, 101
2, 372157, Control_c, 0, 64, 96
2, 372178, Control_c, 0, 64, 90
2, 372197, Control_c, 0, 64, 82
2, 372215, Control_c, 0, 64, 75
2, 372235, Control_c, 0, 64, 68
2, 372242, Note_on_c, 0, 75, 66
2, 372246, Note_on_c, 0, 66, 52
2, 372256, Control_c, 0, 64, 63
2, 372256, Note_on_c, 0, 59, 45
2, 372261, Note_on_c, 0, 58, 0
2, 372273, Control_c, 0, 64, 59
2, 372280, Note_on_c, 0, 68, 0
2, 372292, Control_c, 0, 64, 58
2, 372297, Note_on_c, 0, 76, 0
2, 372330, Control_c, 0, 64, 59
2, 372350, Control_c, 0, 64, 60
2, 372370, Control_c, 0, 64, 62
2, 372390, Control_c, 0, 64, 64
2, 372408, Control_c, 0, 64, 67
2, 372428, Control_c, 0, 64, 71
2, 372446, Control_c, 0, 64, 78
2, 372469, Control_c, 0, 64, 85
2, 372483, Control_c, 0, 64, 89
2, 372500, Control_c, 0, 64, 90
2, 372520, Control_c, 0, 64, 89
2, 372540, Control_c, 0, 64, 88
2, 372559, Control_c, 0, 64, 86
2, 372580, Control_c, 0, 64, 83
2, 372596, Control_c, 0, 64, 78
2, 372620, Control_c, 0, 64, 71
2, 372620, Note_on_c, 0, 58, 52
2, 372620, Note_on_c, 0, 71, 65
2, 372640, Control_c, 0, 64, 65
2, 372654, Control_c, 0, 64, 62
2, 372658, Note_on_c, 0, 59, 0
2, 372674, Control_c, 0, 64, 61
2, 372694, Control_c, 0, 64, 62
2, 372698, Note_on_c, 0, 75, 0
2, 372714, Control_c, 0, 64, 64
2, 372730, Control_c, 0, 64, 65
2, 372750, Control_c, 0, 64, 70
2, 372770, Control_c, 0, 64, 78
2, 372789, Control_c, 0, 64, 88
2, 372808, Control_c, 0, 64, 104
2, 372828, Control_c, 0, 64, 127
2, 372924, Control_c, 0, 64, 116
2, 372942, Control_c, 0, 64, 102
2, 372962, Control_c, 0, 64, 90
2, 372984, Control_c, 0, 64, 80
2, 373002, Control_c, 0, 64, 72
2, 373014, Note_on_c, 0, 59, 57
2, 373014, Note_on_c, 0, 66, 0
2, 373018, Control_c, 0, 64, 66
2, 373030, Note_on_c, 0, 56, 42
2, 373030, Note_on_c, 0, 74, 52
2, 373038, Control_c, 0, 64, 63
2, 373049, Note_on_c, 0, 58, 0
2, 373059, Control_c, 0, 64, 62
2, 373077, Control_c, 0, 64, 60
2, 373098, Control_c, 0, 64, 59
2, 373115, Control_c, 0, 64, 58
2, 373135, Control_c, 0, 64, 57
2, 373172, Control_c, 0, 64, 58
2, 373193, Control_c, 0, 64, 59
2, 373211, Control_c, 0, 64, 60
2, 373417, Note_on_c, 0, 73, 69
2, 373419, Note_on_c, 0, 57, 54
2, 373426, Note_on_c, 0, 64, 56
2, 373430, Note_on_c, 0, 71, 0
2, 373462, Control_c, 0, 64, 61
2, 373462, Note_on_c, 0, 59, 0
2, 373487, Note_on_c, 0, 56, 0
2, 373503, Control_c, 0, 64, 62
2, 373503, Note_on_c, 0, 74, 0
2, 373537, Control_c, 0, 64, 63
2, 373577, Control_c, 0, 64, 64
2, 373594, Control_c, 0, 64, 65
2, 373616, Control_c, 0, 64, 66
2, 373634, Control_c, 0, 64, 68
2, 373653, Control_c, 0, 64, 69
2, 373670, Control_c, 0, 64, 70
2, 373692, Control_c, 0, 64, 72
2, 373710, Control_c, 0, 64, 73
2, 373730, Control_c, 0, 64, 74
2, 373749, Control_c, 0, 64, 75
2, 373769, Control_c, 0, 64, 77
2, 373789, Control_c, 0, 64, 78
2, 373806, Control_c, 0, 64, 80
2, 373812, Note_on_c, 0, 68, 70
2, 373826, Control_c, 0, 64, 82
2, 373831, Note_on_c, 0, 64, 0
2, 373847, Control_c, 0, 64, 85
2, 373864, Control_c, 0, 64, 88
2, 373883, Control_c, 0, 64, 92
2, 373903, Control_c, 0, 64, 98
2, 373923, Control_c, 0, 64, 106
2, 373942, Control_c, 0, 64, 127
2, 374174, Control_c, 0, 64, 109
2, 374194, Control_c, 0, 64, 88
2, 374194, Note_on_c, 0, 57, 0
2, 374198, Note_on_c, 0, 72, 70
2, 374202, Note_on_c, 0, 66, 63
2, 374207, Note_on_c, 0, 51, 53
2, 374211, Control_c, 0, 64, 75
2, 374221, Note_on_c, 0, 73, 0
2, 374230, Control_c, 0, 64, 67
2, 374237, Note_on_c, 0, 68, 0
2, 374248, Control_c, 0, 64, 63
2, 374266, Control_c, 0, 64, 62
2, 374286, Control_c, 0, 64, 63
2, 374305, Control_c, 0, 64, 64
2, 374325, Control_c, 0, 64, 65
2, 374344, Control_c, 0, 64, 67
2, 374364, Control_c, 0, 64, 71
2, 374383, Control_c, 0, 64, 78
2, 374403, Control_c, 0, 64, 90
2, 374423, Control_c, 0, 64, 102
2, 374439, Control_c, 0, 64, 113
2, 374478, Control_c, 0, 64, 112
2, 374497, Control_c, 0, 64, 107
2, 374515, Control_c, 0, 64, 101
2, 374537, Control_c, 0, 64, 94
2, 374556, Control_c, 0, 64, 87
2, 374575, Control_c, 0, 64, 80
2, 374586, Note_on_c, 0, 68, 56
2, 374587, Note_on_c, 0, 71, 63
2, 374595, Control_c, 0, 64, 73
2, 374599, Note_on_c, 0, 51, 0
2, 374609, Note_on_c, 0, 52, 50
2, 374614, Control_c, 0, 64, 67
2, 374633, Control_c, 0, 64, 63
2, 374642, Note_on_c, 0, 72, 0
2, 374644, Note_on_c, 0, 66, 0
2, 374654, Control_c, 0, 64, 60
2, 374674, Control_c, 0, 64, 58
2, 374691, Control_c, 0, 64, 56
2, 374729, Control_c, 0, 64, 55
2, 374747, Control_c, 0, 64, 56
2, 374767, Control_c, 0, 64, 57
2, 374785, Control_c, 0, 64, 60
2, 374804, Control_c, 0, 64, 62
2, 374826, Control_c, 0, 64, 65
2, 374843, Control_c, 0, 64, 68
2, 374863, Control_c, 0, 64, 74
2, 374882, Control_c, 0, 64, 83
2, 374901, Control_c, 0, 64, 96
2, 374919, Control_c, 0, 64, 127
2, 374981, Note_on_c, 0, 66, 59
2, 375029, Note_on_c, 0, 66, 0
2, 375277, Note_on_c, 0, 68, 0
2, 375324, Control_c, 0, 64, 97
2, 375342, Control_c, 0, 64, 82
2, 375351, Note_on_c, 0, 73, 68
2, 375366, Control_c, 0, 64, 70
2, 375366, Note_on_c, 0, 40, 40
2, 375366, Note_on_c, 0, 64, 53
2, 375377, Note_on_c, 0, 52, 0
2, 375382, Control_c, 0, 64, 64
2, 375401, Control_c, 0, 64, 61
2, 375406, Note_on_c, 0, 71, 0
2, 375420, Control_c, 0, 64, 60
2, 375441, Control_c, 0, 64, 62
2, 375460, Control_c, 0, 64, 64
2, 375476, Control_c, 0, 64, 69
2, 375496, Control_c, 0, 64, 86
2, 375503, Note_on_c, 0, 73, 0
2, 375516, Control_c, 0, 64, 127
2, 375531, Note_on_c, 0, 64, 0
2, 375727, Control_c, 0, 64, 105
2, 375732, Note_on_c, 0, 74, 71
2, 375745, Note_on_c, 0, 66, 58
2, 375749, Control_c, 0, 64, 85
2, 375753, Note_on_c, 0, 47, 44
2, 375768, Control_c, 0, 64, 73
2, 375768, Note_on_c, 0, 40, 0
2, 375783, Control_c, 0, 64, 65
2, 375806, Control_c, 0, 64, 61
2, 375823, Control_c, 0, 64, 59
2, 375842, Control_c, 0, 64, 57
2, 375859, Control_c, 0, 64, 55
2, 375882, Control_c, 0, 64, 54
2, 375918, Control_c, 0, 64, 57
2, 375936, Control_c, 0, 64, 60
2, 375955, Control_c, 0, 64, 64
2, 375976, Control_c, 0, 64, 67
2, 375993, Control_c, 0, 64, 73
2, 376013, Control_c, 0, 64, 83
2, 376031, Control_c, 0, 64, 105
2, 376051, Control_c, 0, 64, 127
2, 376126, Note_on_c, 0, 68, 72
2, 376176, Note_on_c, 0, 74, 0
2, 376183, Note_on_c, 0, 66, 0
2, 376220, Note_on_c, 0, 68, 0
2, 376477, Control_c, 0, 64, 92
2, 376490, Note_on_c, 0, 75, 71
2, 376494, Control_c, 0, 64, 78
2, 376504, Note_on_c, 0, 47, 0
2, 376504, Note_on_c, 0, 69, 56
2, 376512, Control_c, 0, 64, 68
2, 376517, Note_on_c, 0, 48, 54
2, 376530, Control_c, 0, 64, 63
2, 376551, Control_c, 0, 64, 60
2, 376570, Control_c, 0, 64, 58
2, 376587, Control_c, 0, 64, 59
2, 376607, Control_c, 0, 64, 62
2, 376627, Control_c, 0, 64, 65
2, 376649, Control_c, 0, 64, 70
2, 376668, Control_c, 0, 64, 81
2, 376684, Control_c, 0, 64, 113
2, 376704, Control_c, 0, 64, 127
2, 376711, Note_on_c, 0, 75, 0
2, 376760, Note_on_c, 0, 69, 0
2, 376878, Control_c, 0, 64, 95
2, 376880, Note_on_c, 0, 76, 70
2, 376887, Note_on_c, 0, 68, 58
2, 376896, Control_c, 0, 64, 81
2, 376906, Note_on_c, 0, 49, 47
2, 376915, Control_c, 0, 64, 71
2, 376937, Control_c, 0, 64, 66
2, 376951, Note_on_c, 0, 48, 0
2, 376956, Control_c, 0, 64, 63
2, 376973, Control_c, 0, 64, 61
2, 376993, Control_c, 0, 64, 59
2, 377010, Control_c, 0, 64, 57
2, 377031, Control_c, 0, 64, 56
2, 377086, Control_c, 0, 64, 57
2, 377106, Control_c, 0, 64, 58
2, 377203, Control_c, 0, 64, 59
2, 377277, Note_on_c, 0, 73, 62
2, 377280, Control_c, 0, 64, 60
2, 377651, Note_on_c, 0, 68, 0
2, 377656, Note_on_c, 0, 64, 54
2, 377658, Note_on_c, 0, 49, 0
2, 377669, Note_on_c, 0, 56, 45
2, 377691, Note_on_c, 0, 73, 0
2, 378050, Note_on_c, 0, 66, 51
2, 378059, Note_on_c, 0, 57, 46
2, 378074, Note_on_c, 0, 64, 0
2, 378124, Note_on_c, 0, 56, 0
2, 378128, Control_c, 0, 64, 61
2, 378316, Control_c, 0, 64, 60
2, 378434, Note_on_c, 0, 66, 0
2, 378436, Note_on_c, 0, 69, 47
2, 378785, Note_on_c, 0, 69, 0
2, 378794, Note_on_c, 0, 68, 54
2, 378812, Note_on_c, 0, 61, 34
2, 379168, Note_on_c, 0, 75, 51
2, 379170, Note_on_c, 0, 54, 41
2, 379179, Note_on_c, 0, 69, 43
2, 379188, Note_on_c, 0, 68, 0
2, 379226, Note_on_c, 0, 57, 0
2, 379252, Note_on_c, 0, 76, 0
2, 379269, Note_on_c, 0, 61, 0
2, 379275, Control_c, 0, 64, 59
2, 379334, Control_c, 0, 64, 58
2, 379376, Control_c, 0, 64, 57
2, 379413, Control_c, 0, 64, 56
2, 379431, Control_c, 0, 64, 57
2, 379468, Control_c, 0, 64, 58
2, 379487, Control_c, 0, 64, 59
2, 379507, Control_c, 0, 64, 61
2, 379528, Control_c, 0, 64, 62
2, 379528, Note_on_c, 0, 68, 54
2, 379545, Control_c, 0, 64, 64
2, 379554, Note_on_c, 0, 69, 0
2, 379565, Control_c, 0, 64, 66
2, 379584, Control_c, 0, 64, 69
2, 379602, Control_c, 0, 64, 74
2, 379622, Control_c, 0, 64, 84
2, 379640, Control_c, 0, 64, 97
2, 379661, Control_c, 0, 64, 118
2, 379680, Control_c, 0, 64, 127
2, 379920, Note_on_c, 0, 68, 0
2, 379931, Note_on_c, 0, 66, 49
2, 379944, Note_on_c, 0, 54, 0
2, 379944, Note_on_c, 0, 59, 35
2, 380003, Note_on_c, 0, 66, 0
2, 380181, Control_c, 0, 64, 122
2, 380198, Control_c, 0, 64, 112
2, 380219, Control_c, 0, 64, 105
2, 380238, Control_c, 0, 64, 99
2, 380255, Control_c, 0, 64, 92
2, 380275, Control_c, 0, 64, 85
2, 380295, Control_c, 0, 64, 79
2, 380313, Control_c, 0, 64, 72
2, 380329, Note_on_c, 0, 76, 57
2, 380333, Control_c, 0, 64, 67
2, 380340, Note_on_c, 0, 68, 48
2, 380353, Note_on_c, 0, 59, 0
2, 380355, Control_c, 0, 64, 65
2, 380355, Note_on_c, 0, 52, 35
2, 380372, Control_c, 0, 64, 63
2, 380392, Control_c, 0, 64, 62
2, 380410, Control_c, 0, 64, 60
2, 380417, Note_on_c, 0, 75, 0
2, 380428, Control_c, 0, 64, 58
2, 380448, Control_c, 0, 64, 54
2, 380466, Control_c, 0, 64, 52
2, 380487, Control_c, 0, 64, 50
2, 380504, Control_c, 0, 64, 51
2, 380523, Control_c, 0, 64, 53
2, 380545, Control_c, 0, 64, 57
2, 380564, Control_c, 0, 64, 61
2, 380582, Control_c, 0, 64, 63
2, 380601, Control_c, 0, 64, 65
2, 380620, Control_c, 0, 64, 68
2, 380638, Control_c, 0, 64, 74
2, 380659, Control_c, 0, 64, 82
2, 380673, Note_on_c, 0, 68, 0
2, 380682, Control_c, 0, 64, 94
2, 380699, Control_c, 0, 64, 127
2, 380726, Note_on_c, 0, 59, 45
2, 381002, Note_on_c, 0, 52, 0
2, 381110, Note_on_c, 0, 68, 59
2, 381125, Note_on_c, 0, 64, 47
2, 381139, Note_on_c, 0, 59, 0
2, 381139, Note_on_c, 0, 76, 0
2, 381217, Control_c, 0, 64, 108
2, 381235, Control_c, 0, 64, 98
2, 381254, Control_c, 0, 64, 90
2, 381276, Control_c, 0, 64, 84
2, 381296, Control_c, 0, 64, 79
2, 381311, Control_c, 0, 64, 76
2, 381330, Control_c, 0, 64, 73
2, 381349, Control_c, 0, 64, 71
2, 381371, Control_c, 0, 64, 70
2, 381387, Control_c, 0, 64, 68
2, 381408, Control_c, 0, 64, 67
2, 381425, Control_c, 0, 64, 65
2, 381445, Control_c, 0, 64, 64
2, 381463, Control_c, 0, 64, 63
2, 381482, Note_on_c, 0, 70, 58
2, 381501, Note_on_c, 0, 67, 54
2, 381542, Control_c, 0, 64, 62
2, 381549, Note_on_c, 0, 68, 0
2, 381601, Control_c, 0, 64, 61
2, 381891, Note_on_c, 0, 63, 41
2, 382014, Note_on_c, 0, 64, 0
2, 382029, Note_on_c, 0, 63, 0
2, 382075, Note_on_c, 0, 61, 38
2, 382245, Note_on_c, 0, 66, 41
2, 382245, Note_on_c, 0, 72, 62
2, 382256, Note_on_c, 0, 67, 0
2, 382276, Note_on_c, 0, 61, 0
2, 382276, Note_on_c, 0, 63, 37
2, 382357, Note_on_c, 0, 70, 0
2, 382425, Control_c, 0, 64, 62
2, 382622, Note_on_c, 0, 73, 62
2, 382641, Note_on_c, 0, 65, 38
2, 382641, Note_on_c, 0, 72, 0
2, 382687, Note_on_c, 0, 66, 0
2, 383013, Note_on_c, 0, 63, 0
2, 383017, Note_on_c, 0, 56, 43
2, 383136, Control_c, 0, 64, 63
2, 383383, Note_on_c, 0, 69, 43
2, 383390, Note_on_c, 0, 64, 47
2, 383404, Note_on_c, 0, 61, 32
2, 383424, Note_on_c, 0, 65, 0
2, 383442, Control_c, 0, 64, 64
2, 383454, Note_on_c, 0, 73, 0
2, 383466, Note_on_c, 0, 56, 0
2, 383794, Note_on_c, 0, 66, 50
2, 383809, Note_on_c, 0, 63, 43
2, 383849, Note_on_c, 0, 69, 0
2, 383859, Note_on_c, 0, 64, 0
2, 384172, Note_on_c, 0, 60, 40
2, 384254, Note_on_c, 0, 61, 0
2, 384329, Note_on_c, 0, 60, 0
2, 384357, Note_on_c, 0, 58, 40
2, 384551, Note_on_c, 0, 68, 53
2, 384574, Note_on_c, 0, 60, 33
2, 384578, Note_on_c, 0, 58, 0
2, 384627, Note_on_c, 0, 66, 0
2, 384637, Control_c, 0, 64, 63
2, 384750, Control_c, 0, 64, 62
2, 384786, Control_c, 0, 64, 61
2, 384804, Control_c, 0, 64, 60
2, 384825, Control_c, 0, 64, 59
2, 384847, Control_c, 0, 64, 58
2, 384901, Control_c, 0, 64, 60
2, 384921, Control_c, 0, 64, 62
2, 384942, Note_on_c, 0, 64, 48
2, 384946, Control_c, 0, 64, 64
2, 384951, Note_on_c, 0, 61, 40
2, 384960, Control_c, 0, 64, 69
2, 384979, Control_c, 0, 64, 79
2, 384993, Note_on_c, 0, 63, 0
2, 385002, Control_c, 0, 64, 108
2, 385018, Control_c, 0, 64, 127
2, 385022, Note_on_c, 0, 60, 0
2, 385060, Note_on_c, 0, 61, 0
2, 385190, Control_c, 0, 64, 107
2, 385210, Control_c, 0, 64, 91
2, 385228, Control_c, 0, 64, 80
2, 385246, Control_c, 0, 64, 71
2, 385266, Control_c, 0, 64, 65
2, 385287, Control_c, 0, 64, 62
2, 385345, Note_on_c, 0, 49, 46
2, 385349, Control_c, 0, 64, 63
2, 385349, Note_on_c, 0, 61, 45
2, 385362, Control_c, 0, 64, 64
2, 385382, Control_c, 0, 64, 65
2, 385403, Control_c, 0, 64, 69
2, 385421, Control_c, 0, 64, 77
2, 385439, Control_c, 0, 64, 89
2, 385459, Control_c, 0, 64, 115
2, 385481, Control_c, 0, 64, 127
2, 385487, Note_on_c, 0, 61, 0
2, 385719, Note_on_c, 0, 49, 0
2, 385746, Note_on_c, 0, 69, 57
2, 385761, Note_on_c, 0, 61, 42
2, 385784, Control_c, 0, 64, 104
2, 385805, Control_c, 0, 64, 91
2, 385823, Note_on_c, 0, 68, 0
2, 385826, Control_c, 0, 64, 81
2, 385842, Control_c, 0, 64, 77
2, 385873, Note_on_c, 0, 64, 0
2, 385882, Control_c, 0, 64, 78
2, 385940, Control_c, 0, 64, 77
2, 385958, Control_c, 0, 64, 76
2, 385980, Control_c, 0, 64, 75
2, 385995, Control_c, 0, 64, 76
2, 386033, Control_c, 0, 64, 75
2, 386073, Control_c, 0, 64, 74
2, 386093, Control_c, 0, 64, 73
2, 386111, Control_c, 0, 64, 72
2, 386128, Note_on_c, 0, 60, 45
2, 386149, Control_c, 0, 64, 71
2, 386169, Control_c, 0, 64, 70
2, 386187, Control_c, 0, 64, 69
2, 386208, Control_c, 0, 64, 68
2, 386241, Note_on_c, 0, 61, 0
2, 386249, Control_c, 0, 64, 67
2, 386341, Control_c, 0, 64, 66
2, 386382, Control_c, 0, 64, 65
2, 386457, Control_c, 0, 64, 64
2, 386525, Note_on_c, 0, 68, 50
2, 386553, Control_c, 0, 64, 63
2, 386653, Note_on_c, 0, 69, 0
2, 386687, Control_c, 0, 64, 62
2, 386691, Note_on_c, 0, 66, 55
2, 386697, Note_on_c, 0, 68, 0
2, 386804, Control_c, 0, 64, 61
2, 386881, Control_c, 0, 64, 60
2, 386891, Note_on_c, 0, 68, 55
2, 386896, Note_on_c, 0, 59, 36
2, 386969, Note_on_c, 0, 60, 0
2, 387012, Note_on_c, 0, 66, 0
2, 387246, Control_c, 0, 64, 59
2, 387296, Note_on_c, 0, 58, 46
2, 387334, Note_on_c, 0, 59, 0
2, 387341, Control_c, 0, 64, 60
2, 387669, Note_on_c, 0, 61, 46
2, 388071, Note_on_c, 0, 57, 37
2, 388071, Note_on_c, 0, 66, 52
2, 388075, Note_on_c, 0, 58, 0
2, 388204, Note_on_c, 0, 68, 0
2, 388329, Note_on_c, 0, 61, 0
2, 388461, Note_on_c, 0, 56, 47
2, 388595, Note_on_c, 0, 57, 0
2, 388851, Note_on_c, 0, 65, 47
2, 388898, Control_c, 0, 64, 61
2, 388976, Note_on_c, 0, 66, 0
2, 388991, Note_on_c, 0, 65, 0
2, 389018, Note_on_c, 0, 63, 49
2, 389216, Note_on_c, 0, 71, 56
2, 389218, Note_on_c, 0, 65, 42
2, 389223, Note_on_c, 0, 56, 0
2, 389225, Note_on_c, 0, 61, 40
2, 389268, Note_on_c, 0, 63, 0
2, 389281, Control_c, 0, 64, 62
2, 389298, Control_c, 0, 64, 64
2, 389315, Control_c, 0, 64, 66
2, 389337, Control_c, 0, 64, 69
2, 389356, Control_c, 0, 64, 75
2, 389365, Note_on_c, 0, 65, 0
2, 389376, Control_c, 0, 64, 85
2, 389394, Control_c, 0, 64, 106
2, 389416, Control_c, 0, 64, 127
2, 389568, Control_c, 0, 64, 102
2, 389587, Control_c, 0, 64, 91
2, 389606, Control_c, 0, 64, 82
2, 389625, Control_c, 0, 64, 77
2, 389635, Note_on_c, 0, 54, 41
2, 389640, Note_on_c, 0, 66, 62
2, 389644, Control_c, 0, 64, 73
2, 389664, Control_c, 0, 64, 71
2, 389682, Control_c, 0, 64, 68
2, 389700, Control_c, 0, 64, 67
2, 389711, Note_on_c, 0, 61, 0
2, 389711, Note_on_c, 0, 71, 0
2, 389722, Control_c, 0, 64, 65
2, 389740, Control_c, 0, 64, 64
2, 389778, Control_c, 0, 64, 63
2, 389817, Control_c, 0, 64, 62
2, 389931, Control_c, 0, 64, 61
2, 390028, Note_on_c, 0, 70, 64
2, 390038, Note_on_c, 0, 52, 46
2, 390091, Note_on_c, 0, 54, 0
2, 390409, Note_on_c, 0, 72, 73
2, 390425, Note_on_c, 0, 51, 49
2, 390468, Note_on_c, 0, 52, 0
2, 390615, Note_on_c, 0, 70, 0
2, 390794, Note_on_c, 0, 51, 0
2, 390801, Note_on_c, 0, 73, 82
2, 390812, Note_on_c, 0, 49, 48
2, 390819, Control_c, 0, 64, 62
2, 390855, Note_on_c, 0, 72, 0
2, 390917, Note_on_c, 0, 66, 0
2, 391186, Note_on_c, 0, 47, 47
2, 391204, Note_on_c, 0, 65, 62
2, 391251, Note_on_c, 0, 49, 0
2, 391574, Note_on_c, 0, 46, 56
2, 391574, Note_on_c, 0, 67, 64
2, 391597, Note_on_c, 0, 47, 0
2, 391637, Note_on_c, 0, 65, 0
2, 391680, Control_c, 0, 64, 63
2, 391965, Note_on_c, 0, 44, 61
2, 391975, Note_on_c, 0, 68, 62
2, 391984, Note_on_c, 0, 67, 0
2, 392015, Note_on_c, 0, 73, 0
2, 392114, Note_on_c, 0, 46, 0
2, 392340, Note_on_c, 0, 72, 66
2, 392344, Note_on_c, 0, 56, 63
2, 392362, Note_on_c, 0, 44, 0
2, 392581, Control_c, 0, 64, 62
2, 392727, Note_on_c, 0, 58, 62
2, 392729, Note_on_c, 0, 74, 78
2, 392762, Note_on_c, 0, 56, 0
2, 392933, Note_on_c, 0, 72, 0
2, 393140, Note_on_c, 0, 59, 60
2, 393140, Note_on_c, 0, 75, 77
2, 393208, Note_on_c, 0, 58, 0
2, 393233, Note_on_c, 0, 68, 0
2, 393252, Note_on_c, 0, 74, 0
2, 393510, Note_on_c, 0, 61, 55
2, 393517, Note_on_c, 0, 67, 58
2, 393546, Note_on_c, 0, 59, 0
2, 393697, Control_c, 0, 64, 61
2, 393752, Control_c, 0, 64, 60
2, 393772, Control_c, 0, 64, 59
2, 393792, Control_c, 0, 64, 58
2, 393830, Control_c, 0, 64, 57
2, 393848, Control_c, 0, 64, 58
2, 393888, Control_c, 0, 64, 60
2, 393896, Note_on_c, 0, 69, 62
2, 393901, Note_on_c, 0, 59, 58
2, 393909, Control_c, 0, 64, 62
2, 393925, Control_c, 0, 64, 64
2, 393942, Note_on_c, 0, 61, 0
2, 393946, Control_c, 0, 64, 67
2, 393964, Control_c, 0, 64, 71
2, 393964, Note_on_c, 0, 67, 0
2, 393981, Control_c, 0, 64, 79
2, 394002, Control_c, 0, 64, 94
2, 394024, Control_c, 0, 64, 127
2, 394139, Control_c, 0, 64, 111
2, 394156, Control_c, 0, 64, 93
2, 394174, Control_c, 0, 64, 81
2, 394194, Control_c, 0, 64, 73
2, 394216, Control_c, 0, 64, 67
2, 394234, Control_c, 0, 64, 66
2, 394252, Control_c, 0, 64, 65
2, 394272, Control_c, 0, 64, 64
2, 394276, Note_on_c, 0, 59, 0
2, 394280, Note_on_c, 0, 58, 56
2, 394293, Control_c, 0, 64, 63
2, 394293, Note_on_c, 0, 69, 0
2, 394297, Note_on_c, 0, 75, 0
2, 394298, Note_on_c, 0, 70, 68
2, 394310, Control_c, 0, 64, 61
2, 394687, Note_on_c, 0, 46, 48
2, 394692, Note_on_c, 0, 74, 63
2, 394760, Note_on_c, 0, 58, 0
2, 395056, Note_on_c, 0, 75, 71
2, 395068, Note_on_c, 0, 48, 43
2, 395192, Control_c, 0, 64, 60
2, 395234, Note_on_c, 0, 46, 0
2, 395253, Note_on_c, 0, 74, 0
2, 395404, Control_c, 0, 64, 59
2, 395413, Note_on_c, 0, 48, 0
2, 395430, Note_on_c, 0, 77, 79
2, 395436, Note_on_c, 0, 50, 46
2, 395519, Control_c, 0, 64, 60
2, 395575, Control_c, 0, 64, 61
2, 395600, Note_on_c, 0, 75, 0
2, 395615, Control_c, 0, 64, 62
2, 395634, Control_c, 0, 64, 63
2, 395652, Control_c, 0, 64, 64
2, 395673, Control_c, 0, 64, 66
2, 395678, Note_on_c, 0, 70, 0
2, 395691, Control_c, 0, 64, 68
2, 395712, Control_c, 0, 64, 70
2, 395729, Control_c, 0, 64, 73
2, 395749, Control_c, 0, 64, 77
2, 395770, Control_c, 0, 64, 80
2, 395788, Control_c, 0, 64, 83
2, 395797, Note_on_c, 0, 50, 0
2, 395806, Control_c, 0, 64, 86
2, 395826, Control_c, 0, 64, 89
2, 395838, Note_on_c, 0, 48, 36
2, 395845, Control_c, 0, 64, 95
2, 395865, Control_c, 0, 64, 104
2, 395884, Control_c, 0, 64, 116
2, 395906, Control_c, 0, 64, 127
2, 396207, Note_on_c, 0, 68, 53
2, 396214, Note_on_c, 0, 50, 46
2, 396265, Note_on_c, 0, 48, 0
2, 396302, Note_on_c, 0, 50, 0
2, 396305, Note_on_c, 0, 68, 0
2, 396555, Control_c, 0, 64, 113
2, 396575, Control_c, 0, 64, 96
2, 396589, Note_on_c, 0, 66, 55
2, 396593, Control_c, 0, 64, 86
2, 396601, Note_on_c, 0, 51, 49
2, 396613, Control_c, 0, 64, 78
2, 396631, Control_c, 0, 64, 72
2, 396652, Control_c, 0, 64, 68
2, 396670, Control_c, 0, 64, 65
2, 396690, Control_c, 0, 64, 63
2, 396728, Control_c, 0, 64, 62
2, 396767, Control_c, 0, 64, 61
2, 396787, Control_c, 0, 64, 59
2, 396979, Note_on_c, 0, 56, 38
2, 396995, Note_on_c, 0, 75, 56
2, 397101, Note_on_c, 0, 77, 0
2, 397105, Note_on_c, 0, 51, 0
2, 397154, Note_on_c, 0, 74, 66
2, 397166, Note_on_c, 0, 75, 0
2, 397228, Control_c, 0, 64, 60
2, 397363, Note_on_c, 0, 54, 50
2, 397368, Note_on_c, 0, 75, 60
2, 397411, Note_on_c, 0, 56, 0
2, 397420, Note_on_c, 0, 74, 0
2, 397743, Note_on_c, 0, 53, 52
2, 397783, Note_on_c, 0, 54, 0
2, 398130, Note_on_c, 0, 58, 51
2, 398147, Note_on_c, 0, 73, 61
2, 398207, Note_on_c, 0, 53, 0
2, 398294, Note_on_c, 0, 75, 0
2, 398304, Note_on_c, 0, 71, 68
2, 398325, Note_on_c, 0, 73, 0
2, 398512, Note_on_c, 0, 73, 67
2, 398523, Note_on_c, 0, 70, 50
2, 398528, Note_on_c, 0, 56, 54
2, 398562, Note_on_c, 0, 71, 0
2, 398593, Note_on_c, 0, 58, 0
2, 398686, Note_on_c, 0, 66, 0
2, 398904, Note_on_c, 0, 63, 63
2, 398911, Note_on_c, 0, 55, 55
2, 398945, Note_on_c, 0, 56, 0
2, 399304, Note_on_c, 0, 51, 48
2, 399307, Note_on_c, 0, 75, 60
2, 399353, Note_on_c, 0, 73, 0
2, 399378, Note_on_c, 0, 55, 0
2, 399586, Control_c, 0, 64, 59
2, 399665, Control_c, 0, 64, 58
2, 399690, Note_on_c, 0, 55, 41
2, 399699, Note_on_c, 0, 73, 58
2, 399701, Control_c, 0, 64, 57
2, 399759, Note_on_c, 0, 75, 0
2, 399836, Control_c, 0, 64, 58
2, 399875, Control_c, 0, 64, 59
2, 399893, Control_c, 0, 64, 60
2, 399932, Control_c, 0, 64, 61
2, 399951, Control_c, 0, 64, 62
2, 399970, Control_c, 0, 64, 63
2, 399990, Control_c, 0, 64, 65
2, 400007, Control_c, 0, 64, 69
2, 400028, Control_c, 0, 64, 74
2, 400046, Control_c, 0, 64, 79
2, 400067, Control_c, 0, 64, 85
2, 400084, Note_on_c, 0, 56, 50
2, 400086, Control_c, 0, 64, 89
2, 400091, Note_on_c, 0, 71, 61
2, 400101, Note_on_c, 0, 63, 0
2, 400105, Control_c, 0, 64, 92
2, 400125, Control_c, 0, 64, 95
2, 400133, Note_on_c, 0, 51, 0
2, 400138, Note_on_c, 0, 73, 0
2, 400144, Control_c, 0, 64, 98
2, 400151, Note_on_c, 0, 55, 0
2, 400161, Control_c, 0, 64, 100
2, 400202, Control_c, 0, 64, 97
2, 400219, Control_c, 0, 64, 94
2, 400232, Note_on_c, 0, 70, 0
2, 400241, Control_c, 0, 64, 88
2, 400260, Control_c, 0, 64, 81
2, 400277, Control_c, 0, 64, 73
2, 400297, Control_c, 0, 64, 68
2, 400316, Control_c, 0, 64, 65
2, 400354, Control_c, 0, 64, 64
2, 400393, Control_c, 0, 64, 63
2, 400433, Control_c, 0, 64, 62
2, 400451, Control_c, 0, 64, 61
2, 400476, Note_on_c, 0, 61, 47
2, 400480, Note_on_c, 0, 76, 66
2, 400509, Control_c, 0, 64, 60
2, 400533, Note_on_c, 0, 71, 0
2, 400545, Control_c, 0, 64, 59
2, 400566, Control_c, 0, 64, 58
2, 400660, Control_c, 0, 64, 57
2, 400739, Control_c, 0, 64, 56
2, 400874, Control_c, 0, 64, 55
2, 400874, Note_on_c, 0, 75, 60
2, 400884, Note_on_c, 0, 59, 52
2, 400913, Control_c, 0, 64, 56
2, 400947, Note_on_c, 0, 61, 0
2, 400988, Note_on_c, 0, 76, 0
2, 401180, Control_c, 0, 64, 55
2, 401278, Note_on_c, 0, 59, 0
2, 401283, Note_on_c, 0, 58, 54
2, 401290, Note_on_c, 0, 73, 58
2, 401313, Control_c, 0, 64, 54
2, 401325, Note_on_c, 0, 75, 0
2, 401486, Control_c, 0, 64, 55
2, 401584, Control_c, 0, 64, 56
2, 401642, Control_c, 0, 64, 57
2, 401660, Control_c, 0, 64, 58
2, 401669, Note_on_c, 0, 59, 55
2, 401673, Note_on_c, 0, 75, 60
2, 401678, Control_c, 0, 64, 59
2, 401706, Note_on_c, 0, 58, 0
2, 401721, Note_on_c, 0, 73, 0
2, 401832, Control_c, 0, 64, 58
2, 401850, Control_c, 0, 64, 57
2, 401871, Control_c, 0, 64, 55
2, 401891, Control_c, 0, 64, 54
2, 401907, Control_c, 0, 64, 52
2, 401929, Control_c, 0, 64, 49
2, 401949, Control_c, 0, 64, 46
2, 402007, Control_c, 0, 64, 47
2, 402025, Control_c, 0, 64, 51
2, 402044, Control_c, 0, 64, 56
2, 402055, Note_on_c, 0, 61, 55
2, 402060, Note_on_c, 0, 76, 64
2, 402064, Control_c, 0, 64, 60
2, 402083, Control_c, 0, 64, 61
2, 402094, Note_on_c, 0, 56, 0
2, 402094, Note_on_c, 0, 75, 0
2, 402102, Control_c, 0, 64, 63
2, 402120, Control_c, 0, 64, 64
2, 402140, Control_c, 0, 64, 66
2, 402159, Control_c, 0, 64, 70
2, 402179, Control_c, 0, 64, 77
2, 402197, Control_c, 0, 64, 90
2, 402208, Note_on_c, 0, 61, 0
2, 402217, Control_c, 0, 64, 113
2, 402235, Control_c, 0, 64, 127
2, 402392, Control_c, 0, 64, 113
2, 402411, Control_c, 0, 64, 101
2, 402431, Control_c, 0, 64, 92
2, 402450, Control_c, 0, 64, 84
2, 402468, Note_on_c, 0, 63, 62
2, 402468, Note_on_c, 0, 70, 58
2, 402470, Control_c, 0, 64, 76
2, 402491, Control_c, 0, 64, 70
2, 402491, Note_on_c, 0, 55, 53
2, 402507, Control_c, 0, 64, 67
2, 402526, Control_c, 0, 64, 65
2, 402547, Control_c, 0, 64, 64
2, 402564, Control_c, 0, 64, 63
2, 402583, Control_c, 0, 64, 61
2, 402605, Control_c, 0, 64, 58
2, 402615, Note_on_c, 0, 59, 0
2, 402624, Control_c, 0, 64, 55
2, 402641, Control_c, 0, 64, 53
2, 402662, Control_c, 0, 64, 51
2, 402681, Control_c, 0, 64, 48
2, 402699, Control_c, 0, 64, 44
2, 402719, Control_c, 0, 64, 38
2, 402739, Control_c, 0, 64, 26
2, 402759, Control_c, 0, 64, 0
2, 402860, Note_on_c, 0, 75, 67
2, 402874, Control_c, 0, 64, 17
2, 402894, Control_c, 0, 64, 39
2, 402911, Control_c, 0, 64, 52
2, 402929, Control_c, 0, 64, 61
2, 402950, Control_c, 0, 64, 64
2, 402963, Note_on_c, 0, 70, 0
2, 402970, Control_c, 0, 64, 66
2, 402986, Control_c, 0, 64, 68
2, 403006, Control_c, 0, 64, 69
2, 403029, Control_c, 0, 64, 72
2, 403046, Control_c, 0, 64, 74
2, 403066, Control_c, 0, 64, 76
2, 403083, Control_c, 0, 64, 78
2, 403100, Note_on_c, 0, 76, 0
2, 403141, Control_c, 0, 64, 77
2, 403159, Control_c, 0, 64, 76
2, 403180, Control_c, 0, 64, 74
2, 403199, Control_c, 0, 64, 72
2, 403218, Control_c, 0, 64, 69
2, 403236, Control_c, 0, 64, 65
2, 403260, Control_c, 0, 64, 62
2, 403264, Note_on_c, 0, 51, 53
2, 403264, Note_on_c, 0, 73, 59
2, 403275, Control_c, 0, 64, 60
2, 403297, Control_c, 0, 64, 59
2, 403314, Control_c, 0, 64, 58
2, 403333, Control_c, 0, 64, 56
2, 403352, Control_c, 0, 64, 52
2, 403373, Control_c, 0, 64, 45
2, 403377, Note_on_c, 0, 75, 0
2, 403391, Control_c, 0, 64, 37
2, 403411, Control_c, 0, 64, 33
2, 403435, Note_on_c, 0, 63, 0
2, 403448, Control_c, 0, 64, 32
2, 403468, Control_c, 0, 64, 28
2, 403486, Control_c, 0, 64, 22
2, 403504, Control_c, 0, 64, 15
2, 403527, Control_c, 0, 64, 14
2, 403545, Control_c, 0, 64, 16
2, 403564, Control_c, 0, 64, 25
2, 403581, Control_c, 0, 64, 30
2, 403622, Control_c, 0, 64, 32
2, 403639, Control_c, 0, 64, 37
2, 403651, Note_on_c, 0, 56, 54
2, 403661, Control_c, 0, 64, 47
2, 403666, Note_on_c, 0, 71, 66
2, 403680, Control_c, 0, 64, 56
2, 403691, Note_on_c, 0, 73, 0
2, 403700, Control_c, 0, 64, 61
2, 403718, Control_c, 0, 64, 62
2, 403747, Note_on_c, 0, 51, 0
2, 403754, Note_on_c, 0, 55, 0
2, 403776, Control_c, 0, 64, 63
2, 403793, Control_c, 0, 64, 64
2, 403813, Control_c, 0, 64, 65
2, 403833, Control_c, 0, 64, 68
2, 403852, Control_c, 0, 64, 74
2, 403872, Control_c, 0, 64, 85
2, 403889, Control_c, 0, 64, 127
2, 403927, Note_on_c, 0, 71, 0
2, 404044, Note_on_c, 0, 58, 64
2, 404097, Note_on_c, 0, 58, 0
2, 404108, Note_on_c, 0, 56, 0
2, 404469, Note_on_c, 0, 59, 61
2, 404476, Note_on_c, 0, 44, 50
2, 404524, Control_c, 0, 64, 110
2, 404544, Control_c, 0, 64, 93
2, 404564, Control_c, 0, 64, 87
2, 404580, Control_c, 0, 64, 85
2, 404601, Control_c, 0, 64, 83
2, 404619, Control_c, 0, 64, 78
2, 404640, Control_c, 0, 64, 72
2, 404657, Control_c, 0, 64, 68
2, 404677, Control_c, 0, 64, 67
2, 404716, Control_c, 0, 64, 66
2, 404773, Control_c, 0, 64, 65
2, 404868, Control_c, 0, 64, 64
2, 404873, Note_on_c, 0, 58, 62
2, 404882, Note_on_c, 0, 43, 44
2, 404925, Control_c, 0, 64, 63
2, 404942, Note_on_c, 0, 44, 0
2, 404947, Control_c, 0, 64, 62
2, 404964, Control_c, 0, 64, 61
2, 404985, Control_c, 0, 64, 60
2, 404989, Note_on_c, 0, 59, 0
2, 405022, Control_c, 0, 64, 59
2, 405042, Control_c, 0, 64, 58
2, 405158, Control_c, 0, 64, 57
2, 405257, Note_on_c, 0, 63, 61
2, 405329, Control_c, 0, 64, 56
2, 405368, Control_c, 0, 64, 57
2, 405408, Control_c, 0, 64, 56
2, 405522, Control_c, 0, 64, 57
2, 405664, Note_on_c, 0, 51, 52
2, 405667, Note_on_c, 0, 42, 38
2, 405690, Note_on_c, 0, 43, 0
2, 405725, Note_on_c, 0, 58, 0
2, 405926, Control_c, 0, 64, 56
2, 406051, Note_on_c, 0, 56, 56
2, 406055, Note_on_c, 0, 41, 35
2, 406107, Note_on_c, 0, 42, 0
2, 406117, Control_c, 0, 64, 55
2, 406174, Control_c, 0, 64, 54
2, 406194, Control_c, 0, 64, 53
2, 406233, Control_c, 0, 64, 51
2, 406251, Control_c, 0, 64, 50
2, 406272, Control_c, 0, 64, 49
2, 406291, Control_c, 0, 64, 47
2, 406310, Control_c, 0, 64, 46
2, 406327, Control_c, 0, 64, 45
2, 406373, Note_on_c, 0, 63, 0
2, 406413, Note_on_c, 0, 51, 0
2, 406424, Control_c, 0, 64, 48
2, 406431, Note_on_c, 0, 59, 61
2, 406444, Control_c, 0, 64, 52
2, 406463, Control_c, 0, 64, 58
2, 406481, Control_c, 0, 64, 61
2, 406503, Control_c, 0, 64, 63
2, 406520, Control_c, 0, 64, 65
2, 406534, Note_on_c, 0, 56, 0
2, 406543, Control_c, 0, 64, 68
2, 406557, Control_c, 0, 64, 72
2, 406577, Control_c, 0, 64, 78
2, 406597, Control_c, 0, 64, 85
2, 406619, Control_c, 0, 64, 87
2, 406733, Control_c, 0, 64, 86
2, 406752, Control_c, 0, 64, 85
2, 406769, Control_c, 0, 64, 81
2, 406788, Control_c, 0, 64, 76
2, 406810, Control_c, 0, 64, 70
2, 406830, Control_c, 0, 64, 65
2, 406834, Note_on_c, 0, 58, 50
2, 406834, Note_on_c, 0, 61, 56
2, 406840, Note_on_c, 0, 40, 40
2, 406844, Note_on_c, 0, 59, 0
2, 406847, Control_c, 0, 64, 61
2, 406866, Control_c, 0, 64, 59
2, 406884, Control_c, 0, 64, 60
2, 406894, Note_on_c, 0, 41, 0
2, 406904, Control_c, 0, 64, 62
2, 406923, Control_c, 0, 64, 64
2, 406943, Control_c, 0, 64, 68
2, 406961, Control_c, 0, 64, 74
2, 406982, Control_c, 0, 64, 81
2, 406999, Control_c, 0, 64, 86
2, 407021, Control_c, 0, 64, 87
2, 407060, Control_c, 0, 64, 86
2, 407096, Control_c, 0, 64, 85
2, 407135, Control_c, 0, 64, 83
2, 407155, Control_c, 0, 64, 81
2, 407174, Control_c, 0, 64, 77
2, 407192, Control_c, 0, 64, 73
2, 407206, Note_on_c, 0, 39, 50
2, 407213, Control_c, 0, 64, 69
2, 407232, Control_c, 0, 64, 66
2, 407240, Note_on_c, 0, 59, 56
2, 407240, Note_on_c, 0, 66, 56
2, 407251, Control_c, 0, 64, 64
2, 407261, Note_on_c, 0, 58, 0
2, 407272, Control_c, 0, 64, 63
2, 407272, Note_on_c, 0, 61, 0
2, 407288, Control_c, 0, 64, 62
2, 407309, Control_c, 0, 64, 60
2, 407309, Note_on_c, 0, 40, 0
2, 407327, Control_c, 0, 64, 58
2, 407346, Control_c, 0, 64, 56
2, 407363, Control_c, 0, 64, 54
2, 407384, Control_c, 0, 64, 52
2, 407423, Control_c, 0, 64, 54
2, 407442, Control_c, 0, 64, 58
2, 407462, Control_c, 0, 64, 61
2, 407481, Control_c, 0, 64, 63
2, 407499, Control_c, 0, 64, 65
2, 407518, Control_c, 0, 64, 68
2, 407538, Control_c, 0, 64, 73
2, 407556, Control_c, 0, 64, 82
2, 407576, Control_c, 0, 64, 106
2, 407598, Control_c, 0, 64, 127
2, 407632, Note_on_c, 0, 58, 68
2, 407676, Note_on_c, 0, 66, 0
2, 407692, Note_on_c, 0, 59, 0
2, 407963, Control_c, 0, 64, 100
2, 407980, Control_c, 0, 64, 80
2, 407994, Note_on_c, 0, 68, 61
2, 407999, Control_c, 0, 64, 70
2, 407999, Note_on_c, 0, 56, 56
2, 408021, Control_c, 0, 64, 64
2, 408021, Note_on_c, 0, 39, 0
2, 408026, Note_on_c, 0, 41, 48
2, 408038, Control_c, 0, 64, 61
2, 408052, Note_on_c, 0, 58, 0
2, 408056, Control_c, 0, 64, 60
2, 408095, Control_c, 0, 64, 61
2, 408115, Control_c, 0, 64, 62
2, 408133, Control_c, 0, 64, 65
2, 408151, Control_c, 0, 64, 68
2, 408172, Control_c, 0, 64, 73
2, 408191, Control_c, 0, 64, 81
2, 408211, Control_c, 0, 64, 89
2, 408229, Control_c, 0, 64, 93
2, 408266, Control_c, 0, 64, 91
2, 408286, Control_c, 0, 64, 89
2, 408305, Control_c, 0, 64, 86
2, 408325, Control_c, 0, 64, 84
2, 408345, Control_c, 0, 64, 81
2, 408367, Control_c, 0, 64, 77
2, 408381, Control_c, 0, 64, 73
2, 408403, Control_c, 0, 64, 68
2, 408420, Control_c, 0, 64, 64
2, 408425, Note_on_c, 0, 58, 57
2, 408429, Note_on_c, 0, 42, 51
2, 408443, Control_c, 0, 64, 62
2, 408460, Control_c, 0, 64, 61
2, 408472, Note_on_c, 0, 68, 0
2, 408481, Control_c, 0, 64, 60
2, 408498, Control_c, 0, 64, 61
2, 408520, Control_c, 0, 64, 62
2, 408536, Control_c, 0, 64, 64
2, 408547, Note_on_c, 0, 41, 0
2, 408556, Control_c, 0, 64, 69
2, 408556, Note_on_c, 0, 56, 0
2, 408575, Control_c, 0, 64, 76
2, 408596, Control_c, 0, 64, 87
2, 408612, Control_c, 0, 64, 112
2, 408633, Control_c, 0, 64, 127
2, 408766, Control_c, 0, 64, 109
2, 408787, Control_c, 0, 64, 92
2, 408799, Note_on_c, 0, 66, 67
2, 408805, Control_c, 0, 64, 78
2, 408819, Note_on_c, 0, 59, 61
2, 408824, Control_c, 0, 64, 69
2, 408843, Control_c, 0, 64, 64
2, 408847, Note_on_c, 0, 58, 0
2, 408864, Control_c, 0, 64, 60
2, 408902, Control_c, 0, 64, 61
2, 408923, Control_c, 0, 64, 63
2, 408940, Control_c, 0, 64, 67
2, 408960, Control_c, 0, 64, 73
2, 408978, Control_c, 0, 64, 85
2, 408997, Control_c, 0, 64, 106
2, 409016, Control_c, 0, 64, 127
2, 409148, Note_on_c, 0, 66, 0
2, 409170, Control_c, 0, 64, 110
2, 409192, Control_c, 0, 64, 87
2, 409192, Note_on_c, 0, 64, 66
2, 409201, Note_on_c, 0, 43, 57
2, 409205, Note_on_c, 0, 42, 0
2, 409205, Note_on_c, 0, 61, 57
2, 409210, Control_c, 0, 64, 72
2, 409227, Control_c, 0, 64, 62
2, 409251, Control_c, 0, 64, 56
2, 409251, Note_on_c, 0, 59, 0
2, 409265, Control_c, 0, 64, 55
2, 409285, Control_c, 0, 64, 57
2, 409303, Control_c, 0, 64, 60
2, 409322, Control_c, 0, 64, 65
2, 409343, Note_on_c, 0, 64, 0
2, 409345, Control_c, 0, 64, 72
2, 409362, Control_c, 0, 64, 96
2, 409385, Control_c, 0, 64, 127
2, 409385, Note_on_c, 0, 61, 0
2, 409573, Control_c, 0, 64, 109
2, 409595, Control_c, 0, 64, 86
2, 409602, Note_on_c, 0, 63, 64
2, 409609, Note_on_c, 0, 43, 0
2, 409612, Control_c, 0, 64, 73
2, 409616, Note_on_c, 0, 59, 60
2, 409628, Note_on_c, 0, 44, 54
2, 409633, Control_c, 0, 64, 64
2, 409650, Control_c, 0, 64, 60
2, 409669, Control_c, 0, 64, 57
2, 409692, Control_c, 0, 64, 55
2, 409706, Control_c, 0, 64, 53
2, 409726, Control_c, 0, 64, 54
2, 409745, Control_c, 0, 64, 57
2, 409766, Control_c, 0, 64, 63
2, 409785, Control_c, 0, 64, 67
2, 409804, Control_c, 0, 64, 76
2, 409821, Control_c, 0, 64, 95
2, 409842, Control_c, 0, 64, 127
2, 409856, Note_on_c, 0, 63, 0
2, 410002, Note_on_c, 0, 68, 68
2, 410014, Note_on_c, 0, 64, 64
2, 410034, Control_c, 0, 64, 118
2, 410052, Control_c, 0, 64, 91
2, 410073, Control_c, 0, 64, 79
2, 410094, Control_c, 0, 64, 71
2, 410111, Control_c, 0, 64, 66
2, 410130, Control_c, 0, 64, 64
2, 410168, Control_c, 0, 64, 63
2, 410209, Control_c, 0, 64, 62
2, 410305, Control_c, 0, 64, 61
2, 410325, Control_c, 0, 64, 59
2, 410342, Control_c, 0, 64, 56
2, 410361, Control_c, 0, 64, 51
2, 410381, Control_c, 0, 64, 45
2, 410395, Note_on_c, 0, 56, 61
2, 410395, Note_on_c, 0, 71, 58
2, 410400, Control_c, 0, 64, 40
2, 410420, Control_c, 0, 64, 39
2, 410440, Control_c, 0, 64, 40
2, 410456, Control_c, 0, 64, 47
2, 410464, Note_on_c, 0, 59, 0
2, 410464, Note_on_c, 0, 68, 0
2, 410475, Control_c, 0, 64, 55
2, 410488, Note_on_c, 0, 71, 0
2, 410494, Control_c, 0, 64, 62
2, 410494, Note_on_c, 0, 64, 0
2, 410512, Control_c, 0, 64, 66
2, 410532, Control_c, 0, 64, 72
2, 410552, Control_c, 0, 64, 82
2, 410570, Control_c, 0, 64, 93
2, 410590, Control_c, 0, 64, 102
2, 410609, Control_c, 0, 64, 103
2, 410688, Control_c, 0, 64, 102
2, 410707, Control_c, 0, 64, 99
2, 410726, Control_c, 0, 64, 94
2, 410744, Control_c, 0, 64, 85
2, 410765, Control_c, 0, 64, 77
2, 410781, Control_c, 0, 64, 71
2, 410790, Note_on_c, 0, 65, 56
2, 410794, Note_on_c, 0, 58, 59
2, 410803, Control_c, 0, 64, 67
2, 410822, Control_c, 0, 64, 64
2, 410842, Control_c, 0, 64, 61
2, 410862, Control_c, 0, 64, 59
2, 410877, Control_c, 0, 64, 56
2, 410897, Control_c, 0, 64, 53
2, 410916, Control_c, 0, 64, 50
2, 410935, Control_c, 0, 64, 48
2, 410954, Control_c, 0, 64, 47
2, 410976, Control_c, 0, 64, 49
2, 410993, Control_c, 0, 64, 55
2, 411013, Control_c, 0, 64, 60
2, 411031, Control_c, 0, 64, 62
2, 411050, Control_c, 0, 64, 63
2, 411071, Control_c, 0, 64, 64
2, 411109, Control_c, 0, 64, 66
2, 411129, Control_c, 0, 64, 68
2, 411149, Control_c, 0, 64, 74
2, 411170, Control_c, 0, 64, 81
2, 411170, Note_on_c, 0, 56, 0
2, 411172, Note_on_c, 0, 61, 57
2, 411188, Control_c, 0, 64, 86
2, 411205, Control_c, 0, 64, 88
2, 411223, Control_c, 0, 64, 87
2, 411245, Control_c, 0, 64, 85
2, 411250, Note_on_c, 0, 58, 0
2, 411263, Control_c, 0, 64, 81
2, 411284, Control_c, 0, 64, 78
2, 411338, Control_c, 0, 64, 77
2, 411376, Control_c, 0, 64, 75
2, 411415, Control_c, 0, 64, 74
2, 411472, Control_c, 0, 64, 75
2, 411513, Control_c, 0, 64, 74
2, 411561, Note_on_c, 0, 59, 56
2, 411580, Note_on_c, 0, 61, 0
2, 411742, Control_c, 0, 64, 73
2, 411781, Control_c, 0, 64, 72
2, 411876, Control_c, 0, 64, 71
2, 411894, Control_c, 0, 64, 69
2, 411914, Control_c, 0, 64, 67
2, 411935, Control_c, 0, 64, 66
2, 411956, Control_c, 0, 64, 65
2, 411960, Note_on_c, 0, 61, 54
2, 411968, Note_on_c, 0, 59, 0
2, 411968, Note_on_c, 0, 70, 55
2, 411973, Control_c, 0, 64, 63
2, 411978, Note_on_c, 0, 43, 41
2, 411994, Control_c, 0, 64, 62
2, 412010, Control_c, 0, 64, 60
2, 412030, Control_c, 0, 64, 57
2, 412052, Control_c, 0, 64, 54
2, 412061, Note_on_c, 0, 44, 0
2, 412069, Control_c, 0, 64, 50
2, 412086, Control_c, 0, 64, 47
2, 412093, Note_on_c, 0, 65, 0
2, 412107, Control_c, 0, 64, 46
2, 412145, Control_c, 0, 64, 47
2, 412163, Control_c, 0, 64, 49
2, 412185, Control_c, 0, 64, 52
2, 412203, Control_c, 0, 64, 57
2, 412222, Control_c, 0, 64, 61
2, 412242, Control_c, 0, 64, 64
2, 412260, Control_c, 0, 64, 66
2, 412281, Control_c, 0, 64, 67
2, 412300, Control_c, 0, 64, 69
2, 412316, Control_c, 0, 64, 71
2, 412337, Control_c, 0, 64, 74
2, 412348, Note_on_c, 0, 51, 47
2, 412362, Control_c, 0, 64, 77
2, 412362, Note_on_c, 0, 59, 54
2, 412362, Note_on_c, 0, 61, 0
2, 412370, Note_on_c, 0, 70, 0
2, 412377, Control_c, 0, 64, 80
2, 412395, Control_c, 0, 64, 81
2, 412530, Control_c, 0, 64, 80
2, 412548, Control_c, 0, 64, 79
2, 412626, Control_c, 0, 64, 78
2, 412645, Control_c, 0, 64, 77
2, 412664, Control_c, 0, 64, 76
2, 412683, Control_c, 0, 64, 74
2, 412713, Note_on_c, 0, 58, 49
2, 412723, Control_c, 0, 64, 73
2, 412727, Note_on_c, 0, 49, 47
2, 412771, Note_on_c, 0, 51, 0
2, 412777, Note_on_c, 0, 59, 0
2, 412800, Control_c, 0, 64, 72
2, 412857, Control_c, 0, 64, 71
2, 412970, Control_c, 0, 64, 70
2, 413010, Control_c, 0, 64, 69
2, 413047, Control_c, 0, 64, 68
2, 413066, Control_c, 0, 64, 67
2, 413088, Control_c, 0, 64, 66
2, 413106, Control_c, 0, 64, 64
2, 413119, Note_on_c, 0, 59, 50
2, 413124, Control_c, 0, 64, 63
2, 413129, Note_on_c, 0, 51, 43
2, 413136, Note_on_c, 0, 49, 0
2, 413145, Control_c, 0, 64, 62
2, 413182, Control_c, 0, 64, 61
2, 413219, Control_c, 0, 64, 59
2, 413232, Note_on_c, 0, 58, 0
2, 413242, Control_c, 0, 64, 58
2, 413298, Control_c, 0, 64, 57
2, 413483, Note_on_c, 0, 49, 28
2, 413590, Note_on_c, 0, 51, 0
2, 413642, Control_c, 0, 64, 56
2, 413853, Control_c, 0, 64, 57
2, 413899, Note_on_c, 0, 47, 28
2, 413904, Note_on_c, 0, 68, 57
2, 413931, Control_c, 0, 64, 58
2, 413950, Note_on_c, 0, 49, 0
2, 413952, Control_c, 0, 64, 59
2, 413957, Note_on_c, 0, 59, 0
2, 413972, Control_c, 0, 64, 60
2, 413992, Control_c, 0, 64, 63
2, 414008, Control_c, 0, 64, 65
2, 414027, Control_c, 0, 64, 67
2, 414047, Control_c, 0, 64, 70
2, 414065, Control_c, 0, 64, 72
2, 414084, Control_c, 0, 64, 74
2, 414105, Control_c, 0, 64, 75
2, 414183, Control_c, 0, 64, 74
2, 414220, Control_c, 0, 64, 73
2, 414240, Control_c, 0, 64, 72
2, 414259, Control_c, 0, 64, 71
2, 414280, Control_c, 0, 64, 70
2, 414280, Note_on_c, 0, 58, 53
2, 414282, Note_on_c, 0, 49, 46
2, 414298, Control_c, 0, 64, 69
2, 414333, Note_on_c, 0, 47, 0
2, 414337, Control_c, 0, 64, 68
2, 414374, Control_c, 0, 64, 67
2, 414392, Control_c, 0, 64, 66
2, 414450, Control_c, 0, 64, 65
2, 414528, Control_c, 0, 64, 64
2, 414607, Control_c, 0, 64, 63
2, 414625, Control_c, 0, 64, 62
2, 414641, Control_c, 0, 64, 61
2, 414662, Control_c, 0, 64, 60
2, 414662, Note_on_c, 0, 63, 49
2, 414681, Note_on_c, 0, 47, 32
2, 414723, Note_on_c, 0, 49, 0
2, 414723, Note_on_c, 0, 58, 0
2, 414740, Control_c, 0, 64, 61
2, 414757, Control_c, 0, 64, 62
2, 414777, Control_c, 0, 64, 64
2, 414794, Control_c, 0, 64, 65
2, 414813, Control_c, 0, 64, 67
2, 414833, Control_c, 0, 64, 70
2, 414852, Control_c, 0, 64, 71
2, 414880, Note_on_c, 0, 68, 0
2, 414892, Control_c, 0, 64, 70
2, 414967, Control_c, 0, 64, 69
2, 415026, Control_c, 0, 64, 68
2, 415046, Note_on_c, 0, 67, 54
2, 415048, Note_on_c, 0, 61, 47
2, 415055, Note_on_c, 0, 46, 42
2, 415096, Note_on_c, 0, 47, 0
2, 415107, Control_c, 0, 64, 67
2, 415107, Note_on_c, 0, 63, 0
2, 415164, Note_on_c, 0, 43, 0
2, 415180, Control_c, 0, 64, 66
2, 415258, Control_c, 0, 64, 65
2, 415332, Control_c, 0, 64, 64
2, 415413, Control_c, 0, 64, 63
2, 415440, Note_on_c, 0, 63, 51
2, 415440, Note_on_c, 0, 68, 62
2, 415460, Note_on_c, 0, 47, 43
2, 415464, Note_on_c, 0, 67, 0
2, 415473, Note_on_c, 0, 46, 0
2, 415487, Control_c, 0, 64, 62
2, 415496, Note_on_c, 0, 61, 0
2, 415545, Control_c, 0, 64, 60
2, 415562, Control_c, 0, 64, 59
2, 415583, Control_c, 0, 64, 57
2, 415601, Control_c, 0, 64, 56
2, 415622, Control_c, 0, 64, 55
2, 415640, Control_c, 0, 64, 54
2, 415659, Control_c, 0, 64, 53
2, 415679, Control_c, 0, 64, 50
2, 415697, Control_c, 0, 64, 44
2, 415718, Control_c, 0, 64, 37
2, 415735, Control_c, 0, 64, 30
2, 415754, Control_c, 0, 64, 24
2, 415774, Control_c, 0, 64, 20
2, 415824, Note_on_c, 0, 61, 45
2, 415843, Note_on_c, 0, 46, 37
2, 415853, Control_c, 0, 64, 25
2, 415858, Note_on_c, 0, 63, 0
2, 415867, Note_on_c, 0, 47, 0
2, 415872, Control_c, 0, 64, 35
2, 415891, Control_c, 0, 64, 46
2, 415908, Control_c, 0, 64, 54
2, 415931, Control_c, 0, 64, 59
2, 415946, Control_c, 0, 64, 60
2, 415967, Control_c, 0, 64, 61
2, 416006, Control_c, 0, 64, 62
2, 416023, Control_c, 0, 64, 64
2, 416043, Control_c, 0, 64, 65
2, 416062, Control_c, 0, 64, 68
2, 416082, Control_c, 0, 64, 72
2, 416101, Control_c, 0, 64, 79
2, 416120, Control_c, 0, 64, 89
2, 416138, Control_c, 0, 64, 109
2, 416160, Control_c, 0, 64, 127
2, 416203, Note_on_c, 0, 59, 50
2, 416207, Note_on_c, 0, 44, 48
2, 416287, Note_on_c, 0, 44, 0
2, 416292, Note_on_c, 0, 61, 0
2, 416296, Note_on_c, 0, 46, 0
2, 416301, Note_on_c, 0, 59, 0
2, 416336, Note_on_c, 0, 68, 0
2, 416605, Note_on_c, 0, 61, 60
2, 416610, Note_on_c, 0, 51, 58
2, 416660, Control_c, 0, 64, 103
2, 416676, Control_c, 0, 64, 88
2, 416696, Control_c, 0, 64, 80
2, 416717, Control_c, 0, 64, 74
2, 416737, Control_c, 0, 64, 71
2, 416753, Control_c, 0, 64, 68
2, 416774, Control_c, 0, 64, 67
2, 416792, Control_c, 0, 64, 65
2, 416809, Control_c, 0, 64, 64
2, 416832, Control_c, 0, 64, 63
2, 416849, Control_c, 0, 64, 62
2, 416906, Control_c, 0, 64, 63
2, 416926, Control_c, 0, 64, 62
2, 416989, Note_on_c, 0, 59, 54
2, 416993, Note_on_c, 0, 75, 67
2, 417052, Note_on_c, 0, 61, 0
2, 417099, Control_c, 0, 64, 61
2, 417234, Control_c, 0, 64, 60
2, 417369, Note_on_c, 0, 73, 72
2, 417382, Note_on_c, 0, 58, 59
2, 417435, Note_on_c, 0, 59, 0
2, 417444, Note_on_c, 0, 75, 0
2, 417466, Control_c, 0, 64, 59
2, 417579, Control_c, 0, 64, 58
2, 417656, Control_c, 0, 64, 57
2, 417678, Control_c, 0, 64, 56
2, 417695, Control_c, 0, 64, 55
2, 417714, Control_c, 0, 64, 54
2, 417753, Control_c, 0, 64, 52
2, 417765, Note_on_c, 0, 59, 55
2, 417765, Note_on_c, 0, 75, 75
2, 417773, Control_c, 0, 64, 51
2, 417792, Control_c, 0, 64, 50
2, 417811, Note_on_c, 0, 58, 0
2, 417815, Control_c, 0, 64, 49
2, 417815, Note_on_c, 0, 73, 0
2, 417829, Control_c, 0, 64, 48
2, 417924, Control_c, 0, 64, 47
2, 417963, Control_c, 0, 64, 46
2, 418000, Control_c, 0, 64, 45
2, 418022, Control_c, 0, 64, 44
2, 418040, Control_c, 0, 64, 45
2, 418059, Control_c, 0, 64, 49
2, 418077, Control_c, 0, 64, 53
2, 418101, Control_c, 0, 64, 54
2, 418118, Control_c, 0, 64, 55
2, 418135, Control_c, 0, 64, 57
2, 418148, Note_on_c, 0, 58, 50
2, 418148, Note_on_c, 0, 73, 67
2, 418155, Control_c, 0, 64, 61
2, 418174, Control_c, 0, 64, 66
2, 418190, Note_on_c, 0, 59, 0
2, 418197, Control_c, 0, 64, 71
2, 418214, Control_c, 0, 64, 79
2, 418224, Note_on_c, 0, 51, 0
2, 418224, Note_on_c, 0, 58, 0
2, 418233, Control_c, 0, 64, 89
2, 418251, Control_c, 0, 64, 102
2, 418272, Control_c, 0, 64, 127
2, 418502, Control_c, 0, 64, 95
2, 418511, Note_on_c, 0, 75, 0
2, 418520, Control_c, 0, 64, 79
2, 418539, Control_c, 0, 64, 68
2, 418545, Note_on_c, 0, 71, 61
2, 418548, Note_on_c, 0, 56, 54
2, 418557, Control_c, 0, 64, 63
2, 418561, Note_on_c, 0, 44, 46
2, 418578, Control_c, 0, 64, 60
2, 418600, Note_on_c, 0, 73, 0
2, 418617, Control_c, 0, 64, 61
2, 418634, Control_c, 0, 64, 64
2, 418654, Control_c, 0, 64, 69
2, 418672, Control_c, 0, 64, 81
2, 418677, Note_on_c, 0, 44, 0
2, 418694, Control_c, 0, 64, 127
2, 418704, Note_on_c, 0, 56, 0
2, 418950, Note_on_c, 0, 58, 54
2, 418950, Note_on_c, 0, 73, 64
2, 418979, Note_on_c, 0, 52, 48
2, 418982, Note_on_c, 0, 71, 0
2, 418986, Control_c, 0, 64, 102
2, 419002, Control_c, 0, 64, 88
2, 419021, Control_c, 0, 64, 81
2, 419038, Control_c, 0, 64, 77
2, 419058, Control_c, 0, 64, 73
2, 419078, Control_c, 0, 64, 69
2, 419095, Control_c, 0, 64, 67
2, 419115, Control_c, 0, 64, 65
2, 419134, Control_c, 0, 64, 64
2, 419211, Control_c, 0, 64, 63
2, 419248, Control_c, 0, 64, 62
2, 419343, Note_on_c, 0, 71, 58
2, 419347, Note_on_c, 0, 56, 43
2, 419364, Control_c, 0, 64, 61
2, 419384, Control_c, 0, 64, 60
2, 419441, Note_on_c, 0, 58, 0
2, 419460, Control_c, 0, 64, 59
2, 419489, Note_on_c, 0, 73, 0
2, 419578, Control_c, 0, 64, 58
2, 419672, Control_c, 0, 64, 57
2, 419740, Note_on_c, 0, 70, 56
2, 419745, Note_on_c, 0, 55, 45
2, 419821, Note_on_c, 0, 56, 0
2, 419821, Note_on_c, 0, 71, 0
2, 419883, Control_c, 0, 64, 56
2, 419998, Control_c, 0, 64, 55
2, 420017, Control_c, 0, 64, 54
2, 420035, Control_c, 0, 64, 53
2, 420076, Control_c, 0, 64, 52
2, 420094, Control_c, 0, 64, 51
2, 420112, Control_c, 0, 64, 50
2, 420140, Note_on_c, 0, 71, 61
2, 420147, Note_on_c, 0, 55, 0
2, 420153, Control_c, 0, 64, 49
2, 420162, Note_on_c, 0, 56, 33
2, 420172, Control_c, 0, 64, 48
2, 420192, Control_c, 0, 64, 47
2, 420196, Note_on_c, 0, 52, 0
2, 420210, Control_c, 0, 64, 46
2, 420229, Control_c, 0, 64, 45
2, 420247, Control_c, 0, 64, 43
2, 420266, Control_c, 0, 64, 41
2, 420275, Note_on_c, 0, 70, 0
2, 420289, Control_c, 0, 64, 39
2, 420304, Control_c, 0, 64, 37
2, 420323, Control_c, 0, 64, 34
2, 420343, Control_c, 0, 64, 31
2, 420363, Control_c, 0, 64, 28
2, 420384, Control_c, 0, 64, 22
2, 420401, Control_c, 0, 64, 18
2, 420423, Control_c, 0, 64, 16
2, 420441, Control_c, 0, 64, 15
2, 420458, Control_c, 0, 64, 13
2, 420477, Control_c, 0, 64, 0
2, 420533, Note_on_c, 0, 51, 41
2, 420918, Note_on_c, 0, 50, 33
2, 420965, Note_on_c, 0, 51, 0
2, 421247, Control_c, 0, 64, 15
2, 421265, Control_c, 0, 64, 16
2, 421317, Note_on_c, 0, 51, 32
2, 421324, Control_c, 0, 64, 19
2, 421342, Control_c, 0, 64, 27
2, 421361, Control_c, 0, 64, 32
2, 421367, Note_on_c, 0, 50, 0
2, 421383, Control_c, 0, 64, 33
2, 421458, Control_c, 0, 64, 35
2, 421476, Control_c, 0, 64, 38
2, 421496, Control_c, 0, 64, 40
2, 421516, Control_c, 0, 64, 42
2, 421535, Control_c, 0, 64, 43
2, 421553, Control_c, 0, 64, 44
2, 421593, Control_c, 0, 64, 45
2, 421611, Control_c, 0, 64, 46
2, 421669, Control_c, 0, 64, 47
2, 421708, Control_c, 0, 64, 48
2, 421726, Control_c, 0, 64, 49
2, 421732, Note_on_c, 0, 70, 53
2, 421739, Note_on_c, 0, 61, 37
2, 421746, Control_c, 0, 64, 50
2, 421792, Note_on_c, 0, 56, 0
2, 421805, Note_on_c, 0, 71, 0
2, 421938, Control_c, 0, 64, 49
2, 422109, Note_on_c, 0, 68, 58
2, 422116, Note_on_c, 0, 59, 46
2, 422129, Control_c, 0, 64, 48
2, 422151, Note_on_c, 0, 61, 0
2, 422151, Note_on_c, 0, 70, 0
2, 422282, Control_c, 0, 64, 47
2, 422455, Control_c, 0, 64, 46
2, 422507, Note_on_c, 0, 70, 61
2, 422521, Note_on_c, 0, 59, 0
2, 422521, Note_on_c, 0, 61, 34
2, 422590, Note_on_c, 0, 68, 0
2, 422857, Control_c, 0, 64, 47
2, 422900, Note_on_c, 0, 59, 52
2, 422992, Note_on_c, 0, 61, 0
2, 423279, Control_c, 0, 64, 48
2, 423294, Note_on_c, 0, 58, 47
2, 423319, Note_on_c, 0, 59, 0
2, 423690, Note_on_c, 0, 59, 44
2, 423763, Note_on_c, 0, 58, 0
2, 423816, Control_c, 0, 64, 49
2, 423931, Control_c, 0, 64, 50
2, 424094, Note_on_c, 0, 68, 48
2, 424209, Note_on_c, 0, 70, 0
2, 424468, Control_c, 0, 64, 51
2, 424490, Control_c, 0, 64, 53
2, 424490, Note_on_c, 0, 67, 47
2, 424525, Control_c, 0, 64, 54
2, 424534, Note_on_c, 0, 68, 0
2, 424545, Control_c, 0, 64, 55
2, 424564, Control_c, 0, 64, 56
2, 424587, Control_c, 0, 64, 57
2, 424603, Control_c, 0, 64, 58
2, 424623, Control_c, 0, 64, 60
2, 424689, Note_on_c, 0, 51, 0
2, 424720, Control_c, 0, 64, 61
2, 424738, Control_c, 0, 64, 62
2, 424881, Note_on_c, 0, 68, 62
2, 424909, Control_c, 0, 64, 63
2, 424971, Control_c, 0, 64, 64
2, 424983, Note_on_c, 0, 67, 0
2, 425064, Control_c, 0, 64, 65
2, 425216, Control_c, 0, 64, 64
2, 425256, Control_c, 0, 64, 63
2, 425275, Control_c, 0, 64, 62
2, 425286, Note_on_c, 0, 49, 46
2, 425295, Control_c, 0, 64, 61
2, 425312, Control_c, 0, 64, 60
2, 425350, Control_c, 0, 64, 61
2, 425372, Control_c, 0, 64, 62
2, 425390, Control_c, 0, 64, 63
2, 425409, Control_c, 0, 64, 64
2, 425449, Control_c, 0, 64, 65
2, 425485, Control_c, 0, 64, 67
2, 425505, Control_c, 0, 64, 69
2, 425527, Control_c, 0, 64, 73
2, 425545, Control_c, 0, 64, 78
2, 425563, Control_c, 0, 64, 83
2, 425583, Control_c, 0, 64, 87
2, 425603, Control_c, 0, 64, 90
2, 425620, Control_c, 0, 64, 93
2, 425640, Control_c, 0, 64, 97
2, 425645, Note_on_c, 0, 47, 60
2, 425654, Note_on_c, 0, 59, 0
2, 425661, Control_c, 0, 64, 105
2, 425678, Control_c, 0, 64, 127
2, 425689, Note_on_c, 0, 49, 0
2, 426037, Note_on_c, 0, 58, 66
2, 426053, Note_on_c, 0, 47, 0
2, 426062, Control_c, 0, 64, 97
2, 426062, Note_on_c, 0, 49, 63
2, 426081, Control_c, 0, 64, 83
2, 426104, Control_c, 0, 64, 74
2, 426119, Control_c, 0, 64, 67
2, 426138, Control_c, 0, 64, 63
2, 426158, Control_c, 0, 64, 61
2, 426177, Control_c, 0, 64, 60
2, 426216, Control_c, 0, 64, 61
2, 426253, Control_c, 0, 64, 62
2, 426274, Control_c, 0, 64, 63
2, 426295, Control_c, 0, 64, 66
2, 426315, Control_c, 0, 64, 71
2, 426331, Control_c, 0, 64, 77
2, 426351, Control_c, 0, 64, 81
2, 426371, Control_c, 0, 64, 82
2, 426391, Control_c, 0, 64, 83
2, 426410, Control_c, 0, 64, 86
2, 426427, Control_c, 0, 64, 96
2, 426443, Note_on_c, 0, 47, 58
2, 426445, Note_on_c, 0, 65, 66
2, 426449, Control_c, 0, 64, 112
2, 426465, Control_c, 0, 64, 127
2, 426502, Note_on_c, 0, 49, 0
2, 426517, Note_on_c, 0, 68, 0
2, 426763, Note_on_c, 0, 58, 0
2, 426821, Note_on_c, 0, 46, 58
2, 426825, Note_on_c, 0, 67, 73
2, 426881, Note_on_c, 0, 47, 0
2, 426916, Note_on_c, 0, 65, 0
2, 427081, Control_c, 0, 64, 118
2, 427099, Control_c, 0, 64, 111
2, 427117, Control_c, 0, 64, 107
2, 427137, Control_c, 0, 64, 102
2, 427157, Control_c, 0, 64, 95
2, 427177, Control_c, 0, 64, 85
2, 427195, Control_c, 0, 64, 77
2, 427214, Control_c, 0, 64, 70
2, 427222, Note_on_c, 0, 68, 66
2, 427237, Control_c, 0, 64, 65
2, 427237, Note_on_c, 0, 51, 51
2, 427246, Note_on_c, 0, 46, 0
2, 427246, Note_on_c, 0, 47, 44
2, 427253, Control_c, 0, 64, 60
2, 427271, Control_c, 0, 64, 53
2, 427290, Control_c, 0, 64, 44
2, 427310, Control_c, 0, 64, 33
2, 427328, Control_c, 0, 64, 24
2, 427349, Control_c, 0, 64, 20
2, 427354, Note_on_c, 0, 67, 0
2, 427369, Control_c, 0, 64, 19
2, 427388, Control_c, 0, 64, 15
2, 427405, Control_c, 0, 64, 8
2, 427425, Control_c, 0, 64, 0
2, 427504, Control_c, 0, 64, 20
2, 427519, Control_c, 0, 64, 38
2, 427538, Control_c, 0, 64, 52
2, 427558, Control_c, 0, 64, 61
2, 427578, Control_c, 0, 64, 66
2, 427597, Control_c, 0, 64, 69
2, 427601, Note_on_c, 0, 49, 54
2, 427617, Control_c, 0, 64, 73
2, 427617, Note_on_c, 0, 51, 0
2, 427617, Note_on_c, 0, 70, 63
2, 427638, Control_c, 0, 64, 78
2, 427655, Control_c, 0, 64, 83
2, 427669, Note_on_c, 0, 47, 0
2, 427676, Control_c, 0, 64, 91
2, 427696, Control_c, 0, 64, 98
2, 427696, Note_on_c, 0, 68, 0
2, 427714, Control_c, 0, 64, 106
2, 427731, Control_c, 0, 64, 113
2, 427754, Control_c, 0, 64, 118
2, 427756, Note_on_c, 0, 49, 0
2, 427771, Control_c, 0, 64, 122
2, 427790, Control_c, 0, 64, 127
2, 427805, Note_on_c, 0, 47, 62
2, 427830, Control_c, 0, 64, 122
2, 427847, Control_c, 0, 64, 111
2, 427868, Control_c, 0, 64, 103
2, 427868, Note_on_c, 0, 70, 0
2, 427887, Control_c, 0, 64, 97
2, 427904, Control_c, 0, 64, 92
2, 427925, Control_c, 0, 64, 86
2, 427943, Control_c, 0, 64, 77
2, 427961, Control_c, 0, 64, 68
2, 427982, Control_c, 0, 64, 62
2, 427987, Note_on_c, 0, 71, 76
2, 427995, Note_on_c, 0, 68, 62
2, 428001, Control_c, 0, 64, 57
2, 428012, Note_on_c, 0, 46, 53
2, 428021, Note_on_c, 0, 47, 0
2, 428041, Control_c, 0, 64, 58
2, 428060, Control_c, 0, 64, 61
2, 428078, Control_c, 0, 64, 65
2, 428094, Note_on_c, 0, 68, 0
2, 428098, Control_c, 0, 64, 68
2, 428116, Control_c, 0, 64, 74
2, 428137, Control_c, 0, 64, 80
2, 428156, Control_c, 0, 64, 84
2, 428174, Note_on_c, 0, 46, 0
2, 428178, Note_on_c, 0, 44, 57
2, 428251, Control_c, 0, 64, 83
2, 428271, Control_c, 0, 64, 81
2, 428292, Control_c, 0, 64, 76
2, 428310, Control_c, 0, 64, 70
2, 428330, Control_c, 0, 64, 64
2, 428346, Control_c, 0, 64, 60
2, 428367, Control_c, 0, 64, 59
2, 428384, Control_c, 0, 64, 57
2, 428389, Note_on_c, 0, 44, 0
2, 428393, Note_on_c, 0, 39, 56
2, 428393, Note_on_c, 0, 70, 72
2, 428398, Note_on_c, 0, 67, 54
2, 428406, Control_c, 0, 64, 55
2, 428423, Control_c, 0, 64, 51
2, 428431, Note_on_c, 0, 71, 0
2, 428445, Control_c, 0, 64, 45
2, 428463, Control_c, 0, 64, 39
2, 428481, Control_c, 0, 64, 30
2, 428500, Control_c, 0, 64, 25
2, 428521, Control_c, 0, 64, 24
2, 428539, Control_c, 0, 64, 26
2, 428557, Control_c, 0, 64, 33
2, 428578, Control_c, 0, 64, 43
2, 428598, Control_c, 0, 64, 54
2, 428616, Control_c, 0, 64, 62
2, 428635, Control_c, 0, 64, 66
2, 428654, Control_c, 0, 64, 71
2, 428673, Control_c, 0, 64, 77
2, 428692, Control_c, 0, 64, 83
2, 428711, Control_c, 0, 64, 87
2, 428730, Control_c, 0, 64, 89
2, 428750, Control_c, 0, 64, 87
2, 428768, Control_c, 0, 64, 81
2, 428782, Note_on_c, 0, 75, 76
2, 428789, Control_c, 0, 64, 74
2, 428808, Control_c, 0, 64, 69
2, 428827, Control_c, 0, 64, 68
2, 428846, Control_c, 0, 64, 70
2, 428850, Note_on_c, 0, 67, 0
2, 428866, Control_c, 0, 64, 76
2, 428866, Note_on_c, 0, 70, 0
2, 428885, Control_c, 0, 64, 86
2, 428903, Control_c, 0, 64, 111
2, 428922, Control_c, 0, 64, 127
2, 429136, Control_c, 0, 64, 120
2, 429152, Control_c, 0, 64, 87
2, 429172, Control_c, 0, 64, 70
2, 429177, Note_on_c, 0, 63, 69
2, 429191, Control_c, 0, 64, 62
2, 429206, Note_on_c, 0, 66, 52
2, 429211, Control_c, 0, 64, 58
2, 429246, Note_on_c, 0, 75, 0
2, 429250, Control_c, 0, 64, 59
2, 429267, Control_c, 0, 64, 63
2, 429287, Control_c, 0, 64, 66
2, 429307, Control_c, 0, 64, 73
2, 429325, Control_c, 0, 64, 92
2, 429345, Control_c, 0, 64, 127
2, 429362, Note_on_c, 0, 63, 0
2, 429539, Control_c, 0, 64, 98
2, 429555, Control_c, 0, 64, 85
2, 429577, Note_on_c, 0, 68, 82
2, 429581, Control_c, 0, 64, 75
2, 429595, Control_c, 0, 64, 68
2, 429607, Note_on_c, 0, 65, 40
2, 429611, Note_on_c, 0, 66, 0
2, 429616, Control_c, 0, 64, 64
2, 429632, Control_c, 0, 64, 62
2, 429651, Control_c, 0, 64, 60
2, 429674, Control_c, 0, 64, 59
2, 429694, Control_c, 0, 64, 58
2, 429710, Control_c, 0, 64, 56
2, 429729, Control_c, 0, 64, 54
2, 429749, Control_c, 0, 64, 55
2, 429767, Control_c, 0, 64, 57
2, 429788, Control_c, 0, 64, 61
2, 429809, Control_c, 0, 64, 64
2, 429827, Control_c, 0, 64, 67
2, 429844, Control_c, 0, 64, 72
2, 429864, Control_c, 0, 64, 81
2, 429884, Control_c, 0, 64, 92
2, 429904, Control_c, 0, 64, 101
2, 429921, Control_c, 0, 64, 107
2, 429941, Control_c, 0, 64, 110
2, 429959, Control_c, 0, 64, 115
2, 429966, Note_on_c, 0, 65, 0
2, 429966, Note_on_c, 0, 71, 65
2, 429983, Control_c, 0, 64, 120
2, 429999, Control_c, 0, 64, 127
2, 430289, Control_c, 0, 64, 115
2, 430308, Control_c, 0, 64, 94
2, 430328, Control_c, 0, 64, 81
2, 430348, Control_c, 0, 64, 70
2, 430355, Note_on_c, 0, 37, 50
2, 430355, Note_on_c, 0, 70, 67
2, 430365, Control_c, 0, 64, 64
2, 430384, Control_c, 0, 64, 59
2, 430403, Note_on_c, 0, 71, 0
2, 430407, Control_c, 0, 64, 58
2, 430420, Note_on_c, 0, 68, 0
2, 430427, Control_c, 0, 64, 60
2, 430443, Control_c, 0, 64, 63
2, 430457, Note_on_c, 0, 39, 0
2, 430461, Control_c, 0, 64, 66
2, 430480, Control_c, 0, 64, 73
2, 430501, Control_c, 0, 64, 86
2, 430519, Control_c, 0, 64, 116
2, 430539, Control_c, 0, 64, 127
2, 430710, Control_c, 0, 64, 87
2, 430717, Note_on_c, 0, 70, 0
2, 430726, Note_on_c, 0, 71, 60
2, 430730, Control_c, 0, 64, 72
2, 430750, Control_c, 0, 64, 66
2, 430755, Note_on_c, 0, 44, 55
2, 430770, Control_c, 0, 64, 64
2, 430788, Control_c, 0, 64, 66
2, 430807, Control_c, 0, 64, 69
2, 430826, Control_c, 0, 64, 76
2, 430845, Control_c, 0, 64, 94
2, 430861, Note_on_c, 0, 37, 0
2, 430865, Control_c, 0, 64, 127
2, 431103, Note_on_c, 0, 70, 66
2, 431194, Note_on_c, 0, 71, 0
2, 431421, Control_c, 0, 64, 101
2, 431442, Control_c, 0, 64, 80
2, 431462, Control_c, 0, 64, 67
2, 431479, Control_c, 0, 64, 60
2, 431484, Note_on_c, 0, 68, 62
2, 431501, Control_c, 0, 64, 58
2, 431512, Note_on_c, 0, 37, 39
2, 431512, Note_on_c, 0, 65, 40
2, 431518, Control_c, 0, 64, 60
2, 431539, Note_on_c, 0, 44, 0
2, 431539, Note_on_c, 0, 70, 0
2, 431544, Control_c, 0, 64, 63
2, 431560, Control_c, 0, 64, 66
2, 431575, Control_c, 0, 64, 73
2, 431586, Note_on_c, 0, 65, 0
2, 431596, Control_c, 0, 64, 91
2, 431616, Control_c, 0, 64, 127
2, 431616, Note_on_c, 0, 68, 0
2, 431883, Note_on_c, 0, 70, 65
2, 431898, Note_on_c, 0, 66, 58
2, 431903, Control_c, 0, 64, 111
2, 431913, Note_on_c, 0, 42, 46
2, 431922, Control_c, 0, 64, 90
2, 431937, Note_on_c, 0, 37, 0
2, 431941, Control_c, 0, 64, 76
2, 431959, Control_c, 0, 64, 68
2, 431979, Control_c, 0, 64, 64
2, 432000, Control_c, 0, 64, 63
2, 432075, Control_c, 0, 64, 62
2, 432113, Control_c, 0, 64, 61
2, 432227, Control_c, 0, 64, 60
2, 432248, Control_c, 0, 64, 59
2, 432269, Control_c, 0, 64, 58
2, 432269, Note_on_c, 0, 71, 67
2, 432436, Note_on_c, 0, 70, 0
2, 432651, Note_on_c, 0, 67, 48
2, 432664, Note_on_c, 0, 39, 45
2, 432664, Note_on_c, 0, 73, 78
2, 432678, Note_on_c, 0, 42, 0
2, 432725, Note_on_c, 0, 71, 0
2, 432734, Note_on_c, 0, 66, 0
2, 432766, Control_c, 0, 64, 57
2, 432844, Control_c, 0, 64, 56
2, 432939, Control_c, 0, 64, 55
2, 432957, Control_c, 0, 64, 54
2, 432977, Control_c, 0, 64, 53
2, 432995, Control_c, 0, 64, 52
2, 433014, Control_c, 0, 64, 51
2, 433034, Note_on_c, 0, 71, 59
2, 433038, Note_on_c, 0, 68, 59
2, 433055, Note_on_c, 0, 44, 43
2, 433113, Control_c, 0, 64, 53
2, 433119, Note_on_c, 0, 67, 0
2, 433119, Note_on_c, 0, 73, 0
2, 433132, Control_c, 0, 64, 56
2, 433149, Control_c, 0, 64, 60
2, 433156, Note_on_c, 0, 39, 0
2, 433170, Control_c, 0, 64, 63
2, 433189, Control_c, 0, 64, 66
2, 433206, Control_c, 0, 64, 68
2, 433226, Control_c, 0, 64, 70
2, 433245, Control_c, 0, 64, 72
2, 433266, Control_c, 0, 64, 75
2, 433284, Control_c, 0, 64, 77
2, 433306, Control_c, 0, 64, 79
2, 433341, Control_c, 0, 64, 78
2, 433401, Control_c, 0, 64, 77
2, 433419, Control_c, 0, 64, 76
2, 433431, Note_on_c, 0, 76, 64
2, 433440, Control_c, 0, 64, 75
2, 433458, Control_c, 0, 64, 72
2, 433478, Note_on_c, 0, 68, 0
2, 433482, Control_c, 0, 64, 67
2, 433497, Control_c, 0, 64, 65
2, 433536, Control_c, 0, 64, 67
2, 433542, Note_on_c, 0, 71, 0
2, 433553, Control_c, 0, 64, 72
2, 433574, Control_c, 0, 64, 84
2, 433592, Control_c, 0, 64, 127
2, 433764, Control_c, 0, 64, 111
2, 433784, Control_c, 0, 64, 101
2, 433802, Control_c, 0, 64, 94
2, 433811, Note_on_c, 0, 47, 41
2, 433820, Note_on_c, 0, 68, 62
2, 433825, Control_c, 0, 64, 88
2, 433842, Control_c, 0, 64, 83
2, 433860, Control_c, 0, 64, 77
2, 433881, Control_c, 0, 64, 73
2, 433881, Note_on_c, 0, 76, 0
2, 433888, Note_on_c, 0, 44, 0
2, 433899, Control_c, 0, 64, 70
2, 433919, Control_c, 0, 64, 69
2, 433956, Control_c, 0, 64, 68
2, 433994, Control_c, 0, 64, 67
2, 434032, Control_c, 0, 64, 66
2, 434052, Control_c, 0, 64, 65
2, 434074, Control_c, 0, 64, 64
2, 434110, Control_c, 0, 64, 63
2, 434147, Control_c, 0, 64, 62
2, 434186, Control_c, 0, 64, 61
2, 434206, Control_c, 0, 64, 60
2, 434213, Note_on_c, 0, 70, 63
2, 434226, Note_on_c, 0, 52, 44
2, 434245, Control_c, 0, 64, 59
2, 434256, Note_on_c, 0, 47, 0
2, 434283, Control_c, 0, 64, 58
2, 434320, Control_c, 0, 64, 57
2, 434358, Control_c, 0, 64, 56
2, 434397, Control_c, 0, 64, 55
2, 434591, Note_on_c, 0, 73, 64
2, 434620, Note_on_c, 0, 70, 0
2, 434983, Note_on_c, 0, 71, 59
2, 434994, Note_on_c, 0, 49, 32
2, 435016, Note_on_c, 0, 73, 0
2, 435030, Note_on_c, 0, 52, 0
2, 435349, Note_on_c, 0, 73, 60
2, 435370, Note_on_c, 0, 67, 43
2, 435386, Note_on_c, 0, 46, 36
2, 435402, Note_on_c, 0, 71, 0
2, 435412, Note_on_c, 0, 68, 0
2, 435457, Note_on_c, 0, 49, 0
2, 435530, Control_c, 0, 64, 54
2, 435606, Control_c, 0, 64, 53
2, 435646, Control_c, 0, 64, 52
2, 435666, Control_c, 0, 64, 51
2, 435683, Control_c, 0, 64, 49
2, 435702, Control_c, 0, 64, 48
2, 435723, Control_c, 0, 64, 45
2, 435743, Control_c, 0, 64, 43
2, 435747, Note_on_c, 0, 71, 52
2, 435760, Control_c, 0, 64, 41
2, 435779, Control_c, 0, 64, 39
2, 435807, Note_on_c, 0, 73, 0
2, 435837, Control_c, 0, 64, 40
2, 435857, Control_c, 0, 64, 43
2, 435874, Control_c, 0, 64, 46
2, 435895, Control_c, 0, 64, 50
2, 435914, Control_c, 0, 64, 53
2, 435934, Control_c, 0, 64, 56
2, 435954, Control_c, 0, 64, 57
2, 435972, Control_c, 0, 64, 59
2, 435992, Control_c, 0, 64, 60
2, 436011, Control_c, 0, 64, 61
2, 436030, Control_c, 0, 64, 62
2, 436051, Control_c, 0, 64, 63
2, 436068, Control_c, 0, 64, 64
2, 436087, Control_c, 0, 64, 65
2, 436105, Control_c, 0, 64, 66
2, 436127, Control_c, 0, 64, 69
2, 436131, Note_on_c, 0, 70, 52
2, 436146, Control_c, 0, 64, 73
2, 436157, Note_on_c, 0, 51, 42
2, 436164, Control_c, 0, 64, 80
2, 436177, Note_on_c, 0, 46, 0
2, 436177, Note_on_c, 0, 71, 0
2, 436184, Control_c, 0, 64, 92
2, 436198, Note_on_c, 0, 67, 0
2, 436202, Control_c, 0, 64, 115
2, 436210, Note_on_c, 0, 70, 0
2, 436223, Control_c, 0, 64, 127
2, 436472, Control_c, 0, 64, 110
2, 436489, Control_c, 0, 64, 98
2, 436510, Control_c, 0, 64, 89
2, 436532, Control_c, 0, 64, 81
2, 436548, Control_c, 0, 64, 75
2, 436559, Note_on_c, 0, 68, 54
2, 436563, Note_on_c, 0, 71, 53
2, 436568, Control_c, 0, 64, 70
2, 436573, Note_on_c, 0, 44, 44
2, 436586, Control_c, 0, 64, 68
2, 436592, Note_on_c, 0, 51, 0
2, 436609, Control_c, 0, 64, 66
2, 436625, Control_c, 0, 64, 65
2, 436644, Control_c, 0, 64, 64
2, 436664, Control_c, 0, 64, 63
2, 436683, Control_c, 0, 64, 62
2, 436703, Control_c, 0, 64, 61
2, 436723, Control_c, 0, 64, 60
2, 436740, Control_c, 0, 64, 59
2, 436762, Control_c, 0, 64, 58
2, 436779, Control_c, 0, 64, 57
2, 436799, Control_c, 0, 64, 56
2, 436816, Control_c, 0, 64, 55
2, 436837, Control_c, 0, 64, 53
2, 436855, Control_c, 0, 64, 51
2, 436874, Control_c, 0, 64, 49
2, 436895, Control_c, 0, 64, 47
2, 436912, Control_c, 0, 64, 46
2, 436931, Control_c, 0, 64, 45
2, 436952, Control_c, 0, 64, 44
2, 436956, Note_on_c, 0, 73, 71
2, 437009, Control_c, 0, 64, 45
2, 437050, Control_c, 0, 64, 46
2, 437085, Control_c, 0, 64, 47
2, 437112, Note_on_c, 0, 71, 0
2, 437144, Control_c, 0, 64, 48
2, 437243, Control_c, 0, 64, 49
2, 437277, Control_c, 0, 64, 50
2, 437342, Note_on_c, 0, 44, 0
2, 437347, Note_on_c, 0, 47, 39
2, 437351, Note_on_c, 0, 75, 66
2, 437393, Control_c, 0, 64, 51
2, 437463, Note_on_c, 0, 73, 0
2, 437488, Control_c, 0, 64, 52
2, 437508, Control_c, 0, 64, 53
2, 437604, Control_c, 0, 64, 54
2, 437732, Note_on_c, 0, 40, 35
2, 437738, Control_c, 0, 64, 53
2, 437787, Note_on_c, 0, 47, 0
2, 437796, Control_c, 0, 64, 52
2, 437853, Control_c, 0, 64, 51
2, 437892, Control_c, 0, 64, 50
2, 437949, Control_c, 0, 64, 51
2, 437988, Control_c, 0, 64, 52
2, 438010, Control_c, 0, 64, 53
2, 438045, Control_c, 0, 64, 55
2, 438064, Control_c, 0, 64, 58
2, 438087, Control_c, 0, 64, 60
2, 438093, Note_on_c, 0, 40, 0
2, 438105, Control_c, 0, 64, 59
2, 438133, Note_on_c, 0, 73, 55
2, 438142, Control_c, 0, 64, 60
2, 438149, Note_on_c, 0, 52, 39
2, 438160, Control_c, 0, 64, 63
2, 438182, Control_c, 0, 64, 67
2, 438200, Control_c, 0, 64, 76
2, 438219, Control_c, 0, 64, 94
2, 438237, Control_c, 0, 64, 127
2, 438291, Note_on_c, 0, 75, 0
2, 438507, Control_c, 0, 64, 104
2, 438527, Control_c, 0, 64, 88
2, 438527, Note_on_c, 0, 51, 47
2, 438527, Note_on_c, 0, 71, 66
2, 438546, Control_c, 0, 64, 77
2, 438563, Control_c, 0, 64, 71
2, 438581, Note_on_c, 0, 52, 0
2, 438585, Control_c, 0, 64, 69
2, 438609, Note_on_c, 0, 73, 0
2, 438622, Control_c, 0, 64, 72
2, 438641, Control_c, 0, 64, 81
2, 438651, Note_on_c, 0, 71, 0
2, 438660, Control_c, 0, 64, 112
2, 438680, Control_c, 0, 64, 127
2, 438935, Note_on_c, 0, 50, 40
2, 438935, Note_on_c, 0, 70, 61
2, 438968, Control_c, 0, 64, 105
2, 438986, Control_c, 0, 64, 92
2, 439007, Control_c, 0, 64, 82
2, 439024, Control_c, 0, 64, 73
2, 439043, Control_c, 0, 64, 67
2, 439056, Note_on_c, 0, 51, 0
2, 439063, Control_c, 0, 64, 64
2, 439085, Control_c, 0, 64, 62
2, 439101, Control_c, 0, 64, 61
2, 439121, Control_c, 0, 64, 60
2, 439139, Control_c, 0, 64, 58
2, 439159, Control_c, 0, 64, 55
2, 439177, Control_c, 0, 64, 53
2, 439199, Control_c, 0, 64, 51
2, 439219, Control_c, 0, 64, 50
2, 439238, Control_c, 0, 64, 49
2, 439254, Control_c, 0, 64, 47
2, 439275, Control_c, 0, 64, 44
2, 439293, Control_c, 0, 64, 41
2, 439314, Control_c, 0, 64, 39
2, 439318, Note_on_c, 0, 77, 67
2, 439372, Control_c, 0, 64, 41
2, 439389, Control_c, 0, 64, 43
2, 439396, Note_on_c, 0, 70, 0
2, 439408, Control_c, 0, 64, 47
2, 439430, Control_c, 0, 64, 52
2, 439448, Control_c, 0, 64, 58
2, 439469, Control_c, 0, 64, 62
2, 439485, Control_c, 0, 64, 63
2, 439542, Control_c, 0, 64, 64
2, 439562, Control_c, 0, 64, 66
2, 439584, Control_c, 0, 64, 68
2, 439599, Control_c, 0, 64, 72
2, 439621, Control_c, 0, 64, 78
2, 439638, Control_c, 0, 64, 87
2, 439659, Control_c, 0, 64, 96
2, 439677, Control_c, 0, 64, 109
2, 439695, Control_c, 0, 64, 127
2, 439706, Note_on_c, 0, 70, 63
2, 439783, Note_on_c, 0, 77, 0
2, 439808, Note_on_c, 0, 70, 0
2, 440062, Control_c, 0, 64, 109
2, 440079, Control_c, 0, 64, 101
2, 440100, Control_c, 0, 64, 98
2, 440117, Control_c, 0, 64, 96
2, 440130, Note_on_c, 0, 70, 52
2, 440138, Control_c, 0, 64, 95
2, 440156, Control_c, 0, 64, 93
2, 440177, Control_c, 0, 64, 90
2, 440194, Note_on_c, 0, 68, 0
2, 440199, Control_c, 0, 64, 87
2, 440215, Control_c, 0, 64, 85
2, 440234, Control_c, 0, 64, 84
2, 440253, Control_c, 0, 64, 83
2, 440292, Control_c, 0, 64, 82
2, 440330, Control_c, 0, 64, 81
2, 440369, Control_c, 0, 64, 79
2, 440405, Control_c, 0, 64, 78
2, 440428, Control_c, 0, 64, 76
2, 440446, Control_c, 0, 64, 75
2, 440464, Control_c, 0, 64, 73
2, 440482, Control_c, 0, 64, 71
2, 440503, Control_c, 0, 64, 70
2, 440514, Note_on_c, 0, 67, 54
2, 440528, Note_on_c, 0, 46, 41
2, 440542, Control_c, 0, 64, 69
2, 440562, Control_c, 0, 64, 68
2, 440580, Control_c, 0, 64, 67
2, 440599, Control_c, 0, 64, 66
2, 440611, Note_on_c, 0, 50, 0
2, 440618, Control_c, 0, 64, 65
2, 440638, Control_c, 0, 64, 64
2, 440678, Control_c, 0, 64, 63
2, 440713, Control_c, 0, 64, 62
2, 440829, Control_c, 0, 64, 61
2, 440887, Control_c, 0, 64, 60
2, 440923, Note_on_c, 0, 48, 42
2, 440926, Note_on_c, 0, 65, 46
2, 440944, Note_on_c, 0, 67, 0
2, 440963, Control_c, 0, 64, 59
2, 441022, Control_c, 0, 64, 58
2, 441027, Note_on_c, 0, 46, 0
2, 441080, Control_c, 0, 64, 57
2, 441331, Note_on_c, 0, 49, 39
2, 441331, Note_on_c, 0, 67, 47
2, 441396, Note_on_c, 0, 48, 0
2, 441405, Note_on_c, 0, 65, 0
2, 441418, Note_on_c, 0, 70, 0
2, 441620, Control_c, 0, 64, 58
2, 441758, Note_on_c, 0, 76, 57
2, 441771, Control_c, 0, 64, 59
2, 441828, Control_c, 0, 64, 60
2, 441864, Control_c, 0, 64, 61
2, 441904, Control_c, 0, 64, 62
2, 441925, Control_c, 0, 64, 63
2, 441962, Control_c, 0, 64, 65
2, 441985, Control_c, 0, 64, 66
2, 442002, Control_c, 0, 64, 68
2, 442019, Control_c, 0, 64, 69
2, 442040, Control_c, 0, 64, 70
2, 442060, Control_c, 0, 64, 72
2, 442077, Control_c, 0, 64, 73
2, 442097, Control_c, 0, 64, 75
2, 442118, Control_c, 0, 64, 78
2, 442135, Control_c, 0, 64, 81
2, 442154, Control_c, 0, 64, 85
2, 442161, Note_on_c, 0, 75, 60
2, 442173, Control_c, 0, 64, 89
2, 442193, Control_c, 0, 64, 94
2, 442215, Control_c, 0, 64, 100
2, 442230, Control_c, 0, 64, 106
2, 442249, Control_c, 0, 64, 118
2, 442257, Note_on_c, 0, 76, 0
2, 442271, Control_c, 0, 64, 127
2, 442277, Note_on_c, 0, 75, 0
2, 442591, Note_on_c, 0, 75, 53
2, 442634, Control_c, 0, 64, 112
2, 442654, Control_c, 0, 64, 108
2, 442674, Control_c, 0, 64, 105
2, 442692, Control_c, 0, 64, 104
2, 442711, Control_c, 0, 64, 102
2, 442729, Control_c, 0, 64, 99
2, 442748, Control_c, 0, 64, 96
2, 442767, Control_c, 0, 64, 94
2, 442788, Control_c, 0, 64, 92
2, 442807, Control_c, 0, 64, 90
2, 442847, Control_c, 0, 64, 89
2, 442864, Control_c, 0, 64, 88
2, 442904, Control_c, 0, 64, 87
2, 442924, Control_c, 0, 64, 86
2, 442940, Control_c, 0, 64, 84
2, 442960, Control_c, 0, 64, 83
2, 442979, Control_c, 0, 64, 81
2, 443002, Control_c, 0, 64, 80
2, 443002, Note_on_c, 0, 47, 43
2, 443012, Note_on_c, 0, 49, 0
2, 443021, Control_c, 0, 64, 79
2, 443039, Control_c, 0, 64, 78
2, 443058, Control_c, 0, 64, 77
2, 443094, Control_c, 0, 64, 76
2, 443114, Control_c, 0, 64, 75
2, 443133, Control_c, 0, 64, 74
2, 443155, Control_c, 0, 64, 73
2, 443229, Control_c, 0, 64, 72
2, 443271, Control_c, 0, 64, 71
2, 443288, Control_c, 0, 64, 70
2, 443327, Control_c, 0, 64, 69
2, 443382, Control_c, 0, 64, 68
2, 443396, Note_on_c, 0, 46, 45
2, 443441, Note_on_c, 0, 47, 0
2, 443458, Control_c, 0, 64, 67
2, 443514, Control_c, 0, 64, 66
2, 443609, Control_c, 0, 64, 65
2, 443745, Control_c, 0, 64, 64
2, 443824, Note_on_c, 0, 68, 49
2, 443841, Control_c, 0, 64, 63
2, 443858, Note_on_c, 0, 47, 36
2, 443863, Note_on_c, 0, 46, 0
2, 443866, Note_on_c, 0, 67, 0
2, 443918, Control_c, 0, 64, 62
2, 444272, Note_on_c, 0, 73, 50
2, 444277, Note_on_c, 0, 46, 32
2, 444365, Note_on_c, 0, 47, 0
2, 444554, Note_on_c, 0, 75, 0
2, 444741, Note_on_c, 0, 44, 38
2, 444746, Note_on_c, 0, 71, 49
2, 444830, Note_on_c, 0, 73, 0
2, 444860, Note_on_c, 0, 46, 0
2, 445366, Note_on_c, 0, 51, 33
2, 445366, Note_on_c, 0, 75, 50
2, 445551, Note_on_c, 0, 44, 0
2, 445565, Control_c, 0, 64, 61
2, 445659, Note_on_c, 0, 73, 48
2, 445675, Note_on_c, 0, 71, 0
2, 445894, Note_on_c, 0, 75, 0
2, 446013, Note_on_c, 0, 71, 42
2, 446046, Control_c, 0, 64, 60
2, 446073, Note_on_c, 0, 73, 0
2, 446104, Control_c, 0, 64, 59
2, 446141, Control_c, 0, 64, 58
2, 446161, Control_c, 0, 64, 59
2, 446199, Control_c, 0, 64, 60
2, 446220, Control_c, 0, 64, 62
2, 446236, Control_c, 0, 64, 64
2, 446240, Note_on_c, 0, 68, 0
2, 446258, Control_c, 0, 64, 67
2, 446275, Control_c, 0, 64, 71
2, 446297, Control_c, 0, 64, 77
2, 446314, Control_c, 0, 64, 85
2, 446334, Control_c, 0, 64, 92
2, 446355, Control_c, 0, 64, 96
2, 446544, Control_c, 0, 64, 97
2, 446737, Control_c, 0, 64, 96
2, 446757, Control_c, 0, 64, 95
2, 446775, Control_c, 0, 64, 93
2, 446796, Control_c, 0, 64, 89
2, 446815, Control_c, 0, 64, 85
2, 446837, Control_c, 0, 64, 81
2, 446837, Note_on_c, 0, 67, 35
2, 446837, Note_on_c, 0, 70, 50
2, 446842, Note_on_c, 0, 39, 41
2, 446852, Control_c, 0, 64, 77
2, 446870, Control_c, 0, 64, 74
2, 446892, Control_c, 0, 64, 71
2, 446913, Control_c, 0, 64, 69
2, 446928, Control_c, 0, 64, 66
2, 446945, Control_c, 0, 64, 65
2, 446952, Note_on_c, 0, 71, 0
2, 446965, Control_c, 0, 64, 64
2, 446980, Note_on_c, 0, 51, 0
2, 446983, Control_c, 0, 64, 63
2, 447021, Control_c, 0, 64, 62
2, 447080, Control_c, 0, 64, 61
2, 447195, Control_c, 0, 64, 60
2, 448387, Note_on_c, 0, 44, 35
2, 448394, Note_on_c, 0, 68, 44
2, 448483, Note_on_c, 0, 70, 0
2, 448611, Note_on_c, 0, 67, 0
2, 448622, Note_on_c, 0, 39, 0
2, 452658, Control_c, 0, 64, 59
2, 452869, Control_c, 0, 64, 58
2, 453100, Control_c, 0, 64, 57
2, 453326, Note_on_c, 0, 68, 0
2, 453349, Control_c, 0, 64, 56
2, 453418, Note_on_c, 0, 44, 0
2, 453752, Control_c, 0, 64, 55
2, 454192, Control_c, 0, 64, 54
2, 454193, End_track
0, 0, End_of_file
