0, 0, Header, 1, 2, 480
1, 0, Start_track
1, 0, Tempo, 500000
1, 0, Time_signature, 4, 2, 24, 8
1, 1, End_track
2,0,Start_track
2,0, Note_on_c, 0, 68, 52
2,29, Control_c, 0, 64, 42
2,433, Note_on_c, 0, 70, 59
2,773, Note_on_c, 0, 68, 0
2,858, Note_on_c, 0, 71, 65
2,970, Note_on_c, 0, 70, 0
2,1290, Note_on_c, 0, 70, 60
2,1421, Note_on_c, 0, 71, 0
2,1718, Note_on_c, 0, 75, 63
2,1868, Note_on_c, 0, 70, 0
2,2136, Note_on_c, 0, 63, 51
2,2252, Note_on_c, 0, 75, 0
2,2565, Note_on_c, 0, 68, 53
2,2720, Note_on_c, 0, 63, 0
2,2962, Note_on_c, 0, 71, 58
2,3101, Note_on_c, 0, 68, 0
2,3214, Control_c, 0, 64, 43
2,3367, Note_on_c, 0, 70, 58
2,3465, Note_on_c, 0, 71, 0
2,3561, Control_c, 0, 64, 44
2,3777, Note_on_c, 0, 71, 52
2,3844, Note_on_c, 0, 70, 0
2,4121, Control_c, 0, 64, 45
2,4192, Note_on_c, 0, 70, 47
2,4511, Note_on_c, 0, 71, 0
2,4591, Note_on_c, 0, 68, 45
2,4687, Note_on_c, 0, 70, 0
2,4996, Note_on_c, 0, 70, 42
2,5088, Note_on_c, 0, 68, 0
2,5328, Control_c, 0, 64, 46
2,5395, Note_on_c, 0, 71, 57
2,5448, Note_on_c, 0, 70, 0
2,5783, Note_on_c, 0, 73, 62
2,5887, Note_on_c, 0, 71, 0
2,6186, Note_on_c, 0, 71, 57
2,6305, Note_on_c, 0, 73, 0
2,6579, Note_on_c, 0, 76, 59
2,6704, Note_on_c, 0, 71, 0
2,6964, Note_on_c, 0, 68, 55
2,7057, Note_on_c, 0, 76, 0
2,7249, Control_c, 0, 64, 45
2,7364, Note_on_c, 0, 70, 46
2,7438, Note_on_c, 0, 68, 0
2,7749, Note_on_c, 0, 73, 53
2,7857, Note_on_c, 0, 70, 0
2,8153, Note_on_c, 0, 71, 54
2,8187, Control_c, 0, 64, 46
2,8222, Note_on_c, 0, 73, 0
2,8549, Note_on_c, 0, 73, 50
2,8652, Note_on_c, 0, 71, 0
2,8932, Note_on_c, 0, 71, 39
2,9052, Note_on_c, 0, 73, 0
2,9109, Control_c, 0, 64, 45
2,9317, Note_on_c, 0, 70, 43
2,9407, Note_on_c, 0, 71, 0
2,9722, Note_on_c, 0, 63, 47
2,9733, Note_on_c, 0, 71, 41
2,9825, Note_on_c, 0, 70, 0
2,10115, Note_on_c, 0, 65, 58
2,10204, Control_c, 0, 64, 46
2,10226, Note_on_c, 0, 63, 0
2,10319, Control_c, 0, 64, 45
2,10512, Note_on_c, 0, 72, 49
2,10516, Note_on_c, 0, 66, 60
2,10576, Note_on_c, 0, 65, 0
2,10725, Note_on_c, 0, 71, 0
2,10818, Control_c, 0, 64, 44
2,10912, Note_on_c, 0, 73, 56
2,10919, Note_on_c, 0, 65, 61
2,10986, Note_on_c, 0, 66, 0
2,11053, Note_on_c, 0, 72, 0
2,11326, Note_on_c, 0, 70, 63
2,11720, Note_on_c, 0, 58, 45
2,11781, Note_on_c, 0, 70, 0
2,12119, Note_on_c, 0, 63, 51
2,12199, Note_on_c, 0, 65, 0
2,12216, Note_on_c, 0, 58, 0
2,12496, Note_on_c, 0, 66, 51
2,12607, Note_on_c, 0, 63, 0
2,12890, Note_on_c, 0, 65, 51
2,12951, Note_on_c, 0, 66, 0
2,13310, Note_on_c, 0, 66, 47
2,13314, Note_on_c, 0, 72, 52
2,13336, Note_on_c, 0, 65, 0
2,13538, Note_on_c, 0, 73, 0
2,13701, Note_on_c, 0, 65, 49
2,13832, Note_on_c, 0, 66, 0
2,13986, Control_c, 0, 64, 45
2,14094, Note_on_c, 0, 63, 51
2,14147, Note_on_c, 0, 65, 0
2,14500, Note_on_c, 0, 73, 57
2,14504, Note_on_c, 0, 65, 39
2,14575, Note_on_c, 0, 63, 0
2,14692, Note_on_c, 0, 72, 0
2,14879, Note_on_c, 0, 66, 61
2,14908, Control_c, 0, 64, 46
2,14951, Note_on_c, 0, 65, 0
2,15100, Control_c, 0, 64, 47
2,15155, Control_c, 0, 64, 48
2,15175, Control_c, 0, 64, 47
2,15304, Note_on_c, 0, 68, 71
2,15315, Note_on_c, 0, 74, 61
2,15380, Note_on_c, 0, 66, 0
2,15389, Note_on_c, 0, 73, 0
2,15721, Note_on_c, 0, 75, 64
2,15724, Note_on_c, 0, 66, 62
2,15830, Note_on_c, 0, 68, 0
2,15883, Note_on_c, 0, 74, 0
2,16118, Note_on_c, 0, 71, 63
2,16405, Control_c, 0, 64, 48
2,16493, Note_on_c, 0, 63, 57
2,16571, Note_on_c, 0, 71, 0
2,16575, Note_on_c, 0, 66, 0
2,16580, Control_c, 0, 64, 49
2,16890, Note_on_c, 0, 65, 49
2,16966, Note_on_c, 0, 63, 0
2,17294, Note_on_c, 0, 68, 58
2,17305, Note_on_c, 0, 65, 0
2,17669, Note_on_c, 0, 66, 47
2,17699, Note_on_c, 0, 68, 0
2,18058, Note_on_c, 0, 74, 54
2,18063, Note_on_c, 0, 68, 53
2,18079, Note_on_c, 0, 66, 0
2,18300, Note_on_c, 0, 75, 0
2,18362, Control_c, 0, 64, 48
2,18430, Note_on_c, 0, 66, 49
2,18548, Note_on_c, 0, 68, 0
2,18835, Note_on_c, 0, 65, 45
2,18905, Note_on_c, 0, 66, 0
2,19221, Note_on_c, 0, 66, 41
2,19253, Note_on_c, 0, 75, 54
2,19317, Note_on_c, 0, 65, 0
2,19326, Note_on_c, 0, 74, 0
2,19640, Note_on_c, 0, 73, 64
2,19785, Note_on_c, 0, 75, 0
2,20022, Note_on_c, 0, 67, 55
2,20112, Note_on_c, 0, 66, 0
2,20225, Control_c, 0, 64, 49
2,20440, Note_on_c, 0, 68, 58
2,20456, Control_c, 0, 64, 50
2,20528, Note_on_c, 0, 67, 0
2,20830, Note_on_c, 0, 70, 46
2,20874, Note_on_c, 0, 73, 0
2,20897, Control_c, 0, 64, 51
2,21216, Note_on_c, 0, 66, 43
2,21219, Note_on_c, 0, 72, 58
2,21312, Note_on_c, 0, 68, 0
2,21329, Note_on_c, 0, 70, 0
2,21608, Note_on_c, 0, 73, 58
2,21624, Note_on_c, 0, 64, 43
2,21671, Note_on_c, 0, 72, 0
2,21716, Note_on_c, 0, 66, 0
2,21877, Control_c, 0, 64, 52
2,22010, Note_on_c, 0, 71, 58
2,22172, Note_on_c, 0, 73, 0
2,22387, Note_on_c, 0, 65, 50
2,22444, Note_on_c, 0, 64, 0
2,22772, Note_on_c, 0, 66, 53
2,22817, Control_c, 0, 64, 53
2,22883, Note_on_c, 0, 65, 0
2,23151, Note_on_c, 0, 68, 45
2,23240, Note_on_c, 0, 71, 0
2,23533, Note_on_c, 0, 70, 55
2,23549, Note_on_c, 0, 64, 45
2,23614, Note_on_c, 0, 66, 0
2,23621, Note_on_c, 0, 68, 0
2,23932, Note_on_c, 0, 71, 66
2,23948, Note_on_c, 0, 63, 40
2,24005, Note_on_c, 0, 64, 0
2,24066, Control_c, 0, 64, 52
2,24174, Note_on_c, 0, 70, 0
2,24349, Note_on_c, 0, 68, 54
2,24354, Note_on_c, 0, 63, 0
2,24468, Control_c, 0, 64, 53
2,24716, Note_on_c, 0, 56, 50
2,24764, Note_on_c, 0, 68, 0
2,25105, Note_on_c, 0, 61, 47
2,25159, Control_c, 0, 64, 52
2,25208, Note_on_c, 0, 56, 0
2,25503, Note_on_c, 0, 70, 48
2,25572, Note_on_c, 0, 71, 0
2,25679, Control_c, 0, 64, 51
2,25899, Note_on_c, 0, 73, 54
2,26016, Note_on_c, 0, 70, 0
2,26023, Control_c, 0, 64, 50
2,26255, Control_c, 0, 64, 49
2,26300, Note_on_c, 0, 67, 49
2,26397, Note_on_c, 0, 73, 0
2,26679, Note_on_c, 0, 75, 60
2,26776, Note_on_c, 0, 67, 0
2,27068, Note_on_c, 0, 68, 56
2,27079, Note_on_c, 0, 59, 43
2,27114, Note_on_c, 0, 61, 0
2,27136, Note_on_c, 0, 75, 0
2,27470, Note_on_c, 0, 73, 60
2,27484, Note_on_c, 0, 58, 38
2,27488, Control_c, 0, 64, 50
2,27565, Note_on_c, 0, 68, 0
2,27597, Control_c, 0, 64, 51
2,27602, Note_on_c, 0, 59, 0
2,27636, Control_c, 0, 64, 52
2,27676, Control_c, 0, 64, 53
2,27712, Control_c, 0, 64, 55
2,27733, Control_c, 0, 64, 56
2,27752, Control_c, 0, 64, 57
2,27810, Control_c, 0, 64, 58
2,27849, Control_c, 0, 64, 59
2,27863, Note_on_c, 0, 68, 47
2,27867, Control_c, 0, 64, 60
2,27885, Control_c, 0, 64, 61
2,27906, Control_c, 0, 64, 62
2,27945, Control_c, 0, 64, 63
2,27963, Control_c, 0, 64, 65
2,27983, Control_c, 0, 64, 66
2,28002, Control_c, 0, 64, 70
2,28020, Control_c, 0, 64, 75
2,28040, Control_c, 0, 64, 80
2,28058, Control_c, 0, 64, 85
2,28079, Control_c, 0, 64, 89
2,28082, Note_on_c, 0, 58, 0
2,28097, Control_c, 0, 64, 92
2,28116, Control_c, 0, 64, 94
2,28135, Control_c, 0, 64, 95
2,28195, Control_c, 0, 64, 96
2,28251, Control_c, 0, 64, 97
2,28271, Note_on_c, 0, 67, 46
2,28289, Control_c, 0, 64, 98
2,28310, Control_c, 0, 64, 99
2,28330, Note_on_c, 0, 68, 0
2,28463, Control_c, 0, 64, 97
2,28482, Control_c, 0, 64, 95
2,28499, Control_c, 0, 64, 91
2,28520, Control_c, 0, 64, 86
2,28540, Control_c, 0, 64, 83
2,28556, Control_c, 0, 64, 80
2,28579, Control_c, 0, 64, 79
2,28595, Control_c, 0, 64, 78
2,28635, Control_c, 0, 64, 76
2,28653, Control_c, 0, 64, 74
2,28672, Control_c, 0, 64, 72
2,28676, Note_on_c, 0, 56, 57
2,28695, Control_c, 0, 64, 70
2,28695, Note_on_c, 0, 68, 49
2,28713, Control_c, 0, 64, 69
2,28750, Control_c, 0, 64, 68
2,28771, Note_on_c, 0, 67, 0
2,28790, Control_c, 0, 64, 66
2,28808, Control_c, 0, 64, 65
2,28827, Control_c, 0, 64, 63
2,28846, Control_c, 0, 64, 62
2,28942, Control_c, 0, 64, 61
2,28964, Control_c, 0, 64, 60
2,29066, Note_on_c, 0, 76, 57
2,29072, Control_c, 0, 64, 59
2,29077, Note_on_c, 0, 58, 64
2,29134, Note_on_c, 0, 73, 0
2,29209, Control_c, 0, 64, 58
2,29231, Note_on_c, 0, 56, 0
2,29247, Control_c, 0, 64, 57
2,29304, Control_c, 0, 64, 56
2,29344, Control_c, 0, 64, 55
2,29400, Control_c, 0, 64, 54
2,29438, Control_c, 0, 64, 53
2,29457, Control_c, 0, 64, 52
2,29462, Note_on_c, 0, 59, 61
2,29477, Control_c, 0, 64, 51
2,29492, Note_on_c, 0, 75, 53
2,29496, Control_c, 0, 64, 49
2,29515, Control_c, 0, 64, 47
2,29533, Control_c, 0, 64, 46
2,29539, Note_on_c, 0, 58, 0
2,29553, Control_c, 0, 64, 45
2,29573, Control_c, 0, 64, 43
2,29595, Control_c, 0, 64, 42
2,29665, Note_on_c, 0, 76, 0
2,29707, Control_c, 0, 64, 43
2,29726, Control_c, 0, 64, 47
2,29746, Control_c, 0, 64, 53
2,29765, Control_c, 0, 64, 57
2,29784, Control_c, 0, 64, 58
2,29821, Control_c, 0, 64, 59
2,29841, Control_c, 0, 64, 61
2,29855, Note_on_c, 0, 58, 60
2,29876, Note_on_c, 0, 73, 51
2,29880, Control_c, 0, 64, 62
2,29918, Control_c, 0, 64, 63
2,29931, Note_on_c, 0, 59, 0
2,29960, Control_c, 0, 64, 64
2,29960, Note_on_c, 0, 75, 0
2,29975, Control_c, 0, 64, 66
2,29986, Note_on_c, 0, 73, 0
2,29995, Control_c, 0, 64, 69
2,30017, Control_c, 0, 64, 74
2,30036, Control_c, 0, 64, 82
2,30053, Control_c, 0, 64, 87
2,30129, Control_c, 0, 64, 85
2,30147, Control_c, 0, 64, 83
2,30167, Control_c, 0, 64, 80
2,30186, Control_c, 0, 64, 77
2,30207, Control_c, 0, 64, 71
2,30224, Control_c, 0, 64, 66
2,30243, Control_c, 0, 64, 63
2,30253, Note_on_c, 0, 71, 57
2,30258, Note_on_c, 0, 63, 59
2,30264, Control_c, 0, 64, 60
2,30283, Control_c, 0, 64, 58
2,30303, Control_c, 0, 64, 56
2,30322, Control_c, 0, 64, 53
2,30340, Control_c, 0, 64, 50
2,30360, Control_c, 0, 64, 48
2,30379, Control_c, 0, 64, 46
2,30397, Control_c, 0, 64, 44
2,30420, Control_c, 0, 64, 39
2,30436, Control_c, 0, 64, 32
2,30455, Control_c, 0, 64, 24
2,30476, Control_c, 0, 64, 15
2,30493, Control_c, 0, 64, 13
2,30569, Control_c, 0, 64, 0
2,30626, Note_on_c, 0, 51, 47
2,30647, Note_on_c, 0, 70, 48
2,30651, Note_on_c, 0, 67, 40
2,30691, Note_on_c, 0, 63, 0
2,30706, Note_on_c, 0, 68, 0
2,30712, Note_on_c, 0, 71, 0
2,31028, Note_on_c, 0, 71, 49
2,31032, Note_on_c, 0, 68, 38
2,31040, Note_on_c, 0, 56, 45
2,31079, Note_on_c, 0, 70, 0
2,31105, Note_on_c, 0, 58, 0
2,31129, Note_on_c, 0, 67, 0
2,31173, Note_on_c, 0, 51, 0
2,31424, Note_on_c, 0, 59, 55
2,31542, Note_on_c, 0, 56, 0
2,31803, Note_on_c, 0, 75, 64
2,31810, Note_on_c, 0, 58, 56
2,31881, Note_on_c, 0, 71, 0
2,31886, Note_on_c, 0, 59, 0
2,31890, Note_on_c, 0, 68, 0
2,32211, Note_on_c, 0, 80, 68
2,32219, Note_on_c, 0, 59, 49
2,32260, Note_on_c, 0, 58, 0
2,32326, Note_on_c, 0, 75, 0
2,32577, Note_on_c, 0, 58, 47
2,32621, Note_on_c, 0, 59, 0
2,32972, Note_on_c, 0, 56, 36
2,32989, Note_on_c, 0, 71, 45
2,33006, Note_on_c, 0, 58, 0
2,33397, Note_on_c, 0, 58, 48
2,33399, Note_on_c, 0, 73, 52
2,33481, Note_on_c, 0, 56, 0
2,33538, Note_on_c, 0, 71, 0
2,33781, Note_on_c, 0, 59, 50
2,33783, Note_on_c, 0, 75, 65
2,33804, Note_on_c, 0, 58, 0
2,33913, Note_on_c, 0, 73, 0
2,34171, Note_on_c, 0, 79, 69
2,34191, Note_on_c, 0, 76, 52
2,34195, Note_on_c, 0, 61, 44
2,34233, Note_on_c, 0, 75, 0
2,34235, Note_on_c, 0, 59, 0
2,34260, Note_on_c, 0, 80, 0
2,34562, Note_on_c, 0, 76, 0
2,34578, Note_on_c, 0, 75, 57
2,34578, Note_on_c, 0, 80, 58
2,34592, Note_on_c, 0, 59, 51
2,34672, Note_on_c, 0, 61, 0
2,34692, Note_on_c, 0, 79, 0
2,34854, Control_c, 0, 64, 25
2,34872, Control_c, 0, 64, 38
2,34891, Control_c, 0, 64, 44
2,34909, Control_c, 0, 64, 49
2,34931, Control_c, 0, 64, 52
2,34948, Control_c, 0, 64, 54
2,34969, Control_c, 0, 64, 57
2,34978, Note_on_c, 0, 64, 64
2,34982, Note_on_c, 0, 73, 56
2,34987, Control_c, 0, 64, 59
2,35007, Control_c, 0, 64, 61
2,35024, Control_c, 0, 64, 62
2,35031, Note_on_c, 0, 80, 0
2,35048, Control_c, 0, 64, 64
2,35051, Note_on_c, 0, 75, 0
2,35064, Control_c, 0, 64, 65
2,35082, Control_c, 0, 64, 68
2,35102, Control_c, 0, 64, 73
2,35121, Control_c, 0, 64, 81
2,35140, Control_c, 0, 64, 89
2,35160, Control_c, 0, 64, 95
2,35177, Control_c, 0, 64, 96
2,35217, Control_c, 0, 64, 97
2,35296, Control_c, 0, 64, 95
2,35312, Control_c, 0, 64, 92
2,35332, Control_c, 0, 64, 89
2,35352, Control_c, 0, 64, 84
2,35371, Control_c, 0, 64, 78
2,35382, Note_on_c, 0, 83, 61
2,35391, Control_c, 0, 64, 72
2,35395, Note_on_c, 0, 56, 56
2,35401, Note_on_c, 0, 71, 58
2,35409, Control_c, 0, 64, 66
2,35428, Control_c, 0, 64, 61
2,35439, Note_on_c, 0, 64, 0
2,35441, Note_on_c, 0, 73, 0
2,35449, Control_c, 0, 64, 57
2,35470, Control_c, 0, 64, 55
2,35498, Note_on_c, 0, 59, 0
2,35504, Control_c, 0, 64, 56
2,35527, Control_c, 0, 64, 58
2,35542, Control_c, 0, 64, 61
2,35550, Note_on_c, 0, 83, 0
2,35562, Control_c, 0, 64, 65
2,35584, Control_c, 0, 64, 70
2,35601, Control_c, 0, 64, 79
2,35621, Control_c, 0, 64, 91
2,35641, Control_c, 0, 64, 104
2,35657, Control_c, 0, 64, 110
2,35678, Control_c, 0, 64, 111
2,35718, Control_c, 0, 64, 106
2,35736, Control_c, 0, 64, 100
2,35754, Control_c, 0, 64, 94
2,35773, Control_c, 0, 64, 88
2,35795, Control_c, 0, 64, 82
2,35795, Note_on_c, 0, 73, 72
2,35807, Note_on_c, 0, 58, 53
2,35811, Control_c, 0, 64, 77
2,35834, Control_c, 0, 64, 73
2,35850, Control_c, 0, 64, 69
2,35857, Note_on_c, 0, 71, 0
2,35871, Control_c, 0, 64, 66
2,35888, Control_c, 0, 64, 65
2,35892, Note_on_c, 0, 56, 0
2,35908, Control_c, 0, 64, 64
2,35984, Control_c, 0, 64, 63
2,36004, Control_c, 0, 64, 62
2,36100, Control_c, 0, 64, 61
2,36120, Control_c, 0, 64, 59
2,36138, Control_c, 0, 64, 56
2,36158, Control_c, 0, 64, 52
2,36176, Control_c, 0, 64, 49
2,36187, Note_on_c, 0, 61, 47
2,36187, Note_on_c, 0, 70, 54
2,36198, Control_c, 0, 64, 45
2,36215, Control_c, 0, 64, 43
2,36237, Control_c, 0, 64, 42
2,36255, Control_c, 0, 64, 43
2,36276, Control_c, 0, 64, 46
2,36294, Control_c, 0, 64, 53
2,36312, Control_c, 0, 64, 60
2,36331, Control_c, 0, 64, 62
2,36350, Control_c, 0, 64, 64
2,36370, Control_c, 0, 64, 66
2,36390, Control_c, 0, 64, 68
2,36406, Control_c, 0, 64, 70
2,36446, Control_c, 0, 64, 68
2,36465, Control_c, 0, 64, 67
2,36483, Control_c, 0, 64, 65
2,36504, Control_c, 0, 64, 64
2,36524, Control_c, 0, 64, 62
2,36541, Control_c, 0, 64, 61
2,36554, Note_on_c, 0, 75, 59
2,36561, Control_c, 0, 64, 59
2,36572, Note_on_c, 0, 68, 53
2,36582, Control_c, 0, 64, 56
2,36586, Note_on_c, 0, 59, 49
2,36598, Note_on_c, 0, 70, 0
2,36603, Control_c, 0, 64, 52
2,36611, Note_on_c, 0, 61, 0
2,36619, Control_c, 0, 64, 48
2,36623, Note_on_c, 0, 73, 0
2,36642, Control_c, 0, 64, 43
2,36642, Note_on_c, 0, 58, 0
2,36660, Control_c, 0, 64, 39
2,36676, Control_c, 0, 64, 38
2,36695, Control_c, 0, 64, 43
2,36715, Control_c, 0, 64, 52
2,36735, Control_c, 0, 64, 60
2,36735, Note_on_c, 0, 68, 0
2,36754, Control_c, 0, 64, 64
2,36771, Control_c, 0, 64, 66
2,36791, Control_c, 0, 64, 68
2,36867, Control_c, 0, 64, 67
2,36887, Control_c, 0, 64, 66
2,36906, Control_c, 0, 64, 65
2,36927, Control_c, 0, 64, 64
2,36949, Control_c, 0, 64, 63
2,36949, Note_on_c, 0, 59, 0
2,36954, Note_on_c, 0, 76, 70
2,36961, Note_on_c, 0, 61, 42
2,36965, Control_c, 0, 64, 62
2,36969, Note_on_c, 0, 66, 55
2,36983, Control_c, 0, 64, 61
2,36995, Note_on_c, 0, 75, 0
2,37004, Control_c, 0, 64, 60
2,37023, Control_c, 0, 64, 58
2,37059, Control_c, 0, 64, 57
2,37080, Control_c, 0, 64, 56
2,37099, Control_c, 0, 64, 55
2,37122, Control_c, 0, 64, 54
2,37136, Control_c, 0, 64, 53
2,37175, Control_c, 0, 64, 52
2,37194, Control_c, 0, 64, 51
2,37212, Control_c, 0, 64, 49
2,37232, Control_c, 0, 64, 48
2,37353, Control_c, 0, 64, 47
2,37353, Note_on_c, 0, 59, 49
2,37353, Note_on_c, 0, 75, 57
2,37424, Note_on_c, 0, 61, 0
2,37488, Note_on_c, 0, 76, 0
2,37736, Note_on_c, 0, 59, 0
2,37739, Note_on_c, 0, 73, 60
2,37746, Note_on_c, 0, 58, 43
2,37816, Note_on_c, 0, 75, 0
2,38207, Note_on_c, 0, 75, 64
2,38211, Note_on_c, 0, 59, 35
2,38248, Note_on_c, 0, 66, 0
2,38251, Note_on_c, 0, 58, 0
2,38332, Note_on_c, 0, 73, 0
2,38597, Note_on_c, 0, 66, 47
2,38923, Control_c, 0, 64, 46
2,38979, Note_on_c, 0, 71, 49
2,38997, Note_on_c, 0, 56, 42
2,39154, Note_on_c, 0, 59, 0
2,39375, Note_on_c, 0, 53, 38
2,39381, Note_on_c, 0, 73, 67
2,39476, Note_on_c, 0, 71, 0
2,39484, Note_on_c, 0, 56, 0
2,39521, Note_on_c, 0, 75, 0
2,39542, Note_on_c, 0, 66, 0
2,39615, Control_c, 0, 64, 47
2,39776, Note_on_c, 0, 68, 62
2,39807, Control_c, 0, 64, 46
2,40097, Control_c, 0, 64, 45
2,40133, Control_c, 0, 64, 44
2,40158, Note_on_c, 0, 70, 58
2,40178, Note_on_c, 0, 55, 41
2,40229, Control_c, 0, 64, 43
2,40247, Note_on_c, 0, 53, 0
2,40293, Note_on_c, 0, 68, 0
2,40306, Control_c, 0, 64, 42
2,40342, Control_c, 0, 64, 41
2,40423, Control_c, 0, 64, 40
2,40461, Control_c, 0, 64, 39
2,40498, Control_c, 0, 64, 38
2,40555, Control_c, 0, 64, 37
2,40559, Note_on_c, 0, 71, 65
2,40578, Note_on_c, 0, 56, 42
2,40625, Note_on_c, 0, 70, 0
2,40632, Control_c, 0, 64, 36
2,40639, Note_on_c, 0, 55, 0
2,40869, Note_on_c, 0, 73, 0
2,40980, Control_c, 0, 64, 35
2,40980, Note_on_c, 0, 63, 46
2,41360, Note_on_c, 0, 68, 53
2,41378, Note_on_c, 0, 52, 46
2,41437, Note_on_c, 0, 56, 0
2,41549, Note_on_c, 0, 63, 0
2,41760, Note_on_c, 0, 70, 63
2,41778, Note_on_c, 0, 49, 41
2,41783, Control_c, 0, 64, 34
2,41822, Control_c, 0, 64, 33
2,41850, Note_on_c, 0, 52, 0
2,41877, Note_on_c, 0, 68, 0
2,41957, Control_c, 0, 64, 34
2,41976, Control_c, 0, 64, 38
2,41994, Control_c, 0, 64, 42
2,42012, Control_c, 0, 64, 43
2,42052, Control_c, 0, 64, 44
2,42071, Control_c, 0, 64, 47
2,42085, Note_on_c, 0, 71, 0
2,42089, Control_c, 0, 64, 51
2,42108, Control_c, 0, 64, 54
2,42128, Control_c, 0, 64, 56
2,42151, Control_c, 0, 64, 57
2,42151, Note_on_c, 0, 65, 45
2,42168, Control_c, 0, 64, 58
2,42188, Control_c, 0, 64, 59
2,42206, Control_c, 0, 64, 60
2,42228, Control_c, 0, 64, 62
2,42243, Control_c, 0, 64, 63
2,42264, Control_c, 0, 64, 64
2,42300, Control_c, 0, 64, 65
2,42323, Control_c, 0, 64, 68
2,42341, Control_c, 0, 64, 72
2,42361, Control_c, 0, 64, 78
2,42377, Control_c, 0, 64, 87
2,42398, Control_c, 0, 64, 95
2,42418, Control_c, 0, 64, 101
2,42437, Control_c, 0, 64, 106
2,42493, Control_c, 0, 64, 105
2,42513, Control_c, 0, 64, 104
2,42531, Control_c, 0, 64, 102
2,42540, Note_on_c, 0, 67, 54
2,42553, Control_c, 0, 64, 100
2,42572, Control_c, 0, 64, 94
2,42572, Note_on_c, 0, 65, 0
2,42577, Note_on_c, 0, 51, 54
2,42590, Control_c, 0, 64, 87
2,42609, Control_c, 0, 64, 83
2,42629, Control_c, 0, 64, 81
2,42667, Control_c, 0, 64, 80
2,42686, Control_c, 0, 64, 79
2,42706, Control_c, 0, 64, 77
2,42723, Control_c, 0, 64, 75
2,42733, Note_on_c, 0, 49, 0
2,42744, Control_c, 0, 64, 74
2,42764, Control_c, 0, 64, 73
2,42800, Control_c, 0, 64, 71
2,42819, Control_c, 0, 64, 69
2,42840, Control_c, 0, 64, 67
2,42860, Control_c, 0, 64, 65
2,42880, Control_c, 0, 64, 64
2,42916, Control_c, 0, 64, 63
2,42937, Control_c, 0, 64, 62
2,42972, Note_on_c, 0, 52, 47
2,42977, Control_c, 0, 64, 61
2,42977, Note_on_c, 0, 68, 63
2,42995, Control_c, 0, 64, 60
2,43012, Note_on_c, 0, 67, 0
2,43045, Note_on_c, 0, 51, 0
2,43056, Note_on_c, 0, 70, 0
2,43070, Control_c, 0, 64, 59
2,43107, Control_c, 0, 64, 58
2,43128, Control_c, 0, 64, 56
2,43148, Control_c, 0, 64, 54
2,43165, Control_c, 0, 64, 53
2,43184, Control_c, 0, 64, 52
2,43225, Control_c, 0, 64, 51
2,43337, Control_c, 0, 64, 50
2,43382, Note_on_c, 0, 70, 63
2,43465, Note_on_c, 0, 68, 0
2,43512, Control_c, 0, 64, 51
2,43760, Control_c, 0, 64, 50
2,43767, Note_on_c, 0, 71, 62
2,43778, Note_on_c, 0, 53, 41
2,43811, Note_on_c, 0, 52, 0
2,43839, Note_on_c, 0, 70, 0
2,44175, Note_on_c, 0, 70, 56
2,44179, Note_on_c, 0, 54, 41
2,44253, Note_on_c, 0, 71, 0
2,44271, Note_on_c, 0, 53, 0
2,44531, Control_c, 0, 64, 49
2,44571, Note_on_c, 0, 75, 59
2,44645, Note_on_c, 0, 70, 0
2,44799, Control_c, 0, 64, 48
2,44894, Control_c, 0, 64, 47
2,44911, Control_c, 0, 64, 46
2,44931, Control_c, 0, 64, 45
2,44970, Note_on_c, 0, 63, 41
2,45027, Control_c, 0, 64, 44
2,45066, Note_on_c, 0, 75, 0
2,45106, Control_c, 0, 64, 43
2,45125, Control_c, 0, 64, 42
2,45142, Control_c, 0, 64, 40
2,45163, Control_c, 0, 64, 39
2,45204, Control_c, 0, 64, 38
2,45220, Control_c, 0, 64, 37
2,45259, Control_c, 0, 64, 35
2,45279, Control_c, 0, 64, 32
2,45299, Control_c, 0, 64, 28
2,45316, Control_c, 0, 64, 26
2,45354, Control_c, 0, 64, 25
2,45365, Note_on_c, 0, 68, 51
2,45373, Control_c, 0, 64, 23
2,45396, Control_c, 0, 64, 19
2,45414, Control_c, 0, 64, 16
2,45469, Control_c, 0, 64, 15
2,45481, Note_on_c, 0, 63, 0
2,45490, Control_c, 0, 64, 13
2,45506, Control_c, 0, 64, 10
2,45526, Control_c, 0, 64, 0
2,45682, Control_c, 0, 64, 14
2,45703, Control_c, 0, 64, 18
2,45719, Control_c, 0, 64, 22
2,45739, Control_c, 0, 64, 26
2,45751, Note_on_c, 0, 71, 55
2,45760, Control_c, 0, 64, 32
2,45777, Control_c, 0, 64, 39
2,45795, Control_c, 0, 64, 45
2,45804, Note_on_c, 0, 68, 0
2,45815, Control_c, 0, 64, 50
2,45834, Control_c, 0, 64, 52
2,45853, Control_c, 0, 64, 54
2,45875, Control_c, 0, 64, 56
2,45891, Control_c, 0, 64, 57
2,45912, Control_c, 0, 64, 58
2,45931, Control_c, 0, 64, 60
2,45967, Control_c, 0, 64, 61
2,46084, Control_c, 0, 64, 60
2,46104, Control_c, 0, 64, 59
2,46124, Control_c, 0, 64, 58
2,46146, Note_on_c, 0, 70, 49
2,46151, Note_on_c, 0, 75, 54
2,46200, Control_c, 0, 64, 60
2,46214, Note_on_c, 0, 71, 0
2,46217, Control_c, 0, 64, 61
2,46236, Control_c, 0, 64, 63
2,46256, Control_c, 0, 64, 64
2,46260, Note_on_c, 0, 75, 0
2,46277, Control_c, 0, 64, 65
2,46294, Control_c, 0, 64, 66
2,46314, Control_c, 0, 64, 67
2,46468, Control_c, 0, 64, 66
2,46509, Control_c, 0, 64, 65
2,46542, Note_on_c, 0, 75, 48
2,46544, Control_c, 0, 64, 64
2,46558, Note_on_c, 0, 71, 53
2,46564, Control_c, 0, 64, 63
2,46569, Note_on_c, 0, 53, 36
2,46581, Note_on_c, 0, 70, 0
2,46583, Control_c, 0, 64, 62
2,46604, Control_c, 0, 64, 61
2,46623, Control_c, 0, 64, 60
2,46658, Control_c, 0, 64, 59
2,46698, Control_c, 0, 64, 58
2,46714, Note_on_c, 0, 54, 0
2,46718, Control_c, 0, 64, 56
2,46754, Control_c, 0, 64, 55
2,46852, Control_c, 0, 64, 54
2,46890, Control_c, 0, 64, 53
2,46936, Note_on_c, 0, 70, 45
2,46957, Note_on_c, 0, 71, 0
2,46970, Control_c, 0, 64, 54
2,47218, Control_c, 0, 64, 53
2,47318, Note_on_c, 0, 74, 52
2,47323, Note_on_c, 0, 68, 41
2,47356, Note_on_c, 0, 70, 0
2,47372, Note_on_c, 0, 75, 0
2,47705, Note_on_c, 0, 75, 50
2,47717, Note_on_c, 0, 54, 39
2,47721, Note_on_c, 0, 70, 47
2,47768, Note_on_c, 0, 74, 0
2,47816, Note_on_c, 0, 53, 0
2,47842, Note_on_c, 0, 68, 0
2,48123, Note_on_c, 0, 71, 52
2,48190, Note_on_c, 0, 70, 0
2,48503, Note_on_c, 0, 73, 63
2,48526, Note_on_c, 0, 55, 40
2,48591, Note_on_c, 0, 54, 0
2,48615, Note_on_c, 0, 71, 0
2,48743, Note_on_c, 0, 75, 0
2,48869, Control_c, 0, 64, 52
2,48902, Note_on_c, 0, 71, 63
2,48921, Note_on_c, 0, 56, 46
2,48993, Note_on_c, 0, 55, 0
2,49038, Note_on_c, 0, 73, 0
2,49297, Note_on_c, 0, 76, 67
2,49415, Note_on_c, 0, 71, 0
2,49483, Control_c, 0, 64, 51
2,49690, Note_on_c, 0, 68, 53
2,49732, Control_c, 0, 64, 50
2,49768, Note_on_c, 0, 76, 0
2,49943, Control_c, 0, 64, 49
2,50087, Note_on_c, 0, 70, 50
2,50154, Note_on_c, 0, 68, 0
2,50292, Control_c, 0, 64, 48
2,50423, Control_c, 0, 64, 49
2,50490, Note_on_c, 0, 73, 53
2,50578, Note_on_c, 0, 70, 0
2,50880, Note_on_c, 0, 76, 60
2,50883, Note_on_c, 0, 71, 46
2,50932, Note_on_c, 0, 73, 0
2,51258, Note_on_c, 0, 75, 56
2,51260, Note_on_c, 0, 55, 41
2,51272, Note_on_c, 0, 73, 47
2,51290, Note_on_c, 0, 71, 0
2,51367, Note_on_c, 0, 76, 0
2,51371, Note_on_c, 0, 56, 0
2,51402, Control_c, 0, 64, 48
2,51517, Control_c, 0, 64, 47
2,51555, Control_c, 0, 64, 46
2,51575, Control_c, 0, 64, 44
2,51595, Control_c, 0, 64, 43
2,51613, Control_c, 0, 64, 42
2,51634, Control_c, 0, 64, 41
2,51652, Note_on_c, 0, 71, 48
2,51672, Control_c, 0, 64, 42
2,51676, Note_on_c, 0, 73, 0
2,51690, Control_c, 0, 64, 43
2,51711, Control_c, 0, 64, 45
2,51728, Control_c, 0, 64, 46
2,51766, Control_c, 0, 64, 47
2,51787, Control_c, 0, 64, 48
2,51825, Control_c, 0, 64, 47
2,51960, Control_c, 0, 64, 48
2,52035, Note_on_c, 0, 73, 53
2,52042, Note_on_c, 0, 70, 48
2,52104, Note_on_c, 0, 71, 0
2,52114, Control_c, 0, 64, 47
2,52269, Note_on_c, 0, 75, 0
2,52306, Control_c, 0, 64, 46
2,52445, Note_on_c, 0, 56, 38
2,52449, Note_on_c, 0, 71, 51
2,52508, Note_on_c, 0, 73, 0
2,52516, Note_on_c, 0, 70, 0
2,52594, Note_on_c, 0, 55, 0
2,52823, Note_on_c, 0, 59, 53
2,52881, Control_c, 0, 64, 47
2,53034, Control_c, 0, 64, 48
2,53129, Control_c, 0, 64, 49
2,53203, Note_on_c, 0, 68, 63
2,53207, Note_on_c, 0, 64, 48
2,53210, Control_c, 0, 64, 50
2,53225, Control_c, 0, 64, 51
2,53245, Control_c, 0, 64, 52
2,53267, Control_c, 0, 64, 54
2,53276, Note_on_c, 0, 71, 0
2,53283, Control_c, 0, 64, 55
2,53304, Control_c, 0, 64, 56
2,53324, Control_c, 0, 64, 58
2,53341, Control_c, 0, 64, 60
2,53360, Control_c, 0, 64, 62
2,53379, Control_c, 0, 64, 63
2,53401, Control_c, 0, 64, 64
2,53413, Note_on_c, 0, 59, 0
2,53419, Control_c, 0, 64, 65
2,53534, Control_c, 0, 64, 64
2,53570, Control_c, 0, 64, 63
2,53590, Control_c, 0, 64, 62
2,53608, Note_on_c, 0, 54, 40
2,53612, Control_c, 0, 64, 61
2,53624, Note_on_c, 0, 70, 62
2,53631, Control_c, 0, 64, 60
2,53649, Control_c, 0, 64, 59
2,53668, Control_c, 0, 64, 58
2,53688, Control_c, 0, 64, 57
2,53692, Note_on_c, 0, 64, 0
2,53706, Control_c, 0, 64, 56
2,53725, Control_c, 0, 64, 54
2,53743, Control_c, 0, 64, 51
2,53766, Control_c, 0, 64, 48
2,53783, Control_c, 0, 64, 46
2,53801, Control_c, 0, 64, 43
2,53815, Note_on_c, 0, 68, 0
2,53820, Control_c, 0, 64, 41
2,53840, Control_c, 0, 64, 39
2,53858, Note_on_c, 0, 56, 0
2,53861, Control_c, 0, 64, 38
2,53921, Control_c, 0, 64, 40
2,53936, Control_c, 0, 64, 45
2,53955, Control_c, 0, 64, 53
2,53976, Control_c, 0, 64, 59
2,53994, Control_c, 0, 64, 62
2,53999, Note_on_c, 0, 61, 47
2,54013, Control_c, 0, 64, 63
2,54071, Control_c, 0, 64, 64
2,54089, Control_c, 0, 64, 65
2,54109, Control_c, 0, 64, 67
2,54128, Control_c, 0, 64, 70
2,54147, Control_c, 0, 64, 75
2,54166, Control_c, 0, 64, 79
2,54186, Control_c, 0, 64, 83
2,54204, Control_c, 0, 64, 86
2,54225, Control_c, 0, 64, 87
2,54244, Control_c, 0, 64, 88
2,54262, Control_c, 0, 64, 89
2,54284, Control_c, 0, 64, 90
2,54322, Note_on_c, 0, 61, 0
2,54363, Note_on_c, 0, 63, 51
2,54384, Note_on_c, 0, 72, 68
2,54490, Note_on_c, 0, 70, 0
2,54627, Control_c, 0, 64, 89
2,54647, Control_c, 0, 64, 88
2,54667, Control_c, 0, 64, 87
2,54685, Control_c, 0, 64, 86
2,54704, Control_c, 0, 64, 84
2,54723, Control_c, 0, 64, 82
2,54746, Control_c, 0, 64, 80
2,54763, Control_c, 0, 64, 77
2,54770, Note_on_c, 0, 52, 46
2,54772, Note_on_c, 0, 73, 68
2,54783, Note_on_c, 0, 63, 0
2,54788, Control_c, 0, 64, 74
2,54788, Note_on_c, 0, 56, 47
2,54799, Control_c, 0, 64, 71
2,54821, Control_c, 0, 64, 68
2,54841, Control_c, 0, 64, 64
2,54841, Note_on_c, 0, 72, 0
2,54859, Control_c, 0, 64, 61
2,54877, Control_c, 0, 64, 59
2,54888, Note_on_c, 0, 54, 0
2,54897, Control_c, 0, 64, 58
2,54916, Control_c, 0, 64, 57
2,54936, Control_c, 0, 64, 55
2,54953, Control_c, 0, 64, 52
2,54972, Control_c, 0, 64, 47
2,54994, Control_c, 0, 64, 45
2,55048, Control_c, 0, 64, 44
2,55068, Control_c, 0, 64, 43
2,55127, Control_c, 0, 64, 45
2,55145, Control_c, 0, 64, 50
2,55151, Note_on_c, 0, 68, 61
2,55164, Control_c, 0, 64, 54
2,55184, Control_c, 0, 64, 55
2,55206, Control_c, 0, 64, 56
2,55234, Note_on_c, 0, 73, 0
2,55243, Control_c, 0, 64, 57
2,55261, Control_c, 0, 64, 59
2,55281, Control_c, 0, 64, 60
2,55300, Control_c, 0, 64, 61
2,55319, Control_c, 0, 64, 62
2,55357, Control_c, 0, 64, 63
2,55396, Control_c, 0, 64, 64
2,55414, Control_c, 0, 64, 65
2,55434, Control_c, 0, 64, 66
2,55454, Control_c, 0, 64, 68
2,55472, Control_c, 0, 64, 71
2,55492, Control_c, 0, 64, 75
2,55513, Control_c, 0, 64, 80
2,55533, Control_c, 0, 64, 87
2,55540, Note_on_c, 0, 73, 70
2,55549, Control_c, 0, 64, 92
2,55568, Control_c, 0, 64, 95
2,55587, Control_c, 0, 64, 97
2,55608, Control_c, 0, 64, 98
2,55627, Control_c, 0, 64, 99
2,55699, Note_on_c, 0, 68, 0
2,55761, Control_c, 0, 64, 96
2,55779, Control_c, 0, 64, 92
2,55798, Control_c, 0, 64, 85
2,55818, Control_c, 0, 64, 78
2,55836, Control_c, 0, 64, 72
2,55857, Control_c, 0, 64, 68
2,55878, Control_c, 0, 64, 66
2,55899, Note_on_c, 0, 51, 64
2,55952, Control_c, 0, 64, 68
2,55971, Control_c, 0, 64, 70
2,55993, Control_c, 0, 64, 76
2,56009, Control_c, 0, 64, 87
2,56013, Note_on_c, 0, 52, 0
2,56022, Note_on_c, 0, 73, 0
2,56029, Control_c, 0, 64, 110
2,56049, Control_c, 0, 64, 127
2,56299, Note_on_c, 0, 70, 73
2,56679, Note_on_c, 0, 72, 81
2,56905, Note_on_c, 0, 70, 0
2,57032, Note_on_c, 0, 49, 51
2,57041, Note_on_c, 0, 56, 0
2,57062, Control_c, 0, 64, 109
2,57075, Note_on_c, 0, 76, 82
2,57083, Control_c, 0, 64, 92
2,57101, Control_c, 0, 64, 81
2,57121, Control_c, 0, 64, 74
2,57140, Control_c, 0, 64, 70
2,57161, Control_c, 0, 64, 66
2,57161, Note_on_c, 0, 51, 0
2,57178, Control_c, 0, 64, 63
2,57198, Control_c, 0, 64, 61
2,57209, Note_on_c, 0, 72, 0
2,57216, Control_c, 0, 64, 60
2,57236, Control_c, 0, 64, 58
2,57256, Control_c, 0, 64, 57
2,57312, Control_c, 0, 64, 56
2,57331, Control_c, 0, 64, 55
2,57351, Control_c, 0, 64, 54
2,57389, Control_c, 0, 64, 53
2,57447, Control_c, 0, 64, 52
2,57458, Note_on_c, 0, 56, 48
2,57467, Control_c, 0, 64, 51
2,57485, Control_c, 0, 64, 50
2,57507, Control_c, 0, 64, 48
2,57523, Control_c, 0, 64, 47
2,57542, Control_c, 0, 64, 45
2,57562, Control_c, 0, 64, 43
2,57584, Control_c, 0, 64, 37
2,57600, Control_c, 0, 64, 29
2,57619, Control_c, 0, 64, 14
2,57639, Control_c, 0, 64, 0
2,57833, Note_on_c, 0, 69, 43
2,57848, Note_on_c, 0, 61, 38
2,57964, Note_on_c, 0, 56, 0
2,58211, Note_on_c, 0, 75, 71
2,58226, Note_on_c, 0, 66, 56
2,58324, Note_on_c, 0, 69, 0
2,58388, Note_on_c, 0, 76, 0
2,58562, Note_on_c, 0, 61, 0
2,58574, Note_on_c, 0, 58, 38
2,58792, Control_c, 0, 64, 17
2,58809, Control_c, 0, 64, 20
2,58830, Control_c, 0, 64, 22
2,58850, Control_c, 0, 64, 24
2,58869, Control_c, 0, 64, 26
2,58885, Control_c, 0, 64, 30
2,58907, Control_c, 0, 64, 35
2,58928, Control_c, 0, 64, 38
2,58928, Note_on_c, 0, 49, 0
2,58944, Control_c, 0, 64, 40
2,58967, Control_c, 0, 64, 42
2,58967, Note_on_c, 0, 68, 48
2,58985, Note_on_c, 0, 58, 0
2,58989, Control_c, 0, 64, 45
2,58989, Note_on_c, 0, 60, 45
2,59002, Control_c, 0, 64, 49
2,59018, Note_on_c, 0, 66, 0
2,59023, Control_c, 0, 64, 53
2,59039, Control_c, 0, 64, 56
2,59062, Control_c, 0, 64, 57
2,59078, Control_c, 0, 64, 58
2,59234, Control_c, 0, 64, 57
2,59252, Control_c, 0, 64, 55
2,59270, Control_c, 0, 64, 54
2,59291, Control_c, 0, 64, 52
2,59309, Control_c, 0, 64, 50
2,59328, Control_c, 0, 64, 48
2,59349, Control_c, 0, 64, 46
2,59366, Control_c, 0, 64, 42
2,59387, Control_c, 0, 64, 37
2,59391, Note_on_c, 0, 64, 50
2,59396, Note_on_c, 0, 61, 39
2,59406, Control_c, 0, 64, 31
2,59424, Control_c, 0, 64, 24
2,59433, Note_on_c, 0, 60, 0
2,59444, Control_c, 0, 64, 15
2,59462, Control_c, 0, 64, 0
2,59598, Control_c, 0, 64, 9
2,59615, Control_c, 0, 64, 26
2,59635, Control_c, 0, 64, 38
2,59655, Control_c, 0, 64, 49
2,59676, Control_c, 0, 64, 55
2,59694, Control_c, 0, 64, 57
2,59713, Control_c, 0, 64, 58
2,59733, Control_c, 0, 64, 59
2,59770, Control_c, 0, 64, 60
2,59785, Note_on_c, 0, 73, 56
2,59790, Control_c, 0, 64, 62
2,59809, Control_c, 0, 64, 63
2,59829, Control_c, 0, 64, 65
2,59847, Control_c, 0, 64, 68
2,59851, Note_on_c, 0, 68, 0
2,59851, Note_on_c, 0, 75, 0
2,59867, Control_c, 0, 64, 74
2,59885, Control_c, 0, 64, 84
2,59905, Control_c, 0, 64, 95
2,59925, Control_c, 0, 64, 110
2,59941, Note_on_c, 0, 61, 0
2,59945, Control_c, 0, 64, 127
2,60179, Note_on_c, 0, 81, 69
2,60495, Note_on_c, 0, 73, 0
2,60499, Control_c, 0, 64, 101
2,60518, Control_c, 0, 64, 87
2,60540, Control_c, 0, 64, 78
2,60557, Control_c, 0, 64, 71
2,60566, Note_on_c, 0, 63, 50
2,60576, Control_c, 0, 64, 66
2,60589, Note_on_c, 0, 59, 42
2,60597, Control_c, 0, 64, 63
2,60616, Control_c, 0, 64, 59
2,60633, Control_c, 0, 64, 56
2,60653, Control_c, 0, 64, 52
2,60653, Note_on_c, 0, 64, 0
2,60671, Control_c, 0, 64, 49
2,60691, Control_c, 0, 64, 44
2,60710, Control_c, 0, 64, 39
2,60729, Control_c, 0, 64, 30
2,60749, Control_c, 0, 64, 18
2,60770, Control_c, 0, 64, 10
2,60787, Control_c, 0, 64, 0
2,60884, Control_c, 0, 64, 18
2,60907, Control_c, 0, 64, 32
2,60925, Control_c, 0, 64, 41
2,60940, Control_c, 0, 64, 47
2,60960, Control_c, 0, 64, 51
2,60969, Note_on_c, 0, 79, 67
2,60981, Control_c, 0, 64, 56
2,60998, Control_c, 0, 64, 59
2,61018, Control_c, 0, 64, 61
2,61040, Control_c, 0, 64, 62
2,61056, Note_on_c, 0, 81, 0
2,61075, Control_c, 0, 64, 63
2,61095, Control_c, 0, 64, 64
2,61113, Control_c, 0, 64, 65
2,61134, Control_c, 0, 64, 67
2,61151, Control_c, 0, 64, 71
2,61171, Control_c, 0, 64, 78
2,61191, Control_c, 0, 64, 87
2,61211, Control_c, 0, 64, 100
2,61229, Control_c, 0, 64, 127
2,61384, Note_on_c, 0, 80, 63
2,61435, Note_on_c, 0, 79, 0
2,61472, Note_on_c, 0, 80, 0
2,61783, Note_on_c, 0, 63, 0
2,61794, Note_on_c, 0, 73, 63
2,61813, Note_on_c, 0, 65, 43
2,61881, Control_c, 0, 64, 103
2,61904, Control_c, 0, 64, 92
2,61921, Control_c, 0, 64, 84
2,61940, Control_c, 0, 64, 77
2,61959, Control_c, 0, 64, 73
2,61978, Control_c, 0, 64, 70
2,61997, Control_c, 0, 64, 69
2,62035, Control_c, 0, 64, 68
2,62075, Control_c, 0, 64, 67
2,62092, Control_c, 0, 64, 66
2,62112, Control_c, 0, 64, 65
2,62150, Control_c, 0, 64, 64
2,62170, Control_c, 0, 64, 62
2,62174, Note_on_c, 0, 67, 50
2,62190, Control_c, 0, 64, 60
2,62190, Note_on_c, 0, 58, 44
2,62209, Control_c, 0, 64, 59
2,62224, Note_on_c, 0, 59, 0
2,62228, Control_c, 0, 64, 58
2,62233, Note_on_c, 0, 65, 0
2,62286, Control_c, 0, 64, 57
2,62325, Control_c, 0, 64, 56
2,62344, Control_c, 0, 64, 55
2,62499, Control_c, 0, 64, 54
2,62536, Note_on_c, 0, 68, 53
2,62561, Note_on_c, 0, 56, 47
2,62591, Control_c, 0, 64, 53
2,62620, Note_on_c, 0, 67, 0
2,62654, Note_on_c, 0, 58, 0
2,62948, Note_on_c, 0, 70, 53
2,62957, Control_c, 0, 64, 52
2,62962, Note_on_c, 0, 55, 43
2,62990, Note_on_c, 0, 56, 0
2,63002, Note_on_c, 0, 68, 0
2,63054, Control_c, 0, 64, 51
2,63074, Control_c, 0, 64, 50
2,63092, Control_c, 0, 64, 49
2,63110, Control_c, 0, 64, 48
2,63130, Control_c, 0, 64, 47
2,63150, Control_c, 0, 64, 45
2,63170, Control_c, 0, 64, 43
2,63188, Control_c, 0, 64, 40
2,63208, Control_c, 0, 64, 36
2,63229, Control_c, 0, 64, 32
2,63248, Control_c, 0, 64, 31
2,63267, Control_c, 0, 64, 32
2,63287, Control_c, 0, 64, 35
2,63305, Control_c, 0, 64, 43
2,63326, Control_c, 0, 64, 52
2,63344, Control_c, 0, 64, 58
2,63348, Note_on_c, 0, 58, 51
2,63353, Note_on_c, 0, 55, 0
2,63362, Control_c, 0, 64, 61
2,63382, Control_c, 0, 64, 62
2,63401, Control_c, 0, 64, 64
2,63421, Control_c, 0, 64, 67
2,63440, Control_c, 0, 64, 71
2,63460, Control_c, 0, 64, 77
2,63482, Control_c, 0, 64, 84
2,63498, Control_c, 0, 64, 89
2,63532, Note_on_c, 0, 73, 0
2,63537, Control_c, 0, 64, 88
2,63634, Control_c, 0, 64, 87
2,63651, Control_c, 0, 64, 86
2,63672, Control_c, 0, 64, 85
2,63690, Control_c, 0, 64, 83
2,63707, Control_c, 0, 64, 82
2,63719, Note_on_c, 0, 51, 57
2,63729, Control_c, 0, 64, 81
2,63767, Control_c, 0, 64, 79
2,63786, Control_c, 0, 64, 78
2,63795, Note_on_c, 0, 58, 0
2,63806, Control_c, 0, 64, 76
2,63823, Control_c, 0, 64, 75
2,63860, Control_c, 0, 64, 74
2,63919, Control_c, 0, 64, 73
2,63996, Control_c, 0, 64, 72
2,64055, Control_c, 0, 64, 71
2,64092, Control_c, 0, 64, 70
2,64113, Control_c, 0, 64, 69
2,64133, Control_c, 0, 64, 67
2,64137, Note_on_c, 0, 71, 63
2,64144, Note_on_c, 0, 56, 41
2,64152, Control_c, 0, 64, 66
2,64169, Control_c, 0, 64, 65
2,64187, Note_on_c, 0, 70, 0
2,64191, Control_c, 0, 64, 64
2,64206, Control_c, 0, 64, 63
2,64233, Note_on_c, 0, 51, 0
2,64247, Control_c, 0, 64, 62
2,64266, Control_c, 0, 64, 60
2,64284, Control_c, 0, 64, 56
2,64304, Control_c, 0, 64, 51
2,64325, Control_c, 0, 64, 47
2,64342, Control_c, 0, 64, 44
2,64364, Control_c, 0, 64, 43
2,64401, Control_c, 0, 64, 42
2,64418, Control_c, 0, 64, 40
2,64438, Control_c, 0, 64, 38
2,64459, Control_c, 0, 64, 37
2,64478, Control_c, 0, 64, 36
2,64497, Control_c, 0, 64, 35
2,64516, Control_c, 0, 64, 34
2,64516, Note_on_c, 0, 68, 49
2,64924, Note_on_c, 0, 44, 42
2,64924, Note_on_c, 0, 66, 52
2,64966, Note_on_c, 0, 56, 0
2,65013, Note_on_c, 0, 68, 0
2,65321, Note_on_c, 0, 65, 43
2,65325, Note_on_c, 0, 56, 38
2,65357, Note_on_c, 0, 66, 0
2,65385, Note_on_c, 0, 44, 0
2,65715, Note_on_c, 0, 68, 55
2,65748, Note_on_c, 0, 65, 0
2,66110, Note_on_c, 0, 63, 45
2,66138, Note_on_c, 0, 68, 0
2,66490, Note_on_c, 0, 70, 60
2,66520, Note_on_c, 0, 62, 26
2,66526, Note_on_c, 0, 63, 0
2,66748, Note_on_c, 0, 71, 0
2,66780, Control_c, 0, 64, 35
2,66876, Control_c, 0, 64, 36
2,66883, Note_on_c, 0, 54, 38
2,66887, Note_on_c, 0, 63, 41
2,66916, Note_on_c, 0, 56, 0
2,66949, Note_on_c, 0, 62, 0
2,66956, Control_c, 0, 64, 37
2,66973, Control_c, 0, 64, 38
2,67068, Control_c, 0, 64, 39
2,67221, Control_c, 0, 64, 40
2,67278, Note_on_c, 0, 54, 0
2,67278, Note_on_c, 0, 65, 44
2,67282, Note_on_c, 0, 53, 50
2,67282, Note_on_c, 0, 63, 0
2,67606, Control_c, 0, 64, 39
2,67677, Note_on_c, 0, 51, 54
2,67682, Note_on_c, 0, 66, 44
2,67730, Note_on_c, 0, 53, 0
2,67823, Note_on_c, 0, 65, 0
2,68028, Control_c, 0, 64, 40
2,68071, Note_on_c, 0, 54, 61
2,68219, Control_c, 0, 64, 41
2,68241, Control_c, 0, 64, 44
2,68262, Control_c, 0, 64, 48
2,68279, Control_c, 0, 64, 51
2,68297, Control_c, 0, 64, 53
2,68318, Control_c, 0, 64, 54
2,68336, Control_c, 0, 64, 56
2,68355, Control_c, 0, 64, 59
2,68375, Control_c, 0, 64, 62
2,68394, Control_c, 0, 64, 64
2,68413, Control_c, 0, 64, 66
2,68432, Control_c, 0, 64, 69
2,68445, Note_on_c, 0, 46, 46
2,68452, Control_c, 0, 64, 74
2,68462, Note_on_c, 0, 74, 62
2,68468, Note_on_c, 0, 54, 0
2,68472, Control_c, 0, 64, 85
2,68487, Note_on_c, 0, 51, 0
2,68487, Note_on_c, 0, 70, 0
2,68491, Control_c, 0, 64, 101
2,68510, Control_c, 0, 64, 127
2,68521, Note_on_c, 0, 66, 0
2,68797, Control_c, 0, 64, 100
2,68816, Control_c, 0, 64, 87
2,68836, Control_c, 0, 64, 78
2,68844, Note_on_c, 0, 46, 0
2,68856, Control_c, 0, 64, 73
2,68856, Note_on_c, 0, 75, 59
2,68865, Note_on_c, 0, 47, 51
2,68876, Control_c, 0, 64, 69
2,68892, Control_c, 0, 64, 67
2,68899, Note_on_c, 0, 74, 0
2,68912, Control_c, 0, 64, 65
2,68932, Control_c, 0, 64, 64
2,69006, Note_on_c, 0, 47, 0
2,69008, Control_c, 0, 64, 63
2,69026, Control_c, 0, 64, 62
2,69039, Note_on_c, 0, 49, 57
2,69045, Control_c, 0, 64, 61
2,69067, Control_c, 0, 64, 60
2,69083, Control_c, 0, 64, 61
2,69095, Note_on_c, 0, 49, 0
2,69107, Control_c, 0, 64, 60
2,69126, Note_on_c, 0, 47, 62
2,69144, Control_c, 0, 64, 59
2,69198, Note_on_c, 0, 47, 0
2,69220, Note_on_c, 0, 49, 55
2,69227, Note_on_c, 0, 77, 71
2,69247, Note_on_c, 0, 68, 55
2,69273, Note_on_c, 0, 75, 0
2,69278, Note_on_c, 0, 49, 0
2,69310, Note_on_c, 0, 47, 55
2,69365, Note_on_c, 0, 47, 0
2,69405, Note_on_c, 0, 49, 53
2,69456, Note_on_c, 0, 49, 0
2,69491, Note_on_c, 0, 47, 56
2,69548, Note_on_c, 0, 47, 0
2,69593, Note_on_c, 0, 49, 44
2,69602, Control_c, 0, 64, 60
2,69621, Note_on_c, 0, 78, 76
2,69636, Note_on_c, 0, 70, 59
2,69648, Note_on_c, 0, 49, 0
2,69677, Note_on_c, 0, 47, 57
2,69677, Note_on_c, 0, 68, 0
2,69681, Control_c, 0, 64, 61
2,69695, Note_on_c, 0, 77, 0
2,69741, Note_on_c, 0, 47, 0
2,69758, Control_c, 0, 64, 62
2,69788, Note_on_c, 0, 49, 44
2,69836, Note_on_c, 0, 49, 0
2,69875, Note_on_c, 0, 47, 57
2,69921, Note_on_c, 0, 47, 0
2,69976, Note_on_c, 0, 49, 43
2,70009, Control_c, 0, 64, 61
2,70009, Note_on_c, 0, 68, 57
2,70031, Note_on_c, 0, 49, 0
2,70077, Note_on_c, 0, 47, 45
2,70135, Note_on_c, 0, 47, 0
2,70195, Note_on_c, 0, 49, 40
2,70243, Note_on_c, 0, 49, 0
2,70272, Note_on_c, 0, 47, 48
2,70274, Control_c, 0, 64, 62
2,70313, Control_c, 0, 64, 63
2,70331, Control_c, 0, 64, 64
2,70342, Note_on_c, 0, 47, 0
2,70353, Control_c, 0, 64, 65
2,70353, Note_on_c, 0, 77, 60
2,70372, Control_c, 0, 64, 66
2,70392, Control_c, 0, 64, 69
2,70401, Note_on_c, 0, 49, 44
2,70409, Control_c, 0, 64, 72
2,70429, Control_c, 0, 64, 76
2,70452, Control_c, 0, 64, 81
2,70452, Note_on_c, 0, 49, 0
2,70456, Note_on_c, 0, 78, 0
2,70468, Control_c, 0, 64, 83
2,70479, Note_on_c, 0, 47, 56
2,70491, Control_c, 0, 64, 84
2,70491, Note_on_c, 0, 70, 0
2,70508, Control_c, 0, 64, 85
2,70530, Note_on_c, 0, 47, 0
2,70544, Control_c, 0, 64, 86
2,70563, Control_c, 0, 64, 89
2,70583, Control_c, 0, 64, 93
2,70592, Note_on_c, 0, 49, 46
2,70601, Control_c, 0, 64, 97
2,70636, Note_on_c, 0, 49, 0
2,70691, Note_on_c, 0, 47, 42
2,70736, Control_c, 0, 64, 95
2,70741, Note_on_c, 0, 47, 0
2,70775, Control_c, 0, 64, 94
2,70796, Note_on_c, 0, 49, 42
2,70796, Note_on_c, 0, 80, 76
2,70813, Control_c, 0, 64, 93
2,70830, Control_c, 0, 64, 92
2,70849, Note_on_c, 0, 49, 0
2,70853, Control_c, 0, 64, 90
2,70866, Note_on_c, 0, 47, 50
2,70870, Control_c, 0, 64, 88
2,70870, Note_on_c, 0, 77, 0
2,70889, Control_c, 0, 64, 87
2,70910, Control_c, 0, 64, 85
2,70923, Note_on_c, 0, 47, 0
2,70928, Control_c, 0, 64, 83
2,70947, Control_c, 0, 64, 82
2,70966, Control_c, 0, 64, 81
2,70996, Note_on_c, 0, 46, 45
2,71043, Control_c, 0, 64, 80
2,71071, Note_on_c, 0, 46, 0
2,71077, Note_on_c, 0, 47, 45
2,71082, Control_c, 0, 64, 78
2,71101, Control_c, 0, 64, 76
2,71118, Control_c, 0, 64, 74
2,71138, Control_c, 0, 64, 72
2,71161, Control_c, 0, 64, 70
2,71178, Control_c, 0, 64, 68
2,71195, Control_c, 0, 64, 67
2,71217, Control_c, 0, 64, 66
2,71217, Note_on_c, 0, 47, 0
2,71222, Note_on_c, 0, 74, 62
2,71235, Control_c, 0, 64, 65
2,71244, Note_on_c, 0, 80, 0
2,71252, Note_on_c, 0, 46, 45
2,71256, Control_c, 0, 64, 64
2,71270, Control_c, 0, 64, 63
2,71289, Control_c, 0, 64, 62
2,71312, Control_c, 0, 64, 60
2,71327, Control_c, 0, 64, 59
2,71348, Control_c, 0, 64, 58
2,71387, Control_c, 0, 64, 57
2,71446, Control_c, 0, 64, 56
2,71519, Control_c, 0, 64, 55
2,71580, Control_c, 0, 64, 54
2,71612, Note_on_c, 0, 77, 68
2,71634, Control_c, 0, 64, 53
2,71718, Note_on_c, 0, 74, 0
2,71733, Control_c, 0, 64, 52
2,71808, Control_c, 0, 64, 51
2,71829, Control_c, 0, 64, 50
2,71846, Control_c, 0, 64, 49
2,71869, Control_c, 0, 64, 47
2,71885, Control_c, 0, 64, 46
2,71962, Control_c, 0, 64, 49
2,71981, Control_c, 0, 64, 54
2,72001, Control_c, 0, 64, 58
2,72012, Note_on_c, 0, 70, 59
2,72019, Control_c, 0, 64, 61
2,72039, Control_c, 0, 64, 64
2,72057, Control_c, 0, 64, 67
2,72076, Control_c, 0, 64, 70
2,72083, Note_on_c, 0, 68, 0
2,72099, Control_c, 0, 64, 72
2,72115, Control_c, 0, 64, 74
2,72131, Note_on_c, 0, 77, 0
2,72288, Note_on_c, 0, 46, 0
2,72292, Control_c, 0, 64, 73
2,72328, Control_c, 0, 64, 72
2,72345, Control_c, 0, 64, 71
2,72365, Control_c, 0, 64, 70
2,72386, Control_c, 0, 64, 69
2,72422, Control_c, 0, 64, 68
2,72429, Note_on_c, 0, 75, 71
2,72441, Control_c, 0, 64, 66
2,72445, Note_on_c, 0, 66, 44
2,72461, Control_c, 0, 64, 65
2,72480, Control_c, 0, 64, 64
2,72539, Control_c, 0, 64, 63
2,72539, Note_on_c, 0, 70, 0
2,72576, Control_c, 0, 64, 62
2,72633, Control_c, 0, 64, 61
2,72793, Note_on_c, 0, 66, 0
2,72818, Note_on_c, 0, 70, 50
2,72827, Control_c, 0, 64, 60
2,72959, Control_c, 0, 64, 59
2,73115, Control_c, 0, 64, 58
2,73200, Note_on_c, 0, 63, 43
2,73235, Note_on_c, 0, 70, 0
2,73420, Control_c, 0, 64, 59
2,73593, Note_on_c, 0, 65, 42
2,73649, Note_on_c, 0, 63, 0
2,73709, Control_c, 0, 64, 58
2,73987, Note_on_c, 0, 66, 54
2,74012, Note_on_c, 0, 65, 0
2,74209, Control_c, 0, 64, 57
2,74265, Control_c, 0, 64, 56
2,74304, Control_c, 0, 64, 55
2,74323, Control_c, 0, 64, 54
2,74343, Control_c, 0, 64, 51
2,74363, Control_c, 0, 64, 47
2,74382, Note_on_c, 0, 68, 57
2,74402, Control_c, 0, 64, 50
2,74420, Control_c, 0, 64, 56
2,74440, Control_c, 0, 64, 61
2,74448, Note_on_c, 0, 66, 0
2,74458, Control_c, 0, 64, 64
2,74477, Control_c, 0, 64, 65
2,74493, Note_on_c, 0, 75, 0
2,74498, Control_c, 0, 64, 66
2,74515, Control_c, 0, 64, 65
2,74670, Control_c, 0, 64, 64
2,74727, Control_c, 0, 64, 63
2,74744, Control_c, 0, 64, 62
2,74765, Note_on_c, 0, 74, 57
2,74767, Control_c, 0, 64, 61
2,74861, Control_c, 0, 64, 60
2,74957, Control_c, 0, 64, 59
2,74994, Control_c, 0, 64, 58
2,75052, Control_c, 0, 64, 57
2,75071, Control_c, 0, 64, 56
2,75090, Control_c, 0, 64, 55
2,75113, Control_c, 0, 64, 54
2,75147, Control_c, 0, 64, 55
2,75170, Control_c, 0, 64, 56
2,75170, Note_on_c, 0, 70, 41
2,75189, Control_c, 0, 64, 58
2,75207, Control_c, 0, 64, 61
2,75220, Note_on_c, 0, 68, 0
2,75227, Control_c, 0, 64, 62
2,75246, Control_c, 0, 64, 64
2,75263, Control_c, 0, 64, 65
2,75283, Control_c, 0, 64, 66
2,75302, Control_c, 0, 64, 68
2,75322, Control_c, 0, 64, 69
2,75343, Control_c, 0, 64, 70
2,75380, Control_c, 0, 64, 73
2,75401, Control_c, 0, 64, 77
2,75420, Control_c, 0, 64, 84
2,75437, Control_c, 0, 64, 92
2,75457, Control_c, 0, 64, 99
2,75478, Control_c, 0, 64, 101
2,75561, Note_on_c, 0, 65, 48
2,75570, Control_c, 0, 64, 100
2,75603, Note_on_c, 0, 74, 0
2,75706, Control_c, 0, 64, 99
2,75725, Control_c, 0, 64, 98
2,75744, Control_c, 0, 64, 97
2,75762, Control_c, 0, 64, 95
2,75782, Control_c, 0, 64, 93
2,75802, Control_c, 0, 64, 91
2,75821, Control_c, 0, 64, 90
2,75858, Control_c, 0, 64, 89
2,75897, Control_c, 0, 64, 87
2,75915, Control_c, 0, 64, 86
2,75936, Control_c, 0, 64, 84
2,75955, Control_c, 0, 64, 82
2,75967, Note_on_c, 0, 51, 63
2,75977, Control_c, 0, 64, 79
2,75977, Note_on_c, 0, 75, 54
2,75988, Note_on_c, 0, 66, 55
2,75992, Control_c, 0, 64, 77
2,76014, Control_c, 0, 64, 74
2,76031, Control_c, 0, 64, 71
2,76035, Note_on_c, 0, 65, 0
2,76070, Control_c, 0, 64, 70
2,76091, Note_on_c, 0, 70, 0
2,76112, Control_c, 0, 64, 69
2,76127, Control_c, 0, 64, 68
2,76150, Control_c, 0, 64, 67
2,76186, Control_c, 0, 64, 66
2,76205, Control_c, 0, 64, 65
2,76300, Control_c, 0, 64, 64
2,76382, Note_on_c, 0, 53, 60
2,76407, Note_on_c, 0, 66, 0
2,76416, Note_on_c, 0, 65, 47
2,76416, Note_on_c, 0, 75, 0
2,76434, Control_c, 0, 64, 63
2,76510, Control_c, 0, 64, 62
2,76510, Note_on_c, 0, 51, 0
2,76687, Control_c, 0, 64, 61
2,76741, Control_c, 0, 64, 60
2,76774, Note_on_c, 0, 54, 62
2,76792, Note_on_c, 0, 63, 43
2,76833, Note_on_c, 0, 53, 0
2,76837, Control_c, 0, 64, 59
2,76896, Note_on_c, 0, 65, 0
2,77011, Control_c, 0, 64, 58
2,77180, Note_on_c, 0, 53, 52
2,77187, Note_on_c, 0, 68, 51
2,77250, Note_on_c, 0, 54, 0
2,77414, Control_c, 0, 64, 57
2,77586, Control_c, 0, 64, 56
2,77604, Note_on_c, 0, 58, 56
2,77609, Note_on_c, 0, 62, 46
2,77645, Control_c, 0, 64, 55
2,77994, Note_on_c, 0, 65, 38
2,77999, Note_on_c, 0, 46, 47
2,78048, Control_c, 0, 64, 54
2,78061, Note_on_c, 0, 58, 0
2,78121, Note_on_c, 0, 62, 0
2,78183, Control_c, 0, 64, 53
2,78393, Note_on_c, 0, 51, 52
2,78411, Note_on_c, 0, 66, 54
2,78453, Note_on_c, 0, 63, 0
2,78470, Note_on_c, 0, 65, 0
2,78479, Note_on_c, 0, 46, 0
2,78497, Note_on_c, 0, 53, 0
2,78604, Note_on_c, 0, 68, 0
2,78791, Note_on_c, 0, 54, 55
2,78800, Note_on_c, 0, 63, 39
2,78894, Control_c, 0, 64, 54
2,78993, Note_on_c, 0, 51, 0
2,79187, Note_on_c, 0, 53, 48
2,79209, Note_on_c, 0, 63, 0
2,79214, Note_on_c, 0, 62, 41
2,79248, Note_on_c, 0, 54, 0
2,79596, Note_on_c, 0, 54, 54
2,79596, Note_on_c, 0, 63, 43
2,79623, Control_c, 0, 64, 55
2,79639, Note_on_c, 0, 53, 0
2,79686, Note_on_c, 0, 62, 0
2,79738, Note_on_c, 0, 66, 0
2,79992, Note_on_c, 0, 53, 52
2,80071, Note_on_c, 0, 54, 0
2,80391, Note_on_c, 0, 51, 42
2,80391, Note_on_c, 0, 71, 43
2,80459, Note_on_c, 0, 53, 0
2,80482, Note_on_c, 0, 63, 0
2,80601, Control_c, 0, 64, 56
2,80813, Note_on_c, 0, 53, 46
2,80814, Note_on_c, 0, 61, 43
2,80904, Note_on_c, 0, 51, 0
2,80914, Note_on_c, 0, 71, 0
2,81210, Note_on_c, 0, 54, 61
2,81313, Note_on_c, 0, 53, 0
2,81607, Note_on_c, 0, 56, 59
2,81623, Note_on_c, 0, 71, 48
2,81674, Note_on_c, 0, 54, 0
2,81738, Note_on_c, 0, 61, 0
2,81946, Control_c, 0, 64, 57
2,82015, Note_on_c, 0, 54, 60
2,82015, Note_on_c, 0, 70, 52
2,82130, Note_on_c, 0, 56, 0
2,82273, Note_on_c, 0, 71, 0
2,82404, Note_on_c, 0, 59, 55
2,82408, Note_on_c, 0, 68, 53
2,82542, Note_on_c, 0, 70, 0
2,82793, Control_c, 0, 64, 56
2,82812, Note_on_c, 0, 51, 51
2,82816, Note_on_c, 0, 66, 53
2,82849, Control_c, 0, 64, 57
2,82882, Note_on_c, 0, 68, 0
2,82886, Note_on_c, 0, 59, 0
2,82891, Note_on_c, 0, 54, 0
2,83115, Control_c, 0, 64, 56
2,83213, Note_on_c, 0, 53, 51
2,83218, Note_on_c, 0, 68, 59
2,83303, Note_on_c, 0, 51, 0
2,83303, Note_on_c, 0, 66, 0
2,83623, Note_on_c, 0, 59, 50
2,83628, Note_on_c, 0, 56, 43
2,83666, Note_on_c, 0, 53, 0
2,83677, Note_on_c, 0, 68, 0
2,84006, Note_on_c, 0, 58, 42
2,84026, Note_on_c, 0, 54, 43
2,84049, Note_on_c, 0, 56, 0
2,84058, Note_on_c, 0, 59, 0
2,84419, Note_on_c, 0, 59, 40
2,84433, Note_on_c, 0, 56, 41
2,84445, Note_on_c, 0, 54, 0
2,84460, Note_on_c, 0, 58, 0
2,84656, Control_c, 0, 64, 55
2,84751, Control_c, 0, 64, 54
2,84809, Control_c, 0, 64, 53
2,84835, Note_on_c, 0, 68, 50
2,84838, Note_on_c, 0, 54, 39
2,84859, Note_on_c, 0, 59, 0
2,84925, Control_c, 0, 64, 52
2,84962, Control_c, 0, 64, 51
2,85003, Control_c, 0, 64, 50
2,85014, Note_on_c, 0, 56, 0
2,85019, Control_c, 0, 64, 49
2,85039, Control_c, 0, 64, 48
2,85059, Control_c, 0, 64, 47
2,85134, Control_c, 0, 64, 46
2,85155, Control_c, 0, 64, 45
2,85173, Control_c, 0, 64, 44
2,85194, Control_c, 0, 64, 43
2,85230, Note_on_c, 0, 53, 44
2,85232, Note_on_c, 0, 59, 44
2,85252, Control_c, 0, 64, 44
2,85290, Note_on_c, 0, 54, 0
2,85359, Note_on_c, 0, 68, 0
2,85625, Note_on_c, 0, 58, 40
2,85629, Note_on_c, 0, 54, 49
2,85680, Note_on_c, 0, 53, 0
2,85732, Note_on_c, 0, 59, 0
2,86021, Note_on_c, 0, 52, 44
2,86037, Control_c, 0, 64, 45
2,86134, Control_c, 0, 64, 46
2,86163, Note_on_c, 0, 54, 0
2,86172, Control_c, 0, 64, 47
2,86344, Control_c, 0, 64, 48
2,86409, Note_on_c, 0, 60, 47
2,86429, Note_on_c, 0, 51, 49
2,86458, Note_on_c, 0, 52, 0
2,86465, Note_on_c, 0, 58, 0
2,86518, Control_c, 0, 64, 49
2,86823, Note_on_c, 0, 61, 43
2,86826, Note_on_c, 0, 51, 0
2,86830, Note_on_c, 0, 52, 53
2,86960, Note_on_c, 0, 60, 0
2,87093, Control_c, 0, 64, 50
2,87219, Note_on_c, 0, 57, 52
2,87517, Control_c, 0, 64, 51
2,87614, Note_on_c, 0, 49, 39
2,87621, Note_on_c, 0, 64, 55
2,87695, Note_on_c, 0, 57, 0
2,87720, Note_on_c, 0, 52, 0
2,87939, Control_c, 0, 64, 50
2,88019, Note_on_c, 0, 66, 51
2,88023, Note_on_c, 0, 51, 45
2,88082, Note_on_c, 0, 64, 0
2,88137, Note_on_c, 0, 49, 0
2,88379, Control_c, 0, 64, 51
2,88405, Note_on_c, 0, 69, 53
2,88468, Note_on_c, 0, 66, 0
2,88744, Note_on_c, 0, 51, 0
2,88804, Note_on_c, 0, 68, 60
2,88823, Control_c, 0, 64, 52
2,88857, Note_on_c, 0, 69, 0
2,88956, Control_c, 0, 64, 53
2,89204, Note_on_c, 0, 69, 52
2,89213, Note_on_c, 0, 44, 42
2,89226, Note_on_c, 0, 60, 32
2,89250, Note_on_c, 0, 68, 0
2,89297, Note_on_c, 0, 61, 0
2,89533, Control_c, 0, 64, 54
2,89570, Control_c, 0, 64, 55
2,89592, Control_c, 0, 64, 57
2,89609, Control_c, 0, 64, 58
2,89609, Note_on_c, 0, 68, 53
2,89629, Control_c, 0, 64, 59
2,89647, Control_c, 0, 64, 61
2,89667, Control_c, 0, 64, 62
2,89704, Note_on_c, 0, 69, 0
2,89724, Control_c, 0, 64, 63
2,89761, Control_c, 0, 64, 64
2,89780, Control_c, 0, 64, 65
2,89803, Control_c, 0, 64, 66
2,89819, Control_c, 0, 64, 67
2,89839, Control_c, 0, 64, 68
2,89858, Control_c, 0, 64, 70
2,89877, Control_c, 0, 64, 71
2,89897, Control_c, 0, 64, 72
2,89917, Control_c, 0, 64, 73
2,89934, Control_c, 0, 64, 76
2,89954, Control_c, 0, 64, 78
2,89977, Control_c, 0, 64, 80
2,89982, Note_on_c, 0, 44, 0
2,89996, Control_c, 0, 64, 82
2,89996, Note_on_c, 0, 66, 53
2,90015, Control_c, 0, 64, 85
2,90015, Note_on_c, 0, 60, 0
2,90032, Control_c, 0, 64, 89
2,90054, Control_c, 0, 64, 93
2,90058, Note_on_c, 0, 68, 0
2,90070, Control_c, 0, 64, 96
2,90090, Control_c, 0, 64, 98
2,90107, Control_c, 0, 64, 99
2,90203, Control_c, 0, 64, 98
2,90224, Control_c, 0, 64, 97
2,90261, Control_c, 0, 64, 96
2,90280, Control_c, 0, 64, 95
2,90300, Control_c, 0, 64, 92
2,90319, Control_c, 0, 64, 87
2,90340, Control_c, 0, 64, 81
2,90358, Control_c, 0, 64, 74
2,90377, Control_c, 0, 64, 69
2,90381, Note_on_c, 0, 64, 50
2,90388, Note_on_c, 0, 49, 37
2,90392, Note_on_c, 0, 61, 38
2,90396, Control_c, 0, 64, 65
2,90416, Control_c, 0, 64, 63
2,90421, Note_on_c, 0, 66, 0
2,90436, Control_c, 0, 64, 61
2,90456, Control_c, 0, 64, 60
2,90473, Control_c, 0, 64, 58
2,90491, Control_c, 0, 64, 56
2,90515, Control_c, 0, 64, 55
2,90548, Control_c, 0, 64, 56
2,90587, Control_c, 0, 64, 58
2,90608, Control_c, 0, 64, 60
2,90625, Control_c, 0, 64, 62
2,90644, Control_c, 0, 64, 63
2,90664, Control_c, 0, 64, 64
2,90684, Control_c, 0, 64, 65
2,90721, Control_c, 0, 64, 66
2,90741, Control_c, 0, 64, 67
2,90762, Control_c, 0, 64, 68
2,90779, Note_on_c, 0, 68, 58
2,90784, Note_on_c, 0, 64, 0
2,90789, Note_on_c, 0, 52, 44
2,90799, Control_c, 0, 64, 69
2,90817, Control_c, 0, 64, 70
2,90840, Control_c, 0, 64, 71
2,90840, Note_on_c, 0, 49, 0
2,90857, Control_c, 0, 64, 72
2,90878, Control_c, 0, 64, 74
2,90899, Control_c, 0, 64, 75
2,90934, Control_c, 0, 64, 76
2,90966, Note_on_c, 0, 66, 65
2,90993, Note_on_c, 0, 68, 0
2,91136, Note_on_c, 0, 52, 0
2,91147, Control_c, 0, 64, 75
2,91151, Note_on_c, 0, 68, 67
2,91193, Note_on_c, 0, 49, 38
2,91220, Control_c, 0, 64, 74
2,91279, Control_c, 0, 64, 73
2,91318, Control_c, 0, 64, 72
2,91329, Note_on_c, 0, 70, 73
2,91357, Control_c, 0, 64, 71
2,91374, Control_c, 0, 64, 70
2,91390, Note_on_c, 0, 66, 0
2,91452, Control_c, 0, 64, 69
2,91472, Control_c, 0, 64, 68
2,91492, Control_c, 0, 64, 67
2,91509, Control_c, 0, 64, 66
2,91517, Note_on_c, 0, 68, 0
2,91530, Control_c, 0, 64, 65
2,91543, Note_on_c, 0, 71, 75
2,91552, Control_c, 0, 64, 64
2,91567, Control_c, 0, 64, 63
2,91569, Note_on_c, 0, 56, 44
2,91585, Control_c, 0, 64, 62
2,91585, Note_on_c, 0, 61, 0
2,91604, Control_c, 0, 64, 61
2,91613, Note_on_c, 0, 70, 0
2,91618, Note_on_c, 0, 49, 0
2,91626, Control_c, 0, 64, 60
2,91642, Control_c, 0, 64, 59
2,91662, Control_c, 0, 64, 58
2,91700, Control_c, 0, 64, 57
2,91721, Control_c, 0, 64, 56
2,91760, Control_c, 0, 64, 55
2,91837, Control_c, 0, 64, 54
2,91924, Note_on_c, 0, 63, 55
2,92027, Control_c, 0, 64, 55
2,92309, Note_on_c, 0, 68, 55
2,92320, Note_on_c, 0, 63, 0
2,92330, Note_on_c, 0, 54, 31
2,92406, Note_on_c, 0, 56, 0
2,92712, Note_on_c, 0, 61, 45
2,92721, Note_on_c, 0, 52, 42
2,92770, Note_on_c, 0, 54, 0
2,92803, Note_on_c, 0, 68, 0
2,93091, Note_on_c, 0, 54, 39
2,93108, Note_on_c, 0, 64, 47
2,93144, Note_on_c, 0, 52, 0
2,93144, Note_on_c, 0, 61, 0
2,93220, Control_c, 0, 64, 56
2,93492, Note_on_c, 0, 63, 53
2,93501, Note_on_c, 0, 56, 38
2,93519, Note_on_c, 0, 64, 0
2,93885, Note_on_c, 0, 70, 59
2,93892, Note_on_c, 0, 49, 38
2,93900, Note_on_c, 0, 64, 41
2,93923, Note_on_c, 0, 56, 0
2,93944, Note_on_c, 0, 71, 0
2,93969, Control_c, 0, 64, 55
2,93969, Note_on_c, 0, 54, 0
2,93975, Note_on_c, 0, 63, 0
2,94063, Control_c, 0, 64, 54
2,94085, Control_c, 0, 64, 53
2,94103, Control_c, 0, 64, 52
2,94123, Control_c, 0, 64, 51
2,94198, Control_c, 0, 64, 52
2,94217, Control_c, 0, 64, 53
2,94254, Control_c, 0, 64, 54
2,94276, Control_c, 0, 64, 55
2,94285, Note_on_c, 0, 63, 52
2,94297, Control_c, 0, 64, 57
2,94313, Control_c, 0, 64, 59
2,94331, Control_c, 0, 64, 61
2,94350, Control_c, 0, 64, 62
2,94371, Control_c, 0, 64, 63
2,94390, Control_c, 0, 64, 64
2,94410, Control_c, 0, 64, 65
2,94428, Control_c, 0, 64, 68
2,94447, Control_c, 0, 64, 71
2,94467, Control_c, 0, 64, 77
2,94469, Note_on_c, 0, 64, 0
2,94486, Control_c, 0, 64, 85
2,94491, Note_on_c, 0, 63, 0
2,94503, Control_c, 0, 64, 97
2,94527, Control_c, 0, 64, 127
2,94645, Note_on_c, 0, 61, 52
2,94655, Note_on_c, 0, 54, 48
2,94669, Note_on_c, 0, 49, 0
2,94748, Note_on_c, 0, 54, 0
2,94748, Note_on_c, 0, 61, 0
2,95004, Control_c, 0, 64, 101
2,95023, Control_c, 0, 64, 88
2,95039, Note_on_c, 0, 71, 71
2,95043, Control_c, 0, 64, 80
2,95050, Note_on_c, 0, 47, 41
2,95061, Control_c, 0, 64, 74
2,95065, Note_on_c, 0, 63, 48
2,95081, Control_c, 0, 64, 70
2,95100, Control_c, 0, 64, 67
2,95110, Note_on_c, 0, 70, 0
2,95119, Control_c, 0, 64, 65
2,95156, Control_c, 0, 64, 64
2,95177, Control_c, 0, 64, 63
2,95214, Control_c, 0, 64, 61
2,95235, Control_c, 0, 64, 60
2,95257, Control_c, 0, 64, 59
2,95273, Control_c, 0, 64, 57
2,95295, Control_c, 0, 64, 56
2,95312, Control_c, 0, 64, 54
2,95330, Control_c, 0, 64, 51
2,95348, Control_c, 0, 64, 48
2,95368, Control_c, 0, 64, 44
2,95387, Control_c, 0, 64, 42
2,95407, Control_c, 0, 64, 41
2,95447, Control_c, 0, 64, 42
2,95447, Note_on_c, 0, 54, 42
2,95466, Control_c, 0, 64, 43
2,95485, Control_c, 0, 64, 47
2,95503, Control_c, 0, 64, 52
2,95522, Control_c, 0, 64, 56
2,95544, Control_c, 0, 64, 59
2,95560, Control_c, 0, 64, 61
2,95578, Control_c, 0, 64, 63
2,95598, Control_c, 0, 64, 66
2,95619, Control_c, 0, 64, 70
2,95636, Control_c, 0, 64, 78
2,95657, Control_c, 0, 64, 93
2,95677, Control_c, 0, 64, 127
2,95811, Note_on_c, 0, 47, 0
2,95848, Note_on_c, 0, 68, 59
2,95852, Note_on_c, 0, 59, 48
2,95869, Note_on_c, 0, 63, 0
2,95873, Note_on_c, 0, 71, 0
2,95915, Note_on_c, 0, 54, 0
2,96001, Note_on_c, 0, 68, 0
2,96214, Control_c, 0, 64, 111
2,96233, Control_c, 0, 64, 98
2,96233, Note_on_c, 0, 73, 80
2,96251, Control_c, 0, 64, 89
2,96263, Note_on_c, 0, 65, 53
2,96271, Control_c, 0, 64, 80
2,96290, Control_c, 0, 64, 73
2,96308, Control_c, 0, 64, 68
2,96330, Control_c, 0, 64, 65
2,96347, Control_c, 0, 64, 64
2,96367, Control_c, 0, 64, 63
2,96384, Control_c, 0, 64, 62
2,96405, Control_c, 0, 64, 61
2,96425, Control_c, 0, 64, 60
2,96443, Control_c, 0, 64, 58
2,96462, Control_c, 0, 64, 57
2,96482, Control_c, 0, 64, 54
2,96501, Control_c, 0, 64, 51
2,96521, Control_c, 0, 64, 44
2,96541, Control_c, 0, 64, 28
2,96560, Control_c, 0, 64, 0
2,96605, Note_on_c, 0, 56, 54
2,96619, Note_on_c, 0, 59, 0
2,96657, Control_c, 0, 64, 22
2,96674, Control_c, 0, 64, 42
2,96694, Control_c, 0, 64, 53
2,96713, Control_c, 0, 64, 60
2,96730, Control_c, 0, 64, 64
2,96750, Control_c, 0, 64, 68
2,96770, Control_c, 0, 64, 75
2,96792, Control_c, 0, 64, 91
2,96808, Control_c, 0, 64, 127
2,97006, Note_on_c, 0, 67, 61
2,97011, Note_on_c, 0, 73, 0
2,97015, Note_on_c, 0, 58, 53
2,97076, Note_on_c, 0, 56, 0
2,97096, Note_on_c, 0, 67, 0
2,97129, Note_on_c, 0, 65, 0
2,97183, Note_on_c, 0, 58, 0
2,97389, Note_on_c, 0, 75, 81
2,97403, Note_on_c, 0, 71, 56
2,97444, Control_c, 0, 64, 99
2,97460, Control_c, 0, 64, 83
2,97480, Control_c, 0, 64, 72
2,97499, Control_c, 0, 64, 65
2,97519, Control_c, 0, 64, 59
2,97537, Control_c, 0, 64, 57
2,97557, Control_c, 0, 64, 55
2,97577, Control_c, 0, 64, 53
2,97595, Control_c, 0, 64, 51
2,97615, Control_c, 0, 64, 50
2,97634, Control_c, 0, 64, 48
2,97653, Control_c, 0, 64, 44
2,97672, Control_c, 0, 64, 42
2,97691, Control_c, 0, 64, 40
2,97711, Control_c, 0, 64, 41
2,97731, Control_c, 0, 64, 43
2,97750, Control_c, 0, 64, 49
2,97770, Control_c, 0, 64, 56
2,97786, Control_c, 0, 64, 60
2,97795, Note_on_c, 0, 51, 50
2,97807, Control_c, 0, 64, 62
2,97828, Control_c, 0, 64, 63
2,97846, Control_c, 0, 64, 64
2,97857, Note_on_c, 0, 71, 0
2,97868, Control_c, 0, 64, 67
2,97884, Control_c, 0, 64, 74
2,97906, Control_c, 0, 64, 94
2,97923, Control_c, 0, 64, 127
2,98006, Note_on_c, 0, 75, 0
2,98192, Note_on_c, 0, 56, 53
2,98244, Note_on_c, 0, 51, 0
2,98313, Note_on_c, 0, 56, 0
2,98549, Note_on_c, 0, 76, 73
2,98563, Note_on_c, 0, 70, 53
2,98671, Control_c, 0, 64, 107
2,98691, Control_c, 0, 64, 90
2,98709, Control_c, 0, 64, 79
2,98729, Control_c, 0, 64, 72
2,98749, Control_c, 0, 64, 68
2,98767, Control_c, 0, 64, 66
2,98788, Control_c, 0, 64, 65
2,98804, Control_c, 0, 64, 64
2,98825, Control_c, 0, 64, 63
2,98843, Control_c, 0, 64, 61
2,98862, Control_c, 0, 64, 59
2,98882, Control_c, 0, 64, 57
2,98900, Control_c, 0, 64, 56
2,98920, Control_c, 0, 64, 54
2,98930, Note_on_c, 0, 75, 68
2,98942, Control_c, 0, 64, 51
2,98947, Note_on_c, 0, 53, 42
2,98960, Control_c, 0, 64, 49
2,98977, Control_c, 0, 64, 47
2,98996, Control_c, 0, 64, 44
2,99016, Control_c, 0, 64, 39
2,99037, Control_c, 0, 64, 34
2,99056, Control_c, 0, 64, 32
2,99092, Control_c, 0, 64, 35
2,99113, Control_c, 0, 64, 40
2,99134, Control_c, 0, 64, 45
2,99154, Control_c, 0, 64, 51
2,99172, Control_c, 0, 64, 55
2,99190, Control_c, 0, 64, 58
2,99209, Control_c, 0, 64, 60
2,99228, Control_c, 0, 64, 62
2,99250, Control_c, 0, 64, 63
2,99266, Control_c, 0, 64, 64
2,99284, Control_c, 0, 64, 65
2,99288, Note_on_c, 0, 76, 0
2,99304, Control_c, 0, 64, 69
2,99322, Control_c, 0, 64, 74
2,99338, Note_on_c, 0, 73, 64
2,99347, Control_c, 0, 64, 83
2,99362, Control_c, 0, 64, 94
2,99369, Note_on_c, 0, 55, 45
2,99380, Control_c, 0, 64, 106
2,99399, Control_c, 0, 64, 115
2,99421, Control_c, 0, 64, 120
2,99429, Note_on_c, 0, 70, 0
2,99439, Control_c, 0, 64, 122
2,99475, Note_on_c, 0, 75, 0
2,99479, Control_c, 0, 64, 120
2,99497, Control_c, 0, 64, 118
2,99513, Control_c, 0, 64, 115
2,99533, Control_c, 0, 64, 111
2,99555, Control_c, 0, 64, 109
2,99574, Control_c, 0, 64, 105
2,99583, Note_on_c, 0, 53, 0
2,99592, Control_c, 0, 64, 102
2,99614, Control_c, 0, 64, 98
2,99631, Control_c, 0, 64, 94
2,99652, Control_c, 0, 64, 91
2,99670, Control_c, 0, 64, 87
2,99687, Control_c, 0, 64, 82
2,99708, Control_c, 0, 64, 76
2,99727, Control_c, 0, 64, 70
2,99729, Note_on_c, 0, 56, 42
2,99737, Note_on_c, 0, 63, 43
2,99741, Note_on_c, 0, 71, 64
2,99746, Control_c, 0, 64, 65
2,99766, Control_c, 0, 64, 62
2,99776, Note_on_c, 0, 55, 0
2,99780, Note_on_c, 0, 73, 0
2,99785, Control_c, 0, 64, 60
2,99804, Control_c, 0, 64, 58
2,99825, Control_c, 0, 64, 56
2,99862, Control_c, 0, 64, 57
2,99879, Control_c, 0, 64, 59
2,99899, Control_c, 0, 64, 62
2,99918, Control_c, 0, 64, 64
2,99938, Control_c, 0, 64, 66
2,99959, Control_c, 0, 64, 70
2,99977, Control_c, 0, 64, 76
2,99997, Control_c, 0, 64, 82
2,100015, Control_c, 0, 64, 85
2,100053, Control_c, 0, 64, 84
2,100072, Control_c, 0, 64, 83
2,100094, Control_c, 0, 64, 82
2,100110, Control_c, 0, 64, 81
2,100131, Control_c, 0, 64, 80
2,100137, Note_on_c, 0, 75, 68
2,100149, Control_c, 0, 64, 78
2,100168, Control_c, 0, 64, 77
2,100188, Control_c, 0, 64, 75
2,100208, Control_c, 0, 64, 74
2,100225, Control_c, 0, 64, 72
2,100246, Control_c, 0, 64, 71
2,100265, Control_c, 0, 64, 70
2,100284, Control_c, 0, 64, 69
2,100297, Note_on_c, 0, 71, 0
2,100301, Control_c, 0, 64, 68
2,100322, Control_c, 0, 64, 67
2,100360, Control_c, 0, 64, 66
2,100400, Control_c, 0, 64, 65
2,100437, Control_c, 0, 64, 64
2,100488, Note_on_c, 0, 78, 76
2,100497, Control_c, 0, 64, 63
2,100512, Note_on_c, 0, 62, 54
2,100514, Control_c, 0, 64, 62
2,100530, Note_on_c, 0, 58, 40
2,100534, Control_c, 0, 64, 61
2,100572, Control_c, 0, 64, 60
2,100579, Note_on_c, 0, 63, 0
2,100589, Control_c, 0, 64, 59
2,100610, Control_c, 0, 64, 58
2,100650, Control_c, 0, 64, 57
2,100650, Note_on_c, 0, 56, 0
2,100667, Control_c, 0, 64, 55
2,100680, Note_on_c, 0, 75, 0
2,100686, Control_c, 0, 64, 53
2,100706, Control_c, 0, 64, 51
2,100725, Control_c, 0, 64, 49
2,100743, Control_c, 0, 64, 47
2,100762, Control_c, 0, 64, 45
2,100783, Control_c, 0, 64, 41
2,100801, Control_c, 0, 64, 36
2,100821, Control_c, 0, 64, 29
2,100841, Control_c, 0, 64, 19
2,100860, Control_c, 0, 64, 0
2,100913, Note_on_c, 0, 63, 51
2,100924, Note_on_c, 0, 59, 55
2,100948, Note_on_c, 0, 58, 0
2,100976, Control_c, 0, 64, 11
2,100995, Control_c, 0, 64, 27
2,101013, Control_c, 0, 64, 39
2,101032, Control_c, 0, 64, 48
2,101051, Control_c, 0, 64, 55
2,101071, Control_c, 0, 64, 59
2,101089, Control_c, 0, 64, 61
2,101108, Control_c, 0, 64, 62
2,101128, Note_on_c, 0, 62, 0
2,101147, Control_c, 0, 64, 63
2,101169, Control_c, 0, 64, 64
2,101185, Control_c, 0, 64, 67
2,101207, Control_c, 0, 64, 70
2,101225, Control_c, 0, 64, 79
2,101237, Note_on_c, 0, 63, 0
2,101246, Control_c, 0, 64, 93
2,101263, Control_c, 0, 64, 127
2,101312, Note_on_c, 0, 59, 0
2,101323, Note_on_c, 0, 75, 72
2,101646, Control_c, 0, 64, 116
2,101667, Control_c, 0, 64, 91
2,101687, Control_c, 0, 64, 79
2,101696, Note_on_c, 0, 77, 78
2,101705, Control_c, 0, 64, 71
2,101710, Note_on_c, 0, 68, 70
2,101725, Control_c, 0, 64, 66
2,101729, Note_on_c, 0, 50, 55
2,101743, Control_c, 0, 64, 62
2,101748, Note_on_c, 0, 75, 0
2,101761, Control_c, 0, 64, 59
2,101781, Control_c, 0, 64, 58
2,101785, Note_on_c, 0, 78, 0
2,101802, Control_c, 0, 64, 59
2,101819, Control_c, 0, 64, 60
2,101840, Control_c, 0, 64, 63
2,101858, Control_c, 0, 64, 66
2,101877, Control_c, 0, 64, 76
2,101881, Note_on_c, 0, 68, 0
2,101899, Control_c, 0, 64, 127
2,102111, Note_on_c, 0, 66, 65
2,102114, Note_on_c, 0, 51, 56
2,102125, Control_c, 0, 64, 101
2,102149, Control_c, 0, 64, 80
2,102166, Control_c, 0, 64, 68
2,102171, Note_on_c, 0, 50, 0
2,102184, Control_c, 0, 64, 62
2,102203, Control_c, 0, 64, 59
2,102224, Control_c, 0, 64, 60
2,102242, Control_c, 0, 64, 62
2,102261, Control_c, 0, 64, 64
2,102278, Note_on_c, 0, 77, 0
2,102281, Control_c, 0, 64, 69
2,102299, Control_c, 0, 64, 78
2,102319, Control_c, 0, 64, 104
2,102336, Control_c, 0, 64, 127
2,102501, Note_on_c, 0, 70, 73
2,102872, Note_on_c, 0, 75, 81
2,102877, Control_c, 0, 64, 90
2,102891, Note_on_c, 0, 47, 44
2,102896, Control_c, 0, 64, 74
2,102914, Control_c, 0, 64, 65
2,102933, Control_c, 0, 64, 62
2,102953, Control_c, 0, 64, 61
2,102953, Note_on_c, 0, 51, 0
2,102972, Control_c, 0, 64, 62
2,102992, Control_c, 0, 64, 63
2,103010, Control_c, 0, 64, 65
2,103030, Control_c, 0, 64, 70
2,103050, Control_c, 0, 64, 78
2,103054, Note_on_c, 0, 66, 0
2,103068, Control_c, 0, 64, 92
2,103090, Control_c, 0, 64, 127
2,103289, Note_on_c, 0, 65, 67
2,103300, Note_on_c, 0, 44, 52
2,103339, Control_c, 0, 64, 93
2,103343, Note_on_c, 0, 47, 0
2,103356, Control_c, 0, 64, 76
2,103373, Control_c, 0, 64, 66
2,103392, Control_c, 0, 64, 60
2,103415, Control_c, 0, 64, 55
2,103433, Control_c, 0, 64, 49
2,103454, Control_c, 0, 64, 42
2,103458, Note_on_c, 0, 70, 0
2,103472, Control_c, 0, 64, 30
2,103490, Control_c, 0, 64, 0
2,103643, Control_c, 0, 64, 20
2,103663, Control_c, 0, 64, 37
2,103683, Control_c, 0, 64, 50
2,103694, Note_on_c, 0, 72, 71
2,103701, Control_c, 0, 64, 60
2,103721, Control_c, 0, 64, 63
2,103739, Control_c, 0, 64, 65
2,103761, Control_c, 0, 64, 66
2,103781, Control_c, 0, 64, 70
2,103789, Note_on_c, 0, 75, 0
2,103796, Control_c, 0, 64, 78
2,103819, Control_c, 0, 64, 109
2,103836, Control_c, 0, 64, 127
2,104098, Note_on_c, 0, 46, 51
2,104098, Note_on_c, 0, 74, 73
2,104116, Note_on_c, 0, 44, 0
2,104136, Note_on_c, 0, 65, 0
2,104164, Note_on_c, 0, 46, 0
2,104188, Note_on_c, 0, 72, 0
2,104221, Note_on_c, 0, 74, 0
2,104527, Control_c, 0, 64, 107
2,104531, Note_on_c, 0, 75, 68
2,104547, Control_c, 0, 64, 82
2,104547, Note_on_c, 0, 63, 58
2,104551, Note_on_c, 0, 51, 58
2,104565, Control_c, 0, 64, 70
2,104585, Control_c, 0, 64, 63
2,104603, Control_c, 0, 64, 59
2,104623, Control_c, 0, 64, 56
2,104641, Control_c, 0, 64, 53
2,104661, Control_c, 0, 64, 50
2,104681, Control_c, 0, 64, 47
2,104701, Control_c, 0, 64, 45
2,104719, Control_c, 0, 64, 46
2,104738, Control_c, 0, 64, 51
2,104757, Control_c, 0, 64, 57
2,104777, Control_c, 0, 64, 62
2,104797, Control_c, 0, 64, 65
2,104814, Control_c, 0, 64, 69
2,104835, Control_c, 0, 64, 76
2,104855, Control_c, 0, 64, 91
2,104861, Note_on_c, 0, 63, 0
2,104873, Control_c, 0, 64, 127
2,104918, Note_on_c, 0, 62, 56
2,104936, Note_on_c, 0, 77, 81
2,105065, Control_c, 0, 64, 120
2,105083, Control_c, 0, 64, 96
2,105102, Control_c, 0, 64, 86
2,105124, Control_c, 0, 64, 79
2,105140, Control_c, 0, 64, 76
2,105162, Control_c, 0, 64, 74
2,105179, Control_c, 0, 64, 73
2,105221, Control_c, 0, 64, 72
2,105237, Control_c, 0, 64, 71
2,105243, Note_on_c, 0, 75, 0
2,105258, Control_c, 0, 64, 70
2,105276, Control_c, 0, 64, 68
2,105296, Control_c, 0, 64, 66
2,105314, Control_c, 0, 64, 65
2,105321, Note_on_c, 0, 60, 47
2,105325, Note_on_c, 0, 78, 81
2,105335, Control_c, 0, 64, 64
2,105351, Note_on_c, 0, 62, 0
2,105390, Control_c, 0, 64, 63
2,105410, Control_c, 0, 64, 62
2,105432, Control_c, 0, 64, 61
2,105437, Note_on_c, 0, 77, 0
2,105451, Control_c, 0, 64, 59
2,105469, Control_c, 0, 64, 56
2,105485, Control_c, 0, 64, 53
2,105505, Control_c, 0, 64, 51
2,105544, Control_c, 0, 64, 52
2,105562, Control_c, 0, 64, 55
2,105581, Control_c, 0, 64, 59
2,105601, Control_c, 0, 64, 62
2,105622, Control_c, 0, 64, 64
2,105641, Control_c, 0, 64, 66
2,105663, Control_c, 0, 64, 68
2,105678, Control_c, 0, 64, 73
2,105697, Control_c, 0, 64, 80
2,105722, Control_c, 0, 64, 91
2,105722, Note_on_c, 0, 51, 0
2,105722, Note_on_c, 0, 77, 81
2,105739, Control_c, 0, 64, 111
2,105739, Note_on_c, 0, 60, 0
2,105758, Control_c, 0, 64, 127
2,105758, Note_on_c, 0, 62, 49
2,105822, Note_on_c, 0, 78, 0
2,106083, Control_c, 0, 64, 107
2,106103, Control_c, 0, 64, 90
2,106114, Note_on_c, 0, 82, 76
2,106120, Control_c, 0, 64, 77
2,106132, Note_on_c, 0, 66, 50
2,106141, Control_c, 0, 64, 69
2,106159, Control_c, 0, 64, 64
2,106178, Control_c, 0, 64, 62
2,106182, Note_on_c, 0, 62, 0
2,106197, Control_c, 0, 64, 63
2,106216, Control_c, 0, 64, 65
2,106225, Note_on_c, 0, 77, 0
2,106239, Control_c, 0, 64, 70
2,106239, Note_on_c, 0, 66, 0
2,106257, Control_c, 0, 64, 81
2,106274, Control_c, 0, 64, 120
2,106293, Control_c, 0, 64, 127
2,106515, Note_on_c, 0, 54, 54
2,106528, Note_on_c, 0, 70, 49
2,106544, Control_c, 0, 64, 118
2,106562, Control_c, 0, 64, 101
2,106582, Control_c, 0, 64, 91
2,106603, Control_c, 0, 64, 82
2,106621, Control_c, 0, 64, 77
2,106639, Control_c, 0, 64, 73
2,106658, Control_c, 0, 64, 71
2,106677, Control_c, 0, 64, 69
2,106755, Control_c, 0, 64, 68
2,106791, Control_c, 0, 64, 67
2,106868, Control_c, 0, 64, 66
2,106906, Note_on_c, 0, 54, 0
2,106906, Note_on_c, 0, 75, 63
2,106908, Note_on_c, 0, 59, 46
2,106928, Control_c, 0, 64, 65
2,106961, Note_on_c, 0, 82, 0
2,106985, Control_c, 0, 64, 64
2,107005, Note_on_c, 0, 70, 0
2,107100, Control_c, 0, 64, 63
2,107233, Control_c, 0, 64, 62
2,107289, Note_on_c, 0, 78, 68
2,107317, Note_on_c, 0, 63, 42
2,107419, Note_on_c, 0, 75, 0
2,107686, Note_on_c, 0, 77, 66
2,107690, Note_on_c, 0, 62, 46
2,107700, Note_on_c, 0, 63, 0
2,107767, Note_on_c, 0, 78, 0
2,108095, Note_on_c, 0, 78, 73
2,108112, Note_on_c, 0, 63, 40
2,108137, Note_on_c, 0, 77, 0
2,108385, Control_c, 0, 64, 61
2,108390, Note_on_c, 0, 62, 0
2,108493, Note_on_c, 0, 68, 49
2,108493, Note_on_c, 0, 77, 61
2,108504, Control_c, 0, 64, 60
2,108539, Control_c, 0, 64, 61
2,108596, Control_c, 0, 64, 60
2,108743, Note_on_c, 0, 63, 0
2,108809, Control_c, 0, 64, 59
2,108837, Note_on_c, 0, 78, 0
2,108869, Control_c, 0, 64, 58
2,108877, Note_on_c, 0, 75, 58
2,108888, Note_on_c, 0, 60, 47
2,108923, Control_c, 0, 64, 57
2,108939, Note_on_c, 0, 77, 0
2,109002, Control_c, 0, 64, 58
2,109022, Control_c, 0, 64, 59
2,109036, Control_c, 0, 64, 61
2,109058, Control_c, 0, 64, 62
2,109076, Control_c, 0, 64, 63
2,109095, Control_c, 0, 64, 64
2,109136, Control_c, 0, 64, 65
2,109154, Control_c, 0, 64, 66
2,109211, Control_c, 0, 64, 65
2,109232, Control_c, 0, 64, 64
2,109275, Note_on_c, 0, 59, 0
2,109288, Control_c, 0, 64, 63
2,109297, Note_on_c, 0, 61, 41
2,109310, Note_on_c, 0, 77, 54
2,109329, Note_on_c, 0, 75, 0
2,109344, Control_c, 0, 64, 62
2,109366, Control_c, 0, 64, 61
2,109374, Note_on_c, 0, 60, 0
2,109385, Control_c, 0, 64, 60
2,109403, Control_c, 0, 64, 59
2,109421, Control_c, 0, 64, 58
2,109460, Control_c, 0, 64, 57
2,109518, Control_c, 0, 64, 58
2,109556, Control_c, 0, 64, 60
2,109576, Control_c, 0, 64, 61
2,109597, Control_c, 0, 64, 63
2,109615, Control_c, 0, 64, 64
2,109636, Control_c, 0, 64, 65
2,109656, Control_c, 0, 64, 66
2,109674, Control_c, 0, 64, 67
2,109690, Control_c, 0, 64, 69
2,109712, Control_c, 0, 64, 71
2,109712, Note_on_c, 0, 78, 73
2,109733, Control_c, 0, 64, 73
2,109750, Control_c, 0, 64, 75
2,109768, Control_c, 0, 64, 78
2,109788, Control_c, 0, 64, 80
2,109792, Note_on_c, 0, 77, 0
2,109806, Control_c, 0, 64, 83
2,109827, Control_c, 0, 64, 87
2,109843, Control_c, 0, 64, 92
2,109864, Control_c, 0, 64, 98
2,109883, Control_c, 0, 64, 109
2,109902, Control_c, 0, 64, 127
2,110075, Control_c, 0, 64, 122
2,110094, Control_c, 0, 64, 102
2,110101, Note_on_c, 0, 80, 79
2,110105, Note_on_c, 0, 59, 49
2,110105, Note_on_c, 0, 65, 47
2,110115, Control_c, 0, 64, 94
2,110133, Control_c, 0, 64, 93
2,110172, Control_c, 0, 64, 98
2,110191, Control_c, 0, 64, 109
2,110195, Note_on_c, 0, 61, 0
2,110210, Control_c, 0, 64, 127
2,110241, Note_on_c, 0, 78, 0
2,110246, Note_on_c, 0, 59, 0
2,110250, Note_on_c, 0, 68, 0
2,110441, Control_c, 0, 64, 105
2,110463, Control_c, 0, 64, 94
2,110477, Control_c, 0, 64, 83
2,110497, Control_c, 0, 64, 73
2,110507, Note_on_c, 0, 78, 78
2,110508, Note_on_c, 0, 61, 51
2,110517, Control_c, 0, 64, 66
2,110526, Note_on_c, 0, 58, 33
2,110534, Note_on_c, 0, 65, 0
2,110538, Control_c, 0, 64, 62
2,110554, Control_c, 0, 64, 58
2,110576, Control_c, 0, 64, 55
2,110596, Control_c, 0, 64, 54
2,110609, Note_on_c, 0, 80, 0
2,110632, Control_c, 0, 64, 55
2,110651, Control_c, 0, 64, 57
2,110671, Control_c, 0, 64, 59
2,110689, Control_c, 0, 64, 62
2,110707, Control_c, 0, 64, 64
2,110729, Control_c, 0, 64, 67
2,110748, Control_c, 0, 64, 71
2,110766, Control_c, 0, 64, 77
2,110786, Control_c, 0, 64, 84
2,110806, Control_c, 0, 64, 91
2,110822, Note_on_c, 0, 58, 0
2,110824, Control_c, 0, 64, 98
2,110844, Control_c, 0, 64, 102
2,110881, Control_c, 0, 64, 103
2,110906, Control_c, 0, 64, 106
2,110906, Note_on_c, 0, 63, 51
2,110906, Note_on_c, 0, 83, 70
2,110919, Control_c, 0, 64, 111
2,110940, Control_c, 0, 64, 127
2,110976, Note_on_c, 0, 78, 0
2,111265, Control_c, 0, 64, 95
2,111287, Control_c, 0, 64, 78
2,111290, Note_on_c, 0, 57, 51
2,111290, Note_on_c, 0, 66, 54
2,111290, Note_on_c, 0, 75, 66
2,111294, Note_on_c, 0, 61, 0
2,111304, Control_c, 0, 64, 68
2,111325, Control_c, 0, 64, 63
2,111330, Note_on_c, 0, 63, 0
2,111346, Control_c, 0, 64, 62
2,111351, Note_on_c, 0, 83, 0
2,111362, Control_c, 0, 64, 63
2,111380, Control_c, 0, 64, 65
2,111401, Control_c, 0, 64, 69
2,111419, Control_c, 0, 64, 79
2,111438, Control_c, 0, 64, 94
2,111457, Control_c, 0, 64, 127
2,111630, Control_c, 0, 64, 106
2,111652, Control_c, 0, 64, 92
2,111669, Note_on_c, 0, 77, 68
2,111673, Control_c, 0, 64, 80
2,111678, Note_on_c, 0, 56, 58
2,111683, Note_on_c, 0, 66, 0
2,111688, Note_on_c, 0, 71, 60
2,111689, Control_c, 0, 64, 69
2,111707, Control_c, 0, 64, 64
2,111727, Control_c, 0, 64, 62
2,111740, Note_on_c, 0, 57, 0
2,111745, Control_c, 0, 64, 60
2,111784, Control_c, 0, 64, 61
2,111823, Control_c, 0, 64, 63
2,111841, Control_c, 0, 64, 65
2,111862, Control_c, 0, 64, 67
2,111879, Control_c, 0, 64, 71
2,111900, Control_c, 0, 64, 77
2,111908, Note_on_c, 0, 75, 0
2,111918, Control_c, 0, 64, 85
2,111940, Control_c, 0, 64, 97
2,111959, Control_c, 0, 64, 127
2,112068, Note_on_c, 0, 80, 74
2,112074, Note_on_c, 0, 56, 0
2,112085, Note_on_c, 0, 59, 56
2,112118, Note_on_c, 0, 77, 0
2,112436, Note_on_c, 0, 71, 0
2,112441, Note_on_c, 0, 78, 76
2,112445, Note_on_c, 0, 51, 55
2,112453, Note_on_c, 0, 59, 0
2,112504, Note_on_c, 0, 80, 0
2,112824, Note_on_c, 0, 80, 75
2,112835, Note_on_c, 0, 70, 51
2,112842, Note_on_c, 0, 50, 53
2,112878, Control_c, 0, 64, 92
2,112882, Note_on_c, 0, 78, 0
2,112898, Control_c, 0, 64, 79
2,112916, Control_c, 0, 64, 71
2,112936, Control_c, 0, 64, 65
2,112936, Note_on_c, 0, 51, 0
2,112954, Control_c, 0, 64, 61
2,112973, Control_c, 0, 64, 56
2,112994, Control_c, 0, 64, 51
2,113014, Control_c, 0, 64, 47
2,113032, Control_c, 0, 64, 45
2,113051, Control_c, 0, 64, 44
2,113148, Control_c, 0, 64, 48
2,113167, Control_c, 0, 64, 53
2,113185, Control_c, 0, 64, 55
2,113206, Control_c, 0, 64, 57
2,113219, Note_on_c, 0, 78, 73
2,113224, Control_c, 0, 64, 59
2,113228, Note_on_c, 0, 50, 0
2,113231, Note_on_c, 0, 46, 44
2,113244, Control_c, 0, 64, 62
2,113262, Control_c, 0, 64, 65
2,113282, Control_c, 0, 64, 69
2,113300, Control_c, 0, 64, 78
2,113320, Control_c, 0, 64, 98
2,113338, Control_c, 0, 64, 127
2,113398, Note_on_c, 0, 80, 0
2,113601, Note_on_c, 0, 77, 74
2,113625, Note_on_c, 0, 50, 39
2,113632, Note_on_c, 0, 46, 0
2,113692, Note_on_c, 0, 78, 0
2,113953, Control_c, 0, 64, 104
2,113971, Control_c, 0, 64, 90
2,113991, Control_c, 0, 64, 78
2,114008, Note_on_c, 0, 78, 70
2,114012, Control_c, 0, 64, 69
2,114031, Control_c, 0, 64, 64
2,114031, Note_on_c, 0, 51, 36
2,114051, Control_c, 0, 64, 61
2,114051, Note_on_c, 0, 50, 0
2,114056, Note_on_c, 0, 77, 0
2,114068, Control_c, 0, 64, 58
2,114088, Control_c, 0, 64, 54
2,114108, Control_c, 0, 64, 49
2,114125, Control_c, 0, 64, 42
2,114145, Control_c, 0, 64, 36
2,114164, Control_c, 0, 64, 30
2,114183, Control_c, 0, 64, 29
2,114204, Control_c, 0, 64, 31
2,114222, Control_c, 0, 64, 40
2,114241, Control_c, 0, 64, 51
2,114262, Control_c, 0, 64, 59
2,114279, Control_c, 0, 64, 63
2,114298, Control_c, 0, 64, 67
2,114318, Control_c, 0, 64, 76
2,114339, Control_c, 0, 64, 102
2,114357, Control_c, 0, 64, 127
2,114401, Note_on_c, 0, 73, 54
2,114455, Note_on_c, 0, 51, 0
2,114500, Note_on_c, 0, 78, 0
2,114768, Note_on_c, 0, 79, 67
2,115126, Control_c, 0, 64, 112
2,115143, Control_c, 0, 64, 96
2,115163, Note_on_c, 0, 44, 44
2,115168, Control_c, 0, 64, 86
2,115173, Note_on_c, 0, 80, 70
2,115184, Control_c, 0, 64, 78
2,115202, Control_c, 0, 64, 71
2,115221, Control_c, 0, 64, 66
2,115228, Note_on_c, 0, 79, 0
2,115235, Note_on_c, 0, 70, 0
2,115240, Control_c, 0, 64, 62
2,115260, Control_c, 0, 64, 59
2,115279, Control_c, 0, 64, 56
2,115297, Control_c, 0, 64, 54
2,115316, Control_c, 0, 64, 51
2,115339, Control_c, 0, 64, 48
2,115356, Control_c, 0, 64, 46
2,115394, Control_c, 0, 64, 47
2,115415, Control_c, 0, 64, 53
2,115433, Control_c, 0, 64, 59
2,115451, Control_c, 0, 64, 62
2,115469, Control_c, 0, 64, 63
2,115489, Control_c, 0, 64, 65
2,115509, Control_c, 0, 64, 67
2,115527, Control_c, 0, 64, 71
2,115542, Note_on_c, 0, 70, 58
2,115546, Control_c, 0, 64, 82
2,115566, Control_c, 0, 64, 109
2,115586, Control_c, 0, 64, 127
2,115590, Note_on_c, 0, 73, 0
2,115796, Note_on_c, 0, 44, 0
2,115818, Note_on_c, 0, 70, 0
2,115908, Note_on_c, 0, 78, 64
2,115927, Note_on_c, 0, 72, 56
2,115978, Note_on_c, 0, 72, 0
2,116108, Note_on_c, 0, 80, 0
2,116296, Control_c, 0, 64, 109
2,116315, Control_c, 0, 64, 94
2,116335, Control_c, 0, 64, 84
2,116335, Note_on_c, 0, 73, 51
2,116340, Note_on_c, 0, 76, 64
2,116354, Control_c, 0, 64, 76
2,116354, Note_on_c, 0, 49, 36
2,116375, Control_c, 0, 64, 70
2,116390, Control_c, 0, 64, 67
2,116412, Control_c, 0, 64, 65
2,116433, Control_c, 0, 64, 63
2,116433, Note_on_c, 0, 78, 0
2,116449, Control_c, 0, 64, 61
2,116467, Control_c, 0, 64, 59
2,116489, Control_c, 0, 64, 56
2,116510, Control_c, 0, 64, 54
2,116526, Control_c, 0, 64, 51
2,116545, Control_c, 0, 64, 49
2,116565, Control_c, 0, 64, 47
2,116623, Control_c, 0, 64, 50
2,116643, Control_c, 0, 64, 54
2,116660, Control_c, 0, 64, 58
2,116678, Control_c, 0, 64, 60
2,116699, Control_c, 0, 64, 62
2,116720, Note_on_c, 0, 71, 53
2,116724, Control_c, 0, 64, 64
2,116738, Control_c, 0, 64, 66
2,116756, Control_c, 0, 64, 68
2,116776, Control_c, 0, 64, 74
2,116794, Control_c, 0, 64, 81
2,116814, Control_c, 0, 64, 89
2,116832, Control_c, 0, 64, 102
2,116854, Control_c, 0, 64, 127
2,116877, Note_on_c, 0, 49, 0
2,117114, Note_on_c, 0, 77, 66
2,117198, Note_on_c, 0, 76, 0
2,117205, Note_on_c, 0, 71, 0
2,117451, Control_c, 0, 64, 116
2,117466, Control_c, 0, 64, 95
2,117489, Control_c, 0, 64, 84
2,117508, Control_c, 0, 64, 76
2,117517, Note_on_c, 0, 78, 69
2,117526, Control_c, 0, 64, 70
2,117526, Note_on_c, 0, 42, 41
2,117546, Control_c, 0, 64, 66
2,117551, Note_on_c, 0, 77, 0
2,117564, Control_c, 0, 64, 64
2,117584, Control_c, 0, 64, 63
2,117601, Control_c, 0, 64, 61
2,117620, Control_c, 0, 64, 60
2,117638, Control_c, 0, 64, 57
2,117658, Control_c, 0, 64, 54
2,117679, Control_c, 0, 64, 51
2,117697, Control_c, 0, 64, 50
2,117738, Control_c, 0, 64, 51
2,117754, Control_c, 0, 64, 54
2,117772, Control_c, 0, 64, 57
2,117796, Control_c, 0, 64, 60
2,117816, Control_c, 0, 64, 63
2,117832, Control_c, 0, 64, 65
2,117851, Control_c, 0, 64, 69
2,117871, Control_c, 0, 64, 81
2,117886, Note_on_c, 0, 68, 50
2,117893, Control_c, 0, 64, 107
2,117909, Control_c, 0, 64, 127
2,117919, Note_on_c, 0, 73, 0
2,117979, Note_on_c, 0, 42, 0
2,118254, Note_on_c, 0, 76, 62
2,118261, Note_on_c, 0, 70, 50
2,118287, Note_on_c, 0, 68, 0
2,118462, Note_on_c, 0, 78, 0
2,118662, Note_on_c, 0, 75, 60
2,118673, Note_on_c, 0, 47, 41
2,118679, Control_c, 0, 64, 101
2,118679, Note_on_c, 0, 71, 49
2,118697, Control_c, 0, 64, 85
2,118715, Control_c, 0, 64, 77
2,118734, Control_c, 0, 64, 71
2,118746, Note_on_c, 0, 76, 0
2,118758, Control_c, 0, 64, 67
2,118773, Control_c, 0, 64, 65
2,118789, Note_on_c, 0, 70, 0
2,118793, Control_c, 0, 64, 63
2,118830, Control_c, 0, 64, 62
2,118887, Control_c, 0, 64, 61
2,118908, Control_c, 0, 64, 60
2,118944, Control_c, 0, 64, 59
2,119002, Control_c, 0, 64, 58
2,119020, Control_c, 0, 64, 57
2,119040, Control_c, 0, 64, 55
2,119062, Control_c, 0, 64, 54
2,119062, Note_on_c, 0, 51, 48
2,119079, Control_c, 0, 64, 53
2,119096, Note_on_c, 0, 47, 0
2,119156, Control_c, 0, 64, 54
2,119176, Control_c, 0, 64, 55
2,119197, Control_c, 0, 64, 56
2,119406, Control_c, 0, 64, 57
2,119450, Note_on_c, 0, 56, 47
2,119514, Note_on_c, 0, 51, 0
2,119855, Note_on_c, 0, 73, 59
2,119864, Note_on_c, 0, 70, 46
2,119980, Note_on_c, 0, 75, 0
2,120110, Note_on_c, 0, 71, 0
2,120117, Control_c, 0, 64, 58
2,120193, Control_c, 0, 64, 59
2,120227, Note_on_c, 0, 55, 53
2,120245, Note_on_c, 0, 56, 0
2,120270, Control_c, 0, 64, 60
2,120598, Note_on_c, 0, 55, 0
2,120606, Note_on_c, 0, 58, 51
2,120673, Control_c, 0, 64, 61
2,120730, Control_c, 0, 64, 60
2,120789, Control_c, 0, 64, 61
2,120847, Control_c, 0, 64, 60
2,121020, Note_on_c, 0, 47, 45
2,121089, Note_on_c, 0, 58, 0
2,121365, Control_c, 0, 64, 61
2,121401, Control_c, 0, 64, 62
2,121422, Control_c, 0, 64, 63
2,121426, Note_on_c, 0, 70, 0
2,121431, Note_on_c, 0, 63, 38
2,121444, Control_c, 0, 64, 64
2,121461, Control_c, 0, 64, 66
2,121478, Control_c, 0, 64, 68
2,121498, Control_c, 0, 64, 71
2,121517, Control_c, 0, 64, 76
2,121539, Control_c, 0, 64, 84
2,121556, Control_c, 0, 64, 93
2,121576, Control_c, 0, 64, 102
2,121594, Control_c, 0, 64, 104
2,121645, Note_on_c, 0, 47, 0
2,121691, Control_c, 0, 64, 105
2,121796, Note_on_c, 0, 71, 56
2,121819, Note_on_c, 0, 68, 51
2,121922, Control_c, 0, 64, 104
2,121931, Note_on_c, 0, 73, 0
2,121946, Note_on_c, 0, 63, 0
2,121980, Control_c, 0, 64, 103
2,121986, Note_on_c, 0, 68, 0
2,121986, Note_on_c, 0, 68, 7
2,122017, Control_c, 0, 64, 102
2,122037, Control_c, 0, 64, 100
2,122057, Control_c, 0, 64, 99
2,122076, Control_c, 0, 64, 97
2,122094, Control_c, 0, 64, 96
2,122112, Control_c, 0, 64, 95
2,122132, Control_c, 0, 64, 93
2,122154, Control_c, 0, 64, 89
2,122171, Control_c, 0, 64, 86
2,122190, Control_c, 0, 64, 83
2,122200, Note_on_c, 0, 49, 48
2,122205, Note_on_c, 0, 64, 54
2,122209, Control_c, 0, 64, 80
2,122228, Control_c, 0, 64, 78
2,122251, Control_c, 0, 64, 75
2,122255, Note_on_c, 0, 68, 0
2,122267, Control_c, 0, 64, 72
2,122286, Control_c, 0, 64, 69
2,122306, Control_c, 0, 64, 67
2,122325, Control_c, 0, 64, 65
2,122345, Control_c, 0, 64, 64
2,122363, Control_c, 0, 64, 63
2,122383, Control_c, 0, 64, 62
2,122404, Control_c, 0, 64, 61
2,122421, Control_c, 0, 64, 59
2,122438, Control_c, 0, 64, 56
2,122458, Control_c, 0, 64, 54
2,122478, Control_c, 0, 64, 52
2,122497, Control_c, 0, 64, 51
2,122555, Control_c, 0, 64, 52
2,122573, Control_c, 0, 64, 53
2,122594, Control_c, 0, 64, 56
2,122601, Note_on_c, 0, 70, 57
2,122614, Control_c, 0, 64, 59
2,122632, Control_c, 0, 64, 62
2,122650, Control_c, 0, 64, 64
2,122671, Control_c, 0, 64, 65
2,122693, Control_c, 0, 64, 68
2,122709, Control_c, 0, 64, 71
2,122727, Control_c, 0, 64, 76
2,122747, Control_c, 0, 64, 84
2,122767, Control_c, 0, 64, 104
2,122785, Control_c, 0, 64, 127
2,122789, Note_on_c, 0, 49, 0
2,122975, Note_on_c, 0, 73, 66
2,123021, Note_on_c, 0, 71, 0
2,123036, Note_on_c, 0, 70, 0
2,123074, Note_on_c, 0, 73, 0
2,123376, Note_on_c, 0, 67, 62
2,123383, Control_c, 0, 64, 107
2,123383, Note_on_c, 0, 51, 63
2,123400, Control_c, 0, 64, 87
2,123418, Control_c, 0, 64, 76
2,123427, Note_on_c, 0, 64, 0
2,123438, Control_c, 0, 64, 68
2,123458, Control_c, 0, 64, 65
2,123476, Control_c, 0, 64, 63
2,123497, Control_c, 0, 64, 61
2,123515, Control_c, 0, 64, 59
2,123533, Control_c, 0, 64, 57
2,123554, Control_c, 0, 64, 55
2,123573, Control_c, 0, 64, 53
2,123610, Control_c, 0, 64, 55
2,123630, Control_c, 0, 64, 57
2,123648, Control_c, 0, 64, 59
2,123671, Control_c, 0, 64, 61
2,123688, Control_c, 0, 64, 63
2,123706, Control_c, 0, 64, 66
2,123726, Control_c, 0, 64, 72
2,123744, Control_c, 0, 64, 88
2,123767, Control_c, 0, 64, 127
2,123782, Note_on_c, 0, 63, 58
2,123808, Note_on_c, 0, 51, 0
2,124148, Control_c, 0, 64, 111
2,124171, Control_c, 0, 64, 84
2,124182, Note_on_c, 0, 70, 63
2,124184, Note_on_c, 0, 43, 54
2,124189, Control_c, 0, 64, 69
2,124195, Note_on_c, 0, 61, 52
2,124209, Control_c, 0, 64, 62
2,124227, Control_c, 0, 64, 59
2,124244, Control_c, 0, 64, 58
2,124260, Note_on_c, 0, 67, 0
2,124264, Control_c, 0, 64, 59
2,124282, Control_c, 0, 64, 60
2,124302, Control_c, 0, 64, 62
2,124308, Note_on_c, 0, 63, 0
2,124321, Control_c, 0, 64, 65
2,124342, Control_c, 0, 64, 72
2,124361, Control_c, 0, 64, 87
2,124365, Note_on_c, 0, 61, 0
2,124378, Control_c, 0, 64, 127
2,124585, Note_on_c, 0, 44, 60
2,124587, Note_on_c, 0, 59, 60
2,124592, Control_c, 0, 64, 102
2,124608, Control_c, 0, 64, 84
2,124628, Control_c, 0, 64, 73
2,124647, Control_c, 0, 64, 68
2,124667, Control_c, 0, 64, 66
2,124672, Note_on_c, 0, 43, 0
2,124685, Control_c, 0, 64, 65
2,124703, Control_c, 0, 64, 64
2,124723, Control_c, 0, 64, 62
2,124743, Control_c, 0, 64, 61
2,124763, Control_c, 0, 64, 58
2,124782, Control_c, 0, 64, 57
2,124859, Control_c, 0, 64, 56
2,124881, Control_c, 0, 64, 55
2,124897, Control_c, 0, 64, 53
2,124918, Control_c, 0, 64, 52
2,124936, Control_c, 0, 64, 51
2,124959, Control_c, 0, 64, 50
2,124973, Note_on_c, 0, 63, 60
2,124978, Control_c, 0, 64, 49
2,124992, Control_c, 0, 64, 47
2,125012, Control_c, 0, 64, 45
2,125032, Control_c, 0, 64, 40
2,125051, Control_c, 0, 64, 34
2,125069, Control_c, 0, 64, 27
2,125089, Control_c, 0, 64, 16
2,125108, Control_c, 0, 64, 0
2,125372, Note_on_c, 0, 47, 50
2,125378, Control_c, 0, 64, 21
2,125387, Note_on_c, 0, 68, 65
2,125393, Note_on_c, 0, 59, 0
2,125398, Control_c, 0, 64, 37
2,125418, Control_c, 0, 64, 49
2,125433, Control_c, 0, 64, 57
2,125453, Control_c, 0, 64, 60
2,125473, Control_c, 0, 64, 61
2,125491, Control_c, 0, 64, 62
2,125510, Control_c, 0, 64, 63
2,125514, Note_on_c, 0, 70, 0
2,125519, Note_on_c, 0, 44, 0
2,125530, Control_c, 0, 64, 64
2,125552, Control_c, 0, 64, 66
2,125568, Control_c, 0, 64, 68
2,125590, Control_c, 0, 64, 71
2,125606, Control_c, 0, 64, 74
2,125626, Control_c, 0, 64, 75
2,125645, Control_c, 0, 64, 74
2,125688, Control_c, 0, 64, 73
2,125704, Control_c, 0, 64, 71
2,125724, Control_c, 0, 64, 68
2,125745, Control_c, 0, 64, 65
2,125762, Control_c, 0, 64, 62
2,125769, Note_on_c, 0, 49, 63
2,125776, Note_on_c, 0, 58, 52
2,125780, Control_c, 0, 64, 60
2,125799, Control_c, 0, 64, 58
2,125812, Note_on_c, 0, 63, 0
2,125821, Control_c, 0, 64, 57
2,125838, Control_c, 0, 64, 54
2,125856, Control_c, 0, 64, 50
2,125877, Control_c, 0, 64, 44
2,125898, Control_c, 0, 64, 37
2,125916, Control_c, 0, 64, 29
2,125934, Control_c, 0, 64, 26
2,125947, Note_on_c, 0, 47, 0
2,125954, Control_c, 0, 64, 28
2,125971, Control_c, 0, 64, 36
2,125990, Control_c, 0, 64, 47
2,126010, Control_c, 0, 64, 58
2,126028, Control_c, 0, 64, 63
2,126050, Control_c, 0, 64, 65
2,126068, Control_c, 0, 64, 68
2,126089, Control_c, 0, 64, 71
2,126107, Control_c, 0, 64, 77
2,126126, Control_c, 0, 64, 85
2,126142, Note_on_c, 0, 52, 70
2,126142, Note_on_c, 0, 61, 56
2,126147, Control_c, 0, 64, 102
2,126147, Note_on_c, 0, 58, 0
2,126164, Control_c, 0, 64, 127
2,126244, Note_on_c, 0, 49, 0
2,126248, Note_on_c, 0, 61, 0
2,126509, Control_c, 0, 64, 92
2,126530, Control_c, 0, 64, 77
2,126538, Note_on_c, 0, 73, 67
2,126545, Note_on_c, 0, 46, 64
2,126547, Note_on_c, 0, 64, 60
2,126552, Control_c, 0, 64, 66
2,126568, Control_c, 0, 64, 61
2,126586, Control_c, 0, 64, 57
2,126627, Note_on_c, 0, 52, 0
2,126631, Control_c, 0, 64, 59
2,126636, Note_on_c, 0, 68, 0
2,126642, Control_c, 0, 64, 62
2,126661, Control_c, 0, 64, 65
2,126674, Note_on_c, 0, 73, 0
2,126679, Control_c, 0, 64, 70
2,126701, Control_c, 0, 64, 81
2,126718, Control_c, 0, 64, 110
2,126740, Control_c, 0, 64, 127
2,126968, Note_on_c, 0, 51, 73
2,126973, Control_c, 0, 64, 111
2,126989, Note_on_c, 0, 67, 62
2,126993, Control_c, 0, 64, 94
2,127005, Control_c, 0, 64, 82
2,127026, Control_c, 0, 64, 74
2,127046, Control_c, 0, 64, 69
2,127055, Note_on_c, 0, 46, 0
2,127064, Control_c, 0, 64, 66
2,127081, Control_c, 0, 64, 64
2,127101, Control_c, 0, 64, 62
2,127121, Control_c, 0, 64, 59
2,127141, Control_c, 0, 64, 56
2,127158, Control_c, 0, 64, 53
2,127178, Control_c, 0, 64, 49
2,127198, Control_c, 0, 64, 47
2,127217, Control_c, 0, 64, 45
2,127295, Control_c, 0, 64, 47
2,127313, Control_c, 0, 64, 51
2,127331, Control_c, 0, 64, 58
2,127352, Control_c, 0, 64, 61
2,127369, Control_c, 0, 64, 63
2,127378, Note_on_c, 0, 63, 49
2,127393, Control_c, 0, 64, 64
2,127401, Note_on_c, 0, 64, 0
2,127411, Control_c, 0, 64, 66
2,127431, Control_c, 0, 64, 69
2,127431, Note_on_c, 0, 67, 0
2,127448, Control_c, 0, 64, 76
2,127467, Control_c, 0, 64, 93
2,127485, Control_c, 0, 64, 127
2,127754, Control_c, 0, 64, 109
2,127765, Note_on_c, 0, 39, 66
2,127780, Control_c, 0, 64, 90
2,127789, Note_on_c, 0, 61, 43
2,127794, Control_c, 0, 64, 81
2,127811, Control_c, 0, 64, 77
2,127835, Control_c, 0, 64, 73
2,127835, Note_on_c, 0, 51, 0
2,127844, Note_on_c, 0, 63, 0
2,127852, Control_c, 0, 64, 70
2,127870, Control_c, 0, 64, 68
2,127986, Control_c, 0, 64, 69
2,128022, Control_c, 0, 64, 70
2,128063, Control_c, 0, 64, 69
2,128081, Control_c, 0, 64, 68
2,128099, Control_c, 0, 64, 67
2,128157, Control_c, 0, 64, 66
2,128161, Note_on_c, 0, 68, 56
2,128172, Note_on_c, 0, 44, 69
2,128176, Control_c, 0, 64, 65
2,128185, Note_on_c, 0, 59, 39
2,128189, Note_on_c, 0, 61, 0
2,128196, Control_c, 0, 64, 64
2,128216, Control_c, 0, 64, 63
2,128234, Control_c, 0, 64, 62
2,128274, Control_c, 0, 64, 61
2,128292, Control_c, 0, 64, 60
2,128353, Control_c, 0, 64, 59
2,128423, Note_on_c, 0, 39, 0
2,128457, Note_on_c, 0, 68, 0
2,128542, Control_c, 0, 64, 60
2,128553, Note_on_c, 0, 46, 63
2,128569, Note_on_c, 0, 58, 45
2,128587, Note_on_c, 0, 59, 0
2,128657, Control_c, 0, 64, 61
2,128697, Note_on_c, 0, 44, 0
2,128718, Control_c, 0, 64, 62
2,128736, Control_c, 0, 64, 63
2,128754, Control_c, 0, 64, 64
2,128830, Control_c, 0, 64, 63
2,128963, Note_on_c, 0, 47, 58
2,128972, Note_on_c, 0, 63, 50
2,128976, Note_on_c, 0, 56, 42
2,129000, Note_on_c, 0, 58, 0
2,129041, Note_on_c, 0, 46, 0
2,129370, Note_on_c, 0, 46, 63
2,129370, Note_on_c, 0, 61, 45
2,129443, Note_on_c, 0, 47, 0
2,129675, Control_c, 0, 64, 62
2,129748, Note_on_c, 0, 63, 0
2,129773, Note_on_c, 0, 59, 41
2,129786, Note_on_c, 0, 51, 67
2,129790, Control_c, 0, 64, 61
2,129879, Note_on_c, 0, 61, 0
2,129883, Note_on_c, 0, 56, 0
2,129964, Control_c, 0, 64, 62
2,130040, Control_c, 0, 64, 63
2,130077, Control_c, 0, 64, 64
2,130097, Control_c, 0, 64, 66
2,130117, Control_c, 0, 64, 69
2,130135, Control_c, 0, 64, 74
2,130155, Control_c, 0, 64, 77
2,130174, Control_c, 0, 64, 81
2,130183, Note_on_c, 0, 58, 50
2,130187, Note_on_c, 0, 39, 60
2,130194, Control_c, 0, 64, 84
2,130194, Note_on_c, 0, 55, 41
2,130230, Control_c, 0, 64, 80
2,130250, Control_c, 0, 64, 73
2,130254, Note_on_c, 0, 51, 0
2,130270, Control_c, 0, 64, 65
2,130275, Note_on_c, 0, 59, 0
2,130286, Note_on_c, 0, 55, 0
2,130288, Control_c, 0, 64, 63
2,130308, Control_c, 0, 64, 62
2,130328, Control_c, 0, 64, 61
2,130346, Control_c, 0, 64, 62
2,130384, Control_c, 0, 64, 64
2,130406, Control_c, 0, 64, 66
2,130424, Control_c, 0, 64, 70
2,130443, Control_c, 0, 64, 77
2,130462, Control_c, 0, 64, 84
2,130483, Control_c, 0, 64, 90
2,130503, Control_c, 0, 64, 92
2,130521, Control_c, 0, 64, 93
2,130537, Control_c, 0, 64, 94
2,130557, Control_c, 0, 64, 93
2,130573, Control_c, 0, 64, 89
2,130593, Control_c, 0, 64, 83
2,130600, Note_on_c, 0, 59, 52
2,130604, Note_on_c, 0, 44, 60
2,130604, Note_on_c, 0, 56, 45
2,130613, Control_c, 0, 64, 77
2,130632, Control_c, 0, 64, 70
2,130651, Control_c, 0, 64, 65
2,130655, Note_on_c, 0, 46, 0
2,130669, Control_c, 0, 64, 61
2,130691, Control_c, 0, 64, 59
2,130696, Note_on_c, 0, 58, 0
2,130710, Control_c, 0, 64, 60
2,130729, Control_c, 0, 64, 61
2,130747, Control_c, 0, 64, 63
2,130778, Note_on_c, 0, 39, 0
2,130824, Control_c, 0, 64, 64
2,130843, Control_c, 0, 64, 65
2,130861, Control_c, 0, 64, 66
2,130882, Control_c, 0, 64, 65
2,130903, Control_c, 0, 64, 64
2,130921, Control_c, 0, 64, 62
2,130938, Control_c, 0, 64, 61
2,130996, Control_c, 0, 64, 60
2,131005, Note_on_c, 0, 47, 55
2,131017, Control_c, 0, 64, 59
2,131084, Note_on_c, 0, 44, 0
2,131344, Control_c, 0, 64, 60
2,131390, Note_on_c, 0, 46, 57
2,131408, Note_on_c, 0, 63, 56
2,131441, Note_on_c, 0, 56, 0
2,131445, Note_on_c, 0, 47, 0
2,131459, Note_on_c, 0, 59, 0
2,131801, Note_on_c, 0, 47, 52
2,131801, Note_on_c, 0, 68, 59
2,131859, Note_on_c, 0, 46, 0
2,131868, Note_on_c, 0, 63, 0
2,132196, Note_on_c, 0, 46, 53
2,132242, Note_on_c, 0, 47, 0
2,132607, Note_on_c, 0, 71, 47
2,132609, Note_on_c, 0, 44, 47
2,132646, Note_on_c, 0, 46, 0
2,133004, Note_on_c, 0, 46, 55
2,133008, Note_on_c, 0, 73, 56
2,133100, Note_on_c, 0, 44, 0
2,133109, Note_on_c, 0, 71, 0
2,133282, Control_c, 0, 64, 61
2,133393, Note_on_c, 0, 47, 61
2,133397, Note_on_c, 0, 75, 57
2,133447, Note_on_c, 0, 73, 0
2,133458, Control_c, 0, 64, 62
2,133477, Note_on_c, 0, 46, 0
2,133492, Note_on_c, 0, 68, 0
2,133531, Control_c, 0, 64, 63
2,133665, Control_c, 0, 64, 62
2,133780, Control_c, 0, 64, 61
2,133794, Note_on_c, 0, 49, 58
2,133794, Note_on_c, 0, 76, 59
2,133802, Note_on_c, 0, 67, 41
2,133835, Note_on_c, 0, 75, 0
2,133859, Note_on_c, 0, 47, 0
2,134165, Control_c, 0, 64, 60
2,134209, Note_on_c, 0, 75, 57
2,134216, Note_on_c, 0, 47, 62
2,134236, Note_on_c, 0, 68, 45
2,134243, Control_c, 0, 64, 59
2,134261, Control_c, 0, 64, 58
2,134279, Control_c, 0, 64, 57
2,134319, Control_c, 0, 64, 56
2,134340, Control_c, 0, 64, 55
2,134340, Note_on_c, 0, 67, 0
2,134344, Note_on_c, 0, 49, 0
2,134355, Control_c, 0, 64, 53
2,134376, Control_c, 0, 64, 50
2,134395, Control_c, 0, 64, 47
2,134418, Control_c, 0, 64, 45
2,134422, Note_on_c, 0, 76, 0
2,134435, Control_c, 0, 64, 43
2,134452, Control_c, 0, 64, 40
2,134472, Control_c, 0, 64, 38
2,134548, Control_c, 0, 64, 41
2,134569, Control_c, 0, 64, 45
2,134585, Control_c, 0, 64, 51
2,134603, Note_on_c, 0, 52, 66
2,134607, Control_c, 0, 64, 56
2,134619, Note_on_c, 0, 73, 56
2,134625, Control_c, 0, 64, 59
2,134644, Control_c, 0, 64, 61
2,134664, Control_c, 0, 64, 62
2,134676, Note_on_c, 0, 75, 0
2,134682, Control_c, 0, 64, 63
2,134702, Control_c, 0, 64, 65
2,134707, Note_on_c, 0, 73, 0
2,134721, Control_c, 0, 64, 66
2,134741, Control_c, 0, 64, 69
2,134760, Control_c, 0, 64, 72
2,134778, Control_c, 0, 64, 73
2,134893, Control_c, 0, 64, 72
2,134931, Control_c, 0, 64, 71
2,134950, Control_c, 0, 64, 69
2,134971, Control_c, 0, 64, 68
2,134991, Control_c, 0, 64, 66
2,135008, Control_c, 0, 64, 65
2,135012, Note_on_c, 0, 71, 53
2,135015, Note_on_c, 0, 44, 56
2,135029, Control_c, 0, 64, 64
2,135047, Control_c, 0, 64, 63
2,135054, Note_on_c, 0, 52, 0
2,135067, Control_c, 0, 64, 61
2,135072, Note_on_c, 0, 47, 0
2,135086, Control_c, 0, 64, 59
2,135106, Control_c, 0, 64, 57
2,135415, Note_on_c, 0, 46, 49
2,135415, Note_on_c, 0, 73, 56
2,135519, Note_on_c, 0, 71, 0
2,135533, Note_on_c, 0, 44, 0
2,135797, Note_on_c, 0, 49, 51
2,135797, Note_on_c, 0, 70, 39
2,135848, Note_on_c, 0, 68, 0
2,135892, Control_c, 0, 64, 58
2,135902, Note_on_c, 0, 46, 0
2,136183, Control_c, 0, 64, 59
2,136186, Note_on_c, 0, 68, 47
2,136192, Note_on_c, 0, 47, 50
2,136229, Note_on_c, 0, 49, 0
2,136246, Note_on_c, 0, 73, 0
2,136413, Control_c, 0, 64, 60
2,136594, Note_on_c, 0, 49, 47
2,136598, Note_on_c, 0, 67, 47
2,136617, Note_on_c, 0, 47, 0
2,136730, Note_on_c, 0, 68, 0
2,136798, Control_c, 0, 64, 59
2,136981, Note_on_c, 0, 47, 46
2,136990, Control_c, 0, 64, 60
2,137088, Note_on_c, 0, 49, 0
2,137387, Note_on_c, 0, 46, 44
2,137387, Note_on_c, 0, 75, 48
2,137413, Control_c, 0, 64, 61
2,137429, Note_on_c, 0, 47, 0
2,137450, Control_c, 0, 64, 62
2,137472, Control_c, 0, 64, 64
2,137488, Control_c, 0, 64, 66
2,137508, Control_c, 0, 64, 70
2,137512, Note_on_c, 0, 75, 0
2,137531, Control_c, 0, 64, 78
2,137548, Control_c, 0, 64, 91
2,137566, Control_c, 0, 64, 127
2,137737, Control_c, 0, 64, 120
2,137758, Control_c, 0, 64, 99
2,137768, Note_on_c, 0, 47, 49
2,137777, Control_c, 0, 64, 87
2,137781, Note_on_c, 0, 75, 53
2,137798, Control_c, 0, 64, 79
2,137816, Control_c, 0, 64, 73
2,137836, Control_c, 0, 64, 68
2,137846, Note_on_c, 0, 46, 0
2,137852, Control_c, 0, 64, 66
2,137874, Control_c, 0, 64, 64
2,137891, Control_c, 0, 64, 63
2,137912, Control_c, 0, 64, 62
2,137930, Control_c, 0, 64, 60
2,137951, Control_c, 0, 64, 59
2,137969, Control_c, 0, 64, 57
2,137973, Note_on_c, 0, 67, 0
2,137989, Control_c, 0, 64, 56
2,138021, Note_on_c, 0, 70, 0
2,138066, Control_c, 0, 64, 57
2,138083, Control_c, 0, 64, 58
2,138102, Control_c, 0, 64, 59
2,138124, Control_c, 0, 64, 61
2,138143, Control_c, 0, 64, 62
2,138166, Note_on_c, 0, 51, 53
2,138525, Control_c, 0, 64, 61
2,138558, Note_on_c, 0, 43, 35
2,138574, Note_on_c, 0, 70, 44
2,138608, Note_on_c, 0, 51, 0
2,138625, Note_on_c, 0, 47, 0
2,138959, Note_on_c, 0, 44, 46
2,138968, Note_on_c, 0, 71, 55
2,139042, Note_on_c, 0, 43, 0
2,139189, Note_on_c, 0, 70, 0
2,139339, Note_on_c, 0, 47, 45
2,139369, Note_on_c, 0, 44, 0
2,139747, Note_on_c, 0, 39, 44
2,139765, Note_on_c, 0, 67, 48
2,139769, Note_on_c, 0, 47, 0
2,139842, Note_on_c, 0, 71, 0
2,140111, Note_on_c, 0, 40, 41
2,140127, Note_on_c, 0, 68, 49
2,140146, Note_on_c, 0, 39, 0
2,140216, Note_on_c, 0, 67, 0
2,140277, Note_on_c, 0, 40, 0
2,140316, Note_on_c, 0, 42, 47
2,140372, Note_on_c, 0, 42, 0
2,140410, Note_on_c, 0, 40, 40
2,140468, Note_on_c, 0, 40, 0
2,140492, Note_on_c, 0, 42, 60
2,140501, Note_on_c, 0, 70, 59
2,140557, Note_on_c, 0, 42, 0
2,140584, Note_on_c, 0, 40, 57
2,140612, Note_on_c, 0, 68, 0
2,140639, Note_on_c, 0, 40, 0
2,140696, Note_on_c, 0, 42, 41
2,140743, Note_on_c, 0, 42, 0
2,140779, Note_on_c, 0, 40, 38
2,140843, Note_on_c, 0, 40, 0
2,140858, Note_on_c, 0, 70, 0
2,140867, Note_on_c, 0, 71, 58
2,140880, Note_on_c, 0, 42, 45
2,140889, Control_c, 0, 64, 62
2,140933, Note_on_c, 0, 42, 0
2,140965, Note_on_c, 0, 40, 49
2,141020, Note_on_c, 0, 40, 0
2,141082, Note_on_c, 0, 42, 40
2,141126, Note_on_c, 0, 42, 0
2,141162, Note_on_c, 0, 40, 42
2,141212, Note_on_c, 0, 40, 0
2,141257, Note_on_c, 0, 74, 61
2,141263, Note_on_c, 0, 42, 41
2,141319, Note_on_c, 0, 42, 0
2,141362, Note_on_c, 0, 40, 36
2,141385, Note_on_c, 0, 75, 0
2,141425, Note_on_c, 0, 40, 0
2,141470, Note_on_c, 0, 42, 37
2,141527, Note_on_c, 0, 42, 0
2,141561, Control_c, 0, 64, 63
2,141561, Note_on_c, 0, 40, 46
2,141613, Note_on_c, 0, 40, 0
2,141636, Control_c, 0, 64, 64
2,141653, Control_c, 0, 64, 65
2,141671, Note_on_c, 0, 70, 56
2,141675, Note_on_c, 0, 42, 39
2,141679, Control_c, 0, 64, 67
2,141697, Control_c, 0, 64, 70
2,141697, Note_on_c, 0, 71, 0
2,141713, Control_c, 0, 64, 73
2,141729, Note_on_c, 0, 42, 0
2,141733, Control_c, 0, 64, 74
2,141770, Note_on_c, 0, 40, 40
2,141790, Control_c, 0, 64, 73
2,141822, Note_on_c, 0, 40, 0
2,141829, Control_c, 0, 64, 72
2,141847, Control_c, 0, 64, 71
2,141867, Control_c, 0, 64, 70
2,141879, Note_on_c, 0, 42, 40
2,141926, Note_on_c, 0, 42, 0
2,141943, Control_c, 0, 64, 69
2,141970, Note_on_c, 0, 40, 36
2,141999, Control_c, 0, 64, 68
2,142028, Note_on_c, 0, 40, 0
2,142047, Note_on_c, 0, 68, 48
2,142072, Note_on_c, 0, 42, 37
2,142118, Note_on_c, 0, 70, 0
2,142126, Note_on_c, 0, 42, 0
2,142157, Note_on_c, 0, 40, 49
2,142174, Control_c, 0, 64, 67
2,142214, Control_c, 0, 64, 66
2,142214, Note_on_c, 0, 40, 0
2,142272, Note_on_c, 0, 39, 49
2,142350, Note_on_c, 0, 39, 0
2,142366, Control_c, 0, 64, 65
2,142386, Note_on_c, 0, 40, 32
2,142402, Control_c, 0, 64, 64
2,142438, Control_c, 0, 64, 63
2,142476, Control_c, 0, 64, 62
2,142514, Control_c, 0, 64, 61
2,142540, Note_on_c, 0, 39, 34
2,142544, Note_on_c, 0, 40, 0
2,142544, Note_on_c, 0, 75, 53
2,142556, Control_c, 0, 64, 60
2,142574, Control_c, 0, 64, 59
2,142587, Note_on_c, 0, 74, 0
2,142595, Control_c, 0, 64, 58
2,142631, Control_c, 0, 64, 56
2,142649, Control_c, 0, 64, 54
2,142670, Control_c, 0, 64, 50
2,142692, Control_c, 0, 64, 44
2,142712, Control_c, 0, 64, 37
2,142728, Control_c, 0, 64, 32
2,142747, Control_c, 0, 64, 31
2,142766, Control_c, 0, 64, 33
2,142785, Control_c, 0, 64, 42
2,142804, Control_c, 0, 64, 51
2,142823, Control_c, 0, 64, 56
2,142842, Control_c, 0, 64, 59
2,142861, Control_c, 0, 64, 60
2,142881, Control_c, 0, 64, 62
2,142901, Control_c, 0, 64, 63
2,142919, Control_c, 0, 64, 65
2,142941, Control_c, 0, 64, 66
2,142951, Note_on_c, 0, 39, 0
2,142958, Control_c, 0, 64, 68
2,142976, Control_c, 0, 64, 71
2,142996, Control_c, 0, 64, 74
2,143003, Note_on_c, 0, 67, 42
2,143016, Control_c, 0, 64, 78
2,143035, Control_c, 0, 64, 85
2,143054, Control_c, 0, 64, 95
2,143078, Control_c, 0, 64, 103
2,143078, Note_on_c, 0, 75, 0
2,143093, Control_c, 0, 64, 109
2,143111, Control_c, 0, 64, 111
2,143227, Control_c, 0, 64, 110
2,143244, Control_c, 0, 64, 109
2,143283, Control_c, 0, 64, 106
2,143304, Control_c, 0, 64, 105
2,143321, Control_c, 0, 64, 104
2,143340, Control_c, 0, 64, 103
2,143381, Control_c, 0, 64, 102
2,143400, Control_c, 0, 64, 100
2,143420, Control_c, 0, 64, 98
2,143438, Control_c, 0, 64, 97
2,143457, Control_c, 0, 64, 95
2,143469, Note_on_c, 0, 51, 37
2,143476, Control_c, 0, 64, 93
2,143496, Control_c, 0, 64, 90
2,143513, Control_c, 0, 64, 87
2,143533, Control_c, 0, 64, 84
2,143544, Note_on_c, 0, 75, 57
2,143554, Control_c, 0, 64, 83
2,143572, Control_c, 0, 64, 82
2,143591, Control_c, 0, 64, 81
2,143610, Control_c, 0, 64, 78
2,143629, Control_c, 0, 64, 74
2,143649, Control_c, 0, 64, 72
2,143668, Control_c, 0, 64, 71
2,143686, Control_c, 0, 64, 70
2,143761, Note_on_c, 0, 67, 0
2,143765, Control_c, 0, 64, 69
2,143782, Control_c, 0, 64, 67
2,143823, Control_c, 0, 64, 66
2,143861, Control_c, 0, 64, 65
2,143919, Control_c, 0, 64, 64
2,143957, Control_c, 0, 64, 63
2,143957, Note_on_c, 0, 74, 65
2,143984, Note_on_c, 0, 53, 19
2,144052, Control_c, 0, 64, 62
2,144063, Note_on_c, 0, 68, 0
2,144076, Note_on_c, 0, 51, 0
2,144180, Note_on_c, 0, 75, 0
2,144186, Control_c, 0, 64, 61
2,144303, Control_c, 0, 64, 60
2,144361, Note_on_c, 0, 56, 38
2,144365, Note_on_c, 0, 53, 0
2,144628, Control_c, 0, 64, 59
2,144722, Control_c, 0, 64, 58
2,144769, Note_on_c, 0, 56, 0
2,144769, Note_on_c, 0, 73, 58
2,144774, Note_on_c, 0, 55, 35
2,144821, Control_c, 0, 64, 57
2,144886, Note_on_c, 0, 74, 0
2,144898, Control_c, 0, 64, 56
2,145155, Note_on_c, 0, 72, 54
2,145157, Note_on_c, 0, 55, 0
2,145166, Note_on_c, 0, 56, 39
2,145290, Note_on_c, 0, 73, 0
2,145525, Note_on_c, 0, 56, 0
2,145539, Note_on_c, 0, 51, 44
2,145920, Note_on_c, 0, 56, 39
2,145942, Note_on_c, 0, 71, 49
2,145993, Note_on_c, 0, 72, 0
2,146030, Note_on_c, 0, 51, 0
2,146323, Note_on_c, 0, 70, 53
2,146445, Note_on_c, 0, 71, 0
2,146725, Note_on_c, 0, 54, 41
2,146792, Note_on_c, 0, 56, 0
2,146887, Note_on_c, 0, 54, 0
2,146896, Note_on_c, 0, 53, 41
2,147111, Note_on_c, 0, 53, 0
2,147120, Note_on_c, 0, 54, 36
2,147136, Note_on_c, 0, 72, 58
2,147369, Note_on_c, 0, 70, 0
2,147537, Note_on_c, 0, 53, 36
2,147545, Note_on_c, 0, 73, 69
2,147585, Note_on_c, 0, 54, 0
2,147793, Note_on_c, 0, 72, 0
2,147935, Note_on_c, 0, 58, 56
2,147950, Control_c, 0, 64, 57
2,147982, Note_on_c, 0, 53, 0
2,148316, Note_on_c, 0, 56, 44
2,148335, Note_on_c, 0, 74, 67
2,148435, Note_on_c, 0, 58, 0
2,148461, Note_on_c, 0, 73, 0
2,148737, Note_on_c, 0, 54, 37
2,148748, Note_on_c, 0, 75, 70
2,148810, Note_on_c, 0, 56, 0
2,148884, Note_on_c, 0, 74, 0
2,149127, Note_on_c, 0, 59, 49
2,149195, Note_on_c, 0, 54, 0
2,149509, Note_on_c, 0, 58, 42
2,149525, Control_c, 0, 64, 58
2,149557, Note_on_c, 0, 59, 0
2,149912, Note_on_c, 0, 56, 35
2,149921, Note_on_c, 0, 58, 0
2,150290, Note_on_c, 0, 58, 40
2,150371, Note_on_c, 0, 56, 0
2,150683, Note_on_c, 0, 59, 37
2,150820, Note_on_c, 0, 58, 0
2,151059, Note_on_c, 0, 74, 46
2,151065, Note_on_c, 0, 53, 40
2,151113, Note_on_c, 0, 75, 0
2,151160, Note_on_c, 0, 59, 0
2,151271, Note_on_c, 0, 74, 0
2,151271, Note_on_c, 0, 75, 62
2,151308, Control_c, 0, 64, 57
2,151334, Note_on_c, 0, 75, 0
2,151365, Note_on_c, 0, 74, 53
2,151429, Note_on_c, 0, 74, 0
2,151438, Note_on_c, 0, 58, 40
2,151459, Note_on_c, 0, 75, 58
2,151505, Note_on_c, 0, 75, 0
2,151526, Note_on_c, 0, 53, 0
2,151542, Note_on_c, 0, 74, 57
2,151587, Note_on_c, 0, 74, 0
2,151601, Note_on_c, 0, 75, 60
2,151653, Note_on_c, 0, 75, 0
2,151686, Note_on_c, 0, 74, 61
2,151732, Note_on_c, 0, 74, 0
2,151763, Note_on_c, 0, 75, 59
2,151770, Note_on_c, 0, 56, 36
2,151802, Note_on_c, 0, 75, 0
2,151833, Note_on_c, 0, 74, 59
2,151838, Note_on_c, 0, 58, 0
2,151905, Note_on_c, 0, 74, 0
2,151943, Note_on_c, 0, 72, 51
2,152012, Note_on_c, 0, 72, 0
2,152025, Note_on_c, 0, 74, 49
2,152168, Note_on_c, 0, 55, 40
2,152181, Note_on_c, 0, 75, 56
2,152213, Note_on_c, 0, 56, 0
2,152245, Note_on_c, 0, 74, 0
2,152500, Control_c, 0, 64, 56
2,152541, Note_on_c, 0, 55, 0
2,152564, Note_on_c, 0, 56, 45
2,152883, Control_c, 0, 64, 55
2,152941, Note_on_c, 0, 73, 55
2,152950, Note_on_c, 0, 58, 38
2,152962, Note_on_c, 0, 56, 0
2,153085, Note_on_c, 0, 75, 0
2,153250, Control_c, 0, 64, 54
2,153306, Control_c, 0, 64, 53
2,153310, Note_on_c, 0, 51, 41
2,153333, Note_on_c, 0, 71, 46
2,153349, Note_on_c, 0, 58, 0
2,153451, Note_on_c, 0, 73, 0
2,153557, Control_c, 0, 64, 54
2,153711, Control_c, 0, 64, 55
2,153733, Note_on_c, 0, 56, 35
2,153807, Note_on_c, 0, 51, 0
2,154092, Control_c, 0, 64, 56
2,154118, Note_on_c, 0, 54, 42
2,154118, Note_on_c, 0, 70, 45
2,154153, Note_on_c, 0, 71, 0
2,154209, Note_on_c, 0, 56, 0
2,154420, Control_c, 0, 64, 57
2,154477, Control_c, 0, 64, 58
2,154519, Note_on_c, 0, 52, 37
2,154521, Note_on_c, 0, 68, 55
2,154557, Control_c, 0, 64, 59
2,154574, Control_c, 0, 64, 60
2,154587, Note_on_c, 0, 54, 0
2,154601, Note_on_c, 0, 70, 0
2,154650, Control_c, 0, 64, 61
2,154668, Control_c, 0, 64, 62
2,154687, Control_c, 0, 64, 63
2,154746, Control_c, 0, 64, 64
2,154787, Control_c, 0, 64, 65
2,154802, Control_c, 0, 64, 68
2,154822, Control_c, 0, 64, 71
2,154842, Control_c, 0, 64, 76
2,154864, Control_c, 0, 64, 79
2,154880, Control_c, 0, 64, 83
2,154885, Note_on_c, 0, 68, 0
2,154902, Control_c, 0, 64, 88
2,154902, Note_on_c, 0, 54, 40
2,154922, Control_c, 0, 64, 97
2,154927, Note_on_c, 0, 52, 0
2,154938, Control_c, 0, 64, 112
2,154956, Control_c, 0, 64, 127
2,155284, Control_c, 0, 64, 111
2,155291, Note_on_c, 0, 68, 59
2,155291, Note_on_c, 0, 73, 57
2,155299, Note_on_c, 0, 52, 44
2,155303, Control_c, 0, 64, 102
2,155322, Control_c, 0, 64, 94
2,155332, Note_on_c, 0, 54, 0
2,155341, Control_c, 0, 64, 90
2,155362, Control_c, 0, 64, 87
2,155380, Control_c, 0, 64, 83
2,155399, Control_c, 0, 64, 80
2,155418, Control_c, 0, 64, 77
2,155437, Control_c, 0, 64, 75
2,155456, Control_c, 0, 64, 73
2,155476, Control_c, 0, 64, 72
2,155515, Control_c, 0, 64, 71
2,155551, Control_c, 0, 64, 70
2,155570, Control_c, 0, 64, 69
2,155592, Control_c, 0, 64, 68
2,155610, Control_c, 0, 64, 67
2,155648, Control_c, 0, 64, 66
2,155673, Note_on_c, 0, 52, 0
2,155678, Note_on_c, 0, 67, 59
2,155686, Note_on_c, 0, 51, 46
2,155707, Control_c, 0, 64, 65
2,155712, Note_on_c, 0, 68, 0
2,155743, Control_c, 0, 64, 64
2,155819, Control_c, 0, 64, 63
2,155956, Control_c, 0, 64, 62
2,156077, Note_on_c, 0, 52, 41
2,156077, Note_on_c, 0, 70, 48
2,156082, Note_on_c, 0, 51, 0
2,156175, Note_on_c, 0, 73, 0
2,156457, Note_on_c, 0, 66, 52
2,156457, Note_on_c, 0, 72, 58
2,156469, Note_on_c, 0, 51, 49
2,156502, Note_on_c, 0, 70, 0
2,156520, Note_on_c, 0, 67, 0
2,156531, Note_on_c, 0, 52, 0
2,156870, Note_on_c, 0, 49, 46
2,156870, Note_on_c, 0, 65, 48
2,156872, Note_on_c, 0, 73, 54
2,156876, Control_c, 0, 64, 61
2,156903, Note_on_c, 0, 66, 0
2,156903, Note_on_c, 0, 72, 0
2,156908, Note_on_c, 0, 51, 0
2,156919, Control_c, 0, 64, 60
2,156936, Control_c, 0, 64, 59
2,156954, Control_c, 0, 64, 57
2,156973, Control_c, 0, 64, 56
2,156994, Control_c, 0, 64, 55
2,157071, Control_c, 0, 64, 56
2,157088, Control_c, 0, 64, 57
2,157107, Control_c, 0, 64, 59
2,157126, Control_c, 0, 64, 61
2,157145, Control_c, 0, 64, 63
2,157165, Control_c, 0, 64, 64
2,157185, Control_c, 0, 64, 65
2,157204, Control_c, 0, 64, 66
2,157222, Control_c, 0, 64, 68
2,157242, Control_c, 0, 64, 71
2,157250, Note_on_c, 0, 68, 66
2,157264, Control_c, 0, 64, 75
2,157281, Control_c, 0, 64, 80
2,157288, Note_on_c, 0, 65, 0
2,157298, Control_c, 0, 64, 86
2,157319, Control_c, 0, 64, 94
2,157339, Control_c, 0, 64, 107
2,157358, Control_c, 0, 64, 127
2,157393, Note_on_c, 0, 68, 0
2,157393, Note_on_c, 0, 68, 6
2,157606, Control_c, 0, 64, 100
2,157623, Note_on_c, 0, 70, 66
2,157627, Control_c, 0, 64, 82
2,157632, Note_on_c, 0, 64, 64
2,157637, Note_on_c, 0, 37, 53
2,157644, Control_c, 0, 64, 70
2,157664, Control_c, 0, 64, 64
2,157683, Control_c, 0, 64, 62
2,157695, Note_on_c, 0, 68, 0
2,157704, Note_on_c, 0, 73, 0
2,157708, Note_on_c, 0, 49, 0
2,157721, Control_c, 0, 64, 63
2,157743, Control_c, 0, 64, 65
2,157761, Control_c, 0, 64, 69
2,157761, Note_on_c, 0, 64, 0
2,157779, Control_c, 0, 64, 77
2,157802, Control_c, 0, 64, 88
2,157817, Control_c, 0, 64, 101
2,157840, Control_c, 0, 64, 116
2,157857, Control_c, 0, 64, 127
2,157971, Control_c, 0, 64, 110
2,157994, Control_c, 0, 64, 100
2,158012, Control_c, 0, 64, 90
2,158016, Note_on_c, 0, 71, 69
2,158021, Note_on_c, 0, 44, 56
2,158026, Note_on_c, 0, 63, 65
2,158029, Control_c, 0, 64, 82
2,158049, Control_c, 0, 64, 77
2,158064, Note_on_c, 0, 37, 0
2,158069, Control_c, 0, 64, 72
2,158069, Note_on_c, 0, 70, 0
2,158085, Control_c, 0, 64, 68
2,158105, Control_c, 0, 64, 66
2,158125, Control_c, 0, 64, 63
2,158147, Control_c, 0, 64, 62
2,158165, Control_c, 0, 64, 60
2,158181, Control_c, 0, 64, 59
2,158203, Control_c, 0, 64, 57
2,158223, Control_c, 0, 64, 53
2,158241, Control_c, 0, 64, 47
2,158259, Control_c, 0, 64, 40
2,158279, Control_c, 0, 64, 34
2,158297, Control_c, 0, 64, 32
2,158318, Control_c, 0, 64, 33
2,158336, Control_c, 0, 64, 39
2,158357, Control_c, 0, 64, 47
2,158374, Control_c, 0, 64, 55
2,158393, Control_c, 0, 64, 60
2,158407, Note_on_c, 0, 43, 45
2,158411, Note_on_c, 0, 73, 65
2,158416, Control_c, 0, 64, 63
2,158432, Control_c, 0, 64, 65
2,158441, Note_on_c, 0, 71, 0
2,158454, Control_c, 0, 64, 67
2,158454, Note_on_c, 0, 44, 0
2,158470, Control_c, 0, 64, 71
2,158490, Control_c, 0, 64, 79
2,158497, Note_on_c, 0, 63, 0
2,158510, Control_c, 0, 64, 90
2,158530, Control_c, 0, 64, 102
2,158547, Control_c, 0, 64, 113
2,158567, Control_c, 0, 64, 120
2,158644, Control_c, 0, 64, 116
2,158664, Control_c, 0, 64, 108
2,158681, Control_c, 0, 64, 100
2,158701, Control_c, 0, 64, 91
2,158722, Control_c, 0, 64, 83
2,158739, Control_c, 0, 64, 75
2,158759, Control_c, 0, 64, 65
2,158774, Note_on_c, 0, 71, 65
2,158777, Note_on_c, 0, 65, 60
2,158781, Control_c, 0, 64, 60
2,158791, Note_on_c, 0, 43, 0
2,158791, Note_on_c, 0, 44, 46
2,158798, Control_c, 0, 64, 55
2,158815, Control_c, 0, 64, 51
2,158838, Control_c, 0, 64, 50
2,158840, Note_on_c, 0, 73, 0
2,158854, Control_c, 0, 64, 52
2,158874, Control_c, 0, 64, 56
2,158893, Control_c, 0, 64, 63
2,158912, Control_c, 0, 64, 68
2,158925, Note_on_c, 0, 65, 0
2,158932, Control_c, 0, 64, 78
2,158951, Control_c, 0, 64, 109
2,158970, Control_c, 0, 64, 127
2,159183, Control_c, 0, 64, 104
2,159200, Control_c, 0, 64, 87
2,159204, Note_on_c, 0, 66, 59
2,159207, Note_on_c, 0, 70, 60
2,159218, Note_on_c, 0, 39, 50
2,159223, Control_c, 0, 64, 74
2,159224, Note_on_c, 0, 71, 0
2,159237, Control_c, 0, 64, 66
2,159257, Control_c, 0, 64, 61
2,159277, Control_c, 0, 64, 58
2,159296, Control_c, 0, 64, 56
2,159301, Note_on_c, 0, 44, 0
2,159315, Control_c, 0, 64, 53
2,159336, Control_c, 0, 64, 49
2,159354, Control_c, 0, 64, 42
2,159374, Control_c, 0, 64, 29
2,159392, Control_c, 0, 64, 0
2,159506, Control_c, 0, 64, 16
2,159530, Control_c, 0, 64, 32
2,159546, Control_c, 0, 64, 47
2,159568, Control_c, 0, 64, 59
2,159585, Control_c, 0, 64, 65
2,159587, Note_on_c, 0, 39, 0
2,159596, Note_on_c, 0, 75, 60
2,159602, Control_c, 0, 64, 68
2,159622, Control_c, 0, 64, 74
2,159644, Control_c, 0, 64, 85
2,159661, Control_c, 0, 64, 127
2,159713, Note_on_c, 0, 66, 0
2,159972, Note_on_c, 0, 73, 69
2,159978, Note_on_c, 0, 67, 59
2,160033, Note_on_c, 0, 70, 0
2,160072, Note_on_c, 0, 75, 0
2,160370, Note_on_c, 0, 68, 69
2,160373, Control_c, 0, 64, 109
2,160377, Note_on_c, 0, 71, 57
2,160392, Control_c, 0, 64, 97
2,160413, Control_c, 0, 64, 84
2,160428, Note_on_c, 0, 73, 0
2,160430, Control_c, 0, 64, 76
2,160449, Control_c, 0, 64, 71
2,160469, Control_c, 0, 64, 67
2,160487, Control_c, 0, 64, 64
2,160496, Note_on_c, 0, 67, 0
2,160505, Control_c, 0, 64, 61
2,160526, Control_c, 0, 64, 59
2,160544, Control_c, 0, 64, 57
2,160562, Control_c, 0, 64, 55
2,160584, Control_c, 0, 64, 52
2,160601, Control_c, 0, 64, 51
2,160621, Control_c, 0, 64, 50
2,160717, Control_c, 0, 64, 49
2,160738, Control_c, 0, 64, 48
2,160767, Note_on_c, 0, 76, 62
2,160823, Note_on_c, 0, 71, 0
2,161174, Note_on_c, 0, 75, 59
2,161319, Note_on_c, 0, 76, 0
2,161390, Control_c, 0, 64, 49
2,161559, Note_on_c, 0, 73, 52
2,161563, Control_c, 0, 64, 50
2,161606, Note_on_c, 0, 75, 0
2,161619, Control_c, 0, 64, 51
2,161656, Control_c, 0, 64, 52
2,161697, Control_c, 0, 64, 53
2,161718, Control_c, 0, 64, 54
2,161735, Control_c, 0, 64, 55
2,161754, Control_c, 0, 64, 57
2,161774, Control_c, 0, 64, 58
2,161792, Control_c, 0, 64, 59
2,161812, Control_c, 0, 64, 60
2,161850, Control_c, 0, 64, 61
2,161888, Control_c, 0, 64, 62
2,161967, Control_c, 0, 64, 63
2,161967, Note_on_c, 0, 75, 54
2,162003, Control_c, 0, 64, 64
2,162022, Control_c, 0, 64, 65
2,162041, Control_c, 0, 64, 67
2,162061, Control_c, 0, 64, 69
2,162079, Note_on_c, 0, 73, 0
2,162084, Control_c, 0, 64, 71
2,162098, Control_c, 0, 64, 73
2,162120, Control_c, 0, 64, 76
2,162138, Control_c, 0, 64, 80
2,162158, Control_c, 0, 64, 85
2,162175, Control_c, 0, 64, 91
2,162195, Control_c, 0, 64, 99
2,162215, Control_c, 0, 64, 106
2,162233, Control_c, 0, 64, 110
2,162253, Control_c, 0, 64, 113
2,162272, Control_c, 0, 64, 115
2,162281, Note_on_c, 0, 68, 0
2,162293, Control_c, 0, 64, 116
2,162370, Note_on_c, 0, 76, 59
2,162428, Note_on_c, 0, 75, 0
2,162580, Control_c, 0, 64, 115
2,162599, Control_c, 0, 64, 112
2,162621, Control_c, 0, 64, 109
2,162637, Control_c, 0, 64, 105
2,162655, Control_c, 0, 64, 102
2,162674, Control_c, 0, 64, 98
2,162693, Control_c, 0, 64, 94
2,162713, Control_c, 0, 64, 90
2,162735, Control_c, 0, 64, 86
2,162735, Note_on_c, 0, 70, 52
2,162755, Control_c, 0, 64, 81
2,162762, Note_on_c, 0, 67, 45
2,162771, Control_c, 0, 64, 77
2,162790, Control_c, 0, 64, 73
2,162812, Control_c, 0, 64, 70
2,162828, Control_c, 0, 64, 69
2,162848, Control_c, 0, 64, 68
2,162871, Control_c, 0, 64, 67
2,162897, Note_on_c, 0, 67, 0
2,162907, Control_c, 0, 64, 66
2,162945, Note_on_c, 0, 68, 54
2,162987, Note_on_c, 0, 68, 0
2,163003, Control_c, 0, 64, 65
2,163033, Note_on_c, 0, 67, 49
2,163080, Control_c, 0, 64, 64
2,163083, Note_on_c, 0, 67, 0
2,163116, Note_on_c, 0, 68, 51
2,163120, Control_c, 0, 64, 63
2,163123, Note_on_c, 0, 75, 52
2,163158, Note_on_c, 0, 70, 0
2,163173, Note_on_c, 0, 68, 0
2,163195, Control_c, 0, 64, 62
2,163197, Note_on_c, 0, 67, 58
2,163255, Note_on_c, 0, 67, 0
2,163306, Note_on_c, 0, 68, 51
2,163348, Control_c, 0, 64, 61
2,163366, Note_on_c, 0, 68, 0
2,163398, Note_on_c, 0, 67, 52
2,163455, Note_on_c, 0, 67, 0
2,163466, Note_on_c, 0, 76, 0
2,163484, Control_c, 0, 64, 60
2,163484, Note_on_c, 0, 68, 61
2,163523, Note_on_c, 0, 73, 53
2,163538, Note_on_c, 0, 68, 0
2,163558, Control_c, 0, 64, 59
2,163573, Note_on_c, 0, 67, 53
2,163625, Note_on_c, 0, 67, 0
2,163656, Note_on_c, 0, 75, 0
2,163675, Control_c, 0, 64, 58
2,163695, Note_on_c, 0, 65, 39
2,163752, Control_c, 0, 64, 57
2,163761, Note_on_c, 0, 65, 0
2,163775, Note_on_c, 0, 67, 44
2,163885, Note_on_c, 0, 67, 0
2,163906, Note_on_c, 0, 71, 46
2,163911, Note_on_c, 0, 68, 52
2,163943, Note_on_c, 0, 73, 0
2,164296, Note_on_c, 0, 73, 50
2,164364, Note_on_c, 0, 71, 0
2,164667, Note_on_c, 0, 66, 48
2,164672, Note_on_c, 0, 75, 49
2,164725, Note_on_c, 0, 73, 0
2,164770, Control_c, 0, 64, 58
2,164770, Note_on_c, 0, 68, 0
2,165062, Note_on_c, 0, 68, 48
2,165068, Note_on_c, 0, 64, 52
2,165116, Note_on_c, 0, 75, 0
2,165121, Note_on_c, 0, 66, 0
2,165465, Note_on_c, 0, 73, 62
2,165498, Control_c, 0, 64, 57
2,165554, Control_c, 0, 64, 58
2,165571, Note_on_c, 0, 68, 0
2,165691, Control_c, 0, 64, 57
2,165866, Note_on_c, 0, 75, 55
2,165877, Note_on_c, 0, 63, 44
2,165924, Note_on_c, 0, 64, 0
2,165928, Note_on_c, 0, 73, 0
2,166248, Note_on_c, 0, 61, 40
2,166258, Note_on_c, 0, 76, 58
2,166304, Control_c, 0, 64, 56
2,166313, Note_on_c, 0, 63, 0
2,166380, Control_c, 0, 64, 57
2,166385, Note_on_c, 0, 75, 0
2,166401, Control_c, 0, 64, 58
2,166437, Control_c, 0, 64, 59
2,166458, Control_c, 0, 64, 60
2,166477, Control_c, 0, 64, 61
2,166497, Control_c, 0, 64, 62
2,166516, Control_c, 0, 64, 63
2,166553, Control_c, 0, 64, 64
2,166574, Control_c, 0, 64, 65
2,166611, Control_c, 0, 64, 66
2,166630, Control_c, 0, 64, 67
2,166650, Control_c, 0, 64, 69
2,166653, Note_on_c, 0, 64, 53
2,166662, Note_on_c, 0, 61, 0
2,166667, Control_c, 0, 64, 71
2,166689, Control_c, 0, 64, 73
2,166708, Control_c, 0, 64, 76
2,166729, Control_c, 0, 64, 78
2,166744, Control_c, 0, 64, 81
2,166764, Control_c, 0, 64, 84
2,166783, Control_c, 0, 64, 85
2,166898, Control_c, 0, 64, 84
2,166938, Control_c, 0, 64, 83
2,166958, Control_c, 0, 64, 81
2,166976, Control_c, 0, 64, 79
2,166995, Control_c, 0, 64, 76
2,167015, Control_c, 0, 64, 71
2,167026, Note_on_c, 0, 61, 57
2,167034, Control_c, 0, 64, 68
2,167038, Note_on_c, 0, 69, 47
2,167054, Control_c, 0, 64, 65
2,167074, Control_c, 0, 64, 64
2,167091, Control_c, 0, 64, 62
2,167109, Control_c, 0, 64, 60
2,167132, Control_c, 0, 64, 58
2,167132, Note_on_c, 0, 64, 0
2,167169, Control_c, 0, 64, 59
2,167187, Control_c, 0, 64, 60
2,167205, Control_c, 0, 64, 61
2,167226, Control_c, 0, 64, 63
2,167244, Control_c, 0, 64, 64
2,167264, Control_c, 0, 64, 65
2,167282, Control_c, 0, 64, 66
2,167303, Control_c, 0, 64, 67
2,167341, Control_c, 0, 64, 66
2,167361, Control_c, 0, 64, 65
2,167379, Control_c, 0, 64, 64
2,167398, Control_c, 0, 64, 62
2,167417, Control_c, 0, 64, 60
2,167430, Note_on_c, 0, 60, 64
2,167430, Note_on_c, 0, 75, 57
2,167439, Control_c, 0, 64, 59
2,167488, Note_on_c, 0, 76, 0
2,167527, Note_on_c, 0, 61, 0
2,167534, Control_c, 0, 64, 60
2,167553, Control_c, 0, 64, 61
2,167570, Control_c, 0, 64, 62
2,167590, Control_c, 0, 64, 64
2,167612, Control_c, 0, 64, 65
2,167629, Control_c, 0, 64, 67
2,167648, Control_c, 0, 64, 69
2,167669, Control_c, 0, 64, 71
2,167688, Control_c, 0, 64, 73
2,167705, Control_c, 0, 64, 75
2,167725, Control_c, 0, 64, 77
2,167743, Control_c, 0, 64, 79
2,167763, Control_c, 0, 64, 80
2,167774, Note_on_c, 0, 69, 0
2,167782, Control_c, 0, 64, 81
2,167802, Control_c, 0, 64, 82
2,167823, Control_c, 0, 64, 83
2,167841, Note_on_c, 0, 68, 38
2,167846, Control_c, 0, 64, 84
2,167859, Control_c, 0, 64, 85
2,167881, Control_c, 0, 64, 87
2,167897, Control_c, 0, 64, 88
2,167935, Control_c, 0, 64, 89
2,167947, Note_on_c, 0, 68, 0
2,167973, Control_c, 0, 64, 90
2,167997, Note_on_c, 0, 66, 47
2,168109, Control_c, 0, 64, 89
2,168126, Control_c, 0, 64, 88
2,168147, Control_c, 0, 64, 86
2,168166, Control_c, 0, 64, 82
2,168188, Control_c, 0, 64, 76
2,168205, Control_c, 0, 64, 70
2,168213, Note_on_c, 0, 68, 52
2,168218, Note_on_c, 0, 59, 65
2,168226, Control_c, 0, 64, 65
2,168247, Control_c, 0, 64, 62
2,168247, Note_on_c, 0, 60, 0
2,168263, Control_c, 0, 64, 61
2,168281, Control_c, 0, 64, 62
2,168287, Note_on_c, 0, 66, 0
2,168320, Control_c, 0, 64, 63
2,168339, Control_c, 0, 64, 65
2,168358, Control_c, 0, 64, 68
2,168377, Control_c, 0, 64, 74
2,168398, Control_c, 0, 64, 88
2,168415, Control_c, 0, 64, 102
2,168434, Control_c, 0, 64, 111
2,168454, Control_c, 0, 64, 110
2,168473, Control_c, 0, 64, 107
2,168491, Control_c, 0, 64, 103
2,168511, Control_c, 0, 64, 98
2,168530, Control_c, 0, 64, 91
2,168549, Control_c, 0, 64, 85
2,168569, Control_c, 0, 64, 78
2,168588, Control_c, 0, 64, 73
2,168610, Control_c, 0, 64, 68
2,168615, Note_on_c, 0, 58, 61
2,168615, Note_on_c, 0, 73, 67
2,168627, Control_c, 0, 64, 66
2,168650, Control_c, 0, 64, 64
2,168664, Note_on_c, 0, 59, 0
2,168667, Control_c, 0, 64, 62
2,168685, Control_c, 0, 64, 61
2,168703, Control_c, 0, 64, 59
2,168729, Note_on_c, 0, 68, 0
2,168762, Control_c, 0, 64, 60
2,168782, Control_c, 0, 64, 62
2,168793, Note_on_c, 0, 75, 0
2,168802, Control_c, 0, 64, 63
2,168819, Control_c, 0, 64, 64
2,168838, Control_c, 0, 64, 66
2,168858, Control_c, 0, 64, 69
2,168876, Control_c, 0, 64, 73
2,168896, Control_c, 0, 64, 80
2,168915, Control_c, 0, 64, 90
2,168933, Control_c, 0, 64, 111
2,168952, Control_c, 0, 64, 127
2,168992, Note_on_c, 0, 61, 56
2,169338, Control_c, 0, 64, 109
2,169357, Control_c, 0, 64, 87
2,169373, Note_on_c, 0, 57, 65
2,169373, Note_on_c, 0, 66, 69
2,169377, Control_c, 0, 64, 74
2,169396, Control_c, 0, 64, 67
2,169415, Control_c, 0, 64, 65
2,169415, Note_on_c, 0, 58, 0
2,169444, Note_on_c, 0, 61, 0
2,169452, Control_c, 0, 64, 68
2,169472, Control_c, 0, 64, 73
2,169492, Control_c, 0, 64, 89
2,169510, Control_c, 0, 64, 127
2,169559, Note_on_c, 0, 57, 0
2,169739, Control_c, 0, 64, 97
2,169762, Control_c, 0, 64, 78
2,169766, Note_on_c, 0, 56, 67
2,169766, Note_on_c, 0, 71, 66
2,169780, Control_c, 0, 64, 69
2,169798, Note_on_c, 0, 73, 0
2,169803, Control_c, 0, 64, 64
2,169818, Control_c, 0, 64, 61
2,169836, Control_c, 0, 64, 59
2,169873, Control_c, 0, 64, 60
2,169893, Control_c, 0, 64, 61
2,169913, Control_c, 0, 64, 64
2,169933, Control_c, 0, 64, 68
2,169952, Control_c, 0, 64, 74
2,169971, Control_c, 0, 64, 84
2,169991, Control_c, 0, 64, 102
2,170010, Control_c, 0, 64, 127
2,170144, Control_c, 0, 64, 116
2,170144, Note_on_c, 0, 80, 78
2,170158, Note_on_c, 0, 64, 64
2,170165, Control_c, 0, 64, 88
2,170183, Control_c, 0, 64, 74
2,170187, Note_on_c, 0, 56, 0
2,170201, Control_c, 0, 64, 70
2,170220, Control_c, 0, 64, 71
2,170231, Note_on_c, 0, 66, 0
2,170241, Control_c, 0, 64, 74
2,170259, Control_c, 0, 64, 82
2,170279, Control_c, 0, 64, 100
2,170300, Control_c, 0, 64, 127
2,170326, Note_on_c, 0, 64, 0
2,170340, Note_on_c, 0, 63, 64
2,170523, Note_on_c, 0, 63, 0
2,170528, Control_c, 0, 64, 107
2,170530, Note_on_c, 0, 64, 70
2,170543, Note_on_c, 0, 58, 65
2,170548, Control_c, 0, 64, 85
2,170566, Control_c, 0, 64, 72
2,170587, Control_c, 0, 64, 65
2,170606, Control_c, 0, 64, 64
2,170625, Control_c, 0, 64, 65
2,170642, Control_c, 0, 64, 71
2,170658, Note_on_c, 0, 80, 0
2,170663, Control_c, 0, 64, 88
2,170680, Control_c, 0, 64, 127
2,170693, Note_on_c, 0, 58, 0
2,170913, Control_c, 0, 64, 108
2,170933, Control_c, 0, 64, 86
2,170938, Note_on_c, 0, 78, 73
2,170942, Note_on_c, 0, 63, 60
2,170946, Note_on_c, 0, 59, 63
2,170951, Control_c, 0, 64, 74
2,170968, Control_c, 0, 64, 68
2,170988, Control_c, 0, 64, 65
2,170993, Note_on_c, 0, 64, 0
2,171009, Control_c, 0, 64, 63
2,171045, Control_c, 0, 64, 62
2,171064, Control_c, 0, 64, 59
2,171087, Control_c, 0, 64, 56
2,171105, Control_c, 0, 64, 52
2,171122, Control_c, 0, 64, 49
2,171143, Control_c, 0, 64, 46
2,171161, Control_c, 0, 64, 44
2,171181, Control_c, 0, 64, 40
2,171198, Control_c, 0, 64, 30
2,171218, Control_c, 0, 64, 14
2,171238, Control_c, 0, 64, 0
2,171317, Note_on_c, 0, 76, 65
2,171330, Note_on_c, 0, 68, 58
2,171524, Note_on_c, 0, 78, 0
2,171702, Note_on_c, 0, 66, 58
2,171707, Note_on_c, 0, 75, 60
2,171724, Note_on_c, 0, 60, 56
2,171772, Note_on_c, 0, 59, 0
2,171780, Note_on_c, 0, 63, 0
2,171810, Note_on_c, 0, 71, 0
2,171820, Note_on_c, 0, 76, 0
2,171964, Note_on_c, 0, 66, 0
2,171969, Control_c, 0, 64, 42
2,171985, Control_c, 0, 64, 55
2,172006, Control_c, 0, 64, 61
2,172026, Control_c, 0, 64, 63
2,172044, Control_c, 0, 64, 65
2,172062, Control_c, 0, 64, 69
2,172082, Control_c, 0, 64, 77
2,172103, Control_c, 0, 64, 87
2,172112, Note_on_c, 0, 61, 52
2,172121, Control_c, 0, 64, 86
2,172130, Note_on_c, 0, 64, 63
2,172143, Control_c, 0, 64, 83
2,172159, Control_c, 0, 64, 80
2,172179, Control_c, 0, 64, 77
2,172197, Control_c, 0, 64, 74
2,172217, Control_c, 0, 64, 70
2,172237, Control_c, 0, 64, 65
2,172246, Note_on_c, 0, 60, 0
2,172258, Control_c, 0, 64, 61
2,172274, Control_c, 0, 64, 60
2,172295, Control_c, 0, 64, 59
2,172334, Control_c, 0, 64, 60
2,172334, Note_on_c, 0, 68, 0
2,172351, Control_c, 0, 64, 59
2,172391, Control_c, 0, 64, 58
2,172411, Control_c, 0, 64, 56
2,172426, Control_c, 0, 64, 55
2,172487, Control_c, 0, 64, 54
2,172492, Note_on_c, 0, 73, 64
2,172501, Note_on_c, 0, 69, 44
2,172523, Control_c, 0, 64, 52
2,172544, Control_c, 0, 64, 50
2,172548, Note_on_c, 0, 75, 0
2,172565, Control_c, 0, 64, 48
2,172582, Control_c, 0, 64, 45
2,172601, Control_c, 0, 64, 44
2,172659, Control_c, 0, 64, 43
2,172677, Note_on_c, 0, 72, 66
2,172681, Control_c, 0, 64, 42
2,172681, Note_on_c, 0, 73, 0
2,172698, Control_c, 0, 64, 39
2,172717, Control_c, 0, 64, 36
2,172737, Control_c, 0, 64, 33
2,172756, Control_c, 0, 64, 31
2,172793, Control_c, 0, 64, 30
2,172870, Note_on_c, 0, 73, 56
2,172880, Note_on_c, 0, 68, 50
2,172900, Note_on_c, 0, 64, 0
2,172923, Note_on_c, 0, 69, 0
2,172952, Note_on_c, 0, 72, 0
2,173287, Note_on_c, 0, 66, 49
2,173300, Note_on_c, 0, 75, 56
2,173352, Note_on_c, 0, 68, 0
2,173405, Note_on_c, 0, 73, 0
2,173678, Note_on_c, 0, 68, 47
2,173695, Control_c, 0, 64, 31
2,173714, Control_c, 0, 64, 33
2,173721, Note_on_c, 0, 66, 0
2,173734, Control_c, 0, 64, 34
2,173753, Control_c, 0, 64, 36
2,173772, Control_c, 0, 64, 37
2,173792, Control_c, 0, 64, 39
2,173810, Control_c, 0, 64, 41
2,173829, Control_c, 0, 64, 44
2,173850, Control_c, 0, 64, 46
2,173868, Control_c, 0, 64, 48
2,173887, Control_c, 0, 64, 51
2,173909, Control_c, 0, 64, 52
2,173926, Control_c, 0, 64, 54
2,173947, Control_c, 0, 64, 55
2,173966, Control_c, 0, 64, 57
2,173987, Control_c, 0, 64, 58
2,174002, Control_c, 0, 64, 59
2,174022, Control_c, 0, 64, 60
2,174064, Control_c, 0, 64, 61
2,174064, Note_on_c, 0, 69, 45
2,174076, Note_on_c, 0, 61, 0
2,174100, Note_on_c, 0, 68, 0
2,174117, Control_c, 0, 64, 62
2,174159, Control_c, 0, 64, 63
2,174368, Control_c, 0, 64, 62
2,174444, Control_c, 0, 64, 61
2,174472, Note_on_c, 0, 63, 48
2,174476, Note_on_c, 0, 60, 41
2,174503, Control_c, 0, 64, 60
2,174510, Note_on_c, 0, 69, 0
2,174601, Control_c, 0, 64, 59
2,174713, Control_c, 0, 64, 58
2,174790, Control_c, 0, 64, 57
2,174810, Control_c, 0, 64, 56
2,174828, Control_c, 0, 64, 55
2,174873, Note_on_c, 0, 68, 46
2,174885, Control_c, 0, 64, 56
2,174906, Control_c, 0, 64, 58
2,174923, Control_c, 0, 64, 59
2,174943, Control_c, 0, 64, 60
2,174963, Control_c, 0, 64, 61
2,175001, Control_c, 0, 64, 62
2,175038, Control_c, 0, 64, 63
2,175078, Control_c, 0, 64, 64
2,175116, Control_c, 0, 64, 65
2,175135, Control_c, 0, 64, 66
2,175193, Control_c, 0, 64, 67
2,175252, Note_on_c, 0, 63, 0
2,175256, Control_c, 0, 64, 68
2,175271, Control_c, 0, 64, 69
2,175271, Note_on_c, 0, 66, 38
2,175309, Control_c, 0, 64, 70
2,175370, Note_on_c, 0, 68, 0
2,175443, Control_c, 0, 64, 69
2,175520, Control_c, 0, 64, 68
2,175541, Control_c, 0, 64, 67
2,175575, Control_c, 0, 64, 66
2,175595, Note_on_c, 0, 60, 0
2,175619, Control_c, 0, 64, 65
2,175654, Control_c, 0, 64, 64
2,175663, Note_on_c, 0, 61, 35
2,175667, Note_on_c, 0, 64, 52
2,175674, Control_c, 0, 64, 63
2,175691, Control_c, 0, 64, 62
2,175711, Control_c, 0, 64, 61
2,175731, Control_c, 0, 64, 59
2,175748, Note_on_c, 0, 75, 0
2,175752, Control_c, 0, 64, 58
2,175770, Control_c, 0, 64, 57
2,175788, Control_c, 0, 64, 56
2,175788, Note_on_c, 0, 66, 0
2,175810, Control_c, 0, 64, 57
2,175827, Control_c, 0, 64, 58
2,175845, Control_c, 0, 64, 59
2,175866, Control_c, 0, 64, 61
2,175884, Control_c, 0, 64, 63
2,175903, Control_c, 0, 64, 64
2,175922, Control_c, 0, 64, 65
2,175941, Control_c, 0, 64, 67
2,175962, Control_c, 0, 64, 70
2,175983, Control_c, 0, 64, 74
2,175995, Note_on_c, 0, 61, 0
2,175999, Control_c, 0, 64, 79
2,176021, Control_c, 0, 64, 85
2,176038, Control_c, 0, 64, 90
2,176059, Control_c, 0, 64, 95
2,176070, Note_on_c, 0, 68, 56
2,176077, Control_c, 0, 64, 100
2,176095, Control_c, 0, 64, 109
2,176115, Control_c, 0, 64, 127
2,176444, Note_on_c, 0, 73, 68
2,176463, Note_on_c, 0, 59, 41
2,176479, Control_c, 0, 64, 110
2,176501, Control_c, 0, 64, 100
2,176517, Control_c, 0, 64, 93
2,176537, Control_c, 0, 64, 85
2,176555, Control_c, 0, 64, 79
2,176572, Note_on_c, 0, 68, 0
2,176577, Control_c, 0, 64, 74
2,176597, Control_c, 0, 64, 70
2,176616, Control_c, 0, 64, 68
2,176632, Control_c, 0, 64, 67
2,176653, Control_c, 0, 64, 65
2,176671, Control_c, 0, 64, 64
2,176691, Control_c, 0, 64, 63
2,176709, Control_c, 0, 64, 62
2,176729, Control_c, 0, 64, 61
2,176806, Control_c, 0, 64, 60
2,176846, Note_on_c, 0, 58, 46
2,176903, Control_c, 0, 64, 59
2,176931, Note_on_c, 0, 59, 0
2,177056, Control_c, 0, 64, 60
2,177224, Note_on_c, 0, 71, 61
2,177295, Note_on_c, 0, 73, 0
2,177419, Note_on_c, 0, 70, 60
2,177428, Note_on_c, 0, 71, 0
2,177623, Note_on_c, 0, 71, 61
2,177629, Note_on_c, 0, 70, 0
2,177633, Note_on_c, 0, 56, 34
2,177731, Note_on_c, 0, 58, 0
2,177767, Control_c, 0, 64, 59
2,177901, Control_c, 0, 64, 58
2,177932, Note_on_c, 0, 64, 0
2,177939, Control_c, 0, 64, 57
2,177957, Control_c, 0, 64, 56
2,177977, Control_c, 0, 64, 55
2,177999, Control_c, 0, 64, 54
2,178017, Control_c, 0, 64, 52
2,178021, Note_on_c, 0, 70, 53
2,178036, Control_c, 0, 64, 50
2,178036, Note_on_c, 0, 54, 42
2,178054, Control_c, 0, 64, 47
2,178063, Note_on_c, 0, 71, 0
2,178073, Control_c, 0, 64, 45
2,178110, Control_c, 0, 64, 46
2,178126, Note_on_c, 0, 56, 0
2,178131, Control_c, 0, 64, 49
2,178150, Control_c, 0, 64, 53
2,178170, Control_c, 0, 64, 58
2,178189, Control_c, 0, 64, 60
2,178209, Control_c, 0, 64, 62
2,178227, Control_c, 0, 64, 63
2,178247, Control_c, 0, 64, 64
2,178266, Control_c, 0, 64, 65
2,178284, Control_c, 0, 64, 67
2,178302, Control_c, 0, 64, 70
2,178322, Control_c, 0, 64, 72
2,178343, Control_c, 0, 64, 74
2,178347, Note_on_c, 0, 54, 0
2,178363, Control_c, 0, 64, 76
2,178382, Control_c, 0, 64, 78
2,178401, Control_c, 0, 64, 80
2,178418, Control_c, 0, 64, 81
2,178433, Note_on_c, 0, 61, 49
2,178438, Control_c, 0, 64, 82
2,178495, Control_c, 0, 64, 83
2,178632, Control_c, 0, 64, 82
2,178691, Control_c, 0, 64, 81
2,178730, Control_c, 0, 64, 80
2,178766, Control_c, 0, 64, 79
2,178787, Control_c, 0, 64, 78
2,178806, Control_c, 0, 64, 77
2,178826, Control_c, 0, 64, 76
2,178826, Note_on_c, 0, 66, 53
2,178835, Note_on_c, 0, 52, 36
2,178845, Control_c, 0, 64, 74
2,178864, Control_c, 0, 64, 73
2,178884, Control_c, 0, 64, 72
2,178903, Control_c, 0, 64, 70
2,178919, Control_c, 0, 64, 69
2,178940, Control_c, 0, 64, 68
2,178960, Control_c, 0, 64, 67
2,178978, Control_c, 0, 64, 66
2,178998, Control_c, 0, 64, 65
2,179017, Control_c, 0, 64, 64
2,179074, Control_c, 0, 64, 63
2,179113, Control_c, 0, 64, 62
2,179149, Note_on_c, 0, 61, 0
2,179152, Control_c, 0, 64, 61
2,179220, Note_on_c, 0, 51, 42
2,179231, Control_c, 0, 64, 60
2,179295, Note_on_c, 0, 52, 0
2,179601, Note_on_c, 0, 64, 48
2,179787, Note_on_c, 0, 64, 0
2,179787, Note_on_c, 0, 66, 0
2,179796, Note_on_c, 0, 63, 48
2,179988, Note_on_c, 0, 64, 54
2,180014, Note_on_c, 0, 49, 37
2,180014, Note_on_c, 0, 63, 0
2,180099, Note_on_c, 0, 51, 0
2,180245, Control_c, 0, 64, 59
2,180301, Control_c, 0, 64, 58
2,180366, Note_on_c, 0, 47, 42
2,180370, Note_on_c, 0, 63, 45
2,180382, Control_c, 0, 64, 57
2,180413, Note_on_c, 0, 49, 0
2,180440, Control_c, 0, 64, 56
2,180440, Note_on_c, 0, 64, 0
2,180479, Control_c, 0, 64, 55
2,180514, Control_c, 0, 64, 54
2,180553, Control_c, 0, 64, 53
2,180573, Control_c, 0, 64, 52
2,180591, Control_c, 0, 64, 51
2,180610, Control_c, 0, 64, 50
2,180649, Control_c, 0, 64, 49
2,180667, Control_c, 0, 64, 48
2,180687, Control_c, 0, 64, 46
2,180707, Control_c, 0, 64, 43
2,180724, Control_c, 0, 64, 40
2,180737, Note_on_c, 0, 54, 44
2,180746, Control_c, 0, 64, 36
2,180764, Control_c, 0, 64, 33
2,180785, Control_c, 0, 64, 29
2,180801, Control_c, 0, 64, 25
2,180821, Control_c, 0, 64, 20
2,180842, Control_c, 0, 64, 15
2,180862, Control_c, 0, 64, 0
2,180917, Control_c, 0, 64, 16
2,180937, Control_c, 0, 64, 25
2,180957, Control_c, 0, 64, 30
2,180976, Control_c, 0, 64, 33
2,180994, Control_c, 0, 64, 37
2,181012, Control_c, 0, 64, 43
2,181033, Control_c, 0, 64, 51
2,181055, Control_c, 0, 64, 59
2,181072, Control_c, 0, 64, 62
2,181090, Control_c, 0, 64, 63
2,181109, Control_c, 0, 64, 64
2,181133, Note_on_c, 0, 68, 52
2,181137, Note_on_c, 0, 59, 34
2,181151, Control_c, 0, 64, 65
2,181167, Control_c, 0, 64, 67
2,181185, Control_c, 0, 64, 69
2,181196, Note_on_c, 0, 47, 0
2,181196, Note_on_c, 0, 70, 0
2,181205, Control_c, 0, 64, 73
2,181222, Note_on_c, 0, 63, 0
2,181227, Control_c, 0, 64, 77
2,181243, Control_c, 0, 64, 81
2,181264, Control_c, 0, 64, 83
2,181286, Control_c, 0, 64, 84
2,181313, Note_on_c, 0, 54, 0
2,181474, Control_c, 0, 64, 83
2,181494, Control_c, 0, 64, 81
2,181512, Control_c, 0, 64, 80
2,181530, Control_c, 0, 64, 78
2,181551, Control_c, 0, 64, 76
2,181555, Note_on_c, 0, 73, 71
2,181564, Note_on_c, 0, 64, 51
2,181571, Control_c, 0, 64, 73
2,181590, Control_c, 0, 64, 71
2,181611, Control_c, 0, 64, 68
2,181628, Control_c, 0, 64, 66
2,181647, Control_c, 0, 64, 65
2,181657, Note_on_c, 0, 68, 0
2,181666, Control_c, 0, 64, 64
2,181705, Control_c, 0, 64, 63
2,181744, Control_c, 0, 64, 62
2,181763, Control_c, 0, 64, 60
2,181781, Control_c, 0, 64, 58
2,181799, Control_c, 0, 64, 55
2,181821, Control_c, 0, 64, 51
2,181840, Control_c, 0, 64, 49
2,181860, Control_c, 0, 64, 48
2,181877, Control_c, 0, 64, 50
2,181896, Control_c, 0, 64, 54
2,181915, Control_c, 0, 64, 58
2,181938, Control_c, 0, 64, 61
2,181938, Note_on_c, 0, 58, 47
2,181954, Control_c, 0, 64, 62
2,181973, Control_c, 0, 64, 63
2,181991, Control_c, 0, 64, 64
2,182012, Control_c, 0, 64, 66
2,182030, Control_c, 0, 64, 68
2,182037, Note_on_c, 0, 59, 0
2,182046, Note_on_c, 0, 73, 0
2,182051, Control_c, 0, 64, 72
2,182070, Control_c, 0, 64, 75
2,182088, Control_c, 0, 64, 78
2,182094, Note_on_c, 0, 58, 0
2,182103, Control_c, 0, 64, 80
2,182115, Note_on_c, 0, 56, 47
2,182181, Control_c, 0, 64, 81
2,182284, Note_on_c, 0, 56, 0
2,182302, Note_on_c, 0, 58, 47
2,182586, Control_c, 0, 64, 80
2,182604, Control_c, 0, 64, 79
2,182644, Control_c, 0, 64, 78
2,182662, Control_c, 0, 64, 76
2,182681, Control_c, 0, 64, 74
2,182694, Note_on_c, 0, 71, 62
2,182700, Control_c, 0, 64, 72
2,182709, Note_on_c, 0, 63, 46
2,182719, Control_c, 0, 64, 69
2,182738, Control_c, 0, 64, 67
2,182756, Control_c, 0, 64, 65
2,182777, Control_c, 0, 64, 64
2,182797, Control_c, 0, 64, 63
2,182815, Control_c, 0, 64, 62
2,182831, Note_on_c, 0, 64, 0
2,182835, Control_c, 0, 64, 61
2,182872, Control_c, 0, 64, 60
2,182895, Control_c, 0, 64, 59
2,182930, Control_c, 0, 64, 58
2,182948, Control_c, 0, 64, 57
2,182969, Control_c, 0, 64, 56
2,182986, Control_c, 0, 64, 54
2,183009, Control_c, 0, 64, 53
2,183027, Control_c, 0, 64, 52
2,183047, Control_c, 0, 64, 51
2,183067, Control_c, 0, 64, 49
2,183081, Note_on_c, 0, 58, 0
2,183088, Control_c, 0, 64, 48
2,183092, Note_on_c, 0, 51, 41
2,183105, Control_c, 0, 64, 46
2,183121, Control_c, 0, 64, 43
2,183141, Control_c, 0, 64, 42
2,183162, Control_c, 0, 64, 41
2,183180, Control_c, 0, 64, 40
2,183199, Control_c, 0, 64, 39
2,183221, Control_c, 0, 64, 38
2,183275, Control_c, 0, 64, 37
2,183315, Control_c, 0, 64, 36
2,183334, Control_c, 0, 64, 35
2,183494, Note_on_c, 0, 56, 38
2,183582, Note_on_c, 0, 51, 0
2,183717, Control_c, 0, 64, 36
2,183858, Note_on_c, 0, 70, 58
2,183876, Note_on_c, 0, 61, 38
2,183910, Control_c, 0, 64, 37
2,183937, Note_on_c, 0, 63, 0
2,183967, Control_c, 0, 64, 38
2,184018, Note_on_c, 0, 71, 0
2,184082, Control_c, 0, 64, 39
2,184179, Control_c, 0, 64, 40
2,184248, Note_on_c, 0, 55, 40
2,184275, Control_c, 0, 64, 41
2,184347, Note_on_c, 0, 56, 0
2,184401, Note_on_c, 0, 55, 0
2,184429, Note_on_c, 0, 53, 45
2,184485, Control_c, 0, 64, 40
2,184580, Control_c, 0, 64, 39
2,184619, Control_c, 0, 64, 38
2,184643, Note_on_c, 0, 55, 42
2,184679, Note_on_c, 0, 53, 0
2,184737, Control_c, 0, 64, 37
2,184776, Control_c, 0, 64, 36
2,184792, Control_c, 0, 64, 35
2,184814, Control_c, 0, 64, 32
2,184832, Control_c, 0, 64, 28
2,184851, Control_c, 0, 64, 24
2,184870, Control_c, 0, 64, 23
2,184888, Control_c, 0, 64, 22
2,184908, Control_c, 0, 64, 19
2,184927, Control_c, 0, 64, 14
2,184946, Control_c, 0, 64, 0
2,185053, Note_on_c, 0, 56, 37
2,185055, Note_on_c, 0, 59, 31
2,185087, Note_on_c, 0, 55, 0
2,185273, Control_c, 0, 64, 35
2,185292, Control_c, 0, 64, 53
2,185311, Control_c, 0, 64, 60
2,185329, Control_c, 0, 64, 61
2,185350, Control_c, 0, 64, 62
2,185368, Control_c, 0, 64, 64
2,185389, Control_c, 0, 64, 67
2,185407, Control_c, 0, 64, 75
2,185420, Note_on_c, 0, 59, 0
2,185427, Control_c, 0, 64, 97
2,185444, Control_c, 0, 64, 127
2,185444, Note_on_c, 0, 68, 54
2,185482, Note_on_c, 0, 61, 0
2,185510, Note_on_c, 0, 56, 0
2,185538, Note_on_c, 0, 68, 0
2,185538, Note_on_c, 0, 70, 0
2,185860, Note_on_c, 0, 80, 65
2,185890, Note_on_c, 0, 52, 44
2,185890, Note_on_c, 0, 61, 40
2,185944, Control_c, 0, 64, 111
2,185962, Control_c, 0, 64, 93
2,185985, Control_c, 0, 64, 84
2,186002, Control_c, 0, 64, 78
2,186020, Control_c, 0, 64, 74
2,186043, Control_c, 0, 64, 70
2,186060, Control_c, 0, 64, 67
2,186080, Control_c, 0, 64, 66
2,186098, Control_c, 0, 64, 65
2,186156, Control_c, 0, 64, 64
2,186176, Control_c, 0, 64, 63
2,186195, Control_c, 0, 64, 62
2,186233, Control_c, 0, 64, 61
2,186262, Note_on_c, 0, 79, 68
2,186269, Note_on_c, 0, 51, 44
2,186290, Control_c, 0, 64, 60
2,186328, Control_c, 0, 64, 59
2,186369, Note_on_c, 0, 52, 0
2,186399, Note_on_c, 0, 80, 0
2,186424, Control_c, 0, 64, 58
2,186462, Control_c, 0, 64, 57
2,186482, Control_c, 0, 64, 56
2,186521, Control_c, 0, 64, 55
2,186578, Control_c, 0, 64, 54
2,186601, Control_c, 0, 64, 53
2,186618, Control_c, 0, 64, 52
2,186636, Control_c, 0, 64, 51
2,186644, Note_on_c, 0, 58, 49
2,186657, Control_c, 0, 64, 50
2,186661, Note_on_c, 0, 61, 0
2,186675, Control_c, 0, 64, 49
2,186693, Control_c, 0, 64, 47
2,186712, Control_c, 0, 64, 42
2,186734, Control_c, 0, 64, 37
2,186751, Control_c, 0, 64, 33
2,186769, Control_c, 0, 64, 34
2,186790, Control_c, 0, 64, 39
2,186808, Control_c, 0, 64, 48
2,186828, Control_c, 0, 64, 57
2,186846, Control_c, 0, 64, 61
2,186868, Control_c, 0, 64, 62
2,186887, Control_c, 0, 64, 63
2,186904, Control_c, 0, 64, 64
2,186924, Control_c, 0, 64, 67
2,186944, Control_c, 0, 64, 70
2,186963, Control_c, 0, 64, 79
2,186980, Control_c, 0, 64, 92
2,187001, Control_c, 0, 64, 127
2,187039, Note_on_c, 0, 60, 50
2,187039, Note_on_c, 0, 78, 74
2,187133, Note_on_c, 0, 60, 0
2,187139, Note_on_c, 0, 58, 0
2,187186, Note_on_c, 0, 79, 0
2,187441, Note_on_c, 0, 77, 75
2,187443, Note_on_c, 0, 58, 49
2,187448, Control_c, 0, 64, 103
2,187448, Note_on_c, 0, 61, 48
2,187464, Control_c, 0, 64, 90
2,187480, Control_c, 0, 64, 81
2,187499, Control_c, 0, 64, 74
2,187519, Control_c, 0, 64, 68
2,187528, Note_on_c, 0, 78, 0
2,187540, Control_c, 0, 64, 65
2,187560, Control_c, 0, 64, 63
2,187579, Control_c, 0, 64, 61
2,187596, Control_c, 0, 64, 60
2,187614, Control_c, 0, 64, 58
2,187636, Control_c, 0, 64, 57
2,187654, Control_c, 0, 64, 55
2,187691, Control_c, 0, 64, 54
2,187709, Control_c, 0, 64, 53
2,187748, Control_c, 0, 64, 52
2,187790, Note_on_c, 0, 51, 0
2,187831, Note_on_c, 0, 56, 46
2,187863, Note_on_c, 0, 58, 0
2,188019, Control_c, 0, 64, 53
2,188094, Control_c, 0, 64, 52
2,188227, Note_on_c, 0, 76, 63
2,188232, Note_on_c, 0, 55, 41
2,188269, Note_on_c, 0, 56, 0
2,188320, Note_on_c, 0, 61, 0
2,188564, Note_on_c, 0, 77, 0
2,188615, Note_on_c, 0, 75, 60
2,188620, Note_on_c, 0, 56, 43
2,188663, Note_on_c, 0, 55, 0
2,188771, Note_on_c, 0, 76, 0
2,188901, Control_c, 0, 64, 53
2,189020, Note_on_c, 0, 59, 54
2,189190, Control_c, 0, 64, 54
2,189208, Control_c, 0, 64, 55
2,189229, Control_c, 0, 64, 57
2,189246, Control_c, 0, 64, 59
2,189265, Control_c, 0, 64, 61
2,189285, Control_c, 0, 64, 62
2,189303, Control_c, 0, 64, 64
2,189324, Control_c, 0, 64, 65
2,189343, Control_c, 0, 64, 66
2,189361, Control_c, 0, 64, 67
2,189379, Control_c, 0, 64, 68
2,189400, Control_c, 0, 64, 69
2,189419, Control_c, 0, 64, 70
2,189423, Note_on_c, 0, 50, 50
2,189436, Note_on_c, 0, 77, 77
2,189438, Control_c, 0, 64, 71
2,189443, Note_on_c, 0, 56, 0
2,189458, Control_c, 0, 64, 73
2,189478, Control_c, 0, 64, 74
2,189496, Control_c, 0, 64, 76
2,189516, Control_c, 0, 64, 77
2,189524, Note_on_c, 0, 75, 0
2,189534, Control_c, 0, 64, 79
2,189556, Control_c, 0, 64, 82
2,189576, Control_c, 0, 64, 86
2,189592, Control_c, 0, 64, 92
2,189613, Control_c, 0, 64, 98
2,189634, Control_c, 0, 64, 105
2,189652, Control_c, 0, 64, 112
2,189669, Control_c, 0, 64, 116
2,189728, Control_c, 0, 64, 112
2,189747, Control_c, 0, 64, 106
2,189764, Control_c, 0, 64, 98
2,189784, Control_c, 0, 64, 90
2,189807, Control_c, 0, 64, 83
2,189825, Control_c, 0, 64, 77
2,189825, Note_on_c, 0, 78, 74
2,189827, Note_on_c, 0, 51, 66
2,189843, Control_c, 0, 64, 71
2,189850, Note_on_c, 0, 59, 0
2,189861, Control_c, 0, 64, 65
2,189880, Control_c, 0, 64, 62
2,189883, Note_on_c, 0, 50, 0
2,189898, Control_c, 0, 64, 60
2,189919, Control_c, 0, 64, 59
2,189940, Control_c, 0, 64, 58
2,189960, Note_on_c, 0, 77, 0
2,189976, Control_c, 0, 64, 57
2,189996, Control_c, 0, 64, 55
2,190035, Control_c, 0, 64, 57
2,190053, Control_c, 0, 64, 59
2,190075, Control_c, 0, 64, 62
2,190095, Control_c, 0, 64, 64
2,190111, Control_c, 0, 64, 66
2,190131, Control_c, 0, 64, 69
2,190149, Control_c, 0, 64, 75
2,190169, Control_c, 0, 64, 82
2,190187, Control_c, 0, 64, 92
2,190208, Control_c, 0, 64, 106
2,190212, Note_on_c, 0, 58, 74
2,190227, Control_c, 0, 64, 127
2,190584, Note_on_c, 0, 79, 79
2,190593, Note_on_c, 0, 46, 62
2,190638, Note_on_c, 0, 51, 0
2,190674, Note_on_c, 0, 78, 0
2,190957, Control_c, 0, 64, 122
2,190974, Control_c, 0, 64, 93
2,190978, Note_on_c, 0, 47, 63
2,190983, Note_on_c, 0, 80, 82
2,190994, Control_c, 0, 64, 80
2,191016, Control_c, 0, 64, 71
2,191036, Control_c, 0, 64, 66
2,191053, Control_c, 0, 64, 64
2,191071, Control_c, 0, 64, 63
2,191091, Control_c, 0, 64, 62
2,191102, Note_on_c, 0, 79, 0
2,191110, Control_c, 0, 64, 61
2,191114, Note_on_c, 0, 58, 0
2,191131, Control_c, 0, 64, 59
2,191149, Control_c, 0, 64, 56
2,191149, Note_on_c, 0, 46, 0
2,191167, Control_c, 0, 64, 52
2,191186, Control_c, 0, 64, 50
2,191204, Control_c, 0, 64, 48
2,191224, Control_c, 0, 64, 46
2,191244, Control_c, 0, 64, 43
2,191264, Control_c, 0, 64, 41
2,191282, Control_c, 0, 64, 40
2,191303, Control_c, 0, 64, 42
2,191323, Control_c, 0, 64, 49
2,191339, Control_c, 0, 64, 57
2,191358, Control_c, 0, 64, 62
2,191376, Note_on_c, 0, 51, 58
2,191381, Control_c, 0, 64, 65
2,191399, Control_c, 0, 64, 68
2,191418, Control_c, 0, 64, 73
2,191435, Control_c, 0, 64, 84
2,191456, Control_c, 0, 64, 109
2,191476, Control_c, 0, 64, 127
2,191705, Control_c, 0, 64, 103
2,191723, Control_c, 0, 64, 91
2,191743, Control_c, 0, 64, 80
2,191764, Control_c, 0, 64, 70
2,191779, Note_on_c, 0, 48, 57
2,191783, Control_c, 0, 64, 63
2,191783, Note_on_c, 0, 54, 53
2,191788, Note_on_c, 0, 47, 0
2,191800, Control_c, 0, 64, 61
2,191822, Control_c, 0, 64, 62
2,191832, Note_on_c, 0, 51, 0
2,191841, Control_c, 0, 64, 64
2,191857, Control_c, 0, 64, 67
2,191877, Control_c, 0, 64, 76
2,191897, Control_c, 0, 64, 104
2,191906, Note_on_c, 0, 48, 0
2,191917, Control_c, 0, 64, 127
2,192146, Control_c, 0, 64, 111
2,192159, Note_on_c, 0, 49, 68
2,192166, Control_c, 0, 64, 90
2,192184, Control_c, 0, 64, 77
2,192203, Control_c, 0, 64, 67
2,192222, Control_c, 0, 64, 62
2,192241, Control_c, 0, 64, 60
2,192319, Control_c, 0, 64, 61
2,192323, Note_on_c, 0, 54, 0
2,192339, Control_c, 0, 64, 62
2,192357, Control_c, 0, 64, 64
2,192375, Control_c, 0, 64, 67
2,192396, Control_c, 0, 64, 74
2,192417, Control_c, 0, 64, 91
2,192433, Control_c, 0, 64, 127
2,192547, Note_on_c, 0, 53, 62
2,192603, Note_on_c, 0, 49, 0
2,192893, Control_c, 0, 64, 104
2,192915, Control_c, 0, 64, 83
2,192934, Note_on_c, 0, 50, 61
2,192934, Note_on_c, 0, 59, 68
2,192936, Control_c, 0, 64, 71
2,192951, Control_c, 0, 64, 65
2,192971, Control_c, 0, 64, 61
2,192992, Control_c, 0, 64, 59
2,192996, Note_on_c, 0, 53, 0
2,193010, Control_c, 0, 64, 60
2,193031, Control_c, 0, 64, 62
2,193049, Control_c, 0, 64, 65
2,193068, Control_c, 0, 64, 72
2,193089, Control_c, 0, 64, 89
2,193109, Control_c, 0, 64, 127
2,193122, Note_on_c, 0, 50, 0
2,193327, Note_on_c, 0, 51, 68
2,193327, Note_on_c, 0, 79, 81
2,193337, Control_c, 0, 64, 107
2,193355, Control_c, 0, 64, 89
2,193375, Control_c, 0, 64, 77
2,193393, Control_c, 0, 64, 69
2,193413, Control_c, 0, 64, 65
2,193418, Note_on_c, 0, 59, 0
2,193436, Control_c, 0, 64, 62
2,193452, Control_c, 0, 64, 61
2,193461, Note_on_c, 0, 80, 0
2,193472, Control_c, 0, 64, 60
2,193509, Control_c, 0, 64, 59
2,193527, Control_c, 0, 64, 60
2,193548, Control_c, 0, 64, 61
2,193566, Control_c, 0, 64, 64
2,193587, Control_c, 0, 64, 70
2,193606, Control_c, 0, 64, 80
2,193625, Control_c, 0, 64, 104
2,193643, Control_c, 0, 64, 127
2,193712, Note_on_c, 0, 58, 67
2,193831, Note_on_c, 0, 51, 0
2,193899, Note_on_c, 0, 56, 68
2,193904, Note_on_c, 0, 58, 0
2,194066, Control_c, 0, 64, 93
2,194086, Control_c, 0, 64, 75
2,194104, Control_c, 0, 64, 65
2,194113, Note_on_c, 0, 52, 64
2,194113, Note_on_c, 0, 58, 67
2,194124, Control_c, 0, 64, 60
2,194131, Note_on_c, 0, 56, 0
2,194146, Control_c, 0, 64, 59
2,194162, Control_c, 0, 64, 60
2,194180, Control_c, 0, 64, 61
2,194201, Control_c, 0, 64, 64
2,194220, Control_c, 0, 64, 68
2,194238, Control_c, 0, 64, 77
2,194258, Control_c, 0, 64, 127
2,194284, Note_on_c, 0, 52, 0
2,194289, Note_on_c, 0, 58, 0
2,194293, Note_on_c, 0, 55, 69
2,194451, Control_c, 0, 64, 106
2,194468, Control_c, 0, 64, 84
2,194489, Control_c, 0, 64, 71
2,194501, Note_on_c, 0, 53, 57
2,194501, Note_on_c, 0, 56, 70
2,194508, Control_c, 0, 64, 64
2,194529, Control_c, 0, 64, 60
2,194548, Control_c, 0, 64, 58
2,194552, Note_on_c, 0, 55, 0
2,194567, Control_c, 0, 64, 57
2,194584, Control_c, 0, 64, 55
2,194603, Control_c, 0, 64, 51
2,194621, Control_c, 0, 64, 44
2,194642, Control_c, 0, 64, 33
2,194661, Control_c, 0, 64, 17
2,194682, Control_c, 0, 64, 0
2,194776, Control_c, 0, 64, 31
2,194795, Control_c, 0, 64, 50
2,194816, Control_c, 0, 64, 64
2,194834, Control_c, 0, 64, 71
2,194854, Control_c, 0, 64, 84
2,194874, Control_c, 0, 64, 110
2,194887, Note_on_c, 0, 77, 77
2,194891, Control_c, 0, 64, 127
2,194913, Note_on_c, 0, 56, 0
2,195013, Note_on_c, 0, 79, 0
2,195258, Control_c, 0, 64, 105
2,195273, Note_on_c, 0, 79, 78
2,195276, Control_c, 0, 64, 84
2,195289, Note_on_c, 0, 60, 52
2,195296, Control_c, 0, 64, 74
2,195315, Control_c, 0, 64, 69
2,195333, Control_c, 0, 64, 66
2,195357, Note_on_c, 0, 53, 0
2,195374, Control_c, 0, 64, 65
2,195411, Control_c, 0, 64, 64
2,195428, Control_c, 0, 64, 63
2,195641, Control_c, 0, 64, 62
2,195643, Note_on_c, 0, 80, 79
2,195652, Note_on_c, 0, 65, 50
2,195662, Control_c, 0, 64, 61
2,195678, Note_on_c, 0, 60, 0
2,195680, Control_c, 0, 64, 60
2,195697, Control_c, 0, 64, 61
2,195708, Note_on_c, 0, 77, 0
2,195716, Control_c, 0, 64, 62
2,195738, Control_c, 0, 64, 63
2,195756, Control_c, 0, 64, 66
2,195775, Control_c, 0, 64, 71
2,195793, Control_c, 0, 64, 80
2,195814, Control_c, 0, 64, 93
2,195832, Note_on_c, 0, 79, 0
2,195836, Control_c, 0, 64, 127
2,196022, Note_on_c, 0, 65, 0
2,196027, Note_on_c, 0, 53, 58
2,196044, Control_c, 0, 64, 120
2,196063, Control_c, 0, 64, 84
2,196081, Control_c, 0, 64, 75
2,196122, Control_c, 0, 64, 82
2,196140, Control_c, 0, 64, 106
2,196159, Control_c, 0, 64, 127
2,196164, Note_on_c, 0, 53, 0
2,196352, Control_c, 0, 64, 122
2,196368, Control_c, 0, 64, 91
2,196390, Control_c, 0, 64, 89
2,196402, Note_on_c, 0, 81, 76
2,196411, Control_c, 0, 64, 102
2,196411, Note_on_c, 0, 51, 59
2,196428, Control_c, 0, 64, 127
2,196486, Note_on_c, 0, 80, 0
2,196493, Note_on_c, 0, 51, 0
2,196753, Control_c, 0, 64, 90
2,196772, Control_c, 0, 64, 77
2,196793, Control_c, 0, 64, 70
2,196797, Note_on_c, 0, 49, 54
2,196801, Note_on_c, 0, 82, 73
2,196812, Control_c, 0, 64, 66
2,196830, Control_c, 0, 64, 64
2,196850, Note_on_c, 0, 81, 0
2,196852, Control_c, 0, 64, 62
2,196869, Control_c, 0, 64, 60
2,196889, Control_c, 0, 64, 58
2,196909, Control_c, 0, 64, 57
2,196927, Control_c, 0, 64, 56
2,197004, Control_c, 0, 64, 58
2,197023, Control_c, 0, 64, 61
2,197043, Control_c, 0, 64, 64
2,197062, Control_c, 0, 64, 67
2,197081, Control_c, 0, 64, 72
2,197098, Control_c, 0, 64, 79
2,197119, Control_c, 0, 64, 92
2,197138, Control_c, 0, 64, 127
2,197158, Note_on_c, 0, 49, 0
2,197177, Note_on_c, 0, 70, 60
2,197191, Note_on_c, 0, 61, 50
2,197348, Note_on_c, 0, 70, 0
2,197552, Note_on_c, 0, 72, 52
2,197563, Control_c, 0, 64, 111
2,197575, Note_on_c, 0, 61, 0
2,197582, Control_c, 0, 64, 94
2,197582, Note_on_c, 0, 60, 48
2,197598, Control_c, 0, 64, 86
2,197620, Control_c, 0, 64, 82
2,197639, Control_c, 0, 64, 81
2,197657, Control_c, 0, 64, 80
2,197676, Control_c, 0, 64, 78
2,197693, Control_c, 0, 64, 75
2,197715, Control_c, 0, 64, 72
2,197773, Control_c, 0, 64, 71
2,197791, Control_c, 0, 64, 69
2,197810, Control_c, 0, 64, 67
2,197829, Control_c, 0, 64, 66
2,197926, Control_c, 0, 64, 65
2,197939, Note_on_c, 0, 58, 42
2,197939, Note_on_c, 0, 73, 57
2,197958, Note_on_c, 0, 60, 0
2,197973, Note_on_c, 0, 72, 0
2,197985, Control_c, 0, 64, 64
2,198021, Control_c, 0, 64, 63
2,198099, Control_c, 0, 64, 62
2,198333, Note_on_c, 0, 70, 48
2,198558, Control_c, 0, 64, 61
2,198714, Note_on_c, 0, 68, 45
2,198726, Note_on_c, 0, 74, 52
2,198757, Note_on_c, 0, 70, 0
2,198765, Note_on_c, 0, 73, 0
2,199111, Note_on_c, 0, 75, 55
2,199113, Note_on_c, 0, 66, 49
2,199123, Note_on_c, 0, 74, 0
2,199165, Note_on_c, 0, 68, 0
2,199268, Control_c, 0, 64, 60
2,199474, Note_on_c, 0, 78, 75
2,199477, Note_on_c, 0, 63, 57
2,199527, Note_on_c, 0, 66, 0
2,199557, Control_c, 0, 64, 59
2,199635, Control_c, 0, 64, 60
2,199693, Control_c, 0, 64, 59
2,199853, Note_on_c, 0, 58, 0
2,199855, Note_on_c, 0, 80, 72
2,199857, Note_on_c, 0, 65, 58
2,199944, Note_on_c, 0, 82, 0
2,199971, Note_on_c, 0, 78, 0
2,199998, Control_c, 0, 64, 60
2,200013, Note_on_c, 0, 63, 0
2,200076, Control_c, 0, 64, 59
2,200258, Note_on_c, 0, 82, 73
2,200263, Note_on_c, 0, 66, 49
2,200287, Control_c, 0, 64, 60
2,200305, Note_on_c, 0, 65, 0
2,200309, Note_on_c, 0, 80, 0
2,200314, Note_on_c, 0, 75, 0
2,200576, Control_c, 0, 64, 59
2,200648, Note_on_c, 0, 75, 43
2,200690, Control_c, 0, 64, 58
2,200747, Control_c, 0, 64, 57
2,200805, Control_c, 0, 64, 56
2,200939, Control_c, 0, 64, 57
2,200959, Control_c, 0, 64, 58
2,200977, Control_c, 0, 64, 60
2,200999, Control_c, 0, 64, 62
2,201016, Control_c, 0, 64, 63
2,201026, Note_on_c, 0, 73, 52
2,201034, Note_on_c, 0, 67, 40
2,201039, Control_c, 0, 64, 64
2,201054, Control_c, 0, 64, 66
2,201076, Control_c, 0, 64, 68
2,201080, Note_on_c, 0, 66, 0
2,201093, Control_c, 0, 64, 72
2,201104, Note_on_c, 0, 75, 0
2,201111, Control_c, 0, 64, 76
2,201131, Control_c, 0, 64, 80
2,201151, Control_c, 0, 64, 83
2,201169, Control_c, 0, 64, 85
2,201188, Control_c, 0, 64, 86
2,201227, Control_c, 0, 64, 84
2,201247, Control_c, 0, 64, 78
2,201267, Control_c, 0, 64, 72
2,201286, Control_c, 0, 64, 66
2,201305, Control_c, 0, 64, 62
2,201322, Control_c, 0, 64, 59
2,201343, Control_c, 0, 64, 57
2,201381, Control_c, 0, 64, 58
2,201401, Control_c, 0, 64, 61
2,201405, Note_on_c, 0, 68, 49
2,201420, Control_c, 0, 64, 64
2,201420, Note_on_c, 0, 72, 50
2,201439, Control_c, 0, 64, 67
2,201446, Note_on_c, 0, 67, 0
2,201461, Control_c, 0, 64, 72
2,201479, Control_c, 0, 64, 81
2,201479, Note_on_c, 0, 82, 0
2,201495, Control_c, 0, 64, 98
2,201517, Control_c, 0, 64, 127
2,201526, Note_on_c, 0, 68, 0
2,201804, Control_c, 0, 64, 101
2,201811, Note_on_c, 0, 80, 69
2,201813, Note_on_c, 0, 56, 53
2,201821, Control_c, 0, 64, 87
2,201843, Control_c, 0, 64, 75
2,201861, Control_c, 0, 64, 69
2,201881, Control_c, 0, 64, 66
2,201901, Control_c, 0, 64, 65
2,201917, Note_on_c, 0, 73, 0
2,202170, Control_c, 0, 64, 64
2,202190, Note_on_c, 0, 73, 53
2,202199, Note_on_c, 0, 58, 43
2,202209, Control_c, 0, 64, 63
2,202375, Note_on_c, 0, 56, 0
2,202380, Control_c, 0, 64, 62
2,202566, Note_on_c, 0, 59, 48
2,202566, Note_on_c, 0, 75, 56
2,202671, Note_on_c, 0, 72, 0
2,202714, Note_on_c, 0, 58, 0
2,202860, Control_c, 0, 64, 61
2,202951, Note_on_c, 0, 77, 66
2,203048, Note_on_c, 0, 80, 0
2,203109, Control_c, 0, 64, 60
2,203186, Control_c, 0, 64, 59
2,203204, Control_c, 0, 64, 58
2,203226, Control_c, 0, 64, 57
2,203314, Note_on_c, 0, 60, 41
2,203323, Note_on_c, 0, 78, 64
2,203340, Control_c, 0, 64, 58
2,203345, Note_on_c, 0, 75, 0
2,203358, Control_c, 0, 64, 60
2,203361, Note_on_c, 0, 77, 0
2,203370, Note_on_c, 0, 59, 0
2,203377, Control_c, 0, 64, 62
2,203399, Control_c, 0, 64, 64
2,203417, Control_c, 0, 64, 66
2,203435, Control_c, 0, 64, 68
2,203456, Control_c, 0, 64, 71
2,203478, Control_c, 0, 64, 74
2,203494, Control_c, 0, 64, 81
2,203511, Control_c, 0, 64, 88
2,203532, Control_c, 0, 64, 94
2,203554, Control_c, 0, 64, 96
2,203589, Control_c, 0, 64, 92
2,203609, Control_c, 0, 64, 85
2,203629, Control_c, 0, 64, 73
2,203646, Control_c, 0, 64, 65
2,203666, Control_c, 0, 64, 60
2,203684, Control_c, 0, 64, 57
2,203705, Control_c, 0, 64, 55
2,203723, Control_c, 0, 64, 54
2,203725, Note_on_c, 0, 77, 63
2,203728, Note_on_c, 0, 60, 0
2,203728, Note_on_c, 0, 61, 39
2,203762, Control_c, 0, 64, 55
2,203780, Control_c, 0, 64, 58
2,203785, Note_on_c, 0, 73, 0
2,203801, Control_c, 0, 64, 61
2,203818, Control_c, 0, 64, 64
2,203839, Control_c, 0, 64, 67
2,203857, Control_c, 0, 64, 72
2,203876, Control_c, 0, 64, 77
2,203896, Control_c, 0, 64, 85
2,203915, Control_c, 0, 64, 93
2,203936, Control_c, 0, 64, 101
2,203936, Note_on_c, 0, 78, 0
2,203956, Control_c, 0, 64, 115
2,203973, Control_c, 0, 64, 127
2,204105, Note_on_c, 0, 49, 50
2,204109, Note_on_c, 0, 73, 52
2,204150, Note_on_c, 0, 61, 0
2,204167, Note_on_c, 0, 77, 0
2,204415, Control_c, 0, 64, 116
2,204435, Control_c, 0, 64, 104
2,204452, Control_c, 0, 64, 95
2,204473, Control_c, 0, 64, 89
2,204481, Note_on_c, 0, 78, 73
2,204491, Control_c, 0, 64, 85
2,204495, Note_on_c, 0, 51, 52
2,204510, Control_c, 0, 64, 82
2,204530, Control_c, 0, 64, 80
2,204548, Control_c, 0, 64, 77
2,204570, Control_c, 0, 64, 74
2,204588, Control_c, 0, 64, 72
2,204606, Control_c, 0, 64, 71
2,204626, Control_c, 0, 64, 70
2,204699, Note_on_c, 0, 49, 0
2,204703, Control_c, 0, 64, 69
2,204741, Control_c, 0, 64, 68
2,204798, Control_c, 0, 64, 67
2,204818, Control_c, 0, 64, 66
2,204856, Control_c, 0, 64, 65
2,204873, Note_on_c, 0, 80, 76
2,204882, Note_on_c, 0, 52, 48
2,204913, Control_c, 0, 64, 64
2,204946, Note_on_c, 0, 78, 0
2,204953, Control_c, 0, 64, 63
2,204989, Note_on_c, 0, 51, 0
2,205047, Control_c, 0, 64, 62
2,205145, Control_c, 0, 64, 61
2,205250, Note_on_c, 0, 70, 57
2,205280, Note_on_c, 0, 73, 0
2,205356, Control_c, 0, 64, 60
2,205452, Control_c, 0, 64, 59
2,205489, Control_c, 0, 64, 58
2,205568, Control_c, 0, 64, 57
2,205618, Note_on_c, 0, 71, 48
2,205625, Note_on_c, 0, 53, 41
2,205644, Note_on_c, 0, 52, 0
2,205657, Note_on_c, 0, 70, 0
2,205741, Control_c, 0, 64, 58
2,205834, Control_c, 0, 64, 59
2,205856, Control_c, 0, 64, 60
2,205876, Control_c, 0, 64, 61
2,205894, Control_c, 0, 64, 62
2,205996, Note_on_c, 0, 70, 46
2,206012, Note_on_c, 0, 54, 42
2,206017, Note_on_c, 0, 80, 0
2,206023, Note_on_c, 0, 53, 0
2,206027, Control_c, 0, 64, 61
2,206161, Control_c, 0, 64, 62
2,206373, Note_on_c, 0, 78, 65
2,206386, Note_on_c, 0, 42, 40
2,206429, Control_c, 0, 64, 61
2,206438, Note_on_c, 0, 54, 0
2,206447, Note_on_c, 0, 71, 0
2,206680, Control_c, 0, 64, 62
2,206765, Note_on_c, 0, 44, 43
2,206765, Note_on_c, 0, 71, 42
2,206797, Control_c, 0, 64, 61
2,206881, Note_on_c, 0, 42, 0
2,207156, Note_on_c, 0, 45, 42
2,207162, Note_on_c, 0, 73, 61
2,207251, Note_on_c, 0, 44, 0
2,207381, Note_on_c, 0, 78, 0
2,207538, Note_on_c, 0, 75, 61
2,207906, Note_on_c, 0, 76, 59
2,207918, Note_on_c, 0, 73, 0
2,207923, Note_on_c, 0, 46, 40
2,207971, Note_on_c, 0, 75, 0
2,207980, Note_on_c, 0, 45, 0
2,208080, Control_c, 0, 64, 60
2,208311, Note_on_c, 0, 75, 59
2,208325, Note_on_c, 0, 47, 34
2,208354, Control_c, 0, 64, 59
2,208370, Note_on_c, 0, 71, 0
2,208408, Note_on_c, 0, 46, 0
2,208476, Note_on_c, 0, 76, 0
2,208504, Control_c, 0, 64, 58
2,208581, Control_c, 0, 64, 57
2,208617, Control_c, 0, 64, 56
2,208640, Control_c, 0, 64, 55
2,208677, Control_c, 0, 64, 56
2,208698, Control_c, 0, 64, 57
2,208698, Note_on_c, 0, 71, 49
2,208716, Control_c, 0, 64, 60
2,208734, Control_c, 0, 64, 62
2,208749, Note_on_c, 0, 70, 0
2,208755, Control_c, 0, 64, 64
2,208774, Control_c, 0, 64, 66
2,208794, Control_c, 0, 64, 69
2,208810, Control_c, 0, 64, 73
2,208832, Control_c, 0, 64, 78
2,208850, Control_c, 0, 64, 82
2,208871, Control_c, 0, 64, 84
2,208908, Control_c, 0, 64, 83
2,208927, Control_c, 0, 64, 82
2,208964, Control_c, 0, 64, 81
2,209003, Control_c, 0, 64, 79
2,209023, Control_c, 0, 64, 77
2,209043, Control_c, 0, 64, 75
2,209061, Control_c, 0, 64, 73
2,209074, Note_on_c, 0, 73, 55
2,209082, Control_c, 0, 64, 70
2,209096, Note_on_c, 0, 49, 45
2,209101, Control_c, 0, 64, 68
2,209101, Note_on_c, 0, 70, 43
2,209120, Control_c, 0, 64, 67
2,209143, Note_on_c, 0, 71, 0
2,209158, Control_c, 0, 64, 66
2,209195, Control_c, 0, 64, 65
2,209215, Control_c, 0, 64, 64
2,209238, Note_on_c, 0, 47, 0
2,209253, Control_c, 0, 64, 63
2,209294, Control_c, 0, 64, 62
2,209314, Note_on_c, 0, 75, 0
2,209328, Control_c, 0, 64, 61
2,209347, Control_c, 0, 64, 60
2,209367, Control_c, 0, 64, 59
2,209387, Control_c, 0, 64, 57
2,209405, Control_c, 0, 64, 53
2,209424, Control_c, 0, 64, 48
2,209445, Control_c, 0, 64, 42
2,209465, Note_on_c, 0, 71, 60
2,209469, Control_c, 0, 64, 37
2,209469, Note_on_c, 0, 51, 48
2,209482, Control_c, 0, 64, 36
2,209499, Note_on_c, 0, 70, 0
2,209503, Control_c, 0, 64, 37
2,209521, Control_c, 0, 64, 41
2,209531, Note_on_c, 0, 49, 0
2,209543, Control_c, 0, 64, 49
2,209554, Note_on_c, 0, 73, 0
2,209563, Control_c, 0, 64, 57
2,209579, Control_c, 0, 64, 60
2,209597, Control_c, 0, 64, 62
2,209617, Control_c, 0, 64, 63
2,209637, Control_c, 0, 64, 64
2,209675, Control_c, 0, 64, 65
2,209695, Control_c, 0, 64, 66
2,209733, Control_c, 0, 64, 67
2,209853, Note_on_c, 0, 66, 46
2,209867, Control_c, 0, 64, 69
2,209886, Control_c, 0, 64, 71
2,209890, Note_on_c, 0, 71, 0
2,209906, Control_c, 0, 64, 74
2,209925, Control_c, 0, 64, 78
2,209947, Control_c, 0, 64, 83
2,209966, Control_c, 0, 64, 88
2,209982, Control_c, 0, 64, 91
2,210004, Control_c, 0, 64, 93
2,210021, Control_c, 0, 64, 94
2,210039, Control_c, 0, 64, 95
2,210081, Control_c, 0, 64, 96
2,210136, Control_c, 0, 64, 95
2,210156, Control_c, 0, 64, 94
2,210174, Control_c, 0, 64, 92
2,210192, Control_c, 0, 64, 90
2,210214, Control_c, 0, 64, 87
2,210214, Note_on_c, 0, 51, 0
2,210231, Control_c, 0, 64, 84
2,210235, Note_on_c, 0, 53, 41
2,210249, Note_on_c, 0, 68, 55
2,210253, Control_c, 0, 64, 81
2,210269, Control_c, 0, 64, 78
2,210288, Control_c, 0, 64, 76
2,210308, Control_c, 0, 64, 74
2,210330, Control_c, 0, 64, 72
2,210346, Control_c, 0, 64, 71
2,210367, Control_c, 0, 64, 69
2,210387, Control_c, 0, 64, 68
2,210407, Control_c, 0, 64, 67
2,210425, Control_c, 0, 64, 66
2,210443, Control_c, 0, 64, 65
2,210480, Control_c, 0, 64, 64
2,210541, Control_c, 0, 64, 63
2,210557, Control_c, 0, 64, 62
2,210577, Control_c, 0, 64, 61
2,210597, Control_c, 0, 64, 59
2,210616, Control_c, 0, 64, 57
2,210639, Control_c, 0, 64, 55
2,210639, Note_on_c, 0, 54, 46
2,210639, Note_on_c, 0, 70, 64
2,210654, Control_c, 0, 64, 51
2,210672, Control_c, 0, 64, 49
2,210696, Control_c, 0, 64, 47
2,210696, Note_on_c, 0, 66, 0
2,210713, Control_c, 0, 64, 46
2,210751, Control_c, 0, 64, 48
2,210762, Note_on_c, 0, 53, 0
2,210771, Control_c, 0, 64, 51
2,210775, Note_on_c, 0, 68, 0
2,210789, Control_c, 0, 64, 56
2,210810, Control_c, 0, 64, 59
2,210828, Control_c, 0, 64, 61
2,210846, Control_c, 0, 64, 63
2,210866, Control_c, 0, 64, 64
2,210885, Control_c, 0, 64, 66
2,210906, Control_c, 0, 64, 67
2,210924, Control_c, 0, 64, 70
2,210941, Control_c, 0, 64, 74
2,210962, Control_c, 0, 64, 78
2,210982, Control_c, 0, 64, 82
2,211000, Control_c, 0, 64, 87
2,211021, Control_c, 0, 64, 93
2,211026, Note_on_c, 0, 66, 51
2,211030, Note_on_c, 0, 70, 0
2,211039, Control_c, 0, 64, 97
2,211057, Control_c, 0, 64, 104
2,211077, Control_c, 0, 64, 112
2,211098, Control_c, 0, 64, 127
2,211346, Control_c, 0, 64, 113
2,211364, Control_c, 0, 64, 104
2,211384, Control_c, 0, 64, 97
2,211401, Note_on_c, 0, 72, 59
2,211403, Control_c, 0, 64, 90
2,211412, Note_on_c, 0, 56, 42
2,211425, Control_c, 0, 64, 83
2,211444, Control_c, 0, 64, 76
2,211462, Control_c, 0, 64, 71
2,211475, Note_on_c, 0, 54, 0
2,211480, Control_c, 0, 64, 67
2,211499, Control_c, 0, 64, 66
2,211517, Control_c, 0, 64, 65
2,211557, Control_c, 0, 64, 64
2,211595, Control_c, 0, 64, 63
2,211613, Control_c, 0, 64, 62
2,211673, Control_c, 0, 64, 61
2,211711, Control_c, 0, 64, 60
2,211731, Control_c, 0, 64, 59
2,211748, Control_c, 0, 64, 58
2,211767, Control_c, 0, 64, 57
2,211776, Note_on_c, 0, 73, 65
2,211789, Note_on_c, 0, 58, 43
2,211831, Control_c, 0, 64, 56
2,211831, Note_on_c, 0, 56, 0
2,211884, Control_c, 0, 64, 55
2,211906, Note_on_c, 0, 72, 0
2,211951, Note_on_c, 0, 75, 66
2,212058, Control_c, 0, 64, 56
2,212126, Note_on_c, 0, 73, 0
2,212148, Note_on_c, 0, 76, 75
2,212186, Note_on_c, 0, 75, 0
2,212440, Control_c, 0, 64, 55
2,212526, Note_on_c, 0, 58, 0
2,212533, Note_on_c, 0, 75, 61
2,212556, Note_on_c, 0, 60, 37
2,212575, Control_c, 0, 64, 54
2,212583, Note_on_c, 0, 76, 0
2,212596, Control_c, 0, 64, 53
2,212606, Note_on_c, 0, 66, 0
2,212632, Control_c, 0, 64, 52
2,212654, Control_c, 0, 64, 51
2,212689, Control_c, 0, 64, 50
2,212708, Control_c, 0, 64, 49
2,212731, Control_c, 0, 64, 48
2,212747, Control_c, 0, 64, 47
2,212766, Control_c, 0, 64, 45
2,212785, Control_c, 0, 64, 44
2,212805, Control_c, 0, 64, 43
2,212824, Control_c, 0, 64, 42
2,212842, Control_c, 0, 64, 41
2,212900, Control_c, 0, 64, 42
2,212920, Control_c, 0, 64, 45
2,212937, Note_on_c, 0, 61, 40
2,212941, Control_c, 0, 64, 49
2,212941, Note_on_c, 0, 68, 49
2,212960, Control_c, 0, 64, 52
2,212978, Control_c, 0, 64, 55
2,212991, Note_on_c, 0, 60, 0
2,212997, Control_c, 0, 64, 59
2,213014, Control_c, 0, 64, 63
2,213038, Control_c, 0, 64, 66
2,213057, Control_c, 0, 64, 70
2,213057, Note_on_c, 0, 61, 0
2,213073, Control_c, 0, 64, 76
2,213093, Control_c, 0, 64, 83
2,213097, Note_on_c, 0, 75, 0
2,213114, Control_c, 0, 64, 89
2,213134, Control_c, 0, 64, 93
2,213152, Control_c, 0, 64, 95
2,213170, Control_c, 0, 64, 97
2,213226, Control_c, 0, 64, 95
2,213246, Control_c, 0, 64, 93
2,213265, Control_c, 0, 64, 89
2,213285, Control_c, 0, 64, 86
2,213304, Control_c, 0, 64, 84
2,213320, Note_on_c, 0, 49, 46
2,213325, Control_c, 0, 64, 81
2,213329, Note_on_c, 0, 65, 49
2,213343, Control_c, 0, 64, 78
2,213360, Control_c, 0, 64, 74
2,213378, Note_on_c, 0, 68, 0
2,213380, Control_c, 0, 64, 72
2,213418, Control_c, 0, 64, 73
2,213440, Control_c, 0, 64, 77
2,213457, Control_c, 0, 64, 83
2,213477, Control_c, 0, 64, 93
2,213495, Control_c, 0, 64, 101
2,213516, Control_c, 0, 64, 102
2,213592, Control_c, 0, 64, 101
2,213681, Note_on_c, 0, 67, 62
2,213687, Control_c, 0, 64, 100
2,213694, Note_on_c, 0, 51, 51
2,213728, Control_c, 0, 64, 98
2,213748, Control_c, 0, 64, 97
2,213764, Control_c, 0, 64, 96
2,213802, Control_c, 0, 64, 95
2,213807, Note_on_c, 0, 65, 0
2,213822, Control_c, 0, 64, 94
2,213839, Note_on_c, 0, 49, 0
2,213843, Control_c, 0, 64, 93
2,213898, Control_c, 0, 64, 92
2,213957, Control_c, 0, 64, 90
2,213976, Control_c, 0, 64, 89
2,213998, Control_c, 0, 64, 87
2,214014, Control_c, 0, 64, 86
2,214035, Control_c, 0, 64, 84
2,214046, Note_on_c, 0, 73, 73
2,214055, Control_c, 0, 64, 82
2,214055, Note_on_c, 0, 53, 49
2,214060, Note_on_c, 0, 68, 54
2,214065, Note_on_c, 0, 67, 0
2,214072, Control_c, 0, 64, 81
2,214094, Control_c, 0, 64, 78
2,214111, Control_c, 0, 64, 75
2,214128, Control_c, 0, 64, 72
2,214151, Control_c, 0, 64, 70
2,214170, Control_c, 0, 64, 67
2,214187, Control_c, 0, 64, 65
2,214200, Note_on_c, 0, 51, 0
2,214205, Control_c, 0, 64, 64
2,214234, Note_on_c, 0, 70, 62
2,214264, Control_c, 0, 64, 63
2,214284, Control_c, 0, 64, 62
2,214317, Note_on_c, 0, 68, 0
2,214433, Note_on_c, 0, 70, 0
2,214444, Note_on_c, 0, 71, 61
2,214513, Control_c, 0, 64, 61
2,214784, Control_c, 0, 64, 60
2,214823, Note_on_c, 0, 71, 0
2,214839, Note_on_c, 0, 70, 55
2,214855, Note_on_c, 0, 55, 46
2,214875, Note_on_c, 0, 53, 0
2,214936, Control_c, 0, 64, 61
2,215222, Note_on_c, 0, 56, 59
2,215231, Note_on_c, 0, 63, 60
2,215247, Note_on_c, 0, 70, 0
2,215282, Note_on_c, 0, 55, 0
2,215348, Note_on_c, 0, 73, 0
2,215495, Control_c, 0, 64, 62
2,215599, Note_on_c, 0, 71, 65
2,215895, Control_c, 0, 64, 63
2,215969, Note_on_c, 0, 58, 59
2,215974, Control_c, 0, 64, 64
2,215987, Note_on_c, 0, 73, 68
2,215992, Control_c, 0, 64, 65
2,216011, Control_c, 0, 64, 67
2,216031, Control_c, 0, 64, 69
2,216053, Control_c, 0, 64, 71
2,216053, Note_on_c, 0, 56, 0
2,216059, Note_on_c, 0, 63, 0
2,216070, Control_c, 0, 64, 74
2,216088, Note_on_c, 0, 71, 0
2,216092, Control_c, 0, 64, 77
2,216108, Control_c, 0, 64, 80
2,216127, Control_c, 0, 64, 83
2,216148, Control_c, 0, 64, 85
2,216163, Control_c, 0, 64, 87
2,216202, Control_c, 0, 64, 88
2,216280, Control_c, 0, 64, 87
2,216302, Control_c, 0, 64, 85
2,216317, Control_c, 0, 64, 82
2,216339, Control_c, 0, 64, 78
2,216356, Control_c, 0, 64, 73
2,216370, Note_on_c, 0, 59, 62
2,216377, Note_on_c, 0, 75, 64
2,216381, Control_c, 0, 64, 68
2,216386, Note_on_c, 0, 68, 56
2,216394, Control_c, 0, 64, 65
2,216398, Note_on_c, 0, 73, 0
2,216414, Control_c, 0, 64, 63
2,216435, Control_c, 0, 64, 62
2,216444, Note_on_c, 0, 58, 0
2,216494, Control_c, 0, 64, 61
2,216509, Control_c, 0, 64, 60
2,216540, Note_on_c, 0, 59, 0
2,216549, Note_on_c, 0, 61, 61
2,216549, Note_on_c, 0, 73, 69
2,216611, Note_on_c, 0, 75, 0
2,216644, Control_c, 0, 64, 61
2,216743, Note_on_c, 0, 63, 68
2,216755, Note_on_c, 0, 71, 68
2,216786, Note_on_c, 0, 61, 0
2,216797, Note_on_c, 0, 73, 0
2,216933, Note_on_c, 0, 68, 0
2,216942, Note_on_c, 0, 70, 62
2,216962, Note_on_c, 0, 71, 0
2,217133, Note_on_c, 0, 61, 57
2,217142, Note_on_c, 0, 71, 53
2,217144, Control_c, 0, 64, 60
2,217183, Note_on_c, 0, 63, 0
2,217215, Note_on_c, 0, 70, 0
2,217327, Note_on_c, 0, 76, 74
2,217396, Control_c, 0, 64, 59
2,217414, Control_c, 0, 64, 58
2,217432, Control_c, 0, 64, 57
2,217451, Control_c, 0, 64, 56
2,217471, Control_c, 0, 64, 54
2,217489, Control_c, 0, 64, 53
2,217510, Control_c, 0, 64, 51
2,217518, Note_on_c, 0, 71, 0
2,217525, Note_on_c, 0, 70, 68
2,217529, Control_c, 0, 64, 48
2,217546, Control_c, 0, 64, 45
2,217550, Note_on_c, 0, 63, 64
2,217566, Control_c, 0, 64, 42
2,217585, Control_c, 0, 64, 37
2,217592, Note_on_c, 0, 61, 0
2,217605, Control_c, 0, 64, 30
2,217623, Control_c, 0, 64, 22
2,217643, Control_c, 0, 64, 13
2,217661, Control_c, 0, 64, 0
2,217777, Control_c, 0, 64, 14
2,217798, Control_c, 0, 64, 27
2,217819, Control_c, 0, 64, 33
2,217873, Control_c, 0, 64, 36
2,217893, Control_c, 0, 64, 44
2,217912, Control_c, 0, 64, 54
2,217925, Note_on_c, 0, 67, 62
2,217932, Control_c, 0, 64, 58
2,217950, Control_c, 0, 64, 57
2,217989, Control_c, 0, 64, 59
2,218007, Control_c, 0, 64, 62
2,218027, Control_c, 0, 64, 65
2,218047, Control_c, 0, 64, 69
2,218064, Control_c, 0, 64, 74
2,218085, Control_c, 0, 64, 85
2,218104, Control_c, 0, 64, 103
2,218106, Note_on_c, 0, 67, 0
2,218124, Control_c, 0, 64, 127
2,218149, Note_on_c, 0, 70, 0
2,218214, Note_on_c, 0, 76, 0
2,218323, Note_on_c, 0, 75, 65
2,218563, Control_c, 0, 64, 118
2,218583, Control_c, 0, 64, 106
2,218605, Control_c, 0, 64, 98
2,218621, Control_c, 0, 64, 92
2,218641, Control_c, 0, 64, 87
2,218662, Control_c, 0, 64, 82
2,218683, Control_c, 0, 64, 78
2,218699, Control_c, 0, 64, 75
2,218705, Note_on_c, 0, 76, 66
2,218717, Control_c, 0, 64, 73
2,218737, Control_c, 0, 64, 72
2,218775, Control_c, 0, 64, 71
2,218795, Control_c, 0, 64, 69
2,218815, Control_c, 0, 64, 67
2,218835, Control_c, 0, 64, 66
2,218852, Control_c, 0, 64, 64
2,218910, Control_c, 0, 64, 63
2,218927, Control_c, 0, 64, 62
2,219066, Control_c, 0, 64, 61
2,219073, Note_on_c, 0, 73, 56
2,219181, Note_on_c, 0, 75, 0
2,219200, Control_c, 0, 64, 62
2,219471, Note_on_c, 0, 82, 65
2,219559, Note_on_c, 0, 76, 0
2,219850, Note_on_c, 0, 75, 63
2,219984, Note_on_c, 0, 82, 0
2,220232, Note_on_c, 0, 71, 42
2,220303, Note_on_c, 0, 73, 0
2,220581, Note_on_c, 0, 80, 59
2,220963, Note_on_c, 0, 73, 52
2,220984, Note_on_c, 0, 75, 0
2,221334, Note_on_c, 0, 70, 42
2,221466, Note_on_c, 0, 71, 0
2,221518, Note_on_c, 0, 76, 57
2,221572, Note_on_c, 0, 73, 0
2,221681, Note_on_c, 0, 80, 0
2,221723, Note_on_c, 0, 75, 58
2,221857, Note_on_c, 0, 76, 0
2,221905, Note_on_c, 0, 73, 54
2,221941, Note_on_c, 0, 75, 0
2,222114, Note_on_c, 0, 71, 53
2,222139, Note_on_c, 0, 73, 0
2,222442, Control_c, 0, 64, 63
2,222481, Note_on_c, 0, 68, 48
2,222566, Note_on_c, 0, 70, 0
2,222575, Note_on_c, 0, 63, 0
2,222650, Note_on_c, 0, 68, 0
2,222668, Note_on_c, 0, 66, 53
2,222800, Note_on_c, 0, 66, 0
2,222859, Note_on_c, 0, 64, 57
2,223046, Note_on_c, 0, 63, 57
2,223060, Control_c, 0, 64, 62
2,223069, Note_on_c, 0, 64, 0
2,223253, Note_on_c, 0, 61, 47
2,223339, Note_on_c, 0, 63, 0
2,223423, Control_c, 0, 64, 61
2,223638, Note_on_c, 0, 70, 51
2,223713, Note_on_c, 0, 71, 0
2,223840, Note_on_c, 0, 68, 50
2,223909, Note_on_c, 0, 70, 0
2,224021, Note_on_c, 0, 67, 41
2,224034, Note_on_c, 0, 68, 0
2,224113, Control_c, 0, 64, 60
2,224188, Control_c, 0, 64, 59
2,224220, Note_on_c, 0, 65, 43
2,224246, Control_c, 0, 64, 58
2,224258, Note_on_c, 0, 67, 0
2,224288, Control_c, 0, 64, 57
2,224306, Control_c, 0, 64, 55
2,224325, Control_c, 0, 64, 53
2,224346, Control_c, 0, 64, 51
2,224346, Note_on_c, 0, 65, 0
2,224363, Control_c, 0, 64, 48
2,224403, Control_c, 0, 64, 49
2,224421, Control_c, 0, 64, 51
2,224436, Note_on_c, 0, 63, 48
2,224441, Control_c, 0, 64, 52
2,224460, Control_c, 0, 64, 53
2,224479, Control_c, 0, 64, 54
2,224499, Control_c, 0, 64, 57
2,224516, Control_c, 0, 64, 61
2,224534, Control_c, 0, 64, 64
2,224553, Control_c, 0, 64, 66
2,224575, Control_c, 0, 64, 68
2,224594, Control_c, 0, 64, 71
2,224611, Control_c, 0, 64, 75
2,224631, Control_c, 0, 64, 82
2,224652, Control_c, 0, 64, 92
2,224669, Control_c, 0, 64, 107
2,224689, Control_c, 0, 64, 127
2,224757, Note_on_c, 0, 63, 0
2,224773, Note_on_c, 0, 61, 0
2,224790, Note_on_c, 0, 75, 57
2,225184, Note_on_c, 0, 68, 60
2,225188, Control_c, 0, 64, 112
2,225199, Note_on_c, 0, 59, 50
2,225210, Control_c, 0, 64, 99
2,225228, Control_c, 0, 64, 93
2,225246, Control_c, 0, 64, 90
2,225264, Control_c, 0, 64, 87
2,225285, Control_c, 0, 64, 83
2,225305, Control_c, 0, 64, 79
2,225323, Control_c, 0, 64, 76
2,225342, Control_c, 0, 64, 74
2,225361, Control_c, 0, 64, 73
2,225399, Control_c, 0, 64, 72
2,225418, Control_c, 0, 64, 71
2,225439, Control_c, 0, 64, 70
2,225457, Control_c, 0, 64, 69
2,225494, Control_c, 0, 64, 68
2,225513, Control_c, 0, 64, 67
2,225533, Control_c, 0, 64, 66
2,225551, Control_c, 0, 64, 64
2,225572, Control_c, 0, 64, 63
2,225580, Note_on_c, 0, 58, 51
2,225592, Control_c, 0, 64, 62
2,225630, Control_c, 0, 64, 61
2,225640, Note_on_c, 0, 59, 0
2,225669, Control_c, 0, 64, 60
2,225687, Control_c, 0, 64, 58
2,225706, Control_c, 0, 64, 57
2,225726, Control_c, 0, 64, 55
2,225747, Control_c, 0, 64, 54
2,225766, Control_c, 0, 64, 52
2,225766, Note_on_c, 0, 56, 53
2,225770, Note_on_c, 0, 58, 0
2,225783, Control_c, 0, 64, 50
2,225802, Control_c, 0, 64, 47
2,225824, Control_c, 0, 64, 42
2,225840, Control_c, 0, 64, 35
2,225860, Control_c, 0, 64, 25
2,225881, Control_c, 0, 64, 9
2,225899, Control_c, 0, 64, 0
2,225958, Note_on_c, 0, 58, 55
2,225963, Note_on_c, 0, 67, 49
2,225985, Note_on_c, 0, 56, 0
2,226129, Control_c, 0, 64, 12
2,226147, Control_c, 0, 64, 33
2,226167, Control_c, 0, 64, 39
2,226188, Control_c, 0, 64, 42
2,226205, Control_c, 0, 64, 43
2,226225, Control_c, 0, 64, 46
2,226245, Control_c, 0, 64, 50
2,226263, Control_c, 0, 64, 55
2,226282, Control_c, 0, 64, 59
2,226302, Control_c, 0, 64, 60
2,226337, Note_on_c, 0, 51, 49
2,226343, Control_c, 0, 64, 61
2,226343, Note_on_c, 0, 73, 57
2,226359, Control_c, 0, 64, 63
2,226377, Control_c, 0, 64, 65
2,226390, Note_on_c, 0, 68, 0
2,226399, Control_c, 0, 64, 68
2,226412, Note_on_c, 0, 58, 0
2,226416, Control_c, 0, 64, 76
2,226436, Control_c, 0, 64, 91
2,226441, Note_on_c, 0, 67, 0
2,226457, Control_c, 0, 64, 127
2,226465, Note_on_c, 0, 51, 0
2,226628, Note_on_c, 0, 75, 0
2,226771, Note_on_c, 0, 56, 51
2,226785, Control_c, 0, 64, 99
2,226794, Note_on_c, 0, 44, 54
2,226794, Note_on_c, 0, 71, 60
2,226800, Control_c, 0, 64, 85
2,226820, Control_c, 0, 64, 76
2,226839, Control_c, 0, 64, 70
2,226860, Control_c, 0, 64, 67
2,226877, Control_c, 0, 64, 64
2,226898, Control_c, 0, 64, 63
2,226898, Note_on_c, 0, 73, 0
2,226915, Control_c, 0, 64, 61
2,226954, Control_c, 0, 64, 60
2,226993, Control_c, 0, 64, 59
2,227012, Control_c, 0, 64, 58
2,227146, Control_c, 0, 64, 59
2,227190, Note_on_c, 0, 46, 59
2,227378, Note_on_c, 0, 44, 0
2,227473, Control_c, 0, 64, 60
2,227571, Note_on_c, 0, 47, 57
2,227577, Note_on_c, 0, 68, 49
2,227629, Note_on_c, 0, 46, 0
2,227702, Control_c, 0, 64, 61
2,227858, Control_c, 0, 64, 62
2,227894, Control_c, 0, 64, 63
2,227967, Note_on_c, 0, 46, 57
2,227975, Control_c, 0, 64, 64
2,227993, Control_c, 0, 64, 65
2,227993, Note_on_c, 0, 56, 0
2,227998, Note_on_c, 0, 67, 38
2,228012, Control_c, 0, 64, 64
2,228035, Note_on_c, 0, 68, 0
2,228038, Note_on_c, 0, 47, 0
2,228164, Control_c, 0, 64, 63
2,228365, Note_on_c, 0, 51, 58
2,228395, Note_on_c, 0, 46, 0
2,228530, Control_c, 0, 64, 62
2,228756, Note_on_c, 0, 39, 51
2,228756, Note_on_c, 0, 66, 44
2,228818, Note_on_c, 0, 67, 0
2,228829, Note_on_c, 0, 51, 0
2,229137, Note_on_c, 0, 44, 54
2,229144, Note_on_c, 0, 65, 45
2,229193, Note_on_c, 0, 66, 0
2,229268, Note_on_c, 0, 39, 0
2,229537, Note_on_c, 0, 47, 53
2,229623, Note_on_c, 0, 44, 0
2,229921, Note_on_c, 0, 46, 54
2,229921, Note_on_c, 0, 64, 49
2,229934, Note_on_c, 0, 65, 0
2,229950, Note_on_c, 0, 47, 0
2,230308, Note_on_c, 0, 63, 47
2,230313, Note_on_c, 0, 47, 47
2,230364, Note_on_c, 0, 46, 0
2,230428, Note_on_c, 0, 64, 0
2,230688, Note_on_c, 0, 46, 54
2,230743, Note_on_c, 0, 47, 0
2,231083, Note_on_c, 0, 44, 49
2,231096, Note_on_c, 0, 65, 43
2,231118, Note_on_c, 0, 46, 0
2,231124, Note_on_c, 0, 63, 0
2,231390, Control_c, 0, 64, 61
2,231478, Note_on_c, 0, 46, 55
2,231490, Note_on_c, 0, 66, 52
2,231621, Note_on_c, 0, 44, 0
2,231663, Note_on_c, 0, 65, 0
2,231857, Note_on_c, 0, 47, 59
2,231931, Note_on_c, 0, 46, 0
2,232258, Note_on_c, 0, 49, 59
2,232258, Note_on_c, 0, 67, 46
2,232319, Note_on_c, 0, 47, 0
2,232356, Note_on_c, 0, 66, 0
2,232581, Control_c, 0, 64, 60
2,232654, Note_on_c, 0, 47, 49
2,232680, Note_on_c, 0, 68, 52
2,232768, Note_on_c, 0, 49, 0
2,232796, Note_on_c, 0, 67, 0
2,232983, Control_c, 0, 64, 59
2,233041, Control_c, 0, 64, 60
2,233054, Note_on_c, 0, 52, 49
2,233061, Control_c, 0, 64, 59
2,233448, Note_on_c, 0, 44, 47
2,233496, Note_on_c, 0, 47, 0
2,233500, Note_on_c, 0, 52, 0
2,233844, Note_on_c, 0, 46, 48
2,233987, Note_on_c, 0, 44, 0
2,234097, Control_c, 0, 64, 60
2,234210, Note_on_c, 0, 49, 46
2,234274, Note_on_c, 0, 46, 0
2,234615, Note_on_c, 0, 47, 45
2,234664, Note_on_c, 0, 49, 0
2,235006, Note_on_c, 0, 49, 44
2,235008, Note_on_c, 0, 67, 44
2,235017, Note_on_c, 0, 47, 0
2,235041, Note_on_c, 0, 68, 0
2,235379, Note_on_c, 0, 47, 45
2,235431, Note_on_c, 0, 71, 0
2,235495, Note_on_c, 0, 49, 0
2,235757, Note_on_c, 0, 47, 0
2,235775, Note_on_c, 0, 46, 45
2,236171, Note_on_c, 0, 47, 41
2,236185, Note_on_c, 0, 68, 48
2,236227, Note_on_c, 0, 46, 0
2,236251, Note_on_c, 0, 67, 0
2,236568, Note_on_c, 0, 51, 54
2,236568, Note_on_c, 0, 71, 58
2,236600, Note_on_c, 0, 68, 0
2,236763, Note_on_c, 0, 47, 0
2,236956, Note_on_c, 0, 56, 55
2,236956, Note_on_c, 0, 63, 57
2,237006, Note_on_c, 0, 71, 0
2,237046, Note_on_c, 0, 51, 0
2,237334, Note_on_c, 0, 64, 58
2,237384, Note_on_c, 0, 63, 0
2,237475, Control_c, 0, 64, 59
2,237711, Note_on_c, 0, 55, 50
2,237724, Note_on_c, 0, 56, 0
2,237738, Note_on_c, 0, 63, 45
2,237811, Note_on_c, 0, 64, 0
2,237888, Note_on_c, 0, 55, 0
2,237902, Note_on_c, 0, 53, 48
2,237937, Control_c, 0, 64, 58
2,237955, Control_c, 0, 64, 57
2,237975, Control_c, 0, 64, 54
2,237994, Control_c, 0, 64, 52
2,238012, Control_c, 0, 64, 51
2,238032, Control_c, 0, 64, 52
2,238051, Control_c, 0, 64, 56
2,238070, Control_c, 0, 64, 58
2,238089, Control_c, 0, 64, 60
2,238114, Control_c, 0, 64, 62
2,238114, Note_on_c, 0, 55, 42
2,238114, Note_on_c, 0, 61, 47
2,238131, Control_c, 0, 64, 63
2,238147, Control_c, 0, 64, 65
2,238156, Note_on_c, 0, 53, 0
2,238165, Control_c, 0, 64, 68
2,238165, Note_on_c, 0, 63, 0
2,238188, Control_c, 0, 64, 74
2,238205, Control_c, 0, 64, 84
2,238217, Note_on_c, 0, 55, 0
2,238224, Control_c, 0, 64, 104
2,238245, Control_c, 0, 64, 127
2,238398, Control_c, 0, 64, 104
2,238417, Control_c, 0, 64, 91
2,238435, Control_c, 0, 64, 83
2,238455, Control_c, 0, 64, 76
2,238455, Note_on_c, 0, 61, 0
2,238473, Control_c, 0, 64, 72
2,238486, Note_on_c, 0, 56, 65
2,238495, Control_c, 0, 64, 69
2,238499, Note_on_c, 0, 59, 58
2,238515, Control_c, 0, 64, 68
2,238533, Control_c, 0, 64, 67
2,238570, Control_c, 0, 64, 66
2,238588, Control_c, 0, 64, 64
2,238627, Control_c, 0, 64, 63
2,238648, Control_c, 0, 64, 62
2,238669, Control_c, 0, 64, 61
2,238669, Note_on_c, 0, 63, 45
2,238715, Note_on_c, 0, 59, 0
2,238726, Control_c, 0, 64, 60
2,238876, Note_on_c, 0, 59, 61
2,238887, Note_on_c, 0, 68, 64
2,238935, Note_on_c, 0, 63, 0
2,238974, Control_c, 0, 64, 59
2,238978, Note_on_c, 0, 56, 0
2,239089, Control_c, 0, 64, 60
2,239129, Control_c, 0, 64, 59
2,239276, Note_on_c, 0, 63, 65
2,239276, Note_on_c, 0, 66, 61
2,239352, Note_on_c, 0, 59, 0
2,239378, Note_on_c, 0, 68, 0
2,239415, Control_c, 0, 64, 58
2,239530, Control_c, 0, 64, 57
2,239571, Control_c, 0, 64, 56
2,239627, Control_c, 0, 64, 55
2,239666, Control_c, 0, 64, 54
2,239666, Note_on_c, 0, 65, 60
2,239685, Control_c, 0, 64, 53
2,239685, Note_on_c, 0, 66, 0
2,239704, Control_c, 0, 64, 52
2,239742, Control_c, 0, 64, 51
2,239760, Control_c, 0, 64, 49
2,239782, Control_c, 0, 64, 47
2,239799, Control_c, 0, 64, 44
2,239817, Control_c, 0, 64, 40
2,239836, Control_c, 0, 64, 36
2,239856, Control_c, 0, 64, 33
2,239876, Control_c, 0, 64, 29
2,239894, Control_c, 0, 64, 25
2,239913, Control_c, 0, 64, 22
2,239935, Control_c, 0, 64, 20
2,239951, Control_c, 0, 64, 19
2,239992, Control_c, 0, 64, 18
2,240047, Control_c, 0, 64, 27
2,240063, Note_on_c, 0, 70, 61
2,240068, Note_on_c, 0, 62, 55
2,240070, Control_c, 0, 64, 40
2,240091, Control_c, 0, 64, 54
2,240101, Note_on_c, 0, 63, 0
2,240109, Control_c, 0, 64, 62
2,240125, Control_c, 0, 64, 65
2,240146, Control_c, 0, 64, 67
2,240164, Control_c, 0, 64, 71
2,240175, Note_on_c, 0, 65, 0
2,240184, Control_c, 0, 64, 77
2,240202, Control_c, 0, 64, 89
2,240221, Control_c, 0, 64, 116
2,240239, Control_c, 0, 64, 127
2,240251, Note_on_c, 0, 62, 0
2,240255, Note_on_c, 0, 60, 52
2,240268, Note_on_c, 0, 70, 0
2,240414, Control_c, 0, 64, 105
2,240432, Control_c, 0, 64, 86
2,240452, Control_c, 0, 64, 74
2,240456, Note_on_c, 0, 68, 67
2,240468, Note_on_c, 0, 62, 55
2,240470, Control_c, 0, 64, 67
2,240485, Note_on_c, 0, 60, 0
2,240492, Control_c, 0, 64, 62
2,240512, Control_c, 0, 64, 60
2,240547, Control_c, 0, 64, 62
2,240568, Control_c, 0, 64, 64
2,240586, Control_c, 0, 64, 69
2,240608, Control_c, 0, 64, 78
2,240623, Control_c, 0, 64, 98
2,240645, Control_c, 0, 64, 127
2,240654, Note_on_c, 0, 68, 0
2,240835, Control_c, 0, 64, 103
2,240856, Control_c, 0, 64, 93
2,240868, Note_on_c, 0, 66, 56
2,240868, Note_on_c, 0, 75, 67
2,240877, Control_c, 0, 64, 85
2,240877, Note_on_c, 0, 63, 53
2,240892, Control_c, 0, 64, 78
2,240915, Control_c, 0, 64, 70
2,240932, Control_c, 0, 64, 63
2,240937, Note_on_c, 0, 62, 0
2,240951, Control_c, 0, 64, 58
2,240969, Control_c, 0, 64, 54
2,240988, Control_c, 0, 64, 52
2,241011, Control_c, 0, 64, 51
2,241028, Control_c, 0, 64, 50
2,241048, Control_c, 0, 64, 51
2,241065, Control_c, 0, 64, 54
2,241085, Control_c, 0, 64, 58
2,241104, Control_c, 0, 64, 62
2,241123, Control_c, 0, 64, 65
2,241143, Control_c, 0, 64, 69
2,241162, Control_c, 0, 64, 76
2,241167, Note_on_c, 0, 66, 0
2,241183, Control_c, 0, 64, 90
2,241200, Control_c, 0, 64, 127
2,241218, Note_on_c, 0, 63, 0
2,241271, Note_on_c, 0, 77, 73
2,241492, Note_on_c, 0, 75, 0
2,241624, Control_c, 0, 64, 102
2,241643, Control_c, 0, 64, 81
2,241643, Note_on_c, 0, 78, 79
2,241661, Note_on_c, 0, 51, 60
2,241661, Note_on_c, 0, 63, 63
2,241665, Control_c, 0, 64, 68
2,241682, Control_c, 0, 64, 62
2,241699, Control_c, 0, 64, 58
2,241716, Note_on_c, 0, 77, 0
2,241739, Control_c, 0, 64, 60
2,241758, Control_c, 0, 64, 62
2,241775, Control_c, 0, 64, 63
2,241796, Control_c, 0, 64, 66
2,241815, Control_c, 0, 64, 72
2,241835, Control_c, 0, 64, 88
2,241851, Control_c, 0, 64, 127
2,241872, Note_on_c, 0, 63, 0
2,242045, Control_c, 0, 64, 109
2,242049, Note_on_c, 0, 58, 57
2,242054, Note_on_c, 0, 62, 64
2,242054, Note_on_c, 0, 77, 78
2,242067, Control_c, 0, 64, 90
2,242083, Control_c, 0, 64, 78
2,242103, Control_c, 0, 64, 69
2,242110, Note_on_c, 0, 78, 0
2,242123, Control_c, 0, 64, 64
2,242139, Control_c, 0, 64, 61
2,242155, Control_c, 0, 64, 58
2,242177, Control_c, 0, 64, 55
2,242195, Control_c, 0, 64, 52
2,242214, Control_c, 0, 64, 48
2,242233, Control_c, 0, 64, 46
2,242251, Control_c, 0, 64, 47
2,242275, Control_c, 0, 64, 51
2,242292, Control_c, 0, 64, 58
2,242292, Note_on_c, 0, 51, 0
2,242308, Control_c, 0, 64, 62
2,242327, Control_c, 0, 64, 64
2,242347, Control_c, 0, 64, 65
2,242368, Control_c, 0, 64, 67
2,242386, Control_c, 0, 64, 70
2,242405, Control_c, 0, 64, 77
2,242427, Control_c, 0, 64, 89
2,242443, Control_c, 0, 64, 127
2,242447, Note_on_c, 0, 82, 78
2,242452, Note_on_c, 0, 58, 0
2,242828, Note_on_c, 0, 70, 68
2,242831, Note_on_c, 0, 61, 55
2,242842, Note_on_c, 0, 55, 52
2,242846, Control_c, 0, 64, 112
2,242857, Note_on_c, 0, 62, 0
2,242866, Control_c, 0, 64, 95
2,242868, Note_on_c, 0, 77, 0
2,242885, Control_c, 0, 64, 86
2,242905, Control_c, 0, 64, 79
2,242922, Control_c, 0, 64, 75
2,242942, Control_c, 0, 64, 71
2,242963, Control_c, 0, 64, 69
2,242970, Note_on_c, 0, 82, 0
2,242983, Control_c, 0, 64, 66
2,243001, Control_c, 0, 64, 64
2,243020, Control_c, 0, 64, 62
2,243038, Control_c, 0, 64, 61
2,243076, Control_c, 0, 64, 60
2,243096, Control_c, 0, 64, 59
2,243116, Control_c, 0, 64, 58
2,243134, Control_c, 0, 64, 57
2,243152, Control_c, 0, 64, 56
2,243172, Control_c, 0, 64, 55
2,243192, Control_c, 0, 64, 53
2,243212, Control_c, 0, 64, 52
2,243214, Note_on_c, 0, 75, 67
2,243219, Note_on_c, 0, 61, 0
2,243227, Note_on_c, 0, 56, 51
2,243227, Note_on_c, 0, 60, 48
2,243232, Control_c, 0, 64, 51
2,243236, Note_on_c, 0, 55, 0
2,243249, Control_c, 0, 64, 50
2,243289, Control_c, 0, 64, 49
2,243307, Control_c, 0, 64, 48
2,243325, Control_c, 0, 64, 45
2,243338, Note_on_c, 0, 70, 0
2,243346, Control_c, 0, 64, 41
2,243366, Control_c, 0, 64, 36
2,243383, Control_c, 0, 64, 31
2,243424, Control_c, 0, 64, 34
2,243441, Control_c, 0, 64, 42
2,243461, Control_c, 0, 64, 51
2,243480, Control_c, 0, 64, 57
2,243501, Control_c, 0, 64, 59
2,243520, Control_c, 0, 64, 61
2,243537, Control_c, 0, 64, 63
2,243556, Control_c, 0, 64, 65
2,243577, Control_c, 0, 64, 68
2,243595, Control_c, 0, 64, 74
2,243604, Note_on_c, 0, 78, 72
2,243616, Control_c, 0, 64, 85
2,243627, Note_on_c, 0, 56, 0
2,243627, Note_on_c, 0, 60, 0
2,243635, Control_c, 0, 64, 104
2,243654, Control_c, 0, 64, 127
2,243709, Note_on_c, 0, 75, 0
2,243984, Note_on_c, 0, 77, 71
2,243989, Note_on_c, 0, 59, 59
2,243993, Note_on_c, 0, 50, 52
2,243999, Control_c, 0, 64, 115
2,244017, Control_c, 0, 64, 99
2,244036, Control_c, 0, 64, 90
2,244051, Note_on_c, 0, 78, 0
2,244056, Control_c, 0, 64, 84
2,244078, Control_c, 0, 64, 80
2,244098, Control_c, 0, 64, 76
2,244114, Control_c, 0, 64, 73
2,244133, Control_c, 0, 64, 70
2,244153, Control_c, 0, 64, 68
2,244171, Control_c, 0, 64, 66
2,244191, Control_c, 0, 64, 64
2,244231, Control_c, 0, 64, 63
2,244248, Control_c, 0, 64, 62
2,244269, Control_c, 0, 64, 61
2,244286, Control_c, 0, 64, 59
2,244304, Control_c, 0, 64, 57
2,244326, Control_c, 0, 64, 55
2,244343, Control_c, 0, 64, 54
2,244365, Control_c, 0, 64, 53
2,244378, Note_on_c, 0, 51, 47
2,244382, Note_on_c, 0, 78, 70
2,244387, Note_on_c, 0, 58, 56
2,244402, Control_c, 0, 64, 52
2,244425, Control_c, 0, 64, 51
2,244425, Note_on_c, 0, 77, 0
2,244449, Note_on_c, 0, 59, 0
2,244460, Control_c, 0, 64, 50
2,244500, Control_c, 0, 64, 49
2,244514, Note_on_c, 0, 50, 0
2,244518, Control_c, 0, 64, 48
2,244539, Control_c, 0, 64, 45
2,244555, Control_c, 0, 64, 43
2,244575, Control_c, 0, 64, 40
2,244593, Control_c, 0, 64, 37
2,244612, Control_c, 0, 64, 36
2,244631, Control_c, 0, 64, 35
2,244710, Control_c, 0, 64, 37
2,244729, Control_c, 0, 64, 42
2,244746, Control_c, 0, 64, 46
2,244766, Control_c, 0, 64, 47
2,244780, Note_on_c, 0, 77, 61
2,244805, Control_c, 0, 64, 49
2,244823, Control_c, 0, 64, 53
2,244843, Control_c, 0, 64, 57
2,244854, Note_on_c, 0, 78, 0
2,244862, Control_c, 0, 64, 58
2,244882, Control_c, 0, 64, 56
2,244919, Control_c, 0, 64, 57
2,244941, Control_c, 0, 64, 58
2,244959, Control_c, 0, 64, 60
2,244977, Control_c, 0, 64, 62
2,245038, Control_c, 0, 64, 63
2,245054, Control_c, 0, 64, 64
2,245073, Control_c, 0, 64, 66
2,245093, Control_c, 0, 64, 68
2,245111, Control_c, 0, 64, 73
2,245130, Control_c, 0, 64, 79
2,245135, Note_on_c, 0, 51, 0
2,245151, Control_c, 0, 64, 88
2,245167, Note_on_c, 0, 75, 59
2,245171, Control_c, 0, 64, 101
2,245176, Note_on_c, 0, 60, 49
2,245183, Note_on_c, 0, 58, 0
2,245192, Control_c, 0, 64, 127
2,245240, Note_on_c, 0, 77, 0
2,245534, Control_c, 0, 64, 109
2,245553, Control_c, 0, 64, 99
2,245562, Note_on_c, 0, 77, 64
2,245575, Control_c, 0, 64, 92
2,245575, Note_on_c, 0, 61, 38
2,245577, Note_on_c, 0, 75, 0
2,245582, Note_on_c, 0, 58, 42
2,245593, Control_c, 0, 64, 86
2,245614, Control_c, 0, 64, 82
2,245630, Control_c, 0, 64, 80
2,245635, Note_on_c, 0, 60, 0
2,245671, Control_c, 0, 64, 79
2,245688, Control_c, 0, 64, 77
2,245709, Control_c, 0, 64, 74
2,245728, Control_c, 0, 64, 72
2,245748, Control_c, 0, 64, 70
2,245784, Control_c, 0, 64, 69
2,245805, Control_c, 0, 64, 68
2,245823, Control_c, 0, 64, 67
2,245844, Control_c, 0, 64, 66
2,245881, Control_c, 0, 64, 65
2,245921, Control_c, 0, 64, 64
2,245945, Note_on_c, 0, 78, 76
2,245978, Control_c, 0, 64, 63
2,245997, Control_c, 0, 64, 62
2,246030, Note_on_c, 0, 77, 0
2,246039, Control_c, 0, 64, 61
2,246075, Control_c, 0, 64, 60
2,246113, Control_c, 0, 64, 59
2,246132, Control_c, 0, 64, 58
2,246171, Control_c, 0, 64, 57
2,246208, Control_c, 0, 64, 56
2,246248, Control_c, 0, 64, 55
2,246335, Note_on_c, 0, 80, 75
2,246344, Note_on_c, 0, 62, 49
2,246364, Control_c, 0, 64, 54
2,246455, Note_on_c, 0, 61, 0
2,246462, Note_on_c, 0, 78, 0
2,246537, Control_c, 0, 64, 53
2,246594, Control_c, 0, 64, 54
2,246612, Control_c, 0, 64, 55
2,246648, Note_on_c, 0, 58, 0
2,246652, Control_c, 0, 64, 56
2,246689, Control_c, 0, 64, 58
2,246710, Control_c, 0, 64, 60
2,246721, Note_on_c, 0, 78, 77
2,246728, Control_c, 0, 64, 62
2,246739, Note_on_c, 0, 62, 0
2,246748, Note_on_c, 0, 63, 41
2,246753, Control_c, 0, 64, 63
2,246766, Control_c, 0, 64, 64
2,246786, Note_on_c, 0, 80, 0
2,246805, Control_c, 0, 64, 65
2,246823, Control_c, 0, 64, 66
2,246845, Control_c, 0, 64, 68
2,246865, Control_c, 0, 64, 70
2,246883, Control_c, 0, 64, 71
2,246901, Control_c, 0, 64, 72
2,246921, Control_c, 0, 64, 73
2,246939, Control_c, 0, 64, 75
2,246957, Control_c, 0, 64, 79
2,246979, Control_c, 0, 64, 86
2,246998, Control_c, 0, 64, 90
2,247015, Control_c, 0, 64, 91
2,247034, Control_c, 0, 64, 90
2,247055, Control_c, 0, 64, 85
2,247074, Control_c, 0, 64, 79
2,247093, Control_c, 0, 64, 72
2,247111, Control_c, 0, 64, 66
2,247124, Note_on_c, 0, 83, 67
2,247132, Control_c, 0, 64, 62
2,247136, Note_on_c, 0, 56, 44
2,247151, Control_c, 0, 64, 59
2,247182, Note_on_c, 0, 78, 0
2,247189, Control_c, 0, 64, 60
2,247208, Control_c, 0, 64, 62
2,247226, Control_c, 0, 64, 65
2,247246, Control_c, 0, 64, 71
2,247267, Control_c, 0, 64, 85
2,247284, Control_c, 0, 64, 111
2,247306, Control_c, 0, 64, 127
2,247422, Control_c, 0, 64, 97
2,247439, Control_c, 0, 64, 80
2,247458, Control_c, 0, 64, 69
2,247476, Control_c, 0, 64, 65
2,247489, Note_on_c, 0, 75, 65
2,247498, Control_c, 0, 64, 64
2,247509, Note_on_c, 0, 54, 45
2,247518, Control_c, 0, 64, 66
2,247523, Note_on_c, 0, 56, 0
2,247534, Control_c, 0, 64, 71
2,247540, Note_on_c, 0, 83, 0
2,247554, Control_c, 0, 64, 81
2,247573, Control_c, 0, 64, 101
2,247592, Control_c, 0, 64, 127
2,247864, Control_c, 0, 64, 102
2,247878, Control_c, 0, 64, 88
2,247889, Note_on_c, 0, 56, 50
2,247901, Control_c, 0, 64, 77
2,247901, Note_on_c, 0, 77, 67
2,247918, Control_c, 0, 64, 69
2,247937, Control_c, 0, 64, 64
2,247956, Control_c, 0, 64, 62
2,247979, Control_c, 0, 64, 60
2,247979, Note_on_c, 0, 54, 0
2,247995, Control_c, 0, 64, 58
2,248017, Control_c, 0, 64, 55
2,248035, Control_c, 0, 64, 52
2,248051, Control_c, 0, 64, 50
2,248071, Control_c, 0, 64, 49
2,248071, Note_on_c, 0, 75, 0
2,248091, Control_c, 0, 64, 51
2,248108, Control_c, 0, 64, 54
2,248128, Control_c, 0, 64, 56
2,248150, Control_c, 0, 64, 58
2,248168, Control_c, 0, 64, 60
2,248186, Control_c, 0, 64, 61
2,248206, Control_c, 0, 64, 63
2,248226, Control_c, 0, 64, 65
2,248244, Control_c, 0, 64, 66
2,248265, Control_c, 0, 64, 69
2,248269, Note_on_c, 0, 80, 68
2,248287, Control_c, 0, 64, 71
2,248303, Control_c, 0, 64, 74
2,248314, Note_on_c, 0, 77, 0
2,248321, Control_c, 0, 64, 77
2,248340, Control_c, 0, 64, 80
2,248361, Control_c, 0, 64, 84
2,248380, Control_c, 0, 64, 88
2,248398, Control_c, 0, 64, 92
2,248417, Control_c, 0, 64, 98
2,248436, Control_c, 0, 64, 106
2,248458, Control_c, 0, 64, 127
2,248639, Note_on_c, 0, 78, 72
2,248696, Note_on_c, 0, 80, 0
2,248935, Control_c, 0, 64, 122
2,248954, Control_c, 0, 64, 109
2,248973, Control_c, 0, 64, 102
2,248991, Control_c, 0, 64, 97
2,249013, Control_c, 0, 64, 93
2,249032, Control_c, 0, 64, 90
2,249035, Note_on_c, 0, 80, 60
2,249045, Note_on_c, 0, 62, 47
2,249055, Control_c, 0, 64, 85
2,249073, Control_c, 0, 64, 79
2,249077, Note_on_c, 0, 58, 44
2,249077, Note_on_c, 0, 78, 0
2,249091, Control_c, 0, 64, 74
2,249110, Control_c, 0, 64, 68
2,249128, Control_c, 0, 64, 64
2,249150, Control_c, 0, 64, 61
2,249158, Note_on_c, 0, 63, 0
2,249167, Control_c, 0, 64, 58
2,249172, Note_on_c, 0, 56, 0
2,249188, Control_c, 0, 64, 56
2,249205, Control_c, 0, 64, 54
2,249224, Control_c, 0, 64, 51
2,249244, Control_c, 0, 64, 50
2,249283, Control_c, 0, 64, 52
2,249301, Control_c, 0, 64, 56
2,249321, Control_c, 0, 64, 60
2,249340, Control_c, 0, 64, 63
2,249359, Control_c, 0, 64, 64
2,249376, Control_c, 0, 64, 65
2,249398, Control_c, 0, 64, 67
2,249417, Control_c, 0, 64, 71
2,249424, Note_on_c, 0, 78, 65
2,249435, Control_c, 0, 64, 78
2,249455, Control_c, 0, 64, 89
2,249474, Control_c, 0, 64, 113
2,249478, Note_on_c, 0, 62, 0
2,249493, Control_c, 0, 64, 127
2,249513, Note_on_c, 0, 58, 0
2,249570, Note_on_c, 0, 80, 0
2,249816, Note_on_c, 0, 77, 68
2,249835, Note_on_c, 0, 78, 0
2,250126, Control_c, 0, 64, 112
2,250144, Control_c, 0, 64, 95
2,250165, Control_c, 0, 64, 86
2,250184, Control_c, 0, 64, 78
2,250206, Control_c, 0, 64, 72
2,250206, Note_on_c, 0, 78, 77
2,250222, Note_on_c, 0, 51, 45
2,250222, Note_on_c, 0, 63, 52
2,250226, Control_c, 0, 64, 66
2,250243, Control_c, 0, 64, 63
2,250255, Note_on_c, 0, 77, 0
2,250259, Control_c, 0, 64, 60
2,250279, Control_c, 0, 64, 58
2,250297, Control_c, 0, 64, 56
2,250337, Control_c, 0, 64, 58
2,250357, Control_c, 0, 64, 60
2,250376, Control_c, 0, 64, 62
2,250396, Control_c, 0, 64, 64
2,250415, Control_c, 0, 64, 68
2,250432, Control_c, 0, 64, 76
2,250452, Control_c, 0, 64, 88
2,250473, Control_c, 0, 64, 127
2,250487, Note_on_c, 0, 63, 0
2,250590, Note_on_c, 0, 70, 57
2,250880, Note_on_c, 0, 51, 0
2,250951, Note_on_c, 0, 47, 47
2,250970, Control_c, 0, 64, 106
2,250981, Note_on_c, 0, 75, 62
2,250993, Control_c, 0, 64, 88
2,251011, Control_c, 0, 64, 77
2,251031, Control_c, 0, 64, 72
2,251068, Control_c, 0, 64, 75
2,251087, Control_c, 0, 64, 83
2,251105, Control_c, 0, 64, 100
2,251124, Control_c, 0, 64, 127
2,251171, Note_on_c, 0, 70, 0
2,251316, Control_c, 0, 64, 95
2,251337, Control_c, 0, 64, 80
2,251348, Note_on_c, 0, 77, 77
2,251355, Control_c, 0, 64, 70
2,251357, Note_on_c, 0, 44, 50
2,251373, Control_c, 0, 64, 65
2,251395, Control_c, 0, 64, 61
2,251395, Note_on_c, 0, 78, 0
2,251399, Note_on_c, 0, 75, 0
2,251412, Control_c, 0, 64, 59
2,251429, Note_on_c, 0, 47, 0
2,251433, Control_c, 0, 64, 57
2,251453, Control_c, 0, 64, 56
2,251511, Control_c, 0, 64, 57
2,251529, Control_c, 0, 64, 60
2,251547, Control_c, 0, 64, 62
2,251565, Control_c, 0, 64, 66
2,251585, Control_c, 0, 64, 74
2,251603, Control_c, 0, 64, 97
2,251623, Control_c, 0, 64, 127
2,251759, Note_on_c, 0, 73, 58
2,251825, Note_on_c, 0, 77, 0
2,251874, Note_on_c, 0, 73, 0
2,251915, Note_on_c, 0, 71, 50
2,252104, Note_on_c, 0, 76, 67
2,252119, Note_on_c, 0, 73, 53
2,252123, Control_c, 0, 64, 122
2,252128, Note_on_c, 0, 46, 44
2,252139, Note_on_c, 0, 71, 0
2,252144, Control_c, 0, 64, 99
2,252162, Control_c, 0, 64, 90
2,252181, Control_c, 0, 64, 83
2,252199, Control_c, 0, 64, 77
2,252205, Note_on_c, 0, 44, 0
2,252219, Control_c, 0, 64, 70
2,252238, Control_c, 0, 64, 64
2,252260, Control_c, 0, 64, 60
2,252276, Control_c, 0, 64, 57
2,252297, Control_c, 0, 64, 55
2,252315, Control_c, 0, 64, 54
2,252334, Control_c, 0, 64, 53
2,252352, Control_c, 0, 64, 49
2,252372, Control_c, 0, 64, 46
2,252392, Control_c, 0, 64, 44
2,252451, Control_c, 0, 64, 45
2,252470, Control_c, 0, 64, 48
2,252486, Control_c, 0, 64, 52
2,252492, Note_on_c, 0, 75, 60
2,252503, Note_on_c, 0, 47, 40
2,252507, Control_c, 0, 64, 56
2,252527, Control_c, 0, 64, 60
2,252536, Note_on_c, 0, 46, 0
2,252536, Note_on_c, 0, 76, 0
2,252543, Note_on_c, 0, 73, 0
2,252547, Control_c, 0, 64, 63
2,252565, Control_c, 0, 64, 65
2,252585, Control_c, 0, 64, 66
2,252603, Control_c, 0, 64, 67
2,252622, Control_c, 0, 64, 68
2,252661, Control_c, 0, 64, 69
2,252699, Control_c, 0, 64, 68
2,252737, Control_c, 0, 64, 67
2,252774, Control_c, 0, 64, 65
2,252794, Control_c, 0, 64, 62
2,252813, Control_c, 0, 64, 59
2,252834, Control_c, 0, 64, 56
2,252871, Control_c, 0, 64, 57
2,252874, Note_on_c, 0, 66, 41
2,252891, Control_c, 0, 64, 59
2,252910, Control_c, 0, 64, 61
2,252928, Control_c, 0, 64, 63
2,252947, Control_c, 0, 64, 64
2,252969, Control_c, 0, 64, 66
2,252987, Control_c, 0, 64, 67
2,253005, Control_c, 0, 64, 68
2,253026, Control_c, 0, 64, 69
2,253103, Control_c, 0, 64, 68
2,253140, Control_c, 0, 64, 67
2,253159, Control_c, 0, 64, 65
2,253178, Control_c, 0, 64, 63
2,253197, Control_c, 0, 64, 62
2,253217, Control_c, 0, 64, 61
2,253256, Control_c, 0, 64, 60
2,253260, Note_on_c, 0, 51, 36
2,253260, Note_on_c, 0, 71, 47
2,253322, Note_on_c, 0, 47, 0
2,253353, Control_c, 0, 64, 59
2,253634, Note_on_c, 0, 74, 63
2,253645, Note_on_c, 0, 53, 42
2,253668, Note_on_c, 0, 71, 0
2,253670, Note_on_c, 0, 66, 0
2,253695, Note_on_c, 0, 75, 0
2,253737, Note_on_c, 0, 51, 0
2,254040, Note_on_c, 0, 70, 32
2,254045, Control_c, 0, 64, 60
2,254133, Note_on_c, 0, 70, 0
2,254182, Note_on_c, 0, 68, 45
2,254331, Control_c, 0, 64, 61
2,254371, Control_c, 0, 64, 62
2,254371, Note_on_c, 0, 53, 0
2,254371, Note_on_c, 0, 70, 44
2,254371, Note_on_c, 0, 73, 62
2,254393, Control_c, 0, 64, 63
2,254393, Note_on_c, 0, 55, 40
2,254407, Control_c, 0, 64, 64
2,254421, Note_on_c, 0, 74, 0
2,254430, Note_on_c, 0, 68, 0
2,254484, Control_c, 0, 64, 65
2,254714, Control_c, 0, 64, 64
2,254749, Note_on_c, 0, 70, 0
2,254755, Control_c, 0, 64, 63
2,254755, Note_on_c, 0, 56, 47
2,254757, Note_on_c, 0, 71, 59
2,254774, Note_on_c, 0, 73, 0
2,254787, Note_on_c, 0, 55, 0
2,254791, Control_c, 0, 64, 62
2,254810, Control_c, 0, 64, 61
2,254833, Control_c, 0, 64, 59
2,254852, Control_c, 0, 64, 58
2,254888, Control_c, 0, 64, 59
2,254926, Control_c, 0, 64, 60
2,254944, Control_c, 0, 64, 61
2,254964, Control_c, 0, 64, 62
2,254986, Control_c, 0, 64, 63
2,255004, Control_c, 0, 64, 64
2,255021, Control_c, 0, 64, 65
2,255138, Note_on_c, 0, 75, 70
2,255386, Control_c, 0, 64, 64
2,255481, Control_c, 0, 64, 63
2,255501, Control_c, 0, 64, 62
2,255522, Control_c, 0, 64, 61
2,255524, Note_on_c, 0, 59, 41
2,255531, Note_on_c, 0, 80, 74
2,255580, Control_c, 0, 64, 62
2,255580, Note_on_c, 0, 71, 0
2,255597, Control_c, 0, 64, 63
2,255617, Control_c, 0, 64, 64
2,255637, Control_c, 0, 64, 67
2,255654, Note_on_c, 0, 56, 0
2,255658, Control_c, 0, 64, 72
2,255674, Control_c, 0, 64, 80
2,255697, Control_c, 0, 64, 91
2,255715, Control_c, 0, 64, 103
2,255734, Control_c, 0, 64, 106
2,255791, Control_c, 0, 64, 105
2,255809, Control_c, 0, 64, 104
2,255830, Control_c, 0, 64, 102
2,255848, Control_c, 0, 64, 100
2,255866, Control_c, 0, 64, 97
2,255887, Control_c, 0, 64, 92
2,255904, Control_c, 0, 64, 86
2,255910, Note_on_c, 0, 70, 65
2,255924, Control_c, 0, 64, 78
2,255934, Note_on_c, 0, 61, 47
2,255945, Control_c, 0, 64, 72
2,255949, Note_on_c, 0, 59, 0
2,255967, Control_c, 0, 64, 67
2,255981, Control_c, 0, 64, 63
2,256001, Control_c, 0, 64, 62
2,256021, Control_c, 0, 64, 61
2,256079, Control_c, 0, 64, 62
2,256115, Control_c, 0, 64, 63
2,256136, Control_c, 0, 64, 65
2,256156, Control_c, 0, 64, 67
2,256175, Control_c, 0, 64, 72
2,256192, Control_c, 0, 64, 77
2,256212, Control_c, 0, 64, 85
2,256233, Control_c, 0, 64, 93
2,256252, Control_c, 0, 64, 102
2,256269, Control_c, 0, 64, 127
2,256312, Note_on_c, 0, 78, 69
2,256377, Note_on_c, 0, 70, 0
2,256427, Note_on_c, 0, 75, 0
2,256438, Note_on_c, 0, 80, 0
2,256469, Note_on_c, 0, 76, 70
2,256483, Note_on_c, 0, 78, 0
2,256635, Control_c, 0, 64, 116
2,256656, Control_c, 0, 64, 88
2,256674, Control_c, 0, 64, 73
2,256678, Note_on_c, 0, 78, 76
2,256687, Note_on_c, 0, 69, 66
2,256693, Control_c, 0, 64, 66
2,256693, Note_on_c, 0, 63, 54
2,256705, Note_on_c, 0, 61, 0
2,256705, Note_on_c, 0, 76, 0
2,256712, Control_c, 0, 64, 63
2,256751, Control_c, 0, 64, 64
2,256769, Control_c, 0, 64, 67
2,256787, Control_c, 0, 64, 73
2,256807, Control_c, 0, 64, 92
2,256829, Control_c, 0, 64, 127
2,256836, Note_on_c, 0, 69, 0
2,257060, Note_on_c, 0, 63, 0
2,257076, Control_c, 0, 64, 107
2,257097, Control_c, 0, 64, 85
2,257097, Note_on_c, 0, 68, 76
2,257108, Note_on_c, 0, 64, 65
2,257115, Control_c, 0, 64, 72
2,257135, Control_c, 0, 64, 65
2,257153, Control_c, 0, 64, 61
2,257171, Control_c, 0, 64, 59
2,257191, Control_c, 0, 64, 58
2,257268, Control_c, 0, 64, 59
2,257286, Control_c, 0, 64, 61
2,257310, Control_c, 0, 64, 64
2,257329, Control_c, 0, 64, 69
2,257344, Control_c, 0, 64, 79
2,257364, Control_c, 0, 64, 97
2,257384, Control_c, 0, 64, 127
2,257467, Note_on_c, 0, 71, 68
2,257542, Note_on_c, 0, 78, 0
2,257870, Note_on_c, 0, 76, 71
2,257874, Note_on_c, 0, 61, 49
2,257879, Note_on_c, 0, 64, 0
2,257926, Note_on_c, 0, 68, 0
2,258276, Note_on_c, 0, 58, 58
2,258289, Note_on_c, 0, 67, 75
2,258332, Control_c, 0, 64, 110
2,258339, Note_on_c, 0, 71, 0
2,258348, Control_c, 0, 64, 89
2,258348, Note_on_c, 0, 61, 0
2,258366, Control_c, 0, 64, 77
2,258385, Control_c, 0, 64, 68
2,258405, Control_c, 0, 64, 64
2,258426, Control_c, 0, 64, 60
2,258444, Control_c, 0, 64, 57
2,258462, Control_c, 0, 64, 55
2,258485, Control_c, 0, 64, 54
2,258521, Control_c, 0, 64, 56
2,258540, Control_c, 0, 64, 59
2,258559, Control_c, 0, 64, 62
2,258578, Control_c, 0, 64, 65
2,258596, Control_c, 0, 64, 68
2,258618, Control_c, 0, 64, 74
2,258637, Control_c, 0, 64, 84
2,258654, Control_c, 0, 64, 111
2,258676, Control_c, 0, 64, 127
2,258684, Note_on_c, 0, 75, 62
2,258704, Note_on_c, 0, 67, 0
2,258786, Note_on_c, 0, 76, 0
2,258861, Note_on_c, 0, 73, 63
2,258887, Note_on_c, 0, 75, 0
2,259063, Note_on_c, 0, 75, 67
2,259069, Note_on_c, 0, 66, 64
2,259078, Control_c, 0, 64, 102
2,259087, Note_on_c, 0, 60, 59
2,259092, Note_on_c, 0, 73, 0
2,259097, Control_c, 0, 64, 79
2,259116, Control_c, 0, 64, 68
2,259135, Note_on_c, 0, 58, 0
2,259140, Control_c, 0, 64, 62
2,259156, Control_c, 0, 64, 59
2,259174, Control_c, 0, 64, 58
2,259193, Control_c, 0, 64, 59
2,259213, Control_c, 0, 64, 61
2,259232, Control_c, 0, 64, 63
2,259252, Control_c, 0, 64, 69
2,259270, Control_c, 0, 64, 80
2,259290, Control_c, 0, 64, 120
2,259308, Control_c, 0, 64, 127
2,259442, Control_c, 0, 64, 101
2,259462, Control_c, 0, 64, 83
2,259473, Note_on_c, 0, 66, 0
2,259480, Control_c, 0, 64, 72
2,259492, Note_on_c, 0, 73, 59
2,259505, Control_c, 0, 64, 65
2,259505, Note_on_c, 0, 64, 64
2,259514, Note_on_c, 0, 61, 55
2,259520, Control_c, 0, 64, 62
2,259531, Note_on_c, 0, 60, 0
2,259539, Control_c, 0, 64, 61
2,259555, Note_on_c, 0, 75, 0
2,259560, Control_c, 0, 64, 59
2,259578, Control_c, 0, 64, 57
2,259597, Control_c, 0, 64, 53
2,259615, Control_c, 0, 64, 49
2,259635, Control_c, 0, 64, 44
2,259653, Control_c, 0, 64, 38
2,259673, Control_c, 0, 64, 31
2,259694, Control_c, 0, 64, 25
2,259711, Control_c, 0, 64, 22
2,259750, Control_c, 0, 64, 26
2,259768, Control_c, 0, 64, 33
2,259788, Control_c, 0, 64, 39
2,259808, Control_c, 0, 64, 44
2,259826, Control_c, 0, 64, 50
2,259846, Control_c, 0, 64, 57
2,259865, Control_c, 0, 64, 61
2,259882, Note_on_c, 0, 60, 58
2,259882, Note_on_c, 0, 66, 63
2,259888, Control_c, 0, 64, 63
2,259888, Note_on_c, 0, 75, 67
2,259904, Control_c, 0, 64, 64
2,259909, Note_on_c, 0, 73, 0
2,259942, Control_c, 0, 64, 65
2,259961, Control_c, 0, 64, 67
2,259980, Control_c, 0, 64, 70
2,260002, Control_c, 0, 64, 73
2,260006, Note_on_c, 0, 61, 0
2,260019, Control_c, 0, 64, 77
2,260026, Note_on_c, 0, 64, 0
2,260037, Control_c, 0, 64, 79
2,260076, Control_c, 0, 64, 78
2,260115, Control_c, 0, 64, 77
2,260133, Control_c, 0, 64, 76
2,260153, Control_c, 0, 64, 74
2,260174, Control_c, 0, 64, 72
2,260191, Control_c, 0, 64, 70
2,260209, Control_c, 0, 64, 67
2,260229, Control_c, 0, 64, 64
2,260248, Control_c, 0, 64, 62
2,260270, Note_on_c, 0, 76, 67
2,260274, Control_c, 0, 64, 61
2,260274, Note_on_c, 0, 68, 53
2,260277, Note_on_c, 0, 58, 50
2,260288, Control_c, 0, 64, 59
2,260310, Note_on_c, 0, 60, 0
2,260315, Note_on_c, 0, 75, 0
2,260323, Note_on_c, 0, 66, 0
2,260366, Control_c, 0, 64, 61
2,260384, Control_c, 0, 64, 63
2,260401, Control_c, 0, 64, 66
2,260422, Control_c, 0, 64, 70
2,260443, Control_c, 0, 64, 78
2,260461, Control_c, 0, 64, 88
2,260478, Control_c, 0, 64, 99
2,260499, Control_c, 0, 64, 103
2,260518, Control_c, 0, 64, 104
2,260537, Control_c, 0, 64, 103
2,260556, Control_c, 0, 64, 101
2,260574, Control_c, 0, 64, 96
2,260595, Control_c, 0, 64, 90
2,260614, Control_c, 0, 64, 82
2,260632, Control_c, 0, 64, 75
2,260652, Control_c, 0, 64, 68
2,260659, Note_on_c, 0, 75, 66
2,260663, Note_on_c, 0, 66, 52
2,260673, Control_c, 0, 64, 63
2,260673, Note_on_c, 0, 59, 45
2,260678, Note_on_c, 0, 58, 0
2,260690, Control_c, 0, 64, 59
2,260697, Note_on_c, 0, 68, 0
2,260709, Control_c, 0, 64, 58
2,260714, Note_on_c, 0, 76, 0
2,260747, Control_c, 0, 64, 59
2,260767, Control_c, 0, 64, 60
2,260787, Control_c, 0, 64, 62
2,260807, Control_c, 0, 64, 64
2,260825, Control_c, 0, 64, 67
2,260845, Control_c, 0, 64, 71
2,260863, Control_c, 0, 64, 78
2,260886, Control_c, 0, 64, 85
2,260900, Control_c, 0, 64, 89
2,260917, Control_c, 0, 64, 90
2,260937, Control_c, 0, 64, 89
2,260957, Control_c, 0, 64, 88
2,260976, Control_c, 0, 64, 86
2,260997, Control_c, 0, 64, 83
2,261013, Control_c, 0, 64, 78
2,261037, Control_c, 0, 64, 71
2,261037, Note_on_c, 0, 58, 52
2,261037, Note_on_c, 0, 71, 65
2,261057, Control_c, 0, 64, 65
2,261071, Control_c, 0, 64, 62
2,261075, Note_on_c, 0, 59, 0
2,261091, Control_c, 0, 64, 61
2,261111, Control_c, 0, 64, 62
2,261115, Note_on_c, 0, 75, 0
2,261131, Control_c, 0, 64, 64
2,261147, Control_c, 0, 64, 65
2,261167, Control_c, 0, 64, 70
2,261187, Control_c, 0, 64, 78
2,261206, Control_c, 0, 64, 88
2,261225, Control_c, 0, 64, 104
2,261245, Control_c, 0, 64, 127
2,261341, Control_c, 0, 64, 116
2,261359, Control_c, 0, 64, 102
2,261379, Control_c, 0, 64, 90
2,261401, Control_c, 0, 64, 80
2,261419, Control_c, 0, 64, 72
2,261431, Note_on_c, 0, 59, 57
2,261431, Note_on_c, 0, 66, 0
2,261435, Control_c, 0, 64, 66
2,261447, Note_on_c, 0, 56, 42
2,261447, Note_on_c, 0, 74, 52
2,261455, Control_c, 0, 64, 63
2,261466, Note_on_c, 0, 58, 0
2,261476, Control_c, 0, 64, 62
2,261494, Control_c, 0, 64, 60
2,261515, Control_c, 0, 64, 59
2,261532, Control_c, 0, 64, 58
2,261552, Control_c, 0, 64, 57
2,261589, Control_c, 0, 64, 58
2,261610, Control_c, 0, 64, 59
2,261628, Control_c, 0, 64, 60
2,261834, Note_on_c, 0, 73, 69
2,261836, Note_on_c, 0, 57, 54
2,261843, Note_on_c, 0, 64, 56
2,261847, Note_on_c, 0, 71, 0
2,261879, Control_c, 0, 64, 61
2,261879, Note_on_c, 0, 59, 0
2,261904, Note_on_c, 0, 56, 0
2,261920, Control_c, 0, 64, 62
2,261920, Note_on_c, 0, 74, 0
2,261954, Control_c, 0, 64, 63
2,261994, Control_c, 0, 64, 64
2,262011, Control_c, 0, 64, 65
2,262033, Control_c, 0, 64, 66
2,262051, Control_c, 0, 64, 68
2,262070, Control_c, 0, 64, 69
2,262087, Control_c, 0, 64, 70
2,262109, Control_c, 0, 64, 72
2,262127, Control_c, 0, 64, 73
2,262147, Control_c, 0, 64, 74
2,262166, Control_c, 0, 64, 75
2,262186, Control_c, 0, 64, 77
2,262206, Control_c, 0, 64, 78
2,262223, Control_c, 0, 64, 80
2,262229, Note_on_c, 0, 68, 70
2,262243, Control_c, 0, 64, 82
2,262248, Note_on_c, 0, 64, 0
2,262264, Control_c, 0, 64, 85
2,262281, Control_c, 0, 64, 88
2,262300, Control_c, 0, 64, 92
2,262320, Control_c, 0, 64, 98
2,262340, Control_c, 0, 64, 106
2,262359, Control_c, 0, 64, 127
2,262591, Control_c, 0, 64, 109
2,262611, Control_c, 0, 64, 88
2,262611, Note_on_c, 0, 57, 0
2,262615, Note_on_c, 0, 72, 70
2,262619, Note_on_c, 0, 66, 63
2,262624, Note_on_c, 0, 51, 53
2,262628, Control_c, 0, 64, 75
2,262638, Note_on_c, 0, 73, 0
2,262647, Control_c, 0, 64, 67
2,262654, Note_on_c, 0, 68, 0
2,262665, Control_c, 0, 64, 63
2,262683, Control_c, 0, 64, 62
2,262703, Control_c, 0, 64, 63
2,262722, Control_c, 0, 64, 64
2,262742, Control_c, 0, 64, 65
2,262761, Control_c, 0, 64, 67
2,262781, Control_c, 0, 64, 71
2,262800, Control_c, 0, 64, 78
2,262820, Control_c, 0, 64, 90
2,262840, Control_c, 0, 64, 102
2,262856, Control_c, 0, 64, 113
2,262895, Control_c, 0, 64, 112
2,262914, Control_c, 0, 64, 107
2,262932, Control_c, 0, 64, 101
2,262954, Control_c, 0, 64, 94
2,262973, Control_c, 0, 64, 87
2,262992, Control_c, 0, 64, 80
2,263003, Note_on_c, 0, 68, 56
2,263004, Note_on_c, 0, 71, 63
2,263012, Control_c, 0, 64, 73
2,263016, Note_on_c, 0, 51, 0
2,263026, Note_on_c, 0, 52, 50
2,263031, Control_c, 0, 64, 67
2,263050, Control_c, 0, 64, 63
2,263059, Note_on_c, 0, 72, 0
2,263061, Note_on_c, 0, 66, 0
2,263071, Control_c, 0, 64, 60
2,263091, Control_c, 0, 64, 58
2,263108, Control_c, 0, 64, 56
2,263146, Control_c, 0, 64, 55
2,263164, Control_c, 0, 64, 56
2,263184, Control_c, 0, 64, 57
2,263202, Control_c, 0, 64, 60
2,263221, Control_c, 0, 64, 62
2,263243, Control_c, 0, 64, 65
2,263260, Control_c, 0, 64, 68
2,263280, Control_c, 0, 64, 74
2,263299, Control_c, 0, 64, 83
2,263318, Control_c, 0, 64, 96
2,263336, Control_c, 0, 64, 127
2,263398, Note_on_c, 0, 66, 59
2,263446, Note_on_c, 0, 66, 0
2,263694, Note_on_c, 0, 68, 0
2,263741, Control_c, 0, 64, 97
2,263759, Control_c, 0, 64, 82
2,263768, Note_on_c, 0, 73, 68
2,263783, Control_c, 0, 64, 70
2,263783, Note_on_c, 0, 40, 40
2,263783, Note_on_c, 0, 64, 53
2,263794, Note_on_c, 0, 52, 0
2,263799, Control_c, 0, 64, 64
2,263818, Control_c, 0, 64, 61
2,263823, Note_on_c, 0, 71, 0
2,263837, Control_c, 0, 64, 60
2,263858, Control_c, 0, 64, 62
2,263877, Control_c, 0, 64, 64
2,263893, Control_c, 0, 64, 69
2,263913, Control_c, 0, 64, 86
2,263920, Note_on_c, 0, 73, 0
2,263933, Control_c, 0, 64, 127
2,263948, Note_on_c, 0, 64, 0
2,264144, Control_c, 0, 64, 105
2,264149, Note_on_c, 0, 74, 71
2,264162, Note_on_c, 0, 66, 58
2,264166, Control_c, 0, 64, 85
2,264170, Note_on_c, 0, 47, 44
2,264185, Control_c, 0, 64, 73
2,264185, Note_on_c, 0, 40, 0
2,264200, Control_c, 0, 64, 65
2,264223, Control_c, 0, 64, 61
2,264240, Control_c, 0, 64, 59
2,264259, Control_c, 0, 64, 57
2,264276, Control_c, 0, 64, 55
2,264299, Control_c, 0, 64, 54
2,264335, Control_c, 0, 64, 57
2,264353, Control_c, 0, 64, 60
2,264372, Control_c, 0, 64, 64
2,264393, Control_c, 0, 64, 67
2,264410, Control_c, 0, 64, 73
2,264430, Control_c, 0, 64, 83
2,264448, Control_c, 0, 64, 105
2,264468, Control_c, 0, 64, 127
2,264543, Note_on_c, 0, 68, 72
2,264593, Note_on_c, 0, 74, 0
2,264600, Note_on_c, 0, 66, 0
2,264637, Note_on_c, 0, 68, 0
2,264894, Control_c, 0, 64, 92
2,264907, Note_on_c, 0, 75, 71
2,264911, Control_c, 0, 64, 78
2,264921, Note_on_c, 0, 47, 0
2,264921, Note_on_c, 0, 69, 56
2,264929, Control_c, 0, 64, 68
2,264934, Note_on_c, 0, 48, 54
2,264947, Control_c, 0, 64, 63
2,264968, Control_c, 0, 64, 60
2,264987, Control_c, 0, 64, 58
2,265004, Control_c, 0, 64, 59
2,265024, Control_c, 0, 64, 62
2,265044, Control_c, 0, 64, 65
2,265066, Control_c, 0, 64, 70
2,265085, Control_c, 0, 64, 81
2,265101, Control_c, 0, 64, 113
2,265121, Control_c, 0, 64, 127
2,265128, Note_on_c, 0, 75, 0
2,265177, Note_on_c, 0, 69, 0
2,265295, Control_c, 0, 64, 95
2,265297, Note_on_c, 0, 76, 70
2,265304, Note_on_c, 0, 68, 58
2,265313, Control_c, 0, 64, 81
2,265323, Note_on_c, 0, 49, 47
2,265332, Control_c, 0, 64, 71
2,265354, Control_c, 0, 64, 66
2,265368, Note_on_c, 0, 48, 0
2,265373, Control_c, 0, 64, 63
2,265390, Control_c, 0, 64, 61
2,265410, Control_c, 0, 64, 59
2,265427, Control_c, 0, 64, 57
2,265448, Control_c, 0, 64, 56
2,265503, Control_c, 0, 64, 57
2,265523, Control_c, 0, 64, 58
2,265620, Control_c, 0, 64, 59
2,265694, Note_on_c, 0, 73, 62
2,265697, Control_c, 0, 64, 60
2,266068, Note_on_c, 0, 68, 0
2,266073, Note_on_c, 0, 64, 54
2,266075, Note_on_c, 0, 49, 0
2,266086, Note_on_c, 0, 56, 45
2,266108, Note_on_c, 0, 73, 0
2,266467, Note_on_c, 0, 66, 51
2,266476, Note_on_c, 0, 57, 46
2,266491, Note_on_c, 0, 64, 0
2,266541, Note_on_c, 0, 56, 0
2,266545, Control_c, 0, 64, 61
2,266733, Control_c, 0, 64, 60
2,266851, Note_on_c, 0, 66, 0
2,266853, Note_on_c, 0, 69, 47
2,267202, Note_on_c, 0, 69, 0
2,267211, Note_on_c, 0, 68, 54
2,267229, Note_on_c, 0, 61, 34
2,267585, Note_on_c, 0, 75, 51
2,267587, Note_on_c, 0, 54, 41
2,267596, Note_on_c, 0, 69, 43
2,267605, Note_on_c, 0, 68, 0
2,267643, Note_on_c, 0, 57, 0
2,267669, Note_on_c, 0, 76, 0
2,267686, Note_on_c, 0, 61, 0
2,267692, Control_c, 0, 64, 59
2,267751, Control_c, 0, 64, 58
2,267793, Control_c, 0, 64, 57
2,267830, Control_c, 0, 64, 56
2,267848, Control_c, 0, 64, 57
2,267885, Control_c, 0, 64, 58
2,267904, Control_c, 0, 64, 59
2,267924, Control_c, 0, 64, 61
2,267945, Control_c, 0, 64, 62
2,267945, Note_on_c, 0, 68, 54
2,267962, Control_c, 0, 64, 64
2,267971, Note_on_c, 0, 69, 0
2,267982, Control_c, 0, 64, 66
2,268001, Control_c, 0, 64, 69
2,268019, Control_c, 0, 64, 74
2,268039, Control_c, 0, 64, 84
2,268057, Control_c, 0, 64, 97
2,268078, Control_c, 0, 64, 118
2,268097, Control_c, 0, 64, 127
2,268337, Note_on_c, 0, 68, 0
2,268348, Note_on_c, 0, 66, 49
2,268361, Note_on_c, 0, 54, 0
2,268361, Note_on_c, 0, 59, 35
2,268420, Note_on_c, 0, 66, 0
2,268598, Control_c, 0, 64, 122
2,268615, Control_c, 0, 64, 112
2,268636, Control_c, 0, 64, 105
2,268655, Control_c, 0, 64, 99
2,268672, Control_c, 0, 64, 92
2,268692, Control_c, 0, 64, 85
2,268712, Control_c, 0, 64, 79
2,268730, Control_c, 0, 64, 72
2,268746, Note_on_c, 0, 76, 57
2,268750, Control_c, 0, 64, 67
2,268757, Note_on_c, 0, 68, 48
2,268770, Note_on_c, 0, 59, 0
2,268772, Control_c, 0, 64, 65
2,268772, Note_on_c, 0, 52, 35
2,268789, Control_c, 0, 64, 63
2,268809, Control_c, 0, 64, 62
2,268827, Control_c, 0, 64, 60
2,268834, Note_on_c, 0, 75, 0
2,268845, Control_c, 0, 64, 58
2,268865, Control_c, 0, 64, 54
2,268883, Control_c, 0, 64, 52
2,268904, Control_c, 0, 64, 50
2,268921, Control_c, 0, 64, 51
2,268940, Control_c, 0, 64, 53
2,268962, Control_c, 0, 64, 57
2,268981, Control_c, 0, 64, 61
2,268999, Control_c, 0, 64, 63
2,269018, Control_c, 0, 64, 65
2,269037, Control_c, 0, 64, 68
2,269055, Control_c, 0, 64, 74
2,269076, Control_c, 0, 64, 82
2,269090, Note_on_c, 0, 68, 0
2,269099, Control_c, 0, 64, 94
2,269116, Control_c, 0, 64, 127
2,269143, Note_on_c, 0, 59, 45
2,269419, Note_on_c, 0, 52, 0
2,269527, Note_on_c, 0, 68, 59
2,269542, Note_on_c, 0, 64, 47
2,269556, Note_on_c, 0, 59, 0
2,269556, Note_on_c, 0, 76, 0
2,269634, Control_c, 0, 64, 108
2,269652, Control_c, 0, 64, 98
2,269671, Control_c, 0, 64, 90
2,269693, Control_c, 0, 64, 84
2,269713, Control_c, 0, 64, 79
2,269728, Control_c, 0, 64, 76
2,269747, Control_c, 0, 64, 73
2,269766, Control_c, 0, 64, 71
2,269788, Control_c, 0, 64, 70
2,269804, Control_c, 0, 64, 68
2,269825, Control_c, 0, 64, 67
2,269842, Control_c, 0, 64, 65
2,269862, Control_c, 0, 64, 64
2,269880, Control_c, 0, 64, 63
2,269899, Note_on_c, 0, 70, 58
2,269918, Note_on_c, 0, 67, 54
2,269959, Control_c, 0, 64, 62
2,269966, Note_on_c, 0, 68, 0
2,270018, Control_c, 0, 64, 61
2,270308, Note_on_c, 0, 63, 41
2,270431, Note_on_c, 0, 64, 0
2,270446, Note_on_c, 0, 63, 0
2,270492, Note_on_c, 0, 61, 38
2,270662, Note_on_c, 0, 66, 41
2,270662, Note_on_c, 0, 72, 62
2,270673, Note_on_c, 0, 67, 0
2,270693, Note_on_c, 0, 61, 0
2,270693, Note_on_c, 0, 63, 37
2,270774, Note_on_c, 0, 70, 0
2,270842, Control_c, 0, 64, 62
2,271039, Note_on_c, 0, 73, 62
2,271058, Note_on_c, 0, 65, 38
2,271058, Note_on_c, 0, 72, 0
2,271104, Note_on_c, 0, 66, 0
2,271430, Note_on_c, 0, 63, 0
2,271434, Note_on_c, 0, 56, 43
2,271553, Control_c, 0, 64, 63
2,271800, Note_on_c, 0, 69, 43
2,271807, Note_on_c, 0, 64, 47
2,271821, Note_on_c, 0, 61, 32
2,271841, Note_on_c, 0, 65, 0
2,271859, Control_c, 0, 64, 64
2,271871, Note_on_c, 0, 73, 0
2,271883, Note_on_c, 0, 56, 0
2,272211, Note_on_c, 0, 66, 50
2,272226, Note_on_c, 0, 63, 43
2,272266, Note_on_c, 0, 69, 0
2,272276, Note_on_c, 0, 64, 0
2,272589, Note_on_c, 0, 60, 40
2,272671, Note_on_c, 0, 61, 0
2,272746, Note_on_c, 0, 60, 0
2,272774, Note_on_c, 0, 58, 40
2,272968, Note_on_c, 0, 68, 53
2,272991, Note_on_c, 0, 60, 33
2,272995, Note_on_c, 0, 58, 0
2,273044, Note_on_c, 0, 66, 0
2,273054, Control_c, 0, 64, 63
2,273167, Control_c, 0, 64, 62
2,273203, Control_c, 0, 64, 61
2,273221, Control_c, 0, 64, 60
2,273242, Control_c, 0, 64, 59
2,273264, Control_c, 0, 64, 58
2,273318, Control_c, 0, 64, 60
2,273338, Control_c, 0, 64, 62
2,273359, Note_on_c, 0, 64, 48
2,273363, Control_c, 0, 64, 64
2,273368, Note_on_c, 0, 61, 40
2,273377, Control_c, 0, 64, 69
2,273396, Control_c, 0, 64, 79
2,273410, Note_on_c, 0, 63, 0
2,273419, Control_c, 0, 64, 108
2,273435, Control_c, 0, 64, 127
2,273439, Note_on_c, 0, 60, 0
2,273477, Note_on_c, 0, 61, 0
2,273607, Control_c, 0, 64, 107
2,273627, Control_c, 0, 64, 91
2,273645, Control_c, 0, 64, 80
2,273663, Control_c, 0, 64, 71
2,273683, Control_c, 0, 64, 65
2,273704, Control_c, 0, 64, 62
2,273762, Note_on_c, 0, 49, 46
2,273766, Control_c, 0, 64, 63
2,273766, Note_on_c, 0, 61, 45
2,273779, Control_c, 0, 64, 64
2,273799, Control_c, 0, 64, 65
2,273820, Control_c, 0, 64, 69
2,273838, Control_c, 0, 64, 77
2,273856, Control_c, 0, 64, 89
2,273876, Control_c, 0, 64, 115
2,273898, Control_c, 0, 64, 127
2,273904, Note_on_c, 0, 61, 0
2,274136, Note_on_c, 0, 49, 0
2,274163, Note_on_c, 0, 69, 57
2,274178, Note_on_c, 0, 61, 42
2,274201, Control_c, 0, 64, 104
2,274222, Control_c, 0, 64, 91
2,274240, Note_on_c, 0, 68, 0
2,274243, Control_c, 0, 64, 81
2,274259, Control_c, 0, 64, 77
2,274290, Note_on_c, 0, 64, 0
2,274299, Control_c, 0, 64, 78
2,274357, Control_c, 0, 64, 77
2,274375, Control_c, 0, 64, 76
2,274397, Control_c, 0, 64, 75
2,274412, Control_c, 0, 64, 76
2,274450, Control_c, 0, 64, 75
2,274490, Control_c, 0, 64, 74
2,274510, Control_c, 0, 64, 73
2,274528, Control_c, 0, 64, 72
2,274545, Note_on_c, 0, 60, 45
2,274566, Control_c, 0, 64, 71
2,274586, Control_c, 0, 64, 70
2,274604, Control_c, 0, 64, 69
2,274625, Control_c, 0, 64, 68
2,274658, Note_on_c, 0, 61, 0
2,274666, Control_c, 0, 64, 67
2,274758, Control_c, 0, 64, 66
2,274799, Control_c, 0, 64, 65
2,274874, Control_c, 0, 64, 64
2,274942, Note_on_c, 0, 68, 50
2,274970, Control_c, 0, 64, 63
2,275070, Note_on_c, 0, 69, 0
2,275104, Control_c, 0, 64, 62
2,275108, Note_on_c, 0, 66, 55
2,275114, Note_on_c, 0, 68, 0
2,275221, Control_c, 0, 64, 61
2,275298, Control_c, 0, 64, 60
2,275308, Note_on_c, 0, 68, 55
2,275313, Note_on_c, 0, 59, 36
2,275386, Note_on_c, 0, 60, 0
2,275429, Note_on_c, 0, 66, 0
2,275663, Control_c, 0, 64, 59
2,275713, Note_on_c, 0, 58, 46
2,275751, Note_on_c, 0, 59, 0
2,275758, Control_c, 0, 64, 60
2,276086, Note_on_c, 0, 61, 46
2,276488, Note_on_c, 0, 57, 37
2,276488, Note_on_c, 0, 66, 52
2,276492, Note_on_c, 0, 58, 0
2,276621, Note_on_c, 0, 68, 0
2,276746, Note_on_c, 0, 61, 0
2,276878, Note_on_c, 0, 56, 47
2,277012, Note_on_c, 0, 57, 0
2,277268, Note_on_c, 0, 65, 47
2,277315, Control_c, 0, 64, 61
2,277393, Note_on_c, 0, 66, 0
2,277408, Note_on_c, 0, 65, 0
2,277435, Note_on_c, 0, 63, 49
2,277633, Note_on_c, 0, 71, 56
2,277635, Note_on_c, 0, 65, 42
2,277640, Note_on_c, 0, 56, 0
2,277642, Note_on_c, 0, 61, 40
2,277685, Note_on_c, 0, 63, 0
2,277698, Control_c, 0, 64, 62
2,277715, Control_c, 0, 64, 64
2,277732, Control_c, 0, 64, 66
2,277754, Control_c, 0, 64, 69
2,277773, Control_c, 0, 64, 75
2,277782, Note_on_c, 0, 65, 0
2,277793, Control_c, 0, 64, 85
2,277811, Control_c, 0, 64, 106
2,277833, Control_c, 0, 64, 127
2,277985, Control_c, 0, 64, 102
2,278004, Control_c, 0, 64, 91
2,278023, Control_c, 0, 64, 82
2,278042, Control_c, 0, 64, 77
2,278052, Note_on_c, 0, 54, 41
2,278057, Note_on_c, 0, 66, 62
2,278061, Control_c, 0, 64, 73
2,278081, Control_c, 0, 64, 71
2,278099, Control_c, 0, 64, 68
2,278117, Control_c, 0, 64, 67
2,278128, Note_on_c, 0, 61, 0
2,278128, Note_on_c, 0, 71, 0
2,278139, Control_c, 0, 64, 65
2,278157, Control_c, 0, 64, 64
2,278195, Control_c, 0, 64, 63
2,278234, Control_c, 0, 64, 62
2,278348, Control_c, 0, 64, 61
2,278445, Note_on_c, 0, 70, 64
2,278455, Note_on_c, 0, 52, 46
2,278508, Note_on_c, 0, 54, 0
2,278826, Note_on_c, 0, 72, 73
2,278842, Note_on_c, 0, 51, 49
2,278885, Note_on_c, 0, 52, 0
2,279032, Note_on_c, 0, 70, 0
2,279211, Note_on_c, 0, 51, 0
2,279218, Note_on_c, 0, 73, 82
2,279229, Note_on_c, 0, 49, 48
2,279236, Control_c, 0, 64, 62
2,279272, Note_on_c, 0, 72, 0
2,279334, Note_on_c, 0, 66, 0
2,279603, Note_on_c, 0, 47, 47
2,279621, Note_on_c, 0, 65, 62
2,279668, Note_on_c, 0, 49, 0
2,279991, Note_on_c, 0, 46, 56
2,279991, Note_on_c, 0, 67, 64
2,280014, Note_on_c, 0, 47, 0
2,280054, Note_on_c, 0, 65, 0
2,280097, Control_c, 0, 64, 63
2,280382, Note_on_c, 0, 44, 61
2,280392, Note_on_c, 0, 68, 62
2,280401, Note_on_c, 0, 67, 0
2,280432, Note_on_c, 0, 73, 0
2,280531, Note_on_c, 0, 46, 0
2,280757, Note_on_c, 0, 72, 66
2,280761, Note_on_c, 0, 56, 63
2,280779, Note_on_c, 0, 44, 0
2,280998, Control_c, 0, 64, 62
2,281144, Note_on_c, 0, 58, 62
2,281146, Note_on_c, 0, 74, 78
2,281179, Note_on_c, 0, 56, 0
2,281350, Note_on_c, 0, 72, 0
2,281557, Note_on_c, 0, 59, 60
2,281557, Note_on_c, 0, 75, 77
2,281625, Note_on_c, 0, 58, 0
2,281650, Note_on_c, 0, 68, 0
2,281669, Note_on_c, 0, 74, 0
2,281927, Note_on_c, 0, 61, 55
2,281934, Note_on_c, 0, 67, 58
2,281963, Note_on_c, 0, 59, 0
2,282114, Control_c, 0, 64, 61
2,282169, Control_c, 0, 64, 60
2,282189, Control_c, 0, 64, 59
2,282209, Control_c, 0, 64, 58
2,282247, Control_c, 0, 64, 57
2,282265, Control_c, 0, 64, 58
2,282305, Control_c, 0, 64, 60
2,282313, Note_on_c, 0, 69, 62
2,282318, Note_on_c, 0, 59, 58
2,282326, Control_c, 0, 64, 62
2,282342, Control_c, 0, 64, 64
2,282359, Note_on_c, 0, 61, 0
2,282363, Control_c, 0, 64, 67
2,282381, Control_c, 0, 64, 71
2,282381, Note_on_c, 0, 67, 0
2,282398, Control_c, 0, 64, 79
2,282419, Control_c, 0, 64, 94
2,282441, Control_c, 0, 64, 127
2,282556, Control_c, 0, 64, 111
2,282573, Control_c, 0, 64, 93
2,282591, Control_c, 0, 64, 81
2,282611, Control_c, 0, 64, 73
2,282633, Control_c, 0, 64, 67
2,282651, Control_c, 0, 64, 66
2,282669, Control_c, 0, 64, 65
2,282689, Control_c, 0, 64, 64
2,282693, Note_on_c, 0, 59, 0
2,282697, Note_on_c, 0, 58, 56
2,282710, Control_c, 0, 64, 63
2,282710, Note_on_c, 0, 69, 0
2,282714, Note_on_c, 0, 75, 0
2,282715, Note_on_c, 0, 70, 68
2,282727, Control_c, 0, 64, 61
2,283104, Note_on_c, 0, 46, 48
2,283109, Note_on_c, 0, 74, 63
2,283177, Note_on_c, 0, 58, 0
2,283473, Note_on_c, 0, 75, 71
2,283485, Note_on_c, 0, 48, 43
2,283609, Control_c, 0, 64, 60
2,283651, Note_on_c, 0, 46, 0
2,283670, Note_on_c, 0, 74, 0
2,283821, Control_c, 0, 64, 59
2,283830, Note_on_c, 0, 48, 0
2,283847, Note_on_c, 0, 77, 79
2,283853, Note_on_c, 0, 50, 46
2,283936, Control_c, 0, 64, 60
2,283992, Control_c, 0, 64, 61
2,284017, Note_on_c, 0, 75, 0
2,284032, Control_c, 0, 64, 62
2,284051, Control_c, 0, 64, 63
2,284069, Control_c, 0, 64, 64
2,284090, Control_c, 0, 64, 66
2,284095, Note_on_c, 0, 70, 0
2,284108, Control_c, 0, 64, 68
2,284129, Control_c, 0, 64, 70
2,284146, Control_c, 0, 64, 73
2,284166, Control_c, 0, 64, 77
2,284187, Control_c, 0, 64, 80
2,284205, Control_c, 0, 64, 83
2,284214, Note_on_c, 0, 50, 0
2,284223, Control_c, 0, 64, 86
2,284243, Control_c, 0, 64, 89
2,284255, Note_on_c, 0, 48, 36
2,284262, Control_c, 0, 64, 95
2,284282, Control_c, 0, 64, 104
2,284301, Control_c, 0, 64, 116
2,284323, Control_c, 0, 64, 127
2,284624, Note_on_c, 0, 68, 53
2,284631, Note_on_c, 0, 50, 46
2,284682, Note_on_c, 0, 48, 0
2,284719, Note_on_c, 0, 50, 0
2,284722, Note_on_c, 0, 68, 0
2,284972, Control_c, 0, 64, 113
2,284992, Control_c, 0, 64, 96
2,285006, Note_on_c, 0, 66, 55
2,285010, Control_c, 0, 64, 86
2,285018, Note_on_c, 0, 51, 49
2,285030, Control_c, 0, 64, 78
2,285048, Control_c, 0, 64, 72
2,285069, Control_c, 0, 64, 68
2,285087, Control_c, 0, 64, 65
2,285107, Control_c, 0, 64, 63
2,285145, Control_c, 0, 64, 62
2,285184, Control_c, 0, 64, 61
2,285204, Control_c, 0, 64, 59
2,285396, Note_on_c, 0, 56, 38
2,285412, Note_on_c, 0, 75, 56
2,285518, Note_on_c, 0, 77, 0
2,285522, Note_on_c, 0, 51, 0
2,285571, Note_on_c, 0, 74, 66
2,285583, Note_on_c, 0, 75, 0
2,285645, Control_c, 0, 64, 60
2,285780, Note_on_c, 0, 54, 50
2,285785, Note_on_c, 0, 75, 60
2,285828, Note_on_c, 0, 56, 0
2,285837, Note_on_c, 0, 74, 0
2,286160, Note_on_c, 0, 53, 52
2,286200, Note_on_c, 0, 54, 0
2,286547, Note_on_c, 0, 58, 51
2,286564, Note_on_c, 0, 73, 61
2,286624, Note_on_c, 0, 53, 0
2,286711, Note_on_c, 0, 75, 0
2,286721, Note_on_c, 0, 71, 68
2,286742, Note_on_c, 0, 73, 0
2,286929, Note_on_c, 0, 73, 67
2,286940, Note_on_c, 0, 70, 50
2,286945, Note_on_c, 0, 56, 54
2,286979, Note_on_c, 0, 71, 0
2,287010, Note_on_c, 0, 58, 0
2,287103, Note_on_c, 0, 66, 0
2,287321, Note_on_c, 0, 63, 63
2,287328, Note_on_c, 0, 55, 55
2,287362, Note_on_c, 0, 56, 0
2,287721, Note_on_c, 0, 51, 48
2,287724, Note_on_c, 0, 75, 60
2,287770, Note_on_c, 0, 73, 0
2,287795, Note_on_c, 0, 55, 0
2,288003, Control_c, 0, 64, 59
2,288082, Control_c, 0, 64, 58
2,288107, Note_on_c, 0, 55, 41
2,288116, Note_on_c, 0, 73, 58
2,288118, Control_c, 0, 64, 57
2,288176, Note_on_c, 0, 75, 0
2,288253, Control_c, 0, 64, 58
2,288292, Control_c, 0, 64, 59
2,288310, Control_c, 0, 64, 60
2,288349, Control_c, 0, 64, 61
2,288368, Control_c, 0, 64, 62
2,288387, Control_c, 0, 64, 63
2,288407, Control_c, 0, 64, 65
2,288424, Control_c, 0, 64, 69
2,288445, Control_c, 0, 64, 74
2,288463, Control_c, 0, 64, 79
2,288484, Control_c, 0, 64, 85
2,288501, Note_on_c, 0, 56, 50
2,288503, Control_c, 0, 64, 89
2,288508, Note_on_c, 0, 71, 61
2,288518, Note_on_c, 0, 63, 0
2,288522, Control_c, 0, 64, 92
2,288542, Control_c, 0, 64, 95
2,288550, Note_on_c, 0, 51, 0
2,288555, Note_on_c, 0, 73, 0
2,288561, Control_c, 0, 64, 98
2,288568, Note_on_c, 0, 55, 0
2,288578, Control_c, 0, 64, 100
2,288619, Control_c, 0, 64, 97
2,288636, Control_c, 0, 64, 94
2,288649, Note_on_c, 0, 70, 0
2,288658, Control_c, 0, 64, 88
2,288677, Control_c, 0, 64, 81
2,288694, Control_c, 0, 64, 73
2,288714, Control_c, 0, 64, 68
2,288733, Control_c, 0, 64, 65
2,288771, Control_c, 0, 64, 64
2,288810, Control_c, 0, 64, 63
2,288850, Control_c, 0, 64, 62
2,288868, Control_c, 0, 64, 61
2,288893, Note_on_c, 0, 61, 47
2,288897, Note_on_c, 0, 76, 66
2,288926, Control_c, 0, 64, 60
2,288950, Note_on_c, 0, 71, 0
2,288962, Control_c, 0, 64, 59
2,288983, Control_c, 0, 64, 58
2,289077, Control_c, 0, 64, 57
2,289156, Control_c, 0, 64, 56
2,289291, Control_c, 0, 64, 55
2,289291, Note_on_c, 0, 75, 60
2,289301, Note_on_c, 0, 59, 52
2,289330, Control_c, 0, 64, 56
2,289364, Note_on_c, 0, 61, 0
2,289405, Note_on_c, 0, 76, 0
2,289597, Control_c, 0, 64, 55
2,289695, Note_on_c, 0, 59, 0
2,289700, Note_on_c, 0, 58, 54
2,289707, Note_on_c, 0, 73, 58
2,289730, Control_c, 0, 64, 54
2,289742, Note_on_c, 0, 75, 0
2,289903, Control_c, 0, 64, 55
2,290001, Control_c, 0, 64, 56
2,290059, Control_c, 0, 64, 57
2,290077, Control_c, 0, 64, 58
2,290086, Note_on_c, 0, 59, 55
2,290090, Note_on_c, 0, 75, 60
2,290095, Control_c, 0, 64, 59
2,290123, Note_on_c, 0, 58, 0
2,290138, Note_on_c, 0, 73, 0
2,290249, Control_c, 0, 64, 58
2,290267, Control_c, 0, 64, 57
2,290288, Control_c, 0, 64, 55
2,290308, Control_c, 0, 64, 54
2,290324, Control_c, 0, 64, 52
2,290346, Control_c, 0, 64, 49
2,290366, Control_c, 0, 64, 46
2,290424, Control_c, 0, 64, 47
2,290442, Control_c, 0, 64, 51
2,290461, Control_c, 0, 64, 56
2,290472, Note_on_c, 0, 61, 55
2,290477, Note_on_c, 0, 76, 64
2,290481, Control_c, 0, 64, 60
2,290500, Control_c, 0, 64, 61
2,290511, Note_on_c, 0, 56, 0
2,290511, Note_on_c, 0, 75, 0
2,290519, Control_c, 0, 64, 63
2,290537, Control_c, 0, 64, 64
2,290557, Control_c, 0, 64, 66
2,290576, Control_c, 0, 64, 70
2,290596, Control_c, 0, 64, 77
2,290614, Control_c, 0, 64, 90
2,290625, Note_on_c, 0, 61, 0
2,290634, Control_c, 0, 64, 113
2,290652, Control_c, 0, 64, 127
2,290809, Control_c, 0, 64, 113
2,290828, Control_c, 0, 64, 101
2,290848, Control_c, 0, 64, 92
2,290867, Control_c, 0, 64, 84
2,290885, Note_on_c, 0, 63, 62
2,290885, Note_on_c, 0, 70, 58
2,290887, Control_c, 0, 64, 76
2,290908, Control_c, 0, 64, 70
2,290908, Note_on_c, 0, 55, 53
2,290924, Control_c, 0, 64, 67
2,290943, Control_c, 0, 64, 65
2,290964, Control_c, 0, 64, 64
2,290981, Control_c, 0, 64, 63
2,291000, Control_c, 0, 64, 61
2,291022, Control_c, 0, 64, 58
2,291032, Note_on_c, 0, 59, 0
2,291041, Control_c, 0, 64, 55
2,291058, Control_c, 0, 64, 53
2,291079, Control_c, 0, 64, 51
2,291098, Control_c, 0, 64, 48
2,291116, Control_c, 0, 64, 44
2,291136, Control_c, 0, 64, 38
2,291156, Control_c, 0, 64, 26
2,291176, Control_c, 0, 64, 0
2,291277, Note_on_c, 0, 75, 67
2,291291, Control_c, 0, 64, 17
2,291311, Control_c, 0, 64, 39
2,291328, Control_c, 0, 64, 52
2,291346, Control_c, 0, 64, 61
2,291367, Control_c, 0, 64, 64
2,291380, Note_on_c, 0, 70, 0
2,291387, Control_c, 0, 64, 66
2,291403, Control_c, 0, 64, 68
2,291423, Control_c, 0, 64, 69
2,291446, Control_c, 0, 64, 72
2,291463, Control_c, 0, 64, 74
2,291483, Control_c, 0, 64, 76
2,291500, Control_c, 0, 64, 78
2,291517, Note_on_c, 0, 76, 0
2,291558, Control_c, 0, 64, 77
2,291576, Control_c, 0, 64, 76
2,291597, Control_c, 0, 64, 74
2,291616, Control_c, 0, 64, 72
2,291635, Control_c, 0, 64, 69
2,291653, Control_c, 0, 64, 65
2,291677, Control_c, 0, 64, 62
2,291681, Note_on_c, 0, 51, 53
2,291681, Note_on_c, 0, 73, 59
2,291692, Control_c, 0, 64, 60
2,291714, Control_c, 0, 64, 59
2,291731, Control_c, 0, 64, 58
2,291750, Control_c, 0, 64, 56
2,291769, Control_c, 0, 64, 52
2,291790, Control_c, 0, 64, 45
2,291794, Note_on_c, 0, 75, 0
2,291808, Control_c, 0, 64, 37
2,291828, Control_c, 0, 64, 33
2,291852, Note_on_c, 0, 63, 0
2,291865, Control_c, 0, 64, 32
2,291885, Control_c, 0, 64, 28
2,291903, Control_c, 0, 64, 22
2,291921, Control_c, 0, 64, 15
2,291944, Control_c, 0, 64, 14
2,291962, Control_c, 0, 64, 16
2,291981, Control_c, 0, 64, 25
2,291998, Control_c, 0, 64, 30
2,292039, Control_c, 0, 64, 32
2,292056, Control_c, 0, 64, 37
2,292068, Note_on_c, 0, 56, 54
2,292078, Control_c, 0, 64, 47
2,292083, Note_on_c, 0, 71, 66
2,292097, Control_c, 0, 64, 56
2,292108, Note_on_c, 0, 73, 0
2,292117, Control_c, 0, 64, 61
2,292135, Control_c, 0, 64, 62
2,292164, Note_on_c, 0, 51, 0
2,292171, Note_on_c, 0, 55, 0
2,292193, Control_c, 0, 64, 63
2,292210, Control_c, 0, 64, 64
2,292230, Control_c, 0, 64, 65
2,292250, Control_c, 0, 64, 68
2,292269, Control_c, 0, 64, 74
2,292289, Control_c, 0, 64, 85
2,292306, Control_c, 0, 64, 127
2,292344, Note_on_c, 0, 71, 0
2,292461, Note_on_c, 0, 58, 64
2,292514, Note_on_c, 0, 58, 0
2,292525, Note_on_c, 0, 56, 0
2,292886, Note_on_c, 0, 59, 61
2,292893, Note_on_c, 0, 44, 50
2,292941, Control_c, 0, 64, 110
2,292961, Control_c, 0, 64, 93
2,292981, Control_c, 0, 64, 87
2,292997, Control_c, 0, 64, 85
2,293018, Control_c, 0, 64, 83
2,293036, Control_c, 0, 64, 78
2,293057, Control_c, 0, 64, 72
2,293074, Control_c, 0, 64, 68
2,293094, Control_c, 0, 64, 67
2,293133, Control_c, 0, 64, 66
2,293190, Control_c, 0, 64, 65
2,293285, Control_c, 0, 64, 64
2,293290, Note_on_c, 0, 58, 62
2,293299, Note_on_c, 0, 43, 44
2,293342, Control_c, 0, 64, 63
2,293359, Note_on_c, 0, 44, 0
2,293364, Control_c, 0, 64, 62
2,293381, Control_c, 0, 64, 61
2,293402, Control_c, 0, 64, 60
2,293406, Note_on_c, 0, 59, 0
2,293439, Control_c, 0, 64, 59
2,293459, Control_c, 0, 64, 58
2,293575, Control_c, 0, 64, 57
2,293674, Note_on_c, 0, 63, 61
2,293746, Control_c, 0, 64, 56
2,293785, Control_c, 0, 64, 57
2,293825, Control_c, 0, 64, 56
2,293939, Control_c, 0, 64, 57
2,294081, Note_on_c, 0, 51, 52
2,294084, Note_on_c, 0, 42, 38
2,294107, Note_on_c, 0, 43, 0
2,294142, Note_on_c, 0, 58, 0
2,294343, Control_c, 0, 64, 56
2,294468, Note_on_c, 0, 56, 56
2,294472, Note_on_c, 0, 41, 35
2,294524, Note_on_c, 0, 42, 0
2,294534, Control_c, 0, 64, 55
2,294591, Control_c, 0, 64, 54
2,294611, Control_c, 0, 64, 53
2,294650, Control_c, 0, 64, 51
2,294668, Control_c, 0, 64, 50
2,294689, Control_c, 0, 64, 49
2,294708, Control_c, 0, 64, 47
2,294727, Control_c, 0, 64, 46
2,294744, Control_c, 0, 64, 45
2,294790, Note_on_c, 0, 63, 0
2,294830, Note_on_c, 0, 51, 0
2,294841, Control_c, 0, 64, 48
2,294848, Note_on_c, 0, 59, 61
2,294861, Control_c, 0, 64, 52
2,294880, Control_c, 0, 64, 58
2,294898, Control_c, 0, 64, 61
2,294920, Control_c, 0, 64, 63
2,294937, Control_c, 0, 64, 65
2,294951, Note_on_c, 0, 56, 0
2,294960, Control_c, 0, 64, 68
2,294974, Control_c, 0, 64, 72
2,294994, Control_c, 0, 64, 78
2,295014, Control_c, 0, 64, 85
2,295036, Control_c, 0, 64, 87
2,295150, Control_c, 0, 64, 86
2,295169, Control_c, 0, 64, 85
2,295186, Control_c, 0, 64, 81
2,295205, Control_c, 0, 64, 76
2,295227, Control_c, 0, 64, 70
2,295247, Control_c, 0, 64, 65
2,295251, Note_on_c, 0, 58, 50
2,295251, Note_on_c, 0, 61, 56
2,295257, Note_on_c, 0, 40, 40
2,295261, Note_on_c, 0, 59, 0
2,295264, Control_c, 0, 64, 61
2,295283, Control_c, 0, 64, 59
2,295301, Control_c, 0, 64, 60
2,295311, Note_on_c, 0, 41, 0
2,295321, Control_c, 0, 64, 62
2,295340, Control_c, 0, 64, 64
2,295360, Control_c, 0, 64, 68
2,295378, Control_c, 0, 64, 74
2,295399, Control_c, 0, 64, 81
2,295416, Control_c, 0, 64, 86
2,295438, Control_c, 0, 64, 87
2,295477, Control_c, 0, 64, 86
2,295513, Control_c, 0, 64, 85
2,295552, Control_c, 0, 64, 83
2,295572, Control_c, 0, 64, 81
2,295591, Control_c, 0, 64, 77
2,295609, Control_c, 0, 64, 73
2,295623, Note_on_c, 0, 39, 50
2,295630, Control_c, 0, 64, 69
2,295649, Control_c, 0, 64, 66
2,295657, Note_on_c, 0, 59, 56
2,295657, Note_on_c, 0, 66, 56
2,295668, Control_c, 0, 64, 64
2,295678, Note_on_c, 0, 58, 0
2,295689, Control_c, 0, 64, 63
2,295689, Note_on_c, 0, 61, 0
2,295705, Control_c, 0, 64, 62
2,295726, Control_c, 0, 64, 60
2,295726, Note_on_c, 0, 40, 0
2,295744, Control_c, 0, 64, 58
2,295763, Control_c, 0, 64, 56
2,295780, Control_c, 0, 64, 54
2,295801, Control_c, 0, 64, 52
2,295840, Control_c, 0, 64, 54
2,295859, Control_c, 0, 64, 58
2,295879, Control_c, 0, 64, 61
2,295898, Control_c, 0, 64, 63
2,295916, Control_c, 0, 64, 65
2,295935, Control_c, 0, 64, 68
2,295955, Control_c, 0, 64, 73
2,295973, Control_c, 0, 64, 82
2,295993, Control_c, 0, 64, 106
2,296015, Control_c, 0, 64, 127
2,296049, Note_on_c, 0, 58, 68
2,296093, Note_on_c, 0, 66, 0
2,296109, Note_on_c, 0, 59, 0
2,296380, Control_c, 0, 64, 100
2,296397, Control_c, 0, 64, 80
2,296411, Note_on_c, 0, 68, 61
2,296416, Control_c, 0, 64, 70
2,296416, Note_on_c, 0, 56, 56
2,296438, Control_c, 0, 64, 64
2,296438, Note_on_c, 0, 39, 0
2,296443, Note_on_c, 0, 41, 48
2,296455, Control_c, 0, 64, 61
2,296469, Note_on_c, 0, 58, 0
2,296473, Control_c, 0, 64, 60
2,296512, Control_c, 0, 64, 61
2,296532, Control_c, 0, 64, 62
2,296550, Control_c, 0, 64, 65
2,296568, Control_c, 0, 64, 68
2,296589, Control_c, 0, 64, 73
2,296608, Control_c, 0, 64, 81
2,296628, Control_c, 0, 64, 89
2,296646, Control_c, 0, 64, 93
2,296683, Control_c, 0, 64, 91
2,296703, Control_c, 0, 64, 89
2,296722, Control_c, 0, 64, 86
2,296742, Control_c, 0, 64, 84
2,296762, Control_c, 0, 64, 81
2,296784, Control_c, 0, 64, 77
2,296798, Control_c, 0, 64, 73
2,296820, Control_c, 0, 64, 68
2,296837, Control_c, 0, 64, 64
2,296842, Note_on_c, 0, 58, 57
2,296846, Note_on_c, 0, 42, 51
2,296860, Control_c, 0, 64, 62
2,296877, Control_c, 0, 64, 61
2,296889, Note_on_c, 0, 68, 0
2,296898, Control_c, 0, 64, 60
2,296915, Control_c, 0, 64, 61
2,296937, Control_c, 0, 64, 62
2,296953, Control_c, 0, 64, 64
2,296964, Note_on_c, 0, 41, 0
2,296973, Control_c, 0, 64, 69
2,296973, Note_on_c, 0, 56, 0
2,296992, Control_c, 0, 64, 76
2,297013, Control_c, 0, 64, 87
2,297029, Control_c, 0, 64, 112
2,297050, Control_c, 0, 64, 127
2,297183, Control_c, 0, 64, 109
2,297204, Control_c, 0, 64, 92
2,297216, Note_on_c, 0, 66, 67
2,297222, Control_c, 0, 64, 78
2,297236, Note_on_c, 0, 59, 61
2,297241, Control_c, 0, 64, 69
2,297260, Control_c, 0, 64, 64
2,297264, Note_on_c, 0, 58, 0
2,297281, Control_c, 0, 64, 60
2,297319, Control_c, 0, 64, 61
2,297340, Control_c, 0, 64, 63
2,297357, Control_c, 0, 64, 67
2,297377, Control_c, 0, 64, 73
2,297395, Control_c, 0, 64, 85
2,297414, Control_c, 0, 64, 106
2,297433, Control_c, 0, 64, 127
2,297565, Note_on_c, 0, 66, 0
2,297587, Control_c, 0, 64, 110
2,297609, Control_c, 0, 64, 87
2,297609, Note_on_c, 0, 64, 66
2,297618, Note_on_c, 0, 43, 57
2,297622, Note_on_c, 0, 42, 0
2,297622, Note_on_c, 0, 61, 57
2,297627, Control_c, 0, 64, 72
2,297644, Control_c, 0, 64, 62
2,297668, Control_c, 0, 64, 56
2,297668, Note_on_c, 0, 59, 0
2,297682, Control_c, 0, 64, 55
2,297702, Control_c, 0, 64, 57
2,297720, Control_c, 0, 64, 60
2,297739, Control_c, 0, 64, 65
2,297760, Note_on_c, 0, 64, 0
2,297762, Control_c, 0, 64, 72
2,297779, Control_c, 0, 64, 96
2,297802, Control_c, 0, 64, 127
2,297802, Note_on_c, 0, 61, 0
2,297990, Control_c, 0, 64, 109
2,298012, Control_c, 0, 64, 86
2,298019, Note_on_c, 0, 63, 64
2,298026, Note_on_c, 0, 43, 0
2,298029, Control_c, 0, 64, 73
2,298033, Note_on_c, 0, 59, 60
2,298045, Note_on_c, 0, 44, 54
2,298050, Control_c, 0, 64, 64
2,298067, Control_c, 0, 64, 60
2,298086, Control_c, 0, 64, 57
2,298109, Control_c, 0, 64, 55
2,298123, Control_c, 0, 64, 53
2,298143, Control_c, 0, 64, 54
2,298162, Control_c, 0, 64, 57
2,298183, Control_c, 0, 64, 63
2,298202, Control_c, 0, 64, 67
2,298221, Control_c, 0, 64, 76
2,298238, Control_c, 0, 64, 95
2,298259, Control_c, 0, 64, 127
2,298273, Note_on_c, 0, 63, 0
2,298419, Note_on_c, 0, 68, 68
2,298431, Note_on_c, 0, 64, 64
2,298451, Control_c, 0, 64, 118
2,298469, Control_c, 0, 64, 91
2,298490, Control_c, 0, 64, 79
2,298511, Control_c, 0, 64, 71
2,298528, Control_c, 0, 64, 66
2,298547, Control_c, 0, 64, 64
2,298585, Control_c, 0, 64, 63
2,298626, Control_c, 0, 64, 62
2,298722, Control_c, 0, 64, 61
2,298742, Control_c, 0, 64, 59
2,298759, Control_c, 0, 64, 56
2,298778, Control_c, 0, 64, 51
2,298798, Control_c, 0, 64, 45
2,298812, Note_on_c, 0, 56, 61
2,298812, Note_on_c, 0, 71, 58
2,298817, Control_c, 0, 64, 40
2,298837, Control_c, 0, 64, 39
2,298857, Control_c, 0, 64, 40
2,298873, Control_c, 0, 64, 47
2,298881, Note_on_c, 0, 59, 0
2,298881, Note_on_c, 0, 68, 0
2,298892, Control_c, 0, 64, 55
2,298905, Note_on_c, 0, 71, 0
2,298911, Control_c, 0, 64, 62
2,298911, Note_on_c, 0, 64, 0
2,298929, Control_c, 0, 64, 66
2,298949, Control_c, 0, 64, 72
2,298969, Control_c, 0, 64, 82
2,298987, Control_c, 0, 64, 93
2,299007, Control_c, 0, 64, 102
2,299026, Control_c, 0, 64, 103
2,299105, Control_c, 0, 64, 102
2,299124, Control_c, 0, 64, 99
2,299143, Control_c, 0, 64, 94
2,299161, Control_c, 0, 64, 85
2,299182, Control_c, 0, 64, 77
2,299198, Control_c, 0, 64, 71
2,299207, Note_on_c, 0, 65, 56
2,299211, Note_on_c, 0, 58, 59
2,299220, Control_c, 0, 64, 67
2,299239, Control_c, 0, 64, 64
2,299259, Control_c, 0, 64, 61
2,299279, Control_c, 0, 64, 59
2,299294, Control_c, 0, 64, 56
2,299314, Control_c, 0, 64, 53
2,299333, Control_c, 0, 64, 50
2,299352, Control_c, 0, 64, 48
2,299371, Control_c, 0, 64, 47
2,299393, Control_c, 0, 64, 49
2,299410, Control_c, 0, 64, 55
2,299430, Control_c, 0, 64, 60
2,299448, Control_c, 0, 64, 62
2,299467, Control_c, 0, 64, 63
2,299488, Control_c, 0, 64, 64
2,299526, Control_c, 0, 64, 66
2,299546, Control_c, 0, 64, 68
2,299566, Control_c, 0, 64, 74
2,299587, Control_c, 0, 64, 81
2,299587, Note_on_c, 0, 56, 0
2,299589, Note_on_c, 0, 61, 57
2,299605, Control_c, 0, 64, 86
2,299622, Control_c, 0, 64, 88
2,299640, Control_c, 0, 64, 87
2,299662, Control_c, 0, 64, 85
2,299667, Note_on_c, 0, 58, 0
2,299680, Control_c, 0, 64, 81
2,299701, Control_c, 0, 64, 78
2,299755, Control_c, 0, 64, 77
2,299793, Control_c, 0, 64, 75
2,299832, Control_c, 0, 64, 74
2,299889, Control_c, 0, 64, 75
2,299930, Control_c, 0, 64, 74
2,299978, Note_on_c, 0, 59, 56
2,299997, Note_on_c, 0, 61, 0
2,300159, Control_c, 0, 64, 73
2,300198, Control_c, 0, 64, 72
2,300293, Control_c, 0, 64, 71
2,300311, Control_c, 0, 64, 69
2,300331, Control_c, 0, 64, 67
2,300352, Control_c, 0, 64, 66
2,300373, Control_c, 0, 64, 65
2,300377, Note_on_c, 0, 61, 54
2,300385, Note_on_c, 0, 59, 0
2,300385, Note_on_c, 0, 70, 55
2,300390, Control_c, 0, 64, 63
2,300395, Note_on_c, 0, 43, 41
2,300411, Control_c, 0, 64, 62
2,300427, Control_c, 0, 64, 60
2,300447, Control_c, 0, 64, 57
2,300469, Control_c, 0, 64, 54
2,300478, Note_on_c, 0, 44, 0
2,300486, Control_c, 0, 64, 50
2,300503, Control_c, 0, 64, 47
2,300510, Note_on_c, 0, 65, 0
2,300524, Control_c, 0, 64, 46
2,300562, Control_c, 0, 64, 47
2,300580, Control_c, 0, 64, 49
2,300602, Control_c, 0, 64, 52
2,300620, Control_c, 0, 64, 57
2,300639, Control_c, 0, 64, 61
2,300659, Control_c, 0, 64, 64
2,300677, Control_c, 0, 64, 66
2,300698, Control_c, 0, 64, 67
2,300717, Control_c, 0, 64, 69
2,300733, Control_c, 0, 64, 71
2,300754, Control_c, 0, 64, 74
2,300765, Note_on_c, 0, 51, 47
2,300779, Control_c, 0, 64, 77
2,300779, Note_on_c, 0, 59, 54
2,300779, Note_on_c, 0, 61, 0
2,300787, Note_on_c, 0, 70, 0
2,300794, Control_c, 0, 64, 80
2,300812, Control_c, 0, 64, 81
2,300947, Control_c, 0, 64, 80
2,300965, Control_c, 0, 64, 79
2,301043, Control_c, 0, 64, 78
2,301062, Control_c, 0, 64, 77
2,301081, Control_c, 0, 64, 76
2,301100, Control_c, 0, 64, 74
2,301130, Note_on_c, 0, 58, 49
2,301140, Control_c, 0, 64, 73
2,301144, Note_on_c, 0, 49, 47
2,301188, Note_on_c, 0, 51, 0
2,301194, Note_on_c, 0, 59, 0
2,301217, Control_c, 0, 64, 72
2,301274, Control_c, 0, 64, 71
2,301387, Control_c, 0, 64, 70
2,301427, Control_c, 0, 64, 69
2,301464, Control_c, 0, 64, 68
2,301483, Control_c, 0, 64, 67
2,301505, Control_c, 0, 64, 66
2,301523, Control_c, 0, 64, 64
2,301536, Note_on_c, 0, 59, 50
2,301541, Control_c, 0, 64, 63
2,301546, Note_on_c, 0, 51, 43
2,301553, Note_on_c, 0, 49, 0
2,301562, Control_c, 0, 64, 62
2,301599, Control_c, 0, 64, 61
2,301636, Control_c, 0, 64, 59
2,301649, Note_on_c, 0, 58, 0
2,301659, Control_c, 0, 64, 58
2,301715, Control_c, 0, 64, 57
2,301900, Note_on_c, 0, 49, 28
2,302007, Note_on_c, 0, 51, 0
2,302059, Control_c, 0, 64, 56
2,302270, Control_c, 0, 64, 57
2,302316, Note_on_c, 0, 47, 28
2,302321, Note_on_c, 0, 68, 57
2,302348, Control_c, 0, 64, 58
2,302367, Note_on_c, 0, 49, 0
2,302369, Control_c, 0, 64, 59
2,302374, Note_on_c, 0, 59, 0
2,302389, Control_c, 0, 64, 60
2,302409, Control_c, 0, 64, 63
2,302425, Control_c, 0, 64, 65
2,302444, Control_c, 0, 64, 67
2,302464, Control_c, 0, 64, 70
2,302482, Control_c, 0, 64, 72
2,302501, Control_c, 0, 64, 74
2,302522, Control_c, 0, 64, 75
2,302600, Control_c, 0, 64, 74
2,302637, Control_c, 0, 64, 73
2,302657, Control_c, 0, 64, 72
2,302676, Control_c, 0, 64, 71
2,302697, Control_c, 0, 64, 70
2,302697, Note_on_c, 0, 58, 53
2,302699, Note_on_c, 0, 49, 46
2,302715, Control_c, 0, 64, 69
2,302750, Note_on_c, 0, 47, 0
2,302754, Control_c, 0, 64, 68
2,302791, Control_c, 0, 64, 67
2,302809, Control_c, 0, 64, 66
2,302867, Control_c, 0, 64, 65
2,302945, Control_c, 0, 64, 64
2,303024, Control_c, 0, 64, 63
2,303042, Control_c, 0, 64, 62
2,303058, Control_c, 0, 64, 61
2,303079, Control_c, 0, 64, 60
2,303079, Note_on_c, 0, 63, 49
2,303098, Note_on_c, 0, 47, 32
2,303140, Note_on_c, 0, 49, 0
2,303140, Note_on_c, 0, 58, 0
2,303157, Control_c, 0, 64, 61
2,303174, Control_c, 0, 64, 62
2,303194, Control_c, 0, 64, 64
2,303211, Control_c, 0, 64, 65
2,303230, Control_c, 0, 64, 67
2,303250, Control_c, 0, 64, 70
2,303269, Control_c, 0, 64, 71
2,303297, Note_on_c, 0, 68, 0
2,303309, Control_c, 0, 64, 70
2,303384, Control_c, 0, 64, 69
2,303443, Control_c, 0, 64, 68
2,303463, Note_on_c, 0, 67, 54
2,303465, Note_on_c, 0, 61, 47
2,303472, Note_on_c, 0, 46, 42
2,303513, Note_on_c, 0, 47, 0
2,303524, Control_c, 0, 64, 67
2,303524, Note_on_c, 0, 63, 0
2,303581, Note_on_c, 0, 43, 0
2,303597, Control_c, 0, 64, 66
2,303675, Control_c, 0, 64, 65
2,303749, Control_c, 0, 64, 64
2,303830, Control_c, 0, 64, 63
2,303857, Note_on_c, 0, 63, 51
2,303857, Note_on_c, 0, 68, 62
2,303877, Note_on_c, 0, 47, 43
2,303881, Note_on_c, 0, 67, 0
2,303890, Note_on_c, 0, 46, 0
2,303904, Control_c, 0, 64, 62
2,303913, Note_on_c, 0, 61, 0
2,303962, Control_c, 0, 64, 60
2,303979, Control_c, 0, 64, 59
2,304000, Control_c, 0, 64, 57
2,304018, Control_c, 0, 64, 56
2,304039, Control_c, 0, 64, 55
2,304057, Control_c, 0, 64, 54
2,304076, Control_c, 0, 64, 53
2,304096, Control_c, 0, 64, 50
2,304114, Control_c, 0, 64, 44
2,304135, Control_c, 0, 64, 37
2,304152, Control_c, 0, 64, 30
2,304171, Control_c, 0, 64, 24
2,304191, Control_c, 0, 64, 20
2,304241, Note_on_c, 0, 61, 45
2,304260, Note_on_c, 0, 46, 37
2,304270, Control_c, 0, 64, 25
2,304275, Note_on_c, 0, 63, 0
2,304284, Note_on_c, 0, 47, 0
2,304289, Control_c, 0, 64, 35
2,304308, Control_c, 0, 64, 46
2,304325, Control_c, 0, 64, 54
2,304348, Control_c, 0, 64, 59
2,304363, Control_c, 0, 64, 60
2,304384, Control_c, 0, 64, 61
2,304423, Control_c, 0, 64, 62
2,304440, Control_c, 0, 64, 64
2,304460, Control_c, 0, 64, 65
2,304479, Control_c, 0, 64, 68
2,304499, Control_c, 0, 64, 72
2,304518, Control_c, 0, 64, 79
2,304537, Control_c, 0, 64, 89
2,304555, Control_c, 0, 64, 109
2,304577, Control_c, 0, 64, 127
2,304620, Note_on_c, 0, 59, 50
2,304624, Note_on_c, 0, 44, 48
2,304704, Note_on_c, 0, 44, 0
2,304709, Note_on_c, 0, 61, 0
2,304713, Note_on_c, 0, 46, 0
2,304718, Note_on_c, 0, 59, 0
2,304753, Note_on_c, 0, 68, 0
2,305022, Note_on_c, 0, 61, 60
2,305027, Note_on_c, 0, 51, 58
2,305077, Control_c, 0, 64, 103
2,305093, Control_c, 0, 64, 88
2,305113, Control_c, 0, 64, 80
2,305134, Control_c, 0, 64, 74
2,305154, Control_c, 0, 64, 71
2,305170, Control_c, 0, 64, 68
2,305191, Control_c, 0, 64, 67
2,305209, Control_c, 0, 64, 65
2,305226, Control_c, 0, 64, 64
2,305249, Control_c, 0, 64, 63
2,305266, Control_c, 0, 64, 62
2,305323, Control_c, 0, 64, 63
2,305343, Control_c, 0, 64, 62
2,305406, Note_on_c, 0, 59, 54
2,305410, Note_on_c, 0, 75, 67
2,305469, Note_on_c, 0, 61, 0
2,305516, Control_c, 0, 64, 61
2,305651, Control_c, 0, 64, 60
2,305786, Note_on_c, 0, 73, 72
2,305799, Note_on_c, 0, 58, 59
2,305852, Note_on_c, 0, 59, 0
2,305861, Note_on_c, 0, 75, 0
2,305883, Control_c, 0, 64, 59
2,305996, Control_c, 0, 64, 58
2,306073, Control_c, 0, 64, 57
2,306095, Control_c, 0, 64, 56
2,306112, Control_c, 0, 64, 55
2,306131, Control_c, 0, 64, 54
2,306170, Control_c, 0, 64, 52
2,306182, Note_on_c, 0, 59, 55
2,306182, Note_on_c, 0, 75, 75
2,306190, Control_c, 0, 64, 51
2,306209, Control_c, 0, 64, 50
2,306228, Note_on_c, 0, 58, 0
2,306232, Control_c, 0, 64, 49
2,306232, Note_on_c, 0, 73, 0
2,306246, Control_c, 0, 64, 48
2,306341, Control_c, 0, 64, 47
2,306380, Control_c, 0, 64, 46
2,306417, Control_c, 0, 64, 45
2,306439, Control_c, 0, 64, 44
2,306457, Control_c, 0, 64, 45
2,306476, Control_c, 0, 64, 49
2,306494, Control_c, 0, 64, 53
2,306518, Control_c, 0, 64, 54
2,306535, Control_c, 0, 64, 55
2,306552, Control_c, 0, 64, 57
2,306565, Note_on_c, 0, 58, 50
2,306565, Note_on_c, 0, 73, 67
2,306572, Control_c, 0, 64, 61
2,306591, Control_c, 0, 64, 66
2,306607, Note_on_c, 0, 59, 0
2,306614, Control_c, 0, 64, 71
2,306631, Control_c, 0, 64, 79
2,306641, Note_on_c, 0, 51, 0
2,306641, Note_on_c, 0, 58, 0
2,306650, Control_c, 0, 64, 89
2,306668, Control_c, 0, 64, 102
2,306689, Control_c, 0, 64, 127
2,306919, Control_c, 0, 64, 95
2,306928, Note_on_c, 0, 75, 0
2,306937, Control_c, 0, 64, 79
2,306956, Control_c, 0, 64, 68
2,306962, Note_on_c, 0, 71, 61
2,306965, Note_on_c, 0, 56, 54
2,306974, Control_c, 0, 64, 63
2,306978, Note_on_c, 0, 44, 46
2,306995, Control_c, 0, 64, 60
2,307017, Note_on_c, 0, 73, 0
2,307034, Control_c, 0, 64, 61
2,307051, Control_c, 0, 64, 64
2,307071, Control_c, 0, 64, 69
2,307089, Control_c, 0, 64, 81
2,307094, Note_on_c, 0, 44, 0
2,307111, Control_c, 0, 64, 127
2,307121, Note_on_c, 0, 56, 0
2,307367, Note_on_c, 0, 58, 54
2,307367, Note_on_c, 0, 73, 64
2,307396, Note_on_c, 0, 52, 48
2,307399, Note_on_c, 0, 71, 0
2,307403, Control_c, 0, 64, 102
2,307419, Control_c, 0, 64, 88
2,307438, Control_c, 0, 64, 81
2,307455, Control_c, 0, 64, 77
2,307475, Control_c, 0, 64, 73
2,307495, Control_c, 0, 64, 69
2,307512, Control_c, 0, 64, 67
2,307532, Control_c, 0, 64, 65
2,307551, Control_c, 0, 64, 64
2,307628, Control_c, 0, 64, 63
2,307665, Control_c, 0, 64, 62
2,307760, Note_on_c, 0, 71, 58
2,307764, Note_on_c, 0, 56, 43
2,307781, Control_c, 0, 64, 61
2,307801, Control_c, 0, 64, 60
2,307858, Note_on_c, 0, 58, 0
2,307877, Control_c, 0, 64, 59
2,307906, Note_on_c, 0, 73, 0
2,307995, Control_c, 0, 64, 58
2,308089, Control_c, 0, 64, 57
2,308157, Note_on_c, 0, 70, 56
2,308162, Note_on_c, 0, 55, 45
2,308238, Note_on_c, 0, 56, 0
2,308238, Note_on_c, 0, 71, 0
2,308300, Control_c, 0, 64, 56
2,308415, Control_c, 0, 64, 55
2,308434, Control_c, 0, 64, 54
2,308452, Control_c, 0, 64, 53
2,308493, Control_c, 0, 64, 52
2,308511, Control_c, 0, 64, 51
2,308529, Control_c, 0, 64, 50
2,308557, Note_on_c, 0, 71, 61
2,308564, Note_on_c, 0, 55, 0
2,308570, Control_c, 0, 64, 49
2,308579, Note_on_c, 0, 56, 33
2,308589, Control_c, 0, 64, 48
2,308609, Control_c, 0, 64, 47
2,308613, Note_on_c, 0, 52, 0
2,308627, Control_c, 0, 64, 46
2,308646, Control_c, 0, 64, 45
2,308664, Control_c, 0, 64, 43
2,308683, Control_c, 0, 64, 41
2,308692, Note_on_c, 0, 70, 0
2,308706, Control_c, 0, 64, 39
2,308721, Control_c, 0, 64, 37
2,308740, Control_c, 0, 64, 34
2,308760, Control_c, 0, 64, 31
2,308780, Control_c, 0, 64, 28
2,308801, Control_c, 0, 64, 22
2,308818, Control_c, 0, 64, 18
2,308840, Control_c, 0, 64, 16
2,308858, Control_c, 0, 64, 15
2,308875, Control_c, 0, 64, 13
2,308894, Control_c, 0, 64, 0
2,308950, Note_on_c, 0, 51, 41
2,309335, Note_on_c, 0, 50, 33
2,309382, Note_on_c, 0, 51, 0
2,309664, Control_c, 0, 64, 15
2,309682, Control_c, 0, 64, 16
2,309734, Note_on_c, 0, 51, 32
2,309741, Control_c, 0, 64, 19
2,309759, Control_c, 0, 64, 27
2,309778, Control_c, 0, 64, 32
2,309784, Note_on_c, 0, 50, 0
2,309800, Control_c, 0, 64, 33
2,309875, Control_c, 0, 64, 35
2,309893, Control_c, 0, 64, 38
2,309913, Control_c, 0, 64, 40
2,309933, Control_c, 0, 64, 42
2,309952, Control_c, 0, 64, 43
2,309970, Control_c, 0, 64, 44
2,310010, Control_c, 0, 64, 45
2,310028, Control_c, 0, 64, 46
2,310086, Control_c, 0, 64, 47
2,310125, Control_c, 0, 64, 48
2,310143, Control_c, 0, 64, 49
2,310149, Note_on_c, 0, 70, 53
2,310156, Note_on_c, 0, 61, 37
2,310163, Control_c, 0, 64, 50
2,310209, Note_on_c, 0, 56, 0
2,310222, Note_on_c, 0, 71, 0
2,310355, Control_c, 0, 64, 49
2,310526, Note_on_c, 0, 68, 58
2,310533, Note_on_c, 0, 59, 46
2,310546, Control_c, 0, 64, 48
2,310568, Note_on_c, 0, 61, 0
2,310568, Note_on_c, 0, 70, 0
2,310699, Control_c, 0, 64, 47
2,310872, Control_c, 0, 64, 46
2,310924, Note_on_c, 0, 70, 61
2,310938, Note_on_c, 0, 59, 0
2,310938, Note_on_c, 0, 61, 34
2,311007, Note_on_c, 0, 68, 0
2,311274, Control_c, 0, 64, 47
2,311317, Note_on_c, 0, 59, 52
2,311409, Note_on_c, 0, 61, 0
2,311696, Control_c, 0, 64, 48
2,311711, Note_on_c, 0, 58, 47
2,311736, Note_on_c, 0, 59, 0
2,312107, Note_on_c, 0, 59, 44
2,312180, Note_on_c, 0, 58, 0
2,312233, Control_c, 0, 64, 49
2,312348, Control_c, 0, 64, 50
2,312511, Note_on_c, 0, 68, 48
2,312626, Note_on_c, 0, 70, 0
2,312885, Control_c, 0, 64, 51
2,312907, Control_c, 0, 64, 53
2,312907, Note_on_c, 0, 67, 47
2,312942, Control_c, 0, 64, 54
2,312951, Note_on_c, 0, 68, 0
2,312962, Control_c, 0, 64, 55
2,312981, Control_c, 0, 64, 56
2,313004, Control_c, 0, 64, 57
2,313020, Control_c, 0, 64, 58
2,313040, Control_c, 0, 64, 60
2,313106, Note_on_c, 0, 51, 0
2,313137, Control_c, 0, 64, 61
2,313155, Control_c, 0, 64, 62
2,313298, Note_on_c, 0, 68, 62
2,313326, Control_c, 0, 64, 63
2,313388, Control_c, 0, 64, 64
2,313400, Note_on_c, 0, 67, 0
2,313481, Control_c, 0, 64, 65
2,313633, Control_c, 0, 64, 64
2,313673, Control_c, 0, 64, 63
2,313692, Control_c, 0, 64, 62
2,313703, Note_on_c, 0, 49, 46
2,313712, Control_c, 0, 64, 61
2,313729, Control_c, 0, 64, 60
2,313767, Control_c, 0, 64, 61
2,313789, Control_c, 0, 64, 62
2,313807, Control_c, 0, 64, 63
2,313826, Control_c, 0, 64, 64
2,313866, Control_c, 0, 64, 65
2,313902, Control_c, 0, 64, 67
2,313922, Control_c, 0, 64, 69
2,313944, Control_c, 0, 64, 73
2,313962, Control_c, 0, 64, 78
2,313980, Control_c, 0, 64, 83
2,314000, Control_c, 0, 64, 87
2,314020, Control_c, 0, 64, 90
2,314037, Control_c, 0, 64, 93
2,314057, Control_c, 0, 64, 97
2,314062, Note_on_c, 0, 47, 60
2,314071, Note_on_c, 0, 59, 0
2,314078, Control_c, 0, 64, 105
2,314095, Control_c, 0, 64, 127
2,314106, Note_on_c, 0, 49, 0
2,314454, Note_on_c, 0, 58, 66
2,314470, Note_on_c, 0, 47, 0
2,314479, Control_c, 0, 64, 97
2,314479, Note_on_c, 0, 49, 63
2,314498, Control_c, 0, 64, 83
2,314521, Control_c, 0, 64, 74
2,314536, Control_c, 0, 64, 67
2,314555, Control_c, 0, 64, 63
2,314575, Control_c, 0, 64, 61
2,314594, Control_c, 0, 64, 60
2,314633, Control_c, 0, 64, 61
2,314670, Control_c, 0, 64, 62
2,314691, Control_c, 0, 64, 63
2,314712, Control_c, 0, 64, 66
2,314732, Control_c, 0, 64, 71
2,314748, Control_c, 0, 64, 77
2,314768, Control_c, 0, 64, 81
2,314788, Control_c, 0, 64, 82
2,314808, Control_c, 0, 64, 83
2,314827, Control_c, 0, 64, 86
2,314844, Control_c, 0, 64, 96
2,314860, Note_on_c, 0, 47, 58
2,314862, Note_on_c, 0, 65, 66
2,314866, Control_c, 0, 64, 112
2,314882, Control_c, 0, 64, 127
2,314919, Note_on_c, 0, 49, 0
2,314934, Note_on_c, 0, 68, 0
2,315180, Note_on_c, 0, 58, 0
2,315238, Note_on_c, 0, 46, 58
2,315242, Note_on_c, 0, 67, 73
2,315298, Note_on_c, 0, 47, 0
2,315333, Note_on_c, 0, 65, 0
2,315498, Control_c, 0, 64, 118
2,315516, Control_c, 0, 64, 111
2,315534, Control_c, 0, 64, 107
2,315554, Control_c, 0, 64, 102
2,315574, Control_c, 0, 64, 95
2,315594, Control_c, 0, 64, 85
2,315612, Control_c, 0, 64, 77
2,315631, Control_c, 0, 64, 70
2,315639, Note_on_c, 0, 68, 66
2,315654, Control_c, 0, 64, 65
2,315654, Note_on_c, 0, 51, 51
2,315663, Note_on_c, 0, 46, 0
2,315663, Note_on_c, 0, 47, 44
2,315670, Control_c, 0, 64, 60
2,315688, Control_c, 0, 64, 53
2,315707, Control_c, 0, 64, 44
2,315727, Control_c, 0, 64, 33
2,315745, Control_c, 0, 64, 24
2,315766, Control_c, 0, 64, 20
2,315771, Note_on_c, 0, 67, 0
2,315786, Control_c, 0, 64, 19
2,315805, Control_c, 0, 64, 15
2,315822, Control_c, 0, 64, 8
2,315842, Control_c, 0, 64, 0
2,315921, Control_c, 0, 64, 20
2,315936, Control_c, 0, 64, 38
2,315955, Control_c, 0, 64, 52
2,315975, Control_c, 0, 64, 61
2,315995, Control_c, 0, 64, 66
2,316014, Control_c, 0, 64, 69
2,316018, Note_on_c, 0, 49, 54
2,316034, Control_c, 0, 64, 73
2,316034, Note_on_c, 0, 51, 0
2,316034, Note_on_c, 0, 70, 63
2,316055, Control_c, 0, 64, 78
2,316072, Control_c, 0, 64, 83
2,316086, Note_on_c, 0, 47, 0
2,316093, Control_c, 0, 64, 91
2,316113, Control_c, 0, 64, 98
2,316113, Note_on_c, 0, 68, 0
2,316131, Control_c, 0, 64, 106
2,316148, Control_c, 0, 64, 113
2,316171, Control_c, 0, 64, 118
2,316173, Note_on_c, 0, 49, 0
2,316188, Control_c, 0, 64, 122
2,316207, Control_c, 0, 64, 127
2,316222, Note_on_c, 0, 47, 62
2,316247, Control_c, 0, 64, 122
2,316264, Control_c, 0, 64, 111
2,316285, Control_c, 0, 64, 103
2,316285, Note_on_c, 0, 70, 0
2,316304, Control_c, 0, 64, 97
2,316321, Control_c, 0, 64, 92
2,316342, Control_c, 0, 64, 86
2,316360, Control_c, 0, 64, 77
2,316378, Control_c, 0, 64, 68
2,316399, Control_c, 0, 64, 62
2,316404, Note_on_c, 0, 71, 76
2,316412, Note_on_c, 0, 68, 62
2,316418, Control_c, 0, 64, 57
2,316429, Note_on_c, 0, 46, 53
2,316438, Note_on_c, 0, 47, 0
2,316458, Control_c, 0, 64, 58
2,316477, Control_c, 0, 64, 61
2,316495, Control_c, 0, 64, 65
2,316511, Note_on_c, 0, 68, 0
2,316515, Control_c, 0, 64, 68
2,316533, Control_c, 0, 64, 74
2,316554, Control_c, 0, 64, 80
2,316573, Control_c, 0, 64, 84
2,316591, Note_on_c, 0, 46, 0
2,316595, Note_on_c, 0, 44, 57
2,316668, Control_c, 0, 64, 83
2,316688, Control_c, 0, 64, 81
2,316709, Control_c, 0, 64, 76
2,316727, Control_c, 0, 64, 70
2,316747, Control_c, 0, 64, 64
2,316763, Control_c, 0, 64, 60
2,316784, Control_c, 0, 64, 59
2,316801, Control_c, 0, 64, 57
2,316806, Note_on_c, 0, 44, 0
2,316810, Note_on_c, 0, 39, 56
2,316810, Note_on_c, 0, 70, 72
2,316815, Note_on_c, 0, 67, 54
2,316823, Control_c, 0, 64, 55
2,316840, Control_c, 0, 64, 51
2,316848, Note_on_c, 0, 71, 0
2,316862, Control_c, 0, 64, 45
2,316880, Control_c, 0, 64, 39
2,316898, Control_c, 0, 64, 30
2,316917, Control_c, 0, 64, 25
2,316938, Control_c, 0, 64, 24
2,316956, Control_c, 0, 64, 26
2,316974, Control_c, 0, 64, 33
2,316995, Control_c, 0, 64, 43
2,317015, Control_c, 0, 64, 54
2,317033, Control_c, 0, 64, 62
2,317052, Control_c, 0, 64, 66
2,317071, Control_c, 0, 64, 71
2,317090, Control_c, 0, 64, 77
2,317109, Control_c, 0, 64, 83
2,317128, Control_c, 0, 64, 87
2,317147, Control_c, 0, 64, 89
2,317167, Control_c, 0, 64, 87
2,317185, Control_c, 0, 64, 81
2,317199, Note_on_c, 0, 75, 76
2,317206, Control_c, 0, 64, 74
2,317225, Control_c, 0, 64, 69
2,317244, Control_c, 0, 64, 68
2,317263, Control_c, 0, 64, 70
2,317267, Note_on_c, 0, 67, 0
2,317283, Control_c, 0, 64, 76
2,317283, Note_on_c, 0, 70, 0
2,317302, Control_c, 0, 64, 86
2,317320, Control_c, 0, 64, 111
2,317339, Control_c, 0, 64, 127
2,317553, Control_c, 0, 64, 120
2,317569, Control_c, 0, 64, 87
2,317589, Control_c, 0, 64, 70
2,317594, Note_on_c, 0, 63, 69
2,317608, Control_c, 0, 64, 62
2,317623, Note_on_c, 0, 66, 52
2,317628, Control_c, 0, 64, 58
2,317663, Note_on_c, 0, 75, 0
2,317667, Control_c, 0, 64, 59
2,317684, Control_c, 0, 64, 63
2,317704, Control_c, 0, 64, 66
2,317724, Control_c, 0, 64, 73
2,317742, Control_c, 0, 64, 92
2,317762, Control_c, 0, 64, 127
2,317779, Note_on_c, 0, 63, 0
2,317956, Control_c, 0, 64, 98
2,317972, Control_c, 0, 64, 85
2,317994, Note_on_c, 0, 68, 82
2,317998, Control_c, 0, 64, 75
2,318012, Control_c, 0, 64, 68
2,318024, Note_on_c, 0, 65, 40
2,318028, Note_on_c, 0, 66, 0
2,318033, Control_c, 0, 64, 64
2,318049, Control_c, 0, 64, 62
2,318068, Control_c, 0, 64, 60
2,318091, Control_c, 0, 64, 59
2,318111, Control_c, 0, 64, 58
2,318127, Control_c, 0, 64, 56
2,318146, Control_c, 0, 64, 54
2,318166, Control_c, 0, 64, 55
2,318184, Control_c, 0, 64, 57
2,318205, Control_c, 0, 64, 61
2,318226, Control_c, 0, 64, 64
2,318244, Control_c, 0, 64, 67
2,318261, Control_c, 0, 64, 72
2,318281, Control_c, 0, 64, 81
2,318301, Control_c, 0, 64, 92
2,318321, Control_c, 0, 64, 101
2,318338, Control_c, 0, 64, 107
2,318358, Control_c, 0, 64, 110
2,318376, Control_c, 0, 64, 115
2,318383, Note_on_c, 0, 65, 0
2,318383, Note_on_c, 0, 71, 65
2,318400, Control_c, 0, 64, 120
2,318416, Control_c, 0, 64, 127
2,318706, Control_c, 0, 64, 115
2,318725, Control_c, 0, 64, 94
2,318745, Control_c, 0, 64, 81
2,318765, Control_c, 0, 64, 70
2,318772, Note_on_c, 0, 37, 50
2,318772, Note_on_c, 0, 70, 67
2,318782, Control_c, 0, 64, 64
2,318801, Control_c, 0, 64, 59
2,318820, Note_on_c, 0, 71, 0
2,318824, Control_c, 0, 64, 58
2,318837, Note_on_c, 0, 68, 0
2,318844, Control_c, 0, 64, 60
2,318860, Control_c, 0, 64, 63
2,318874, Note_on_c, 0, 39, 0
2,318878, Control_c, 0, 64, 66
2,318897, Control_c, 0, 64, 73
2,318918, Control_c, 0, 64, 86
2,318936, Control_c, 0, 64, 116
2,318956, Control_c, 0, 64, 127
2,319127, Control_c, 0, 64, 87
2,319134, Note_on_c, 0, 70, 0
2,319143, Note_on_c, 0, 71, 60
2,319147, Control_c, 0, 64, 72
2,319167, Control_c, 0, 64, 66
2,319172, Note_on_c, 0, 44, 55
2,319187, Control_c, 0, 64, 64
2,319205, Control_c, 0, 64, 66
2,319224, Control_c, 0, 64, 69
2,319243, Control_c, 0, 64, 76
2,319262, Control_c, 0, 64, 94
2,319278, Note_on_c, 0, 37, 0
2,319282, Control_c, 0, 64, 127
2,319520, Note_on_c, 0, 70, 66
2,319611, Note_on_c, 0, 71, 0
2,319838, Control_c, 0, 64, 101
2,319859, Control_c, 0, 64, 80
2,319879, Control_c, 0, 64, 67
2,319896, Control_c, 0, 64, 60
2,319901, Note_on_c, 0, 68, 62
2,319918, Control_c, 0, 64, 58
2,319929, Note_on_c, 0, 37, 39
2,319929, Note_on_c, 0, 65, 40
2,319935, Control_c, 0, 64, 60
2,319956, Note_on_c, 0, 44, 0
2,319956, Note_on_c, 0, 70, 0
2,319961, Control_c, 0, 64, 63
2,319977, Control_c, 0, 64, 66
2,319992, Control_c, 0, 64, 73
2,320003, Note_on_c, 0, 65, 0
2,320013, Control_c, 0, 64, 91
2,320033, Control_c, 0, 64, 127
2,320033, Note_on_c, 0, 68, 0
2,320300, Note_on_c, 0, 70, 65
2,320315, Note_on_c, 0, 66, 58
2,320320, Control_c, 0, 64, 111
2,320330, Note_on_c, 0, 42, 46
2,320339, Control_c, 0, 64, 90
2,320354, Note_on_c, 0, 37, 0
2,320358, Control_c, 0, 64, 76
2,320376, Control_c, 0, 64, 68
2,320396, Control_c, 0, 64, 64
2,320417, Control_c, 0, 64, 63
2,320492, Control_c, 0, 64, 62
2,320530, Control_c, 0, 64, 61
2,320644, Control_c, 0, 64, 60
2,320665, Control_c, 0, 64, 59
2,320686, Control_c, 0, 64, 58
2,320686, Note_on_c, 0, 71, 67
2,320853, Note_on_c, 0, 70, 0
2,321068, Note_on_c, 0, 67, 48
2,321081, Note_on_c, 0, 39, 45
2,321081, Note_on_c, 0, 73, 78
2,321095, Note_on_c, 0, 42, 0
2,321142, Note_on_c, 0, 71, 0
2,321151, Note_on_c, 0, 66, 0
2,321183, Control_c, 0, 64, 57
2,321261, Control_c, 0, 64, 56
2,321356, Control_c, 0, 64, 55
2,321374, Control_c, 0, 64, 54
2,321394, Control_c, 0, 64, 53
2,321412, Control_c, 0, 64, 52
2,321431, Control_c, 0, 64, 51
2,321451, Note_on_c, 0, 71, 59
2,321455, Note_on_c, 0, 68, 59
2,321472, Note_on_c, 0, 44, 43
2,321530, Control_c, 0, 64, 53
2,321536, Note_on_c, 0, 67, 0
2,321536, Note_on_c, 0, 73, 0
2,321549, Control_c, 0, 64, 56
2,321566, Control_c, 0, 64, 60
2,321573, Note_on_c, 0, 39, 0
2,321587, Control_c, 0, 64, 63
2,321606, Control_c, 0, 64, 66
2,321623, Control_c, 0, 64, 68
2,321643, Control_c, 0, 64, 70
2,321662, Control_c, 0, 64, 72
2,321683, Control_c, 0, 64, 75
2,321701, Control_c, 0, 64, 77
2,321723, Control_c, 0, 64, 79
2,321758, Control_c, 0, 64, 78
2,321818, Control_c, 0, 64, 77
2,321836, Control_c, 0, 64, 76
2,321848, Note_on_c, 0, 76, 64
2,321857, Control_c, 0, 64, 75
2,321875, Control_c, 0, 64, 72
2,321895, Note_on_c, 0, 68, 0
2,321899, Control_c, 0, 64, 67
2,321914, Control_c, 0, 64, 65
2,321953, Control_c, 0, 64, 67
2,321959, Note_on_c, 0, 71, 0
2,321970, Control_c, 0, 64, 72
2,321991, Control_c, 0, 64, 84
2,322009, Control_c, 0, 64, 127
2,322181, Control_c, 0, 64, 111
2,322201, Control_c, 0, 64, 101
2,322219, Control_c, 0, 64, 94
2,322228, Note_on_c, 0, 47, 41
2,322237, Note_on_c, 0, 68, 62
2,322242, Control_c, 0, 64, 88
2,322259, Control_c, 0, 64, 83
2,322277, Control_c, 0, 64, 77
2,322298, Control_c, 0, 64, 73
2,322298, Note_on_c, 0, 76, 0
2,322305, Note_on_c, 0, 44, 0
2,322316, Control_c, 0, 64, 70
2,322336, Control_c, 0, 64, 69
2,322373, Control_c, 0, 64, 68
2,322411, Control_c, 0, 64, 67
2,322449, Control_c, 0, 64, 66
2,322469, Control_c, 0, 64, 65
2,322491, Control_c, 0, 64, 64
2,322527, Control_c, 0, 64, 63
2,322564, Control_c, 0, 64, 62
2,322603, Control_c, 0, 64, 61
2,322623, Control_c, 0, 64, 60
2,322630, Note_on_c, 0, 70, 63
2,322643, Note_on_c, 0, 52, 44
2,322662, Control_c, 0, 64, 59
2,322673, Note_on_c, 0, 47, 0
2,322700, Control_c, 0, 64, 58
2,322737, Control_c, 0, 64, 57
2,322775, Control_c, 0, 64, 56
2,322814, Control_c, 0, 64, 55
2,323008, Note_on_c, 0, 73, 64
2,323037, Note_on_c, 0, 70, 0
2,323400, Note_on_c, 0, 71, 59
2,323411, Note_on_c, 0, 49, 32
2,323433, Note_on_c, 0, 73, 0
2,323447, Note_on_c, 0, 52, 0
2,323766, Note_on_c, 0, 73, 60
2,323787, Note_on_c, 0, 67, 43
2,323803, Note_on_c, 0, 46, 36
2,323819, Note_on_c, 0, 71, 0
2,323829, Note_on_c, 0, 68, 0
2,323874, Note_on_c, 0, 49, 0
2,323947, Control_c, 0, 64, 54
2,324023, Control_c, 0, 64, 53
2,324063, Control_c, 0, 64, 52
2,324083, Control_c, 0, 64, 51
2,324100, Control_c, 0, 64, 49
2,324119, Control_c, 0, 64, 48
2,324140, Control_c, 0, 64, 45
2,324160, Control_c, 0, 64, 43
2,324164, Note_on_c, 0, 71, 52
2,324177, Control_c, 0, 64, 41
2,324196, Control_c, 0, 64, 39
2,324224, Note_on_c, 0, 73, 0
2,324254, Control_c, 0, 64, 40
2,324274, Control_c, 0, 64, 43
2,324291, Control_c, 0, 64, 46
2,324312, Control_c, 0, 64, 50
2,324331, Control_c, 0, 64, 53
2,324351, Control_c, 0, 64, 56
2,324371, Control_c, 0, 64, 57
2,324389, Control_c, 0, 64, 59
2,324409, Control_c, 0, 64, 60
2,324428, Control_c, 0, 64, 61
2,324447, Control_c, 0, 64, 62
2,324468, Control_c, 0, 64, 63
2,324485, Control_c, 0, 64, 64
2,324504, Control_c, 0, 64, 65
2,324522, Control_c, 0, 64, 66
2,324544, Control_c, 0, 64, 69
2,324548, Note_on_c, 0, 70, 52
2,324563, Control_c, 0, 64, 73
2,324574, Note_on_c, 0, 51, 42
2,324581, Control_c, 0, 64, 80
2,324594, Note_on_c, 0, 46, 0
2,324594, Note_on_c, 0, 71, 0
2,324601, Control_c, 0, 64, 92
2,324615, Note_on_c, 0, 67, 0
2,324619, Control_c, 0, 64, 115
2,324627, Note_on_c, 0, 70, 0
2,324640, Control_c, 0, 64, 127
2,324889, Control_c, 0, 64, 110
2,324906, Control_c, 0, 64, 98
2,324927, Control_c, 0, 64, 89
2,324949, Control_c, 0, 64, 81
2,324965, Control_c, 0, 64, 75
2,324976, Note_on_c, 0, 68, 54
2,324980, Note_on_c, 0, 71, 53
2,324985, Control_c, 0, 64, 70
2,324990, Note_on_c, 0, 44, 44
2,325003, Control_c, 0, 64, 68
2,325009, Note_on_c, 0, 51, 0
2,325026, Control_c, 0, 64, 66
2,325042, Control_c, 0, 64, 65
2,325061, Control_c, 0, 64, 64
2,325081, Control_c, 0, 64, 63
2,325100, Control_c, 0, 64, 62
2,325120, Control_c, 0, 64, 61
2,325140, Control_c, 0, 64, 60
2,325157, Control_c, 0, 64, 59
2,325179, Control_c, 0, 64, 58
2,325196, Control_c, 0, 64, 57
2,325216, Control_c, 0, 64, 56
2,325233, Control_c, 0, 64, 55
2,325254, Control_c, 0, 64, 53
2,325272, Control_c, 0, 64, 51
2,325291, Control_c, 0, 64, 49
2,325312, Control_c, 0, 64, 47
2,325329, Control_c, 0, 64, 46
2,325348, Control_c, 0, 64, 45
2,325369, Control_c, 0, 64, 44
2,325373, Note_on_c, 0, 73, 71
2,325426, Control_c, 0, 64, 45
2,325467, Control_c, 0, 64, 46
2,325502, Control_c, 0, 64, 47
2,325529, Note_on_c, 0, 71, 0
2,325561, Control_c, 0, 64, 48
2,325660, Control_c, 0, 64, 49
2,325694, Control_c, 0, 64, 50
2,325759, Note_on_c, 0, 44, 0
2,325764, Note_on_c, 0, 47, 39
2,325768, Note_on_c, 0, 75, 66
2,325810, Control_c, 0, 64, 51
2,325880, Note_on_c, 0, 73, 0
2,325905, Control_c, 0, 64, 52
2,325925, Control_c, 0, 64, 53
2,326021, Control_c, 0, 64, 54
2,326149, Note_on_c, 0, 40, 35
2,326155, Control_c, 0, 64, 53
2,326204, Note_on_c, 0, 47, 0
2,326213, Control_c, 0, 64, 52
2,326270, Control_c, 0, 64, 51
2,326309, Control_c, 0, 64, 50
2,326366, Control_c, 0, 64, 51
2,326405, Control_c, 0, 64, 52
2,326427, Control_c, 0, 64, 53
2,326462, Control_c, 0, 64, 55
2,326481, Control_c, 0, 64, 58
2,326504, Control_c, 0, 64, 60
2,326510, Note_on_c, 0, 40, 0
2,326522, Control_c, 0, 64, 59
2,326550, Note_on_c, 0, 73, 55
2,326559, Control_c, 0, 64, 60
2,326566, Note_on_c, 0, 52, 39
2,326577, Control_c, 0, 64, 63
2,326599, Control_c, 0, 64, 67
2,326617, Control_c, 0, 64, 76
2,326636, Control_c, 0, 64, 94
2,326654, Control_c, 0, 64, 127
2,326708, Note_on_c, 0, 75, 0
2,326924, Control_c, 0, 64, 104
2,326944, Control_c, 0, 64, 88
2,326944, Note_on_c, 0, 51, 47
2,326944, Note_on_c, 0, 71, 66
2,326963, Control_c, 0, 64, 77
2,326980, Control_c, 0, 64, 71
2,326998, Note_on_c, 0, 52, 0
2,327002, Control_c, 0, 64, 69
2,327026, Note_on_c, 0, 73, 0
2,327039, Control_c, 0, 64, 72
2,327058, Control_c, 0, 64, 81
2,327068, Note_on_c, 0, 71, 0
2,327077, Control_c, 0, 64, 112
2,327097, Control_c, 0, 64, 127
2,327352, Note_on_c, 0, 50, 40
2,327352, Note_on_c, 0, 70, 61
2,327385, Control_c, 0, 64, 105
2,327403, Control_c, 0, 64, 92
2,327424, Control_c, 0, 64, 82
2,327441, Control_c, 0, 64, 73
2,327460, Control_c, 0, 64, 67
2,327473, Note_on_c, 0, 51, 0
2,327480, Control_c, 0, 64, 64
2,327502, Control_c, 0, 64, 62
2,327518, Control_c, 0, 64, 61
2,327538, Control_c, 0, 64, 60
2,327556, Control_c, 0, 64, 58
2,327576, Control_c, 0, 64, 55
2,327594, Control_c, 0, 64, 53
2,327616, Control_c, 0, 64, 51
2,327636, Control_c, 0, 64, 50
2,327655, Control_c, 0, 64, 49
2,327671, Control_c, 0, 64, 47
2,327692, Control_c, 0, 64, 44
2,327710, Control_c, 0, 64, 41
2,327731, Control_c, 0, 64, 39
2,327735, Note_on_c, 0, 77, 67
2,327789, Control_c, 0, 64, 41
2,327806, Control_c, 0, 64, 43
2,327813, Note_on_c, 0, 70, 0
2,327825, Control_c, 0, 64, 47
2,327847, Control_c, 0, 64, 52
2,327865, Control_c, 0, 64, 58
2,327886, Control_c, 0, 64, 62
2,327902, Control_c, 0, 64, 63
2,327959, Control_c, 0, 64, 64
2,327979, Control_c, 0, 64, 66
2,328001, Control_c, 0, 64, 68
2,328016, Control_c, 0, 64, 72
2,328038, Control_c, 0, 64, 78
2,328055, Control_c, 0, 64, 87
2,328076, Control_c, 0, 64, 96
2,328094, Control_c, 0, 64, 109
2,328112, Control_c, 0, 64, 127
2,328123, Note_on_c, 0, 70, 63
2,328200, Note_on_c, 0, 77, 0
2,328225, Note_on_c, 0, 70, 0
2,328479, Control_c, 0, 64, 109
2,328496, Control_c, 0, 64, 101
2,328517, Control_c, 0, 64, 98
2,328534, Control_c, 0, 64, 96
2,328547, Note_on_c, 0, 70, 52
2,328555, Control_c, 0, 64, 95
2,328573, Control_c, 0, 64, 93
2,328594, Control_c, 0, 64, 90
2,328611, Note_on_c, 0, 68, 0
2,328616, Control_c, 0, 64, 87
2,328632, Control_c, 0, 64, 85
2,328651, Control_c, 0, 64, 84
2,328670, Control_c, 0, 64, 83
2,328709, Control_c, 0, 64, 82
2,328747, Control_c, 0, 64, 81
2,328786, Control_c, 0, 64, 79
2,328822, Control_c, 0, 64, 78
2,328845, Control_c, 0, 64, 76
2,328863, Control_c, 0, 64, 75
2,328881, Control_c, 0, 64, 73
2,328899, Control_c, 0, 64, 71
2,328920, Control_c, 0, 64, 70
2,328931, Note_on_c, 0, 67, 54
2,328945, Note_on_c, 0, 46, 41
2,328959, Control_c, 0, 64, 69
2,328979, Control_c, 0, 64, 68
2,328997, Control_c, 0, 64, 67
2,329016, Control_c, 0, 64, 66
2,329028, Note_on_c, 0, 50, 0
2,329035, Control_c, 0, 64, 65
2,329055, Control_c, 0, 64, 64
2,329095, Control_c, 0, 64, 63
2,329130, Control_c, 0, 64, 62
2,329246, Control_c, 0, 64, 61
2,329304, Control_c, 0, 64, 60
2,329340, Note_on_c, 0, 48, 42
2,329343, Note_on_c, 0, 65, 46
2,329361, Note_on_c, 0, 67, 0
2,329380, Control_c, 0, 64, 59
2,329439, Control_c, 0, 64, 58
2,329444, Note_on_c, 0, 46, 0
2,329497, Control_c, 0, 64, 57
2,329748, Note_on_c, 0, 49, 39
2,329748, Note_on_c, 0, 67, 47
2,329813, Note_on_c, 0, 48, 0
2,329822, Note_on_c, 0, 65, 0
2,329835, Note_on_c, 0, 70, 0
2,330037, Control_c, 0, 64, 58
2,330175, Note_on_c, 0, 76, 57
2,330188, Control_c, 0, 64, 59
2,330245, Control_c, 0, 64, 60
2,330281, Control_c, 0, 64, 61
2,330321, Control_c, 0, 64, 62
2,330342, Control_c, 0, 64, 63
2,330379, Control_c, 0, 64, 65
2,330402, Control_c, 0, 64, 66
2,330419, Control_c, 0, 64, 68
2,330436, Control_c, 0, 64, 69
2,330457, Control_c, 0, 64, 70
2,330477, Control_c, 0, 64, 72
2,330494, Control_c, 0, 64, 73
2,330514, Control_c, 0, 64, 75
2,330535, Control_c, 0, 64, 78
2,330552, Control_c, 0, 64, 81
2,330571, Control_c, 0, 64, 85
2,330578, Note_on_c, 0, 75, 60
2,330590, Control_c, 0, 64, 89
2,330610, Control_c, 0, 64, 94
2,330632, Control_c, 0, 64, 100
2,330647, Control_c, 0, 64, 106
2,330666, Control_c, 0, 64, 118
2,330674, Note_on_c, 0, 76, 0
2,330688, Control_c, 0, 64, 127
2,330694, Note_on_c, 0, 75, 0
2,331008, Note_on_c, 0, 75, 53
2,331051, Control_c, 0, 64, 112
2,331071, Control_c, 0, 64, 108
2,331091, Control_c, 0, 64, 105
2,331109, Control_c, 0, 64, 104
2,331128, Control_c, 0, 64, 102
2,331146, Control_c, 0, 64, 99
2,331165, Control_c, 0, 64, 96
2,331184, Control_c, 0, 64, 94
2,331205, Control_c, 0, 64, 92
2,331224, Control_c, 0, 64, 90
2,331264, Control_c, 0, 64, 89
2,331281, Control_c, 0, 64, 88
2,331321, Control_c, 0, 64, 87
2,331341, Control_c, 0, 64, 86
2,331357, Control_c, 0, 64, 84
2,331377, Control_c, 0, 64, 83
2,331396, Control_c, 0, 64, 81
2,331419, Control_c, 0, 64, 80
2,331419, Note_on_c, 0, 47, 43
2,331429, Note_on_c, 0, 49, 0
2,331438, Control_c, 0, 64, 79
2,331456, Control_c, 0, 64, 78
2,331475, Control_c, 0, 64, 77
2,331511, Control_c, 0, 64, 76
2,331531, Control_c, 0, 64, 75
2,331550, Control_c, 0, 64, 74
2,331572, Control_c, 0, 64, 73
2,331646, Control_c, 0, 64, 72
2,331688, Control_c, 0, 64, 71
2,331705, Control_c, 0, 64, 70
2,331744, Control_c, 0, 64, 69
2,331799, Control_c, 0, 64, 68
2,331813, Note_on_c, 0, 46, 45
2,331858, Note_on_c, 0, 47, 0
2,331875, Control_c, 0, 64, 67
2,331931, Control_c, 0, 64, 66
2,332026, Control_c, 0, 64, 65
2,332162, Control_c, 0, 64, 64
2,332241, Note_on_c, 0, 68, 49
2,332258, Control_c, 0, 64, 63
2,332275, Note_on_c, 0, 47, 36
2,332280, Note_on_c, 0, 46, 0
2,332283, Note_on_c, 0, 67, 0
2,332335, Control_c, 0, 64, 62
2,332689, Note_on_c, 0, 73, 50
2,332694, Note_on_c, 0, 46, 32
2,332782, Note_on_c, 0, 47, 0
2,332971, Note_on_c, 0, 75, 0
2,333158, Note_on_c, 0, 44, 38
2,333163, Note_on_c, 0, 71, 49
2,333247, Note_on_c, 0, 73, 0
2,333277, Note_on_c, 0, 46, 0
2,333783, Note_on_c, 0, 51, 33
2,333783, Note_on_c, 0, 75, 50
2,333968, Note_on_c, 0, 44, 0
2,333982, Control_c, 0, 64, 61
2,334076, Note_on_c, 0, 73, 48
2,334092, Note_on_c, 0, 71, 0
2,334311, Note_on_c, 0, 75, 0
2,334430, Note_on_c, 0, 71, 42
2,334463, Control_c, 0, 64, 60
2,334490, Note_on_c, 0, 73, 0
2,334521, Control_c, 0, 64, 59
2,334558, Control_c, 0, 64, 58
2,334578, Control_c, 0, 64, 59
2,334616, Control_c, 0, 64, 60
2,334637, Control_c, 0, 64, 62
2,334653, Control_c, 0, 64, 64
2,334657, Note_on_c, 0, 68, 0
2,334675, Control_c, 0, 64, 67
2,334692, Control_c, 0, 64, 71
2,334714, Control_c, 0, 64, 77
2,334731, Control_c, 0, 64, 85
2,334751, Control_c, 0, 64, 92
2,334772, Control_c, 0, 64, 96
2,334961, Control_c, 0, 64, 97
2,335154, Control_c, 0, 64, 96
2,335174, Control_c, 0, 64, 95
2,335192, Control_c, 0, 64, 93
2,335213, Control_c, 0, 64, 89
2,335232, Control_c, 0, 64, 85
2,335254, Control_c, 0, 64, 81
2,335254, Note_on_c, 0, 67, 35
2,335254, Note_on_c, 0, 70, 50
2,335259, Note_on_c, 0, 39, 41
2,335269, Control_c, 0, 64, 77
2,335287, Control_c, 0, 64, 74
2,335309, Control_c, 0, 64, 71
2,335330, Control_c, 0, 64, 69
2,335345, Control_c, 0, 64, 66
2,335362, Control_c, 0, 64, 65
2,335369, Note_on_c, 0, 71, 0
2,335382, Control_c, 0, 64, 64
2,335397, Note_on_c, 0, 51, 0
2,335400, Control_c, 0, 64, 63
2,335438, Control_c, 0, 64, 62
2,335497, Control_c, 0, 64, 61
2,335612, Control_c, 0, 64, 60
2,336804, Note_on_c, 0, 44, 35
2,336811, Note_on_c, 0, 68, 44
2,336900, Note_on_c, 0, 70, 0
2,337028, Note_on_c, 0, 67, 0
2,337039, Note_on_c, 0, 39, 0
2,341075, Control_c, 0, 64, 59
2,341286, Control_c, 0, 64, 58
2,341517, Control_c, 0, 64, 57
2,341743, Note_on_c, 0, 68, 0
2,341766, Control_c, 0, 64, 56
2,341835, Note_on_c, 0, 44, 0
2,342169, Control_c, 0, 64, 55
2,342609, Control_c, 0, 64, 54
2,342610, End_track
0, 0, End_of_file
